G04 (created by PCBNEW (2013-07-07 BZR 4022)-stable) date 27/11/2015 23:20:54*
%MOIN*%
G04 Gerber Fmt 3.4, Leading zero omitted, Abs format*
%FSLAX34Y34*%
G01*
G70*
G90*
G04 APERTURE LIST*
%ADD10C,0.005*%
%ADD11C,0.0077*%
%ADD12C,0.00787402*%
%ADD13C,0.011811*%
G04 APERTURE END LIST*
G54D10*
G54D11*
X87559Y-44881D02*
X39291Y-44881D01*
X87559Y-62913D02*
X87559Y-44881D01*
X39291Y-62913D02*
X87559Y-62913D01*
X39291Y-44881D02*
X39291Y-62913D01*
X85590Y-46850D02*
X84724Y-46850D01*
X85590Y-60944D02*
X85590Y-46850D01*
X84724Y-60944D02*
X85590Y-60944D01*
X41259Y-60944D02*
X45118Y-60944D01*
X41259Y-46850D02*
X41259Y-60944D01*
X45118Y-46850D02*
X41259Y-46850D01*
X67480Y-46850D02*
X83700Y-46850D01*
X46141Y-46850D02*
X66456Y-46850D01*
X67480Y-60944D02*
X83700Y-60944D01*
X46141Y-60944D02*
X66456Y-60944D01*
X46141Y-60000D02*
X46141Y-60944D01*
X45118Y-60000D02*
X45118Y-60944D01*
X45118Y-46850D02*
X45118Y-47716D01*
X42125Y-47716D02*
X42125Y-60000D01*
X84724Y-60000D02*
X42125Y-60000D01*
X84724Y-47716D02*
X84724Y-60000D01*
X42125Y-47716D02*
X84724Y-47716D01*
X66456Y-60000D02*
X66456Y-60944D01*
X67480Y-60000D02*
X67480Y-60944D01*
X83700Y-60000D02*
X83700Y-60944D01*
X84724Y-60000D02*
X84724Y-60944D01*
X66456Y-46850D02*
X66456Y-47716D01*
X83700Y-46850D02*
X83700Y-47716D01*
X67480Y-47716D02*
X67480Y-46850D01*
X84724Y-47716D02*
X84724Y-46850D01*
X46141Y-46850D02*
X46141Y-47716D01*
G54D12*
X44940Y-47539D02*
X45295Y-47893D01*
X45295Y-47539D02*
X44940Y-47893D01*
X44940Y-59822D02*
X45295Y-60177D01*
X45295Y-59822D02*
X44940Y-60177D01*
X45452Y-47539D02*
X45807Y-47893D01*
X45807Y-47539D02*
X45452Y-47893D01*
X45452Y-59822D02*
X45807Y-60177D01*
X45807Y-59822D02*
X45452Y-60177D01*
X45964Y-47539D02*
X46318Y-47893D01*
X46318Y-47539D02*
X45964Y-47893D01*
X45964Y-59822D02*
X46318Y-60177D01*
X46318Y-59822D02*
X45964Y-60177D01*
X66279Y-47539D02*
X66633Y-47893D01*
X66633Y-47539D02*
X66279Y-47893D01*
X66279Y-59822D02*
X66633Y-60177D01*
X66633Y-59822D02*
X66279Y-60177D01*
X66791Y-47539D02*
X67145Y-47893D01*
X67145Y-47539D02*
X66791Y-47893D01*
X66791Y-59822D02*
X67145Y-60177D01*
X67145Y-59822D02*
X66791Y-60177D01*
X67303Y-47539D02*
X67657Y-47893D01*
X67657Y-47539D02*
X67303Y-47893D01*
X67303Y-59822D02*
X67657Y-60177D01*
X67657Y-59822D02*
X67303Y-60177D01*
X83523Y-47539D02*
X83877Y-47893D01*
X83877Y-47539D02*
X83523Y-47893D01*
X83523Y-59822D02*
X83877Y-60177D01*
X83877Y-59822D02*
X83523Y-60177D01*
X84035Y-47539D02*
X84389Y-47893D01*
X84389Y-47539D02*
X84035Y-47893D01*
X84035Y-59822D02*
X84389Y-60177D01*
X84389Y-59822D02*
X84035Y-60177D01*
X84547Y-47539D02*
X84901Y-47893D01*
X84901Y-47539D02*
X84547Y-47893D01*
X84547Y-59822D02*
X84901Y-60177D01*
X84901Y-59822D02*
X84547Y-60177D01*
G54D13*
X40321Y-64729D02*
X40321Y-63548D01*
X40602Y-63548D01*
X40771Y-63604D01*
X40883Y-63716D01*
X40940Y-63829D01*
X40996Y-64054D01*
X40996Y-64222D01*
X40940Y-64447D01*
X40883Y-64560D01*
X40771Y-64672D01*
X40602Y-64729D01*
X40321Y-64729D01*
X41502Y-64729D02*
X41502Y-63941D01*
X41502Y-64166D02*
X41558Y-64054D01*
X41615Y-63998D01*
X41727Y-63941D01*
X41840Y-63941D01*
X42233Y-64729D02*
X42233Y-63941D01*
X42233Y-63548D02*
X42177Y-63604D01*
X42233Y-63660D01*
X42289Y-63604D01*
X42233Y-63548D01*
X42233Y-63660D01*
X42964Y-64729D02*
X42852Y-64672D01*
X42796Y-64560D01*
X42796Y-63548D01*
X43583Y-64729D02*
X43471Y-64672D01*
X43414Y-64560D01*
X43414Y-63548D01*
X44933Y-64729D02*
X44933Y-63548D01*
X45327Y-64391D01*
X45720Y-63548D01*
X45720Y-64729D01*
X46789Y-64729D02*
X46789Y-64110D01*
X46733Y-63998D01*
X46620Y-63941D01*
X46395Y-63941D01*
X46283Y-63998D01*
X46789Y-64672D02*
X46676Y-64729D01*
X46395Y-64729D01*
X46283Y-64672D01*
X46226Y-64560D01*
X46226Y-64447D01*
X46283Y-64335D01*
X46395Y-64279D01*
X46676Y-64279D01*
X46789Y-64222D01*
X47351Y-63941D02*
X47351Y-65122D01*
X47351Y-63998D02*
X47464Y-63941D01*
X47689Y-63941D01*
X47801Y-63998D01*
X47858Y-64054D01*
X47914Y-64166D01*
X47914Y-64504D01*
X47858Y-64616D01*
X47801Y-64672D01*
X47689Y-64729D01*
X47464Y-64729D01*
X47351Y-64672D01*
X48420Y-64616D02*
X48476Y-64672D01*
X48420Y-64729D01*
X48364Y-64672D01*
X48420Y-64616D01*
X48420Y-64729D01*
X48420Y-63998D02*
X48476Y-64054D01*
X48420Y-64110D01*
X48364Y-64054D01*
X48420Y-63998D01*
X48420Y-64110D01*
X38898Y-66554D02*
X39252Y-66908D01*
X39252Y-66554D02*
X38898Y-66908D01*
X40546Y-66028D02*
X40658Y-66028D01*
X40771Y-66084D01*
X40827Y-66140D01*
X40883Y-66253D01*
X40940Y-66478D01*
X40940Y-66759D01*
X40883Y-66984D01*
X40827Y-67096D01*
X40771Y-67153D01*
X40658Y-67209D01*
X40546Y-67209D01*
X40433Y-67153D01*
X40377Y-67096D01*
X40321Y-66984D01*
X40265Y-66759D01*
X40265Y-66478D01*
X40321Y-66253D01*
X40377Y-66140D01*
X40433Y-66084D01*
X40546Y-66028D01*
X41446Y-67096D02*
X41502Y-67153D01*
X41446Y-67209D01*
X41390Y-67153D01*
X41446Y-67096D01*
X41446Y-67209D01*
X42064Y-67209D02*
X42289Y-67209D01*
X42402Y-67153D01*
X42458Y-67096D01*
X42571Y-66928D01*
X42627Y-66703D01*
X42627Y-66253D01*
X42571Y-66140D01*
X42514Y-66084D01*
X42402Y-66028D01*
X42177Y-66028D01*
X42064Y-66084D01*
X42008Y-66140D01*
X41952Y-66253D01*
X41952Y-66534D01*
X42008Y-66647D01*
X42064Y-66703D01*
X42177Y-66759D01*
X42402Y-66759D01*
X42514Y-66703D01*
X42571Y-66647D01*
X42627Y-66534D01*
X43358Y-66028D02*
X43471Y-66028D01*
X43583Y-66084D01*
X43639Y-66140D01*
X43696Y-66253D01*
X43752Y-66478D01*
X43752Y-66759D01*
X43696Y-66984D01*
X43639Y-67096D01*
X43583Y-67153D01*
X43471Y-67209D01*
X43358Y-67209D01*
X43246Y-67153D01*
X43189Y-67096D01*
X43133Y-66984D01*
X43077Y-66759D01*
X43077Y-66478D01*
X43133Y-66253D01*
X43189Y-66140D01*
X43246Y-66084D01*
X43358Y-66028D01*
X44258Y-67209D02*
X44258Y-66422D01*
X44258Y-66534D02*
X44314Y-66478D01*
X44427Y-66422D01*
X44595Y-66422D01*
X44708Y-66478D01*
X44764Y-66590D01*
X44764Y-67209D01*
X44764Y-66590D02*
X44820Y-66478D01*
X44933Y-66422D01*
X45102Y-66422D01*
X45214Y-66478D01*
X45270Y-66590D01*
X45270Y-67209D01*
X45833Y-67209D02*
X45833Y-66422D01*
X45833Y-66534D02*
X45889Y-66478D01*
X46001Y-66422D01*
X46170Y-66422D01*
X46283Y-66478D01*
X46339Y-66590D01*
X46339Y-67209D01*
X46339Y-66590D02*
X46395Y-66478D01*
X46508Y-66422D01*
X46676Y-66422D01*
X46789Y-66478D01*
X46845Y-66590D01*
X46845Y-67209D01*
X49151Y-65972D02*
X48139Y-67490D01*
X50670Y-66028D02*
X50782Y-66028D01*
X50895Y-66084D01*
X50951Y-66140D01*
X51007Y-66253D01*
X51063Y-66478D01*
X51063Y-66759D01*
X51007Y-66984D01*
X50951Y-67096D01*
X50895Y-67153D01*
X50782Y-67209D01*
X50670Y-67209D01*
X50557Y-67153D01*
X50501Y-67096D01*
X50445Y-66984D01*
X50388Y-66759D01*
X50388Y-66478D01*
X50445Y-66253D01*
X50501Y-66140D01*
X50557Y-66084D01*
X50670Y-66028D01*
X51570Y-67096D02*
X51626Y-67153D01*
X51570Y-67209D01*
X51513Y-67153D01*
X51570Y-67096D01*
X51570Y-67209D01*
X52357Y-66028D02*
X52469Y-66028D01*
X52582Y-66084D01*
X52638Y-66140D01*
X52694Y-66253D01*
X52751Y-66478D01*
X52751Y-66759D01*
X52694Y-66984D01*
X52638Y-67096D01*
X52582Y-67153D01*
X52469Y-67209D01*
X52357Y-67209D01*
X52244Y-67153D01*
X52188Y-67096D01*
X52132Y-66984D01*
X52076Y-66759D01*
X52076Y-66478D01*
X52132Y-66253D01*
X52188Y-66140D01*
X52244Y-66084D01*
X52357Y-66028D01*
X53144Y-66028D02*
X53876Y-66028D01*
X53482Y-66478D01*
X53651Y-66478D01*
X53763Y-66534D01*
X53819Y-66590D01*
X53876Y-66703D01*
X53876Y-66984D01*
X53819Y-67096D01*
X53763Y-67153D01*
X53651Y-67209D01*
X53313Y-67209D01*
X53201Y-67153D01*
X53144Y-67096D01*
X54944Y-66028D02*
X54382Y-66028D01*
X54325Y-66590D01*
X54382Y-66534D01*
X54494Y-66478D01*
X54775Y-66478D01*
X54888Y-66534D01*
X54944Y-66590D01*
X55000Y-66703D01*
X55000Y-66984D01*
X54944Y-67096D01*
X54888Y-67153D01*
X54775Y-67209D01*
X54494Y-67209D01*
X54382Y-67153D01*
X54325Y-67096D01*
X55450Y-66028D02*
X55450Y-66253D01*
X55900Y-66028D02*
X55900Y-66253D01*
X57644Y-67659D02*
X57588Y-67603D01*
X57475Y-67434D01*
X57419Y-67321D01*
X57363Y-67153D01*
X57306Y-66872D01*
X57306Y-66647D01*
X57363Y-66365D01*
X57419Y-66197D01*
X57475Y-66084D01*
X57588Y-65915D01*
X57644Y-65859D01*
X58712Y-67209D02*
X58037Y-67209D01*
X58375Y-67209D02*
X58375Y-66028D01*
X58262Y-66197D01*
X58150Y-66309D01*
X58037Y-66365D01*
X59387Y-66534D02*
X59275Y-66478D01*
X59219Y-66422D01*
X59162Y-66309D01*
X59162Y-66253D01*
X59219Y-66140D01*
X59275Y-66084D01*
X59387Y-66028D01*
X59612Y-66028D01*
X59725Y-66084D01*
X59781Y-66140D01*
X59837Y-66253D01*
X59837Y-66309D01*
X59781Y-66422D01*
X59725Y-66478D01*
X59612Y-66534D01*
X59387Y-66534D01*
X59275Y-66590D01*
X59219Y-66647D01*
X59162Y-66759D01*
X59162Y-66984D01*
X59219Y-67096D01*
X59275Y-67153D01*
X59387Y-67209D01*
X59612Y-67209D01*
X59725Y-67153D01*
X59781Y-67096D01*
X59837Y-66984D01*
X59837Y-66759D01*
X59781Y-66647D01*
X59725Y-66590D01*
X59612Y-66534D01*
X61243Y-67209D02*
X61243Y-66028D01*
X61750Y-67209D02*
X61750Y-66590D01*
X61693Y-66478D01*
X61581Y-66422D01*
X61412Y-66422D01*
X61300Y-66478D01*
X61243Y-66534D01*
X62481Y-67209D02*
X62368Y-67153D01*
X62312Y-67096D01*
X62256Y-66984D01*
X62256Y-66647D01*
X62312Y-66534D01*
X62368Y-66478D01*
X62481Y-66422D01*
X62649Y-66422D01*
X62762Y-66478D01*
X62818Y-66534D01*
X62874Y-66647D01*
X62874Y-66984D01*
X62818Y-67096D01*
X62762Y-67153D01*
X62649Y-67209D01*
X62481Y-67209D01*
X63549Y-67209D02*
X63437Y-67153D01*
X63381Y-67040D01*
X63381Y-66028D01*
X64449Y-67153D02*
X64337Y-67209D01*
X64112Y-67209D01*
X63999Y-67153D01*
X63943Y-67040D01*
X63943Y-66590D01*
X63999Y-66478D01*
X64112Y-66422D01*
X64337Y-66422D01*
X64449Y-66478D01*
X64505Y-66590D01*
X64505Y-66703D01*
X63943Y-66815D01*
X64955Y-67153D02*
X65068Y-67209D01*
X65293Y-67209D01*
X65405Y-67153D01*
X65462Y-67040D01*
X65462Y-66984D01*
X65405Y-66872D01*
X65293Y-66815D01*
X65124Y-66815D01*
X65012Y-66759D01*
X64955Y-66647D01*
X64955Y-66590D01*
X65012Y-66478D01*
X65124Y-66422D01*
X65293Y-66422D01*
X65405Y-66478D01*
X65855Y-67659D02*
X65912Y-67603D01*
X66024Y-67434D01*
X66080Y-67321D01*
X66136Y-67153D01*
X66193Y-66872D01*
X66193Y-66647D01*
X66136Y-66365D01*
X66080Y-66197D01*
X66024Y-66084D01*
X65912Y-65915D01*
X65855Y-65859D01*
M02*
