G04 (created by PCBNEW (2013-07-07 BZR 4022)-stable) date 27/11/2015 23:20:48*
%MOIN*%
G04 Gerber Fmt 3.4, Leading zero omitted, Abs format*
%FSLAX34Y34*%
G01*
G70*
G90*
G04 APERTURE LIST*
%ADD10C,0.00590551*%
%ADD11C,0.019685*%
%ADD12C,0.0472441*%
%ADD13O,0.15748X0.0629921*%
%ADD14C,0.015748*%
%ADD15C,0.019685*%
%ADD16C,0.015748*%
%ADD17C,0.011811*%
%ADD18C,0.0393701*%
G04 APERTURE END LIST*
G54D10*
G54D11*
X62539Y-59232D03*
X62893Y-59232D03*
X62893Y-58562D03*
X62539Y-58562D03*
X56358Y-56082D03*
X56712Y-56082D03*
X56712Y-56437D03*
X56358Y-56437D03*
X56358Y-56751D03*
X56712Y-56751D03*
X56712Y-57066D03*
X56358Y-57066D03*
X70629Y-52381D03*
X70275Y-52381D03*
X69704Y-52381D03*
X71653Y-53838D03*
X71653Y-53484D03*
X70708Y-53838D03*
X70708Y-53484D03*
X71023Y-53484D03*
X71338Y-53484D03*
X71338Y-53838D03*
X71023Y-53838D03*
X69704Y-53307D03*
X69704Y-53779D03*
X70629Y-51771D03*
X70984Y-51771D03*
X71653Y-49606D03*
X72244Y-49606D03*
X70629Y-49606D03*
X70984Y-49606D03*
X70984Y-50000D03*
X70629Y-50000D03*
X70984Y-50728D03*
X70629Y-50728D03*
X70984Y-51062D03*
X70629Y-51062D03*
X83188Y-55393D03*
X83661Y-55393D03*
X83661Y-54606D03*
X42736Y-50551D03*
X42736Y-49940D03*
X46496Y-48188D03*
X45748Y-48188D03*
X44251Y-48188D03*
X45000Y-48188D03*
X52677Y-48818D03*
X52204Y-48818D03*
X48818Y-57362D03*
X48385Y-57362D03*
X79881Y-57440D03*
X76259Y-57007D03*
X75275Y-57007D03*
X74251Y-57007D03*
X69114Y-53779D03*
X69114Y-53307D03*
X67952Y-49271D03*
X68543Y-49271D03*
X67244Y-49271D03*
X66653Y-49271D03*
X80472Y-52952D03*
X80472Y-52519D03*
X76062Y-50118D03*
X74645Y-50354D03*
X84133Y-54606D03*
X84133Y-55393D03*
X84133Y-49291D03*
X84133Y-48503D03*
X76811Y-48149D03*
X80629Y-48996D03*
X80629Y-49566D03*
X80944Y-52952D03*
X80944Y-53346D03*
X81259Y-48996D03*
X80944Y-50708D03*
X80629Y-51496D03*
X81259Y-51496D03*
X80944Y-52519D03*
X81259Y-53779D03*
X80590Y-54251D03*
X81259Y-54251D03*
X79251Y-55157D03*
X79881Y-55157D03*
X76811Y-48464D03*
X75590Y-48464D03*
X74133Y-49094D03*
X74133Y-50354D03*
X74133Y-54448D03*
X43070Y-58346D03*
X43385Y-58346D03*
X43385Y-58661D03*
X43070Y-58661D03*
X43385Y-57322D03*
X43070Y-57322D03*
X43070Y-56614D03*
X43385Y-56614D03*
X43385Y-56968D03*
X43070Y-56968D03*
X43070Y-55590D03*
X43385Y-55590D03*
X43385Y-55275D03*
X43070Y-55275D03*
X81102Y-57440D03*
X82007Y-57440D03*
X82952Y-57440D03*
X83543Y-57440D03*
X82952Y-59448D03*
X81732Y-59448D03*
X79212Y-59448D03*
X80433Y-59448D03*
X72244Y-50000D03*
X71653Y-50000D03*
X70629Y-50393D03*
X70984Y-50393D03*
X80748Y-55157D03*
X81259Y-55157D03*
X74133Y-50984D03*
X74133Y-52224D03*
X74133Y-53110D03*
X74133Y-53740D03*
X77500Y-55157D03*
X77165Y-55157D03*
X76574Y-55157D03*
X75354Y-55157D03*
X75944Y-55157D03*
X74724Y-55157D03*
X54468Y-54448D03*
X54468Y-53976D03*
X54822Y-53976D03*
X54822Y-54448D03*
X54645Y-54212D03*
G54D12*
X43228Y-56082D03*
G54D13*
X43228Y-54665D03*
X43228Y-59271D03*
G54D12*
X43228Y-57854D03*
G54D11*
X74133Y-55157D03*
G54D14*
X67716Y-51181D03*
X66850Y-51181D03*
X68582Y-51181D03*
X70354Y-55196D03*
X70354Y-54960D03*
X57283Y-55570D03*
X57519Y-55570D03*
X53149Y-54212D03*
X55757Y-50679D03*
X55757Y-49891D03*
X55472Y-53503D03*
X55600Y-51387D03*
X57017Y-50679D03*
X53238Y-48789D03*
X54970Y-51387D03*
X54025Y-51387D03*
X57017Y-49891D03*
X55127Y-48789D03*
X56230Y-51387D03*
X55757Y-48789D03*
X56860Y-51387D03*
X57017Y-48789D03*
X57490Y-51387D03*
X57647Y-48789D03*
X56387Y-48789D03*
X59744Y-50472D03*
X51870Y-52047D03*
X59744Y-52440D03*
X59744Y-53228D03*
X50708Y-51200D03*
X59744Y-51259D03*
X65059Y-48799D03*
X62500Y-49685D03*
X63681Y-49685D03*
X60137Y-49685D03*
X61318Y-49685D03*
X59153Y-48799D03*
X75000Y-51397D03*
X76614Y-54015D03*
X55098Y-56358D03*
X55393Y-56633D03*
X51141Y-57598D03*
X51377Y-57598D03*
X63366Y-55649D03*
X65354Y-55216D03*
X51543Y-49692D03*
X52598Y-55629D03*
X51574Y-57598D03*
X60137Y-54015D03*
X62893Y-54409D03*
X63681Y-54015D03*
X59153Y-55295D03*
X64468Y-50472D03*
X53818Y-53622D03*
X45748Y-52657D03*
X64468Y-52440D03*
X61712Y-54409D03*
X49035Y-56200D03*
X49606Y-49409D03*
X49606Y-50492D03*
X64468Y-51259D03*
X64468Y-53228D03*
X76417Y-51633D03*
X75610Y-52559D03*
X61811Y-57559D03*
X70354Y-56830D03*
X56358Y-58385D03*
X56594Y-58385D03*
X56594Y-58188D03*
X56358Y-58188D03*
X71988Y-52303D03*
X83326Y-54173D03*
X71712Y-52165D03*
X72460Y-51122D03*
X72224Y-51122D03*
X70354Y-56614D03*
X70157Y-56614D03*
X70157Y-56830D03*
X64980Y-57637D03*
X51397Y-58149D03*
X65196Y-57637D03*
X75905Y-49055D03*
X76338Y-49055D03*
X51397Y-57933D03*
X64980Y-57421D03*
X64685Y-57283D03*
X51397Y-58366D03*
X44153Y-53031D03*
X44350Y-53248D03*
X46968Y-58307D03*
X44566Y-53248D03*
X46751Y-58307D03*
X46751Y-58070D03*
X56240Y-57637D03*
X56240Y-57834D03*
X64094Y-56830D03*
X64094Y-57066D03*
X48346Y-51889D03*
X44724Y-56653D03*
X44724Y-57283D03*
X48661Y-51889D03*
X58937Y-55511D03*
X49133Y-54783D03*
X50905Y-49311D03*
X50236Y-54094D03*
X72677Y-49251D03*
X51692Y-48503D03*
X50866Y-54409D03*
X73031Y-49251D03*
X51417Y-48346D03*
X50551Y-53779D03*
X73582Y-49251D03*
X51909Y-48169D03*
X51496Y-54409D03*
X60137Y-52047D03*
X57618Y-53307D03*
X60531Y-52047D03*
X57952Y-53307D03*
X60531Y-52440D03*
X58287Y-53307D03*
X49291Y-52204D03*
X45984Y-51673D03*
X45748Y-53877D03*
X44724Y-58464D03*
X45748Y-53622D03*
X44724Y-57834D03*
X75000Y-51751D03*
X75708Y-51279D03*
X76043Y-54271D03*
X81259Y-58976D03*
X81968Y-49370D03*
X61181Y-58307D03*
X61318Y-53622D03*
X61437Y-58307D03*
X82263Y-58582D03*
X82362Y-49370D03*
X61712Y-53622D03*
X75846Y-55669D03*
X62696Y-55295D03*
X76299Y-58051D03*
X62106Y-54409D03*
X60137Y-54803D03*
X67381Y-59055D03*
X69389Y-58877D03*
X60925Y-54015D03*
X69724Y-57244D03*
X60531Y-55295D03*
X70334Y-58700D03*
X60925Y-54803D03*
X71377Y-58700D03*
X61122Y-55295D03*
X61318Y-54803D03*
X72125Y-56830D03*
X61515Y-55295D03*
X72381Y-56830D03*
X74744Y-55669D03*
X62106Y-54803D03*
X79251Y-57322D03*
X62500Y-54015D03*
X80551Y-57637D03*
X61318Y-53228D03*
X81358Y-56948D03*
X62500Y-53622D03*
X81751Y-57637D03*
X62106Y-53622D03*
X62500Y-53228D03*
X82263Y-56535D03*
X83346Y-56102D03*
X62106Y-53228D03*
X61712Y-53228D03*
X82559Y-57637D03*
X78366Y-57834D03*
X62500Y-54803D03*
X62106Y-54015D03*
X79468Y-57637D03*
X62500Y-54409D03*
X77559Y-57362D03*
X77342Y-58051D03*
X61318Y-54015D03*
X74370Y-58779D03*
X61909Y-55295D03*
X73385Y-58858D03*
X61712Y-54803D03*
X69192Y-57637D03*
X60688Y-57677D03*
X61318Y-54409D03*
X75354Y-58779D03*
X62303Y-55295D03*
X64094Y-56574D03*
X63287Y-54409D03*
X66515Y-57440D03*
X63681Y-50866D03*
X60531Y-52834D03*
X63287Y-51259D03*
X63681Y-50472D03*
X60137Y-53622D03*
X54025Y-51072D03*
X61318Y-51259D03*
X54183Y-49891D03*
X62303Y-48799D03*
X63090Y-48799D03*
X54025Y-49498D03*
X53405Y-50679D03*
X60137Y-49291D03*
X59940Y-48799D03*
X53001Y-49340D03*
X61712Y-50866D03*
X54183Y-50679D03*
X53710Y-49498D03*
X61515Y-48799D03*
X53710Y-51072D03*
X64074Y-50078D03*
X53868Y-49891D03*
X61909Y-48799D03*
X53868Y-50679D03*
X61712Y-51259D03*
X59547Y-48799D03*
X53395Y-49498D03*
X59744Y-49685D03*
X53395Y-51072D03*
X61122Y-48799D03*
X53553Y-49891D03*
X63484Y-48799D03*
X54340Y-49498D03*
X64271Y-48799D03*
X54498Y-49891D03*
X64665Y-48799D03*
X54655Y-49498D03*
X54655Y-51072D03*
X60925Y-50472D03*
X61318Y-50472D03*
X54970Y-51072D03*
X55600Y-51072D03*
X62893Y-50472D03*
X62893Y-49291D03*
X55600Y-49498D03*
X56702Y-50679D03*
X62106Y-50078D03*
X56702Y-49891D03*
X60531Y-49291D03*
X56702Y-48789D03*
X60728Y-48799D03*
X61712Y-50078D03*
X56545Y-51387D03*
X60334Y-48799D03*
X57332Y-48789D03*
X62106Y-49685D03*
X57175Y-51387D03*
X63287Y-50078D03*
X55442Y-50679D03*
X55442Y-49891D03*
X62500Y-49291D03*
X63287Y-49291D03*
X55442Y-48789D03*
X62500Y-50866D03*
X55285Y-51387D03*
X56072Y-48789D03*
X64074Y-49291D03*
X62106Y-50866D03*
X55915Y-51387D03*
X60925Y-49291D03*
X56860Y-51072D03*
X61318Y-49291D03*
X56860Y-49498D03*
X56072Y-49891D03*
X64074Y-49685D03*
X62500Y-50472D03*
X56072Y-50679D03*
X62106Y-49291D03*
X54655Y-51387D03*
X57332Y-49891D03*
X62106Y-50472D03*
X62696Y-48799D03*
X57332Y-50679D03*
X60925Y-50866D03*
X54498Y-50679D03*
X61318Y-50866D03*
X54340Y-51072D03*
X61712Y-50472D03*
X54812Y-50679D03*
X61712Y-49291D03*
X54812Y-49891D03*
X66377Y-54409D03*
X63287Y-54015D03*
X65354Y-51062D03*
X67677Y-52047D03*
X66850Y-51889D03*
X64862Y-50866D03*
X66377Y-51574D03*
X64074Y-50866D03*
X67677Y-52677D03*
X65354Y-51850D03*
X65354Y-49881D03*
X68976Y-51574D03*
X65354Y-51456D03*
X66377Y-52204D03*
X67677Y-52362D03*
X63681Y-51259D03*
X67677Y-51732D03*
X63287Y-50866D03*
X68582Y-51732D03*
X64862Y-49685D03*
X65354Y-49488D03*
X68976Y-51889D03*
X62893Y-51259D03*
X66850Y-52519D03*
X64862Y-50078D03*
X68582Y-52047D03*
X66850Y-53779D03*
X64074Y-53622D03*
X68582Y-53937D03*
X63287Y-54803D03*
X64862Y-51653D03*
X66377Y-52834D03*
X64862Y-52440D03*
X67677Y-52992D03*
X67677Y-53937D03*
X64074Y-54015D03*
X65354Y-54803D03*
X68779Y-53779D03*
X64862Y-52834D03*
X66377Y-53464D03*
X67677Y-53622D03*
X63681Y-53228D03*
X67677Y-53307D03*
X65354Y-52992D03*
X64468Y-54409D03*
X68582Y-53622D03*
X65354Y-52440D03*
X66850Y-53149D03*
X65354Y-54409D03*
X68779Y-53464D03*
X63287Y-51653D03*
X68976Y-52519D03*
X64468Y-54015D03*
X68779Y-53149D03*
X68582Y-52362D03*
X64862Y-51259D03*
X68582Y-52992D03*
X64862Y-53622D03*
X59350Y-53228D03*
X77263Y-54251D03*
X54192Y-53307D03*
X59744Y-52047D03*
X79340Y-50364D03*
X63681Y-54803D03*
X79251Y-58011D03*
X49094Y-55374D03*
X64468Y-52047D03*
X52244Y-54566D03*
X64862Y-52047D03*
X64862Y-54803D03*
X67677Y-54881D03*
X63287Y-52047D03*
X49842Y-55374D03*
X50777Y-55393D03*
X64074Y-52834D03*
X63287Y-53622D03*
X68582Y-54881D03*
X78464Y-55433D03*
X78828Y-50364D03*
X66377Y-55039D03*
X63484Y-55295D03*
X79084Y-50364D03*
X78641Y-55610D03*
X66850Y-54724D03*
X62893Y-53622D03*
X49606Y-53464D03*
X53385Y-53307D03*
X51496Y-52204D03*
X59350Y-51259D03*
X51496Y-52519D03*
X59350Y-51653D03*
X51496Y-53149D03*
X58858Y-51850D03*
X60137Y-51653D03*
X51181Y-53149D03*
X50866Y-53149D03*
X59350Y-52440D03*
X51181Y-52519D03*
X60137Y-52834D03*
X50866Y-52519D03*
X59350Y-53622D03*
X50551Y-52519D03*
X58858Y-54606D03*
X50236Y-53149D03*
X59350Y-52834D03*
X51496Y-52834D03*
X59744Y-51653D03*
X53090Y-52421D03*
X60531Y-51653D03*
X50866Y-52204D03*
X50551Y-53149D03*
X58897Y-52637D03*
X50866Y-52834D03*
X58897Y-54212D03*
X49448Y-54783D03*
X49291Y-53779D03*
X51889Y-55590D03*
X50236Y-51574D03*
X58858Y-49881D03*
X50236Y-51889D03*
X58681Y-49724D03*
X51338Y-51200D03*
X60531Y-50472D03*
X51811Y-51574D03*
X59350Y-50866D03*
X60137Y-50866D03*
X51496Y-51574D03*
X51496Y-51889D03*
X60531Y-50866D03*
X51181Y-52204D03*
X58858Y-51456D03*
X50551Y-52204D03*
X60925Y-52440D03*
X49921Y-52834D03*
X58897Y-53031D03*
X60531Y-50078D03*
X50551Y-51574D03*
X50551Y-51889D03*
X60925Y-51259D03*
X60925Y-51653D03*
X50236Y-52204D03*
X59350Y-50078D03*
X50866Y-51574D03*
X60531Y-51259D03*
X50866Y-51889D03*
X58858Y-50275D03*
X51181Y-51574D03*
X51181Y-51889D03*
X58858Y-51062D03*
X64074Y-54803D03*
X51948Y-55177D03*
X63838Y-55295D03*
X51692Y-55177D03*
X50866Y-54094D03*
X63681Y-53622D03*
X57381Y-54232D03*
X58208Y-55866D03*
X64035Y-55649D03*
X51437Y-55177D03*
X62598Y-56771D03*
X49763Y-54783D03*
X49606Y-54409D03*
X49606Y-53779D03*
X51181Y-52834D03*
X58897Y-53818D03*
X50354Y-50098D03*
X63287Y-53228D03*
X50255Y-57736D03*
X50905Y-49035D03*
X49291Y-54094D03*
X62893Y-53228D03*
X48996Y-49704D03*
X48996Y-48641D03*
X49291Y-53149D03*
X49114Y-57263D03*
X49744Y-57736D03*
X49291Y-53464D03*
X49173Y-49901D03*
X49173Y-48838D03*
X62893Y-54803D03*
X49291Y-51574D03*
X49921Y-53779D03*
X50078Y-54783D03*
X49822Y-55629D03*
X49094Y-55629D03*
X48818Y-54783D03*
X48326Y-48582D03*
X48740Y-49606D03*
X48740Y-49409D03*
X51023Y-51200D03*
X50078Y-51200D03*
X48976Y-51574D03*
X46003Y-54763D03*
X51870Y-53307D03*
X51870Y-52677D03*
X50708Y-54783D03*
X49921Y-51889D03*
X48976Y-53779D03*
X62874Y-56771D03*
X62283Y-56771D03*
X61850Y-56771D03*
X67716Y-50393D03*
X66850Y-57224D03*
X67716Y-57224D03*
X67716Y-57440D03*
X68582Y-57440D03*
X68582Y-57224D03*
X66377Y-56614D03*
X68582Y-55590D03*
X68582Y-57657D03*
X67716Y-57657D03*
X66850Y-57657D03*
X66850Y-50078D03*
X67716Y-55590D03*
X68582Y-55275D03*
X67716Y-55275D03*
X68582Y-51417D03*
X67716Y-51417D03*
X66850Y-51417D03*
X67716Y-50708D03*
X67716Y-50944D03*
X68582Y-50944D03*
X66850Y-50944D03*
X68582Y-50629D03*
X66850Y-50708D03*
X68582Y-50078D03*
X67716Y-50078D03*
X66850Y-55275D03*
X68582Y-50393D03*
X66850Y-50393D03*
X66850Y-55590D03*
X62755Y-57559D03*
X62244Y-57559D03*
X63267Y-59645D03*
X63897Y-59645D03*
X55472Y-55649D03*
X56043Y-55610D03*
X56279Y-55610D03*
X57086Y-57342D03*
X58208Y-57874D03*
X57755Y-57066D03*
X55531Y-59035D03*
X56358Y-59035D03*
X54704Y-59035D03*
X72500Y-54724D03*
X71023Y-52480D03*
X70728Y-54212D03*
X70748Y-55019D03*
X69685Y-51889D03*
X72224Y-50688D03*
X71929Y-50433D03*
X70255Y-50137D03*
X59744Y-50866D03*
X66161Y-59645D03*
X66161Y-59173D03*
X47066Y-48602D03*
X75000Y-50846D03*
X75846Y-51968D03*
X76377Y-54625D03*
X60137Y-53228D03*
X75688Y-54271D03*
X80314Y-48031D03*
X74114Y-48425D03*
X64468Y-51653D03*
X66141Y-49271D03*
X66456Y-50078D03*
X66417Y-50393D03*
X56437Y-52736D03*
X63287Y-50472D03*
X59744Y-54803D03*
X59940Y-55334D03*
X61712Y-52834D03*
X57775Y-54232D03*
X58011Y-54409D03*
X58326Y-54409D03*
X49330Y-48070D03*
X49566Y-51200D03*
X49606Y-53149D03*
X64468Y-55275D03*
X76761Y-52923D03*
X77096Y-52923D03*
X76427Y-52923D03*
X76427Y-53139D03*
X77096Y-53139D03*
X76761Y-53139D03*
X76761Y-52470D03*
X77096Y-52470D03*
X76427Y-52470D03*
X76427Y-52706D03*
X77096Y-52706D03*
X76761Y-52706D03*
X83661Y-48503D03*
X82716Y-53818D03*
X83326Y-52874D03*
X83326Y-52381D03*
X83917Y-53188D03*
X76220Y-48070D03*
X82027Y-48070D03*
X81594Y-48070D03*
X78700Y-48366D03*
X74990Y-52135D03*
X74950Y-50580D03*
X76210Y-50580D03*
X75246Y-54124D03*
X76958Y-53750D03*
X75580Y-50103D03*
X75265Y-50103D03*
X76525Y-50103D03*
X76840Y-50103D03*
X76663Y-51053D03*
X75068Y-49064D03*
X77175Y-49064D03*
X76427Y-50895D03*
X77627Y-51643D03*
X77627Y-51151D03*
X77568Y-50462D03*
X77568Y-50816D03*
X77844Y-49675D03*
X78179Y-49675D03*
X79084Y-49576D03*
X79084Y-48946D03*
X79616Y-53198D03*
X79301Y-52903D03*
X79301Y-53474D03*
X79891Y-53356D03*
X80246Y-53789D03*
X79537Y-53789D03*
X79891Y-54202D03*
X80364Y-50462D03*
X80364Y-50816D03*
X62893Y-54015D03*
X43700Y-56968D03*
X51397Y-59192D03*
X63681Y-55649D03*
X70748Y-57244D03*
X69133Y-59055D03*
X68366Y-59055D03*
X69724Y-49311D03*
X43700Y-55787D03*
X44724Y-56968D03*
X73307Y-48385D03*
X48385Y-59448D03*
X47460Y-59645D03*
X49311Y-59645D03*
X54094Y-59448D03*
X53169Y-59645D03*
X55019Y-59645D03*
X59803Y-59429D03*
X58877Y-59645D03*
X60728Y-59645D03*
X64291Y-59645D03*
X65433Y-55688D03*
X65964Y-50964D03*
X66141Y-48070D03*
X64271Y-48070D03*
X60748Y-48070D03*
X58858Y-48070D03*
X55039Y-48070D03*
X53149Y-48070D03*
X47440Y-48070D03*
X42500Y-52834D03*
X42500Y-50944D03*
X42500Y-49488D03*
X43897Y-48070D03*
X64980Y-59271D03*
X70433Y-53543D03*
X70216Y-53543D03*
X69350Y-55590D03*
X64468Y-54803D03*
X63681Y-52440D03*
X65354Y-50511D03*
X60137Y-51259D03*
X59350Y-49685D03*
X64074Y-53228D03*
X62106Y-51653D03*
X61712Y-51653D03*
X62500Y-50078D03*
X50905Y-48641D03*
X73759Y-57244D03*
X80748Y-55669D03*
X80748Y-57244D03*
X44842Y-50098D03*
X44842Y-50531D03*
X44842Y-50314D03*
X44271Y-50098D03*
X44271Y-50531D03*
X44271Y-50314D03*
X44547Y-50098D03*
X44547Y-50531D03*
X44547Y-50314D03*
X45118Y-50098D03*
X45118Y-50531D03*
X45118Y-50314D03*
X43976Y-50314D03*
X43976Y-50531D03*
X43976Y-50098D03*
X53208Y-58444D03*
X49330Y-57401D03*
X49547Y-57618D03*
X48011Y-57657D03*
X48011Y-57460D03*
X48976Y-57795D03*
X48011Y-57263D03*
X47283Y-56023D03*
X47283Y-56830D03*
X47283Y-56417D03*
X47283Y-56220D03*
X47283Y-56633D03*
X46732Y-56023D03*
X46732Y-56830D03*
X46732Y-56417D03*
X46732Y-56220D03*
X46732Y-56633D03*
X47578Y-56633D03*
X47578Y-56220D03*
X47578Y-56417D03*
X47578Y-56830D03*
X47578Y-56023D03*
X47007Y-56023D03*
X47007Y-56830D03*
X47007Y-56417D03*
X47007Y-56220D03*
X47007Y-56633D03*
X46437Y-56633D03*
X46437Y-56220D03*
X46437Y-56417D03*
X46437Y-56830D03*
X46437Y-56023D03*
X77145Y-58779D03*
X77145Y-58425D03*
X78366Y-56456D03*
X83366Y-58425D03*
X60137Y-50472D03*
X61712Y-54015D03*
X63681Y-54409D03*
X83759Y-57657D03*
X50314Y-48641D03*
X58858Y-53425D03*
X62893Y-50866D03*
X64862Y-50472D03*
X55127Y-49891D03*
X56545Y-51072D03*
X55915Y-49498D03*
X56387Y-49891D03*
X46299Y-48602D03*
X51043Y-59133D03*
X50728Y-59133D03*
X52362Y-58779D03*
X53208Y-59035D03*
X53956Y-58838D03*
X53956Y-59035D03*
X53208Y-58838D03*
X53208Y-58641D03*
X58858Y-52244D03*
X51496Y-53464D03*
X50374Y-50708D03*
X51870Y-54566D03*
X46181Y-54251D03*
X46062Y-52795D03*
X64862Y-53228D03*
X64074Y-52440D03*
X55098Y-52696D03*
X56102Y-52736D03*
X53110Y-55393D03*
X53543Y-55629D03*
X53818Y-56102D03*
X51043Y-56338D03*
X50728Y-56338D03*
X59350Y-52047D03*
X65334Y-48562D03*
X61318Y-51653D03*
X64074Y-50472D03*
X46377Y-51555D03*
X47539Y-50728D03*
X46259Y-50944D03*
X58799Y-48789D03*
X55285Y-49498D03*
X56387Y-50679D03*
X55127Y-50679D03*
X55285Y-51072D03*
X55915Y-51072D03*
X57175Y-51072D03*
X57175Y-49498D03*
X57647Y-50679D03*
X57647Y-49891D03*
X53868Y-48789D03*
X56545Y-49498D03*
X53395Y-51387D03*
X59350Y-50472D03*
X60531Y-49685D03*
X63287Y-49685D03*
X63681Y-49291D03*
X60137Y-52440D03*
X60531Y-54015D03*
X60531Y-53228D03*
X62106Y-52834D03*
X62500Y-52047D03*
X62106Y-52047D03*
X61712Y-52047D03*
X61318Y-52047D03*
X49842Y-56220D03*
X48661Y-50944D03*
X47618Y-48700D03*
X51653Y-51200D03*
X51870Y-53937D03*
X51870Y-52992D03*
X49606Y-52519D03*
X48051Y-51102D03*
X47677Y-51673D03*
X45433Y-52933D03*
X48976Y-52204D03*
X47007Y-52677D03*
X48031Y-54822D03*
X47401Y-52677D03*
X48503Y-54783D03*
X48169Y-55098D03*
X48818Y-55393D03*
X50393Y-54783D03*
X51496Y-53937D03*
X52086Y-51397D03*
X52401Y-51397D03*
X49960Y-57618D03*
X47952Y-50866D03*
X48267Y-50866D03*
X46043Y-48602D03*
X45807Y-48897D03*
X43681Y-52716D03*
X43267Y-53248D03*
X43267Y-52185D03*
X45551Y-51535D03*
X45295Y-52086D03*
X47795Y-54330D03*
X48287Y-54566D03*
X45984Y-50866D03*
X46633Y-51259D03*
X47303Y-50413D03*
X46791Y-53444D03*
X45925Y-53444D03*
X50098Y-49468D03*
X50098Y-50452D03*
X50905Y-49704D03*
X53090Y-53307D03*
X48976Y-51889D03*
X48976Y-52519D03*
X49921Y-54094D03*
X51870Y-54251D03*
X50393Y-51200D03*
X64862Y-49291D03*
X43917Y-48602D03*
X49468Y-56062D03*
X49035Y-55866D03*
X48346Y-59055D03*
X49173Y-59055D03*
X64074Y-51259D03*
X61318Y-50078D03*
X69488Y-54724D03*
X61712Y-49685D03*
X69488Y-50039D03*
X69330Y-50236D03*
X69330Y-54566D03*
X64468Y-50866D03*
X69822Y-54409D03*
X69822Y-49724D03*
X60137Y-50078D03*
X70019Y-54251D03*
X70019Y-49547D03*
X59744Y-50078D03*
X78149Y-59173D03*
X59744Y-54409D03*
X66377Y-59055D03*
X76338Y-48543D03*
X77706Y-53001D03*
X49783Y-48169D03*
X49606Y-52204D03*
X77854Y-59350D03*
X59744Y-54015D03*
X65393Y-59173D03*
X75984Y-48543D03*
X77706Y-53277D03*
X50039Y-48169D03*
X49606Y-51889D03*
X62500Y-51653D03*
X82755Y-49370D03*
X65354Y-50275D03*
X68976Y-52204D03*
X64862Y-54409D03*
X68582Y-53307D03*
X48661Y-53779D03*
X46574Y-54251D03*
X49606Y-52834D03*
X53346Y-52755D03*
X53661Y-52755D03*
X48661Y-53464D03*
X52578Y-54980D03*
X48976Y-53464D03*
X50236Y-53464D03*
X52244Y-54251D03*
X73307Y-48661D03*
X49350Y-49035D03*
X51102Y-48838D03*
X49291Y-52519D03*
X46673Y-52578D03*
X72677Y-48385D03*
X73858Y-48661D03*
X51259Y-49685D03*
X49350Y-50098D03*
X53385Y-55393D03*
X59173Y-55688D03*
X52125Y-50137D03*
X47539Y-50019D03*
X43937Y-52401D03*
X53976Y-52755D03*
X48976Y-54094D03*
X48287Y-52677D03*
X48661Y-53149D03*
X48287Y-54251D03*
X47893Y-52362D03*
X48661Y-52834D03*
X82755Y-48503D03*
X82362Y-48543D03*
X81712Y-48740D03*
X53346Y-54015D03*
X53346Y-54409D03*
X43484Y-51535D03*
X44291Y-48858D03*
X45925Y-49842D03*
X46023Y-55551D03*
X47244Y-54803D03*
X46751Y-54803D03*
X48248Y-55866D03*
X46023Y-57263D03*
X46023Y-57657D03*
X46023Y-57460D03*
X50000Y-58188D03*
X45905Y-58700D03*
X52362Y-59035D03*
X52598Y-59035D03*
X46496Y-58700D03*
X45905Y-58897D03*
X46496Y-58897D03*
X83149Y-48503D03*
X75531Y-51633D03*
X65354Y-53425D03*
X46968Y-50984D03*
X48976Y-52834D03*
X48976Y-53149D03*
X46968Y-51299D03*
X67716Y-54468D03*
X64468Y-52834D03*
X74990Y-52490D03*
X68779Y-50787D03*
X59940Y-55688D03*
X59763Y-57677D03*
X69468Y-57637D03*
X69665Y-54094D03*
X78385Y-59527D03*
X77706Y-52746D03*
X50236Y-53779D03*
X50472Y-59448D03*
X83326Y-50885D03*
X83937Y-53562D03*
X64074Y-52047D03*
X81751Y-49881D03*
X50944Y-50098D03*
X50236Y-52834D03*
X83326Y-51889D03*
X83602Y-53562D03*
X63681Y-52047D03*
X81751Y-50885D03*
X49921Y-52519D03*
X64074Y-51653D03*
X83326Y-49881D03*
X81751Y-51870D03*
X49291Y-51889D03*
X83326Y-50374D03*
X63681Y-51653D03*
X81751Y-50374D03*
X49921Y-52204D03*
X48661Y-51200D03*
X81751Y-52381D03*
X68582Y-52677D03*
X63681Y-52834D03*
X63287Y-52834D03*
X68976Y-52834D03*
X74990Y-53513D03*
X68779Y-55039D03*
X65433Y-55433D03*
X60295Y-55295D03*
X65551Y-53543D03*
X58326Y-52244D03*
X57893Y-54980D03*
X62893Y-52440D03*
X62500Y-52440D03*
X62106Y-52440D03*
X61712Y-52440D03*
X61318Y-52440D03*
X62893Y-52047D03*
X62893Y-51653D03*
X46948Y-49566D03*
X46653Y-49566D03*
X46417Y-49566D03*
X46259Y-49311D03*
X43602Y-48720D03*
X63562Y-57342D03*
X66397Y-50708D03*
X60925Y-54409D03*
X57381Y-53956D03*
X62893Y-50078D03*
X60925Y-50078D03*
X54970Y-49498D03*
G54D15*
X56122Y-55314D02*
X57027Y-55314D01*
X57027Y-55314D02*
X57283Y-55570D01*
G54D16*
X55472Y-53641D02*
X54212Y-53641D01*
X54212Y-53641D02*
X53641Y-54212D01*
G54D17*
X53149Y-54212D02*
X53641Y-54212D01*
G54D15*
X56102Y-55314D02*
X56122Y-55314D01*
X56122Y-55314D02*
X56476Y-55314D01*
X55472Y-54862D02*
X55925Y-55314D01*
X55925Y-55314D02*
X56102Y-55314D01*
X55472Y-54842D02*
X55472Y-54862D01*
X55472Y-53503D02*
X55472Y-53641D01*
X55472Y-53641D02*
X55472Y-54842D01*
X76614Y-54015D02*
X76614Y-53996D01*
X75078Y-51397D02*
X75255Y-51574D01*
X75255Y-51574D02*
X75255Y-52637D01*
X75255Y-52637D02*
X75314Y-52696D01*
X76368Y-53750D02*
X75314Y-52696D01*
X75000Y-51397D02*
X75078Y-51397D01*
X76614Y-53996D02*
X76368Y-53750D01*
G54D16*
X76417Y-51633D02*
X76417Y-51751D01*
X76417Y-51751D02*
X75610Y-52559D01*
X61811Y-58011D02*
X61811Y-57559D01*
X69803Y-58011D02*
X61811Y-58011D01*
X61811Y-58011D02*
X58799Y-58011D01*
X58799Y-58011D02*
X58326Y-58484D01*
X58326Y-58484D02*
X56692Y-58484D01*
X70354Y-57460D02*
X69803Y-58011D01*
X70354Y-56830D02*
X70354Y-57460D01*
X56692Y-58484D02*
X56594Y-58385D01*
X72854Y-52303D02*
X71988Y-52303D01*
G54D18*
X71919Y-56053D02*
X72706Y-56053D01*
X81446Y-56053D02*
X83326Y-54173D01*
X72706Y-56053D02*
X81446Y-56053D01*
G54D16*
X70354Y-56614D02*
X71358Y-56614D01*
X72854Y-51515D02*
X72460Y-51122D01*
X72854Y-55118D02*
X72854Y-52303D01*
X72854Y-52303D02*
X72854Y-51515D01*
X71358Y-56614D02*
X71919Y-56053D01*
X71919Y-56053D02*
X72854Y-55118D01*
G54D17*
X49940Y-58681D02*
X51082Y-58681D01*
X47716Y-58681D02*
X49940Y-58681D01*
X51082Y-58681D02*
X51397Y-58366D01*
X47716Y-58681D02*
X47342Y-58681D01*
X47342Y-58681D02*
X46968Y-58307D01*
X46751Y-58307D02*
X45196Y-58307D01*
X45078Y-53759D02*
X45078Y-58188D01*
X45078Y-58188D02*
X45196Y-58307D01*
X44566Y-53248D02*
X45078Y-53759D01*
G54D15*
X74625Y-51751D02*
X75000Y-51751D01*
X74625Y-52244D02*
X74625Y-51751D01*
X74625Y-51751D02*
X74625Y-51338D01*
X75531Y-51102D02*
X75708Y-51279D01*
X74862Y-51102D02*
X75531Y-51102D01*
X74625Y-51338D02*
X74862Y-51102D01*
X76043Y-54271D02*
X76043Y-54133D01*
X74625Y-52716D02*
X74625Y-52244D01*
X74625Y-52244D02*
X74625Y-52125D01*
X76043Y-54133D02*
X74625Y-52716D01*
G54D17*
X63681Y-50472D02*
X63484Y-50669D01*
X63484Y-51062D02*
X63287Y-51259D01*
X63484Y-50669D02*
X63484Y-51062D01*
G54D16*
X58326Y-52244D02*
X58326Y-52440D01*
X58326Y-52440D02*
X58336Y-52440D01*
G54D15*
X57066Y-52440D02*
X57066Y-54468D01*
X57578Y-54980D02*
X57893Y-54980D01*
X57066Y-54468D02*
X57578Y-54980D01*
G54D17*
X62893Y-52440D02*
X62893Y-52047D01*
X62500Y-52440D02*
X62893Y-52440D01*
X62106Y-52440D02*
X62500Y-52440D01*
X61712Y-52440D02*
X62106Y-52440D01*
X61318Y-52440D02*
X61712Y-52440D01*
X61122Y-52244D02*
X61318Y-52440D01*
X59940Y-52244D02*
X60334Y-52244D01*
X59212Y-52244D02*
X59940Y-52244D01*
X59015Y-52440D02*
X59212Y-52244D01*
X58336Y-52440D02*
X59015Y-52440D01*
X60334Y-52244D02*
X61122Y-52244D01*
X57834Y-52440D02*
X58336Y-52440D01*
G54D16*
X57066Y-52440D02*
X57834Y-52440D01*
X46653Y-49566D02*
X48149Y-49566D01*
X48149Y-49566D02*
X48169Y-49586D01*
X48169Y-49586D02*
X49527Y-50944D01*
X49527Y-50944D02*
X52362Y-50944D01*
X52362Y-50944D02*
X53858Y-52440D01*
X53858Y-52440D02*
X57066Y-52440D01*
G54D18*
X63562Y-57342D02*
X63562Y-56397D01*
G54D15*
X65590Y-56220D02*
X63759Y-56220D01*
X63759Y-56220D02*
X63582Y-56397D01*
X66397Y-50708D02*
X66397Y-51003D01*
X63582Y-56397D02*
X63562Y-56397D01*
X65944Y-55866D02*
X65590Y-56220D01*
X65944Y-51456D02*
X65944Y-55866D01*
X66397Y-51003D02*
X65944Y-51456D01*
G54D17*
X60728Y-54409D02*
X60925Y-54409D01*
X60728Y-54409D02*
X60748Y-54409D01*
X60748Y-54409D02*
X60728Y-54409D01*
X60728Y-54212D02*
X60728Y-54409D01*
X60728Y-54409D02*
X60728Y-55275D01*
X60728Y-55275D02*
X60964Y-55511D01*
X59370Y-54212D02*
X60728Y-54212D01*
X59173Y-54015D02*
X59370Y-54212D01*
X57381Y-53956D02*
X58523Y-53956D01*
X58582Y-54015D02*
X59173Y-54015D01*
X58523Y-53956D02*
X58582Y-54015D01*
X60964Y-55511D02*
X62677Y-55511D01*
X62677Y-55511D02*
X63562Y-56397D01*
G54D10*
X54970Y-49685D02*
X54970Y-50147D01*
X55078Y-50255D02*
X55285Y-50255D01*
X54970Y-50147D02*
X55078Y-50255D01*
G54D17*
X57992Y-50255D02*
X58444Y-50255D01*
X58444Y-50255D02*
X58622Y-50078D01*
X59015Y-50078D02*
X59212Y-50275D01*
X58622Y-50078D02*
X59015Y-50078D01*
G54D10*
X54970Y-49498D02*
X54970Y-49685D01*
G54D17*
X60728Y-50275D02*
X59212Y-50275D01*
X59212Y-50275D02*
X59153Y-50275D01*
X57992Y-50255D02*
X55285Y-50255D01*
X60728Y-50275D02*
X60925Y-50078D01*
X62893Y-50078D02*
X62696Y-49881D01*
X62696Y-49881D02*
X61122Y-49881D01*
X61122Y-49881D02*
X60925Y-50078D01*
G54D10*
G36*
X73750Y-59498D02*
X73553Y-59498D01*
X73553Y-58825D01*
X73527Y-58763D01*
X73480Y-58716D01*
X73419Y-58690D01*
X73352Y-58690D01*
X73291Y-58716D01*
X73244Y-58763D01*
X73218Y-58824D01*
X73218Y-58891D01*
X73243Y-58952D01*
X73290Y-59000D01*
X73352Y-59025D01*
X73418Y-59025D01*
X73480Y-59000D01*
X73527Y-58953D01*
X73553Y-58891D01*
X73553Y-58825D01*
X73553Y-59498D01*
X72667Y-59498D01*
X72667Y-54691D01*
X72641Y-54629D01*
X72594Y-54582D01*
X72533Y-54557D01*
X72466Y-54557D01*
X72405Y-54582D01*
X72358Y-54629D01*
X72332Y-54690D01*
X72332Y-54757D01*
X72358Y-54819D01*
X72405Y-54866D01*
X72466Y-54891D01*
X72533Y-54891D01*
X72594Y-54866D01*
X72641Y-54819D01*
X72667Y-54757D01*
X72667Y-54691D01*
X72667Y-59498D01*
X72549Y-59498D01*
X72549Y-56797D01*
X72523Y-56736D01*
X72476Y-56688D01*
X72415Y-56663D01*
X72348Y-56663D01*
X72287Y-56688D01*
X72253Y-56722D01*
X72220Y-56688D01*
X72159Y-56663D01*
X72092Y-56663D01*
X72031Y-56688D01*
X71984Y-56735D01*
X71958Y-56797D01*
X71958Y-56863D01*
X71984Y-56925D01*
X72031Y-56972D01*
X72092Y-56998D01*
X72159Y-56998D01*
X72220Y-56972D01*
X72253Y-56939D01*
X72286Y-56972D01*
X72348Y-56998D01*
X72415Y-56998D01*
X72476Y-56972D01*
X72523Y-56925D01*
X72549Y-56864D01*
X72549Y-56797D01*
X72549Y-59498D01*
X71545Y-59498D01*
X71545Y-58667D01*
X71519Y-58606D01*
X71472Y-58559D01*
X71411Y-58533D01*
X71344Y-58533D01*
X71283Y-58558D01*
X71236Y-58605D01*
X71210Y-58667D01*
X71210Y-58733D01*
X71236Y-58795D01*
X71283Y-58842D01*
X71344Y-58868D01*
X71411Y-58868D01*
X71472Y-58842D01*
X71519Y-58795D01*
X71545Y-58734D01*
X71545Y-58667D01*
X71545Y-59498D01*
X70915Y-59498D01*
X70915Y-57210D01*
X70889Y-57149D01*
X70842Y-57102D01*
X70781Y-57076D01*
X70714Y-57076D01*
X70653Y-57102D01*
X70606Y-57149D01*
X70580Y-57210D01*
X70580Y-57277D01*
X70606Y-57338D01*
X70653Y-57385D01*
X70714Y-57411D01*
X70781Y-57411D01*
X70842Y-57386D01*
X70889Y-57338D01*
X70915Y-57277D01*
X70915Y-57210D01*
X70915Y-59498D01*
X70501Y-59498D01*
X70501Y-58667D01*
X70476Y-58606D01*
X70429Y-58559D01*
X70368Y-58533D01*
X70301Y-58533D01*
X70239Y-58558D01*
X70192Y-58605D01*
X70167Y-58667D01*
X70167Y-58733D01*
X70192Y-58795D01*
X70239Y-58842D01*
X70301Y-58868D01*
X70367Y-58868D01*
X70429Y-58842D01*
X70476Y-58795D01*
X70501Y-58734D01*
X70501Y-58667D01*
X70501Y-59498D01*
X69891Y-59498D01*
X69891Y-57210D01*
X69866Y-57149D01*
X69819Y-57102D01*
X69757Y-57076D01*
X69691Y-57076D01*
X69629Y-57102D01*
X69582Y-57149D01*
X69557Y-57210D01*
X69557Y-57277D01*
X69582Y-57338D01*
X69629Y-57385D01*
X69690Y-57411D01*
X69757Y-57411D01*
X69819Y-57386D01*
X69866Y-57338D01*
X69891Y-57277D01*
X69891Y-57210D01*
X69891Y-59498D01*
X69635Y-59498D01*
X69635Y-57604D01*
X69610Y-57543D01*
X69563Y-57496D01*
X69501Y-57470D01*
X69435Y-57470D01*
X69373Y-57495D01*
X69330Y-57538D01*
X69287Y-57496D01*
X69226Y-57470D01*
X69159Y-57470D01*
X69098Y-57495D01*
X69051Y-57542D01*
X69025Y-57604D01*
X69025Y-57670D01*
X69050Y-57732D01*
X69098Y-57779D01*
X69159Y-57805D01*
X69226Y-57805D01*
X69287Y-57779D01*
X69330Y-57736D01*
X69373Y-57779D01*
X69435Y-57805D01*
X69501Y-57805D01*
X69563Y-57779D01*
X69610Y-57732D01*
X69635Y-57671D01*
X69635Y-57604D01*
X69635Y-59498D01*
X69557Y-59498D01*
X69557Y-58844D01*
X69531Y-58783D01*
X69484Y-58736D01*
X69423Y-58710D01*
X69356Y-58710D01*
X69295Y-58736D01*
X69247Y-58783D01*
X69222Y-58844D01*
X69222Y-58910D01*
X69167Y-58887D01*
X69100Y-58887D01*
X69039Y-58913D01*
X68992Y-58960D01*
X68966Y-59021D01*
X68966Y-59088D01*
X68991Y-59149D01*
X69038Y-59196D01*
X69100Y-59222D01*
X69166Y-59222D01*
X69228Y-59197D01*
X69275Y-59150D01*
X69301Y-59088D01*
X69301Y-59022D01*
X69356Y-59045D01*
X69422Y-59045D01*
X69484Y-59019D01*
X69531Y-58972D01*
X69557Y-58911D01*
X69557Y-58844D01*
X69557Y-59498D01*
X68750Y-59498D01*
X68750Y-57624D01*
X68724Y-57562D01*
X68711Y-57549D01*
X68724Y-57535D01*
X68749Y-57474D01*
X68750Y-57407D01*
X68724Y-57346D01*
X68711Y-57332D01*
X68724Y-57319D01*
X68749Y-57257D01*
X68750Y-57191D01*
X68724Y-57129D01*
X68677Y-57082D01*
X68616Y-57057D01*
X68549Y-57057D01*
X68488Y-57082D01*
X68440Y-57129D01*
X68415Y-57190D01*
X68415Y-57257D01*
X68440Y-57319D01*
X68454Y-57332D01*
X68440Y-57346D01*
X68415Y-57407D01*
X68415Y-57474D01*
X68440Y-57535D01*
X68454Y-57549D01*
X68440Y-57562D01*
X68415Y-57624D01*
X68415Y-57690D01*
X68440Y-57752D01*
X68487Y-57799D01*
X68549Y-57824D01*
X68615Y-57824D01*
X68677Y-57799D01*
X68724Y-57752D01*
X68749Y-57690D01*
X68750Y-57624D01*
X68750Y-59498D01*
X68533Y-59498D01*
X68533Y-59021D01*
X68508Y-58960D01*
X68461Y-58913D01*
X68399Y-58887D01*
X68333Y-58887D01*
X68271Y-58913D01*
X68224Y-58960D01*
X68198Y-59021D01*
X68198Y-59088D01*
X68224Y-59149D01*
X68271Y-59196D01*
X68332Y-59222D01*
X68399Y-59222D01*
X68460Y-59197D01*
X68507Y-59150D01*
X68533Y-59088D01*
X68533Y-59021D01*
X68533Y-59498D01*
X67883Y-59498D01*
X67883Y-57624D01*
X67858Y-57562D01*
X67844Y-57549D01*
X67858Y-57535D01*
X67883Y-57474D01*
X67883Y-57407D01*
X67858Y-57346D01*
X67844Y-57332D01*
X67858Y-57319D01*
X67883Y-57257D01*
X67883Y-57191D01*
X67858Y-57129D01*
X67811Y-57082D01*
X67749Y-57057D01*
X67683Y-57057D01*
X67621Y-57082D01*
X67574Y-57129D01*
X67549Y-57190D01*
X67549Y-57257D01*
X67574Y-57319D01*
X67588Y-57332D01*
X67574Y-57346D01*
X67549Y-57407D01*
X67549Y-57474D01*
X67574Y-57535D01*
X67588Y-57549D01*
X67574Y-57562D01*
X67549Y-57624D01*
X67549Y-57690D01*
X67574Y-57752D01*
X67621Y-57799D01*
X67683Y-57824D01*
X67749Y-57824D01*
X67811Y-57799D01*
X67858Y-57752D01*
X67883Y-57690D01*
X67883Y-57624D01*
X67883Y-59498D01*
X67549Y-59498D01*
X67549Y-59021D01*
X67523Y-58960D01*
X67476Y-58913D01*
X67415Y-58887D01*
X67348Y-58887D01*
X67287Y-58913D01*
X67240Y-58960D01*
X67214Y-59021D01*
X67214Y-59088D01*
X67239Y-59149D01*
X67286Y-59196D01*
X67348Y-59222D01*
X67415Y-59222D01*
X67476Y-59197D01*
X67523Y-59150D01*
X67549Y-59088D01*
X67549Y-59021D01*
X67549Y-59498D01*
X67017Y-59498D01*
X67017Y-57624D01*
X67017Y-57191D01*
X66992Y-57129D01*
X66945Y-57082D01*
X66883Y-57057D01*
X66817Y-57057D01*
X66755Y-57082D01*
X66708Y-57129D01*
X66683Y-57190D01*
X66683Y-57257D01*
X66708Y-57319D01*
X66755Y-57366D01*
X66816Y-57391D01*
X66883Y-57391D01*
X66945Y-57366D01*
X66992Y-57319D01*
X67017Y-57257D01*
X67017Y-57191D01*
X67017Y-57624D01*
X66992Y-57562D01*
X66945Y-57515D01*
X66883Y-57490D01*
X66817Y-57490D01*
X66755Y-57515D01*
X66708Y-57562D01*
X66683Y-57624D01*
X66683Y-57624D01*
X66683Y-57407D01*
X66657Y-57346D01*
X66610Y-57299D01*
X66549Y-57273D01*
X66482Y-57273D01*
X66421Y-57299D01*
X66373Y-57346D01*
X66348Y-57407D01*
X66348Y-57474D01*
X66373Y-57535D01*
X66420Y-57582D01*
X66482Y-57608D01*
X66548Y-57608D01*
X66610Y-57582D01*
X66657Y-57535D01*
X66683Y-57474D01*
X66683Y-57407D01*
X66683Y-57624D01*
X66683Y-57690D01*
X66708Y-57752D01*
X66755Y-57799D01*
X66816Y-57824D01*
X66883Y-57824D01*
X66945Y-57799D01*
X66992Y-57752D01*
X67017Y-57690D01*
X67017Y-57624D01*
X67017Y-59498D01*
X66545Y-59498D01*
X66545Y-59021D01*
X66519Y-58960D01*
X66472Y-58913D01*
X66411Y-58887D01*
X66344Y-58887D01*
X66283Y-58913D01*
X66236Y-58960D01*
X66213Y-59013D01*
X66194Y-59005D01*
X66128Y-59005D01*
X66066Y-59031D01*
X66019Y-59078D01*
X65994Y-59139D01*
X65994Y-59206D01*
X66019Y-59267D01*
X66066Y-59314D01*
X66127Y-59340D01*
X66194Y-59340D01*
X66256Y-59315D01*
X66303Y-59268D01*
X66325Y-59214D01*
X66344Y-59222D01*
X66411Y-59222D01*
X66472Y-59197D01*
X66519Y-59150D01*
X66545Y-59088D01*
X66545Y-59021D01*
X66545Y-59498D01*
X66242Y-59498D01*
X66194Y-59478D01*
X66128Y-59478D01*
X66080Y-59498D01*
X65561Y-59498D01*
X65561Y-59140D01*
X65535Y-59078D01*
X65488Y-59031D01*
X65427Y-59005D01*
X65364Y-59005D01*
X65364Y-57604D01*
X65338Y-57543D01*
X65291Y-57496D01*
X65230Y-57470D01*
X65163Y-57470D01*
X65136Y-57481D01*
X65147Y-57454D01*
X65147Y-57388D01*
X65122Y-57326D01*
X65075Y-57279D01*
X65013Y-57253D01*
X64947Y-57253D01*
X64885Y-57279D01*
X64852Y-57312D01*
X64852Y-57250D01*
X64827Y-57188D01*
X64780Y-57141D01*
X64718Y-57116D01*
X64652Y-57116D01*
X64590Y-57141D01*
X64543Y-57188D01*
X64518Y-57250D01*
X64518Y-57316D01*
X64543Y-57378D01*
X64590Y-57425D01*
X64652Y-57450D01*
X64718Y-57450D01*
X64780Y-57425D01*
X64813Y-57392D01*
X64812Y-57454D01*
X64838Y-57515D01*
X64851Y-57529D01*
X64838Y-57542D01*
X64813Y-57604D01*
X64812Y-57670D01*
X64838Y-57732D01*
X64885Y-57779D01*
X64946Y-57805D01*
X65013Y-57805D01*
X65074Y-57779D01*
X65088Y-57766D01*
X65101Y-57779D01*
X65163Y-57805D01*
X65229Y-57805D01*
X65291Y-57779D01*
X65338Y-57732D01*
X65364Y-57671D01*
X65364Y-57604D01*
X65364Y-59005D01*
X65360Y-59005D01*
X65299Y-59031D01*
X65251Y-59078D01*
X65226Y-59139D01*
X65226Y-59206D01*
X65251Y-59267D01*
X65298Y-59314D01*
X65360Y-59340D01*
X65426Y-59340D01*
X65488Y-59315D01*
X65535Y-59268D01*
X65560Y-59206D01*
X65561Y-59140D01*
X65561Y-59498D01*
X65147Y-59498D01*
X65147Y-59238D01*
X65122Y-59176D01*
X65075Y-59129D01*
X65013Y-59104D01*
X64947Y-59104D01*
X64885Y-59129D01*
X64838Y-59176D01*
X64813Y-59238D01*
X64812Y-59304D01*
X64838Y-59366D01*
X64885Y-59413D01*
X64946Y-59438D01*
X65013Y-59439D01*
X65074Y-59413D01*
X65122Y-59366D01*
X65147Y-59305D01*
X65147Y-59238D01*
X65147Y-59498D01*
X64372Y-59498D01*
X64324Y-59478D01*
X64258Y-59478D01*
X64210Y-59498D01*
X63978Y-59498D01*
X63931Y-59478D01*
X63864Y-59478D01*
X63816Y-59498D01*
X63348Y-59498D01*
X63301Y-59478D01*
X63234Y-59478D01*
X63186Y-59498D01*
X63080Y-59498D01*
X63080Y-59195D01*
X63080Y-58525D01*
X63052Y-58457D01*
X62999Y-58404D01*
X62931Y-58376D01*
X62923Y-58376D01*
X62923Y-57525D01*
X62897Y-57464D01*
X62850Y-57417D01*
X62789Y-57391D01*
X62722Y-57391D01*
X62661Y-57417D01*
X62614Y-57464D01*
X62588Y-57525D01*
X62588Y-57592D01*
X62613Y-57653D01*
X62661Y-57700D01*
X62722Y-57726D01*
X62789Y-57726D01*
X62850Y-57700D01*
X62897Y-57653D01*
X62923Y-57592D01*
X62923Y-57525D01*
X62923Y-58376D01*
X62856Y-58375D01*
X62787Y-58404D01*
X62735Y-58456D01*
X62716Y-58502D01*
X62698Y-58457D01*
X62645Y-58404D01*
X62576Y-58376D01*
X62502Y-58375D01*
X62433Y-58404D01*
X62411Y-58426D01*
X62411Y-57525D01*
X62386Y-57464D01*
X62338Y-57417D01*
X62277Y-57391D01*
X62210Y-57391D01*
X62149Y-57417D01*
X62102Y-57464D01*
X62076Y-57525D01*
X62076Y-57592D01*
X62102Y-57653D01*
X62149Y-57700D01*
X62210Y-57726D01*
X62277Y-57726D01*
X62338Y-57700D01*
X62385Y-57653D01*
X62411Y-57592D01*
X62411Y-57525D01*
X62411Y-58426D01*
X62380Y-58456D01*
X62352Y-58525D01*
X62352Y-58600D01*
X62380Y-58668D01*
X62433Y-58721D01*
X62502Y-58749D01*
X62576Y-58750D01*
X62645Y-58721D01*
X62697Y-58669D01*
X62716Y-58623D01*
X62735Y-58668D01*
X62787Y-58721D01*
X62856Y-58749D01*
X62930Y-58750D01*
X62999Y-58721D01*
X63052Y-58669D01*
X63080Y-58600D01*
X63080Y-58525D01*
X63080Y-59195D01*
X63052Y-59126D01*
X62999Y-59073D01*
X62931Y-59045D01*
X62856Y-59045D01*
X62787Y-59073D01*
X62735Y-59126D01*
X62716Y-59171D01*
X62698Y-59126D01*
X62645Y-59073D01*
X62576Y-59045D01*
X62502Y-59045D01*
X62433Y-59073D01*
X62380Y-59126D01*
X62352Y-59194D01*
X62352Y-59269D01*
X62380Y-59338D01*
X62433Y-59390D01*
X62502Y-59419D01*
X62576Y-59419D01*
X62645Y-59390D01*
X62697Y-59338D01*
X62716Y-59293D01*
X62735Y-59338D01*
X62787Y-59390D01*
X62856Y-59419D01*
X62930Y-59419D01*
X62999Y-59390D01*
X63052Y-59338D01*
X63080Y-59269D01*
X63080Y-59195D01*
X63080Y-59498D01*
X61604Y-59498D01*
X61604Y-58273D01*
X61578Y-58212D01*
X61531Y-58165D01*
X61470Y-58139D01*
X61403Y-58139D01*
X61342Y-58165D01*
X61309Y-58198D01*
X61276Y-58165D01*
X61214Y-58139D01*
X61147Y-58139D01*
X61086Y-58165D01*
X61039Y-58212D01*
X61013Y-58273D01*
X61013Y-58340D01*
X61039Y-58401D01*
X61086Y-58448D01*
X61147Y-58474D01*
X61214Y-58474D01*
X61275Y-58449D01*
X61309Y-58415D01*
X61342Y-58448D01*
X61403Y-58474D01*
X61470Y-58474D01*
X61531Y-58449D01*
X61578Y-58401D01*
X61604Y-58340D01*
X61604Y-58273D01*
X61604Y-59498D01*
X60856Y-59498D01*
X60856Y-57644D01*
X60830Y-57582D01*
X60783Y-57535D01*
X60722Y-57509D01*
X60655Y-57509D01*
X60594Y-57535D01*
X60547Y-57582D01*
X60521Y-57643D01*
X60521Y-57710D01*
X60547Y-57771D01*
X60594Y-57818D01*
X60655Y-57844D01*
X60722Y-57844D01*
X60783Y-57819D01*
X60830Y-57772D01*
X60856Y-57710D01*
X60856Y-57644D01*
X60856Y-59498D01*
X60809Y-59498D01*
X60761Y-59478D01*
X60695Y-59478D01*
X60647Y-59498D01*
X59955Y-59498D01*
X59970Y-59462D01*
X59970Y-59395D01*
X59945Y-59334D01*
X59931Y-59320D01*
X59931Y-57644D01*
X59905Y-57582D01*
X59858Y-57535D01*
X59797Y-57509D01*
X59730Y-57509D01*
X59669Y-57535D01*
X59622Y-57582D01*
X59596Y-57643D01*
X59596Y-57710D01*
X59621Y-57771D01*
X59668Y-57818D01*
X59730Y-57844D01*
X59796Y-57844D01*
X59858Y-57819D01*
X59905Y-57772D01*
X59931Y-57710D01*
X59931Y-57644D01*
X59931Y-59320D01*
X59898Y-59287D01*
X59836Y-59261D01*
X59770Y-59261D01*
X59708Y-59287D01*
X59661Y-59334D01*
X59635Y-59395D01*
X59635Y-59462D01*
X59650Y-59498D01*
X58958Y-59498D01*
X58911Y-59478D01*
X58844Y-59478D01*
X58797Y-59498D01*
X58376Y-59498D01*
X58376Y-57840D01*
X58350Y-57779D01*
X58303Y-57732D01*
X58242Y-57706D01*
X58175Y-57706D01*
X58114Y-57732D01*
X58066Y-57779D01*
X58041Y-57840D01*
X58041Y-57907D01*
X58066Y-57968D01*
X58113Y-58015D01*
X58175Y-58041D01*
X58241Y-58041D01*
X58303Y-58015D01*
X58350Y-57968D01*
X58375Y-57907D01*
X58376Y-57840D01*
X58376Y-59498D01*
X57253Y-59498D01*
X57253Y-57309D01*
X57228Y-57247D01*
X57181Y-57200D01*
X57120Y-57175D01*
X57053Y-57175D01*
X56991Y-57200D01*
X56944Y-57247D01*
X56919Y-57309D01*
X56919Y-57375D01*
X56944Y-57437D01*
X56991Y-57484D01*
X57053Y-57509D01*
X57119Y-57509D01*
X57181Y-57484D01*
X57228Y-57437D01*
X57253Y-57375D01*
X57253Y-57309D01*
X57253Y-59498D01*
X56250Y-59498D01*
X56250Y-59163D01*
X56263Y-59177D01*
X56324Y-59202D01*
X56391Y-59202D01*
X56452Y-59177D01*
X56500Y-59130D01*
X56525Y-59068D01*
X56525Y-59002D01*
X56500Y-58940D01*
X56453Y-58893D01*
X56391Y-58868D01*
X56325Y-58868D01*
X56263Y-58893D01*
X56250Y-58907D01*
X56250Y-58001D01*
X56273Y-58001D01*
X56334Y-57976D01*
X56381Y-57929D01*
X56407Y-57868D01*
X56407Y-57801D01*
X56382Y-57739D01*
X56378Y-57736D01*
X56381Y-57732D01*
X56407Y-57671D01*
X56407Y-57604D01*
X56382Y-57543D01*
X56335Y-57496D01*
X56273Y-57470D01*
X56250Y-57470D01*
X56250Y-57223D01*
X56252Y-57225D01*
X56320Y-57253D01*
X56395Y-57253D01*
X56464Y-57225D01*
X56516Y-57172D01*
X56535Y-57127D01*
X56553Y-57172D01*
X56606Y-57225D01*
X56675Y-57253D01*
X56749Y-57253D01*
X56818Y-57225D01*
X56871Y-57172D01*
X56899Y-57104D01*
X56899Y-57029D01*
X56871Y-56961D01*
X56868Y-56958D01*
X57627Y-56958D01*
X57614Y-56972D01*
X57588Y-57033D01*
X57588Y-57100D01*
X57613Y-57161D01*
X57661Y-57208D01*
X57722Y-57234D01*
X57789Y-57234D01*
X57850Y-57208D01*
X57897Y-57161D01*
X57923Y-57100D01*
X57923Y-57033D01*
X57897Y-56972D01*
X57884Y-56958D01*
X63277Y-56958D01*
X63277Y-57342D01*
X63299Y-57451D01*
X63361Y-57544D01*
X63453Y-57606D01*
X63562Y-57627D01*
X63672Y-57606D01*
X63764Y-57544D01*
X63826Y-57451D01*
X63848Y-57342D01*
X63848Y-56958D01*
X63966Y-56958D01*
X63952Y-56972D01*
X63927Y-57033D01*
X63927Y-57100D01*
X63952Y-57161D01*
X63999Y-57208D01*
X64061Y-57234D01*
X64127Y-57234D01*
X64189Y-57208D01*
X64236Y-57161D01*
X64261Y-57100D01*
X64261Y-57033D01*
X64236Y-56972D01*
X64222Y-56958D01*
X69146Y-56958D01*
X71604Y-54500D01*
X71604Y-54020D01*
X71616Y-54025D01*
X71690Y-54025D01*
X71759Y-53997D01*
X71811Y-53944D01*
X71840Y-53875D01*
X71840Y-53801D01*
X71812Y-53732D01*
X71759Y-53680D01*
X71714Y-53661D01*
X71759Y-53642D01*
X71811Y-53590D01*
X71840Y-53521D01*
X71840Y-53447D01*
X71812Y-53378D01*
X71759Y-53325D01*
X71690Y-53297D01*
X71616Y-53297D01*
X71604Y-53302D01*
X71604Y-51013D01*
X73750Y-51013D01*
X73750Y-57076D01*
X73726Y-57076D01*
X73665Y-57102D01*
X73618Y-57149D01*
X73592Y-57210D01*
X73592Y-57277D01*
X73617Y-57338D01*
X73664Y-57385D01*
X73726Y-57411D01*
X73750Y-57411D01*
X73750Y-58976D01*
X73750Y-59498D01*
X73750Y-59498D01*
G37*
X73750Y-59498D02*
X73553Y-59498D01*
X73553Y-58825D01*
X73527Y-58763D01*
X73480Y-58716D01*
X73419Y-58690D01*
X73352Y-58690D01*
X73291Y-58716D01*
X73244Y-58763D01*
X73218Y-58824D01*
X73218Y-58891D01*
X73243Y-58952D01*
X73290Y-59000D01*
X73352Y-59025D01*
X73418Y-59025D01*
X73480Y-59000D01*
X73527Y-58953D01*
X73553Y-58891D01*
X73553Y-58825D01*
X73553Y-59498D01*
X72667Y-59498D01*
X72667Y-54691D01*
X72641Y-54629D01*
X72594Y-54582D01*
X72533Y-54557D01*
X72466Y-54557D01*
X72405Y-54582D01*
X72358Y-54629D01*
X72332Y-54690D01*
X72332Y-54757D01*
X72358Y-54819D01*
X72405Y-54866D01*
X72466Y-54891D01*
X72533Y-54891D01*
X72594Y-54866D01*
X72641Y-54819D01*
X72667Y-54757D01*
X72667Y-54691D01*
X72667Y-59498D01*
X72549Y-59498D01*
X72549Y-56797D01*
X72523Y-56736D01*
X72476Y-56688D01*
X72415Y-56663D01*
X72348Y-56663D01*
X72287Y-56688D01*
X72253Y-56722D01*
X72220Y-56688D01*
X72159Y-56663D01*
X72092Y-56663D01*
X72031Y-56688D01*
X71984Y-56735D01*
X71958Y-56797D01*
X71958Y-56863D01*
X71984Y-56925D01*
X72031Y-56972D01*
X72092Y-56998D01*
X72159Y-56998D01*
X72220Y-56972D01*
X72253Y-56939D01*
X72286Y-56972D01*
X72348Y-56998D01*
X72415Y-56998D01*
X72476Y-56972D01*
X72523Y-56925D01*
X72549Y-56864D01*
X72549Y-56797D01*
X72549Y-59498D01*
X71545Y-59498D01*
X71545Y-58667D01*
X71519Y-58606D01*
X71472Y-58559D01*
X71411Y-58533D01*
X71344Y-58533D01*
X71283Y-58558D01*
X71236Y-58605D01*
X71210Y-58667D01*
X71210Y-58733D01*
X71236Y-58795D01*
X71283Y-58842D01*
X71344Y-58868D01*
X71411Y-58868D01*
X71472Y-58842D01*
X71519Y-58795D01*
X71545Y-58734D01*
X71545Y-58667D01*
X71545Y-59498D01*
X70915Y-59498D01*
X70915Y-57210D01*
X70889Y-57149D01*
X70842Y-57102D01*
X70781Y-57076D01*
X70714Y-57076D01*
X70653Y-57102D01*
X70606Y-57149D01*
X70580Y-57210D01*
X70580Y-57277D01*
X70606Y-57338D01*
X70653Y-57385D01*
X70714Y-57411D01*
X70781Y-57411D01*
X70842Y-57386D01*
X70889Y-57338D01*
X70915Y-57277D01*
X70915Y-57210D01*
X70915Y-59498D01*
X70501Y-59498D01*
X70501Y-58667D01*
X70476Y-58606D01*
X70429Y-58559D01*
X70368Y-58533D01*
X70301Y-58533D01*
X70239Y-58558D01*
X70192Y-58605D01*
X70167Y-58667D01*
X70167Y-58733D01*
X70192Y-58795D01*
X70239Y-58842D01*
X70301Y-58868D01*
X70367Y-58868D01*
X70429Y-58842D01*
X70476Y-58795D01*
X70501Y-58734D01*
X70501Y-58667D01*
X70501Y-59498D01*
X69891Y-59498D01*
X69891Y-57210D01*
X69866Y-57149D01*
X69819Y-57102D01*
X69757Y-57076D01*
X69691Y-57076D01*
X69629Y-57102D01*
X69582Y-57149D01*
X69557Y-57210D01*
X69557Y-57277D01*
X69582Y-57338D01*
X69629Y-57385D01*
X69690Y-57411D01*
X69757Y-57411D01*
X69819Y-57386D01*
X69866Y-57338D01*
X69891Y-57277D01*
X69891Y-57210D01*
X69891Y-59498D01*
X69635Y-59498D01*
X69635Y-57604D01*
X69610Y-57543D01*
X69563Y-57496D01*
X69501Y-57470D01*
X69435Y-57470D01*
X69373Y-57495D01*
X69330Y-57538D01*
X69287Y-57496D01*
X69226Y-57470D01*
X69159Y-57470D01*
X69098Y-57495D01*
X69051Y-57542D01*
X69025Y-57604D01*
X69025Y-57670D01*
X69050Y-57732D01*
X69098Y-57779D01*
X69159Y-57805D01*
X69226Y-57805D01*
X69287Y-57779D01*
X69330Y-57736D01*
X69373Y-57779D01*
X69435Y-57805D01*
X69501Y-57805D01*
X69563Y-57779D01*
X69610Y-57732D01*
X69635Y-57671D01*
X69635Y-57604D01*
X69635Y-59498D01*
X69557Y-59498D01*
X69557Y-58844D01*
X69531Y-58783D01*
X69484Y-58736D01*
X69423Y-58710D01*
X69356Y-58710D01*
X69295Y-58736D01*
X69247Y-58783D01*
X69222Y-58844D01*
X69222Y-58910D01*
X69167Y-58887D01*
X69100Y-58887D01*
X69039Y-58913D01*
X68992Y-58960D01*
X68966Y-59021D01*
X68966Y-59088D01*
X68991Y-59149D01*
X69038Y-59196D01*
X69100Y-59222D01*
X69166Y-59222D01*
X69228Y-59197D01*
X69275Y-59150D01*
X69301Y-59088D01*
X69301Y-59022D01*
X69356Y-59045D01*
X69422Y-59045D01*
X69484Y-59019D01*
X69531Y-58972D01*
X69557Y-58911D01*
X69557Y-58844D01*
X69557Y-59498D01*
X68750Y-59498D01*
X68750Y-57624D01*
X68724Y-57562D01*
X68711Y-57549D01*
X68724Y-57535D01*
X68749Y-57474D01*
X68750Y-57407D01*
X68724Y-57346D01*
X68711Y-57332D01*
X68724Y-57319D01*
X68749Y-57257D01*
X68750Y-57191D01*
X68724Y-57129D01*
X68677Y-57082D01*
X68616Y-57057D01*
X68549Y-57057D01*
X68488Y-57082D01*
X68440Y-57129D01*
X68415Y-57190D01*
X68415Y-57257D01*
X68440Y-57319D01*
X68454Y-57332D01*
X68440Y-57346D01*
X68415Y-57407D01*
X68415Y-57474D01*
X68440Y-57535D01*
X68454Y-57549D01*
X68440Y-57562D01*
X68415Y-57624D01*
X68415Y-57690D01*
X68440Y-57752D01*
X68487Y-57799D01*
X68549Y-57824D01*
X68615Y-57824D01*
X68677Y-57799D01*
X68724Y-57752D01*
X68749Y-57690D01*
X68750Y-57624D01*
X68750Y-59498D01*
X68533Y-59498D01*
X68533Y-59021D01*
X68508Y-58960D01*
X68461Y-58913D01*
X68399Y-58887D01*
X68333Y-58887D01*
X68271Y-58913D01*
X68224Y-58960D01*
X68198Y-59021D01*
X68198Y-59088D01*
X68224Y-59149D01*
X68271Y-59196D01*
X68332Y-59222D01*
X68399Y-59222D01*
X68460Y-59197D01*
X68507Y-59150D01*
X68533Y-59088D01*
X68533Y-59021D01*
X68533Y-59498D01*
X67883Y-59498D01*
X67883Y-57624D01*
X67858Y-57562D01*
X67844Y-57549D01*
X67858Y-57535D01*
X67883Y-57474D01*
X67883Y-57407D01*
X67858Y-57346D01*
X67844Y-57332D01*
X67858Y-57319D01*
X67883Y-57257D01*
X67883Y-57191D01*
X67858Y-57129D01*
X67811Y-57082D01*
X67749Y-57057D01*
X67683Y-57057D01*
X67621Y-57082D01*
X67574Y-57129D01*
X67549Y-57190D01*
X67549Y-57257D01*
X67574Y-57319D01*
X67588Y-57332D01*
X67574Y-57346D01*
X67549Y-57407D01*
X67549Y-57474D01*
X67574Y-57535D01*
X67588Y-57549D01*
X67574Y-57562D01*
X67549Y-57624D01*
X67549Y-57690D01*
X67574Y-57752D01*
X67621Y-57799D01*
X67683Y-57824D01*
X67749Y-57824D01*
X67811Y-57799D01*
X67858Y-57752D01*
X67883Y-57690D01*
X67883Y-57624D01*
X67883Y-59498D01*
X67549Y-59498D01*
X67549Y-59021D01*
X67523Y-58960D01*
X67476Y-58913D01*
X67415Y-58887D01*
X67348Y-58887D01*
X67287Y-58913D01*
X67240Y-58960D01*
X67214Y-59021D01*
X67214Y-59088D01*
X67239Y-59149D01*
X67286Y-59196D01*
X67348Y-59222D01*
X67415Y-59222D01*
X67476Y-59197D01*
X67523Y-59150D01*
X67549Y-59088D01*
X67549Y-59021D01*
X67549Y-59498D01*
X67017Y-59498D01*
X67017Y-57624D01*
X67017Y-57191D01*
X66992Y-57129D01*
X66945Y-57082D01*
X66883Y-57057D01*
X66817Y-57057D01*
X66755Y-57082D01*
X66708Y-57129D01*
X66683Y-57190D01*
X66683Y-57257D01*
X66708Y-57319D01*
X66755Y-57366D01*
X66816Y-57391D01*
X66883Y-57391D01*
X66945Y-57366D01*
X66992Y-57319D01*
X67017Y-57257D01*
X67017Y-57191D01*
X67017Y-57624D01*
X66992Y-57562D01*
X66945Y-57515D01*
X66883Y-57490D01*
X66817Y-57490D01*
X66755Y-57515D01*
X66708Y-57562D01*
X66683Y-57624D01*
X66683Y-57624D01*
X66683Y-57407D01*
X66657Y-57346D01*
X66610Y-57299D01*
X66549Y-57273D01*
X66482Y-57273D01*
X66421Y-57299D01*
X66373Y-57346D01*
X66348Y-57407D01*
X66348Y-57474D01*
X66373Y-57535D01*
X66420Y-57582D01*
X66482Y-57608D01*
X66548Y-57608D01*
X66610Y-57582D01*
X66657Y-57535D01*
X66683Y-57474D01*
X66683Y-57407D01*
X66683Y-57624D01*
X66683Y-57690D01*
X66708Y-57752D01*
X66755Y-57799D01*
X66816Y-57824D01*
X66883Y-57824D01*
X66945Y-57799D01*
X66992Y-57752D01*
X67017Y-57690D01*
X67017Y-57624D01*
X67017Y-59498D01*
X66545Y-59498D01*
X66545Y-59021D01*
X66519Y-58960D01*
X66472Y-58913D01*
X66411Y-58887D01*
X66344Y-58887D01*
X66283Y-58913D01*
X66236Y-58960D01*
X66213Y-59013D01*
X66194Y-59005D01*
X66128Y-59005D01*
X66066Y-59031D01*
X66019Y-59078D01*
X65994Y-59139D01*
X65994Y-59206D01*
X66019Y-59267D01*
X66066Y-59314D01*
X66127Y-59340D01*
X66194Y-59340D01*
X66256Y-59315D01*
X66303Y-59268D01*
X66325Y-59214D01*
X66344Y-59222D01*
X66411Y-59222D01*
X66472Y-59197D01*
X66519Y-59150D01*
X66545Y-59088D01*
X66545Y-59021D01*
X66545Y-59498D01*
X66242Y-59498D01*
X66194Y-59478D01*
X66128Y-59478D01*
X66080Y-59498D01*
X65561Y-59498D01*
X65561Y-59140D01*
X65535Y-59078D01*
X65488Y-59031D01*
X65427Y-59005D01*
X65364Y-59005D01*
X65364Y-57604D01*
X65338Y-57543D01*
X65291Y-57496D01*
X65230Y-57470D01*
X65163Y-57470D01*
X65136Y-57481D01*
X65147Y-57454D01*
X65147Y-57388D01*
X65122Y-57326D01*
X65075Y-57279D01*
X65013Y-57253D01*
X64947Y-57253D01*
X64885Y-57279D01*
X64852Y-57312D01*
X64852Y-57250D01*
X64827Y-57188D01*
X64780Y-57141D01*
X64718Y-57116D01*
X64652Y-57116D01*
X64590Y-57141D01*
X64543Y-57188D01*
X64518Y-57250D01*
X64518Y-57316D01*
X64543Y-57378D01*
X64590Y-57425D01*
X64652Y-57450D01*
X64718Y-57450D01*
X64780Y-57425D01*
X64813Y-57392D01*
X64812Y-57454D01*
X64838Y-57515D01*
X64851Y-57529D01*
X64838Y-57542D01*
X64813Y-57604D01*
X64812Y-57670D01*
X64838Y-57732D01*
X64885Y-57779D01*
X64946Y-57805D01*
X65013Y-57805D01*
X65074Y-57779D01*
X65088Y-57766D01*
X65101Y-57779D01*
X65163Y-57805D01*
X65229Y-57805D01*
X65291Y-57779D01*
X65338Y-57732D01*
X65364Y-57671D01*
X65364Y-57604D01*
X65364Y-59005D01*
X65360Y-59005D01*
X65299Y-59031D01*
X65251Y-59078D01*
X65226Y-59139D01*
X65226Y-59206D01*
X65251Y-59267D01*
X65298Y-59314D01*
X65360Y-59340D01*
X65426Y-59340D01*
X65488Y-59315D01*
X65535Y-59268D01*
X65560Y-59206D01*
X65561Y-59140D01*
X65561Y-59498D01*
X65147Y-59498D01*
X65147Y-59238D01*
X65122Y-59176D01*
X65075Y-59129D01*
X65013Y-59104D01*
X64947Y-59104D01*
X64885Y-59129D01*
X64838Y-59176D01*
X64813Y-59238D01*
X64812Y-59304D01*
X64838Y-59366D01*
X64885Y-59413D01*
X64946Y-59438D01*
X65013Y-59439D01*
X65074Y-59413D01*
X65122Y-59366D01*
X65147Y-59305D01*
X65147Y-59238D01*
X65147Y-59498D01*
X64372Y-59498D01*
X64324Y-59478D01*
X64258Y-59478D01*
X64210Y-59498D01*
X63978Y-59498D01*
X63931Y-59478D01*
X63864Y-59478D01*
X63816Y-59498D01*
X63348Y-59498D01*
X63301Y-59478D01*
X63234Y-59478D01*
X63186Y-59498D01*
X63080Y-59498D01*
X63080Y-59195D01*
X63080Y-58525D01*
X63052Y-58457D01*
X62999Y-58404D01*
X62931Y-58376D01*
X62923Y-58376D01*
X62923Y-57525D01*
X62897Y-57464D01*
X62850Y-57417D01*
X62789Y-57391D01*
X62722Y-57391D01*
X62661Y-57417D01*
X62614Y-57464D01*
X62588Y-57525D01*
X62588Y-57592D01*
X62613Y-57653D01*
X62661Y-57700D01*
X62722Y-57726D01*
X62789Y-57726D01*
X62850Y-57700D01*
X62897Y-57653D01*
X62923Y-57592D01*
X62923Y-57525D01*
X62923Y-58376D01*
X62856Y-58375D01*
X62787Y-58404D01*
X62735Y-58456D01*
X62716Y-58502D01*
X62698Y-58457D01*
X62645Y-58404D01*
X62576Y-58376D01*
X62502Y-58375D01*
X62433Y-58404D01*
X62411Y-58426D01*
X62411Y-57525D01*
X62386Y-57464D01*
X62338Y-57417D01*
X62277Y-57391D01*
X62210Y-57391D01*
X62149Y-57417D01*
X62102Y-57464D01*
X62076Y-57525D01*
X62076Y-57592D01*
X62102Y-57653D01*
X62149Y-57700D01*
X62210Y-57726D01*
X62277Y-57726D01*
X62338Y-57700D01*
X62385Y-57653D01*
X62411Y-57592D01*
X62411Y-57525D01*
X62411Y-58426D01*
X62380Y-58456D01*
X62352Y-58525D01*
X62352Y-58600D01*
X62380Y-58668D01*
X62433Y-58721D01*
X62502Y-58749D01*
X62576Y-58750D01*
X62645Y-58721D01*
X62697Y-58669D01*
X62716Y-58623D01*
X62735Y-58668D01*
X62787Y-58721D01*
X62856Y-58749D01*
X62930Y-58750D01*
X62999Y-58721D01*
X63052Y-58669D01*
X63080Y-58600D01*
X63080Y-58525D01*
X63080Y-59195D01*
X63052Y-59126D01*
X62999Y-59073D01*
X62931Y-59045D01*
X62856Y-59045D01*
X62787Y-59073D01*
X62735Y-59126D01*
X62716Y-59171D01*
X62698Y-59126D01*
X62645Y-59073D01*
X62576Y-59045D01*
X62502Y-59045D01*
X62433Y-59073D01*
X62380Y-59126D01*
X62352Y-59194D01*
X62352Y-59269D01*
X62380Y-59338D01*
X62433Y-59390D01*
X62502Y-59419D01*
X62576Y-59419D01*
X62645Y-59390D01*
X62697Y-59338D01*
X62716Y-59293D01*
X62735Y-59338D01*
X62787Y-59390D01*
X62856Y-59419D01*
X62930Y-59419D01*
X62999Y-59390D01*
X63052Y-59338D01*
X63080Y-59269D01*
X63080Y-59195D01*
X63080Y-59498D01*
X61604Y-59498D01*
X61604Y-58273D01*
X61578Y-58212D01*
X61531Y-58165D01*
X61470Y-58139D01*
X61403Y-58139D01*
X61342Y-58165D01*
X61309Y-58198D01*
X61276Y-58165D01*
X61214Y-58139D01*
X61147Y-58139D01*
X61086Y-58165D01*
X61039Y-58212D01*
X61013Y-58273D01*
X61013Y-58340D01*
X61039Y-58401D01*
X61086Y-58448D01*
X61147Y-58474D01*
X61214Y-58474D01*
X61275Y-58449D01*
X61309Y-58415D01*
X61342Y-58448D01*
X61403Y-58474D01*
X61470Y-58474D01*
X61531Y-58449D01*
X61578Y-58401D01*
X61604Y-58340D01*
X61604Y-58273D01*
X61604Y-59498D01*
X60856Y-59498D01*
X60856Y-57644D01*
X60830Y-57582D01*
X60783Y-57535D01*
X60722Y-57509D01*
X60655Y-57509D01*
X60594Y-57535D01*
X60547Y-57582D01*
X60521Y-57643D01*
X60521Y-57710D01*
X60547Y-57771D01*
X60594Y-57818D01*
X60655Y-57844D01*
X60722Y-57844D01*
X60783Y-57819D01*
X60830Y-57772D01*
X60856Y-57710D01*
X60856Y-57644D01*
X60856Y-59498D01*
X60809Y-59498D01*
X60761Y-59478D01*
X60695Y-59478D01*
X60647Y-59498D01*
X59955Y-59498D01*
X59970Y-59462D01*
X59970Y-59395D01*
X59945Y-59334D01*
X59931Y-59320D01*
X59931Y-57644D01*
X59905Y-57582D01*
X59858Y-57535D01*
X59797Y-57509D01*
X59730Y-57509D01*
X59669Y-57535D01*
X59622Y-57582D01*
X59596Y-57643D01*
X59596Y-57710D01*
X59621Y-57771D01*
X59668Y-57818D01*
X59730Y-57844D01*
X59796Y-57844D01*
X59858Y-57819D01*
X59905Y-57772D01*
X59931Y-57710D01*
X59931Y-57644D01*
X59931Y-59320D01*
X59898Y-59287D01*
X59836Y-59261D01*
X59770Y-59261D01*
X59708Y-59287D01*
X59661Y-59334D01*
X59635Y-59395D01*
X59635Y-59462D01*
X59650Y-59498D01*
X58958Y-59498D01*
X58911Y-59478D01*
X58844Y-59478D01*
X58797Y-59498D01*
X58376Y-59498D01*
X58376Y-57840D01*
X58350Y-57779D01*
X58303Y-57732D01*
X58242Y-57706D01*
X58175Y-57706D01*
X58114Y-57732D01*
X58066Y-57779D01*
X58041Y-57840D01*
X58041Y-57907D01*
X58066Y-57968D01*
X58113Y-58015D01*
X58175Y-58041D01*
X58241Y-58041D01*
X58303Y-58015D01*
X58350Y-57968D01*
X58375Y-57907D01*
X58376Y-57840D01*
X58376Y-59498D01*
X57253Y-59498D01*
X57253Y-57309D01*
X57228Y-57247D01*
X57181Y-57200D01*
X57120Y-57175D01*
X57053Y-57175D01*
X56991Y-57200D01*
X56944Y-57247D01*
X56919Y-57309D01*
X56919Y-57375D01*
X56944Y-57437D01*
X56991Y-57484D01*
X57053Y-57509D01*
X57119Y-57509D01*
X57181Y-57484D01*
X57228Y-57437D01*
X57253Y-57375D01*
X57253Y-57309D01*
X57253Y-59498D01*
X56250Y-59498D01*
X56250Y-59163D01*
X56263Y-59177D01*
X56324Y-59202D01*
X56391Y-59202D01*
X56452Y-59177D01*
X56500Y-59130D01*
X56525Y-59068D01*
X56525Y-59002D01*
X56500Y-58940D01*
X56453Y-58893D01*
X56391Y-58868D01*
X56325Y-58868D01*
X56263Y-58893D01*
X56250Y-58907D01*
X56250Y-58001D01*
X56273Y-58001D01*
X56334Y-57976D01*
X56381Y-57929D01*
X56407Y-57868D01*
X56407Y-57801D01*
X56382Y-57739D01*
X56378Y-57736D01*
X56381Y-57732D01*
X56407Y-57671D01*
X56407Y-57604D01*
X56382Y-57543D01*
X56335Y-57496D01*
X56273Y-57470D01*
X56250Y-57470D01*
X56250Y-57223D01*
X56252Y-57225D01*
X56320Y-57253D01*
X56395Y-57253D01*
X56464Y-57225D01*
X56516Y-57172D01*
X56535Y-57127D01*
X56553Y-57172D01*
X56606Y-57225D01*
X56675Y-57253D01*
X56749Y-57253D01*
X56818Y-57225D01*
X56871Y-57172D01*
X56899Y-57104D01*
X56899Y-57029D01*
X56871Y-56961D01*
X56868Y-56958D01*
X57627Y-56958D01*
X57614Y-56972D01*
X57588Y-57033D01*
X57588Y-57100D01*
X57613Y-57161D01*
X57661Y-57208D01*
X57722Y-57234D01*
X57789Y-57234D01*
X57850Y-57208D01*
X57897Y-57161D01*
X57923Y-57100D01*
X57923Y-57033D01*
X57897Y-56972D01*
X57884Y-56958D01*
X63277Y-56958D01*
X63277Y-57342D01*
X63299Y-57451D01*
X63361Y-57544D01*
X63453Y-57606D01*
X63562Y-57627D01*
X63672Y-57606D01*
X63764Y-57544D01*
X63826Y-57451D01*
X63848Y-57342D01*
X63848Y-56958D01*
X63966Y-56958D01*
X63952Y-56972D01*
X63927Y-57033D01*
X63927Y-57100D01*
X63952Y-57161D01*
X63999Y-57208D01*
X64061Y-57234D01*
X64127Y-57234D01*
X64189Y-57208D01*
X64236Y-57161D01*
X64261Y-57100D01*
X64261Y-57033D01*
X64236Y-56972D01*
X64222Y-56958D01*
X69146Y-56958D01*
X71604Y-54500D01*
X71604Y-54020D01*
X71616Y-54025D01*
X71690Y-54025D01*
X71759Y-53997D01*
X71811Y-53944D01*
X71840Y-53875D01*
X71840Y-53801D01*
X71812Y-53732D01*
X71759Y-53680D01*
X71714Y-53661D01*
X71759Y-53642D01*
X71811Y-53590D01*
X71840Y-53521D01*
X71840Y-53447D01*
X71812Y-53378D01*
X71759Y-53325D01*
X71690Y-53297D01*
X71616Y-53297D01*
X71604Y-53302D01*
X71604Y-51013D01*
X73750Y-51013D01*
X73750Y-57076D01*
X73726Y-57076D01*
X73665Y-57102D01*
X73618Y-57149D01*
X73592Y-57210D01*
X73592Y-57277D01*
X73617Y-57338D01*
X73664Y-57385D01*
X73726Y-57411D01*
X73750Y-57411D01*
X73750Y-58976D01*
X73750Y-59498D01*
G36*
X63061Y-53061D02*
X62893Y-53061D01*
X62860Y-53060D01*
X62860Y-53061D01*
X62667Y-53061D01*
X62667Y-52014D01*
X62667Y-51620D01*
X62641Y-51558D01*
X62594Y-51511D01*
X62533Y-51486D01*
X62466Y-51486D01*
X62405Y-51511D01*
X62358Y-51558D01*
X62332Y-51620D01*
X62332Y-51686D01*
X62358Y-51748D01*
X62405Y-51795D01*
X62466Y-51820D01*
X62533Y-51820D01*
X62594Y-51795D01*
X62641Y-51748D01*
X62667Y-51686D01*
X62667Y-51620D01*
X62667Y-52014D01*
X62641Y-51952D01*
X62594Y-51905D01*
X62533Y-51879D01*
X62466Y-51879D01*
X62405Y-51905D01*
X62358Y-51952D01*
X62332Y-52013D01*
X62332Y-52080D01*
X62358Y-52141D01*
X62405Y-52189D01*
X62466Y-52214D01*
X62533Y-52214D01*
X62594Y-52189D01*
X62641Y-52142D01*
X62667Y-52080D01*
X62667Y-52014D01*
X62667Y-53061D01*
X62499Y-53061D01*
X62466Y-53060D01*
X62466Y-53061D01*
X62273Y-53061D01*
X62273Y-52801D01*
X62273Y-52014D01*
X62273Y-51620D01*
X62248Y-51558D01*
X62201Y-51511D01*
X62139Y-51486D01*
X62073Y-51486D01*
X62011Y-51511D01*
X61964Y-51558D01*
X61939Y-51620D01*
X61938Y-51686D01*
X61964Y-51748D01*
X62011Y-51795D01*
X62072Y-51820D01*
X62139Y-51820D01*
X62200Y-51795D01*
X62248Y-51748D01*
X62273Y-51686D01*
X62273Y-51620D01*
X62273Y-52014D01*
X62248Y-51952D01*
X62201Y-51905D01*
X62139Y-51879D01*
X62073Y-51879D01*
X62011Y-51905D01*
X61964Y-51952D01*
X61939Y-52013D01*
X61938Y-52080D01*
X61964Y-52141D01*
X62011Y-52189D01*
X62072Y-52214D01*
X62139Y-52214D01*
X62200Y-52189D01*
X62248Y-52142D01*
X62273Y-52080D01*
X62273Y-52014D01*
X62273Y-52801D01*
X62248Y-52739D01*
X62201Y-52692D01*
X62139Y-52667D01*
X62073Y-52667D01*
X62011Y-52692D01*
X61964Y-52739D01*
X61939Y-52801D01*
X61938Y-52867D01*
X61964Y-52929D01*
X62011Y-52976D01*
X62072Y-53001D01*
X62139Y-53001D01*
X62200Y-52976D01*
X62248Y-52929D01*
X62273Y-52868D01*
X62273Y-52801D01*
X62273Y-53061D01*
X62106Y-53061D01*
X62073Y-53060D01*
X62073Y-53061D01*
X61879Y-53061D01*
X61879Y-52801D01*
X61879Y-52014D01*
X61879Y-51620D01*
X61854Y-51558D01*
X61807Y-51511D01*
X61746Y-51486D01*
X61679Y-51486D01*
X61617Y-51511D01*
X61570Y-51558D01*
X61545Y-51620D01*
X61545Y-51686D01*
X61570Y-51748D01*
X61617Y-51795D01*
X61679Y-51820D01*
X61745Y-51820D01*
X61807Y-51795D01*
X61854Y-51748D01*
X61879Y-51686D01*
X61879Y-51620D01*
X61879Y-52014D01*
X61854Y-51952D01*
X61807Y-51905D01*
X61746Y-51879D01*
X61679Y-51879D01*
X61617Y-51905D01*
X61570Y-51952D01*
X61545Y-52013D01*
X61545Y-52080D01*
X61570Y-52141D01*
X61617Y-52189D01*
X61679Y-52214D01*
X61745Y-52214D01*
X61807Y-52189D01*
X61854Y-52142D01*
X61879Y-52080D01*
X61879Y-52014D01*
X61879Y-52801D01*
X61854Y-52739D01*
X61807Y-52692D01*
X61746Y-52667D01*
X61679Y-52667D01*
X61617Y-52692D01*
X61570Y-52739D01*
X61545Y-52801D01*
X61545Y-52867D01*
X61570Y-52929D01*
X61617Y-52976D01*
X61679Y-53001D01*
X61745Y-53001D01*
X61807Y-52976D01*
X61854Y-52929D01*
X61879Y-52868D01*
X61879Y-52801D01*
X61879Y-53061D01*
X61712Y-53061D01*
X61679Y-53060D01*
X61679Y-53061D01*
X61486Y-53061D01*
X61486Y-52014D01*
X61486Y-51620D01*
X61460Y-51558D01*
X61413Y-51511D01*
X61352Y-51486D01*
X61285Y-51486D01*
X61224Y-51511D01*
X61177Y-51558D01*
X61151Y-51620D01*
X61151Y-51686D01*
X61176Y-51748D01*
X61223Y-51795D01*
X61285Y-51820D01*
X61352Y-51820D01*
X61413Y-51795D01*
X61460Y-51748D01*
X61486Y-51686D01*
X61486Y-51620D01*
X61486Y-52014D01*
X61460Y-51952D01*
X61413Y-51905D01*
X61352Y-51879D01*
X61285Y-51879D01*
X61224Y-51905D01*
X61177Y-51952D01*
X61151Y-52013D01*
X61151Y-52080D01*
X61176Y-52141D01*
X61223Y-52189D01*
X61285Y-52214D01*
X61352Y-52214D01*
X61413Y-52189D01*
X61460Y-52142D01*
X61486Y-52080D01*
X61486Y-52014D01*
X61486Y-53061D01*
X61318Y-53061D01*
X61285Y-53060D01*
X61285Y-53061D01*
X61092Y-53061D01*
X61092Y-52407D01*
X61092Y-51620D01*
X61067Y-51558D01*
X61020Y-51511D01*
X60958Y-51486D01*
X60892Y-51486D01*
X60830Y-51511D01*
X60783Y-51558D01*
X60757Y-51620D01*
X60757Y-51686D01*
X60783Y-51748D01*
X60830Y-51795D01*
X60891Y-51820D01*
X60958Y-51820D01*
X61019Y-51795D01*
X61066Y-51748D01*
X61092Y-51686D01*
X61092Y-51620D01*
X61092Y-52407D01*
X61067Y-52346D01*
X61020Y-52299D01*
X60958Y-52273D01*
X60892Y-52273D01*
X60830Y-52299D01*
X60783Y-52346D01*
X60757Y-52407D01*
X60757Y-52474D01*
X60783Y-52535D01*
X60830Y-52582D01*
X60891Y-52608D01*
X60958Y-52608D01*
X61019Y-52582D01*
X61066Y-52535D01*
X61092Y-52474D01*
X61092Y-52407D01*
X61092Y-53061D01*
X60698Y-53061D01*
X60698Y-52801D01*
X60698Y-52407D01*
X60698Y-52014D01*
X60698Y-51620D01*
X60673Y-51558D01*
X60626Y-51511D01*
X60564Y-51486D01*
X60498Y-51486D01*
X60436Y-51511D01*
X60389Y-51558D01*
X60364Y-51620D01*
X60364Y-51686D01*
X60389Y-51748D01*
X60436Y-51795D01*
X60498Y-51820D01*
X60564Y-51820D01*
X60626Y-51795D01*
X60673Y-51748D01*
X60698Y-51686D01*
X60698Y-51620D01*
X60698Y-52014D01*
X60673Y-51952D01*
X60626Y-51905D01*
X60564Y-51879D01*
X60498Y-51879D01*
X60436Y-51905D01*
X60389Y-51952D01*
X60364Y-52013D01*
X60364Y-52080D01*
X60389Y-52141D01*
X60436Y-52189D01*
X60498Y-52214D01*
X60564Y-52214D01*
X60626Y-52189D01*
X60673Y-52142D01*
X60698Y-52080D01*
X60698Y-52014D01*
X60698Y-52407D01*
X60673Y-52346D01*
X60626Y-52299D01*
X60564Y-52273D01*
X60498Y-52273D01*
X60436Y-52299D01*
X60389Y-52346D01*
X60364Y-52407D01*
X60364Y-52474D01*
X60389Y-52535D01*
X60436Y-52582D01*
X60498Y-52608D01*
X60564Y-52608D01*
X60626Y-52582D01*
X60673Y-52535D01*
X60698Y-52474D01*
X60698Y-52407D01*
X60698Y-52801D01*
X60673Y-52739D01*
X60626Y-52692D01*
X60564Y-52667D01*
X60498Y-52667D01*
X60436Y-52692D01*
X60389Y-52739D01*
X60364Y-52801D01*
X60364Y-52867D01*
X60389Y-52929D01*
X60436Y-52976D01*
X60498Y-53001D01*
X60564Y-53001D01*
X60626Y-52976D01*
X60673Y-52929D01*
X60698Y-52868D01*
X60698Y-52801D01*
X60698Y-53061D01*
X60531Y-53061D01*
X60498Y-53060D01*
X60498Y-53061D01*
X60305Y-53061D01*
X60305Y-52801D01*
X60305Y-52407D01*
X60305Y-52014D01*
X60305Y-51620D01*
X60279Y-51558D01*
X60232Y-51511D01*
X60171Y-51486D01*
X60104Y-51486D01*
X60043Y-51511D01*
X59996Y-51558D01*
X59970Y-51620D01*
X59970Y-51686D01*
X59995Y-51748D01*
X60042Y-51795D01*
X60104Y-51820D01*
X60170Y-51820D01*
X60232Y-51795D01*
X60279Y-51748D01*
X60305Y-51686D01*
X60305Y-51620D01*
X60305Y-52014D01*
X60279Y-51952D01*
X60232Y-51905D01*
X60171Y-51879D01*
X60104Y-51879D01*
X60043Y-51905D01*
X59996Y-51952D01*
X59970Y-52013D01*
X59970Y-52080D01*
X59995Y-52141D01*
X60042Y-52189D01*
X60104Y-52214D01*
X60170Y-52214D01*
X60232Y-52189D01*
X60279Y-52142D01*
X60305Y-52080D01*
X60305Y-52014D01*
X60305Y-52407D01*
X60279Y-52346D01*
X60232Y-52299D01*
X60171Y-52273D01*
X60104Y-52273D01*
X60043Y-52299D01*
X59996Y-52346D01*
X59970Y-52407D01*
X59970Y-52474D01*
X59995Y-52535D01*
X60042Y-52582D01*
X60104Y-52608D01*
X60170Y-52608D01*
X60232Y-52582D01*
X60279Y-52535D01*
X60305Y-52474D01*
X60305Y-52407D01*
X60305Y-52801D01*
X60279Y-52739D01*
X60232Y-52692D01*
X60171Y-52667D01*
X60104Y-52667D01*
X60043Y-52692D01*
X59996Y-52739D01*
X59970Y-52801D01*
X59970Y-52867D01*
X59995Y-52929D01*
X60042Y-52976D01*
X60104Y-53001D01*
X60170Y-53001D01*
X60232Y-52976D01*
X60279Y-52929D01*
X60305Y-52868D01*
X60305Y-52801D01*
X60305Y-53061D01*
X60137Y-53061D01*
X60104Y-53060D01*
X60104Y-53061D01*
X59911Y-53061D01*
X59911Y-52407D01*
X59911Y-52014D01*
X59911Y-51620D01*
X59886Y-51558D01*
X59838Y-51511D01*
X59777Y-51486D01*
X59710Y-51486D01*
X59649Y-51511D01*
X59602Y-51558D01*
X59576Y-51620D01*
X59576Y-51686D01*
X59602Y-51748D01*
X59649Y-51795D01*
X59710Y-51820D01*
X59777Y-51820D01*
X59838Y-51795D01*
X59885Y-51748D01*
X59911Y-51686D01*
X59911Y-51620D01*
X59911Y-52014D01*
X59886Y-51952D01*
X59838Y-51905D01*
X59777Y-51879D01*
X59710Y-51879D01*
X59649Y-51905D01*
X59602Y-51952D01*
X59576Y-52013D01*
X59576Y-52080D01*
X59602Y-52141D01*
X59649Y-52189D01*
X59710Y-52214D01*
X59777Y-52214D01*
X59838Y-52189D01*
X59885Y-52142D01*
X59911Y-52080D01*
X59911Y-52014D01*
X59911Y-52407D01*
X59886Y-52346D01*
X59838Y-52299D01*
X59777Y-52273D01*
X59710Y-52273D01*
X59649Y-52299D01*
X59602Y-52346D01*
X59576Y-52407D01*
X59576Y-52474D01*
X59602Y-52535D01*
X59649Y-52582D01*
X59710Y-52608D01*
X59777Y-52608D01*
X59838Y-52582D01*
X59885Y-52535D01*
X59911Y-52474D01*
X59911Y-52407D01*
X59911Y-53061D01*
X59744Y-53061D01*
X59710Y-53060D01*
X59710Y-53061D01*
X59517Y-53061D01*
X59517Y-52801D01*
X59517Y-52407D01*
X59517Y-52014D01*
X59517Y-51620D01*
X59492Y-51558D01*
X59445Y-51511D01*
X59383Y-51486D01*
X59317Y-51486D01*
X59255Y-51511D01*
X59208Y-51558D01*
X59183Y-51620D01*
X59183Y-51686D01*
X59208Y-51748D01*
X59255Y-51795D01*
X59316Y-51820D01*
X59383Y-51820D01*
X59445Y-51795D01*
X59492Y-51748D01*
X59517Y-51686D01*
X59517Y-51620D01*
X59517Y-52014D01*
X59492Y-51952D01*
X59445Y-51905D01*
X59383Y-51879D01*
X59317Y-51879D01*
X59255Y-51905D01*
X59208Y-51952D01*
X59183Y-52013D01*
X59183Y-52080D01*
X59208Y-52141D01*
X59255Y-52189D01*
X59316Y-52214D01*
X59383Y-52214D01*
X59445Y-52189D01*
X59492Y-52142D01*
X59517Y-52080D01*
X59517Y-52014D01*
X59517Y-52407D01*
X59492Y-52346D01*
X59445Y-52299D01*
X59383Y-52273D01*
X59317Y-52273D01*
X59255Y-52299D01*
X59208Y-52346D01*
X59183Y-52407D01*
X59183Y-52474D01*
X59208Y-52535D01*
X59255Y-52582D01*
X59316Y-52608D01*
X59383Y-52608D01*
X59445Y-52582D01*
X59492Y-52535D01*
X59517Y-52474D01*
X59517Y-52407D01*
X59517Y-52801D01*
X59492Y-52739D01*
X59445Y-52692D01*
X59383Y-52667D01*
X59317Y-52667D01*
X59255Y-52692D01*
X59208Y-52739D01*
X59183Y-52801D01*
X59183Y-52867D01*
X59208Y-52929D01*
X59255Y-52976D01*
X59316Y-53001D01*
X59383Y-53001D01*
X59445Y-52976D01*
X59492Y-52929D01*
X59517Y-52868D01*
X59517Y-52801D01*
X59517Y-53061D01*
X59350Y-53061D01*
X59317Y-53060D01*
X59317Y-53061D01*
X59064Y-53061D01*
X59064Y-52998D01*
X59064Y-52604D01*
X59039Y-52543D01*
X59025Y-52529D01*
X59025Y-52210D01*
X59025Y-51817D01*
X59000Y-51755D01*
X58953Y-51708D01*
X58891Y-51683D01*
X58825Y-51683D01*
X58763Y-51708D01*
X58716Y-51755D01*
X58690Y-51816D01*
X58690Y-51883D01*
X58716Y-51945D01*
X58763Y-51992D01*
X58824Y-52017D01*
X58891Y-52017D01*
X58952Y-51992D01*
X59000Y-51945D01*
X59025Y-51883D01*
X59025Y-51817D01*
X59025Y-52210D01*
X59000Y-52149D01*
X58953Y-52102D01*
X58891Y-52076D01*
X58825Y-52076D01*
X58763Y-52102D01*
X58716Y-52149D01*
X58690Y-52210D01*
X58690Y-52277D01*
X58716Y-52338D01*
X58763Y-52385D01*
X58824Y-52411D01*
X58891Y-52411D01*
X58952Y-52386D01*
X59000Y-52338D01*
X59025Y-52277D01*
X59025Y-52210D01*
X59025Y-52529D01*
X58992Y-52496D01*
X58931Y-52470D01*
X58864Y-52470D01*
X58802Y-52495D01*
X58755Y-52542D01*
X58730Y-52604D01*
X58730Y-52670D01*
X58755Y-52732D01*
X58802Y-52779D01*
X58864Y-52805D01*
X58930Y-52805D01*
X58992Y-52779D01*
X59039Y-52732D01*
X59064Y-52671D01*
X59064Y-52604D01*
X59064Y-52998D01*
X59039Y-52936D01*
X58992Y-52889D01*
X58931Y-52864D01*
X58864Y-52864D01*
X58802Y-52889D01*
X58755Y-52936D01*
X58730Y-52998D01*
X58730Y-53061D01*
X56604Y-53061D01*
X56604Y-52703D01*
X56578Y-52641D01*
X56531Y-52594D01*
X56470Y-52568D01*
X56403Y-52568D01*
X56342Y-52594D01*
X56295Y-52641D01*
X56269Y-52702D01*
X56269Y-52703D01*
X56244Y-52641D01*
X56197Y-52594D01*
X56135Y-52568D01*
X56069Y-52568D01*
X56007Y-52594D01*
X55960Y-52641D01*
X55935Y-52702D01*
X55935Y-52769D01*
X55960Y-52830D01*
X56007Y-52877D01*
X56068Y-52903D01*
X56135Y-52903D01*
X56197Y-52878D01*
X56244Y-52831D01*
X56269Y-52769D01*
X56269Y-52703D01*
X56269Y-52769D01*
X56295Y-52830D01*
X56342Y-52877D01*
X56403Y-52903D01*
X56470Y-52903D01*
X56531Y-52878D01*
X56578Y-52831D01*
X56604Y-52769D01*
X56604Y-52703D01*
X56604Y-53061D01*
X55265Y-53061D01*
X55265Y-52663D01*
X55240Y-52602D01*
X55193Y-52555D01*
X55131Y-52529D01*
X55065Y-52529D01*
X55003Y-52554D01*
X54956Y-52601D01*
X54931Y-52663D01*
X54931Y-52729D01*
X54956Y-52791D01*
X55003Y-52838D01*
X55064Y-52864D01*
X55131Y-52864D01*
X55193Y-52838D01*
X55240Y-52791D01*
X55265Y-52730D01*
X55265Y-52663D01*
X55265Y-53061D01*
X54143Y-53061D01*
X54143Y-52722D01*
X54118Y-52661D01*
X54071Y-52614D01*
X54009Y-52588D01*
X53943Y-52588D01*
X53881Y-52613D01*
X53834Y-52661D01*
X53818Y-52698D01*
X53803Y-52661D01*
X53756Y-52614D01*
X53694Y-52588D01*
X53628Y-52588D01*
X53566Y-52613D01*
X53519Y-52661D01*
X53503Y-52698D01*
X53488Y-52661D01*
X53441Y-52614D01*
X53379Y-52588D01*
X53313Y-52588D01*
X53257Y-52611D01*
X53257Y-52388D01*
X53232Y-52326D01*
X53185Y-52279D01*
X53123Y-52253D01*
X53057Y-52253D01*
X52995Y-52279D01*
X52948Y-52326D01*
X52923Y-52387D01*
X52923Y-52454D01*
X52948Y-52515D01*
X52995Y-52563D01*
X53057Y-52588D01*
X53123Y-52588D01*
X53185Y-52563D01*
X53232Y-52516D01*
X53257Y-52454D01*
X53257Y-52388D01*
X53257Y-52611D01*
X53251Y-52613D01*
X53204Y-52661D01*
X53179Y-52722D01*
X53179Y-52789D01*
X53204Y-52850D01*
X53251Y-52897D01*
X53313Y-52923D01*
X53379Y-52923D01*
X53441Y-52897D01*
X53488Y-52850D01*
X53503Y-52812D01*
X53519Y-52850D01*
X53566Y-52897D01*
X53627Y-52923D01*
X53694Y-52923D01*
X53756Y-52897D01*
X53803Y-52850D01*
X53818Y-52812D01*
X53834Y-52850D01*
X53881Y-52897D01*
X53942Y-52923D01*
X54009Y-52923D01*
X54071Y-52897D01*
X54118Y-52850D01*
X54143Y-52789D01*
X54143Y-52722D01*
X54143Y-53061D01*
X53102Y-53061D01*
X52273Y-52270D01*
X52273Y-51660D01*
X52160Y-51548D01*
X52181Y-51539D01*
X52228Y-51492D01*
X52244Y-51454D01*
X52259Y-51492D01*
X52306Y-51539D01*
X52368Y-51564D01*
X52434Y-51564D01*
X52496Y-51539D01*
X52543Y-51492D01*
X52568Y-51431D01*
X52568Y-51364D01*
X52543Y-51302D01*
X52496Y-51255D01*
X52435Y-51230D01*
X52368Y-51230D01*
X52306Y-51255D01*
X52293Y-51269D01*
X52293Y-50104D01*
X52267Y-50043D01*
X52220Y-49996D01*
X52159Y-49970D01*
X52092Y-49970D01*
X52031Y-49995D01*
X51984Y-50042D01*
X51958Y-50104D01*
X51958Y-50170D01*
X51984Y-50232D01*
X52031Y-50279D01*
X52092Y-50305D01*
X52159Y-50305D01*
X52220Y-50279D01*
X52267Y-50232D01*
X52293Y-50171D01*
X52293Y-50104D01*
X52293Y-51269D01*
X52259Y-51302D01*
X52244Y-51340D01*
X52228Y-51302D01*
X52181Y-51255D01*
X52120Y-51230D01*
X52053Y-51230D01*
X51991Y-51255D01*
X51944Y-51302D01*
X51936Y-51323D01*
X51820Y-51208D01*
X51820Y-51167D01*
X51795Y-51106D01*
X51748Y-51059D01*
X51710Y-51043D01*
X51710Y-49659D01*
X51685Y-49598D01*
X51638Y-49551D01*
X51576Y-49525D01*
X51510Y-49525D01*
X51448Y-49550D01*
X51403Y-49595D01*
X51401Y-49590D01*
X51354Y-49543D01*
X51293Y-49517D01*
X51226Y-49517D01*
X51165Y-49543D01*
X51118Y-49590D01*
X51092Y-49651D01*
X51092Y-49718D01*
X51117Y-49779D01*
X51164Y-49826D01*
X51226Y-49852D01*
X51292Y-49852D01*
X51354Y-49826D01*
X51399Y-49782D01*
X51401Y-49787D01*
X51448Y-49834D01*
X51509Y-49860D01*
X51576Y-49860D01*
X51637Y-49834D01*
X51685Y-49787D01*
X51710Y-49726D01*
X51710Y-49659D01*
X51710Y-51043D01*
X51686Y-51033D01*
X51620Y-51033D01*
X51572Y-51053D01*
X51419Y-51053D01*
X51372Y-51033D01*
X51305Y-51033D01*
X51257Y-51053D01*
X51112Y-51053D01*
X51112Y-50065D01*
X51086Y-50003D01*
X51072Y-49989D01*
X51072Y-49671D01*
X51047Y-49610D01*
X51000Y-49562D01*
X50938Y-49537D01*
X50872Y-49537D01*
X50810Y-49562D01*
X50763Y-49609D01*
X50738Y-49671D01*
X50738Y-49737D01*
X50763Y-49799D01*
X50810Y-49846D01*
X50872Y-49872D01*
X50938Y-49872D01*
X51000Y-49846D01*
X51047Y-49799D01*
X51072Y-49738D01*
X51072Y-49671D01*
X51072Y-49989D01*
X51039Y-49956D01*
X50978Y-49931D01*
X50911Y-49931D01*
X50850Y-49956D01*
X50803Y-50003D01*
X50777Y-50064D01*
X50777Y-50131D01*
X50802Y-50193D01*
X50849Y-50240D01*
X50911Y-50265D01*
X50978Y-50265D01*
X51039Y-50240D01*
X51086Y-50193D01*
X51112Y-50131D01*
X51112Y-50065D01*
X51112Y-51053D01*
X51104Y-51053D01*
X51057Y-51033D01*
X50990Y-51033D01*
X50942Y-51053D01*
X50789Y-51053D01*
X50742Y-51033D01*
X50675Y-51033D01*
X50627Y-51053D01*
X50541Y-51053D01*
X50541Y-50675D01*
X50521Y-50627D01*
X50521Y-50065D01*
X50496Y-50003D01*
X50449Y-49956D01*
X50387Y-49931D01*
X50321Y-49931D01*
X50265Y-49953D01*
X50265Y-49435D01*
X50240Y-49373D01*
X50193Y-49326D01*
X50131Y-49301D01*
X50065Y-49301D01*
X50003Y-49326D01*
X49956Y-49373D01*
X49931Y-49435D01*
X49931Y-49501D01*
X49956Y-49563D01*
X50003Y-49610D01*
X50064Y-49635D01*
X50131Y-49635D01*
X50193Y-49610D01*
X50240Y-49563D01*
X50265Y-49501D01*
X50265Y-49435D01*
X50265Y-49953D01*
X50259Y-49956D01*
X50212Y-50003D01*
X50187Y-50064D01*
X50186Y-50131D01*
X50212Y-50193D01*
X50259Y-50240D01*
X50320Y-50265D01*
X50387Y-50265D01*
X50448Y-50240D01*
X50496Y-50193D01*
X50521Y-50131D01*
X50521Y-50065D01*
X50521Y-50627D01*
X50515Y-50614D01*
X50468Y-50566D01*
X50407Y-50541D01*
X50340Y-50541D01*
X50279Y-50566D01*
X50265Y-50580D01*
X50265Y-50419D01*
X50240Y-50358D01*
X50193Y-50310D01*
X50131Y-50285D01*
X50065Y-50285D01*
X50003Y-50310D01*
X49956Y-50357D01*
X49931Y-50419D01*
X49931Y-50485D01*
X49956Y-50547D01*
X50003Y-50594D01*
X50064Y-50620D01*
X50131Y-50620D01*
X50193Y-50594D01*
X50240Y-50547D01*
X50265Y-50486D01*
X50265Y-50419D01*
X50265Y-50580D01*
X50232Y-50613D01*
X50206Y-50675D01*
X50206Y-50741D01*
X50232Y-50803D01*
X50279Y-50850D01*
X50340Y-50875D01*
X50407Y-50876D01*
X50468Y-50850D01*
X50515Y-50803D01*
X50541Y-50742D01*
X50541Y-50675D01*
X50541Y-51053D01*
X50474Y-51053D01*
X50427Y-51033D01*
X50360Y-51033D01*
X50312Y-51053D01*
X50159Y-51053D01*
X50112Y-51033D01*
X50045Y-51033D01*
X49997Y-51053D01*
X49773Y-51053D01*
X49773Y-50458D01*
X49748Y-50397D01*
X49701Y-50350D01*
X49639Y-50324D01*
X49573Y-50324D01*
X49511Y-50350D01*
X49464Y-50397D01*
X49439Y-50458D01*
X49438Y-50525D01*
X49464Y-50586D01*
X49511Y-50633D01*
X49572Y-50659D01*
X49639Y-50659D01*
X49700Y-50634D01*
X49748Y-50587D01*
X49773Y-50525D01*
X49773Y-50458D01*
X49773Y-51053D01*
X49647Y-51053D01*
X49600Y-51033D01*
X49533Y-51033D01*
X49486Y-51053D01*
X48789Y-51053D01*
X48803Y-51039D01*
X48828Y-50978D01*
X48828Y-50911D01*
X48803Y-50850D01*
X48756Y-50803D01*
X48694Y-50777D01*
X48628Y-50777D01*
X48566Y-50802D01*
X48519Y-50849D01*
X48494Y-50911D01*
X48494Y-50978D01*
X48519Y-51039D01*
X48533Y-51053D01*
X48220Y-51053D01*
X48205Y-51037D01*
X48197Y-51018D01*
X48234Y-51033D01*
X48300Y-51033D01*
X48362Y-51008D01*
X48409Y-50961D01*
X48435Y-50899D01*
X48435Y-50833D01*
X48409Y-50771D01*
X48362Y-50724D01*
X48301Y-50698D01*
X48234Y-50698D01*
X48173Y-50724D01*
X48125Y-50771D01*
X48110Y-50809D01*
X48094Y-50771D01*
X48047Y-50724D01*
X47986Y-50698D01*
X47919Y-50698D01*
X47882Y-50714D01*
X47706Y-50538D01*
X47706Y-49986D01*
X47681Y-49925D01*
X47634Y-49877D01*
X47572Y-49852D01*
X47506Y-49852D01*
X47444Y-49877D01*
X47397Y-49924D01*
X47372Y-49986D01*
X47372Y-50052D01*
X47397Y-50114D01*
X47444Y-50161D01*
X47505Y-50186D01*
X47572Y-50187D01*
X47634Y-50161D01*
X47681Y-50114D01*
X47706Y-50053D01*
X47706Y-49986D01*
X47706Y-50538D01*
X47374Y-50206D01*
X46171Y-50206D01*
X46171Y-49261D01*
X48659Y-49261D01*
X48645Y-49267D01*
X48598Y-49314D01*
X48572Y-49376D01*
X48572Y-49442D01*
X48598Y-49504D01*
X48601Y-49507D01*
X48598Y-49511D01*
X48572Y-49572D01*
X48572Y-49639D01*
X48598Y-49700D01*
X48645Y-49748D01*
X48706Y-49773D01*
X48773Y-49773D01*
X48833Y-49748D01*
X48854Y-49799D01*
X48901Y-49846D01*
X48962Y-49872D01*
X49005Y-49872D01*
X49005Y-49934D01*
X49031Y-49996D01*
X49078Y-50043D01*
X49139Y-50068D01*
X49183Y-50068D01*
X49183Y-50131D01*
X49208Y-50193D01*
X49255Y-50240D01*
X49316Y-50265D01*
X49383Y-50265D01*
X49445Y-50240D01*
X49492Y-50193D01*
X49517Y-50131D01*
X49517Y-50065D01*
X49492Y-50003D01*
X49445Y-49956D01*
X49383Y-49931D01*
X49340Y-49931D01*
X49340Y-49868D01*
X49315Y-49806D01*
X49268Y-49759D01*
X49206Y-49734D01*
X49163Y-49734D01*
X49163Y-49671D01*
X49137Y-49610D01*
X49090Y-49562D01*
X49029Y-49537D01*
X48962Y-49537D01*
X48902Y-49562D01*
X48882Y-49511D01*
X48878Y-49507D01*
X48881Y-49504D01*
X48907Y-49442D01*
X48907Y-49376D01*
X48882Y-49314D01*
X48835Y-49267D01*
X48820Y-49261D01*
X49525Y-49261D01*
X49511Y-49267D01*
X49464Y-49314D01*
X49439Y-49376D01*
X49438Y-49442D01*
X49464Y-49504D01*
X49511Y-49551D01*
X49572Y-49576D01*
X49639Y-49576D01*
X49700Y-49551D01*
X49748Y-49504D01*
X49773Y-49442D01*
X49773Y-49376D01*
X49748Y-49314D01*
X49701Y-49267D01*
X49687Y-49261D01*
X50744Y-49261D01*
X50738Y-49277D01*
X50738Y-49344D01*
X50763Y-49405D01*
X50810Y-49452D01*
X50872Y-49478D01*
X50938Y-49478D01*
X51000Y-49452D01*
X51047Y-49405D01*
X51072Y-49344D01*
X51072Y-49277D01*
X51066Y-49261D01*
X52113Y-49261D01*
X53349Y-50521D01*
X53310Y-50537D01*
X53263Y-50584D01*
X53238Y-50645D01*
X53238Y-50712D01*
X53263Y-50773D01*
X53310Y-50820D01*
X53372Y-50846D01*
X53438Y-50846D01*
X53500Y-50821D01*
X53547Y-50774D01*
X53562Y-50737D01*
X53727Y-50905D01*
X53677Y-50905D01*
X53615Y-50930D01*
X53568Y-50977D01*
X53553Y-51015D01*
X53537Y-50978D01*
X53490Y-50931D01*
X53429Y-50905D01*
X53362Y-50905D01*
X53301Y-50930D01*
X53253Y-50977D01*
X53228Y-51039D01*
X53228Y-51105D01*
X53253Y-51167D01*
X53300Y-51214D01*
X53338Y-51230D01*
X53301Y-51245D01*
X53253Y-51292D01*
X53228Y-51354D01*
X53228Y-51420D01*
X53253Y-51482D01*
X53300Y-51529D01*
X53362Y-51555D01*
X53428Y-51555D01*
X53490Y-51529D01*
X53537Y-51482D01*
X53562Y-51421D01*
X53563Y-51354D01*
X53537Y-51293D01*
X53490Y-51246D01*
X53452Y-51230D01*
X53490Y-51214D01*
X53537Y-51167D01*
X53553Y-51129D01*
X53568Y-51167D01*
X53615Y-51214D01*
X53677Y-51240D01*
X53743Y-51240D01*
X53805Y-51214D01*
X53852Y-51167D01*
X53868Y-51129D01*
X53883Y-51167D01*
X53930Y-51214D01*
X53968Y-51230D01*
X53930Y-51245D01*
X53883Y-51292D01*
X53858Y-51354D01*
X53858Y-51420D01*
X53883Y-51482D01*
X53930Y-51529D01*
X53992Y-51555D01*
X54058Y-51555D01*
X54120Y-51529D01*
X54167Y-51482D01*
X54192Y-51421D01*
X54192Y-51379D01*
X54239Y-51427D01*
X54490Y-51427D01*
X54513Y-51482D01*
X54560Y-51529D01*
X54622Y-51555D01*
X54688Y-51555D01*
X54750Y-51529D01*
X54797Y-51482D01*
X54812Y-51444D01*
X54828Y-51482D01*
X54875Y-51529D01*
X54937Y-51555D01*
X55003Y-51555D01*
X55065Y-51529D01*
X55112Y-51482D01*
X55127Y-51444D01*
X55143Y-51482D01*
X55190Y-51529D01*
X55252Y-51555D01*
X55318Y-51555D01*
X55380Y-51529D01*
X55427Y-51482D01*
X55442Y-51444D01*
X55458Y-51482D01*
X55505Y-51529D01*
X55566Y-51555D01*
X55633Y-51555D01*
X55695Y-51529D01*
X55742Y-51482D01*
X55757Y-51444D01*
X55773Y-51482D01*
X55820Y-51529D01*
X55881Y-51555D01*
X55948Y-51555D01*
X56010Y-51529D01*
X56057Y-51482D01*
X56072Y-51444D01*
X56088Y-51482D01*
X56135Y-51529D01*
X56196Y-51555D01*
X56263Y-51555D01*
X56324Y-51529D01*
X56372Y-51482D01*
X56387Y-51444D01*
X56403Y-51482D01*
X56450Y-51529D01*
X56511Y-51555D01*
X56578Y-51555D01*
X56639Y-51529D01*
X56687Y-51482D01*
X56702Y-51444D01*
X56718Y-51482D01*
X56765Y-51529D01*
X56826Y-51555D01*
X56893Y-51555D01*
X56954Y-51529D01*
X57002Y-51482D01*
X57017Y-51444D01*
X57033Y-51482D01*
X57080Y-51529D01*
X57141Y-51555D01*
X57208Y-51555D01*
X57269Y-51529D01*
X57316Y-51482D01*
X57332Y-51444D01*
X57348Y-51482D01*
X57395Y-51529D01*
X57456Y-51555D01*
X57523Y-51555D01*
X57584Y-51529D01*
X57631Y-51482D01*
X57654Y-51427D01*
X58690Y-51427D01*
X58690Y-51489D01*
X58716Y-51551D01*
X58763Y-51598D01*
X58824Y-51623D01*
X58891Y-51624D01*
X58952Y-51598D01*
X59000Y-51551D01*
X59025Y-51490D01*
X59025Y-51427D01*
X59350Y-51427D01*
X59383Y-51427D01*
X59383Y-51427D01*
X59744Y-51427D01*
X59777Y-51427D01*
X59777Y-51427D01*
X60137Y-51427D01*
X60170Y-51427D01*
X60171Y-51427D01*
X60531Y-51427D01*
X60564Y-51427D01*
X60564Y-51427D01*
X60925Y-51427D01*
X60958Y-51427D01*
X60958Y-51427D01*
X61318Y-51427D01*
X61352Y-51427D01*
X61352Y-51427D01*
X61712Y-51427D01*
X61745Y-51427D01*
X61745Y-51427D01*
X62893Y-51427D01*
X62926Y-51427D01*
X62926Y-51427D01*
X63061Y-51427D01*
X63061Y-52598D01*
X63061Y-53061D01*
X63061Y-53061D01*
G37*
X63061Y-53061D02*
X62893Y-53061D01*
X62860Y-53060D01*
X62860Y-53061D01*
X62667Y-53061D01*
X62667Y-52014D01*
X62667Y-51620D01*
X62641Y-51558D01*
X62594Y-51511D01*
X62533Y-51486D01*
X62466Y-51486D01*
X62405Y-51511D01*
X62358Y-51558D01*
X62332Y-51620D01*
X62332Y-51686D01*
X62358Y-51748D01*
X62405Y-51795D01*
X62466Y-51820D01*
X62533Y-51820D01*
X62594Y-51795D01*
X62641Y-51748D01*
X62667Y-51686D01*
X62667Y-51620D01*
X62667Y-52014D01*
X62641Y-51952D01*
X62594Y-51905D01*
X62533Y-51879D01*
X62466Y-51879D01*
X62405Y-51905D01*
X62358Y-51952D01*
X62332Y-52013D01*
X62332Y-52080D01*
X62358Y-52141D01*
X62405Y-52189D01*
X62466Y-52214D01*
X62533Y-52214D01*
X62594Y-52189D01*
X62641Y-52142D01*
X62667Y-52080D01*
X62667Y-52014D01*
X62667Y-53061D01*
X62499Y-53061D01*
X62466Y-53060D01*
X62466Y-53061D01*
X62273Y-53061D01*
X62273Y-52801D01*
X62273Y-52014D01*
X62273Y-51620D01*
X62248Y-51558D01*
X62201Y-51511D01*
X62139Y-51486D01*
X62073Y-51486D01*
X62011Y-51511D01*
X61964Y-51558D01*
X61939Y-51620D01*
X61938Y-51686D01*
X61964Y-51748D01*
X62011Y-51795D01*
X62072Y-51820D01*
X62139Y-51820D01*
X62200Y-51795D01*
X62248Y-51748D01*
X62273Y-51686D01*
X62273Y-51620D01*
X62273Y-52014D01*
X62248Y-51952D01*
X62201Y-51905D01*
X62139Y-51879D01*
X62073Y-51879D01*
X62011Y-51905D01*
X61964Y-51952D01*
X61939Y-52013D01*
X61938Y-52080D01*
X61964Y-52141D01*
X62011Y-52189D01*
X62072Y-52214D01*
X62139Y-52214D01*
X62200Y-52189D01*
X62248Y-52142D01*
X62273Y-52080D01*
X62273Y-52014D01*
X62273Y-52801D01*
X62248Y-52739D01*
X62201Y-52692D01*
X62139Y-52667D01*
X62073Y-52667D01*
X62011Y-52692D01*
X61964Y-52739D01*
X61939Y-52801D01*
X61938Y-52867D01*
X61964Y-52929D01*
X62011Y-52976D01*
X62072Y-53001D01*
X62139Y-53001D01*
X62200Y-52976D01*
X62248Y-52929D01*
X62273Y-52868D01*
X62273Y-52801D01*
X62273Y-53061D01*
X62106Y-53061D01*
X62073Y-53060D01*
X62073Y-53061D01*
X61879Y-53061D01*
X61879Y-52801D01*
X61879Y-52014D01*
X61879Y-51620D01*
X61854Y-51558D01*
X61807Y-51511D01*
X61746Y-51486D01*
X61679Y-51486D01*
X61617Y-51511D01*
X61570Y-51558D01*
X61545Y-51620D01*
X61545Y-51686D01*
X61570Y-51748D01*
X61617Y-51795D01*
X61679Y-51820D01*
X61745Y-51820D01*
X61807Y-51795D01*
X61854Y-51748D01*
X61879Y-51686D01*
X61879Y-51620D01*
X61879Y-52014D01*
X61854Y-51952D01*
X61807Y-51905D01*
X61746Y-51879D01*
X61679Y-51879D01*
X61617Y-51905D01*
X61570Y-51952D01*
X61545Y-52013D01*
X61545Y-52080D01*
X61570Y-52141D01*
X61617Y-52189D01*
X61679Y-52214D01*
X61745Y-52214D01*
X61807Y-52189D01*
X61854Y-52142D01*
X61879Y-52080D01*
X61879Y-52014D01*
X61879Y-52801D01*
X61854Y-52739D01*
X61807Y-52692D01*
X61746Y-52667D01*
X61679Y-52667D01*
X61617Y-52692D01*
X61570Y-52739D01*
X61545Y-52801D01*
X61545Y-52867D01*
X61570Y-52929D01*
X61617Y-52976D01*
X61679Y-53001D01*
X61745Y-53001D01*
X61807Y-52976D01*
X61854Y-52929D01*
X61879Y-52868D01*
X61879Y-52801D01*
X61879Y-53061D01*
X61712Y-53061D01*
X61679Y-53060D01*
X61679Y-53061D01*
X61486Y-53061D01*
X61486Y-52014D01*
X61486Y-51620D01*
X61460Y-51558D01*
X61413Y-51511D01*
X61352Y-51486D01*
X61285Y-51486D01*
X61224Y-51511D01*
X61177Y-51558D01*
X61151Y-51620D01*
X61151Y-51686D01*
X61176Y-51748D01*
X61223Y-51795D01*
X61285Y-51820D01*
X61352Y-51820D01*
X61413Y-51795D01*
X61460Y-51748D01*
X61486Y-51686D01*
X61486Y-51620D01*
X61486Y-52014D01*
X61460Y-51952D01*
X61413Y-51905D01*
X61352Y-51879D01*
X61285Y-51879D01*
X61224Y-51905D01*
X61177Y-51952D01*
X61151Y-52013D01*
X61151Y-52080D01*
X61176Y-52141D01*
X61223Y-52189D01*
X61285Y-52214D01*
X61352Y-52214D01*
X61413Y-52189D01*
X61460Y-52142D01*
X61486Y-52080D01*
X61486Y-52014D01*
X61486Y-53061D01*
X61318Y-53061D01*
X61285Y-53060D01*
X61285Y-53061D01*
X61092Y-53061D01*
X61092Y-52407D01*
X61092Y-51620D01*
X61067Y-51558D01*
X61020Y-51511D01*
X60958Y-51486D01*
X60892Y-51486D01*
X60830Y-51511D01*
X60783Y-51558D01*
X60757Y-51620D01*
X60757Y-51686D01*
X60783Y-51748D01*
X60830Y-51795D01*
X60891Y-51820D01*
X60958Y-51820D01*
X61019Y-51795D01*
X61066Y-51748D01*
X61092Y-51686D01*
X61092Y-51620D01*
X61092Y-52407D01*
X61067Y-52346D01*
X61020Y-52299D01*
X60958Y-52273D01*
X60892Y-52273D01*
X60830Y-52299D01*
X60783Y-52346D01*
X60757Y-52407D01*
X60757Y-52474D01*
X60783Y-52535D01*
X60830Y-52582D01*
X60891Y-52608D01*
X60958Y-52608D01*
X61019Y-52582D01*
X61066Y-52535D01*
X61092Y-52474D01*
X61092Y-52407D01*
X61092Y-53061D01*
X60698Y-53061D01*
X60698Y-52801D01*
X60698Y-52407D01*
X60698Y-52014D01*
X60698Y-51620D01*
X60673Y-51558D01*
X60626Y-51511D01*
X60564Y-51486D01*
X60498Y-51486D01*
X60436Y-51511D01*
X60389Y-51558D01*
X60364Y-51620D01*
X60364Y-51686D01*
X60389Y-51748D01*
X60436Y-51795D01*
X60498Y-51820D01*
X60564Y-51820D01*
X60626Y-51795D01*
X60673Y-51748D01*
X60698Y-51686D01*
X60698Y-51620D01*
X60698Y-52014D01*
X60673Y-51952D01*
X60626Y-51905D01*
X60564Y-51879D01*
X60498Y-51879D01*
X60436Y-51905D01*
X60389Y-51952D01*
X60364Y-52013D01*
X60364Y-52080D01*
X60389Y-52141D01*
X60436Y-52189D01*
X60498Y-52214D01*
X60564Y-52214D01*
X60626Y-52189D01*
X60673Y-52142D01*
X60698Y-52080D01*
X60698Y-52014D01*
X60698Y-52407D01*
X60673Y-52346D01*
X60626Y-52299D01*
X60564Y-52273D01*
X60498Y-52273D01*
X60436Y-52299D01*
X60389Y-52346D01*
X60364Y-52407D01*
X60364Y-52474D01*
X60389Y-52535D01*
X60436Y-52582D01*
X60498Y-52608D01*
X60564Y-52608D01*
X60626Y-52582D01*
X60673Y-52535D01*
X60698Y-52474D01*
X60698Y-52407D01*
X60698Y-52801D01*
X60673Y-52739D01*
X60626Y-52692D01*
X60564Y-52667D01*
X60498Y-52667D01*
X60436Y-52692D01*
X60389Y-52739D01*
X60364Y-52801D01*
X60364Y-52867D01*
X60389Y-52929D01*
X60436Y-52976D01*
X60498Y-53001D01*
X60564Y-53001D01*
X60626Y-52976D01*
X60673Y-52929D01*
X60698Y-52868D01*
X60698Y-52801D01*
X60698Y-53061D01*
X60531Y-53061D01*
X60498Y-53060D01*
X60498Y-53061D01*
X60305Y-53061D01*
X60305Y-52801D01*
X60305Y-52407D01*
X60305Y-52014D01*
X60305Y-51620D01*
X60279Y-51558D01*
X60232Y-51511D01*
X60171Y-51486D01*
X60104Y-51486D01*
X60043Y-51511D01*
X59996Y-51558D01*
X59970Y-51620D01*
X59970Y-51686D01*
X59995Y-51748D01*
X60042Y-51795D01*
X60104Y-51820D01*
X60170Y-51820D01*
X60232Y-51795D01*
X60279Y-51748D01*
X60305Y-51686D01*
X60305Y-51620D01*
X60305Y-52014D01*
X60279Y-51952D01*
X60232Y-51905D01*
X60171Y-51879D01*
X60104Y-51879D01*
X60043Y-51905D01*
X59996Y-51952D01*
X59970Y-52013D01*
X59970Y-52080D01*
X59995Y-52141D01*
X60042Y-52189D01*
X60104Y-52214D01*
X60170Y-52214D01*
X60232Y-52189D01*
X60279Y-52142D01*
X60305Y-52080D01*
X60305Y-52014D01*
X60305Y-52407D01*
X60279Y-52346D01*
X60232Y-52299D01*
X60171Y-52273D01*
X60104Y-52273D01*
X60043Y-52299D01*
X59996Y-52346D01*
X59970Y-52407D01*
X59970Y-52474D01*
X59995Y-52535D01*
X60042Y-52582D01*
X60104Y-52608D01*
X60170Y-52608D01*
X60232Y-52582D01*
X60279Y-52535D01*
X60305Y-52474D01*
X60305Y-52407D01*
X60305Y-52801D01*
X60279Y-52739D01*
X60232Y-52692D01*
X60171Y-52667D01*
X60104Y-52667D01*
X60043Y-52692D01*
X59996Y-52739D01*
X59970Y-52801D01*
X59970Y-52867D01*
X59995Y-52929D01*
X60042Y-52976D01*
X60104Y-53001D01*
X60170Y-53001D01*
X60232Y-52976D01*
X60279Y-52929D01*
X60305Y-52868D01*
X60305Y-52801D01*
X60305Y-53061D01*
X60137Y-53061D01*
X60104Y-53060D01*
X60104Y-53061D01*
X59911Y-53061D01*
X59911Y-52407D01*
X59911Y-52014D01*
X59911Y-51620D01*
X59886Y-51558D01*
X59838Y-51511D01*
X59777Y-51486D01*
X59710Y-51486D01*
X59649Y-51511D01*
X59602Y-51558D01*
X59576Y-51620D01*
X59576Y-51686D01*
X59602Y-51748D01*
X59649Y-51795D01*
X59710Y-51820D01*
X59777Y-51820D01*
X59838Y-51795D01*
X59885Y-51748D01*
X59911Y-51686D01*
X59911Y-51620D01*
X59911Y-52014D01*
X59886Y-51952D01*
X59838Y-51905D01*
X59777Y-51879D01*
X59710Y-51879D01*
X59649Y-51905D01*
X59602Y-51952D01*
X59576Y-52013D01*
X59576Y-52080D01*
X59602Y-52141D01*
X59649Y-52189D01*
X59710Y-52214D01*
X59777Y-52214D01*
X59838Y-52189D01*
X59885Y-52142D01*
X59911Y-52080D01*
X59911Y-52014D01*
X59911Y-52407D01*
X59886Y-52346D01*
X59838Y-52299D01*
X59777Y-52273D01*
X59710Y-52273D01*
X59649Y-52299D01*
X59602Y-52346D01*
X59576Y-52407D01*
X59576Y-52474D01*
X59602Y-52535D01*
X59649Y-52582D01*
X59710Y-52608D01*
X59777Y-52608D01*
X59838Y-52582D01*
X59885Y-52535D01*
X59911Y-52474D01*
X59911Y-52407D01*
X59911Y-53061D01*
X59744Y-53061D01*
X59710Y-53060D01*
X59710Y-53061D01*
X59517Y-53061D01*
X59517Y-52801D01*
X59517Y-52407D01*
X59517Y-52014D01*
X59517Y-51620D01*
X59492Y-51558D01*
X59445Y-51511D01*
X59383Y-51486D01*
X59317Y-51486D01*
X59255Y-51511D01*
X59208Y-51558D01*
X59183Y-51620D01*
X59183Y-51686D01*
X59208Y-51748D01*
X59255Y-51795D01*
X59316Y-51820D01*
X59383Y-51820D01*
X59445Y-51795D01*
X59492Y-51748D01*
X59517Y-51686D01*
X59517Y-51620D01*
X59517Y-52014D01*
X59492Y-51952D01*
X59445Y-51905D01*
X59383Y-51879D01*
X59317Y-51879D01*
X59255Y-51905D01*
X59208Y-51952D01*
X59183Y-52013D01*
X59183Y-52080D01*
X59208Y-52141D01*
X59255Y-52189D01*
X59316Y-52214D01*
X59383Y-52214D01*
X59445Y-52189D01*
X59492Y-52142D01*
X59517Y-52080D01*
X59517Y-52014D01*
X59517Y-52407D01*
X59492Y-52346D01*
X59445Y-52299D01*
X59383Y-52273D01*
X59317Y-52273D01*
X59255Y-52299D01*
X59208Y-52346D01*
X59183Y-52407D01*
X59183Y-52474D01*
X59208Y-52535D01*
X59255Y-52582D01*
X59316Y-52608D01*
X59383Y-52608D01*
X59445Y-52582D01*
X59492Y-52535D01*
X59517Y-52474D01*
X59517Y-52407D01*
X59517Y-52801D01*
X59492Y-52739D01*
X59445Y-52692D01*
X59383Y-52667D01*
X59317Y-52667D01*
X59255Y-52692D01*
X59208Y-52739D01*
X59183Y-52801D01*
X59183Y-52867D01*
X59208Y-52929D01*
X59255Y-52976D01*
X59316Y-53001D01*
X59383Y-53001D01*
X59445Y-52976D01*
X59492Y-52929D01*
X59517Y-52868D01*
X59517Y-52801D01*
X59517Y-53061D01*
X59350Y-53061D01*
X59317Y-53060D01*
X59317Y-53061D01*
X59064Y-53061D01*
X59064Y-52998D01*
X59064Y-52604D01*
X59039Y-52543D01*
X59025Y-52529D01*
X59025Y-52210D01*
X59025Y-51817D01*
X59000Y-51755D01*
X58953Y-51708D01*
X58891Y-51683D01*
X58825Y-51683D01*
X58763Y-51708D01*
X58716Y-51755D01*
X58690Y-51816D01*
X58690Y-51883D01*
X58716Y-51945D01*
X58763Y-51992D01*
X58824Y-52017D01*
X58891Y-52017D01*
X58952Y-51992D01*
X59000Y-51945D01*
X59025Y-51883D01*
X59025Y-51817D01*
X59025Y-52210D01*
X59000Y-52149D01*
X58953Y-52102D01*
X58891Y-52076D01*
X58825Y-52076D01*
X58763Y-52102D01*
X58716Y-52149D01*
X58690Y-52210D01*
X58690Y-52277D01*
X58716Y-52338D01*
X58763Y-52385D01*
X58824Y-52411D01*
X58891Y-52411D01*
X58952Y-52386D01*
X59000Y-52338D01*
X59025Y-52277D01*
X59025Y-52210D01*
X59025Y-52529D01*
X58992Y-52496D01*
X58931Y-52470D01*
X58864Y-52470D01*
X58802Y-52495D01*
X58755Y-52542D01*
X58730Y-52604D01*
X58730Y-52670D01*
X58755Y-52732D01*
X58802Y-52779D01*
X58864Y-52805D01*
X58930Y-52805D01*
X58992Y-52779D01*
X59039Y-52732D01*
X59064Y-52671D01*
X59064Y-52604D01*
X59064Y-52998D01*
X59039Y-52936D01*
X58992Y-52889D01*
X58931Y-52864D01*
X58864Y-52864D01*
X58802Y-52889D01*
X58755Y-52936D01*
X58730Y-52998D01*
X58730Y-53061D01*
X56604Y-53061D01*
X56604Y-52703D01*
X56578Y-52641D01*
X56531Y-52594D01*
X56470Y-52568D01*
X56403Y-52568D01*
X56342Y-52594D01*
X56295Y-52641D01*
X56269Y-52702D01*
X56269Y-52703D01*
X56244Y-52641D01*
X56197Y-52594D01*
X56135Y-52568D01*
X56069Y-52568D01*
X56007Y-52594D01*
X55960Y-52641D01*
X55935Y-52702D01*
X55935Y-52769D01*
X55960Y-52830D01*
X56007Y-52877D01*
X56068Y-52903D01*
X56135Y-52903D01*
X56197Y-52878D01*
X56244Y-52831D01*
X56269Y-52769D01*
X56269Y-52703D01*
X56269Y-52769D01*
X56295Y-52830D01*
X56342Y-52877D01*
X56403Y-52903D01*
X56470Y-52903D01*
X56531Y-52878D01*
X56578Y-52831D01*
X56604Y-52769D01*
X56604Y-52703D01*
X56604Y-53061D01*
X55265Y-53061D01*
X55265Y-52663D01*
X55240Y-52602D01*
X55193Y-52555D01*
X55131Y-52529D01*
X55065Y-52529D01*
X55003Y-52554D01*
X54956Y-52601D01*
X54931Y-52663D01*
X54931Y-52729D01*
X54956Y-52791D01*
X55003Y-52838D01*
X55064Y-52864D01*
X55131Y-52864D01*
X55193Y-52838D01*
X55240Y-52791D01*
X55265Y-52730D01*
X55265Y-52663D01*
X55265Y-53061D01*
X54143Y-53061D01*
X54143Y-52722D01*
X54118Y-52661D01*
X54071Y-52614D01*
X54009Y-52588D01*
X53943Y-52588D01*
X53881Y-52613D01*
X53834Y-52661D01*
X53818Y-52698D01*
X53803Y-52661D01*
X53756Y-52614D01*
X53694Y-52588D01*
X53628Y-52588D01*
X53566Y-52613D01*
X53519Y-52661D01*
X53503Y-52698D01*
X53488Y-52661D01*
X53441Y-52614D01*
X53379Y-52588D01*
X53313Y-52588D01*
X53257Y-52611D01*
X53257Y-52388D01*
X53232Y-52326D01*
X53185Y-52279D01*
X53123Y-52253D01*
X53057Y-52253D01*
X52995Y-52279D01*
X52948Y-52326D01*
X52923Y-52387D01*
X52923Y-52454D01*
X52948Y-52515D01*
X52995Y-52563D01*
X53057Y-52588D01*
X53123Y-52588D01*
X53185Y-52563D01*
X53232Y-52516D01*
X53257Y-52454D01*
X53257Y-52388D01*
X53257Y-52611D01*
X53251Y-52613D01*
X53204Y-52661D01*
X53179Y-52722D01*
X53179Y-52789D01*
X53204Y-52850D01*
X53251Y-52897D01*
X53313Y-52923D01*
X53379Y-52923D01*
X53441Y-52897D01*
X53488Y-52850D01*
X53503Y-52812D01*
X53519Y-52850D01*
X53566Y-52897D01*
X53627Y-52923D01*
X53694Y-52923D01*
X53756Y-52897D01*
X53803Y-52850D01*
X53818Y-52812D01*
X53834Y-52850D01*
X53881Y-52897D01*
X53942Y-52923D01*
X54009Y-52923D01*
X54071Y-52897D01*
X54118Y-52850D01*
X54143Y-52789D01*
X54143Y-52722D01*
X54143Y-53061D01*
X53102Y-53061D01*
X52273Y-52270D01*
X52273Y-51660D01*
X52160Y-51548D01*
X52181Y-51539D01*
X52228Y-51492D01*
X52244Y-51454D01*
X52259Y-51492D01*
X52306Y-51539D01*
X52368Y-51564D01*
X52434Y-51564D01*
X52496Y-51539D01*
X52543Y-51492D01*
X52568Y-51431D01*
X52568Y-51364D01*
X52543Y-51302D01*
X52496Y-51255D01*
X52435Y-51230D01*
X52368Y-51230D01*
X52306Y-51255D01*
X52293Y-51269D01*
X52293Y-50104D01*
X52267Y-50043D01*
X52220Y-49996D01*
X52159Y-49970D01*
X52092Y-49970D01*
X52031Y-49995D01*
X51984Y-50042D01*
X51958Y-50104D01*
X51958Y-50170D01*
X51984Y-50232D01*
X52031Y-50279D01*
X52092Y-50305D01*
X52159Y-50305D01*
X52220Y-50279D01*
X52267Y-50232D01*
X52293Y-50171D01*
X52293Y-50104D01*
X52293Y-51269D01*
X52259Y-51302D01*
X52244Y-51340D01*
X52228Y-51302D01*
X52181Y-51255D01*
X52120Y-51230D01*
X52053Y-51230D01*
X51991Y-51255D01*
X51944Y-51302D01*
X51936Y-51323D01*
X51820Y-51208D01*
X51820Y-51167D01*
X51795Y-51106D01*
X51748Y-51059D01*
X51710Y-51043D01*
X51710Y-49659D01*
X51685Y-49598D01*
X51638Y-49551D01*
X51576Y-49525D01*
X51510Y-49525D01*
X51448Y-49550D01*
X51403Y-49595D01*
X51401Y-49590D01*
X51354Y-49543D01*
X51293Y-49517D01*
X51226Y-49517D01*
X51165Y-49543D01*
X51118Y-49590D01*
X51092Y-49651D01*
X51092Y-49718D01*
X51117Y-49779D01*
X51164Y-49826D01*
X51226Y-49852D01*
X51292Y-49852D01*
X51354Y-49826D01*
X51399Y-49782D01*
X51401Y-49787D01*
X51448Y-49834D01*
X51509Y-49860D01*
X51576Y-49860D01*
X51637Y-49834D01*
X51685Y-49787D01*
X51710Y-49726D01*
X51710Y-49659D01*
X51710Y-51043D01*
X51686Y-51033D01*
X51620Y-51033D01*
X51572Y-51053D01*
X51419Y-51053D01*
X51372Y-51033D01*
X51305Y-51033D01*
X51257Y-51053D01*
X51112Y-51053D01*
X51112Y-50065D01*
X51086Y-50003D01*
X51072Y-49989D01*
X51072Y-49671D01*
X51047Y-49610D01*
X51000Y-49562D01*
X50938Y-49537D01*
X50872Y-49537D01*
X50810Y-49562D01*
X50763Y-49609D01*
X50738Y-49671D01*
X50738Y-49737D01*
X50763Y-49799D01*
X50810Y-49846D01*
X50872Y-49872D01*
X50938Y-49872D01*
X51000Y-49846D01*
X51047Y-49799D01*
X51072Y-49738D01*
X51072Y-49671D01*
X51072Y-49989D01*
X51039Y-49956D01*
X50978Y-49931D01*
X50911Y-49931D01*
X50850Y-49956D01*
X50803Y-50003D01*
X50777Y-50064D01*
X50777Y-50131D01*
X50802Y-50193D01*
X50849Y-50240D01*
X50911Y-50265D01*
X50978Y-50265D01*
X51039Y-50240D01*
X51086Y-50193D01*
X51112Y-50131D01*
X51112Y-50065D01*
X51112Y-51053D01*
X51104Y-51053D01*
X51057Y-51033D01*
X50990Y-51033D01*
X50942Y-51053D01*
X50789Y-51053D01*
X50742Y-51033D01*
X50675Y-51033D01*
X50627Y-51053D01*
X50541Y-51053D01*
X50541Y-50675D01*
X50521Y-50627D01*
X50521Y-50065D01*
X50496Y-50003D01*
X50449Y-49956D01*
X50387Y-49931D01*
X50321Y-49931D01*
X50265Y-49953D01*
X50265Y-49435D01*
X50240Y-49373D01*
X50193Y-49326D01*
X50131Y-49301D01*
X50065Y-49301D01*
X50003Y-49326D01*
X49956Y-49373D01*
X49931Y-49435D01*
X49931Y-49501D01*
X49956Y-49563D01*
X50003Y-49610D01*
X50064Y-49635D01*
X50131Y-49635D01*
X50193Y-49610D01*
X50240Y-49563D01*
X50265Y-49501D01*
X50265Y-49435D01*
X50265Y-49953D01*
X50259Y-49956D01*
X50212Y-50003D01*
X50187Y-50064D01*
X50186Y-50131D01*
X50212Y-50193D01*
X50259Y-50240D01*
X50320Y-50265D01*
X50387Y-50265D01*
X50448Y-50240D01*
X50496Y-50193D01*
X50521Y-50131D01*
X50521Y-50065D01*
X50521Y-50627D01*
X50515Y-50614D01*
X50468Y-50566D01*
X50407Y-50541D01*
X50340Y-50541D01*
X50279Y-50566D01*
X50265Y-50580D01*
X50265Y-50419D01*
X50240Y-50358D01*
X50193Y-50310D01*
X50131Y-50285D01*
X50065Y-50285D01*
X50003Y-50310D01*
X49956Y-50357D01*
X49931Y-50419D01*
X49931Y-50485D01*
X49956Y-50547D01*
X50003Y-50594D01*
X50064Y-50620D01*
X50131Y-50620D01*
X50193Y-50594D01*
X50240Y-50547D01*
X50265Y-50486D01*
X50265Y-50419D01*
X50265Y-50580D01*
X50232Y-50613D01*
X50206Y-50675D01*
X50206Y-50741D01*
X50232Y-50803D01*
X50279Y-50850D01*
X50340Y-50875D01*
X50407Y-50876D01*
X50468Y-50850D01*
X50515Y-50803D01*
X50541Y-50742D01*
X50541Y-50675D01*
X50541Y-51053D01*
X50474Y-51053D01*
X50427Y-51033D01*
X50360Y-51033D01*
X50312Y-51053D01*
X50159Y-51053D01*
X50112Y-51033D01*
X50045Y-51033D01*
X49997Y-51053D01*
X49773Y-51053D01*
X49773Y-50458D01*
X49748Y-50397D01*
X49701Y-50350D01*
X49639Y-50324D01*
X49573Y-50324D01*
X49511Y-50350D01*
X49464Y-50397D01*
X49439Y-50458D01*
X49438Y-50525D01*
X49464Y-50586D01*
X49511Y-50633D01*
X49572Y-50659D01*
X49639Y-50659D01*
X49700Y-50634D01*
X49748Y-50587D01*
X49773Y-50525D01*
X49773Y-50458D01*
X49773Y-51053D01*
X49647Y-51053D01*
X49600Y-51033D01*
X49533Y-51033D01*
X49486Y-51053D01*
X48789Y-51053D01*
X48803Y-51039D01*
X48828Y-50978D01*
X48828Y-50911D01*
X48803Y-50850D01*
X48756Y-50803D01*
X48694Y-50777D01*
X48628Y-50777D01*
X48566Y-50802D01*
X48519Y-50849D01*
X48494Y-50911D01*
X48494Y-50978D01*
X48519Y-51039D01*
X48533Y-51053D01*
X48220Y-51053D01*
X48205Y-51037D01*
X48197Y-51018D01*
X48234Y-51033D01*
X48300Y-51033D01*
X48362Y-51008D01*
X48409Y-50961D01*
X48435Y-50899D01*
X48435Y-50833D01*
X48409Y-50771D01*
X48362Y-50724D01*
X48301Y-50698D01*
X48234Y-50698D01*
X48173Y-50724D01*
X48125Y-50771D01*
X48110Y-50809D01*
X48094Y-50771D01*
X48047Y-50724D01*
X47986Y-50698D01*
X47919Y-50698D01*
X47882Y-50714D01*
X47706Y-50538D01*
X47706Y-49986D01*
X47681Y-49925D01*
X47634Y-49877D01*
X47572Y-49852D01*
X47506Y-49852D01*
X47444Y-49877D01*
X47397Y-49924D01*
X47372Y-49986D01*
X47372Y-50052D01*
X47397Y-50114D01*
X47444Y-50161D01*
X47505Y-50186D01*
X47572Y-50187D01*
X47634Y-50161D01*
X47681Y-50114D01*
X47706Y-50053D01*
X47706Y-49986D01*
X47706Y-50538D01*
X47374Y-50206D01*
X46171Y-50206D01*
X46171Y-49261D01*
X48659Y-49261D01*
X48645Y-49267D01*
X48598Y-49314D01*
X48572Y-49376D01*
X48572Y-49442D01*
X48598Y-49504D01*
X48601Y-49507D01*
X48598Y-49511D01*
X48572Y-49572D01*
X48572Y-49639D01*
X48598Y-49700D01*
X48645Y-49748D01*
X48706Y-49773D01*
X48773Y-49773D01*
X48833Y-49748D01*
X48854Y-49799D01*
X48901Y-49846D01*
X48962Y-49872D01*
X49005Y-49872D01*
X49005Y-49934D01*
X49031Y-49996D01*
X49078Y-50043D01*
X49139Y-50068D01*
X49183Y-50068D01*
X49183Y-50131D01*
X49208Y-50193D01*
X49255Y-50240D01*
X49316Y-50265D01*
X49383Y-50265D01*
X49445Y-50240D01*
X49492Y-50193D01*
X49517Y-50131D01*
X49517Y-50065D01*
X49492Y-50003D01*
X49445Y-49956D01*
X49383Y-49931D01*
X49340Y-49931D01*
X49340Y-49868D01*
X49315Y-49806D01*
X49268Y-49759D01*
X49206Y-49734D01*
X49163Y-49734D01*
X49163Y-49671D01*
X49137Y-49610D01*
X49090Y-49562D01*
X49029Y-49537D01*
X48962Y-49537D01*
X48902Y-49562D01*
X48882Y-49511D01*
X48878Y-49507D01*
X48881Y-49504D01*
X48907Y-49442D01*
X48907Y-49376D01*
X48882Y-49314D01*
X48835Y-49267D01*
X48820Y-49261D01*
X49525Y-49261D01*
X49511Y-49267D01*
X49464Y-49314D01*
X49439Y-49376D01*
X49438Y-49442D01*
X49464Y-49504D01*
X49511Y-49551D01*
X49572Y-49576D01*
X49639Y-49576D01*
X49700Y-49551D01*
X49748Y-49504D01*
X49773Y-49442D01*
X49773Y-49376D01*
X49748Y-49314D01*
X49701Y-49267D01*
X49687Y-49261D01*
X50744Y-49261D01*
X50738Y-49277D01*
X50738Y-49344D01*
X50763Y-49405D01*
X50810Y-49452D01*
X50872Y-49478D01*
X50938Y-49478D01*
X51000Y-49452D01*
X51047Y-49405D01*
X51072Y-49344D01*
X51072Y-49277D01*
X51066Y-49261D01*
X52113Y-49261D01*
X53349Y-50521D01*
X53310Y-50537D01*
X53263Y-50584D01*
X53238Y-50645D01*
X53238Y-50712D01*
X53263Y-50773D01*
X53310Y-50820D01*
X53372Y-50846D01*
X53438Y-50846D01*
X53500Y-50821D01*
X53547Y-50774D01*
X53562Y-50737D01*
X53727Y-50905D01*
X53677Y-50905D01*
X53615Y-50930D01*
X53568Y-50977D01*
X53553Y-51015D01*
X53537Y-50978D01*
X53490Y-50931D01*
X53429Y-50905D01*
X53362Y-50905D01*
X53301Y-50930D01*
X53253Y-50977D01*
X53228Y-51039D01*
X53228Y-51105D01*
X53253Y-51167D01*
X53300Y-51214D01*
X53338Y-51230D01*
X53301Y-51245D01*
X53253Y-51292D01*
X53228Y-51354D01*
X53228Y-51420D01*
X53253Y-51482D01*
X53300Y-51529D01*
X53362Y-51555D01*
X53428Y-51555D01*
X53490Y-51529D01*
X53537Y-51482D01*
X53562Y-51421D01*
X53563Y-51354D01*
X53537Y-51293D01*
X53490Y-51246D01*
X53452Y-51230D01*
X53490Y-51214D01*
X53537Y-51167D01*
X53553Y-51129D01*
X53568Y-51167D01*
X53615Y-51214D01*
X53677Y-51240D01*
X53743Y-51240D01*
X53805Y-51214D01*
X53852Y-51167D01*
X53868Y-51129D01*
X53883Y-51167D01*
X53930Y-51214D01*
X53968Y-51230D01*
X53930Y-51245D01*
X53883Y-51292D01*
X53858Y-51354D01*
X53858Y-51420D01*
X53883Y-51482D01*
X53930Y-51529D01*
X53992Y-51555D01*
X54058Y-51555D01*
X54120Y-51529D01*
X54167Y-51482D01*
X54192Y-51421D01*
X54192Y-51379D01*
X54239Y-51427D01*
X54490Y-51427D01*
X54513Y-51482D01*
X54560Y-51529D01*
X54622Y-51555D01*
X54688Y-51555D01*
X54750Y-51529D01*
X54797Y-51482D01*
X54812Y-51444D01*
X54828Y-51482D01*
X54875Y-51529D01*
X54937Y-51555D01*
X55003Y-51555D01*
X55065Y-51529D01*
X55112Y-51482D01*
X55127Y-51444D01*
X55143Y-51482D01*
X55190Y-51529D01*
X55252Y-51555D01*
X55318Y-51555D01*
X55380Y-51529D01*
X55427Y-51482D01*
X55442Y-51444D01*
X55458Y-51482D01*
X55505Y-51529D01*
X55566Y-51555D01*
X55633Y-51555D01*
X55695Y-51529D01*
X55742Y-51482D01*
X55757Y-51444D01*
X55773Y-51482D01*
X55820Y-51529D01*
X55881Y-51555D01*
X55948Y-51555D01*
X56010Y-51529D01*
X56057Y-51482D01*
X56072Y-51444D01*
X56088Y-51482D01*
X56135Y-51529D01*
X56196Y-51555D01*
X56263Y-51555D01*
X56324Y-51529D01*
X56372Y-51482D01*
X56387Y-51444D01*
X56403Y-51482D01*
X56450Y-51529D01*
X56511Y-51555D01*
X56578Y-51555D01*
X56639Y-51529D01*
X56687Y-51482D01*
X56702Y-51444D01*
X56718Y-51482D01*
X56765Y-51529D01*
X56826Y-51555D01*
X56893Y-51555D01*
X56954Y-51529D01*
X57002Y-51482D01*
X57017Y-51444D01*
X57033Y-51482D01*
X57080Y-51529D01*
X57141Y-51555D01*
X57208Y-51555D01*
X57269Y-51529D01*
X57316Y-51482D01*
X57332Y-51444D01*
X57348Y-51482D01*
X57395Y-51529D01*
X57456Y-51555D01*
X57523Y-51555D01*
X57584Y-51529D01*
X57631Y-51482D01*
X57654Y-51427D01*
X58690Y-51427D01*
X58690Y-51489D01*
X58716Y-51551D01*
X58763Y-51598D01*
X58824Y-51623D01*
X58891Y-51624D01*
X58952Y-51598D01*
X59000Y-51551D01*
X59025Y-51490D01*
X59025Y-51427D01*
X59350Y-51427D01*
X59383Y-51427D01*
X59383Y-51427D01*
X59744Y-51427D01*
X59777Y-51427D01*
X59777Y-51427D01*
X60137Y-51427D01*
X60170Y-51427D01*
X60171Y-51427D01*
X60531Y-51427D01*
X60564Y-51427D01*
X60564Y-51427D01*
X60925Y-51427D01*
X60958Y-51427D01*
X60958Y-51427D01*
X61318Y-51427D01*
X61352Y-51427D01*
X61352Y-51427D01*
X61712Y-51427D01*
X61745Y-51427D01*
X61745Y-51427D01*
X62893Y-51427D01*
X62926Y-51427D01*
X62926Y-51427D01*
X63061Y-51427D01*
X63061Y-52598D01*
X63061Y-53061D01*
G36*
X57588Y-55718D02*
X56407Y-55718D01*
X56421Y-55705D01*
X56446Y-55643D01*
X56446Y-55577D01*
X56421Y-55515D01*
X56374Y-55468D01*
X56312Y-55442D01*
X56246Y-55442D01*
X56184Y-55468D01*
X56161Y-55491D01*
X56138Y-55468D01*
X56076Y-55442D01*
X56010Y-55442D01*
X55948Y-55468D01*
X55901Y-55515D01*
X55876Y-55576D01*
X55875Y-55643D01*
X55901Y-55704D01*
X55914Y-55718D01*
X55625Y-55718D01*
X55639Y-55683D01*
X55639Y-55616D01*
X55614Y-55554D01*
X55567Y-55507D01*
X55505Y-55482D01*
X55439Y-55482D01*
X55377Y-55507D01*
X55330Y-55554D01*
X55305Y-55616D01*
X55305Y-55682D01*
X55319Y-55718D01*
X55147Y-55718D01*
X55147Y-53415D01*
X56781Y-53415D01*
X56781Y-54736D01*
X57389Y-55344D01*
X57588Y-55344D01*
X57588Y-55590D01*
X57588Y-55718D01*
X57588Y-55718D01*
G37*
X57588Y-55718D02*
X56407Y-55718D01*
X56421Y-55705D01*
X56446Y-55643D01*
X56446Y-55577D01*
X56421Y-55515D01*
X56374Y-55468D01*
X56312Y-55442D01*
X56246Y-55442D01*
X56184Y-55468D01*
X56161Y-55491D01*
X56138Y-55468D01*
X56076Y-55442D01*
X56010Y-55442D01*
X55948Y-55468D01*
X55901Y-55515D01*
X55876Y-55576D01*
X55875Y-55643D01*
X55901Y-55704D01*
X55914Y-55718D01*
X55625Y-55718D01*
X55639Y-55683D01*
X55639Y-55616D01*
X55614Y-55554D01*
X55567Y-55507D01*
X55505Y-55482D01*
X55439Y-55482D01*
X55377Y-55507D01*
X55330Y-55554D01*
X55305Y-55616D01*
X55305Y-55682D01*
X55319Y-55718D01*
X55147Y-55718D01*
X55147Y-53415D01*
X56781Y-53415D01*
X56781Y-54736D01*
X57389Y-55344D01*
X57588Y-55344D01*
X57588Y-55590D01*
X57588Y-55718D01*
G36*
X66545Y-51090D02*
X66190Y-51444D01*
X66190Y-55853D01*
X66131Y-55912D01*
X66131Y-50931D01*
X66106Y-50869D01*
X66059Y-50822D01*
X65997Y-50797D01*
X65931Y-50797D01*
X65869Y-50822D01*
X65822Y-50869D01*
X65797Y-50931D01*
X65797Y-50997D01*
X65822Y-51059D01*
X65869Y-51106D01*
X65931Y-51131D01*
X65997Y-51131D01*
X66059Y-51106D01*
X66106Y-51059D01*
X66131Y-50997D01*
X66131Y-50931D01*
X66131Y-55912D01*
X66081Y-55963D01*
X65600Y-56444D01*
X65600Y-55655D01*
X65575Y-55594D01*
X65541Y-55561D01*
X65574Y-55527D01*
X65600Y-55466D01*
X65600Y-55399D01*
X65575Y-55338D01*
X65527Y-55291D01*
X65507Y-55282D01*
X65521Y-55249D01*
X65521Y-55183D01*
X65496Y-55121D01*
X65449Y-55074D01*
X65387Y-55049D01*
X65321Y-55049D01*
X65259Y-55074D01*
X65212Y-55121D01*
X65187Y-55183D01*
X65186Y-55249D01*
X65212Y-55311D01*
X65259Y-55358D01*
X65279Y-55366D01*
X65265Y-55399D01*
X65265Y-55466D01*
X65291Y-55527D01*
X65324Y-55561D01*
X65291Y-55594D01*
X65265Y-55655D01*
X65265Y-55722D01*
X65291Y-55783D01*
X65338Y-55830D01*
X65399Y-55856D01*
X65466Y-55856D01*
X65527Y-55830D01*
X65574Y-55783D01*
X65600Y-55722D01*
X65600Y-55655D01*
X65600Y-56444D01*
X65578Y-56466D01*
X64635Y-56466D01*
X64635Y-55242D01*
X64610Y-55180D01*
X64563Y-55133D01*
X64501Y-55108D01*
X64435Y-55108D01*
X64373Y-55133D01*
X64326Y-55180D01*
X64301Y-55242D01*
X64301Y-55308D01*
X64326Y-55370D01*
X64373Y-55417D01*
X64435Y-55442D01*
X64501Y-55442D01*
X64563Y-55417D01*
X64610Y-55370D01*
X64635Y-55309D01*
X64635Y-55242D01*
X64635Y-56466D01*
X64222Y-56466D01*
X64202Y-56446D01*
X64202Y-55616D01*
X64177Y-55554D01*
X64130Y-55507D01*
X64068Y-55482D01*
X64005Y-55482D01*
X64005Y-55262D01*
X63980Y-55200D01*
X63933Y-55153D01*
X63872Y-55127D01*
X63805Y-55127D01*
X63743Y-55153D01*
X63696Y-55200D01*
X63671Y-55261D01*
X63671Y-55328D01*
X63696Y-55389D01*
X63743Y-55437D01*
X63805Y-55462D01*
X63871Y-55462D01*
X63933Y-55437D01*
X63980Y-55390D01*
X64005Y-55328D01*
X64005Y-55262D01*
X64005Y-55482D01*
X64002Y-55482D01*
X63940Y-55507D01*
X63893Y-55554D01*
X63868Y-55616D01*
X63868Y-55682D01*
X63893Y-55744D01*
X63940Y-55791D01*
X64002Y-55816D01*
X64068Y-55816D01*
X64130Y-55791D01*
X64177Y-55744D01*
X64202Y-55683D01*
X64202Y-55616D01*
X64202Y-56446D01*
X64189Y-56433D01*
X64127Y-56407D01*
X64061Y-56407D01*
X63999Y-56432D01*
X63966Y-56466D01*
X63848Y-56466D01*
X63848Y-55616D01*
X63823Y-55554D01*
X63776Y-55507D01*
X63714Y-55482D01*
X63651Y-55482D01*
X63651Y-55262D01*
X63626Y-55200D01*
X63579Y-55153D01*
X63517Y-55127D01*
X63451Y-55127D01*
X63389Y-55153D01*
X63342Y-55200D01*
X63316Y-55261D01*
X63316Y-55328D01*
X63342Y-55389D01*
X63389Y-55437D01*
X63450Y-55462D01*
X63517Y-55462D01*
X63578Y-55437D01*
X63626Y-55390D01*
X63651Y-55328D01*
X63651Y-55262D01*
X63651Y-55482D01*
X63647Y-55482D01*
X63586Y-55507D01*
X63539Y-55554D01*
X63523Y-55592D01*
X63508Y-55554D01*
X63461Y-55507D01*
X63399Y-55482D01*
X63333Y-55482D01*
X63271Y-55507D01*
X63224Y-55554D01*
X63198Y-55616D01*
X63198Y-55682D01*
X63224Y-55744D01*
X63271Y-55791D01*
X63332Y-55816D01*
X63399Y-55816D01*
X63460Y-55791D01*
X63507Y-55744D01*
X63523Y-55706D01*
X63539Y-55744D01*
X63586Y-55791D01*
X63647Y-55816D01*
X63714Y-55816D01*
X63775Y-55791D01*
X63822Y-55744D01*
X63848Y-55683D01*
X63848Y-55616D01*
X63848Y-56466D01*
X63380Y-56466D01*
X62986Y-55954D01*
X62864Y-55954D01*
X62864Y-55262D01*
X62838Y-55200D01*
X62791Y-55153D01*
X62730Y-55127D01*
X62663Y-55127D01*
X62602Y-55153D01*
X62555Y-55200D01*
X62529Y-55261D01*
X62529Y-55328D01*
X62554Y-55389D01*
X62601Y-55437D01*
X62663Y-55462D01*
X62729Y-55462D01*
X62791Y-55437D01*
X62838Y-55390D01*
X62864Y-55328D01*
X62864Y-55262D01*
X62864Y-55954D01*
X62470Y-55954D01*
X62470Y-55262D01*
X62445Y-55200D01*
X62398Y-55153D01*
X62336Y-55127D01*
X62270Y-55127D01*
X62208Y-55153D01*
X62161Y-55200D01*
X62135Y-55261D01*
X62135Y-55328D01*
X62161Y-55389D01*
X62208Y-55437D01*
X62269Y-55462D01*
X62336Y-55462D01*
X62397Y-55437D01*
X62444Y-55390D01*
X62470Y-55328D01*
X62470Y-55262D01*
X62470Y-55954D01*
X62076Y-55954D01*
X62076Y-55262D01*
X62051Y-55200D01*
X62004Y-55153D01*
X61942Y-55127D01*
X61876Y-55127D01*
X61814Y-55153D01*
X61767Y-55200D01*
X61742Y-55261D01*
X61742Y-55328D01*
X61767Y-55389D01*
X61814Y-55437D01*
X61876Y-55462D01*
X61942Y-55462D01*
X62004Y-55437D01*
X62051Y-55390D01*
X62076Y-55328D01*
X62076Y-55262D01*
X62076Y-55954D01*
X61683Y-55954D01*
X61683Y-55262D01*
X61657Y-55200D01*
X61610Y-55153D01*
X61549Y-55127D01*
X61482Y-55127D01*
X61421Y-55153D01*
X61373Y-55200D01*
X61348Y-55261D01*
X61348Y-55328D01*
X61373Y-55389D01*
X61420Y-55437D01*
X61482Y-55462D01*
X61548Y-55462D01*
X61610Y-55437D01*
X61657Y-55390D01*
X61683Y-55328D01*
X61683Y-55262D01*
X61683Y-55954D01*
X61289Y-55954D01*
X61289Y-55262D01*
X61263Y-55200D01*
X61216Y-55153D01*
X61155Y-55127D01*
X61092Y-55127D01*
X61092Y-54770D01*
X61067Y-54708D01*
X61020Y-54661D01*
X60958Y-54635D01*
X60892Y-54635D01*
X60830Y-54661D01*
X60783Y-54708D01*
X60757Y-54769D01*
X60757Y-54836D01*
X60783Y-54897D01*
X60830Y-54944D01*
X60891Y-54970D01*
X60958Y-54970D01*
X61019Y-54945D01*
X61066Y-54898D01*
X61092Y-54836D01*
X61092Y-54770D01*
X61092Y-55127D01*
X61088Y-55127D01*
X61027Y-55153D01*
X60980Y-55200D01*
X60954Y-55261D01*
X60954Y-55328D01*
X60980Y-55389D01*
X61027Y-55437D01*
X61088Y-55462D01*
X61155Y-55462D01*
X61216Y-55437D01*
X61263Y-55390D01*
X61289Y-55328D01*
X61289Y-55262D01*
X61289Y-55954D01*
X60246Y-55954D01*
X60246Y-55456D01*
X60261Y-55462D01*
X60328Y-55462D01*
X60389Y-55437D01*
X60413Y-55413D01*
X60436Y-55437D01*
X60498Y-55462D01*
X60564Y-55462D01*
X60626Y-55437D01*
X60673Y-55390D01*
X60698Y-55328D01*
X60698Y-55262D01*
X60673Y-55200D01*
X60626Y-55153D01*
X60564Y-55127D01*
X60498Y-55127D01*
X60436Y-55153D01*
X60413Y-55176D01*
X60390Y-55153D01*
X60328Y-55127D01*
X60262Y-55127D01*
X60246Y-55134D01*
X60246Y-54931D01*
X60279Y-54898D01*
X60305Y-54836D01*
X60305Y-54770D01*
X60279Y-54708D01*
X60246Y-54674D01*
X60246Y-54183D01*
X60531Y-54183D01*
X60564Y-54183D01*
X60564Y-54183D01*
X60925Y-54183D01*
X60958Y-54183D01*
X60958Y-54183D01*
X61210Y-54183D01*
X61210Y-54281D01*
X61177Y-54314D01*
X61151Y-54376D01*
X61151Y-54442D01*
X61176Y-54504D01*
X61210Y-54537D01*
X61210Y-54674D01*
X61177Y-54708D01*
X61151Y-54769D01*
X61151Y-54836D01*
X61176Y-54897D01*
X61223Y-54944D01*
X61285Y-54970D01*
X61352Y-54970D01*
X61413Y-54945D01*
X61447Y-54911D01*
X61584Y-54911D01*
X61617Y-54944D01*
X61679Y-54970D01*
X61745Y-54970D01*
X61807Y-54945D01*
X61840Y-54911D01*
X61977Y-54911D01*
X62011Y-54944D01*
X62072Y-54970D01*
X62139Y-54970D01*
X62200Y-54945D01*
X62234Y-54911D01*
X62371Y-54911D01*
X62405Y-54944D01*
X62466Y-54970D01*
X62533Y-54970D01*
X62594Y-54945D01*
X62628Y-54911D01*
X62765Y-54911D01*
X62798Y-54944D01*
X62860Y-54970D01*
X62926Y-54970D01*
X62988Y-54945D01*
X63022Y-54911D01*
X63159Y-54911D01*
X63192Y-54944D01*
X63253Y-54970D01*
X63320Y-54970D01*
X63382Y-54945D01*
X63415Y-54911D01*
X63552Y-54911D01*
X63586Y-54944D01*
X63647Y-54970D01*
X63714Y-54970D01*
X63775Y-54945D01*
X63809Y-54911D01*
X63946Y-54911D01*
X63979Y-54944D01*
X64041Y-54970D01*
X64107Y-54970D01*
X64169Y-54945D01*
X64203Y-54911D01*
X64340Y-54911D01*
X64373Y-54944D01*
X64435Y-54970D01*
X64501Y-54970D01*
X64563Y-54945D01*
X64596Y-54911D01*
X64733Y-54911D01*
X64767Y-54944D01*
X64828Y-54970D01*
X64895Y-54970D01*
X64956Y-54945D01*
X64990Y-54911D01*
X65225Y-54911D01*
X65259Y-54944D01*
X65320Y-54970D01*
X65387Y-54970D01*
X65448Y-54945D01*
X65482Y-54911D01*
X65659Y-54911D01*
X65659Y-53671D01*
X65692Y-53638D01*
X65718Y-53576D01*
X65718Y-53510D01*
X65693Y-53448D01*
X65659Y-53414D01*
X65659Y-50620D01*
X66545Y-50620D01*
X66545Y-51090D01*
X66545Y-51090D01*
G37*
X66545Y-51090D02*
X66190Y-51444D01*
X66190Y-55853D01*
X66131Y-55912D01*
X66131Y-50931D01*
X66106Y-50869D01*
X66059Y-50822D01*
X65997Y-50797D01*
X65931Y-50797D01*
X65869Y-50822D01*
X65822Y-50869D01*
X65797Y-50931D01*
X65797Y-50997D01*
X65822Y-51059D01*
X65869Y-51106D01*
X65931Y-51131D01*
X65997Y-51131D01*
X66059Y-51106D01*
X66106Y-51059D01*
X66131Y-50997D01*
X66131Y-50931D01*
X66131Y-55912D01*
X66081Y-55963D01*
X65600Y-56444D01*
X65600Y-55655D01*
X65575Y-55594D01*
X65541Y-55561D01*
X65574Y-55527D01*
X65600Y-55466D01*
X65600Y-55399D01*
X65575Y-55338D01*
X65527Y-55291D01*
X65507Y-55282D01*
X65521Y-55249D01*
X65521Y-55183D01*
X65496Y-55121D01*
X65449Y-55074D01*
X65387Y-55049D01*
X65321Y-55049D01*
X65259Y-55074D01*
X65212Y-55121D01*
X65187Y-55183D01*
X65186Y-55249D01*
X65212Y-55311D01*
X65259Y-55358D01*
X65279Y-55366D01*
X65265Y-55399D01*
X65265Y-55466D01*
X65291Y-55527D01*
X65324Y-55561D01*
X65291Y-55594D01*
X65265Y-55655D01*
X65265Y-55722D01*
X65291Y-55783D01*
X65338Y-55830D01*
X65399Y-55856D01*
X65466Y-55856D01*
X65527Y-55830D01*
X65574Y-55783D01*
X65600Y-55722D01*
X65600Y-55655D01*
X65600Y-56444D01*
X65578Y-56466D01*
X64635Y-56466D01*
X64635Y-55242D01*
X64610Y-55180D01*
X64563Y-55133D01*
X64501Y-55108D01*
X64435Y-55108D01*
X64373Y-55133D01*
X64326Y-55180D01*
X64301Y-55242D01*
X64301Y-55308D01*
X64326Y-55370D01*
X64373Y-55417D01*
X64435Y-55442D01*
X64501Y-55442D01*
X64563Y-55417D01*
X64610Y-55370D01*
X64635Y-55309D01*
X64635Y-55242D01*
X64635Y-56466D01*
X64222Y-56466D01*
X64202Y-56446D01*
X64202Y-55616D01*
X64177Y-55554D01*
X64130Y-55507D01*
X64068Y-55482D01*
X64005Y-55482D01*
X64005Y-55262D01*
X63980Y-55200D01*
X63933Y-55153D01*
X63872Y-55127D01*
X63805Y-55127D01*
X63743Y-55153D01*
X63696Y-55200D01*
X63671Y-55261D01*
X63671Y-55328D01*
X63696Y-55389D01*
X63743Y-55437D01*
X63805Y-55462D01*
X63871Y-55462D01*
X63933Y-55437D01*
X63980Y-55390D01*
X64005Y-55328D01*
X64005Y-55262D01*
X64005Y-55482D01*
X64002Y-55482D01*
X63940Y-55507D01*
X63893Y-55554D01*
X63868Y-55616D01*
X63868Y-55682D01*
X63893Y-55744D01*
X63940Y-55791D01*
X64002Y-55816D01*
X64068Y-55816D01*
X64130Y-55791D01*
X64177Y-55744D01*
X64202Y-55683D01*
X64202Y-55616D01*
X64202Y-56446D01*
X64189Y-56433D01*
X64127Y-56407D01*
X64061Y-56407D01*
X63999Y-56432D01*
X63966Y-56466D01*
X63848Y-56466D01*
X63848Y-55616D01*
X63823Y-55554D01*
X63776Y-55507D01*
X63714Y-55482D01*
X63651Y-55482D01*
X63651Y-55262D01*
X63626Y-55200D01*
X63579Y-55153D01*
X63517Y-55127D01*
X63451Y-55127D01*
X63389Y-55153D01*
X63342Y-55200D01*
X63316Y-55261D01*
X63316Y-55328D01*
X63342Y-55389D01*
X63389Y-55437D01*
X63450Y-55462D01*
X63517Y-55462D01*
X63578Y-55437D01*
X63626Y-55390D01*
X63651Y-55328D01*
X63651Y-55262D01*
X63651Y-55482D01*
X63647Y-55482D01*
X63586Y-55507D01*
X63539Y-55554D01*
X63523Y-55592D01*
X63508Y-55554D01*
X63461Y-55507D01*
X63399Y-55482D01*
X63333Y-55482D01*
X63271Y-55507D01*
X63224Y-55554D01*
X63198Y-55616D01*
X63198Y-55682D01*
X63224Y-55744D01*
X63271Y-55791D01*
X63332Y-55816D01*
X63399Y-55816D01*
X63460Y-55791D01*
X63507Y-55744D01*
X63523Y-55706D01*
X63539Y-55744D01*
X63586Y-55791D01*
X63647Y-55816D01*
X63714Y-55816D01*
X63775Y-55791D01*
X63822Y-55744D01*
X63848Y-55683D01*
X63848Y-55616D01*
X63848Y-56466D01*
X63380Y-56466D01*
X62986Y-55954D01*
X62864Y-55954D01*
X62864Y-55262D01*
X62838Y-55200D01*
X62791Y-55153D01*
X62730Y-55127D01*
X62663Y-55127D01*
X62602Y-55153D01*
X62555Y-55200D01*
X62529Y-55261D01*
X62529Y-55328D01*
X62554Y-55389D01*
X62601Y-55437D01*
X62663Y-55462D01*
X62729Y-55462D01*
X62791Y-55437D01*
X62838Y-55390D01*
X62864Y-55328D01*
X62864Y-55262D01*
X62864Y-55954D01*
X62470Y-55954D01*
X62470Y-55262D01*
X62445Y-55200D01*
X62398Y-55153D01*
X62336Y-55127D01*
X62270Y-55127D01*
X62208Y-55153D01*
X62161Y-55200D01*
X62135Y-55261D01*
X62135Y-55328D01*
X62161Y-55389D01*
X62208Y-55437D01*
X62269Y-55462D01*
X62336Y-55462D01*
X62397Y-55437D01*
X62444Y-55390D01*
X62470Y-55328D01*
X62470Y-55262D01*
X62470Y-55954D01*
X62076Y-55954D01*
X62076Y-55262D01*
X62051Y-55200D01*
X62004Y-55153D01*
X61942Y-55127D01*
X61876Y-55127D01*
X61814Y-55153D01*
X61767Y-55200D01*
X61742Y-55261D01*
X61742Y-55328D01*
X61767Y-55389D01*
X61814Y-55437D01*
X61876Y-55462D01*
X61942Y-55462D01*
X62004Y-55437D01*
X62051Y-55390D01*
X62076Y-55328D01*
X62076Y-55262D01*
X62076Y-55954D01*
X61683Y-55954D01*
X61683Y-55262D01*
X61657Y-55200D01*
X61610Y-55153D01*
X61549Y-55127D01*
X61482Y-55127D01*
X61421Y-55153D01*
X61373Y-55200D01*
X61348Y-55261D01*
X61348Y-55328D01*
X61373Y-55389D01*
X61420Y-55437D01*
X61482Y-55462D01*
X61548Y-55462D01*
X61610Y-55437D01*
X61657Y-55390D01*
X61683Y-55328D01*
X61683Y-55262D01*
X61683Y-55954D01*
X61289Y-55954D01*
X61289Y-55262D01*
X61263Y-55200D01*
X61216Y-55153D01*
X61155Y-55127D01*
X61092Y-55127D01*
X61092Y-54770D01*
X61067Y-54708D01*
X61020Y-54661D01*
X60958Y-54635D01*
X60892Y-54635D01*
X60830Y-54661D01*
X60783Y-54708D01*
X60757Y-54769D01*
X60757Y-54836D01*
X60783Y-54897D01*
X60830Y-54944D01*
X60891Y-54970D01*
X60958Y-54970D01*
X61019Y-54945D01*
X61066Y-54898D01*
X61092Y-54836D01*
X61092Y-54770D01*
X61092Y-55127D01*
X61088Y-55127D01*
X61027Y-55153D01*
X60980Y-55200D01*
X60954Y-55261D01*
X60954Y-55328D01*
X60980Y-55389D01*
X61027Y-55437D01*
X61088Y-55462D01*
X61155Y-55462D01*
X61216Y-55437D01*
X61263Y-55390D01*
X61289Y-55328D01*
X61289Y-55262D01*
X61289Y-55954D01*
X60246Y-55954D01*
X60246Y-55456D01*
X60261Y-55462D01*
X60328Y-55462D01*
X60389Y-55437D01*
X60413Y-55413D01*
X60436Y-55437D01*
X60498Y-55462D01*
X60564Y-55462D01*
X60626Y-55437D01*
X60673Y-55390D01*
X60698Y-55328D01*
X60698Y-55262D01*
X60673Y-55200D01*
X60626Y-55153D01*
X60564Y-55127D01*
X60498Y-55127D01*
X60436Y-55153D01*
X60413Y-55176D01*
X60390Y-55153D01*
X60328Y-55127D01*
X60262Y-55127D01*
X60246Y-55134D01*
X60246Y-54931D01*
X60279Y-54898D01*
X60305Y-54836D01*
X60305Y-54770D01*
X60279Y-54708D01*
X60246Y-54674D01*
X60246Y-54183D01*
X60531Y-54183D01*
X60564Y-54183D01*
X60564Y-54183D01*
X60925Y-54183D01*
X60958Y-54183D01*
X60958Y-54183D01*
X61210Y-54183D01*
X61210Y-54281D01*
X61177Y-54314D01*
X61151Y-54376D01*
X61151Y-54442D01*
X61176Y-54504D01*
X61210Y-54537D01*
X61210Y-54674D01*
X61177Y-54708D01*
X61151Y-54769D01*
X61151Y-54836D01*
X61176Y-54897D01*
X61223Y-54944D01*
X61285Y-54970D01*
X61352Y-54970D01*
X61413Y-54945D01*
X61447Y-54911D01*
X61584Y-54911D01*
X61617Y-54944D01*
X61679Y-54970D01*
X61745Y-54970D01*
X61807Y-54945D01*
X61840Y-54911D01*
X61977Y-54911D01*
X62011Y-54944D01*
X62072Y-54970D01*
X62139Y-54970D01*
X62200Y-54945D01*
X62234Y-54911D01*
X62371Y-54911D01*
X62405Y-54944D01*
X62466Y-54970D01*
X62533Y-54970D01*
X62594Y-54945D01*
X62628Y-54911D01*
X62765Y-54911D01*
X62798Y-54944D01*
X62860Y-54970D01*
X62926Y-54970D01*
X62988Y-54945D01*
X63022Y-54911D01*
X63159Y-54911D01*
X63192Y-54944D01*
X63253Y-54970D01*
X63320Y-54970D01*
X63382Y-54945D01*
X63415Y-54911D01*
X63552Y-54911D01*
X63586Y-54944D01*
X63647Y-54970D01*
X63714Y-54970D01*
X63775Y-54945D01*
X63809Y-54911D01*
X63946Y-54911D01*
X63979Y-54944D01*
X64041Y-54970D01*
X64107Y-54970D01*
X64169Y-54945D01*
X64203Y-54911D01*
X64340Y-54911D01*
X64373Y-54944D01*
X64435Y-54970D01*
X64501Y-54970D01*
X64563Y-54945D01*
X64596Y-54911D01*
X64733Y-54911D01*
X64767Y-54944D01*
X64828Y-54970D01*
X64895Y-54970D01*
X64956Y-54945D01*
X64990Y-54911D01*
X65225Y-54911D01*
X65259Y-54944D01*
X65320Y-54970D01*
X65387Y-54970D01*
X65448Y-54945D01*
X65482Y-54911D01*
X65659Y-54911D01*
X65659Y-53671D01*
X65692Y-53638D01*
X65718Y-53576D01*
X65718Y-53510D01*
X65693Y-53448D01*
X65659Y-53414D01*
X65659Y-50620D01*
X66545Y-50620D01*
X66545Y-51090D01*
G36*
X51525Y-59498D02*
X51210Y-59498D01*
X51210Y-59100D01*
X51185Y-59039D01*
X51138Y-58992D01*
X51076Y-58966D01*
X51010Y-58966D01*
X50948Y-58991D01*
X50901Y-59038D01*
X50885Y-59076D01*
X50870Y-59039D01*
X50823Y-58992D01*
X50761Y-58966D01*
X50695Y-58966D01*
X50633Y-58991D01*
X50586Y-59038D01*
X50561Y-59100D01*
X50560Y-59166D01*
X50586Y-59228D01*
X50633Y-59275D01*
X50694Y-59301D01*
X50761Y-59301D01*
X50823Y-59275D01*
X50870Y-59228D01*
X50885Y-59190D01*
X50901Y-59228D01*
X50948Y-59275D01*
X51009Y-59301D01*
X51076Y-59301D01*
X51137Y-59275D01*
X51185Y-59228D01*
X51210Y-59167D01*
X51210Y-59100D01*
X51210Y-59498D01*
X50633Y-59498D01*
X50639Y-59482D01*
X50639Y-59415D01*
X50614Y-59354D01*
X50567Y-59307D01*
X50505Y-59281D01*
X50439Y-59281D01*
X50377Y-59306D01*
X50330Y-59353D01*
X50305Y-59415D01*
X50305Y-59481D01*
X50311Y-59498D01*
X50167Y-59498D01*
X50167Y-58155D01*
X50141Y-58094D01*
X50094Y-58047D01*
X50033Y-58021D01*
X49966Y-58021D01*
X49905Y-58047D01*
X49858Y-58094D01*
X49832Y-58155D01*
X49832Y-58222D01*
X49858Y-58283D01*
X49905Y-58330D01*
X49966Y-58356D01*
X50033Y-58356D01*
X50094Y-58330D01*
X50141Y-58283D01*
X50167Y-58222D01*
X50167Y-58155D01*
X50167Y-59498D01*
X49391Y-59498D01*
X49344Y-59478D01*
X49340Y-59478D01*
X49340Y-59021D01*
X49315Y-58960D01*
X49268Y-58913D01*
X49206Y-58887D01*
X49140Y-58887D01*
X49078Y-58913D01*
X49031Y-58960D01*
X49005Y-59021D01*
X49005Y-59088D01*
X49031Y-59149D01*
X49078Y-59196D01*
X49139Y-59222D01*
X49206Y-59222D01*
X49267Y-59197D01*
X49314Y-59150D01*
X49340Y-59088D01*
X49340Y-59021D01*
X49340Y-59478D01*
X49277Y-59478D01*
X49230Y-59498D01*
X48546Y-59498D01*
X48553Y-59482D01*
X48553Y-59415D01*
X48527Y-59354D01*
X48513Y-59340D01*
X48513Y-59021D01*
X48488Y-58960D01*
X48441Y-58913D01*
X48379Y-58887D01*
X48313Y-58887D01*
X48251Y-58913D01*
X48204Y-58960D01*
X48179Y-59021D01*
X48179Y-59088D01*
X48204Y-59149D01*
X48251Y-59196D01*
X48313Y-59222D01*
X48379Y-59222D01*
X48441Y-59197D01*
X48488Y-59150D01*
X48513Y-59088D01*
X48513Y-59021D01*
X48513Y-59340D01*
X48480Y-59307D01*
X48419Y-59281D01*
X48352Y-59281D01*
X48291Y-59306D01*
X48244Y-59353D01*
X48218Y-59415D01*
X48218Y-59481D01*
X48225Y-59498D01*
X47541Y-59498D01*
X47494Y-59478D01*
X47427Y-59478D01*
X47379Y-59498D01*
X46663Y-59498D01*
X46663Y-58864D01*
X46637Y-58802D01*
X46634Y-58799D01*
X46637Y-58795D01*
X46663Y-58734D01*
X46663Y-58667D01*
X46637Y-58606D01*
X46590Y-58559D01*
X46529Y-58533D01*
X46462Y-58533D01*
X46401Y-58558D01*
X46354Y-58605D01*
X46328Y-58667D01*
X46328Y-58733D01*
X46354Y-58795D01*
X46357Y-58799D01*
X46354Y-58802D01*
X46328Y-58864D01*
X46328Y-58930D01*
X46354Y-58992D01*
X46401Y-59039D01*
X46462Y-59064D01*
X46529Y-59064D01*
X46590Y-59039D01*
X46637Y-58992D01*
X46663Y-58931D01*
X46663Y-58864D01*
X46663Y-59498D01*
X46072Y-59498D01*
X46072Y-58864D01*
X46047Y-58802D01*
X46043Y-58799D01*
X46047Y-58795D01*
X46072Y-58734D01*
X46072Y-58667D01*
X46047Y-58606D01*
X46000Y-58559D01*
X45938Y-58533D01*
X45872Y-58533D01*
X45810Y-58558D01*
X45763Y-58605D01*
X45738Y-58667D01*
X45738Y-58733D01*
X45763Y-58795D01*
X45767Y-58799D01*
X45763Y-58802D01*
X45738Y-58864D01*
X45738Y-58930D01*
X45763Y-58992D01*
X45810Y-59039D01*
X45872Y-59064D01*
X45938Y-59064D01*
X46000Y-59039D01*
X46047Y-58992D01*
X46072Y-58931D01*
X46072Y-58864D01*
X46072Y-59498D01*
X44832Y-59498D01*
X44832Y-58592D01*
X44866Y-58559D01*
X44891Y-58497D01*
X44891Y-58431D01*
X44866Y-58369D01*
X44832Y-58336D01*
X44832Y-57962D01*
X44866Y-57929D01*
X44891Y-57868D01*
X44891Y-57801D01*
X44866Y-57739D01*
X44832Y-57706D01*
X44832Y-57411D01*
X44866Y-57378D01*
X44891Y-57316D01*
X44891Y-57250D01*
X44866Y-57188D01*
X44832Y-57155D01*
X44832Y-57096D01*
X44866Y-57063D01*
X44891Y-57001D01*
X44891Y-56935D01*
X44866Y-56873D01*
X44832Y-56840D01*
X44832Y-56781D01*
X44866Y-56748D01*
X44891Y-56686D01*
X44891Y-56620D01*
X44866Y-56558D01*
X44832Y-56525D01*
X44832Y-53727D01*
X44579Y-53474D01*
X44045Y-53474D01*
X44045Y-52903D01*
X45265Y-52903D01*
X45265Y-52966D01*
X45291Y-53027D01*
X45338Y-53074D01*
X45399Y-53100D01*
X45466Y-53100D01*
X45527Y-53075D01*
X45574Y-53027D01*
X45600Y-52966D01*
X45600Y-52903D01*
X45875Y-52903D01*
X45875Y-53284D01*
X45830Y-53302D01*
X45783Y-53349D01*
X45757Y-53411D01*
X45757Y-53454D01*
X45714Y-53454D01*
X45653Y-53480D01*
X45606Y-53527D01*
X45580Y-53588D01*
X45580Y-53655D01*
X45606Y-53716D01*
X45639Y-53750D01*
X45606Y-53783D01*
X45580Y-53844D01*
X45580Y-53911D01*
X45606Y-53972D01*
X45653Y-54019D01*
X45714Y-54045D01*
X45781Y-54045D01*
X45842Y-54019D01*
X45875Y-53986D01*
X45875Y-54655D01*
X45862Y-54668D01*
X45836Y-54730D01*
X45836Y-54796D01*
X45862Y-54858D01*
X45875Y-54872D01*
X45875Y-55470D01*
X45856Y-55517D01*
X45856Y-55584D01*
X45875Y-55632D01*
X45875Y-57183D01*
X45856Y-57230D01*
X45856Y-57296D01*
X45875Y-57344D01*
X45875Y-57379D01*
X45856Y-57427D01*
X45856Y-57493D01*
X45875Y-57541D01*
X45875Y-57576D01*
X45856Y-57624D01*
X45856Y-57690D01*
X45875Y-57738D01*
X45875Y-57864D01*
X48823Y-57864D01*
X48834Y-57889D01*
X48881Y-57937D01*
X48942Y-57962D01*
X49009Y-57962D01*
X49071Y-57937D01*
X49118Y-57890D01*
X49128Y-57864D01*
X49635Y-57864D01*
X49649Y-57877D01*
X49710Y-57903D01*
X49777Y-57903D01*
X49838Y-57878D01*
X49852Y-57864D01*
X50147Y-57864D01*
X50161Y-57877D01*
X50222Y-57903D01*
X50289Y-57903D01*
X50350Y-57878D01*
X50364Y-57864D01*
X51525Y-57864D01*
X51525Y-59084D01*
X51492Y-59051D01*
X51431Y-59025D01*
X51364Y-59025D01*
X51302Y-59050D01*
X51255Y-59098D01*
X51230Y-59159D01*
X51230Y-59226D01*
X51255Y-59287D01*
X51302Y-59334D01*
X51364Y-59360D01*
X51430Y-59360D01*
X51492Y-59334D01*
X51525Y-59301D01*
X51525Y-59498D01*
X51525Y-59498D01*
G37*
X51525Y-59498D02*
X51210Y-59498D01*
X51210Y-59100D01*
X51185Y-59039D01*
X51138Y-58992D01*
X51076Y-58966D01*
X51010Y-58966D01*
X50948Y-58991D01*
X50901Y-59038D01*
X50885Y-59076D01*
X50870Y-59039D01*
X50823Y-58992D01*
X50761Y-58966D01*
X50695Y-58966D01*
X50633Y-58991D01*
X50586Y-59038D01*
X50561Y-59100D01*
X50560Y-59166D01*
X50586Y-59228D01*
X50633Y-59275D01*
X50694Y-59301D01*
X50761Y-59301D01*
X50823Y-59275D01*
X50870Y-59228D01*
X50885Y-59190D01*
X50901Y-59228D01*
X50948Y-59275D01*
X51009Y-59301D01*
X51076Y-59301D01*
X51137Y-59275D01*
X51185Y-59228D01*
X51210Y-59167D01*
X51210Y-59100D01*
X51210Y-59498D01*
X50633Y-59498D01*
X50639Y-59482D01*
X50639Y-59415D01*
X50614Y-59354D01*
X50567Y-59307D01*
X50505Y-59281D01*
X50439Y-59281D01*
X50377Y-59306D01*
X50330Y-59353D01*
X50305Y-59415D01*
X50305Y-59481D01*
X50311Y-59498D01*
X50167Y-59498D01*
X50167Y-58155D01*
X50141Y-58094D01*
X50094Y-58047D01*
X50033Y-58021D01*
X49966Y-58021D01*
X49905Y-58047D01*
X49858Y-58094D01*
X49832Y-58155D01*
X49832Y-58222D01*
X49858Y-58283D01*
X49905Y-58330D01*
X49966Y-58356D01*
X50033Y-58356D01*
X50094Y-58330D01*
X50141Y-58283D01*
X50167Y-58222D01*
X50167Y-58155D01*
X50167Y-59498D01*
X49391Y-59498D01*
X49344Y-59478D01*
X49340Y-59478D01*
X49340Y-59021D01*
X49315Y-58960D01*
X49268Y-58913D01*
X49206Y-58887D01*
X49140Y-58887D01*
X49078Y-58913D01*
X49031Y-58960D01*
X49005Y-59021D01*
X49005Y-59088D01*
X49031Y-59149D01*
X49078Y-59196D01*
X49139Y-59222D01*
X49206Y-59222D01*
X49267Y-59197D01*
X49314Y-59150D01*
X49340Y-59088D01*
X49340Y-59021D01*
X49340Y-59478D01*
X49277Y-59478D01*
X49230Y-59498D01*
X48546Y-59498D01*
X48553Y-59482D01*
X48553Y-59415D01*
X48527Y-59354D01*
X48513Y-59340D01*
X48513Y-59021D01*
X48488Y-58960D01*
X48441Y-58913D01*
X48379Y-58887D01*
X48313Y-58887D01*
X48251Y-58913D01*
X48204Y-58960D01*
X48179Y-59021D01*
X48179Y-59088D01*
X48204Y-59149D01*
X48251Y-59196D01*
X48313Y-59222D01*
X48379Y-59222D01*
X48441Y-59197D01*
X48488Y-59150D01*
X48513Y-59088D01*
X48513Y-59021D01*
X48513Y-59340D01*
X48480Y-59307D01*
X48419Y-59281D01*
X48352Y-59281D01*
X48291Y-59306D01*
X48244Y-59353D01*
X48218Y-59415D01*
X48218Y-59481D01*
X48225Y-59498D01*
X47541Y-59498D01*
X47494Y-59478D01*
X47427Y-59478D01*
X47379Y-59498D01*
X46663Y-59498D01*
X46663Y-58864D01*
X46637Y-58802D01*
X46634Y-58799D01*
X46637Y-58795D01*
X46663Y-58734D01*
X46663Y-58667D01*
X46637Y-58606D01*
X46590Y-58559D01*
X46529Y-58533D01*
X46462Y-58533D01*
X46401Y-58558D01*
X46354Y-58605D01*
X46328Y-58667D01*
X46328Y-58733D01*
X46354Y-58795D01*
X46357Y-58799D01*
X46354Y-58802D01*
X46328Y-58864D01*
X46328Y-58930D01*
X46354Y-58992D01*
X46401Y-59039D01*
X46462Y-59064D01*
X46529Y-59064D01*
X46590Y-59039D01*
X46637Y-58992D01*
X46663Y-58931D01*
X46663Y-58864D01*
X46663Y-59498D01*
X46072Y-59498D01*
X46072Y-58864D01*
X46047Y-58802D01*
X46043Y-58799D01*
X46047Y-58795D01*
X46072Y-58734D01*
X46072Y-58667D01*
X46047Y-58606D01*
X46000Y-58559D01*
X45938Y-58533D01*
X45872Y-58533D01*
X45810Y-58558D01*
X45763Y-58605D01*
X45738Y-58667D01*
X45738Y-58733D01*
X45763Y-58795D01*
X45767Y-58799D01*
X45763Y-58802D01*
X45738Y-58864D01*
X45738Y-58930D01*
X45763Y-58992D01*
X45810Y-59039D01*
X45872Y-59064D01*
X45938Y-59064D01*
X46000Y-59039D01*
X46047Y-58992D01*
X46072Y-58931D01*
X46072Y-58864D01*
X46072Y-59498D01*
X44832Y-59498D01*
X44832Y-58592D01*
X44866Y-58559D01*
X44891Y-58497D01*
X44891Y-58431D01*
X44866Y-58369D01*
X44832Y-58336D01*
X44832Y-57962D01*
X44866Y-57929D01*
X44891Y-57868D01*
X44891Y-57801D01*
X44866Y-57739D01*
X44832Y-57706D01*
X44832Y-57411D01*
X44866Y-57378D01*
X44891Y-57316D01*
X44891Y-57250D01*
X44866Y-57188D01*
X44832Y-57155D01*
X44832Y-57096D01*
X44866Y-57063D01*
X44891Y-57001D01*
X44891Y-56935D01*
X44866Y-56873D01*
X44832Y-56840D01*
X44832Y-56781D01*
X44866Y-56748D01*
X44891Y-56686D01*
X44891Y-56620D01*
X44866Y-56558D01*
X44832Y-56525D01*
X44832Y-53727D01*
X44579Y-53474D01*
X44045Y-53474D01*
X44045Y-52903D01*
X45265Y-52903D01*
X45265Y-52966D01*
X45291Y-53027D01*
X45338Y-53074D01*
X45399Y-53100D01*
X45466Y-53100D01*
X45527Y-53075D01*
X45574Y-53027D01*
X45600Y-52966D01*
X45600Y-52903D01*
X45875Y-52903D01*
X45875Y-53284D01*
X45830Y-53302D01*
X45783Y-53349D01*
X45757Y-53411D01*
X45757Y-53454D01*
X45714Y-53454D01*
X45653Y-53480D01*
X45606Y-53527D01*
X45580Y-53588D01*
X45580Y-53655D01*
X45606Y-53716D01*
X45639Y-53750D01*
X45606Y-53783D01*
X45580Y-53844D01*
X45580Y-53911D01*
X45606Y-53972D01*
X45653Y-54019D01*
X45714Y-54045D01*
X45781Y-54045D01*
X45842Y-54019D01*
X45875Y-53986D01*
X45875Y-54655D01*
X45862Y-54668D01*
X45836Y-54730D01*
X45836Y-54796D01*
X45862Y-54858D01*
X45875Y-54872D01*
X45875Y-55470D01*
X45856Y-55517D01*
X45856Y-55584D01*
X45875Y-55632D01*
X45875Y-57183D01*
X45856Y-57230D01*
X45856Y-57296D01*
X45875Y-57344D01*
X45875Y-57379D01*
X45856Y-57427D01*
X45856Y-57493D01*
X45875Y-57541D01*
X45875Y-57576D01*
X45856Y-57624D01*
X45856Y-57690D01*
X45875Y-57738D01*
X45875Y-57864D01*
X48823Y-57864D01*
X48834Y-57889D01*
X48881Y-57937D01*
X48942Y-57962D01*
X49009Y-57962D01*
X49071Y-57937D01*
X49118Y-57890D01*
X49128Y-57864D01*
X49635Y-57864D01*
X49649Y-57877D01*
X49710Y-57903D01*
X49777Y-57903D01*
X49838Y-57878D01*
X49852Y-57864D01*
X50147Y-57864D01*
X50161Y-57877D01*
X50222Y-57903D01*
X50289Y-57903D01*
X50350Y-57878D01*
X50364Y-57864D01*
X51525Y-57864D01*
X51525Y-59084D01*
X51492Y-59051D01*
X51431Y-59025D01*
X51364Y-59025D01*
X51302Y-59050D01*
X51255Y-59098D01*
X51230Y-59159D01*
X51230Y-59226D01*
X51255Y-59287D01*
X51302Y-59334D01*
X51364Y-59360D01*
X51430Y-59360D01*
X51492Y-59334D01*
X51525Y-59301D01*
X51525Y-59498D01*
G36*
X55088Y-49726D02*
X55033Y-49749D01*
X54986Y-49796D01*
X54970Y-49834D01*
X54954Y-49797D01*
X54907Y-49749D01*
X54852Y-49726D01*
X54852Y-49399D01*
X55088Y-49399D01*
X55088Y-49726D01*
X55088Y-49726D01*
G37*
X55088Y-49726D02*
X55033Y-49749D01*
X54986Y-49796D01*
X54970Y-49834D01*
X54954Y-49797D01*
X54907Y-49749D01*
X54852Y-49726D01*
X54852Y-49399D01*
X55088Y-49399D01*
X55088Y-49726D01*
G36*
X63041Y-50305D02*
X62893Y-50305D01*
X62860Y-50305D01*
X62860Y-50305D01*
X62667Y-50305D01*
X62667Y-50045D01*
X62641Y-49984D01*
X62594Y-49936D01*
X62533Y-49911D01*
X62466Y-49911D01*
X62405Y-49936D01*
X62358Y-49983D01*
X62332Y-50045D01*
X62332Y-50111D01*
X62358Y-50173D01*
X62405Y-50220D01*
X62466Y-50246D01*
X62533Y-50246D01*
X62594Y-50220D01*
X62641Y-50173D01*
X62667Y-50112D01*
X62667Y-50045D01*
X62667Y-50305D01*
X62499Y-50305D01*
X62466Y-50305D01*
X62466Y-50305D01*
X62273Y-50305D01*
X62273Y-50045D01*
X62248Y-49984D01*
X62201Y-49936D01*
X62139Y-49911D01*
X62073Y-49911D01*
X62011Y-49936D01*
X61964Y-49983D01*
X61939Y-50045D01*
X61938Y-50111D01*
X61964Y-50173D01*
X62011Y-50220D01*
X62072Y-50246D01*
X62139Y-50246D01*
X62200Y-50220D01*
X62248Y-50173D01*
X62273Y-50112D01*
X62273Y-50045D01*
X62273Y-50305D01*
X62106Y-50305D01*
X62073Y-50305D01*
X62073Y-50305D01*
X61879Y-50305D01*
X61879Y-50045D01*
X61854Y-49984D01*
X61807Y-49936D01*
X61746Y-49911D01*
X61679Y-49911D01*
X61617Y-49936D01*
X61570Y-49983D01*
X61545Y-50045D01*
X61545Y-50111D01*
X61570Y-50173D01*
X61617Y-50220D01*
X61679Y-50246D01*
X61745Y-50246D01*
X61807Y-50220D01*
X61854Y-50173D01*
X61879Y-50112D01*
X61879Y-50045D01*
X61879Y-50305D01*
X61712Y-50305D01*
X61679Y-50305D01*
X61679Y-50305D01*
X61486Y-50305D01*
X61486Y-50045D01*
X61460Y-49984D01*
X61413Y-49936D01*
X61352Y-49911D01*
X61285Y-49911D01*
X61224Y-49936D01*
X61177Y-49983D01*
X61151Y-50045D01*
X61151Y-50111D01*
X61176Y-50173D01*
X61223Y-50220D01*
X61285Y-50246D01*
X61352Y-50246D01*
X61413Y-50220D01*
X61460Y-50173D01*
X61486Y-50112D01*
X61486Y-50045D01*
X61486Y-50305D01*
X61318Y-50305D01*
X61285Y-50305D01*
X61285Y-50305D01*
X60925Y-50305D01*
X60892Y-50305D01*
X60891Y-50305D01*
X60698Y-50305D01*
X60698Y-50045D01*
X60673Y-49984D01*
X60626Y-49936D01*
X60564Y-49911D01*
X60498Y-49911D01*
X60436Y-49936D01*
X60389Y-49983D01*
X60364Y-50045D01*
X60364Y-50111D01*
X60389Y-50173D01*
X60436Y-50220D01*
X60498Y-50246D01*
X60564Y-50246D01*
X60626Y-50220D01*
X60673Y-50173D01*
X60698Y-50112D01*
X60698Y-50045D01*
X60698Y-50305D01*
X60531Y-50305D01*
X60498Y-50305D01*
X60498Y-50305D01*
X60305Y-50305D01*
X60305Y-50045D01*
X60279Y-49984D01*
X60232Y-49936D01*
X60171Y-49911D01*
X60104Y-49911D01*
X60043Y-49936D01*
X59996Y-49983D01*
X59970Y-50045D01*
X59970Y-50111D01*
X59995Y-50173D01*
X60042Y-50220D01*
X60104Y-50246D01*
X60170Y-50246D01*
X60232Y-50220D01*
X60279Y-50173D01*
X60305Y-50112D01*
X60305Y-50045D01*
X60305Y-50305D01*
X60137Y-50305D01*
X60104Y-50305D01*
X60104Y-50305D01*
X59911Y-50305D01*
X59911Y-50045D01*
X59886Y-49984D01*
X59838Y-49936D01*
X59777Y-49911D01*
X59710Y-49911D01*
X59649Y-49936D01*
X59602Y-49983D01*
X59576Y-50045D01*
X59576Y-50111D01*
X59602Y-50173D01*
X59649Y-50220D01*
X59710Y-50246D01*
X59777Y-50246D01*
X59838Y-50220D01*
X59885Y-50173D01*
X59911Y-50112D01*
X59911Y-50045D01*
X59911Y-50305D01*
X59744Y-50305D01*
X59710Y-50305D01*
X59710Y-50305D01*
X59517Y-50305D01*
X59517Y-50045D01*
X59492Y-49984D01*
X59445Y-49936D01*
X59383Y-49911D01*
X59317Y-49911D01*
X59255Y-49936D01*
X59208Y-49983D01*
X59183Y-50045D01*
X59183Y-50111D01*
X59208Y-50173D01*
X59255Y-50220D01*
X59316Y-50246D01*
X59383Y-50246D01*
X59445Y-50220D01*
X59492Y-50173D01*
X59517Y-50112D01*
X59517Y-50045D01*
X59517Y-50305D01*
X59350Y-50305D01*
X59317Y-50305D01*
X59317Y-50305D01*
X59025Y-50305D01*
X59025Y-50242D01*
X59000Y-50180D01*
X58953Y-50133D01*
X58891Y-50108D01*
X58825Y-50108D01*
X58763Y-50133D01*
X58716Y-50180D01*
X58690Y-50242D01*
X58690Y-50305D01*
X54852Y-50305D01*
X54852Y-50056D01*
X54907Y-50033D01*
X54954Y-49986D01*
X54970Y-49948D01*
X54986Y-49986D01*
X55033Y-50033D01*
X55088Y-50056D01*
X55088Y-50068D01*
X58002Y-50068D01*
X58277Y-49852D01*
X58572Y-49852D01*
X58586Y-49866D01*
X58647Y-49891D01*
X58690Y-49891D01*
X58690Y-49915D01*
X58716Y-49976D01*
X58763Y-50023D01*
X58824Y-50049D01*
X58891Y-50049D01*
X58952Y-50023D01*
X59000Y-49976D01*
X59025Y-49915D01*
X59025Y-49852D01*
X59350Y-49852D01*
X59383Y-49852D01*
X59383Y-49852D01*
X59744Y-49852D01*
X59777Y-49852D01*
X59777Y-49852D01*
X60137Y-49852D01*
X60170Y-49852D01*
X60171Y-49852D01*
X60531Y-49852D01*
X60564Y-49852D01*
X60564Y-49852D01*
X61318Y-49852D01*
X61352Y-49852D01*
X61352Y-49852D01*
X61712Y-49852D01*
X61745Y-49852D01*
X61745Y-49852D01*
X62106Y-49852D01*
X62139Y-49852D01*
X62139Y-49852D01*
X62500Y-49852D01*
X62533Y-49852D01*
X62533Y-49852D01*
X63041Y-49852D01*
X63041Y-50305D01*
X63041Y-50305D01*
G37*
X63041Y-50305D02*
X62893Y-50305D01*
X62860Y-50305D01*
X62860Y-50305D01*
X62667Y-50305D01*
X62667Y-50045D01*
X62641Y-49984D01*
X62594Y-49936D01*
X62533Y-49911D01*
X62466Y-49911D01*
X62405Y-49936D01*
X62358Y-49983D01*
X62332Y-50045D01*
X62332Y-50111D01*
X62358Y-50173D01*
X62405Y-50220D01*
X62466Y-50246D01*
X62533Y-50246D01*
X62594Y-50220D01*
X62641Y-50173D01*
X62667Y-50112D01*
X62667Y-50045D01*
X62667Y-50305D01*
X62499Y-50305D01*
X62466Y-50305D01*
X62466Y-50305D01*
X62273Y-50305D01*
X62273Y-50045D01*
X62248Y-49984D01*
X62201Y-49936D01*
X62139Y-49911D01*
X62073Y-49911D01*
X62011Y-49936D01*
X61964Y-49983D01*
X61939Y-50045D01*
X61938Y-50111D01*
X61964Y-50173D01*
X62011Y-50220D01*
X62072Y-50246D01*
X62139Y-50246D01*
X62200Y-50220D01*
X62248Y-50173D01*
X62273Y-50112D01*
X62273Y-50045D01*
X62273Y-50305D01*
X62106Y-50305D01*
X62073Y-50305D01*
X62073Y-50305D01*
X61879Y-50305D01*
X61879Y-50045D01*
X61854Y-49984D01*
X61807Y-49936D01*
X61746Y-49911D01*
X61679Y-49911D01*
X61617Y-49936D01*
X61570Y-49983D01*
X61545Y-50045D01*
X61545Y-50111D01*
X61570Y-50173D01*
X61617Y-50220D01*
X61679Y-50246D01*
X61745Y-50246D01*
X61807Y-50220D01*
X61854Y-50173D01*
X61879Y-50112D01*
X61879Y-50045D01*
X61879Y-50305D01*
X61712Y-50305D01*
X61679Y-50305D01*
X61679Y-50305D01*
X61486Y-50305D01*
X61486Y-50045D01*
X61460Y-49984D01*
X61413Y-49936D01*
X61352Y-49911D01*
X61285Y-49911D01*
X61224Y-49936D01*
X61177Y-49983D01*
X61151Y-50045D01*
X61151Y-50111D01*
X61176Y-50173D01*
X61223Y-50220D01*
X61285Y-50246D01*
X61352Y-50246D01*
X61413Y-50220D01*
X61460Y-50173D01*
X61486Y-50112D01*
X61486Y-50045D01*
X61486Y-50305D01*
X61318Y-50305D01*
X61285Y-50305D01*
X61285Y-50305D01*
X60925Y-50305D01*
X60892Y-50305D01*
X60891Y-50305D01*
X60698Y-50305D01*
X60698Y-50045D01*
X60673Y-49984D01*
X60626Y-49936D01*
X60564Y-49911D01*
X60498Y-49911D01*
X60436Y-49936D01*
X60389Y-49983D01*
X60364Y-50045D01*
X60364Y-50111D01*
X60389Y-50173D01*
X60436Y-50220D01*
X60498Y-50246D01*
X60564Y-50246D01*
X60626Y-50220D01*
X60673Y-50173D01*
X60698Y-50112D01*
X60698Y-50045D01*
X60698Y-50305D01*
X60531Y-50305D01*
X60498Y-50305D01*
X60498Y-50305D01*
X60305Y-50305D01*
X60305Y-50045D01*
X60279Y-49984D01*
X60232Y-49936D01*
X60171Y-49911D01*
X60104Y-49911D01*
X60043Y-49936D01*
X59996Y-49983D01*
X59970Y-50045D01*
X59970Y-50111D01*
X59995Y-50173D01*
X60042Y-50220D01*
X60104Y-50246D01*
X60170Y-50246D01*
X60232Y-50220D01*
X60279Y-50173D01*
X60305Y-50112D01*
X60305Y-50045D01*
X60305Y-50305D01*
X60137Y-50305D01*
X60104Y-50305D01*
X60104Y-50305D01*
X59911Y-50305D01*
X59911Y-50045D01*
X59886Y-49984D01*
X59838Y-49936D01*
X59777Y-49911D01*
X59710Y-49911D01*
X59649Y-49936D01*
X59602Y-49983D01*
X59576Y-50045D01*
X59576Y-50111D01*
X59602Y-50173D01*
X59649Y-50220D01*
X59710Y-50246D01*
X59777Y-50246D01*
X59838Y-50220D01*
X59885Y-50173D01*
X59911Y-50112D01*
X59911Y-50045D01*
X59911Y-50305D01*
X59744Y-50305D01*
X59710Y-50305D01*
X59710Y-50305D01*
X59517Y-50305D01*
X59517Y-50045D01*
X59492Y-49984D01*
X59445Y-49936D01*
X59383Y-49911D01*
X59317Y-49911D01*
X59255Y-49936D01*
X59208Y-49983D01*
X59183Y-50045D01*
X59183Y-50111D01*
X59208Y-50173D01*
X59255Y-50220D01*
X59316Y-50246D01*
X59383Y-50246D01*
X59445Y-50220D01*
X59492Y-50173D01*
X59517Y-50112D01*
X59517Y-50045D01*
X59517Y-50305D01*
X59350Y-50305D01*
X59317Y-50305D01*
X59317Y-50305D01*
X59025Y-50305D01*
X59025Y-50242D01*
X59000Y-50180D01*
X58953Y-50133D01*
X58891Y-50108D01*
X58825Y-50108D01*
X58763Y-50133D01*
X58716Y-50180D01*
X58690Y-50242D01*
X58690Y-50305D01*
X54852Y-50305D01*
X54852Y-50056D01*
X54907Y-50033D01*
X54954Y-49986D01*
X54970Y-49948D01*
X54986Y-49986D01*
X55033Y-50033D01*
X55088Y-50056D01*
X55088Y-50068D01*
X58002Y-50068D01*
X58277Y-49852D01*
X58572Y-49852D01*
X58586Y-49866D01*
X58647Y-49891D01*
X58690Y-49891D01*
X58690Y-49915D01*
X58716Y-49976D01*
X58763Y-50023D01*
X58824Y-50049D01*
X58891Y-50049D01*
X58952Y-50023D01*
X59000Y-49976D01*
X59025Y-49915D01*
X59025Y-49852D01*
X59350Y-49852D01*
X59383Y-49852D01*
X59383Y-49852D01*
X59744Y-49852D01*
X59777Y-49852D01*
X59777Y-49852D01*
X60137Y-49852D01*
X60170Y-49852D01*
X60171Y-49852D01*
X60531Y-49852D01*
X60564Y-49852D01*
X60564Y-49852D01*
X61318Y-49852D01*
X61352Y-49852D01*
X61352Y-49852D01*
X61712Y-49852D01*
X61745Y-49852D01*
X61745Y-49852D01*
X62106Y-49852D01*
X62139Y-49852D01*
X62139Y-49852D01*
X62500Y-49852D01*
X62533Y-49852D01*
X62533Y-49852D01*
X63041Y-49852D01*
X63041Y-50305D01*
M02*
