M48
;DRILL file {Pcbnew (2013-07-07 BZR 4022)-stable} date 27/11/2015 23:20:53
;FORMAT={-:-/ absolute / metric / decimal}
FMAT,2
METRIC,TZ
T1C0.200
T2C0.300
T3C1.000
%
G90
G05
M71
T1
X107.95Y-125.7
X107.95Y-129.4
X107.95Y-134.2
X109.9Y-132.55
X109.9Y-135.25
X110.45Y-130.9
X110.75Y-123.75
X110.95Y-133.9
X111.Y-141.7
X111.Y-144.7
X111.5Y-122.1
X111.55Y-123.45
X111.6Y-133.1
X111.7Y-127.25
X111.7Y-127.8
X111.7Y-128.35
X112.15Y-134.7
X112.45Y-127.25
X112.45Y-127.8
X112.45Y-128.35
X112.5Y-124.1
X112.65Y-135.25
X113.15Y-127.25
X113.15Y-127.8
X113.15Y-128.35
X113.2Y-135.25
X113.6Y-143.9
X113.6Y-144.7
X113.6Y-145.5
X113.6Y-146.9
X113.6Y-148.5
X113.9Y-127.25
X113.9Y-127.8
X113.9Y-128.35
X114.6Y-127.25
X114.6Y-127.8
X114.6Y-128.35
X115.05Y-132.3
X115.4Y-134.45
X115.7Y-130.9
X116.2Y-133.75
X116.2Y-136.2
X116.2Y-136.85
X116.35Y-124.2
X116.6Y-149.1
X116.6Y-149.6
X116.65Y-126.6
X116.65Y-135.75
X116.8Y-129.2
X116.8Y-131.25
X116.85Y-139.1
X116.9Y-141.1
X116.9Y-145.45
X116.9Y-145.95
X116.9Y-146.45
X116.95Y-123.45
X117.Y-134.1
X117.3Y-137.8
X117.5Y-125.25
X117.5Y-129.4
X117.6Y-123.45
X117.8Y-130.95
X117.9Y-125.9
X117.95Y-142.3
X117.95Y-142.8
X117.95Y-143.3
X117.95Y-143.85
X117.95Y-144.35
X118.1Y-149.1
X118.1Y-149.6
X118.3Y-137.8
X118.45Y-130.2
X118.5Y-125.9
X118.55Y-133.55
X118.7Y-142.3
X118.7Y-142.8
X118.7Y-143.3
X118.7Y-143.85
X118.7Y-144.35
X118.75Y-139.2
X118.75Y-147.5
X118.75Y-148.1
X118.85Y-135.75
X119.25Y-125.9
X119.3Y-129.5
X119.3Y-130.3
X119.3Y-148.1
X119.4Y-133.8
X119.4Y-142.3
X119.4Y-142.8
X119.4Y-143.3
X119.4Y-143.85
X119.4Y-144.35
X119.55Y-123.45
X120.Y-139.2
X120.1Y-142.3
X120.1Y-142.8
X120.1Y-143.3
X120.1Y-143.85
X120.1Y-144.35
X120.15Y-128.05
X120.4Y-133.8
X120.5Y-122.1
X120.55Y-151.5
X120.75Y-127.05
X120.75Y-128.85
X120.85Y-142.3
X120.85Y-142.8
X120.85Y-143.3
X120.85Y-143.85
X120.85Y-144.35
X120.95Y-123.7
X121.1Y-131.25
X121.4Y-138.
X121.65Y-133.
X121.8Y-129.2
X121.95Y-145.45
X121.95Y-145.95
X121.95Y-146.45
X122.Y-139.25
X122.05Y-129.8
X122.35Y-139.95
X122.55Y-141.9
X122.6Y-129.2
X122.65Y-133.8
X122.65Y-137.8
X122.65Y-138.6
X122.75Y-123.4
X122.8Y-131.8
X122.8Y-150.
X122.9Y-151.
X123.2Y-139.15
X123.6Y-129.4
X123.6Y-130.05
X123.6Y-131.8
X123.6Y-134.2
X123.6Y-135.
X123.6Y-135.8
X123.6Y-136.6
X123.8Y-125.5
X123.8Y-126.
X124.Y-139.15
X124.Y-140.7
X124.4Y-131.
X124.4Y-131.8
X124.4Y-132.6
X124.4Y-133.4
X124.4Y-134.2
X124.4Y-135.
X124.4Y-135.8
X124.4Y-136.6
X124.4Y-137.4
X124.4Y-146.8
X124.45Y-123.55
X124.45Y-126.25
X124.55Y-141.9
X124.55Y-142.75
X124.7Y-140.65
X124.7Y-141.3
X124.75Y-145.45
X124.8Y-139.15
X124.9Y-124.05
X124.9Y-126.75
X124.9Y-150.
X125.2Y-131.
X125.2Y-131.8
X125.2Y-132.6
X125.2Y-133.4
X125.2Y-135.
X125.2Y-135.8
X125.2Y-136.6
X125.2Y-137.4
X125.25Y-151.5
X125.3Y-122.1
X125.3Y-145.8
X125.35Y-124.55
X125.35Y-127.25
X125.6Y-139.15
X125.65Y-142.4
X125.85Y-146.35
X125.9Y-130.05
X126.Y-125.5
X126.Y-128.25
X126.Y-131.8
X126.Y-132.6
X126.Y-133.4
X126.Y-134.2
X126.Y-135.
X126.Y-135.8
X126.Y-136.6
X126.Y-138.2
X126.35Y-146.65
X126.4Y-139.15
X126.45Y-122.35
X126.55Y-141.3
X126.6Y-140.65
X126.6Y-142.8
X126.8Y-131.8
X126.8Y-132.6
X126.8Y-133.4
X126.8Y-134.2
X126.8Y-136.6
X126.8Y-137.4
X126.9Y-146.35
X127.Y-147.8
X127.1Y-122.35
X127.2Y-130.05
X127.2Y-139.15
X127.25Y-125.65
X127.25Y-128.15
X127.6Y-131.
X127.6Y-131.8
X127.6Y-132.6
X127.6Y-134.2
X127.6Y-135.
X127.6Y-135.8
X127.6Y-136.6
X127.6Y-137.4
X127.65Y-146.65
X127.8Y-123.55
X127.9Y-127.25
X127.95Y-128.8
X128.Y-130.05
X128.Y-139.15
X128.2Y-151.
X128.4Y-131.
X128.4Y-131.8
X128.4Y-132.6
X128.4Y-133.4
X128.4Y-135.
X128.4Y-136.6
X128.8Y-130.05
X128.8Y-139.15
X128.85Y-143.1
X128.85Y-150.2
X128.975Y-140.7
X129.2Y-131.
X129.2Y-131.8
X129.2Y-132.6
X129.2Y-133.4
X129.2Y-134.2
X129.2Y-135.
X129.2Y-137.4
X129.2Y-138.2
X129.3Y-123.55
X129.3Y-124.55
X129.3Y-125.25
X129.3Y-126.25
X129.4Y-127.25
X129.6Y-130.05
X129.65Y-143.1
X129.65Y-150.2
X129.8Y-124.05
X129.9Y-146.3
X130.Y-131.
X130.Y-131.8
X130.Y-132.6
X130.Y-133.4
X130.Y-134.2
X130.Y-135.
X130.2Y-126.2
X130.4Y-130.05
X130.5Y-146.3
X130.55Y-147.15
X130.55Y-147.7
X130.55Y-148.25
X130.55Y-150.35
X130.6Y-122.8
X130.65Y-140.15
X130.8Y-131.
X130.8Y-131.8
X130.8Y-132.6
X130.8Y-133.4
X130.8Y-134.2
X130.8Y-135.
X130.8Y-135.8
X130.8Y-137.
X130.8Y-138.2
X130.92Y-126.22
X131.Y-146.3
X131.2Y-130.05
X131.3Y-123.2
X131.3Y-140.15
X131.6Y-131.
X131.75Y-132.2
X131.75Y-133.8
X131.75Y-134.6
X131.75Y-135.4
X131.75Y-137.
X131.75Y-137.8
X131.75Y-138.6
X131.8Y-141.2
X131.85Y-122.35
X131.95Y-140.15
X132.3Y-130.55
X132.4Y-127.35
X132.7Y-137.8
X132.7Y-138.6
X133.Y-149.3
X133.Y-149.95
X133.1Y-130.55
X133.55Y-139.65
X133.6Y-141.3
X133.6Y-149.95
X134.625Y-125.325
X134.85Y-133.15
X134.85Y-135.4
X134.9Y-140.7
X135.Y-122.1
X135.Y-137.7
X135.05Y-151.5
X135.15Y-148.45
X135.15Y-148.95
X135.15Y-149.45
X135.15Y-149.95
X135.225Y-123.925
X135.5Y-134.
X135.5Y-137.2
X135.5Y-138.2
X135.6Y-135.4
X135.6Y-140.7
X135.625Y-125.725
X135.625Y-129.725
X135.625Y-130.525
X135.65Y-128.725
X136.Y-141.3
X136.025Y-126.725
X136.3Y-134.
X136.425Y-125.725
X136.425Y-129.725
X136.7Y-136.2
X136.7Y-142.5
X136.825Y-123.925
X136.825Y-126.725
X136.825Y-128.725
X137.05Y-149.45
X137.05Y-149.95
X137.1Y-134.
X137.225Y-125.725
X137.225Y-129.725
X137.225Y-130.525
X137.4Y-151.
X137.625Y-126.725
X137.625Y-128.725
X137.65Y-135.4
X138.025Y-125.725
X138.025Y-129.725
X138.425Y-126.725
X138.425Y-128.725
X138.825Y-125.725
X138.825Y-129.725
X138.825Y-130.525
X138.95Y-149.95
X139.225Y-126.725
X139.225Y-128.725
X139.625Y-125.725
X139.625Y-129.725
X139.625Y-130.525
X139.75Y-151.5
X139.8Y-122.1
X139.95Y-133.85
X139.95Y-143.15
X140.025Y-123.925
X140.025Y-126.725
X140.025Y-128.725
X140.425Y-125.725
X140.425Y-129.725
X140.425Y-130.525
X140.7Y-143.85
X140.825Y-123.925
X140.825Y-126.725
X140.825Y-128.725
X140.9Y-135.9
X140.9Y-141.35
X141.05Y-149.95
X141.225Y-125.725
X141.225Y-129.725
X141.225Y-130.525
X141.625Y-123.925
X141.625Y-126.725
X141.625Y-128.725
X142.025Y-125.725
X142.025Y-129.725
X142.025Y-130.525
X142.35Y-141.25
X142.425Y-123.925
X142.425Y-126.725
X142.425Y-128.725
X142.5Y-133.95
X142.825Y-130.525
X142.85Y-146.4
X142.85Y-146.9
X142.95Y-141.25
X143.15Y-147.8
X143.15Y-148.3
X143.15Y-149.95
X143.225Y-123.925
X143.225Y-126.725
X143.225Y-128.725
X143.35Y-133.95
X143.625Y-125.725
X143.625Y-129.725
X143.625Y-130.525
X143.75Y-147.8
X143.75Y-148.3
X144.025Y-123.925
X144.025Y-126.725
X144.025Y-128.725
X144.425Y-125.725
X144.425Y-129.725
X144.425Y-130.525
X144.825Y-123.925
X144.825Y-126.725
X144.825Y-128.725
X145.Y-145.65
X145.225Y-125.725
X145.225Y-129.725
X145.225Y-130.525
X145.5Y-141.15
X145.625Y-123.925
X145.625Y-126.725
X145.625Y-128.725
X145.75Y-137.05
X145.75Y-137.75
X146.025Y-130.525
X146.1Y-141.15
X146.35Y-135.4
X146.425Y-123.925
X146.425Y-126.725
X146.425Y-128.725
X146.7Y-144.95
X146.75Y-137.75
X147.05Y-139.65
X147.2Y-135.4
X147.35Y-138.2
X147.85Y-141.9
X147.85Y-147.
X148.05Y-135.4
X148.15Y-132.7
X148.15Y-138.2
X149.05Y-126.3
X149.35Y-123.925
X149.5Y-122.1
X149.5Y-126.7
X149.5Y-127.7
X149.5Y-129.7
X149.5Y-130.7
X149.5Y-131.7
X149.5Y-132.7
X149.5Y-135.7
X149.5Y-138.7
X149.55Y-151.5
X149.6Y-133.7
X149.6Y-134.7
X149.6Y-136.7
X149.6Y-137.7
X149.7Y-141.
X150.25Y-123.95
X150.25Y-140.45
X150.3Y-141.45
X150.75Y-126.2
X150.75Y-127.2
X150.75Y-128.2
X150.75Y-129.2
X150.75Y-130.2
X150.75Y-131.2
X150.75Y-132.2
X150.75Y-133.2
X150.75Y-134.2
X150.75Y-135.2
X150.75Y-136.2
X151.25Y-123.95
X151.75Y-126.2
X151.75Y-127.2
X151.75Y-128.2
X151.75Y-129.2
X151.75Y-130.2
X151.75Y-131.2
X151.75Y-132.2
X151.75Y-133.2
X151.75Y-135.2
X151.75Y-137.2
X151.75Y-138.2
X151.75Y-139.2
X151.8Y-146.5
X151.9Y-150.95
X152.25Y-123.95
X152.25Y-140.55
X152.25Y-141.45
X152.75Y-125.2
X152.75Y-126.2
X152.75Y-127.2
X152.75Y-128.2
X152.75Y-129.2
X152.75Y-130.2
X152.75Y-131.2
X152.75Y-132.2
X152.75Y-133.2
X152.75Y-134.2
X152.75Y-135.2
X152.75Y-136.2
X152.75Y-137.2
X152.75Y-139.2
X153.15Y-140.45
X153.25Y-123.95
X153.75Y-125.2
X153.75Y-126.2
X153.75Y-127.2
X153.75Y-128.2
X153.75Y-129.2
X153.75Y-130.2
X153.75Y-131.2
X153.75Y-132.2
X153.75Y-133.2
X153.75Y-134.2
X153.75Y-135.2
X153.75Y-137.2
X153.75Y-140.45
X154.15Y-146.5
X154.25Y-123.95
X154.25Y-151.5
X154.3Y-122.1
X154.75Y-125.2
X154.75Y-127.2
X154.75Y-128.2
X154.75Y-129.2
X154.75Y-130.2
X154.75Y-131.2
X154.75Y-133.2
X154.75Y-137.2
X154.75Y-138.2
X154.75Y-139.2
X155.25Y-123.95
X155.25Y-140.45
X155.4Y-148.1
X155.75Y-125.2
X155.75Y-126.2
X155.75Y-127.2
X155.75Y-128.2
X155.75Y-129.2
X155.75Y-130.2
X155.75Y-131.2
X155.75Y-132.2
X155.75Y-133.2
X155.75Y-135.2
X155.75Y-136.2
X155.75Y-137.2
X155.75Y-138.2
X155.75Y-139.2
X156.05Y-148.1
X156.25Y-123.95
X156.25Y-140.45
X156.75Y-125.2
X156.75Y-126.2
X156.75Y-127.2
X156.75Y-128.2
X156.75Y-129.2
X156.75Y-130.2
X156.75Y-131.2
X156.75Y-132.2
X156.75Y-133.2
X156.75Y-134.2
X156.75Y-135.2
X156.75Y-136.2
X156.75Y-137.2
X156.75Y-138.2
X156.75Y-139.2
X157.Y-146.2
X157.1Y-144.2
X157.25Y-123.95
X157.25Y-140.45
X157.75Y-125.2
X157.75Y-126.2
X157.75Y-127.2
X157.75Y-128.2
X157.75Y-129.2
X157.75Y-131.2
X157.75Y-132.2
X157.75Y-133.2
X157.75Y-134.2
X157.75Y-135.2
X157.75Y-136.2
X157.75Y-137.2
X157.75Y-138.2
X157.75Y-139.2
X158.1Y-146.2
X158.2Y-144.2
X158.25Y-123.95
X158.25Y-140.45
X158.75Y-125.2
X158.75Y-126.2
X158.75Y-127.2
X158.75Y-128.2
X158.75Y-129.2
X158.75Y-131.2
X158.75Y-132.2
X158.75Y-133.2
X158.75Y-135.2
X158.75Y-136.2
X158.75Y-137.2
X158.75Y-138.2
X158.75Y-139.2
X159.Y-144.2
X159.25Y-123.95
X159.25Y-140.45
X159.4Y-146.2
X159.7Y-144.2
X159.75Y-125.2
X159.75Y-127.2
X159.75Y-128.2
X159.75Y-129.2
X159.75Y-130.2
X159.75Y-131.2
X159.75Y-132.2
X159.75Y-133.2
X159.75Y-135.2
X159.75Y-136.2
X159.75Y-137.2
X159.75Y-138.2
X159.75Y-139.2
X160.25Y-123.95
X160.7Y-151.5
X160.75Y-125.2
X160.75Y-126.2
X160.75Y-127.2
X160.75Y-128.2
X160.75Y-129.2
X160.75Y-130.2
X160.75Y-131.2
X160.75Y-132.2
X160.75Y-134.2
X160.75Y-135.2
X160.75Y-136.2
X160.75Y-137.2
X160.75Y-138.2
X160.75Y-139.2
X160.95Y-141.35
X161.25Y-123.95
X161.25Y-140.45
X161.45Y-145.65
X161.75Y-125.2
X161.75Y-126.2
X161.75Y-128.2
X161.75Y-129.2
X161.75Y-130.2
X161.75Y-131.2
X161.75Y-132.2
X161.75Y-133.2
X161.75Y-134.2
X161.75Y-135.2
X161.75Y-136.2
X161.75Y-137.2
X161.75Y-138.2
X161.75Y-139.2
X161.75Y-141.35
X162.15Y-140.45
X162.3Y-151.5
X162.65Y-141.35
X162.75Y-125.2
X162.75Y-126.2
X162.75Y-127.2
X162.75Y-128.2
X162.75Y-129.2
X162.75Y-130.2
X162.75Y-131.2
X162.75Y-132.2
X162.75Y-133.2
X162.75Y-134.2
X162.75Y-135.2
X162.75Y-136.2
X162.75Y-137.2
X162.75Y-139.2
X162.8Y-143.7
X162.8Y-144.35
X162.8Y-144.95
X163.25Y-122.1
X163.25Y-123.95
X163.3Y-151.5
X163.75Y-128.2
X163.75Y-129.2
X163.75Y-130.2
X163.75Y-131.2
X163.75Y-132.2
X163.75Y-133.2
X163.75Y-134.2
X163.75Y-135.2
X163.75Y-137.2
X163.75Y-138.2
X163.75Y-139.2
X163.75Y-140.4
X164.25Y-123.95
X164.301Y-145.5
X164.75Y-125.2
X164.75Y-126.2
X164.75Y-127.2
X164.75Y-128.2
X164.75Y-129.2
X164.75Y-130.2
X164.75Y-131.2
X164.75Y-132.2
X164.75Y-133.2
X164.75Y-134.2
X164.75Y-135.2
X164.75Y-136.2
X164.75Y-138.2
X164.75Y-139.2
X165.05Y-145.85
X165.05Y-146.4
X165.05Y-150.55
X165.25Y-123.95
X165.6Y-146.4
X165.95Y-123.35
X166.Y-125.7
X166.Y-126.7
X166.Y-127.7
X166.Y-128.3
X166.Y-129.7
X166.Y-130.7
X166.Y-131.7
X166.Y-133.2
X166.Y-134.6
X166.Y-135.7
X166.Y-138.2
X166.Y-139.2
X166.Y-140.25
X166.1Y-150.3
X166.2Y-140.8
X166.2Y-141.45
X166.5Y-136.
X167.55Y-129.45
X168.Y-122.1
X168.Y-125.15
X168.05Y-150.3
X168.05Y-151.5
X168.6Y-131.
X168.6Y-132.6
X168.6Y-134.2
X168.6Y-135.8
X168.6Y-138.2
X168.6Y-139.8
X168.6Y-143.8
X168.6Y-150.
X168.65Y-128.8
X168.7Y-128.
X168.8Y-127.2
X168.95Y-145.9
X169.8Y-127.2
X169.8Y-128.
X169.8Y-128.8
X169.8Y-129.4
X169.8Y-130.
X169.8Y-130.6
X169.8Y-131.8
X169.8Y-133.4
X169.8Y-135.
X169.8Y-136.6
X169.8Y-139.
X169.8Y-140.4
X169.8Y-141.2
X169.8Y-145.35
X169.8Y-146.45
X171.15Y-150.
X171.9Y-131.4
X171.9Y-132.2
X171.9Y-133.
X171.9Y-133.8
X171.9Y-134.6
X171.9Y-135.4
X171.9Y-136.2
X171.9Y-137.
X171.9Y-139.4
X172.Y-127.2
X172.Y-128.
X172.Y-128.8
X172.Y-129.4
X172.Y-130.
X172.Y-130.6
X172.Y-138.35
X172.Y-140.4
X172.Y-141.2
X172.Y-145.35
X172.Y-145.9
X172.Y-146.45
X173.65Y-150.
X174.2Y-127.2
X174.2Y-128.
X174.2Y-128.6
X174.2Y-129.4
X174.2Y-130.
X174.2Y-130.6
X174.2Y-131.4
X174.2Y-132.2
X174.2Y-133.
X174.2Y-133.8
X174.2Y-134.6
X174.2Y-135.4
X174.2Y-136.2
X174.2Y-137.
X174.2Y-139.4
X174.2Y-140.4
X174.2Y-141.2
X174.2Y-145.35
X174.2Y-145.9
X174.2Y-146.45
X174.7Y-129.
X174.7Y-135.
X174.7Y-135.8
X174.7Y-136.6
X174.7Y-139.8
X175.2Y-131.
X175.2Y-131.8
X175.2Y-132.6
X175.2Y-133.4
X175.2Y-134.2
X175.6Y-150.
X175.75Y-146.4
X176.1Y-127.6
X176.1Y-138.6
X176.15Y-141.2
X176.25Y-149.55
X176.45Y-146.4
X176.5Y-127.1
X176.5Y-139.
X176.95Y-137.4
X177.Y-131.8
X177.1Y-125.25
X177.1Y-145.4
X177.35Y-126.3
X177.35Y-138.2
X177.85Y-125.85
X177.85Y-137.8
X178.2Y-143.8
X178.2Y-144.35
X178.35Y-136.
X178.45Y-127.35
X178.65Y-149.1
X178.7Y-139.6
X178.7Y-140.2
X178.7Y-143.8
X178.7Y-144.35
X178.9Y-136.
X179.65Y-137.7
X179.7Y-139.75
X179.7Y-145.4
X180.4Y-133.3
X181.3Y-149.1
X182.15Y-132.5
X182.7Y-128.1
X182.85Y-132.85
X183.2Y-144.35
X183.45Y-128.75
X183.45Y-129.85
X183.85Y-144.35
X184.05Y-129.85
X184.15Y-139.
X184.6Y-122.9
X184.6Y-125.1
X185.5Y-125.1
X186.2Y-122.9
X186.2Y-123.6
X186.4Y-149.5
X186.9Y-125.1
X187.35Y-145.4
X187.6Y-123.6
X188.25Y-123.
X188.9Y-149.3
X189.85Y-141.4
X190.375Y-128.475
X190.475Y-132.425
X190.475Y-133.325
X190.475Y-135.925
X190.5Y-129.15
X190.5Y-130.55
X190.5Y-131.45
X190.675Y-124.625
X191.125Y-137.475
X191.175Y-127.264
X191.4Y-149.3
X191.85Y-131.15
X191.975Y-127.264
X192.05Y-133.5
X192.25Y-137.85
X192.3Y-130.25
X192.65Y-132.
X192.65Y-141.4
X192.8Y-124.6
X193.Y-123.3
X193.15Y-137.85
X193.575Y-128.475
X193.6Y-122.1
X193.8Y-147.45
X193.9Y-123.3
X193.9Y-124.6
X194.Y-138.75
X194.1Y-131.15
X194.125Y-129.275
X194.125Y-133.275
X194.125Y-133.875
X194.125Y-134.425
X194.125Y-134.975
X194.375Y-127.264
X194.6Y-137.2
X194.725Y-129.675
X194.975Y-133.275
X194.975Y-133.875
X194.975Y-134.425
X194.975Y-134.975
X195.175Y-127.264
X195.475Y-136.525
X195.825Y-133.275
X195.825Y-133.875
X195.825Y-134.425
X195.825Y-134.975
X195.95Y-148.4
X195.95Y-149.3
X196.025Y-124.625
X196.25Y-137.8
X196.45Y-147.45
X197.Y-145.7
X197.025Y-128.175
X197.025Y-129.075
X197.175Y-129.925
X197.175Y-131.175
X197.375Y-133.975
X197.375Y-134.625
X197.375Y-135.325
X197.725Y-126.175
X197.75Y-150.75
X198.5Y-150.3
X198.575Y-126.175
X199.05Y-143.4
X199.05Y-146.9
X199.1Y-151.2
X199.3Y-140.8
X199.75Y-141.25
X199.9Y-122.85
X200.225Y-127.925
X200.875Y-124.325
X200.875Y-125.925
X200.875Y-127.925
X201.3Y-145.6
X201.3Y-147.35
X201.425Y-134.375
X201.425Y-135.825
X201.525Y-127.925
X201.85Y-146.4
X202.025Y-136.625
X202.225Y-135.125
X202.925Y-135.525
X202.925Y-137.675
X203.825Y-136.625
X204.Y-122.
X204.125Y-128.175
X204.125Y-129.075
X204.6Y-146.4
X205.1Y-141.4
X205.1Y-145.4
X206.4Y-149.8
X206.65Y-144.65
X207.25Y-122.1
X207.55Y-123.8
X207.65Y-126.7
X207.65Y-127.95
X207.65Y-129.25
X207.65Y-131.75
X207.65Y-133.05
X207.65Y-146.4
X208.2Y-125.4
X208.35Y-122.1
X208.95Y-143.6
X208.95Y-148.8
X209.2Y-123.3
X209.2Y-125.4
X209.7Y-146.4
X210.1Y-136.7
X210.2Y-123.2
X210.2Y-125.4
X211.2Y-123.2
X211.65Y-126.7
X211.65Y-127.95
X211.65Y-129.25
X211.65Y-131.8
X211.65Y-133.05
X211.65Y-134.3
X211.65Y-137.6
X211.7Y-142.5
X211.75Y-148.4
X212.35Y-136.05
X212.5Y-123.2
X212.75Y-146.45
X213.15Y-135.1
X213.2Y-136.05
T2
X108.55Y-126.85
X108.55Y-128.4
X109.4Y-140.4
X109.4Y-141.2
X109.4Y-143.8
X109.4Y-144.7
X109.4Y-145.6
X109.4Y-148.2
X109.4Y-149.
X110.2Y-140.4
X110.2Y-141.2
X110.2Y-143.8
X110.2Y-144.7
X110.2Y-145.6
X110.2Y-148.2
X110.2Y-149.
X112.4Y-122.4
X114.3Y-122.4
X116.2Y-122.4
X118.1Y-122.4
X122.9Y-145.7
X124.Y-145.7
X132.6Y-124.
X133.8Y-124.
X138.35Y-137.1
X138.35Y-138.3
X138.8Y-137.7
X139.25Y-137.1
X139.25Y-138.3
X143.15Y-142.45
X143.15Y-143.35
X143.15Y-144.15
X143.15Y-144.95
X144.05Y-142.45
X144.05Y-143.35
X144.05Y-144.15
X144.05Y-144.95
X158.85Y-148.75
X158.85Y-150.45
X159.75Y-148.75
X159.75Y-150.45
X169.3Y-125.15
X170.8Y-125.15
X172.6Y-125.15
X174.1Y-125.15
X175.55Y-135.4
X175.55Y-136.6
X177.05Y-133.05
X177.05Y-135.4
X177.05Y-136.6
X178.5Y-133.05
X179.4Y-126.
X179.4Y-127.
X179.4Y-128.
X179.4Y-128.85
X179.4Y-129.7
X179.4Y-131.5
X179.4Y-133.05
X179.6Y-135.85
X179.6Y-136.75
X180.3Y-126.
X180.3Y-127.
X180.3Y-128.
X180.3Y-128.85
X180.3Y-129.7
X180.3Y-131.5
X180.4Y-135.85
X180.4Y-136.75
X181.2Y-135.85
X181.2Y-136.75
X182.Y-126.
X182.Y-127.
X182.Y-135.85
X182.Y-136.75
X183.5Y-126.
X183.5Y-127.
X188.3Y-124.7
X188.3Y-127.9
X188.3Y-129.5
X188.3Y-132.65
X188.3Y-134.9
X188.3Y-136.5
X188.3Y-138.3
X188.3Y-140.1
X188.6Y-144.8
X189.6Y-127.9
X189.8Y-140.1
X191.2Y-144.8
X191.4Y-140.1
X192.Y-123.1
X192.9Y-140.1
X193.2Y-127.3
X193.7Y-144.8
X194.5Y-140.1
X195.1Y-122.3
X195.1Y-123.1
X196.Y-140.1
X196.85Y-140.1
X201.2Y-151.
X201.3Y-140.1
X202.9Y-140.1
X202.9Y-145.9
X204.3Y-151.
X204.4Y-133.4
X204.4Y-134.5
X204.7Y-137.8
X204.8Y-124.45
X204.8Y-125.9
X204.8Y-130.8
X205.1Y-140.1
X205.6Y-128.8
X205.6Y-133.4
X205.6Y-134.5
X205.6Y-135.5
X206.Y-145.9
X206.4Y-124.45
X206.4Y-130.8
X206.4Y-136.6
X206.4Y-137.8
X206.4Y-140.1
X207.6Y-151.
X208.3Y-145.9
X210.7Y-145.9
X210.7Y-151.
X211.3Y-140.7
X212.2Y-145.9
X212.5Y-138.7
X212.5Y-140.7
X213.7Y-123.2
X213.7Y-125.2
X213.7Y-138.7
X213.7Y-140.7
T3
X109.8Y-142.45
X109.8Y-146.95
T3
X110.55Y-138.85G85X109.05Y-138.85
G05
X110.55Y-150.55G85X109.05Y-150.55
G05
T0
M30
