G04 (created by PCBNEW (2013-07-07 BZR 4022)-stable) date 27/11/2015 23:20:54*
%MOIN*%
G04 Gerber Fmt 3.4, Leading zero omitted, Abs format*
%FSLAX34Y34*%
G01*
G70*
G90*
G04 APERTURE LIST*
%ADD10C,0.005*%
%ADD11C,0.0077*%
%ADD12C,0.00787402*%
%ADD13C,0.011811*%
G04 APERTURE END LIST*
G54D10*
G54D11*
X87559Y-44881D02*
X39291Y-44881D01*
X87559Y-62913D02*
X87559Y-44881D01*
X39291Y-62913D02*
X87559Y-62913D01*
X39291Y-44881D02*
X39291Y-62913D01*
X85590Y-46850D02*
X84724Y-46850D01*
X85590Y-60944D02*
X85590Y-46850D01*
X84724Y-60944D02*
X85590Y-60944D01*
X41259Y-60944D02*
X45118Y-60944D01*
X41259Y-46850D02*
X41259Y-60944D01*
X45118Y-46850D02*
X41259Y-46850D01*
X67480Y-46850D02*
X83700Y-46850D01*
X46141Y-46850D02*
X66456Y-46850D01*
X67480Y-60944D02*
X83700Y-60944D01*
X46141Y-60944D02*
X66456Y-60944D01*
X46141Y-60000D02*
X46141Y-60944D01*
X45118Y-60000D02*
X45118Y-60944D01*
X45118Y-46850D02*
X45118Y-47716D01*
X42125Y-47716D02*
X42125Y-60000D01*
X84724Y-60000D02*
X42125Y-60000D01*
X84724Y-47716D02*
X84724Y-60000D01*
X42125Y-47716D02*
X84724Y-47716D01*
X66456Y-60000D02*
X66456Y-60944D01*
X67480Y-60000D02*
X67480Y-60944D01*
X83700Y-60000D02*
X83700Y-60944D01*
X84724Y-60000D02*
X84724Y-60944D01*
X66456Y-46850D02*
X66456Y-47716D01*
X83700Y-46850D02*
X83700Y-47716D01*
X67480Y-47716D02*
X67480Y-46850D01*
X84724Y-47716D02*
X84724Y-46850D01*
X46141Y-46850D02*
X46141Y-47716D01*
G54D12*
X42460Y-49448D02*
X42539Y-49527D01*
X42539Y-49448D02*
X42460Y-49527D01*
X42460Y-50905D02*
X42539Y-50984D01*
X42539Y-50905D02*
X42460Y-50984D01*
X42460Y-52795D02*
X42539Y-52874D01*
X42539Y-52795D02*
X42460Y-52874D01*
X43228Y-52145D02*
X43307Y-52224D01*
X43307Y-52145D02*
X43228Y-52224D01*
X43228Y-53208D02*
X43307Y-53287D01*
X43307Y-53208D02*
X43228Y-53287D01*
X43444Y-51496D02*
X43523Y-51574D01*
X43523Y-51496D02*
X43444Y-51574D01*
X43562Y-48681D02*
X43641Y-48759D01*
X43641Y-48681D02*
X43562Y-48759D01*
X43641Y-52677D02*
X43720Y-52755D01*
X43720Y-52677D02*
X43641Y-52755D01*
X43661Y-55748D02*
X43740Y-55826D01*
X43740Y-55748D02*
X43661Y-55826D01*
X43661Y-56929D02*
X43740Y-57007D01*
X43740Y-56929D02*
X43661Y-57007D01*
X43858Y-48031D02*
X43937Y-48110D01*
X43937Y-48031D02*
X43858Y-48110D01*
X43877Y-48562D02*
X43956Y-48641D01*
X43956Y-48562D02*
X43877Y-48641D01*
X43897Y-52362D02*
X43976Y-52440D01*
X43976Y-52362D02*
X43897Y-52440D01*
X43937Y-50059D02*
X44015Y-50137D01*
X44015Y-50059D02*
X43937Y-50137D01*
X43937Y-50275D02*
X44015Y-50354D01*
X44015Y-50275D02*
X43937Y-50354D01*
X43937Y-50492D02*
X44015Y-50570D01*
X44015Y-50492D02*
X43937Y-50570D01*
X44114Y-52992D02*
X44192Y-53070D01*
X44192Y-52992D02*
X44114Y-53070D01*
X44232Y-50059D02*
X44311Y-50137D01*
X44311Y-50059D02*
X44232Y-50137D01*
X44232Y-50275D02*
X44311Y-50354D01*
X44311Y-50275D02*
X44232Y-50354D01*
X44232Y-50492D02*
X44311Y-50570D01*
X44311Y-50492D02*
X44232Y-50570D01*
X44251Y-48818D02*
X44330Y-48897D01*
X44330Y-48818D02*
X44251Y-48897D01*
X44311Y-53208D02*
X44389Y-53287D01*
X44389Y-53208D02*
X44311Y-53287D01*
X44507Y-50059D02*
X44586Y-50137D01*
X44586Y-50059D02*
X44507Y-50137D01*
X44507Y-50275D02*
X44586Y-50354D01*
X44586Y-50275D02*
X44507Y-50354D01*
X44507Y-50492D02*
X44586Y-50570D01*
X44586Y-50492D02*
X44507Y-50570D01*
X44527Y-53208D02*
X44606Y-53287D01*
X44606Y-53208D02*
X44527Y-53287D01*
X44685Y-56614D02*
X44763Y-56692D01*
X44763Y-56614D02*
X44685Y-56692D01*
X44685Y-56929D02*
X44763Y-57007D01*
X44763Y-56929D02*
X44685Y-57007D01*
X44685Y-57244D02*
X44763Y-57322D01*
X44763Y-57244D02*
X44685Y-57322D01*
X44685Y-57795D02*
X44763Y-57874D01*
X44763Y-57795D02*
X44685Y-57874D01*
X44685Y-58425D02*
X44763Y-58503D01*
X44763Y-58425D02*
X44685Y-58503D01*
X44803Y-50059D02*
X44881Y-50137D01*
X44881Y-50059D02*
X44803Y-50137D01*
X44803Y-50275D02*
X44881Y-50354D01*
X44881Y-50275D02*
X44803Y-50354D01*
X44803Y-50492D02*
X44881Y-50570D01*
X44881Y-50492D02*
X44803Y-50570D01*
X45078Y-50059D02*
X45157Y-50137D01*
X45157Y-50059D02*
X45078Y-50137D01*
X45078Y-50275D02*
X45157Y-50354D01*
X45157Y-50275D02*
X45078Y-50354D01*
X45078Y-50492D02*
X45157Y-50570D01*
X45157Y-50492D02*
X45078Y-50570D01*
X45255Y-52047D02*
X45334Y-52125D01*
X45334Y-52047D02*
X45255Y-52125D01*
X45393Y-52893D02*
X45472Y-52972D01*
X45472Y-52893D02*
X45393Y-52972D01*
X45511Y-51496D02*
X45590Y-51574D01*
X45590Y-51496D02*
X45511Y-51574D01*
X45708Y-52618D02*
X45787Y-52696D01*
X45787Y-52618D02*
X45708Y-52696D01*
X45708Y-53582D02*
X45787Y-53661D01*
X45787Y-53582D02*
X45708Y-53661D01*
X45708Y-53838D02*
X45787Y-53917D01*
X45787Y-53838D02*
X45708Y-53917D01*
X45767Y-48858D02*
X45846Y-48937D01*
X45846Y-48858D02*
X45767Y-48937D01*
X45866Y-58661D02*
X45944Y-58740D01*
X45944Y-58661D02*
X45866Y-58740D01*
X45866Y-58858D02*
X45944Y-58937D01*
X45944Y-58858D02*
X45866Y-58937D01*
X45885Y-49803D02*
X45964Y-49881D01*
X45964Y-49803D02*
X45885Y-49881D01*
X45885Y-53405D02*
X45964Y-53484D01*
X45964Y-53405D02*
X45885Y-53484D01*
X45944Y-50826D02*
X46023Y-50905D01*
X46023Y-50826D02*
X45944Y-50905D01*
X45944Y-51633D02*
X46023Y-51712D01*
X46023Y-51633D02*
X45944Y-51712D01*
X45964Y-54724D02*
X46043Y-54803D01*
X46043Y-54724D02*
X45964Y-54803D01*
X45984Y-55511D02*
X46062Y-55590D01*
X46062Y-55511D02*
X45984Y-55590D01*
X45984Y-57224D02*
X46062Y-57303D01*
X46062Y-57224D02*
X45984Y-57303D01*
X45984Y-57421D02*
X46062Y-57500D01*
X46062Y-57421D02*
X45984Y-57500D01*
X45984Y-57618D02*
X46062Y-57696D01*
X46062Y-57618D02*
X45984Y-57696D01*
X46003Y-48562D02*
X46082Y-48641D01*
X46082Y-48562D02*
X46003Y-48641D01*
X46023Y-52755D02*
X46102Y-52834D01*
X46102Y-52755D02*
X46023Y-52834D01*
X46141Y-54212D02*
X46220Y-54291D01*
X46220Y-54212D02*
X46141Y-54291D01*
X46220Y-49271D02*
X46299Y-49350D01*
X46299Y-49271D02*
X46220Y-49350D01*
X46220Y-50905D02*
X46299Y-50984D01*
X46299Y-50905D02*
X46220Y-50984D01*
X46259Y-48562D02*
X46338Y-48641D01*
X46338Y-48562D02*
X46259Y-48641D01*
X46338Y-51515D02*
X46417Y-51594D01*
X46417Y-51515D02*
X46338Y-51594D01*
X46377Y-49527D02*
X46456Y-49606D01*
X46456Y-49527D02*
X46377Y-49606D01*
X46397Y-55984D02*
X46476Y-56062D01*
X46476Y-55984D02*
X46397Y-56062D01*
X46397Y-56181D02*
X46476Y-56259D01*
X46476Y-56181D02*
X46397Y-56259D01*
X46397Y-56377D02*
X46476Y-56456D01*
X46476Y-56377D02*
X46397Y-56456D01*
X46397Y-56594D02*
X46476Y-56673D01*
X46476Y-56594D02*
X46397Y-56673D01*
X46397Y-56791D02*
X46476Y-56870D01*
X46476Y-56791D02*
X46397Y-56870D01*
X46456Y-58661D02*
X46535Y-58740D01*
X46535Y-58661D02*
X46456Y-58740D01*
X46456Y-58858D02*
X46535Y-58937D01*
X46535Y-58858D02*
X46456Y-58937D01*
X46535Y-54212D02*
X46614Y-54291D01*
X46614Y-54212D02*
X46535Y-54291D01*
X46594Y-51220D02*
X46673Y-51299D01*
X46673Y-51220D02*
X46594Y-51299D01*
X46614Y-49527D02*
X46692Y-49606D01*
X46692Y-49527D02*
X46614Y-49606D01*
X46633Y-52539D02*
X46712Y-52618D01*
X46712Y-52539D02*
X46633Y-52618D01*
X46692Y-55984D02*
X46771Y-56062D01*
X46771Y-55984D02*
X46692Y-56062D01*
X46692Y-56181D02*
X46771Y-56259D01*
X46771Y-56181D02*
X46692Y-56259D01*
X46692Y-56377D02*
X46771Y-56456D01*
X46771Y-56377D02*
X46692Y-56456D01*
X46692Y-56594D02*
X46771Y-56673D01*
X46771Y-56594D02*
X46692Y-56673D01*
X46692Y-56791D02*
X46771Y-56870D01*
X46771Y-56791D02*
X46692Y-56870D01*
X46712Y-54763D02*
X46791Y-54842D01*
X46791Y-54763D02*
X46712Y-54842D01*
X46712Y-58031D02*
X46791Y-58110D01*
X46791Y-58031D02*
X46712Y-58110D01*
X46712Y-58267D02*
X46791Y-58346D01*
X46791Y-58267D02*
X46712Y-58346D01*
X46751Y-53405D02*
X46830Y-53484D01*
X46830Y-53405D02*
X46751Y-53484D01*
X46909Y-49527D02*
X46988Y-49606D01*
X46988Y-49527D02*
X46909Y-49606D01*
X46929Y-50944D02*
X47007Y-51023D01*
X47007Y-50944D02*
X46929Y-51023D01*
X46929Y-51259D02*
X47007Y-51338D01*
X47007Y-51259D02*
X46929Y-51338D01*
X46929Y-58267D02*
X47007Y-58346D01*
X47007Y-58267D02*
X46929Y-58346D01*
X46968Y-52637D02*
X47047Y-52716D01*
X47047Y-52637D02*
X46968Y-52716D01*
X46968Y-55984D02*
X47047Y-56062D01*
X47047Y-55984D02*
X46968Y-56062D01*
X46968Y-56181D02*
X47047Y-56259D01*
X47047Y-56181D02*
X46968Y-56259D01*
X46968Y-56377D02*
X47047Y-56456D01*
X47047Y-56377D02*
X46968Y-56456D01*
X46968Y-56594D02*
X47047Y-56673D01*
X47047Y-56594D02*
X46968Y-56673D01*
X46968Y-56791D02*
X47047Y-56870D01*
X47047Y-56791D02*
X46968Y-56870D01*
X47027Y-48562D02*
X47106Y-48641D01*
X47106Y-48562D02*
X47027Y-48641D01*
X47204Y-54763D02*
X47283Y-54842D01*
X47283Y-54763D02*
X47204Y-54842D01*
X47244Y-55984D02*
X47322Y-56062D01*
X47322Y-55984D02*
X47244Y-56062D01*
X47244Y-56181D02*
X47322Y-56259D01*
X47322Y-56181D02*
X47244Y-56259D01*
X47244Y-56377D02*
X47322Y-56456D01*
X47322Y-56377D02*
X47244Y-56456D01*
X47244Y-56594D02*
X47322Y-56673D01*
X47322Y-56594D02*
X47244Y-56673D01*
X47244Y-56791D02*
X47322Y-56870D01*
X47322Y-56791D02*
X47244Y-56870D01*
X47263Y-50374D02*
X47342Y-50452D01*
X47342Y-50374D02*
X47263Y-50452D01*
X47362Y-52637D02*
X47440Y-52716D01*
X47440Y-52637D02*
X47362Y-52716D01*
X47401Y-48031D02*
X47480Y-48110D01*
X47480Y-48031D02*
X47401Y-48110D01*
X47421Y-59606D02*
X47500Y-59685D01*
X47500Y-59606D02*
X47421Y-59685D01*
X47500Y-49980D02*
X47578Y-50059D01*
X47578Y-49980D02*
X47500Y-50059D01*
X47500Y-50688D02*
X47578Y-50767D01*
X47578Y-50688D02*
X47500Y-50767D01*
X47539Y-55984D02*
X47618Y-56062D01*
X47618Y-55984D02*
X47539Y-56062D01*
X47539Y-56181D02*
X47618Y-56259D01*
X47618Y-56181D02*
X47539Y-56259D01*
X47539Y-56377D02*
X47618Y-56456D01*
X47618Y-56377D02*
X47539Y-56456D01*
X47539Y-56594D02*
X47618Y-56673D01*
X47618Y-56594D02*
X47539Y-56673D01*
X47539Y-56791D02*
X47618Y-56870D01*
X47618Y-56791D02*
X47539Y-56870D01*
X47578Y-48661D02*
X47657Y-48740D01*
X47657Y-48661D02*
X47578Y-48740D01*
X47637Y-51633D02*
X47716Y-51712D01*
X47716Y-51633D02*
X47637Y-51712D01*
X47755Y-54291D02*
X47834Y-54370D01*
X47834Y-54291D02*
X47755Y-54370D01*
X47854Y-52322D02*
X47933Y-52401D01*
X47933Y-52322D02*
X47854Y-52401D01*
X47913Y-50826D02*
X47992Y-50905D01*
X47992Y-50826D02*
X47913Y-50905D01*
X47972Y-57224D02*
X48051Y-57303D01*
X48051Y-57224D02*
X47972Y-57303D01*
X47972Y-57421D02*
X48051Y-57500D01*
X48051Y-57421D02*
X47972Y-57500D01*
X47972Y-57618D02*
X48051Y-57696D01*
X48051Y-57618D02*
X47972Y-57696D01*
X47992Y-54783D02*
X48070Y-54862D01*
X48070Y-54783D02*
X47992Y-54862D01*
X48011Y-51062D02*
X48090Y-51141D01*
X48090Y-51062D02*
X48011Y-51141D01*
X48129Y-55059D02*
X48208Y-55137D01*
X48208Y-55059D02*
X48129Y-55137D01*
X48208Y-55826D02*
X48287Y-55905D01*
X48287Y-55826D02*
X48208Y-55905D01*
X48228Y-50826D02*
X48307Y-50905D01*
X48307Y-50826D02*
X48228Y-50905D01*
X48248Y-52637D02*
X48326Y-52716D01*
X48326Y-52637D02*
X48248Y-52716D01*
X48248Y-54212D02*
X48326Y-54291D01*
X48326Y-54212D02*
X48248Y-54291D01*
X48248Y-54527D02*
X48326Y-54606D01*
X48326Y-54527D02*
X48248Y-54606D01*
X48287Y-48543D02*
X48366Y-48622D01*
X48366Y-48543D02*
X48287Y-48622D01*
X48307Y-51850D02*
X48385Y-51929D01*
X48385Y-51850D02*
X48307Y-51929D01*
X48307Y-59015D02*
X48385Y-59094D01*
X48385Y-59015D02*
X48307Y-59094D01*
X48346Y-59409D02*
X48425Y-59488D01*
X48425Y-59409D02*
X48346Y-59488D01*
X48464Y-54744D02*
X48543Y-54822D01*
X48543Y-54744D02*
X48464Y-54822D01*
X48622Y-50905D02*
X48700Y-50984D01*
X48700Y-50905D02*
X48622Y-50984D01*
X48622Y-51161D02*
X48700Y-51240D01*
X48700Y-51161D02*
X48622Y-51240D01*
X48622Y-51850D02*
X48700Y-51929D01*
X48700Y-51850D02*
X48622Y-51929D01*
X48622Y-52795D02*
X48700Y-52874D01*
X48700Y-52795D02*
X48622Y-52874D01*
X48622Y-53110D02*
X48700Y-53188D01*
X48700Y-53110D02*
X48622Y-53188D01*
X48622Y-53425D02*
X48700Y-53503D01*
X48700Y-53425D02*
X48622Y-53503D01*
X48622Y-53740D02*
X48700Y-53818D01*
X48700Y-53740D02*
X48622Y-53818D01*
X48700Y-49370D02*
X48779Y-49448D01*
X48779Y-49370D02*
X48700Y-49448D01*
X48700Y-49566D02*
X48779Y-49645D01*
X48779Y-49566D02*
X48700Y-49645D01*
X48779Y-54744D02*
X48858Y-54822D01*
X48858Y-54744D02*
X48779Y-54822D01*
X48779Y-55354D02*
X48858Y-55433D01*
X48858Y-55354D02*
X48779Y-55433D01*
X48937Y-51535D02*
X49015Y-51614D01*
X49015Y-51535D02*
X48937Y-51614D01*
X48937Y-51850D02*
X49015Y-51929D01*
X49015Y-51850D02*
X48937Y-51929D01*
X48937Y-52165D02*
X49015Y-52244D01*
X49015Y-52165D02*
X48937Y-52244D01*
X48937Y-52480D02*
X49015Y-52559D01*
X49015Y-52480D02*
X48937Y-52559D01*
X48937Y-52795D02*
X49015Y-52874D01*
X49015Y-52795D02*
X48937Y-52874D01*
X48937Y-53110D02*
X49015Y-53188D01*
X49015Y-53110D02*
X48937Y-53188D01*
X48937Y-53425D02*
X49015Y-53503D01*
X49015Y-53425D02*
X48937Y-53503D01*
X48937Y-53740D02*
X49015Y-53818D01*
X49015Y-53740D02*
X48937Y-53818D01*
X48937Y-54055D02*
X49015Y-54133D01*
X49015Y-54055D02*
X48937Y-54133D01*
X48937Y-57755D02*
X49015Y-57834D01*
X49015Y-57755D02*
X48937Y-57834D01*
X48956Y-48602D02*
X49035Y-48681D01*
X49035Y-48602D02*
X48956Y-48681D01*
X48956Y-49665D02*
X49035Y-49744D01*
X49035Y-49665D02*
X48956Y-49744D01*
X48996Y-55826D02*
X49074Y-55905D01*
X49074Y-55826D02*
X48996Y-55905D01*
X48996Y-56161D02*
X49074Y-56240D01*
X49074Y-56161D02*
X48996Y-56240D01*
X49055Y-55334D02*
X49133Y-55413D01*
X49133Y-55334D02*
X49055Y-55413D01*
X49055Y-55590D02*
X49133Y-55669D01*
X49133Y-55590D02*
X49055Y-55669D01*
X49074Y-57224D02*
X49153Y-57303D01*
X49153Y-57224D02*
X49074Y-57303D01*
X49094Y-54744D02*
X49173Y-54822D01*
X49173Y-54744D02*
X49094Y-54822D01*
X49133Y-48799D02*
X49212Y-48877D01*
X49212Y-48799D02*
X49133Y-48877D01*
X49133Y-49862D02*
X49212Y-49940D01*
X49212Y-49862D02*
X49133Y-49940D01*
X49133Y-59015D02*
X49212Y-59094D01*
X49212Y-59015D02*
X49133Y-59094D01*
X49251Y-51535D02*
X49330Y-51614D01*
X49330Y-51535D02*
X49251Y-51614D01*
X49251Y-51850D02*
X49330Y-51929D01*
X49330Y-51850D02*
X49251Y-51929D01*
X49251Y-52165D02*
X49330Y-52244D01*
X49330Y-52165D02*
X49251Y-52244D01*
X49251Y-52480D02*
X49330Y-52559D01*
X49330Y-52480D02*
X49251Y-52559D01*
X49251Y-53110D02*
X49330Y-53188D01*
X49330Y-53110D02*
X49251Y-53188D01*
X49251Y-53425D02*
X49330Y-53503D01*
X49330Y-53425D02*
X49251Y-53503D01*
X49251Y-53740D02*
X49330Y-53818D01*
X49330Y-53740D02*
X49251Y-53818D01*
X49251Y-54055D02*
X49330Y-54133D01*
X49330Y-54055D02*
X49251Y-54133D01*
X49271Y-59606D02*
X49350Y-59685D01*
X49350Y-59606D02*
X49271Y-59685D01*
X49291Y-48031D02*
X49370Y-48110D01*
X49370Y-48031D02*
X49291Y-48110D01*
X49291Y-57362D02*
X49370Y-57440D01*
X49370Y-57362D02*
X49291Y-57440D01*
X49311Y-48996D02*
X49389Y-49074D01*
X49389Y-48996D02*
X49311Y-49074D01*
X49311Y-50059D02*
X49389Y-50137D01*
X49389Y-50059D02*
X49311Y-50137D01*
X49409Y-54744D02*
X49488Y-54822D01*
X49488Y-54744D02*
X49409Y-54822D01*
X49429Y-56023D02*
X49507Y-56102D01*
X49507Y-56023D02*
X49429Y-56102D01*
X49507Y-57578D02*
X49586Y-57657D01*
X49586Y-57578D02*
X49507Y-57657D01*
X49527Y-51161D02*
X49606Y-51240D01*
X49606Y-51161D02*
X49527Y-51240D01*
X49566Y-49370D02*
X49645Y-49448D01*
X49645Y-49370D02*
X49566Y-49448D01*
X49566Y-50452D02*
X49645Y-50531D01*
X49645Y-50452D02*
X49566Y-50531D01*
X49566Y-51850D02*
X49645Y-51929D01*
X49645Y-51850D02*
X49566Y-51929D01*
X49566Y-52165D02*
X49645Y-52244D01*
X49645Y-52165D02*
X49566Y-52244D01*
X49566Y-52480D02*
X49645Y-52559D01*
X49645Y-52480D02*
X49566Y-52559D01*
X49566Y-52795D02*
X49645Y-52874D01*
X49645Y-52795D02*
X49566Y-52874D01*
X49566Y-53110D02*
X49645Y-53188D01*
X49645Y-53110D02*
X49566Y-53188D01*
X49566Y-53425D02*
X49645Y-53503D01*
X49645Y-53425D02*
X49566Y-53503D01*
X49566Y-53740D02*
X49645Y-53818D01*
X49645Y-53740D02*
X49566Y-53818D01*
X49566Y-54370D02*
X49645Y-54448D01*
X49645Y-54370D02*
X49566Y-54448D01*
X49704Y-57696D02*
X49783Y-57775D01*
X49783Y-57696D02*
X49704Y-57775D01*
X49724Y-54744D02*
X49803Y-54822D01*
X49803Y-54744D02*
X49724Y-54822D01*
X49744Y-48129D02*
X49822Y-48208D01*
X49822Y-48129D02*
X49744Y-48208D01*
X49783Y-55590D02*
X49862Y-55669D01*
X49862Y-55590D02*
X49783Y-55669D01*
X49803Y-55334D02*
X49881Y-55413D01*
X49881Y-55334D02*
X49803Y-55413D01*
X49803Y-56181D02*
X49881Y-56259D01*
X49881Y-56181D02*
X49803Y-56259D01*
X49881Y-51850D02*
X49960Y-51929D01*
X49960Y-51850D02*
X49881Y-51929D01*
X49881Y-52165D02*
X49960Y-52244D01*
X49960Y-52165D02*
X49881Y-52244D01*
X49881Y-52480D02*
X49960Y-52559D01*
X49960Y-52480D02*
X49881Y-52559D01*
X49881Y-52795D02*
X49960Y-52874D01*
X49960Y-52795D02*
X49881Y-52874D01*
X49881Y-53740D02*
X49960Y-53818D01*
X49960Y-53740D02*
X49881Y-53818D01*
X49881Y-54055D02*
X49960Y-54133D01*
X49960Y-54055D02*
X49881Y-54133D01*
X49921Y-57578D02*
X50000Y-57657D01*
X50000Y-57578D02*
X49921Y-57657D01*
X49960Y-58149D02*
X50039Y-58228D01*
X50039Y-58149D02*
X49960Y-58228D01*
X50000Y-48129D02*
X50078Y-48208D01*
X50078Y-48129D02*
X50000Y-48208D01*
X50039Y-51161D02*
X50118Y-51240D01*
X50118Y-51161D02*
X50039Y-51240D01*
X50039Y-54744D02*
X50118Y-54822D01*
X50118Y-54744D02*
X50039Y-54822D01*
X50059Y-49429D02*
X50137Y-49507D01*
X50137Y-49429D02*
X50059Y-49507D01*
X50059Y-50413D02*
X50137Y-50492D01*
X50137Y-50413D02*
X50059Y-50492D01*
X50196Y-51535D02*
X50275Y-51614D01*
X50275Y-51535D02*
X50196Y-51614D01*
X50196Y-51850D02*
X50275Y-51929D01*
X50275Y-51850D02*
X50196Y-51929D01*
X50196Y-52165D02*
X50275Y-52244D01*
X50275Y-52165D02*
X50196Y-52244D01*
X50196Y-52795D02*
X50275Y-52874D01*
X50275Y-52795D02*
X50196Y-52874D01*
X50196Y-53110D02*
X50275Y-53188D01*
X50275Y-53110D02*
X50196Y-53188D01*
X50196Y-53425D02*
X50275Y-53503D01*
X50275Y-53425D02*
X50196Y-53503D01*
X50196Y-53740D02*
X50275Y-53818D01*
X50275Y-53740D02*
X50196Y-53818D01*
X50196Y-54055D02*
X50275Y-54133D01*
X50275Y-54055D02*
X50196Y-54133D01*
X50216Y-57696D02*
X50295Y-57775D01*
X50295Y-57696D02*
X50216Y-57775D01*
X50275Y-48602D02*
X50354Y-48681D01*
X50354Y-48602D02*
X50275Y-48681D01*
X50314Y-50059D02*
X50393Y-50137D01*
X50393Y-50059D02*
X50314Y-50137D01*
X50334Y-50669D02*
X50413Y-50748D01*
X50413Y-50669D02*
X50334Y-50748D01*
X50354Y-51161D02*
X50433Y-51240D01*
X50433Y-51161D02*
X50354Y-51240D01*
X50354Y-54744D02*
X50433Y-54822D01*
X50433Y-54744D02*
X50354Y-54822D01*
X50433Y-59409D02*
X50511Y-59488D01*
X50511Y-59409D02*
X50433Y-59488D01*
X50511Y-51535D02*
X50590Y-51614D01*
X50590Y-51535D02*
X50511Y-51614D01*
X50511Y-51850D02*
X50590Y-51929D01*
X50590Y-51850D02*
X50511Y-51929D01*
X50511Y-52165D02*
X50590Y-52244D01*
X50590Y-52165D02*
X50511Y-52244D01*
X50511Y-52480D02*
X50590Y-52559D01*
X50590Y-52480D02*
X50511Y-52559D01*
X50511Y-53110D02*
X50590Y-53188D01*
X50590Y-53110D02*
X50511Y-53188D01*
X50511Y-53740D02*
X50590Y-53818D01*
X50590Y-53740D02*
X50511Y-53818D01*
X50669Y-51161D02*
X50748Y-51240D01*
X50748Y-51161D02*
X50669Y-51240D01*
X50669Y-54744D02*
X50748Y-54822D01*
X50748Y-54744D02*
X50669Y-54822D01*
X50688Y-56299D02*
X50767Y-56377D01*
X50767Y-56299D02*
X50688Y-56377D01*
X50688Y-59094D02*
X50767Y-59173D01*
X50767Y-59094D02*
X50688Y-59173D01*
X50738Y-55354D02*
X50816Y-55433D01*
X50816Y-55354D02*
X50738Y-55433D01*
X50826Y-51535D02*
X50905Y-51614D01*
X50905Y-51535D02*
X50826Y-51614D01*
X50826Y-51850D02*
X50905Y-51929D01*
X50905Y-51850D02*
X50826Y-51929D01*
X50826Y-52165D02*
X50905Y-52244D01*
X50905Y-52165D02*
X50826Y-52244D01*
X50826Y-52480D02*
X50905Y-52559D01*
X50905Y-52480D02*
X50826Y-52559D01*
X50826Y-52795D02*
X50905Y-52874D01*
X50905Y-52795D02*
X50826Y-52874D01*
X50826Y-53110D02*
X50905Y-53188D01*
X50905Y-53110D02*
X50826Y-53188D01*
X50826Y-54055D02*
X50905Y-54133D01*
X50905Y-54055D02*
X50826Y-54133D01*
X50826Y-54370D02*
X50905Y-54448D01*
X50905Y-54370D02*
X50826Y-54448D01*
X50866Y-48602D02*
X50944Y-48681D01*
X50944Y-48602D02*
X50866Y-48681D01*
X50866Y-48996D02*
X50944Y-49074D01*
X50944Y-48996D02*
X50866Y-49074D01*
X50866Y-49271D02*
X50944Y-49350D01*
X50944Y-49271D02*
X50866Y-49350D01*
X50866Y-49665D02*
X50944Y-49744D01*
X50944Y-49665D02*
X50866Y-49744D01*
X50905Y-50059D02*
X50984Y-50137D01*
X50984Y-50059D02*
X50905Y-50137D01*
X50984Y-51161D02*
X51062Y-51240D01*
X51062Y-51161D02*
X50984Y-51240D01*
X51003Y-56299D02*
X51082Y-56377D01*
X51082Y-56299D02*
X51003Y-56377D01*
X51003Y-59094D02*
X51082Y-59173D01*
X51082Y-59094D02*
X51003Y-59173D01*
X51062Y-48799D02*
X51141Y-48877D01*
X51141Y-48799D02*
X51062Y-48877D01*
X51102Y-57559D02*
X51181Y-57637D01*
X51181Y-57559D02*
X51102Y-57637D01*
X51141Y-51535D02*
X51220Y-51614D01*
X51220Y-51535D02*
X51141Y-51614D01*
X51141Y-51850D02*
X51220Y-51929D01*
X51220Y-51850D02*
X51141Y-51929D01*
X51141Y-52165D02*
X51220Y-52244D01*
X51220Y-52165D02*
X51141Y-52244D01*
X51141Y-52480D02*
X51220Y-52559D01*
X51220Y-52480D02*
X51141Y-52559D01*
X51141Y-52795D02*
X51220Y-52874D01*
X51220Y-52795D02*
X51141Y-52874D01*
X51141Y-53110D02*
X51220Y-53188D01*
X51220Y-53110D02*
X51141Y-53188D01*
X51220Y-49645D02*
X51299Y-49724D01*
X51299Y-49645D02*
X51220Y-49724D01*
X51299Y-51161D02*
X51377Y-51240D01*
X51377Y-51161D02*
X51299Y-51240D01*
X51338Y-57559D02*
X51417Y-57637D01*
X51417Y-57559D02*
X51338Y-57637D01*
X51358Y-57893D02*
X51437Y-57972D01*
X51437Y-57893D02*
X51358Y-57972D01*
X51358Y-58110D02*
X51437Y-58188D01*
X51437Y-58110D02*
X51358Y-58188D01*
X51358Y-58326D02*
X51437Y-58405D01*
X51437Y-58326D02*
X51358Y-58405D01*
X51358Y-59153D02*
X51437Y-59232D01*
X51437Y-59153D02*
X51358Y-59232D01*
X51377Y-48307D02*
X51456Y-48385D01*
X51456Y-48307D02*
X51377Y-48385D01*
X51397Y-55137D02*
X51476Y-55216D01*
X51476Y-55137D02*
X51397Y-55216D01*
X51456Y-51535D02*
X51535Y-51614D01*
X51535Y-51535D02*
X51456Y-51614D01*
X51456Y-51850D02*
X51535Y-51929D01*
X51535Y-51850D02*
X51456Y-51929D01*
X51456Y-52165D02*
X51535Y-52244D01*
X51535Y-52165D02*
X51456Y-52244D01*
X51456Y-52480D02*
X51535Y-52559D01*
X51535Y-52480D02*
X51456Y-52559D01*
X51456Y-52795D02*
X51535Y-52874D01*
X51535Y-52795D02*
X51456Y-52874D01*
X51456Y-53110D02*
X51535Y-53188D01*
X51535Y-53110D02*
X51456Y-53188D01*
X51456Y-53425D02*
X51535Y-53503D01*
X51535Y-53425D02*
X51456Y-53503D01*
X51456Y-53897D02*
X51535Y-53976D01*
X51535Y-53897D02*
X51456Y-53976D01*
X51456Y-54370D02*
X51535Y-54448D01*
X51535Y-54370D02*
X51456Y-54448D01*
X51503Y-49653D02*
X51582Y-49732D01*
X51582Y-49653D02*
X51503Y-49732D01*
X51535Y-57559D02*
X51614Y-57637D01*
X51614Y-57559D02*
X51535Y-57637D01*
X51614Y-51161D02*
X51692Y-51240D01*
X51692Y-51161D02*
X51614Y-51240D01*
X51653Y-48464D02*
X51732Y-48543D01*
X51732Y-48464D02*
X51653Y-48543D01*
X51653Y-55137D02*
X51732Y-55216D01*
X51732Y-55137D02*
X51653Y-55216D01*
X51771Y-51535D02*
X51850Y-51614D01*
X51850Y-51535D02*
X51771Y-51614D01*
X51830Y-52007D02*
X51909Y-52086D01*
X51909Y-52007D02*
X51830Y-52086D01*
X51830Y-52637D02*
X51909Y-52716D01*
X51909Y-52637D02*
X51830Y-52716D01*
X51830Y-52952D02*
X51909Y-53031D01*
X51909Y-52952D02*
X51830Y-53031D01*
X51830Y-53267D02*
X51909Y-53346D01*
X51909Y-53267D02*
X51830Y-53346D01*
X51830Y-53897D02*
X51909Y-53976D01*
X51909Y-53897D02*
X51830Y-53976D01*
X51830Y-54212D02*
X51909Y-54291D01*
X51909Y-54212D02*
X51830Y-54291D01*
X51830Y-54527D02*
X51909Y-54606D01*
X51909Y-54527D02*
X51830Y-54606D01*
X51850Y-55551D02*
X51929Y-55629D01*
X51929Y-55551D02*
X51850Y-55629D01*
X51870Y-48129D02*
X51948Y-48208D01*
X51948Y-48129D02*
X51870Y-48208D01*
X51909Y-55137D02*
X51988Y-55216D01*
X51988Y-55137D02*
X51909Y-55216D01*
X52047Y-51358D02*
X52125Y-51437D01*
X52125Y-51358D02*
X52047Y-51437D01*
X52086Y-50098D02*
X52165Y-50177D01*
X52165Y-50098D02*
X52086Y-50177D01*
X52204Y-54212D02*
X52283Y-54291D01*
X52283Y-54212D02*
X52204Y-54291D01*
X52204Y-54527D02*
X52283Y-54606D01*
X52283Y-54527D02*
X52204Y-54606D01*
X52322Y-58740D02*
X52401Y-58818D01*
X52401Y-58740D02*
X52322Y-58818D01*
X52322Y-58996D02*
X52401Y-59074D01*
X52401Y-58996D02*
X52322Y-59074D01*
X52362Y-51358D02*
X52440Y-51437D01*
X52440Y-51358D02*
X52362Y-51437D01*
X52539Y-54940D02*
X52618Y-55019D01*
X52618Y-54940D02*
X52539Y-55019D01*
X52559Y-55590D02*
X52637Y-55669D01*
X52637Y-55590D02*
X52559Y-55669D01*
X52559Y-58996D02*
X52637Y-59074D01*
X52637Y-58996D02*
X52559Y-59074D01*
X52962Y-49301D02*
X53041Y-49379D01*
X53041Y-49301D02*
X52962Y-49379D01*
X53051Y-52381D02*
X53129Y-52460D01*
X53129Y-52381D02*
X53051Y-52460D01*
X53051Y-53267D02*
X53129Y-53346D01*
X53129Y-53267D02*
X53051Y-53346D01*
X53070Y-55354D02*
X53149Y-55433D01*
X53149Y-55354D02*
X53070Y-55433D01*
X53110Y-48031D02*
X53188Y-48110D01*
X53188Y-48031D02*
X53110Y-48110D01*
X53110Y-54173D02*
X53188Y-54251D01*
X53188Y-54173D02*
X53110Y-54251D01*
X53129Y-59606D02*
X53208Y-59685D01*
X53208Y-59606D02*
X53129Y-59685D01*
X53169Y-58405D02*
X53248Y-58484D01*
X53248Y-58405D02*
X53169Y-58484D01*
X53169Y-58602D02*
X53248Y-58681D01*
X53248Y-58602D02*
X53169Y-58681D01*
X53169Y-58799D02*
X53248Y-58877D01*
X53248Y-58799D02*
X53169Y-58877D01*
X53169Y-58996D02*
X53248Y-59074D01*
X53248Y-58996D02*
X53169Y-59074D01*
X53198Y-48750D02*
X53277Y-48828D01*
X53277Y-48750D02*
X53198Y-48828D01*
X53307Y-52716D02*
X53385Y-52795D01*
X53385Y-52716D02*
X53307Y-52795D01*
X53307Y-53976D02*
X53385Y-54055D01*
X53385Y-53976D02*
X53307Y-54055D01*
X53307Y-54370D02*
X53385Y-54448D01*
X53385Y-54370D02*
X53307Y-54448D01*
X53346Y-53267D02*
X53425Y-53346D01*
X53425Y-53267D02*
X53346Y-53346D01*
X53346Y-55354D02*
X53425Y-55433D01*
X53425Y-55354D02*
X53346Y-55433D01*
X53356Y-49458D02*
X53435Y-49537D01*
X53435Y-49458D02*
X53356Y-49537D01*
X53356Y-51033D02*
X53435Y-51112D01*
X53435Y-51033D02*
X53356Y-51112D01*
X53356Y-51348D02*
X53435Y-51427D01*
X53435Y-51348D02*
X53356Y-51427D01*
X53366Y-50639D02*
X53444Y-50718D01*
X53444Y-50639D02*
X53366Y-50718D01*
X53503Y-55590D02*
X53582Y-55669D01*
X53582Y-55590D02*
X53503Y-55669D01*
X53513Y-49852D02*
X53592Y-49931D01*
X53592Y-49852D02*
X53513Y-49931D01*
X53622Y-52716D02*
X53700Y-52795D01*
X53700Y-52716D02*
X53622Y-52795D01*
X53671Y-49458D02*
X53750Y-49537D01*
X53750Y-49458D02*
X53671Y-49537D01*
X53671Y-51033D02*
X53750Y-51112D01*
X53750Y-51033D02*
X53671Y-51112D01*
X53779Y-53582D02*
X53858Y-53661D01*
X53858Y-53582D02*
X53779Y-53661D01*
X53779Y-56062D02*
X53858Y-56141D01*
X53858Y-56062D02*
X53779Y-56141D01*
X53828Y-48750D02*
X53907Y-48828D01*
X53907Y-48750D02*
X53828Y-48828D01*
X53828Y-49852D02*
X53907Y-49931D01*
X53907Y-49852D02*
X53828Y-49931D01*
X53828Y-50639D02*
X53907Y-50718D01*
X53907Y-50639D02*
X53828Y-50718D01*
X53917Y-58799D02*
X53996Y-58877D01*
X53996Y-58799D02*
X53917Y-58877D01*
X53917Y-58996D02*
X53996Y-59074D01*
X53996Y-58996D02*
X53917Y-59074D01*
X53937Y-52716D02*
X54015Y-52795D01*
X54015Y-52716D02*
X53937Y-52795D01*
X53986Y-49458D02*
X54064Y-49537D01*
X54064Y-49458D02*
X53986Y-49537D01*
X53986Y-51033D02*
X54064Y-51112D01*
X54064Y-51033D02*
X53986Y-51112D01*
X53986Y-51348D02*
X54064Y-51427D01*
X54064Y-51348D02*
X53986Y-51427D01*
X54055Y-59409D02*
X54133Y-59488D01*
X54133Y-59409D02*
X54055Y-59488D01*
X54143Y-49852D02*
X54222Y-49931D01*
X54222Y-49852D02*
X54143Y-49931D01*
X54143Y-50639D02*
X54222Y-50718D01*
X54222Y-50639D02*
X54143Y-50718D01*
X54153Y-53267D02*
X54232Y-53346D01*
X54232Y-53267D02*
X54153Y-53346D01*
X54301Y-49458D02*
X54379Y-49537D01*
X54379Y-49458D02*
X54301Y-49537D01*
X54301Y-51033D02*
X54379Y-51112D01*
X54379Y-51033D02*
X54301Y-51112D01*
X54458Y-49852D02*
X54537Y-49931D01*
X54537Y-49852D02*
X54458Y-49931D01*
X54458Y-50639D02*
X54537Y-50718D01*
X54537Y-50639D02*
X54458Y-50718D01*
X54616Y-49458D02*
X54694Y-49537D01*
X54694Y-49458D02*
X54616Y-49537D01*
X54616Y-51033D02*
X54694Y-51112D01*
X54694Y-51033D02*
X54616Y-51112D01*
X54616Y-51348D02*
X54694Y-51427D01*
X54694Y-51348D02*
X54616Y-51427D01*
X54665Y-58996D02*
X54744Y-59074D01*
X54744Y-58996D02*
X54665Y-59074D01*
X54773Y-49852D02*
X54852Y-49931D01*
X54852Y-49852D02*
X54773Y-49931D01*
X54773Y-50639D02*
X54852Y-50718D01*
X54852Y-50639D02*
X54773Y-50718D01*
X54931Y-49458D02*
X55009Y-49537D01*
X55009Y-49458D02*
X54931Y-49537D01*
X54931Y-51033D02*
X55009Y-51112D01*
X55009Y-51033D02*
X54931Y-51112D01*
X54931Y-51348D02*
X55009Y-51427D01*
X55009Y-51348D02*
X54931Y-51427D01*
X54980Y-59606D02*
X55059Y-59685D01*
X55059Y-59606D02*
X54980Y-59685D01*
X55000Y-48031D02*
X55078Y-48110D01*
X55078Y-48031D02*
X55000Y-48110D01*
X55059Y-52657D02*
X55137Y-52736D01*
X55137Y-52657D02*
X55059Y-52736D01*
X55059Y-56318D02*
X55137Y-56397D01*
X55137Y-56318D02*
X55059Y-56397D01*
X55088Y-48750D02*
X55167Y-48828D01*
X55167Y-48750D02*
X55088Y-48828D01*
X55088Y-49852D02*
X55167Y-49931D01*
X55167Y-49852D02*
X55088Y-49931D01*
X55088Y-50639D02*
X55167Y-50718D01*
X55167Y-50639D02*
X55088Y-50718D01*
X55246Y-49458D02*
X55324Y-49537D01*
X55324Y-49458D02*
X55246Y-49537D01*
X55246Y-51033D02*
X55324Y-51112D01*
X55324Y-51033D02*
X55246Y-51112D01*
X55246Y-51348D02*
X55324Y-51427D01*
X55324Y-51348D02*
X55246Y-51427D01*
X55354Y-56594D02*
X55433Y-56673D01*
X55433Y-56594D02*
X55354Y-56673D01*
X55403Y-48750D02*
X55482Y-48828D01*
X55482Y-48750D02*
X55403Y-48828D01*
X55403Y-49852D02*
X55482Y-49931D01*
X55482Y-49852D02*
X55403Y-49931D01*
X55403Y-50639D02*
X55482Y-50718D01*
X55482Y-50639D02*
X55403Y-50718D01*
X55433Y-53464D02*
X55511Y-53543D01*
X55511Y-53464D02*
X55433Y-53543D01*
X55433Y-55610D02*
X55511Y-55688D01*
X55511Y-55610D02*
X55433Y-55688D01*
X55492Y-58996D02*
X55570Y-59074D01*
X55570Y-58996D02*
X55492Y-59074D01*
X55561Y-49458D02*
X55639Y-49537D01*
X55639Y-49458D02*
X55561Y-49537D01*
X55561Y-51033D02*
X55639Y-51112D01*
X55639Y-51033D02*
X55561Y-51112D01*
X55561Y-51348D02*
X55639Y-51427D01*
X55639Y-51348D02*
X55561Y-51427D01*
X55718Y-48750D02*
X55797Y-48828D01*
X55797Y-48750D02*
X55718Y-48828D01*
X55718Y-49852D02*
X55797Y-49931D01*
X55797Y-49852D02*
X55718Y-49931D01*
X55718Y-50639D02*
X55797Y-50718D01*
X55797Y-50639D02*
X55718Y-50718D01*
X55875Y-49458D02*
X55954Y-49537D01*
X55954Y-49458D02*
X55875Y-49537D01*
X55875Y-51033D02*
X55954Y-51112D01*
X55954Y-51033D02*
X55875Y-51112D01*
X55875Y-51348D02*
X55954Y-51427D01*
X55954Y-51348D02*
X55875Y-51427D01*
X56003Y-55570D02*
X56082Y-55649D01*
X56082Y-55570D02*
X56003Y-55649D01*
X56033Y-48750D02*
X56112Y-48828D01*
X56112Y-48750D02*
X56033Y-48828D01*
X56033Y-49852D02*
X56112Y-49931D01*
X56112Y-49852D02*
X56033Y-49931D01*
X56033Y-50639D02*
X56112Y-50718D01*
X56112Y-50639D02*
X56033Y-50718D01*
X56062Y-52696D02*
X56141Y-52775D01*
X56141Y-52696D02*
X56062Y-52775D01*
X56190Y-51348D02*
X56269Y-51427D01*
X56269Y-51348D02*
X56190Y-51427D01*
X56200Y-57598D02*
X56279Y-57677D01*
X56279Y-57598D02*
X56200Y-57677D01*
X56200Y-57795D02*
X56279Y-57874D01*
X56279Y-57795D02*
X56200Y-57874D01*
X56240Y-55570D02*
X56318Y-55649D01*
X56318Y-55570D02*
X56240Y-55649D01*
X56318Y-58149D02*
X56397Y-58228D01*
X56397Y-58149D02*
X56318Y-58228D01*
X56318Y-58346D02*
X56397Y-58425D01*
X56397Y-58346D02*
X56318Y-58425D01*
X56318Y-58996D02*
X56397Y-59074D01*
X56397Y-58996D02*
X56318Y-59074D01*
X56348Y-48750D02*
X56427Y-48828D01*
X56427Y-48750D02*
X56348Y-48828D01*
X56348Y-49852D02*
X56427Y-49931D01*
X56427Y-49852D02*
X56348Y-49931D01*
X56348Y-50639D02*
X56427Y-50718D01*
X56427Y-50639D02*
X56348Y-50718D01*
X56397Y-52696D02*
X56476Y-52775D01*
X56476Y-52696D02*
X56397Y-52775D01*
X56505Y-49458D02*
X56584Y-49537D01*
X56584Y-49458D02*
X56505Y-49537D01*
X56505Y-51033D02*
X56584Y-51112D01*
X56584Y-51033D02*
X56505Y-51112D01*
X56505Y-51348D02*
X56584Y-51427D01*
X56584Y-51348D02*
X56505Y-51427D01*
X56555Y-58149D02*
X56633Y-58228D01*
X56633Y-58149D02*
X56555Y-58228D01*
X56555Y-58346D02*
X56633Y-58425D01*
X56633Y-58346D02*
X56555Y-58425D01*
X56663Y-48750D02*
X56742Y-48828D01*
X56742Y-48750D02*
X56663Y-48828D01*
X56663Y-49852D02*
X56742Y-49931D01*
X56742Y-49852D02*
X56663Y-49931D01*
X56663Y-50639D02*
X56742Y-50718D01*
X56742Y-50639D02*
X56663Y-50718D01*
X56820Y-49458D02*
X56899Y-49537D01*
X56899Y-49458D02*
X56820Y-49537D01*
X56820Y-51033D02*
X56899Y-51112D01*
X56899Y-51033D02*
X56820Y-51112D01*
X56820Y-51348D02*
X56899Y-51427D01*
X56899Y-51348D02*
X56820Y-51427D01*
X56978Y-48750D02*
X57057Y-48828D01*
X57057Y-48750D02*
X56978Y-48828D01*
X56978Y-49852D02*
X57057Y-49931D01*
X57057Y-49852D02*
X56978Y-49931D01*
X56978Y-50639D02*
X57057Y-50718D01*
X57057Y-50639D02*
X56978Y-50718D01*
X57047Y-57303D02*
X57125Y-57381D01*
X57125Y-57303D02*
X57047Y-57381D01*
X57135Y-49458D02*
X57214Y-49537D01*
X57214Y-49458D02*
X57135Y-49537D01*
X57135Y-51033D02*
X57214Y-51112D01*
X57214Y-51033D02*
X57135Y-51112D01*
X57135Y-51348D02*
X57214Y-51427D01*
X57214Y-51348D02*
X57135Y-51427D01*
X57244Y-55531D02*
X57322Y-55610D01*
X57322Y-55531D02*
X57244Y-55610D01*
X57293Y-48750D02*
X57372Y-48828D01*
X57372Y-48750D02*
X57293Y-48828D01*
X57293Y-49852D02*
X57372Y-49931D01*
X57372Y-49852D02*
X57293Y-49931D01*
X57293Y-50639D02*
X57372Y-50718D01*
X57372Y-50639D02*
X57293Y-50718D01*
X57342Y-53917D02*
X57421Y-53996D01*
X57421Y-53917D02*
X57342Y-53996D01*
X57342Y-54192D02*
X57421Y-54271D01*
X57421Y-54192D02*
X57342Y-54271D01*
X57450Y-51348D02*
X57529Y-51427D01*
X57529Y-51348D02*
X57450Y-51427D01*
X57480Y-55531D02*
X57559Y-55610D01*
X57559Y-55531D02*
X57480Y-55610D01*
X57578Y-53267D02*
X57657Y-53346D01*
X57657Y-53267D02*
X57578Y-53346D01*
X57608Y-48750D02*
X57687Y-48828D01*
X57687Y-48750D02*
X57608Y-48828D01*
X57608Y-49852D02*
X57687Y-49931D01*
X57687Y-49852D02*
X57608Y-49931D01*
X57608Y-50639D02*
X57687Y-50718D01*
X57687Y-50639D02*
X57608Y-50718D01*
X57716Y-57027D02*
X57795Y-57106D01*
X57795Y-57027D02*
X57716Y-57106D01*
X57736Y-54192D02*
X57814Y-54271D01*
X57814Y-54192D02*
X57736Y-54271D01*
X57854Y-54940D02*
X57933Y-55019D01*
X57933Y-54940D02*
X57854Y-55019D01*
X57913Y-53267D02*
X57992Y-53346D01*
X57992Y-53267D02*
X57913Y-53346D01*
X57972Y-54370D02*
X58051Y-54448D01*
X58051Y-54370D02*
X57972Y-54448D01*
X58169Y-55826D02*
X58248Y-55905D01*
X58248Y-55826D02*
X58169Y-55905D01*
X58169Y-57834D02*
X58248Y-57913D01*
X58248Y-57834D02*
X58169Y-57913D01*
X58248Y-53267D02*
X58326Y-53346D01*
X58326Y-53267D02*
X58248Y-53346D01*
X58287Y-52204D02*
X58366Y-52283D01*
X58366Y-52204D02*
X58287Y-52283D01*
X58287Y-54370D02*
X58366Y-54448D01*
X58366Y-54370D02*
X58287Y-54448D01*
X58641Y-49685D02*
X58720Y-49763D01*
X58720Y-49685D02*
X58641Y-49763D01*
X58759Y-48750D02*
X58838Y-48828D01*
X58838Y-48750D02*
X58759Y-48828D01*
X58818Y-48031D02*
X58897Y-48110D01*
X58897Y-48031D02*
X58818Y-48110D01*
X58818Y-49842D02*
X58897Y-49921D01*
X58897Y-49842D02*
X58818Y-49921D01*
X58818Y-50236D02*
X58897Y-50314D01*
X58897Y-50236D02*
X58818Y-50314D01*
X58818Y-51023D02*
X58897Y-51102D01*
X58897Y-51023D02*
X58818Y-51102D01*
X58818Y-51417D02*
X58897Y-51496D01*
X58897Y-51417D02*
X58818Y-51496D01*
X58818Y-51811D02*
X58897Y-51889D01*
X58897Y-51811D02*
X58818Y-51889D01*
X58818Y-52204D02*
X58897Y-52283D01*
X58897Y-52204D02*
X58818Y-52283D01*
X58818Y-53385D02*
X58897Y-53464D01*
X58897Y-53385D02*
X58818Y-53464D01*
X58818Y-54566D02*
X58897Y-54645D01*
X58897Y-54566D02*
X58818Y-54645D01*
X58838Y-59606D02*
X58917Y-59685D01*
X58917Y-59606D02*
X58838Y-59685D01*
X58858Y-52598D02*
X58937Y-52677D01*
X58937Y-52598D02*
X58858Y-52677D01*
X58858Y-52992D02*
X58937Y-53070D01*
X58937Y-52992D02*
X58858Y-53070D01*
X58858Y-53779D02*
X58937Y-53858D01*
X58937Y-53779D02*
X58858Y-53858D01*
X58858Y-54173D02*
X58937Y-54251D01*
X58937Y-54173D02*
X58858Y-54251D01*
X58897Y-55472D02*
X58976Y-55551D01*
X58976Y-55472D02*
X58897Y-55551D01*
X59114Y-48759D02*
X59192Y-48838D01*
X59192Y-48759D02*
X59114Y-48838D01*
X59114Y-55255D02*
X59192Y-55334D01*
X59192Y-55255D02*
X59114Y-55334D01*
X59133Y-55649D02*
X59212Y-55728D01*
X59212Y-55649D02*
X59133Y-55728D01*
X59311Y-49645D02*
X59389Y-49724D01*
X59389Y-49645D02*
X59311Y-49724D01*
X59311Y-50039D02*
X59389Y-50118D01*
X59389Y-50039D02*
X59311Y-50118D01*
X59311Y-50433D02*
X59389Y-50511D01*
X59389Y-50433D02*
X59311Y-50511D01*
X59311Y-50826D02*
X59389Y-50905D01*
X59389Y-50826D02*
X59311Y-50905D01*
X59311Y-51220D02*
X59389Y-51299D01*
X59389Y-51220D02*
X59311Y-51299D01*
X59311Y-51614D02*
X59389Y-51692D01*
X59389Y-51614D02*
X59311Y-51692D01*
X59311Y-52007D02*
X59389Y-52086D01*
X59389Y-52007D02*
X59311Y-52086D01*
X59311Y-52401D02*
X59389Y-52480D01*
X59389Y-52401D02*
X59311Y-52480D01*
X59311Y-52795D02*
X59389Y-52874D01*
X59389Y-52795D02*
X59311Y-52874D01*
X59311Y-53188D02*
X59389Y-53267D01*
X59389Y-53188D02*
X59311Y-53267D01*
X59311Y-53582D02*
X59389Y-53661D01*
X59389Y-53582D02*
X59311Y-53661D01*
X59507Y-48759D02*
X59586Y-48838D01*
X59586Y-48759D02*
X59507Y-48838D01*
X59704Y-49645D02*
X59783Y-49724D01*
X59783Y-49645D02*
X59704Y-49724D01*
X59704Y-50039D02*
X59783Y-50118D01*
X59783Y-50039D02*
X59704Y-50118D01*
X59704Y-50433D02*
X59783Y-50511D01*
X59783Y-50433D02*
X59704Y-50511D01*
X59704Y-50826D02*
X59783Y-50905D01*
X59783Y-50826D02*
X59704Y-50905D01*
X59704Y-51220D02*
X59783Y-51299D01*
X59783Y-51220D02*
X59704Y-51299D01*
X59704Y-51614D02*
X59783Y-51692D01*
X59783Y-51614D02*
X59704Y-51692D01*
X59704Y-52007D02*
X59783Y-52086D01*
X59783Y-52007D02*
X59704Y-52086D01*
X59704Y-52401D02*
X59783Y-52480D01*
X59783Y-52401D02*
X59704Y-52480D01*
X59704Y-53188D02*
X59783Y-53267D01*
X59783Y-53188D02*
X59704Y-53267D01*
X59704Y-53976D02*
X59783Y-54055D01*
X59783Y-53976D02*
X59704Y-54055D01*
X59704Y-54370D02*
X59783Y-54448D01*
X59783Y-54370D02*
X59704Y-54448D01*
X59704Y-54763D02*
X59783Y-54842D01*
X59783Y-54763D02*
X59704Y-54842D01*
X59724Y-57637D02*
X59803Y-57716D01*
X59803Y-57637D02*
X59724Y-57716D01*
X59763Y-59389D02*
X59842Y-59468D01*
X59842Y-59389D02*
X59763Y-59468D01*
X59901Y-48759D02*
X59980Y-48838D01*
X59980Y-48759D02*
X59901Y-48838D01*
X59901Y-55295D02*
X59980Y-55374D01*
X59980Y-55295D02*
X59901Y-55374D01*
X59901Y-55649D02*
X59980Y-55728D01*
X59980Y-55649D02*
X59901Y-55728D01*
X60098Y-49251D02*
X60177Y-49330D01*
X60177Y-49251D02*
X60098Y-49330D01*
X60098Y-49645D02*
X60177Y-49724D01*
X60177Y-49645D02*
X60098Y-49724D01*
X60098Y-50039D02*
X60177Y-50118D01*
X60177Y-50039D02*
X60098Y-50118D01*
X60098Y-50433D02*
X60177Y-50511D01*
X60177Y-50433D02*
X60098Y-50511D01*
X60098Y-50826D02*
X60177Y-50905D01*
X60177Y-50826D02*
X60098Y-50905D01*
X60098Y-51220D02*
X60177Y-51299D01*
X60177Y-51220D02*
X60098Y-51299D01*
X60098Y-51614D02*
X60177Y-51692D01*
X60177Y-51614D02*
X60098Y-51692D01*
X60098Y-52007D02*
X60177Y-52086D01*
X60177Y-52007D02*
X60098Y-52086D01*
X60098Y-52401D02*
X60177Y-52480D01*
X60177Y-52401D02*
X60098Y-52480D01*
X60098Y-52795D02*
X60177Y-52874D01*
X60177Y-52795D02*
X60098Y-52874D01*
X60098Y-53188D02*
X60177Y-53267D01*
X60177Y-53188D02*
X60098Y-53267D01*
X60098Y-53582D02*
X60177Y-53661D01*
X60177Y-53582D02*
X60098Y-53661D01*
X60098Y-53976D02*
X60177Y-54055D01*
X60177Y-53976D02*
X60098Y-54055D01*
X60098Y-54763D02*
X60177Y-54842D01*
X60177Y-54763D02*
X60098Y-54842D01*
X60255Y-55255D02*
X60334Y-55334D01*
X60334Y-55255D02*
X60255Y-55334D01*
X60295Y-48759D02*
X60374Y-48838D01*
X60374Y-48759D02*
X60295Y-48838D01*
X60492Y-49251D02*
X60570Y-49330D01*
X60570Y-49251D02*
X60492Y-49330D01*
X60492Y-49645D02*
X60570Y-49724D01*
X60570Y-49645D02*
X60492Y-49724D01*
X60492Y-50039D02*
X60570Y-50118D01*
X60570Y-50039D02*
X60492Y-50118D01*
X60492Y-50433D02*
X60570Y-50511D01*
X60570Y-50433D02*
X60492Y-50511D01*
X60492Y-50826D02*
X60570Y-50905D01*
X60570Y-50826D02*
X60492Y-50905D01*
X60492Y-51220D02*
X60570Y-51299D01*
X60570Y-51220D02*
X60492Y-51299D01*
X60492Y-51614D02*
X60570Y-51692D01*
X60570Y-51614D02*
X60492Y-51692D01*
X60492Y-52007D02*
X60570Y-52086D01*
X60570Y-52007D02*
X60492Y-52086D01*
X60492Y-52401D02*
X60570Y-52480D01*
X60570Y-52401D02*
X60492Y-52480D01*
X60492Y-52795D02*
X60570Y-52874D01*
X60570Y-52795D02*
X60492Y-52874D01*
X60492Y-53188D02*
X60570Y-53267D01*
X60570Y-53188D02*
X60492Y-53267D01*
X60492Y-53976D02*
X60570Y-54055D01*
X60570Y-53976D02*
X60492Y-54055D01*
X60492Y-55255D02*
X60570Y-55334D01*
X60570Y-55255D02*
X60492Y-55334D01*
X60649Y-57637D02*
X60728Y-57716D01*
X60728Y-57637D02*
X60649Y-57716D01*
X60688Y-48759D02*
X60767Y-48838D01*
X60767Y-48759D02*
X60688Y-48838D01*
X60688Y-59606D02*
X60767Y-59685D01*
X60767Y-59606D02*
X60688Y-59685D01*
X60708Y-48031D02*
X60787Y-48110D01*
X60787Y-48031D02*
X60708Y-48110D01*
X60885Y-49251D02*
X60964Y-49330D01*
X60964Y-49251D02*
X60885Y-49330D01*
X60885Y-50039D02*
X60964Y-50118D01*
X60964Y-50039D02*
X60885Y-50118D01*
X60885Y-50433D02*
X60964Y-50511D01*
X60964Y-50433D02*
X60885Y-50511D01*
X60885Y-50826D02*
X60964Y-50905D01*
X60964Y-50826D02*
X60885Y-50905D01*
X60885Y-51220D02*
X60964Y-51299D01*
X60964Y-51220D02*
X60885Y-51299D01*
X60885Y-51614D02*
X60964Y-51692D01*
X60964Y-51614D02*
X60885Y-51692D01*
X60885Y-52401D02*
X60964Y-52480D01*
X60964Y-52401D02*
X60885Y-52480D01*
X60885Y-53976D02*
X60964Y-54055D01*
X60964Y-53976D02*
X60885Y-54055D01*
X60885Y-54370D02*
X60964Y-54448D01*
X60964Y-54370D02*
X60885Y-54448D01*
X60885Y-54763D02*
X60964Y-54842D01*
X60964Y-54763D02*
X60885Y-54842D01*
X61082Y-48759D02*
X61161Y-48838D01*
X61161Y-48759D02*
X61082Y-48838D01*
X61082Y-55255D02*
X61161Y-55334D01*
X61161Y-55255D02*
X61082Y-55334D01*
X61141Y-58267D02*
X61220Y-58346D01*
X61220Y-58267D02*
X61141Y-58346D01*
X61279Y-49251D02*
X61358Y-49330D01*
X61358Y-49251D02*
X61279Y-49330D01*
X61279Y-49645D02*
X61358Y-49724D01*
X61358Y-49645D02*
X61279Y-49724D01*
X61279Y-50039D02*
X61358Y-50118D01*
X61358Y-50039D02*
X61279Y-50118D01*
X61279Y-50433D02*
X61358Y-50511D01*
X61358Y-50433D02*
X61279Y-50511D01*
X61279Y-50826D02*
X61358Y-50905D01*
X61358Y-50826D02*
X61279Y-50905D01*
X61279Y-51220D02*
X61358Y-51299D01*
X61358Y-51220D02*
X61279Y-51299D01*
X61279Y-51614D02*
X61358Y-51692D01*
X61358Y-51614D02*
X61279Y-51692D01*
X61279Y-52007D02*
X61358Y-52086D01*
X61358Y-52007D02*
X61279Y-52086D01*
X61279Y-52401D02*
X61358Y-52480D01*
X61358Y-52401D02*
X61279Y-52480D01*
X61279Y-53188D02*
X61358Y-53267D01*
X61358Y-53188D02*
X61279Y-53267D01*
X61279Y-53582D02*
X61358Y-53661D01*
X61358Y-53582D02*
X61279Y-53661D01*
X61279Y-53976D02*
X61358Y-54055D01*
X61358Y-53976D02*
X61279Y-54055D01*
X61279Y-54370D02*
X61358Y-54448D01*
X61358Y-54370D02*
X61279Y-54448D01*
X61279Y-54763D02*
X61358Y-54842D01*
X61358Y-54763D02*
X61279Y-54842D01*
X61397Y-58267D02*
X61476Y-58346D01*
X61476Y-58267D02*
X61397Y-58346D01*
X61476Y-48759D02*
X61555Y-48838D01*
X61555Y-48759D02*
X61476Y-48838D01*
X61476Y-55255D02*
X61555Y-55334D01*
X61555Y-55255D02*
X61476Y-55334D01*
X61673Y-49251D02*
X61751Y-49330D01*
X61751Y-49251D02*
X61673Y-49330D01*
X61673Y-49645D02*
X61751Y-49724D01*
X61751Y-49645D02*
X61673Y-49724D01*
X61673Y-50039D02*
X61751Y-50118D01*
X61751Y-50039D02*
X61673Y-50118D01*
X61673Y-50433D02*
X61751Y-50511D01*
X61751Y-50433D02*
X61673Y-50511D01*
X61673Y-50826D02*
X61751Y-50905D01*
X61751Y-50826D02*
X61673Y-50905D01*
X61673Y-51220D02*
X61751Y-51299D01*
X61751Y-51220D02*
X61673Y-51299D01*
X61673Y-51614D02*
X61751Y-51692D01*
X61751Y-51614D02*
X61673Y-51692D01*
X61673Y-52007D02*
X61751Y-52086D01*
X61751Y-52007D02*
X61673Y-52086D01*
X61673Y-52401D02*
X61751Y-52480D01*
X61751Y-52401D02*
X61673Y-52480D01*
X61673Y-52795D02*
X61751Y-52874D01*
X61751Y-52795D02*
X61673Y-52874D01*
X61673Y-53188D02*
X61751Y-53267D01*
X61751Y-53188D02*
X61673Y-53267D01*
X61673Y-53582D02*
X61751Y-53661D01*
X61751Y-53582D02*
X61673Y-53661D01*
X61673Y-53976D02*
X61751Y-54055D01*
X61751Y-53976D02*
X61673Y-54055D01*
X61673Y-54370D02*
X61751Y-54448D01*
X61751Y-54370D02*
X61673Y-54448D01*
X61673Y-54763D02*
X61751Y-54842D01*
X61751Y-54763D02*
X61673Y-54842D01*
X61771Y-57519D02*
X61850Y-57598D01*
X61850Y-57519D02*
X61771Y-57598D01*
X61811Y-56732D02*
X61889Y-56811D01*
X61889Y-56732D02*
X61811Y-56811D01*
X61870Y-48759D02*
X61948Y-48838D01*
X61948Y-48759D02*
X61870Y-48838D01*
X61870Y-55255D02*
X61948Y-55334D01*
X61948Y-55255D02*
X61870Y-55334D01*
X62066Y-49251D02*
X62145Y-49330D01*
X62145Y-49251D02*
X62066Y-49330D01*
X62066Y-49645D02*
X62145Y-49724D01*
X62145Y-49645D02*
X62066Y-49724D01*
X62066Y-50039D02*
X62145Y-50118D01*
X62145Y-50039D02*
X62066Y-50118D01*
X62066Y-50433D02*
X62145Y-50511D01*
X62145Y-50433D02*
X62066Y-50511D01*
X62066Y-50826D02*
X62145Y-50905D01*
X62145Y-50826D02*
X62066Y-50905D01*
X62066Y-51614D02*
X62145Y-51692D01*
X62145Y-51614D02*
X62066Y-51692D01*
X62066Y-52007D02*
X62145Y-52086D01*
X62145Y-52007D02*
X62066Y-52086D01*
X62066Y-52401D02*
X62145Y-52480D01*
X62145Y-52401D02*
X62066Y-52480D01*
X62066Y-52795D02*
X62145Y-52874D01*
X62145Y-52795D02*
X62066Y-52874D01*
X62066Y-53188D02*
X62145Y-53267D01*
X62145Y-53188D02*
X62066Y-53267D01*
X62066Y-53582D02*
X62145Y-53661D01*
X62145Y-53582D02*
X62066Y-53661D01*
X62066Y-53976D02*
X62145Y-54055D01*
X62145Y-53976D02*
X62066Y-54055D01*
X62066Y-54370D02*
X62145Y-54448D01*
X62145Y-54370D02*
X62066Y-54448D01*
X62066Y-54763D02*
X62145Y-54842D01*
X62145Y-54763D02*
X62066Y-54842D01*
X62204Y-57519D02*
X62283Y-57598D01*
X62283Y-57519D02*
X62204Y-57598D01*
X62244Y-56732D02*
X62322Y-56811D01*
X62322Y-56732D02*
X62244Y-56811D01*
X62263Y-48759D02*
X62342Y-48838D01*
X62342Y-48759D02*
X62263Y-48838D01*
X62263Y-55255D02*
X62342Y-55334D01*
X62342Y-55255D02*
X62263Y-55334D01*
X62460Y-49251D02*
X62539Y-49330D01*
X62539Y-49251D02*
X62460Y-49330D01*
X62460Y-49645D02*
X62539Y-49724D01*
X62539Y-49645D02*
X62460Y-49724D01*
X62460Y-50039D02*
X62539Y-50118D01*
X62539Y-50039D02*
X62460Y-50118D01*
X62460Y-50433D02*
X62539Y-50511D01*
X62539Y-50433D02*
X62460Y-50511D01*
X62460Y-50826D02*
X62539Y-50905D01*
X62539Y-50826D02*
X62460Y-50905D01*
X62460Y-51614D02*
X62539Y-51692D01*
X62539Y-51614D02*
X62460Y-51692D01*
X62460Y-52007D02*
X62539Y-52086D01*
X62539Y-52007D02*
X62460Y-52086D01*
X62460Y-52401D02*
X62539Y-52480D01*
X62539Y-52401D02*
X62460Y-52480D01*
X62460Y-53188D02*
X62539Y-53267D01*
X62539Y-53188D02*
X62460Y-53267D01*
X62460Y-53582D02*
X62539Y-53661D01*
X62539Y-53582D02*
X62460Y-53661D01*
X62460Y-53976D02*
X62539Y-54055D01*
X62539Y-53976D02*
X62460Y-54055D01*
X62460Y-54370D02*
X62539Y-54448D01*
X62539Y-54370D02*
X62460Y-54448D01*
X62460Y-54763D02*
X62539Y-54842D01*
X62539Y-54763D02*
X62460Y-54842D01*
X62559Y-56732D02*
X62637Y-56811D01*
X62637Y-56732D02*
X62559Y-56811D01*
X62657Y-48759D02*
X62736Y-48838D01*
X62736Y-48759D02*
X62657Y-48838D01*
X62657Y-55255D02*
X62736Y-55334D01*
X62736Y-55255D02*
X62657Y-55334D01*
X62716Y-57519D02*
X62795Y-57598D01*
X62795Y-57519D02*
X62716Y-57598D01*
X62834Y-56732D02*
X62913Y-56811D01*
X62913Y-56732D02*
X62834Y-56811D01*
X62854Y-49251D02*
X62933Y-49330D01*
X62933Y-49251D02*
X62854Y-49330D01*
X62854Y-50039D02*
X62933Y-50118D01*
X62933Y-50039D02*
X62854Y-50118D01*
X62854Y-50433D02*
X62933Y-50511D01*
X62933Y-50433D02*
X62854Y-50511D01*
X62854Y-50826D02*
X62933Y-50905D01*
X62933Y-50826D02*
X62854Y-50905D01*
X62854Y-51220D02*
X62933Y-51299D01*
X62933Y-51220D02*
X62854Y-51299D01*
X62854Y-51614D02*
X62933Y-51692D01*
X62933Y-51614D02*
X62854Y-51692D01*
X62854Y-52007D02*
X62933Y-52086D01*
X62933Y-52007D02*
X62854Y-52086D01*
X62854Y-52401D02*
X62933Y-52480D01*
X62933Y-52401D02*
X62854Y-52480D01*
X62854Y-53188D02*
X62933Y-53267D01*
X62933Y-53188D02*
X62854Y-53267D01*
X62854Y-53582D02*
X62933Y-53661D01*
X62933Y-53582D02*
X62854Y-53661D01*
X62854Y-53976D02*
X62933Y-54055D01*
X62933Y-53976D02*
X62854Y-54055D01*
X62854Y-54370D02*
X62933Y-54448D01*
X62933Y-54370D02*
X62854Y-54448D01*
X62854Y-54763D02*
X62933Y-54842D01*
X62933Y-54763D02*
X62854Y-54842D01*
X63051Y-48759D02*
X63129Y-48838D01*
X63129Y-48759D02*
X63051Y-48838D01*
X63228Y-59606D02*
X63307Y-59685D01*
X63307Y-59606D02*
X63228Y-59685D01*
X63248Y-49251D02*
X63326Y-49330D01*
X63326Y-49251D02*
X63248Y-49330D01*
X63248Y-49645D02*
X63326Y-49724D01*
X63326Y-49645D02*
X63248Y-49724D01*
X63248Y-50039D02*
X63326Y-50118D01*
X63326Y-50039D02*
X63248Y-50118D01*
X63248Y-50433D02*
X63326Y-50511D01*
X63326Y-50433D02*
X63248Y-50511D01*
X63248Y-50826D02*
X63326Y-50905D01*
X63326Y-50826D02*
X63248Y-50905D01*
X63248Y-51220D02*
X63326Y-51299D01*
X63326Y-51220D02*
X63248Y-51299D01*
X63248Y-51614D02*
X63326Y-51692D01*
X63326Y-51614D02*
X63248Y-51692D01*
X63248Y-52007D02*
X63326Y-52086D01*
X63326Y-52007D02*
X63248Y-52086D01*
X63248Y-52795D02*
X63326Y-52874D01*
X63326Y-52795D02*
X63248Y-52874D01*
X63248Y-53188D02*
X63326Y-53267D01*
X63326Y-53188D02*
X63248Y-53267D01*
X63248Y-53582D02*
X63326Y-53661D01*
X63326Y-53582D02*
X63248Y-53661D01*
X63248Y-53976D02*
X63326Y-54055D01*
X63326Y-53976D02*
X63248Y-54055D01*
X63248Y-54370D02*
X63326Y-54448D01*
X63326Y-54370D02*
X63248Y-54448D01*
X63248Y-54763D02*
X63326Y-54842D01*
X63326Y-54763D02*
X63248Y-54842D01*
X63326Y-55610D02*
X63405Y-55688D01*
X63405Y-55610D02*
X63326Y-55688D01*
X63444Y-48759D02*
X63523Y-48838D01*
X63523Y-48759D02*
X63444Y-48838D01*
X63444Y-55255D02*
X63523Y-55334D01*
X63523Y-55255D02*
X63444Y-55334D01*
X63523Y-57303D02*
X63602Y-57381D01*
X63602Y-57303D02*
X63523Y-57381D01*
X63641Y-49251D02*
X63720Y-49330D01*
X63720Y-49251D02*
X63641Y-49330D01*
X63641Y-49645D02*
X63720Y-49724D01*
X63720Y-49645D02*
X63641Y-49724D01*
X63641Y-50433D02*
X63720Y-50511D01*
X63720Y-50433D02*
X63641Y-50511D01*
X63641Y-50826D02*
X63720Y-50905D01*
X63720Y-50826D02*
X63641Y-50905D01*
X63641Y-51220D02*
X63720Y-51299D01*
X63720Y-51220D02*
X63641Y-51299D01*
X63641Y-51614D02*
X63720Y-51692D01*
X63720Y-51614D02*
X63641Y-51692D01*
X63641Y-52007D02*
X63720Y-52086D01*
X63720Y-52007D02*
X63641Y-52086D01*
X63641Y-52401D02*
X63720Y-52480D01*
X63720Y-52401D02*
X63641Y-52480D01*
X63641Y-52795D02*
X63720Y-52874D01*
X63720Y-52795D02*
X63641Y-52874D01*
X63641Y-53188D02*
X63720Y-53267D01*
X63720Y-53188D02*
X63641Y-53267D01*
X63641Y-53582D02*
X63720Y-53661D01*
X63720Y-53582D02*
X63641Y-53661D01*
X63641Y-53976D02*
X63720Y-54055D01*
X63720Y-53976D02*
X63641Y-54055D01*
X63641Y-54370D02*
X63720Y-54448D01*
X63720Y-54370D02*
X63641Y-54448D01*
X63641Y-54763D02*
X63720Y-54842D01*
X63720Y-54763D02*
X63641Y-54842D01*
X63641Y-55610D02*
X63720Y-55688D01*
X63720Y-55610D02*
X63641Y-55688D01*
X63799Y-55255D02*
X63877Y-55334D01*
X63877Y-55255D02*
X63799Y-55334D01*
X63858Y-59606D02*
X63937Y-59685D01*
X63937Y-59606D02*
X63858Y-59685D01*
X63996Y-55610D02*
X64074Y-55688D01*
X64074Y-55610D02*
X63996Y-55688D01*
X64035Y-49251D02*
X64114Y-49330D01*
X64114Y-49251D02*
X64035Y-49330D01*
X64035Y-49645D02*
X64114Y-49724D01*
X64114Y-49645D02*
X64035Y-49724D01*
X64035Y-50039D02*
X64114Y-50118D01*
X64114Y-50039D02*
X64035Y-50118D01*
X64035Y-50433D02*
X64114Y-50511D01*
X64114Y-50433D02*
X64035Y-50511D01*
X64035Y-50826D02*
X64114Y-50905D01*
X64114Y-50826D02*
X64035Y-50905D01*
X64035Y-51220D02*
X64114Y-51299D01*
X64114Y-51220D02*
X64035Y-51299D01*
X64035Y-51614D02*
X64114Y-51692D01*
X64114Y-51614D02*
X64035Y-51692D01*
X64035Y-52007D02*
X64114Y-52086D01*
X64114Y-52007D02*
X64035Y-52086D01*
X64035Y-52401D02*
X64114Y-52480D01*
X64114Y-52401D02*
X64035Y-52480D01*
X64035Y-52795D02*
X64114Y-52874D01*
X64114Y-52795D02*
X64035Y-52874D01*
X64035Y-53188D02*
X64114Y-53267D01*
X64114Y-53188D02*
X64035Y-53267D01*
X64035Y-53582D02*
X64114Y-53661D01*
X64114Y-53582D02*
X64035Y-53661D01*
X64035Y-53976D02*
X64114Y-54055D01*
X64114Y-53976D02*
X64035Y-54055D01*
X64035Y-54763D02*
X64114Y-54842D01*
X64114Y-54763D02*
X64035Y-54842D01*
X64055Y-56535D02*
X64133Y-56614D01*
X64133Y-56535D02*
X64055Y-56614D01*
X64055Y-56791D02*
X64133Y-56870D01*
X64133Y-56791D02*
X64055Y-56870D01*
X64055Y-57027D02*
X64133Y-57106D01*
X64133Y-57027D02*
X64055Y-57106D01*
X64232Y-48031D02*
X64311Y-48110D01*
X64311Y-48031D02*
X64232Y-48110D01*
X64232Y-48759D02*
X64311Y-48838D01*
X64311Y-48759D02*
X64232Y-48838D01*
X64251Y-59606D02*
X64330Y-59685D01*
X64330Y-59606D02*
X64251Y-59685D01*
X64429Y-50433D02*
X64507Y-50511D01*
X64507Y-50433D02*
X64429Y-50511D01*
X64429Y-50826D02*
X64507Y-50905D01*
X64507Y-50826D02*
X64429Y-50905D01*
X64429Y-51220D02*
X64507Y-51299D01*
X64507Y-51220D02*
X64429Y-51299D01*
X64429Y-51614D02*
X64507Y-51692D01*
X64507Y-51614D02*
X64429Y-51692D01*
X64429Y-52007D02*
X64507Y-52086D01*
X64507Y-52007D02*
X64429Y-52086D01*
X64429Y-52401D02*
X64507Y-52480D01*
X64507Y-52401D02*
X64429Y-52480D01*
X64429Y-52795D02*
X64507Y-52874D01*
X64507Y-52795D02*
X64429Y-52874D01*
X64429Y-53188D02*
X64507Y-53267D01*
X64507Y-53188D02*
X64429Y-53267D01*
X64429Y-53976D02*
X64507Y-54055D01*
X64507Y-53976D02*
X64429Y-54055D01*
X64429Y-54370D02*
X64507Y-54448D01*
X64507Y-54370D02*
X64429Y-54448D01*
X64429Y-54763D02*
X64507Y-54842D01*
X64507Y-54763D02*
X64429Y-54842D01*
X64429Y-55236D02*
X64507Y-55314D01*
X64507Y-55236D02*
X64429Y-55314D01*
X64625Y-48759D02*
X64704Y-48838D01*
X64704Y-48759D02*
X64625Y-48838D01*
X64646Y-57244D02*
X64724Y-57322D01*
X64724Y-57244D02*
X64646Y-57322D01*
X64822Y-49251D02*
X64901Y-49330D01*
X64901Y-49251D02*
X64822Y-49330D01*
X64822Y-49645D02*
X64901Y-49724D01*
X64901Y-49645D02*
X64822Y-49724D01*
X64822Y-50039D02*
X64901Y-50118D01*
X64901Y-50039D02*
X64822Y-50118D01*
X64822Y-50433D02*
X64901Y-50511D01*
X64901Y-50433D02*
X64822Y-50511D01*
X64822Y-50826D02*
X64901Y-50905D01*
X64901Y-50826D02*
X64822Y-50905D01*
X64822Y-51220D02*
X64901Y-51299D01*
X64901Y-51220D02*
X64822Y-51299D01*
X64822Y-51614D02*
X64901Y-51692D01*
X64901Y-51614D02*
X64822Y-51692D01*
X64822Y-52007D02*
X64901Y-52086D01*
X64901Y-52007D02*
X64822Y-52086D01*
X64822Y-52401D02*
X64901Y-52480D01*
X64901Y-52401D02*
X64822Y-52480D01*
X64822Y-52795D02*
X64901Y-52874D01*
X64901Y-52795D02*
X64822Y-52874D01*
X64822Y-53188D02*
X64901Y-53267D01*
X64901Y-53188D02*
X64822Y-53267D01*
X64822Y-53582D02*
X64901Y-53661D01*
X64901Y-53582D02*
X64822Y-53661D01*
X64822Y-54370D02*
X64901Y-54448D01*
X64901Y-54370D02*
X64822Y-54448D01*
X64822Y-54763D02*
X64901Y-54842D01*
X64901Y-54763D02*
X64822Y-54842D01*
X64940Y-57381D02*
X65019Y-57460D01*
X65019Y-57381D02*
X64940Y-57460D01*
X64940Y-57598D02*
X65019Y-57677D01*
X65019Y-57598D02*
X64940Y-57677D01*
X64940Y-59232D02*
X65019Y-59311D01*
X65019Y-59232D02*
X64940Y-59311D01*
X65019Y-48759D02*
X65098Y-48838D01*
X65098Y-48759D02*
X65019Y-48838D01*
X65157Y-57598D02*
X65236Y-57677D01*
X65236Y-57598D02*
X65157Y-57677D01*
X65295Y-48523D02*
X65374Y-48602D01*
X65374Y-48523D02*
X65295Y-48602D01*
X65314Y-49448D02*
X65393Y-49527D01*
X65393Y-49448D02*
X65314Y-49527D01*
X65314Y-49842D02*
X65393Y-49921D01*
X65393Y-49842D02*
X65314Y-49921D01*
X65314Y-50236D02*
X65393Y-50314D01*
X65393Y-50236D02*
X65314Y-50314D01*
X65314Y-50472D02*
X65393Y-50551D01*
X65393Y-50472D02*
X65314Y-50551D01*
X65314Y-51023D02*
X65393Y-51102D01*
X65393Y-51023D02*
X65314Y-51102D01*
X65314Y-51417D02*
X65393Y-51496D01*
X65393Y-51417D02*
X65314Y-51496D01*
X65314Y-51811D02*
X65393Y-51889D01*
X65393Y-51811D02*
X65314Y-51889D01*
X65314Y-52401D02*
X65393Y-52480D01*
X65393Y-52401D02*
X65314Y-52480D01*
X65314Y-52952D02*
X65393Y-53031D01*
X65393Y-52952D02*
X65314Y-53031D01*
X65314Y-53385D02*
X65393Y-53464D01*
X65393Y-53385D02*
X65314Y-53464D01*
X65314Y-54370D02*
X65393Y-54448D01*
X65393Y-54370D02*
X65314Y-54448D01*
X65314Y-54763D02*
X65393Y-54842D01*
X65393Y-54763D02*
X65314Y-54842D01*
X65314Y-55177D02*
X65393Y-55255D01*
X65393Y-55177D02*
X65314Y-55255D01*
X65354Y-59133D02*
X65433Y-59212D01*
X65433Y-59133D02*
X65354Y-59212D01*
X65393Y-55393D02*
X65472Y-55472D01*
X65472Y-55393D02*
X65393Y-55472D01*
X65393Y-55649D02*
X65472Y-55728D01*
X65472Y-55649D02*
X65393Y-55728D01*
X65511Y-53503D02*
X65590Y-53582D01*
X65590Y-53503D02*
X65511Y-53582D01*
X65925Y-50925D02*
X66003Y-51003D01*
X66003Y-50925D02*
X65925Y-51003D01*
X66102Y-48031D02*
X66181Y-48110D01*
X66181Y-48031D02*
X66102Y-48110D01*
X66102Y-49232D02*
X66181Y-49311D01*
X66181Y-49232D02*
X66102Y-49311D01*
X66122Y-59133D02*
X66200Y-59212D01*
X66200Y-59133D02*
X66122Y-59212D01*
X66122Y-59606D02*
X66200Y-59685D01*
X66200Y-59606D02*
X66122Y-59685D01*
X66338Y-51535D02*
X66417Y-51614D01*
X66417Y-51535D02*
X66338Y-51614D01*
X66338Y-52165D02*
X66417Y-52244D01*
X66417Y-52165D02*
X66338Y-52244D01*
X66338Y-52795D02*
X66417Y-52874D01*
X66417Y-52795D02*
X66338Y-52874D01*
X66338Y-53425D02*
X66417Y-53503D01*
X66417Y-53425D02*
X66338Y-53503D01*
X66338Y-54370D02*
X66417Y-54448D01*
X66417Y-54370D02*
X66338Y-54448D01*
X66338Y-55000D02*
X66417Y-55078D01*
X66417Y-55000D02*
X66338Y-55078D01*
X66338Y-56574D02*
X66417Y-56653D01*
X66417Y-56574D02*
X66338Y-56653D01*
X66338Y-59015D02*
X66417Y-59094D01*
X66417Y-59015D02*
X66338Y-59094D01*
X66358Y-50669D02*
X66437Y-50748D01*
X66437Y-50669D02*
X66358Y-50748D01*
X66377Y-50354D02*
X66456Y-50433D01*
X66456Y-50354D02*
X66377Y-50433D01*
X66417Y-50039D02*
X66496Y-50118D01*
X66496Y-50039D02*
X66417Y-50118D01*
X66476Y-57401D02*
X66555Y-57480D01*
X66555Y-57401D02*
X66476Y-57480D01*
X66811Y-50039D02*
X66889Y-50118D01*
X66889Y-50039D02*
X66811Y-50118D01*
X66811Y-50354D02*
X66889Y-50433D01*
X66889Y-50354D02*
X66811Y-50433D01*
X66811Y-50669D02*
X66889Y-50748D01*
X66889Y-50669D02*
X66811Y-50748D01*
X66811Y-50905D02*
X66889Y-50984D01*
X66889Y-50905D02*
X66811Y-50984D01*
X66811Y-51141D02*
X66889Y-51220D01*
X66889Y-51141D02*
X66811Y-51220D01*
X66811Y-51377D02*
X66889Y-51456D01*
X66889Y-51377D02*
X66811Y-51456D01*
X66811Y-51850D02*
X66889Y-51929D01*
X66889Y-51850D02*
X66811Y-51929D01*
X66811Y-52480D02*
X66889Y-52559D01*
X66889Y-52480D02*
X66811Y-52559D01*
X66811Y-53110D02*
X66889Y-53188D01*
X66889Y-53110D02*
X66811Y-53188D01*
X66811Y-53740D02*
X66889Y-53818D01*
X66889Y-53740D02*
X66811Y-53818D01*
X66811Y-54685D02*
X66889Y-54763D01*
X66889Y-54685D02*
X66811Y-54763D01*
X66811Y-55236D02*
X66889Y-55314D01*
X66889Y-55236D02*
X66811Y-55314D01*
X66811Y-55551D02*
X66889Y-55629D01*
X66889Y-55551D02*
X66811Y-55629D01*
X66811Y-57185D02*
X66889Y-57263D01*
X66889Y-57185D02*
X66811Y-57263D01*
X66811Y-57618D02*
X66889Y-57696D01*
X66889Y-57618D02*
X66811Y-57696D01*
X67342Y-59015D02*
X67421Y-59094D01*
X67421Y-59015D02*
X67342Y-59094D01*
X67637Y-51692D02*
X67716Y-51771D01*
X67716Y-51692D02*
X67637Y-51771D01*
X67637Y-52007D02*
X67716Y-52086D01*
X67716Y-52007D02*
X67637Y-52086D01*
X67637Y-52322D02*
X67716Y-52401D01*
X67716Y-52322D02*
X67637Y-52401D01*
X67637Y-52637D02*
X67716Y-52716D01*
X67716Y-52637D02*
X67637Y-52716D01*
X67637Y-52952D02*
X67716Y-53031D01*
X67716Y-52952D02*
X67637Y-53031D01*
X67637Y-53267D02*
X67716Y-53346D01*
X67716Y-53267D02*
X67637Y-53346D01*
X67637Y-53582D02*
X67716Y-53661D01*
X67716Y-53582D02*
X67637Y-53661D01*
X67637Y-53897D02*
X67716Y-53976D01*
X67716Y-53897D02*
X67637Y-53976D01*
X67637Y-54842D02*
X67716Y-54921D01*
X67716Y-54842D02*
X67637Y-54921D01*
X67677Y-50039D02*
X67755Y-50118D01*
X67755Y-50039D02*
X67677Y-50118D01*
X67677Y-50354D02*
X67755Y-50433D01*
X67755Y-50354D02*
X67677Y-50433D01*
X67677Y-50669D02*
X67755Y-50748D01*
X67755Y-50669D02*
X67677Y-50748D01*
X67677Y-50905D02*
X67755Y-50984D01*
X67755Y-50905D02*
X67677Y-50984D01*
X67677Y-51141D02*
X67755Y-51220D01*
X67755Y-51141D02*
X67677Y-51220D01*
X67677Y-51377D02*
X67755Y-51456D01*
X67755Y-51377D02*
X67677Y-51456D01*
X67677Y-54429D02*
X67755Y-54507D01*
X67755Y-54429D02*
X67677Y-54507D01*
X67677Y-55236D02*
X67755Y-55314D01*
X67755Y-55236D02*
X67677Y-55314D01*
X67677Y-55551D02*
X67755Y-55629D01*
X67755Y-55551D02*
X67677Y-55629D01*
X67677Y-57185D02*
X67755Y-57263D01*
X67755Y-57185D02*
X67677Y-57263D01*
X67677Y-57401D02*
X67755Y-57480D01*
X67755Y-57401D02*
X67677Y-57480D01*
X67677Y-57618D02*
X67755Y-57696D01*
X67755Y-57618D02*
X67677Y-57696D01*
X68326Y-59015D02*
X68405Y-59094D01*
X68405Y-59015D02*
X68326Y-59094D01*
X68543Y-50039D02*
X68622Y-50118D01*
X68622Y-50039D02*
X68543Y-50118D01*
X68543Y-50354D02*
X68622Y-50433D01*
X68622Y-50354D02*
X68543Y-50433D01*
X68543Y-50590D02*
X68622Y-50669D01*
X68622Y-50590D02*
X68543Y-50669D01*
X68543Y-50905D02*
X68622Y-50984D01*
X68622Y-50905D02*
X68543Y-50984D01*
X68543Y-51141D02*
X68622Y-51220D01*
X68622Y-51141D02*
X68543Y-51220D01*
X68543Y-51377D02*
X68622Y-51456D01*
X68622Y-51377D02*
X68543Y-51456D01*
X68543Y-51692D02*
X68622Y-51771D01*
X68622Y-51692D02*
X68543Y-51771D01*
X68543Y-52007D02*
X68622Y-52086D01*
X68622Y-52007D02*
X68543Y-52086D01*
X68543Y-52322D02*
X68622Y-52401D01*
X68622Y-52322D02*
X68543Y-52401D01*
X68543Y-52637D02*
X68622Y-52716D01*
X68622Y-52637D02*
X68543Y-52716D01*
X68543Y-52952D02*
X68622Y-53031D01*
X68622Y-52952D02*
X68543Y-53031D01*
X68543Y-53267D02*
X68622Y-53346D01*
X68622Y-53267D02*
X68543Y-53346D01*
X68543Y-53582D02*
X68622Y-53661D01*
X68622Y-53582D02*
X68543Y-53661D01*
X68543Y-53897D02*
X68622Y-53976D01*
X68622Y-53897D02*
X68543Y-53976D01*
X68543Y-54842D02*
X68622Y-54921D01*
X68622Y-54842D02*
X68543Y-54921D01*
X68543Y-55236D02*
X68622Y-55314D01*
X68622Y-55236D02*
X68543Y-55314D01*
X68543Y-55551D02*
X68622Y-55629D01*
X68622Y-55551D02*
X68543Y-55629D01*
X68543Y-57185D02*
X68622Y-57263D01*
X68622Y-57185D02*
X68543Y-57263D01*
X68543Y-57401D02*
X68622Y-57480D01*
X68622Y-57401D02*
X68543Y-57480D01*
X68543Y-57618D02*
X68622Y-57696D01*
X68622Y-57618D02*
X68543Y-57696D01*
X68740Y-50748D02*
X68818Y-50826D01*
X68818Y-50748D02*
X68740Y-50826D01*
X68740Y-53110D02*
X68818Y-53188D01*
X68818Y-53110D02*
X68740Y-53188D01*
X68740Y-53425D02*
X68818Y-53503D01*
X68818Y-53425D02*
X68740Y-53503D01*
X68740Y-53740D02*
X68818Y-53818D01*
X68818Y-53740D02*
X68740Y-53818D01*
X68740Y-55000D02*
X68818Y-55078D01*
X68818Y-55000D02*
X68740Y-55078D01*
X68937Y-51535D02*
X69015Y-51614D01*
X69015Y-51535D02*
X68937Y-51614D01*
X68937Y-51850D02*
X69015Y-51929D01*
X69015Y-51850D02*
X68937Y-51929D01*
X68937Y-52165D02*
X69015Y-52244D01*
X69015Y-52165D02*
X68937Y-52244D01*
X68937Y-52480D02*
X69015Y-52559D01*
X69015Y-52480D02*
X68937Y-52559D01*
X68937Y-52795D02*
X69015Y-52874D01*
X69015Y-52795D02*
X68937Y-52874D01*
X69094Y-59015D02*
X69173Y-59094D01*
X69173Y-59015D02*
X69094Y-59094D01*
X69153Y-57598D02*
X69232Y-57677D01*
X69232Y-57598D02*
X69153Y-57677D01*
X69291Y-50196D02*
X69370Y-50275D01*
X69370Y-50196D02*
X69291Y-50275D01*
X69291Y-54527D02*
X69370Y-54606D01*
X69370Y-54527D02*
X69291Y-54606D01*
X69311Y-55551D02*
X69389Y-55629D01*
X69389Y-55551D02*
X69311Y-55629D01*
X69350Y-58838D02*
X69429Y-58917D01*
X69429Y-58838D02*
X69350Y-58917D01*
X69429Y-57598D02*
X69507Y-57677D01*
X69507Y-57598D02*
X69429Y-57677D01*
X69448Y-50000D02*
X69527Y-50078D01*
X69527Y-50000D02*
X69448Y-50078D01*
X69448Y-54685D02*
X69527Y-54763D01*
X69527Y-54685D02*
X69448Y-54763D01*
X69625Y-54055D02*
X69704Y-54133D01*
X69704Y-54055D02*
X69625Y-54133D01*
X69645Y-51850D02*
X69724Y-51929D01*
X69724Y-51850D02*
X69645Y-51929D01*
X69685Y-49271D02*
X69763Y-49350D01*
X69763Y-49271D02*
X69685Y-49350D01*
X69685Y-57204D02*
X69763Y-57283D01*
X69763Y-57204D02*
X69685Y-57283D01*
X69783Y-49685D02*
X69862Y-49763D01*
X69862Y-49685D02*
X69783Y-49763D01*
X69783Y-54370D02*
X69862Y-54448D01*
X69862Y-54370D02*
X69783Y-54448D01*
X69980Y-49507D02*
X70059Y-49586D01*
X70059Y-49507D02*
X69980Y-49586D01*
X69980Y-54212D02*
X70059Y-54291D01*
X70059Y-54212D02*
X69980Y-54291D01*
X70118Y-56574D02*
X70196Y-56653D01*
X70196Y-56574D02*
X70118Y-56653D01*
X70118Y-56791D02*
X70196Y-56870D01*
X70196Y-56791D02*
X70118Y-56870D01*
X70177Y-53503D02*
X70255Y-53582D01*
X70255Y-53503D02*
X70177Y-53582D01*
X70216Y-50098D02*
X70295Y-50177D01*
X70295Y-50098D02*
X70216Y-50177D01*
X70295Y-58661D02*
X70374Y-58740D01*
X70374Y-58661D02*
X70295Y-58740D01*
X70314Y-54921D02*
X70393Y-55000D01*
X70393Y-54921D02*
X70314Y-55000D01*
X70314Y-55157D02*
X70393Y-55236D01*
X70393Y-55157D02*
X70314Y-55236D01*
X70314Y-56574D02*
X70393Y-56653D01*
X70393Y-56574D02*
X70314Y-56653D01*
X70314Y-56791D02*
X70393Y-56870D01*
X70393Y-56791D02*
X70314Y-56870D01*
X70393Y-53503D02*
X70472Y-53582D01*
X70472Y-53503D02*
X70393Y-53582D01*
X70688Y-54173D02*
X70767Y-54251D01*
X70767Y-54173D02*
X70688Y-54251D01*
X70708Y-54980D02*
X70787Y-55059D01*
X70787Y-54980D02*
X70708Y-55059D01*
X70708Y-57204D02*
X70787Y-57283D01*
X70787Y-57204D02*
X70708Y-57283D01*
X70984Y-52440D02*
X71062Y-52519D01*
X71062Y-52440D02*
X70984Y-52519D01*
X71338Y-58661D02*
X71417Y-58740D01*
X71417Y-58661D02*
X71338Y-58740D01*
X71673Y-52125D02*
X71751Y-52204D01*
X71751Y-52125D02*
X71673Y-52204D01*
X71889Y-50393D02*
X71968Y-50472D01*
X71968Y-50393D02*
X71889Y-50472D01*
X71948Y-52263D02*
X72027Y-52342D01*
X72027Y-52263D02*
X71948Y-52342D01*
X72086Y-56791D02*
X72165Y-56870D01*
X72165Y-56791D02*
X72086Y-56870D01*
X72185Y-50649D02*
X72263Y-50728D01*
X72263Y-50649D02*
X72185Y-50728D01*
X72185Y-51082D02*
X72263Y-51161D01*
X72263Y-51082D02*
X72185Y-51161D01*
X72342Y-56791D02*
X72421Y-56870D01*
X72421Y-56791D02*
X72342Y-56870D01*
X72421Y-51082D02*
X72500Y-51161D01*
X72500Y-51082D02*
X72421Y-51161D01*
X72460Y-54685D02*
X72539Y-54763D01*
X72539Y-54685D02*
X72460Y-54763D01*
X72637Y-48346D02*
X72716Y-48425D01*
X72716Y-48346D02*
X72637Y-48425D01*
X72637Y-49212D02*
X72716Y-49291D01*
X72716Y-49212D02*
X72637Y-49291D01*
X72992Y-49212D02*
X73070Y-49291D01*
X73070Y-49212D02*
X72992Y-49291D01*
X73267Y-48346D02*
X73346Y-48425D01*
X73346Y-48346D02*
X73267Y-48425D01*
X73267Y-48622D02*
X73346Y-48700D01*
X73346Y-48622D02*
X73267Y-48700D01*
X73346Y-58818D02*
X73425Y-58897D01*
X73425Y-58818D02*
X73346Y-58897D01*
X73543Y-49212D02*
X73622Y-49291D01*
X73622Y-49212D02*
X73543Y-49291D01*
X73720Y-57204D02*
X73799Y-57283D01*
X73799Y-57204D02*
X73720Y-57283D01*
X73818Y-48622D02*
X73897Y-48700D01*
X73897Y-48622D02*
X73818Y-48700D01*
X74074Y-48385D02*
X74153Y-48464D01*
X74153Y-48385D02*
X74074Y-48464D01*
X74330Y-58740D02*
X74409Y-58818D01*
X74409Y-58740D02*
X74330Y-58818D01*
X74704Y-55629D02*
X74783Y-55708D01*
X74783Y-55629D02*
X74704Y-55708D01*
X74911Y-50541D02*
X74990Y-50620D01*
X74990Y-50541D02*
X74911Y-50620D01*
X74950Y-52096D02*
X75029Y-52175D01*
X75029Y-52096D02*
X74950Y-52175D01*
X74950Y-52450D02*
X75029Y-52529D01*
X75029Y-52450D02*
X74950Y-52529D01*
X74950Y-53474D02*
X75029Y-53553D01*
X75029Y-53474D02*
X74950Y-53553D01*
X74960Y-50807D02*
X75039Y-50885D01*
X75039Y-50807D02*
X74960Y-50885D01*
X74960Y-51358D02*
X75039Y-51437D01*
X75039Y-51358D02*
X74960Y-51437D01*
X74960Y-51712D02*
X75039Y-51791D01*
X75039Y-51712D02*
X74960Y-51791D01*
X75029Y-49025D02*
X75108Y-49104D01*
X75108Y-49025D02*
X75029Y-49104D01*
X75206Y-54084D02*
X75285Y-54163D01*
X75285Y-54084D02*
X75206Y-54163D01*
X75226Y-50064D02*
X75305Y-50143D01*
X75305Y-50064D02*
X75226Y-50143D01*
X75314Y-58740D02*
X75393Y-58818D01*
X75393Y-58740D02*
X75314Y-58818D01*
X75492Y-51594D02*
X75570Y-51673D01*
X75570Y-51594D02*
X75492Y-51673D01*
X75541Y-50064D02*
X75619Y-50143D01*
X75619Y-50064D02*
X75541Y-50143D01*
X75570Y-52519D02*
X75649Y-52598D01*
X75649Y-52519D02*
X75570Y-52598D01*
X75649Y-54232D02*
X75728Y-54311D01*
X75728Y-54232D02*
X75649Y-54311D01*
X75669Y-51240D02*
X75748Y-51318D01*
X75748Y-51240D02*
X75669Y-51318D01*
X75807Y-51929D02*
X75885Y-52007D01*
X75885Y-51929D02*
X75807Y-52007D01*
X75807Y-55629D02*
X75885Y-55708D01*
X75885Y-55629D02*
X75807Y-55708D01*
X75866Y-49015D02*
X75944Y-49094D01*
X75944Y-49015D02*
X75866Y-49094D01*
X75944Y-48503D02*
X76023Y-48582D01*
X76023Y-48503D02*
X75944Y-48582D01*
X76003Y-54232D02*
X76082Y-54311D01*
X76082Y-54232D02*
X76003Y-54311D01*
X76171Y-50541D02*
X76250Y-50620D01*
X76250Y-50541D02*
X76171Y-50620D01*
X76181Y-48031D02*
X76259Y-48110D01*
X76259Y-48031D02*
X76181Y-48110D01*
X76259Y-58011D02*
X76338Y-58090D01*
X76338Y-58011D02*
X76259Y-58090D01*
X76299Y-48503D02*
X76377Y-48582D01*
X76377Y-48503D02*
X76299Y-48582D01*
X76299Y-49015D02*
X76377Y-49094D01*
X76377Y-49015D02*
X76299Y-49094D01*
X76338Y-54586D02*
X76417Y-54665D01*
X76417Y-54586D02*
X76338Y-54665D01*
X76377Y-51594D02*
X76456Y-51673D01*
X76456Y-51594D02*
X76377Y-51673D01*
X76387Y-50856D02*
X76466Y-50935D01*
X76466Y-50856D02*
X76387Y-50935D01*
X76387Y-52431D02*
X76466Y-52509D01*
X76466Y-52431D02*
X76387Y-52509D01*
X76387Y-52667D02*
X76466Y-52746D01*
X76466Y-52667D02*
X76387Y-52746D01*
X76387Y-52883D02*
X76466Y-52962D01*
X76466Y-52883D02*
X76387Y-52962D01*
X76387Y-53100D02*
X76466Y-53179D01*
X76466Y-53100D02*
X76387Y-53179D01*
X76486Y-50064D02*
X76564Y-50143D01*
X76564Y-50064D02*
X76486Y-50143D01*
X76574Y-53976D02*
X76653Y-54055D01*
X76653Y-53976D02*
X76574Y-54055D01*
X76624Y-51013D02*
X76702Y-51092D01*
X76702Y-51013D02*
X76624Y-51092D01*
X76722Y-52431D02*
X76801Y-52509D01*
X76801Y-52431D02*
X76722Y-52509D01*
X76722Y-52667D02*
X76801Y-52746D01*
X76801Y-52667D02*
X76722Y-52746D01*
X76722Y-52883D02*
X76801Y-52962D01*
X76801Y-52883D02*
X76722Y-52962D01*
X76722Y-53100D02*
X76801Y-53179D01*
X76801Y-53100D02*
X76722Y-53179D01*
X76801Y-50064D02*
X76879Y-50143D01*
X76879Y-50064D02*
X76801Y-50143D01*
X76919Y-53710D02*
X76998Y-53789D01*
X76998Y-53710D02*
X76919Y-53789D01*
X77057Y-52431D02*
X77135Y-52509D01*
X77135Y-52431D02*
X77057Y-52509D01*
X77057Y-52667D02*
X77135Y-52746D01*
X77135Y-52667D02*
X77057Y-52746D01*
X77057Y-52883D02*
X77135Y-52962D01*
X77135Y-52883D02*
X77057Y-52962D01*
X77057Y-53100D02*
X77135Y-53179D01*
X77135Y-53100D02*
X77057Y-53179D01*
X77106Y-58385D02*
X77185Y-58464D01*
X77185Y-58385D02*
X77106Y-58464D01*
X77106Y-58740D02*
X77185Y-58818D01*
X77185Y-58740D02*
X77106Y-58818D01*
X77135Y-49025D02*
X77214Y-49104D01*
X77214Y-49025D02*
X77135Y-49104D01*
X77224Y-54212D02*
X77303Y-54291D01*
X77303Y-54212D02*
X77224Y-54291D01*
X77303Y-58011D02*
X77381Y-58090D01*
X77381Y-58011D02*
X77303Y-58090D01*
X77519Y-57322D02*
X77598Y-57401D01*
X77598Y-57322D02*
X77519Y-57401D01*
X77529Y-50423D02*
X77608Y-50501D01*
X77608Y-50423D02*
X77529Y-50501D01*
X77529Y-50777D02*
X77608Y-50856D01*
X77608Y-50777D02*
X77529Y-50856D01*
X77588Y-51112D02*
X77667Y-51190D01*
X77667Y-51112D02*
X77588Y-51190D01*
X77588Y-51604D02*
X77667Y-51683D01*
X77667Y-51604D02*
X77588Y-51683D01*
X77667Y-52706D02*
X77746Y-52785D01*
X77746Y-52706D02*
X77667Y-52785D01*
X77667Y-52962D02*
X77746Y-53041D01*
X77746Y-52962D02*
X77667Y-53041D01*
X77667Y-53238D02*
X77746Y-53316D01*
X77746Y-53238D02*
X77667Y-53316D01*
X77805Y-49635D02*
X77883Y-49714D01*
X77883Y-49635D02*
X77805Y-49714D01*
X77814Y-59311D02*
X77893Y-59389D01*
X77893Y-59311D02*
X77814Y-59389D01*
X78110Y-59133D02*
X78188Y-59212D01*
X78188Y-59133D02*
X78110Y-59212D01*
X78139Y-49635D02*
X78218Y-49714D01*
X78218Y-49635D02*
X78139Y-49714D01*
X78326Y-56417D02*
X78405Y-56496D01*
X78405Y-56417D02*
X78326Y-56496D01*
X78326Y-57795D02*
X78405Y-57874D01*
X78405Y-57795D02*
X78326Y-57874D01*
X78346Y-59488D02*
X78425Y-59566D01*
X78425Y-59488D02*
X78346Y-59566D01*
X78425Y-55393D02*
X78503Y-55472D01*
X78503Y-55393D02*
X78425Y-55472D01*
X78602Y-55570D02*
X78681Y-55649D01*
X78681Y-55570D02*
X78602Y-55649D01*
X78661Y-48326D02*
X78740Y-48405D01*
X78740Y-48326D02*
X78661Y-48405D01*
X78789Y-50324D02*
X78868Y-50403D01*
X78868Y-50324D02*
X78789Y-50403D01*
X79045Y-48907D02*
X79124Y-48986D01*
X79124Y-48907D02*
X79045Y-48986D01*
X79045Y-49537D02*
X79124Y-49616D01*
X79124Y-49537D02*
X79045Y-49616D01*
X79045Y-50324D02*
X79124Y-50403D01*
X79124Y-50324D02*
X79045Y-50403D01*
X79212Y-57283D02*
X79291Y-57362D01*
X79291Y-57283D02*
X79212Y-57362D01*
X79212Y-57972D02*
X79291Y-58051D01*
X79291Y-57972D02*
X79212Y-58051D01*
X79261Y-52864D02*
X79340Y-52942D01*
X79340Y-52864D02*
X79261Y-52942D01*
X79261Y-53435D02*
X79340Y-53513D01*
X79340Y-53435D02*
X79261Y-53513D01*
X79301Y-50324D02*
X79379Y-50403D01*
X79379Y-50324D02*
X79301Y-50403D01*
X79429Y-57598D02*
X79507Y-57677D01*
X79507Y-57598D02*
X79429Y-57677D01*
X79498Y-53750D02*
X79576Y-53828D01*
X79576Y-53750D02*
X79498Y-53828D01*
X79576Y-53159D02*
X79655Y-53238D01*
X79655Y-53159D02*
X79576Y-53238D01*
X79852Y-53316D02*
X79931Y-53395D01*
X79931Y-53316D02*
X79852Y-53395D01*
X79852Y-54163D02*
X79931Y-54242D01*
X79931Y-54163D02*
X79852Y-54242D01*
X80206Y-53750D02*
X80285Y-53828D01*
X80285Y-53750D02*
X80206Y-53828D01*
X80275Y-47992D02*
X80354Y-48070D01*
X80354Y-47992D02*
X80275Y-48070D01*
X80324Y-50423D02*
X80403Y-50501D01*
X80403Y-50423D02*
X80324Y-50501D01*
X80324Y-50777D02*
X80403Y-50856D01*
X80403Y-50777D02*
X80324Y-50856D01*
X80511Y-57598D02*
X80590Y-57677D01*
X80590Y-57598D02*
X80511Y-57677D01*
X80708Y-55629D02*
X80787Y-55708D01*
X80787Y-55629D02*
X80708Y-55708D01*
X80708Y-57204D02*
X80787Y-57283D01*
X80787Y-57204D02*
X80708Y-57283D01*
X81220Y-58937D02*
X81299Y-59015D01*
X81299Y-58937D02*
X81220Y-59015D01*
X81318Y-56909D02*
X81397Y-56988D01*
X81397Y-56909D02*
X81318Y-56988D01*
X81555Y-48031D02*
X81633Y-48110D01*
X81633Y-48031D02*
X81555Y-48110D01*
X81673Y-48700D02*
X81751Y-48779D01*
X81751Y-48700D02*
X81673Y-48779D01*
X81712Y-49842D02*
X81791Y-49921D01*
X81791Y-49842D02*
X81712Y-49921D01*
X81712Y-50334D02*
X81791Y-50413D01*
X81791Y-50334D02*
X81712Y-50413D01*
X81712Y-50846D02*
X81791Y-50925D01*
X81791Y-50846D02*
X81712Y-50925D01*
X81712Y-51830D02*
X81791Y-51909D01*
X81791Y-51830D02*
X81712Y-51909D01*
X81712Y-52342D02*
X81791Y-52421D01*
X81791Y-52342D02*
X81712Y-52421D01*
X81712Y-57598D02*
X81791Y-57677D01*
X81791Y-57598D02*
X81712Y-57677D01*
X81929Y-49330D02*
X82007Y-49409D01*
X82007Y-49330D02*
X81929Y-49409D01*
X81988Y-48031D02*
X82066Y-48110D01*
X82066Y-48031D02*
X81988Y-48110D01*
X82224Y-56496D02*
X82303Y-56574D01*
X82303Y-56496D02*
X82224Y-56574D01*
X82224Y-58543D02*
X82303Y-58622D01*
X82303Y-58543D02*
X82224Y-58622D01*
X82322Y-48503D02*
X82401Y-48582D01*
X82401Y-48503D02*
X82322Y-48582D01*
X82322Y-49330D02*
X82401Y-49409D01*
X82401Y-49330D02*
X82322Y-49409D01*
X82519Y-57598D02*
X82598Y-57677D01*
X82598Y-57598D02*
X82519Y-57677D01*
X82677Y-53779D02*
X82755Y-53858D01*
X82755Y-53779D02*
X82677Y-53858D01*
X82716Y-48464D02*
X82795Y-48543D01*
X82795Y-48464D02*
X82716Y-48543D01*
X82716Y-49330D02*
X82795Y-49409D01*
X82795Y-49330D02*
X82716Y-49409D01*
X83110Y-48464D02*
X83188Y-48543D01*
X83188Y-48464D02*
X83110Y-48543D01*
X83287Y-49842D02*
X83366Y-49921D01*
X83366Y-49842D02*
X83287Y-49921D01*
X83287Y-50334D02*
X83366Y-50413D01*
X83366Y-50334D02*
X83287Y-50413D01*
X83287Y-50846D02*
X83366Y-50925D01*
X83366Y-50846D02*
X83287Y-50925D01*
X83287Y-51850D02*
X83366Y-51929D01*
X83366Y-51850D02*
X83287Y-51929D01*
X83287Y-52342D02*
X83366Y-52421D01*
X83366Y-52342D02*
X83287Y-52421D01*
X83287Y-52834D02*
X83366Y-52913D01*
X83366Y-52834D02*
X83287Y-52913D01*
X83287Y-54133D02*
X83366Y-54212D01*
X83366Y-54133D02*
X83287Y-54212D01*
X83307Y-56062D02*
X83385Y-56141D01*
X83385Y-56062D02*
X83307Y-56141D01*
X83326Y-58385D02*
X83405Y-58464D01*
X83405Y-58385D02*
X83326Y-58464D01*
X83562Y-53523D02*
X83641Y-53602D01*
X83641Y-53523D02*
X83562Y-53602D01*
X83622Y-48464D02*
X83700Y-48543D01*
X83700Y-48464D02*
X83622Y-48543D01*
X83720Y-57618D02*
X83799Y-57696D01*
X83799Y-57618D02*
X83720Y-57696D01*
X83877Y-53149D02*
X83956Y-53228D01*
X83956Y-53149D02*
X83877Y-53228D01*
X83897Y-53523D02*
X83976Y-53602D01*
X83976Y-53523D02*
X83897Y-53602D01*
X42795Y-49940D02*
G75*
G03X42795Y-49940I-59J0D01*
G74*
G01*
X42795Y-50551D02*
G75*
G03X42795Y-50551I-59J0D01*
G74*
G01*
X43129Y-55275D02*
G75*
G03X43129Y-55275I-59J0D01*
G74*
G01*
X43129Y-55590D02*
G75*
G03X43129Y-55590I-59J0D01*
G74*
G01*
X43129Y-56614D02*
G75*
G03X43129Y-56614I-59J0D01*
G74*
G01*
X43129Y-56968D02*
G75*
G03X43129Y-56968I-59J0D01*
G74*
G01*
X43129Y-57322D02*
G75*
G03X43129Y-57322I-59J0D01*
G74*
G01*
X43129Y-58346D02*
G75*
G03X43129Y-58346I-59J0D01*
G74*
G01*
X43129Y-58661D02*
G75*
G03X43129Y-58661I-59J0D01*
G74*
G01*
X43444Y-55275D02*
G75*
G03X43444Y-55275I-59J0D01*
G74*
G01*
X43444Y-55590D02*
G75*
G03X43444Y-55590I-59J0D01*
G74*
G01*
X43444Y-56614D02*
G75*
G03X43444Y-56614I-59J0D01*
G74*
G01*
X43444Y-56968D02*
G75*
G03X43444Y-56968I-59J0D01*
G74*
G01*
X43444Y-57322D02*
G75*
G03X43444Y-57322I-59J0D01*
G74*
G01*
X43444Y-58346D02*
G75*
G03X43444Y-58346I-59J0D01*
G74*
G01*
X43444Y-58661D02*
G75*
G03X43444Y-58661I-59J0D01*
G74*
G01*
X44311Y-48188D02*
G75*
G03X44311Y-48188I-59J0D01*
G74*
G01*
X45059Y-48188D02*
G75*
G03X45059Y-48188I-59J0D01*
G74*
G01*
X45807Y-48188D02*
G75*
G03X45807Y-48188I-59J0D01*
G74*
G01*
X46555Y-48188D02*
G75*
G03X46555Y-48188I-59J0D01*
G74*
G01*
X48444Y-57362D02*
G75*
G03X48444Y-57362I-59J0D01*
G74*
G01*
X48877Y-57362D02*
G75*
G03X48877Y-57362I-59J0D01*
G74*
G01*
X52263Y-48818D02*
G75*
G03X52263Y-48818I-59J0D01*
G74*
G01*
X52736Y-48818D02*
G75*
G03X52736Y-48818I-59J0D01*
G74*
G01*
X54527Y-53976D02*
G75*
G03X54527Y-53976I-59J0D01*
G74*
G01*
X54527Y-54448D02*
G75*
G03X54527Y-54448I-59J0D01*
G74*
G01*
X54704Y-54212D02*
G75*
G03X54704Y-54212I-59J0D01*
G74*
G01*
X54881Y-53976D02*
G75*
G03X54881Y-53976I-59J0D01*
G74*
G01*
X54881Y-54448D02*
G75*
G03X54881Y-54448I-59J0D01*
G74*
G01*
X56417Y-56082D02*
G75*
G03X56417Y-56082I-59J0D01*
G74*
G01*
X56417Y-56437D02*
G75*
G03X56417Y-56437I-59J0D01*
G74*
G01*
X56417Y-56751D02*
G75*
G03X56417Y-56751I-59J0D01*
G74*
G01*
X56417Y-57066D02*
G75*
G03X56417Y-57066I-59J0D01*
G74*
G01*
X56771Y-56082D02*
G75*
G03X56771Y-56082I-59J0D01*
G74*
G01*
X56771Y-56437D02*
G75*
G03X56771Y-56437I-59J0D01*
G74*
G01*
X56771Y-56751D02*
G75*
G03X56771Y-56751I-59J0D01*
G74*
G01*
X56771Y-57066D02*
G75*
G03X56771Y-57066I-59J0D01*
G74*
G01*
X62598Y-58562D02*
G75*
G03X62598Y-58562I-59J0D01*
G74*
G01*
X62598Y-59232D02*
G75*
G03X62598Y-59232I-59J0D01*
G74*
G01*
X62952Y-58562D02*
G75*
G03X62952Y-58562I-59J0D01*
G74*
G01*
X62952Y-59232D02*
G75*
G03X62952Y-59232I-59J0D01*
G74*
G01*
X66712Y-49271D02*
G75*
G03X66712Y-49271I-59J0D01*
G74*
G01*
X67303Y-49271D02*
G75*
G03X67303Y-49271I-59J0D01*
G74*
G01*
X68011Y-49271D02*
G75*
G03X68011Y-49271I-59J0D01*
G74*
G01*
X68602Y-49271D02*
G75*
G03X68602Y-49271I-59J0D01*
G74*
G01*
X69173Y-53307D02*
G75*
G03X69173Y-53307I-59J0D01*
G74*
G01*
X69173Y-53779D02*
G75*
G03X69173Y-53779I-59J0D01*
G74*
G01*
X69763Y-52381D02*
G75*
G03X69763Y-52381I-59J0D01*
G74*
G01*
X69763Y-53307D02*
G75*
G03X69763Y-53307I-59J0D01*
G74*
G01*
X69763Y-53779D02*
G75*
G03X69763Y-53779I-59J0D01*
G74*
G01*
X70334Y-52381D02*
G75*
G03X70334Y-52381I-59J0D01*
G74*
G01*
X70688Y-49606D02*
G75*
G03X70688Y-49606I-59J0D01*
G74*
G01*
X70688Y-50000D02*
G75*
G03X70688Y-50000I-59J0D01*
G74*
G01*
X70688Y-50393D02*
G75*
G03X70688Y-50393I-59J0D01*
G74*
G01*
X70688Y-50728D02*
G75*
G03X70688Y-50728I-59J0D01*
G74*
G01*
X70688Y-51062D02*
G75*
G03X70688Y-51062I-59J0D01*
G74*
G01*
X70688Y-51771D02*
G75*
G03X70688Y-51771I-59J0D01*
G74*
G01*
X70688Y-52381D02*
G75*
G03X70688Y-52381I-59J0D01*
G74*
G01*
X70767Y-53484D02*
G75*
G03X70767Y-53484I-59J0D01*
G74*
G01*
X70767Y-53838D02*
G75*
G03X70767Y-53838I-59J0D01*
G74*
G01*
X71043Y-49606D02*
G75*
G03X71043Y-49606I-59J0D01*
G74*
G01*
X71043Y-50000D02*
G75*
G03X71043Y-50000I-59J0D01*
G74*
G01*
X71043Y-50393D02*
G75*
G03X71043Y-50393I-59J0D01*
G74*
G01*
X71043Y-50728D02*
G75*
G03X71043Y-50728I-59J0D01*
G74*
G01*
X71043Y-51062D02*
G75*
G03X71043Y-51062I-59J0D01*
G74*
G01*
X71043Y-51771D02*
G75*
G03X71043Y-51771I-59J0D01*
G74*
G01*
X71082Y-53484D02*
G75*
G03X71082Y-53484I-59J0D01*
G74*
G01*
X71082Y-53838D02*
G75*
G03X71082Y-53838I-59J0D01*
G74*
G01*
X71397Y-53484D02*
G75*
G03X71397Y-53484I-59J0D01*
G74*
G01*
X71397Y-53838D02*
G75*
G03X71397Y-53838I-59J0D01*
G74*
G01*
X71712Y-49606D02*
G75*
G03X71712Y-49606I-59J0D01*
G74*
G01*
X71712Y-50000D02*
G75*
G03X71712Y-50000I-59J0D01*
G74*
G01*
X71712Y-53484D02*
G75*
G03X71712Y-53484I-59J0D01*
G74*
G01*
X71712Y-53838D02*
G75*
G03X71712Y-53838I-59J0D01*
G74*
G01*
X72303Y-49606D02*
G75*
G03X72303Y-49606I-59J0D01*
G74*
G01*
X72303Y-50000D02*
G75*
G03X72303Y-50000I-59J0D01*
G74*
G01*
X74192Y-49094D02*
G75*
G03X74192Y-49094I-59J0D01*
G74*
G01*
X74192Y-50354D02*
G75*
G03X74192Y-50354I-59J0D01*
G74*
G01*
X74192Y-50984D02*
G75*
G03X74192Y-50984I-59J0D01*
G74*
G01*
X74192Y-52224D02*
G75*
G03X74192Y-52224I-59J0D01*
G74*
G01*
X74192Y-53110D02*
G75*
G03X74192Y-53110I-59J0D01*
G74*
G01*
X74192Y-53740D02*
G75*
G03X74192Y-53740I-59J0D01*
G74*
G01*
X74192Y-54448D02*
G75*
G03X74192Y-54448I-59J0D01*
G74*
G01*
X74192Y-55157D02*
G75*
G03X74192Y-55157I-59J0D01*
G74*
G01*
X74311Y-57007D02*
G75*
G03X74311Y-57007I-59J0D01*
G74*
G01*
X74704Y-50354D02*
G75*
G03X74704Y-50354I-59J0D01*
G74*
G01*
X74783Y-55157D02*
G75*
G03X74783Y-55157I-59J0D01*
G74*
G01*
X75334Y-57007D02*
G75*
G03X75334Y-57007I-59J0D01*
G74*
G01*
X75413Y-55157D02*
G75*
G03X75413Y-55157I-59J0D01*
G74*
G01*
X75649Y-48464D02*
G75*
G03X75649Y-48464I-59J0D01*
G74*
G01*
X76003Y-55157D02*
G75*
G03X76003Y-55157I-59J0D01*
G74*
G01*
X76122Y-50118D02*
G75*
G03X76122Y-50118I-59J0D01*
G74*
G01*
X76318Y-57007D02*
G75*
G03X76318Y-57007I-59J0D01*
G74*
G01*
X76633Y-55157D02*
G75*
G03X76633Y-55157I-59J0D01*
G74*
G01*
X76870Y-48149D02*
G75*
G03X76870Y-48149I-59J0D01*
G74*
G01*
X76870Y-48464D02*
G75*
G03X76870Y-48464I-59J0D01*
G74*
G01*
X77224Y-55157D02*
G75*
G03X77224Y-55157I-59J0D01*
G74*
G01*
X77559Y-55157D02*
G75*
G03X77559Y-55157I-59J0D01*
G74*
G01*
X79271Y-59448D02*
G75*
G03X79271Y-59448I-59J0D01*
G74*
G01*
X79311Y-55157D02*
G75*
G03X79311Y-55157I-59J0D01*
G74*
G01*
X79940Y-55157D02*
G75*
G03X79940Y-55157I-59J0D01*
G74*
G01*
X79940Y-57440D02*
G75*
G03X79940Y-57440I-59J0D01*
G74*
G01*
X80492Y-59448D02*
G75*
G03X80492Y-59448I-59J0D01*
G74*
G01*
X80531Y-52519D02*
G75*
G03X80531Y-52519I-59J0D01*
G74*
G01*
X80531Y-52952D02*
G75*
G03X80531Y-52952I-59J0D01*
G74*
G01*
X80649Y-54251D02*
G75*
G03X80649Y-54251I-59J0D01*
G74*
G01*
X80688Y-48996D02*
G75*
G03X80688Y-48996I-59J0D01*
G74*
G01*
X80688Y-49566D02*
G75*
G03X80688Y-49566I-59J0D01*
G74*
G01*
X80688Y-51496D02*
G75*
G03X80688Y-51496I-59J0D01*
G74*
G01*
X80807Y-55157D02*
G75*
G03X80807Y-55157I-59J0D01*
G74*
G01*
X81003Y-50708D02*
G75*
G03X81003Y-50708I-59J0D01*
G74*
G01*
X81003Y-52519D02*
G75*
G03X81003Y-52519I-59J0D01*
G74*
G01*
X81003Y-52952D02*
G75*
G03X81003Y-52952I-59J0D01*
G74*
G01*
X81003Y-53346D02*
G75*
G03X81003Y-53346I-59J0D01*
G74*
G01*
X81161Y-57440D02*
G75*
G03X81161Y-57440I-59J0D01*
G74*
G01*
X81318Y-48996D02*
G75*
G03X81318Y-48996I-59J0D01*
G74*
G01*
X81318Y-51496D02*
G75*
G03X81318Y-51496I-59J0D01*
G74*
G01*
X81318Y-53779D02*
G75*
G03X81318Y-53779I-59J0D01*
G74*
G01*
X81318Y-54251D02*
G75*
G03X81318Y-54251I-59J0D01*
G74*
G01*
X81318Y-55157D02*
G75*
G03X81318Y-55157I-59J0D01*
G74*
G01*
X81791Y-59448D02*
G75*
G03X81791Y-59448I-59J0D01*
G74*
G01*
X82066Y-57440D02*
G75*
G03X82066Y-57440I-59J0D01*
G74*
G01*
X83011Y-57440D02*
G75*
G03X83011Y-57440I-59J0D01*
G74*
G01*
X83011Y-59448D02*
G75*
G03X83011Y-59448I-59J0D01*
G74*
G01*
X83248Y-55393D02*
G75*
G03X83248Y-55393I-59J0D01*
G74*
G01*
X83602Y-57440D02*
G75*
G03X83602Y-57440I-59J0D01*
G74*
G01*
X83720Y-54606D02*
G75*
G03X83720Y-54606I-59J0D01*
G74*
G01*
X83720Y-55393D02*
G75*
G03X83720Y-55393I-59J0D01*
G74*
G01*
X84192Y-48503D02*
G75*
G03X84192Y-48503I-59J0D01*
G74*
G01*
X84192Y-49291D02*
G75*
G03X84192Y-49291I-59J0D01*
G74*
G01*
X84192Y-54606D02*
G75*
G03X84192Y-54606I-59J0D01*
G74*
G01*
X84192Y-55393D02*
G75*
G03X84192Y-55393I-59J0D01*
G74*
G01*
X43228Y-54468D02*
X43228Y-54862D01*
X43031Y-54665D02*
X43425Y-54665D01*
X43523Y-54507D02*
X42933Y-54507D01*
X43523Y-54822D02*
X42933Y-54822D01*
X42933Y-54507D02*
G75*
G03X42933Y-54822I0J-157D01*
G74*
G01*
X43523Y-54822D02*
G75*
G03X43523Y-54507I0J157D01*
G74*
G01*
X43228Y-55885D02*
X43228Y-56279D01*
X43031Y-56082D02*
X43425Y-56082D01*
X43228Y-57657D02*
X43228Y-58051D01*
X43031Y-57854D02*
X43425Y-57854D01*
X43228Y-59074D02*
X43228Y-59468D01*
X43031Y-59271D02*
X43425Y-59271D01*
X43523Y-59114D02*
X42933Y-59114D01*
X43523Y-59429D02*
X42933Y-59429D01*
X42933Y-59114D02*
G75*
G03X42933Y-59429I0J-157D01*
G74*
G01*
X43523Y-59429D02*
G75*
G03X43523Y-59114I0J157D01*
G74*
G01*
G54D13*
X40321Y-64729D02*
X40321Y-63548D01*
X40602Y-63548D01*
X40771Y-63604D01*
X40883Y-63716D01*
X40940Y-63829D01*
X40996Y-64054D01*
X40996Y-64222D01*
X40940Y-64447D01*
X40883Y-64560D01*
X40771Y-64672D01*
X40602Y-64729D01*
X40321Y-64729D01*
X41502Y-64729D02*
X41502Y-63941D01*
X41502Y-64166D02*
X41558Y-64054D01*
X41615Y-63998D01*
X41727Y-63941D01*
X41840Y-63941D01*
X42233Y-64729D02*
X42233Y-63941D01*
X42233Y-63548D02*
X42177Y-63604D01*
X42233Y-63660D01*
X42289Y-63604D01*
X42233Y-63548D01*
X42233Y-63660D01*
X42964Y-64729D02*
X42852Y-64672D01*
X42796Y-64560D01*
X42796Y-63548D01*
X43583Y-64729D02*
X43471Y-64672D01*
X43414Y-64560D01*
X43414Y-63548D01*
X44933Y-64729D02*
X44933Y-63548D01*
X45327Y-64391D01*
X45720Y-63548D01*
X45720Y-64729D01*
X46789Y-64729D02*
X46789Y-64110D01*
X46733Y-63998D01*
X46620Y-63941D01*
X46395Y-63941D01*
X46283Y-63998D01*
X46789Y-64672D02*
X46676Y-64729D01*
X46395Y-64729D01*
X46283Y-64672D01*
X46226Y-64560D01*
X46226Y-64447D01*
X46283Y-64335D01*
X46395Y-64279D01*
X46676Y-64279D01*
X46789Y-64222D01*
X47351Y-63941D02*
X47351Y-65122D01*
X47351Y-63998D02*
X47464Y-63941D01*
X47689Y-63941D01*
X47801Y-63998D01*
X47858Y-64054D01*
X47914Y-64166D01*
X47914Y-64504D01*
X47858Y-64616D01*
X47801Y-64672D01*
X47689Y-64729D01*
X47464Y-64729D01*
X47351Y-64672D01*
X48420Y-64616D02*
X48476Y-64672D01*
X48420Y-64729D01*
X48364Y-64672D01*
X48420Y-64616D01*
X48420Y-64729D01*
X48420Y-63998D02*
X48476Y-64054D01*
X48420Y-64110D01*
X48364Y-64054D01*
X48420Y-63998D01*
X48420Y-64110D01*
X39174Y-66692D02*
X39252Y-66770D01*
X39252Y-66692D02*
X39174Y-66770D01*
X40546Y-66028D02*
X40658Y-66028D01*
X40771Y-66084D01*
X40827Y-66140D01*
X40883Y-66253D01*
X40940Y-66478D01*
X40940Y-66759D01*
X40883Y-66984D01*
X40827Y-67096D01*
X40771Y-67153D01*
X40658Y-67209D01*
X40546Y-67209D01*
X40433Y-67153D01*
X40377Y-67096D01*
X40321Y-66984D01*
X40265Y-66759D01*
X40265Y-66478D01*
X40321Y-66253D01*
X40377Y-66140D01*
X40433Y-66084D01*
X40546Y-66028D01*
X41446Y-67096D02*
X41502Y-67153D01*
X41446Y-67209D01*
X41390Y-67153D01*
X41446Y-67096D01*
X41446Y-67209D01*
X41952Y-66140D02*
X42008Y-66084D01*
X42121Y-66028D01*
X42402Y-66028D01*
X42514Y-66084D01*
X42571Y-66140D01*
X42627Y-66253D01*
X42627Y-66365D01*
X42571Y-66534D01*
X41896Y-67209D01*
X42627Y-67209D01*
X43358Y-66028D02*
X43471Y-66028D01*
X43583Y-66084D01*
X43639Y-66140D01*
X43696Y-66253D01*
X43752Y-66478D01*
X43752Y-66759D01*
X43696Y-66984D01*
X43639Y-67096D01*
X43583Y-67153D01*
X43471Y-67209D01*
X43358Y-67209D01*
X43246Y-67153D01*
X43189Y-67096D01*
X43133Y-66984D01*
X43077Y-66759D01*
X43077Y-66478D01*
X43133Y-66253D01*
X43189Y-66140D01*
X43246Y-66084D01*
X43358Y-66028D01*
X44258Y-67209D02*
X44258Y-66422D01*
X44258Y-66534D02*
X44314Y-66478D01*
X44427Y-66422D01*
X44595Y-66422D01*
X44708Y-66478D01*
X44764Y-66590D01*
X44764Y-67209D01*
X44764Y-66590D02*
X44820Y-66478D01*
X44933Y-66422D01*
X45102Y-66422D01*
X45214Y-66478D01*
X45270Y-66590D01*
X45270Y-67209D01*
X45833Y-67209D02*
X45833Y-66422D01*
X45833Y-66534D02*
X45889Y-66478D01*
X46001Y-66422D01*
X46170Y-66422D01*
X46283Y-66478D01*
X46339Y-66590D01*
X46339Y-67209D01*
X46339Y-66590D02*
X46395Y-66478D01*
X46508Y-66422D01*
X46676Y-66422D01*
X46789Y-66478D01*
X46845Y-66590D01*
X46845Y-67209D01*
X49151Y-65972D02*
X48139Y-67490D01*
X50670Y-66028D02*
X50782Y-66028D01*
X50895Y-66084D01*
X50951Y-66140D01*
X51007Y-66253D01*
X51063Y-66478D01*
X51063Y-66759D01*
X51007Y-66984D01*
X50951Y-67096D01*
X50895Y-67153D01*
X50782Y-67209D01*
X50670Y-67209D01*
X50557Y-67153D01*
X50501Y-67096D01*
X50445Y-66984D01*
X50388Y-66759D01*
X50388Y-66478D01*
X50445Y-66253D01*
X50501Y-66140D01*
X50557Y-66084D01*
X50670Y-66028D01*
X51570Y-67096D02*
X51626Y-67153D01*
X51570Y-67209D01*
X51513Y-67153D01*
X51570Y-67096D01*
X51570Y-67209D01*
X52357Y-66028D02*
X52469Y-66028D01*
X52582Y-66084D01*
X52638Y-66140D01*
X52694Y-66253D01*
X52751Y-66478D01*
X52751Y-66759D01*
X52694Y-66984D01*
X52638Y-67096D01*
X52582Y-67153D01*
X52469Y-67209D01*
X52357Y-67209D01*
X52244Y-67153D01*
X52188Y-67096D01*
X52132Y-66984D01*
X52076Y-66759D01*
X52076Y-66478D01*
X52132Y-66253D01*
X52188Y-66140D01*
X52244Y-66084D01*
X52357Y-66028D01*
X53482Y-66028D02*
X53594Y-66028D01*
X53707Y-66084D01*
X53763Y-66140D01*
X53819Y-66253D01*
X53876Y-66478D01*
X53876Y-66759D01*
X53819Y-66984D01*
X53763Y-67096D01*
X53707Y-67153D01*
X53594Y-67209D01*
X53482Y-67209D01*
X53369Y-67153D01*
X53313Y-67096D01*
X53257Y-66984D01*
X53201Y-66759D01*
X53201Y-66478D01*
X53257Y-66253D01*
X53313Y-66140D01*
X53369Y-66084D01*
X53482Y-66028D01*
X54550Y-66534D02*
X54438Y-66478D01*
X54382Y-66422D01*
X54325Y-66309D01*
X54325Y-66253D01*
X54382Y-66140D01*
X54438Y-66084D01*
X54550Y-66028D01*
X54775Y-66028D01*
X54888Y-66084D01*
X54944Y-66140D01*
X55000Y-66253D01*
X55000Y-66309D01*
X54944Y-66422D01*
X54888Y-66478D01*
X54775Y-66534D01*
X54550Y-66534D01*
X54438Y-66590D01*
X54382Y-66647D01*
X54325Y-66759D01*
X54325Y-66984D01*
X54382Y-67096D01*
X54438Y-67153D01*
X54550Y-67209D01*
X54775Y-67209D01*
X54888Y-67153D01*
X54944Y-67096D01*
X55000Y-66984D01*
X55000Y-66759D01*
X54944Y-66647D01*
X54888Y-66590D01*
X54775Y-66534D01*
X55450Y-66028D02*
X55450Y-66253D01*
X55900Y-66028D02*
X55900Y-66253D01*
X57644Y-67659D02*
X57588Y-67603D01*
X57475Y-67434D01*
X57419Y-67321D01*
X57363Y-67153D01*
X57306Y-66872D01*
X57306Y-66647D01*
X57363Y-66365D01*
X57419Y-66197D01*
X57475Y-66084D01*
X57588Y-65915D01*
X57644Y-65859D01*
X58150Y-67209D02*
X58375Y-67209D01*
X58487Y-67153D01*
X58544Y-67096D01*
X58656Y-66928D01*
X58712Y-66703D01*
X58712Y-66253D01*
X58656Y-66140D01*
X58600Y-66084D01*
X58487Y-66028D01*
X58262Y-66028D01*
X58150Y-66084D01*
X58094Y-66140D01*
X58037Y-66253D01*
X58037Y-66534D01*
X58094Y-66647D01*
X58150Y-66703D01*
X58262Y-66759D01*
X58487Y-66759D01*
X58600Y-66703D01*
X58656Y-66647D01*
X58712Y-66534D01*
X59275Y-67209D02*
X59500Y-67209D01*
X59612Y-67153D01*
X59669Y-67096D01*
X59781Y-66928D01*
X59837Y-66703D01*
X59837Y-66253D01*
X59781Y-66140D01*
X59725Y-66084D01*
X59612Y-66028D01*
X59387Y-66028D01*
X59275Y-66084D01*
X59219Y-66140D01*
X59162Y-66253D01*
X59162Y-66534D01*
X59219Y-66647D01*
X59275Y-66703D01*
X59387Y-66759D01*
X59612Y-66759D01*
X59725Y-66703D01*
X59781Y-66647D01*
X59837Y-66534D01*
X60287Y-66140D02*
X60343Y-66084D01*
X60456Y-66028D01*
X60737Y-66028D01*
X60850Y-66084D01*
X60906Y-66140D01*
X60962Y-66253D01*
X60962Y-66365D01*
X60906Y-66534D01*
X60231Y-67209D01*
X60962Y-67209D01*
X62368Y-67209D02*
X62368Y-66028D01*
X62874Y-67209D02*
X62874Y-66590D01*
X62818Y-66478D01*
X62706Y-66422D01*
X62537Y-66422D01*
X62424Y-66478D01*
X62368Y-66534D01*
X63606Y-67209D02*
X63493Y-67153D01*
X63437Y-67096D01*
X63381Y-66984D01*
X63381Y-66647D01*
X63437Y-66534D01*
X63493Y-66478D01*
X63606Y-66422D01*
X63774Y-66422D01*
X63887Y-66478D01*
X63943Y-66534D01*
X63999Y-66647D01*
X63999Y-66984D01*
X63943Y-67096D01*
X63887Y-67153D01*
X63774Y-67209D01*
X63606Y-67209D01*
X64674Y-67209D02*
X64562Y-67153D01*
X64505Y-67040D01*
X64505Y-66028D01*
X65574Y-67153D02*
X65462Y-67209D01*
X65237Y-67209D01*
X65124Y-67153D01*
X65068Y-67040D01*
X65068Y-66590D01*
X65124Y-66478D01*
X65237Y-66422D01*
X65462Y-66422D01*
X65574Y-66478D01*
X65630Y-66590D01*
X65630Y-66703D01*
X65068Y-66815D01*
X66080Y-67153D02*
X66193Y-67209D01*
X66418Y-67209D01*
X66530Y-67153D01*
X66586Y-67040D01*
X66586Y-66984D01*
X66530Y-66872D01*
X66418Y-66815D01*
X66249Y-66815D01*
X66136Y-66759D01*
X66080Y-66647D01*
X66080Y-66590D01*
X66136Y-66478D01*
X66249Y-66422D01*
X66418Y-66422D01*
X66530Y-66478D01*
X66980Y-67659D02*
X67036Y-67603D01*
X67149Y-67434D01*
X67205Y-67321D01*
X67261Y-67153D01*
X67318Y-66872D01*
X67318Y-66647D01*
X67261Y-66365D01*
X67205Y-66197D01*
X67149Y-66084D01*
X67036Y-65915D01*
X66980Y-65859D01*
G54D12*
X39252Y-68290D02*
G75*
G03X39252Y-68290I-59J0D01*
G74*
G01*
G54D13*
X40546Y-67587D02*
X40658Y-67587D01*
X40771Y-67643D01*
X40827Y-67699D01*
X40883Y-67812D01*
X40940Y-68037D01*
X40940Y-68318D01*
X40883Y-68543D01*
X40827Y-68656D01*
X40771Y-68712D01*
X40658Y-68768D01*
X40546Y-68768D01*
X40433Y-68712D01*
X40377Y-68656D01*
X40321Y-68543D01*
X40265Y-68318D01*
X40265Y-68037D01*
X40321Y-67812D01*
X40377Y-67699D01*
X40433Y-67643D01*
X40546Y-67587D01*
X41446Y-68656D02*
X41502Y-68712D01*
X41446Y-68768D01*
X41390Y-68712D01*
X41446Y-68656D01*
X41446Y-68768D01*
X41896Y-67587D02*
X42627Y-67587D01*
X42233Y-68037D01*
X42402Y-68037D01*
X42514Y-68093D01*
X42571Y-68149D01*
X42627Y-68262D01*
X42627Y-68543D01*
X42571Y-68656D01*
X42514Y-68712D01*
X42402Y-68768D01*
X42064Y-68768D01*
X41952Y-68712D01*
X41896Y-68656D01*
X43358Y-67587D02*
X43471Y-67587D01*
X43583Y-67643D01*
X43639Y-67699D01*
X43696Y-67812D01*
X43752Y-68037D01*
X43752Y-68318D01*
X43696Y-68543D01*
X43639Y-68656D01*
X43583Y-68712D01*
X43471Y-68768D01*
X43358Y-68768D01*
X43246Y-68712D01*
X43189Y-68656D01*
X43133Y-68543D01*
X43077Y-68318D01*
X43077Y-68037D01*
X43133Y-67812D01*
X43189Y-67699D01*
X43246Y-67643D01*
X43358Y-67587D01*
X44258Y-68768D02*
X44258Y-67981D01*
X44258Y-68093D02*
X44314Y-68037D01*
X44427Y-67981D01*
X44595Y-67981D01*
X44708Y-68037D01*
X44764Y-68149D01*
X44764Y-68768D01*
X44764Y-68149D02*
X44820Y-68037D01*
X44933Y-67981D01*
X45102Y-67981D01*
X45214Y-68037D01*
X45270Y-68149D01*
X45270Y-68768D01*
X45833Y-68768D02*
X45833Y-67981D01*
X45833Y-68093D02*
X45889Y-68037D01*
X46001Y-67981D01*
X46170Y-67981D01*
X46283Y-68037D01*
X46339Y-68149D01*
X46339Y-68768D01*
X46339Y-68149D02*
X46395Y-68037D01*
X46508Y-67981D01*
X46676Y-67981D01*
X46789Y-68037D01*
X46845Y-68149D01*
X46845Y-68768D01*
X49151Y-67531D02*
X48139Y-69049D01*
X50670Y-67587D02*
X50782Y-67587D01*
X50895Y-67643D01*
X50951Y-67699D01*
X51007Y-67812D01*
X51063Y-68037D01*
X51063Y-68318D01*
X51007Y-68543D01*
X50951Y-68656D01*
X50895Y-68712D01*
X50782Y-68768D01*
X50670Y-68768D01*
X50557Y-68712D01*
X50501Y-68656D01*
X50445Y-68543D01*
X50388Y-68318D01*
X50388Y-68037D01*
X50445Y-67812D01*
X50501Y-67699D01*
X50557Y-67643D01*
X50670Y-67587D01*
X51570Y-68656D02*
X51626Y-68712D01*
X51570Y-68768D01*
X51513Y-68712D01*
X51570Y-68656D01*
X51570Y-68768D01*
X52357Y-67587D02*
X52469Y-67587D01*
X52582Y-67643D01*
X52638Y-67699D01*
X52694Y-67812D01*
X52751Y-68037D01*
X52751Y-68318D01*
X52694Y-68543D01*
X52638Y-68656D01*
X52582Y-68712D01*
X52469Y-68768D01*
X52357Y-68768D01*
X52244Y-68712D01*
X52188Y-68656D01*
X52132Y-68543D01*
X52076Y-68318D01*
X52076Y-68037D01*
X52132Y-67812D01*
X52188Y-67699D01*
X52244Y-67643D01*
X52357Y-67587D01*
X53876Y-68768D02*
X53201Y-68768D01*
X53538Y-68768D02*
X53538Y-67587D01*
X53426Y-67756D01*
X53313Y-67868D01*
X53201Y-67924D01*
X54325Y-67699D02*
X54382Y-67643D01*
X54494Y-67587D01*
X54775Y-67587D01*
X54888Y-67643D01*
X54944Y-67699D01*
X55000Y-67812D01*
X55000Y-67924D01*
X54944Y-68093D01*
X54269Y-68768D01*
X55000Y-68768D01*
X55450Y-67587D02*
X55450Y-67812D01*
X55900Y-67587D02*
X55900Y-67812D01*
X57644Y-69218D02*
X57588Y-69162D01*
X57475Y-68993D01*
X57419Y-68881D01*
X57363Y-68712D01*
X57306Y-68431D01*
X57306Y-68206D01*
X57363Y-67924D01*
X57419Y-67756D01*
X57475Y-67643D01*
X57588Y-67474D01*
X57644Y-67418D01*
X58712Y-68768D02*
X58037Y-68768D01*
X58375Y-68768D02*
X58375Y-67587D01*
X58262Y-67756D01*
X58150Y-67868D01*
X58037Y-67924D01*
X59106Y-67587D02*
X59837Y-67587D01*
X59444Y-68037D01*
X59612Y-68037D01*
X59725Y-68093D01*
X59781Y-68149D01*
X59837Y-68262D01*
X59837Y-68543D01*
X59781Y-68656D01*
X59725Y-68712D01*
X59612Y-68768D01*
X59275Y-68768D01*
X59162Y-68712D01*
X59106Y-68656D01*
X60287Y-67699D02*
X60343Y-67643D01*
X60456Y-67587D01*
X60737Y-67587D01*
X60850Y-67643D01*
X60906Y-67699D01*
X60962Y-67812D01*
X60962Y-67924D01*
X60906Y-68093D01*
X60231Y-68768D01*
X60962Y-68768D01*
X62368Y-68768D02*
X62368Y-67587D01*
X62874Y-68768D02*
X62874Y-68149D01*
X62818Y-68037D01*
X62706Y-67981D01*
X62537Y-67981D01*
X62424Y-68037D01*
X62368Y-68093D01*
X63606Y-68768D02*
X63493Y-68712D01*
X63437Y-68656D01*
X63381Y-68543D01*
X63381Y-68206D01*
X63437Y-68093D01*
X63493Y-68037D01*
X63606Y-67981D01*
X63774Y-67981D01*
X63887Y-68037D01*
X63943Y-68093D01*
X63999Y-68206D01*
X63999Y-68543D01*
X63943Y-68656D01*
X63887Y-68712D01*
X63774Y-68768D01*
X63606Y-68768D01*
X64674Y-68768D02*
X64562Y-68712D01*
X64505Y-68599D01*
X64505Y-67587D01*
X65574Y-68712D02*
X65462Y-68768D01*
X65237Y-68768D01*
X65124Y-68712D01*
X65068Y-68599D01*
X65068Y-68149D01*
X65124Y-68037D01*
X65237Y-67981D01*
X65462Y-67981D01*
X65574Y-68037D01*
X65630Y-68149D01*
X65630Y-68262D01*
X65068Y-68374D01*
X66080Y-68712D02*
X66193Y-68768D01*
X66418Y-68768D01*
X66530Y-68712D01*
X66586Y-68599D01*
X66586Y-68543D01*
X66530Y-68431D01*
X66418Y-68374D01*
X66249Y-68374D01*
X66136Y-68318D01*
X66080Y-68206D01*
X66080Y-68149D01*
X66136Y-68037D01*
X66249Y-67981D01*
X66418Y-67981D01*
X66530Y-68037D01*
X66980Y-69218D02*
X67036Y-69162D01*
X67149Y-68993D01*
X67205Y-68881D01*
X67261Y-68712D01*
X67318Y-68431D01*
X67318Y-68206D01*
X67261Y-67924D01*
X67205Y-67756D01*
X67149Y-67643D01*
X67036Y-67474D01*
X66980Y-67418D01*
X39055Y-69652D02*
X39055Y-70046D01*
X38859Y-69849D02*
X39252Y-69849D01*
X40940Y-70327D02*
X40265Y-70327D01*
X40602Y-70327D02*
X40602Y-69146D01*
X40490Y-69315D01*
X40377Y-69427D01*
X40265Y-69483D01*
X41446Y-70215D02*
X41502Y-70271D01*
X41446Y-70327D01*
X41390Y-70271D01*
X41446Y-70215D01*
X41446Y-70327D01*
X42233Y-69146D02*
X42346Y-69146D01*
X42458Y-69202D01*
X42514Y-69258D01*
X42571Y-69371D01*
X42627Y-69596D01*
X42627Y-69877D01*
X42571Y-70102D01*
X42514Y-70215D01*
X42458Y-70271D01*
X42346Y-70327D01*
X42233Y-70327D01*
X42121Y-70271D01*
X42064Y-70215D01*
X42008Y-70102D01*
X41952Y-69877D01*
X41952Y-69596D01*
X42008Y-69371D01*
X42064Y-69258D01*
X42121Y-69202D01*
X42233Y-69146D01*
X43358Y-69146D02*
X43471Y-69146D01*
X43583Y-69202D01*
X43639Y-69258D01*
X43696Y-69371D01*
X43752Y-69596D01*
X43752Y-69877D01*
X43696Y-70102D01*
X43639Y-70215D01*
X43583Y-70271D01*
X43471Y-70327D01*
X43358Y-70327D01*
X43246Y-70271D01*
X43189Y-70215D01*
X43133Y-70102D01*
X43077Y-69877D01*
X43077Y-69596D01*
X43133Y-69371D01*
X43189Y-69258D01*
X43246Y-69202D01*
X43358Y-69146D01*
X44258Y-70327D02*
X44258Y-69540D01*
X44258Y-69652D02*
X44314Y-69596D01*
X44427Y-69540D01*
X44595Y-69540D01*
X44708Y-69596D01*
X44764Y-69708D01*
X44764Y-70327D01*
X44764Y-69708D02*
X44820Y-69596D01*
X44933Y-69540D01*
X45102Y-69540D01*
X45214Y-69596D01*
X45270Y-69708D01*
X45270Y-70327D01*
X45833Y-70327D02*
X45833Y-69540D01*
X45833Y-69652D02*
X45889Y-69596D01*
X46001Y-69540D01*
X46170Y-69540D01*
X46283Y-69596D01*
X46339Y-69708D01*
X46339Y-70327D01*
X46339Y-69708D02*
X46395Y-69596D01*
X46508Y-69540D01*
X46676Y-69540D01*
X46789Y-69596D01*
X46845Y-69708D01*
X46845Y-70327D01*
X49151Y-69090D02*
X48139Y-70608D01*
X50670Y-69146D02*
X50782Y-69146D01*
X50895Y-69202D01*
X50951Y-69258D01*
X51007Y-69371D01*
X51063Y-69596D01*
X51063Y-69877D01*
X51007Y-70102D01*
X50951Y-70215D01*
X50895Y-70271D01*
X50782Y-70327D01*
X50670Y-70327D01*
X50557Y-70271D01*
X50501Y-70215D01*
X50445Y-70102D01*
X50388Y-69877D01*
X50388Y-69596D01*
X50445Y-69371D01*
X50501Y-69258D01*
X50557Y-69202D01*
X50670Y-69146D01*
X51570Y-70215D02*
X51626Y-70271D01*
X51570Y-70327D01*
X51513Y-70271D01*
X51570Y-70215D01*
X51570Y-70327D01*
X52357Y-69146D02*
X52469Y-69146D01*
X52582Y-69202D01*
X52638Y-69258D01*
X52694Y-69371D01*
X52751Y-69596D01*
X52751Y-69877D01*
X52694Y-70102D01*
X52638Y-70215D01*
X52582Y-70271D01*
X52469Y-70327D01*
X52357Y-70327D01*
X52244Y-70271D01*
X52188Y-70215D01*
X52132Y-70102D01*
X52076Y-69877D01*
X52076Y-69596D01*
X52132Y-69371D01*
X52188Y-69258D01*
X52244Y-69202D01*
X52357Y-69146D01*
X53144Y-69146D02*
X53876Y-69146D01*
X53482Y-69596D01*
X53651Y-69596D01*
X53763Y-69652D01*
X53819Y-69708D01*
X53876Y-69821D01*
X53876Y-70102D01*
X53819Y-70215D01*
X53763Y-70271D01*
X53651Y-70327D01*
X53313Y-70327D01*
X53201Y-70271D01*
X53144Y-70215D01*
X54438Y-70327D02*
X54663Y-70327D01*
X54775Y-70271D01*
X54832Y-70215D01*
X54944Y-70046D01*
X55000Y-69821D01*
X55000Y-69371D01*
X54944Y-69258D01*
X54888Y-69202D01*
X54775Y-69146D01*
X54550Y-69146D01*
X54438Y-69202D01*
X54382Y-69258D01*
X54325Y-69371D01*
X54325Y-69652D01*
X54382Y-69765D01*
X54438Y-69821D01*
X54550Y-69877D01*
X54775Y-69877D01*
X54888Y-69821D01*
X54944Y-69765D01*
X55000Y-69652D01*
X55450Y-69146D02*
X55450Y-69371D01*
X55900Y-69146D02*
X55900Y-69371D01*
X57644Y-70777D02*
X57588Y-70721D01*
X57475Y-70552D01*
X57419Y-70440D01*
X57363Y-70271D01*
X57306Y-69990D01*
X57306Y-69765D01*
X57363Y-69483D01*
X57419Y-69315D01*
X57475Y-69202D01*
X57588Y-69034D01*
X57644Y-68977D01*
X58037Y-69258D02*
X58094Y-69202D01*
X58206Y-69146D01*
X58487Y-69146D01*
X58600Y-69202D01*
X58656Y-69258D01*
X58712Y-69371D01*
X58712Y-69483D01*
X58656Y-69652D01*
X57981Y-70327D01*
X58712Y-70327D01*
X60118Y-70327D02*
X60118Y-69146D01*
X60625Y-70327D02*
X60625Y-69708D01*
X60568Y-69596D01*
X60456Y-69540D01*
X60287Y-69540D01*
X60175Y-69596D01*
X60118Y-69652D01*
X61356Y-70327D02*
X61243Y-70271D01*
X61187Y-70215D01*
X61131Y-70102D01*
X61131Y-69765D01*
X61187Y-69652D01*
X61243Y-69596D01*
X61356Y-69540D01*
X61525Y-69540D01*
X61637Y-69596D01*
X61693Y-69652D01*
X61750Y-69765D01*
X61750Y-70102D01*
X61693Y-70215D01*
X61637Y-70271D01*
X61525Y-70327D01*
X61356Y-70327D01*
X62424Y-70327D02*
X62312Y-70271D01*
X62256Y-70158D01*
X62256Y-69146D01*
X63324Y-70271D02*
X63212Y-70327D01*
X62987Y-70327D01*
X62874Y-70271D01*
X62818Y-70158D01*
X62818Y-69708D01*
X62874Y-69596D01*
X62987Y-69540D01*
X63212Y-69540D01*
X63324Y-69596D01*
X63381Y-69708D01*
X63381Y-69821D01*
X62818Y-69933D01*
X63831Y-70271D02*
X63943Y-70327D01*
X64168Y-70327D01*
X64280Y-70271D01*
X64337Y-70158D01*
X64337Y-70102D01*
X64280Y-69990D01*
X64168Y-69933D01*
X63999Y-69933D01*
X63887Y-69877D01*
X63831Y-69765D01*
X63831Y-69708D01*
X63887Y-69596D01*
X63999Y-69540D01*
X64168Y-69540D01*
X64280Y-69596D01*
X65743Y-69877D02*
X66643Y-69877D01*
X66193Y-70327D02*
X66193Y-69427D01*
X68049Y-69258D02*
X68105Y-69202D01*
X68217Y-69146D01*
X68499Y-69146D01*
X68611Y-69202D01*
X68667Y-69258D01*
X68724Y-69371D01*
X68724Y-69483D01*
X68667Y-69652D01*
X67992Y-70327D01*
X68724Y-70327D01*
X70073Y-70271D02*
X70186Y-70327D01*
X70411Y-70327D01*
X70523Y-70271D01*
X70580Y-70158D01*
X70580Y-70102D01*
X70523Y-69990D01*
X70411Y-69933D01*
X70242Y-69933D01*
X70130Y-69877D01*
X70073Y-69765D01*
X70073Y-69708D01*
X70130Y-69596D01*
X70242Y-69540D01*
X70411Y-69540D01*
X70523Y-69596D01*
X71255Y-70327D02*
X71142Y-70271D01*
X71086Y-70158D01*
X71086Y-69146D01*
X71873Y-70327D02*
X71761Y-70271D01*
X71705Y-70215D01*
X71648Y-70102D01*
X71648Y-69765D01*
X71705Y-69652D01*
X71761Y-69596D01*
X71873Y-69540D01*
X72042Y-69540D01*
X72154Y-69596D01*
X72211Y-69652D01*
X72267Y-69765D01*
X72267Y-70102D01*
X72211Y-70215D01*
X72154Y-70271D01*
X72042Y-70327D01*
X71873Y-70327D01*
X72604Y-69540D02*
X73054Y-69540D01*
X72773Y-69146D02*
X72773Y-70158D01*
X72829Y-70271D01*
X72942Y-70327D01*
X73054Y-70327D01*
X73392Y-70271D02*
X73504Y-70327D01*
X73729Y-70327D01*
X73842Y-70271D01*
X73898Y-70158D01*
X73898Y-70102D01*
X73842Y-69990D01*
X73729Y-69933D01*
X73561Y-69933D01*
X73448Y-69877D01*
X73392Y-69765D01*
X73392Y-69708D01*
X73448Y-69596D01*
X73561Y-69540D01*
X73729Y-69540D01*
X73842Y-69596D01*
X74292Y-70777D02*
X74348Y-70721D01*
X74460Y-70552D01*
X74517Y-70440D01*
X74573Y-70271D01*
X74629Y-69990D01*
X74629Y-69765D01*
X74573Y-69483D01*
X74517Y-69315D01*
X74460Y-69202D01*
X74348Y-69034D01*
X74292Y-68977D01*
M02*
