G04 (created by PCBNEW (2013-07-07 BZR 4022)-stable) date 27/11/2015 23:20:48*
%MOIN*%
G04 Gerber Fmt 3.4, Leading zero omitted, Abs format*
%FSLAX34Y34*%
G01*
G70*
G90*
G04 APERTURE LIST*
%ADD10C,0.00590551*%
%ADD11C,0.019685*%
%ADD12C,0.0472441*%
%ADD13O,0.15748X0.0629921*%
%ADD14C,0.015748*%
%ADD15C,0.00393701*%
%ADD16C,0.00787402*%
G04 APERTURE END LIST*
G54D10*
G54D11*
X62539Y-59232D03*
X62893Y-59232D03*
X62893Y-58562D03*
X62539Y-58562D03*
X56358Y-56082D03*
X56712Y-56082D03*
X56712Y-56437D03*
X56358Y-56437D03*
X56358Y-56751D03*
X56712Y-56751D03*
X56712Y-57066D03*
X56358Y-57066D03*
X70629Y-52381D03*
X70275Y-52381D03*
X69704Y-52381D03*
X71653Y-53838D03*
X71653Y-53484D03*
X70708Y-53838D03*
X70708Y-53484D03*
X71023Y-53484D03*
X71338Y-53484D03*
X71338Y-53838D03*
X71023Y-53838D03*
X69704Y-53307D03*
X69704Y-53779D03*
X70629Y-51771D03*
X70984Y-51771D03*
X71653Y-49606D03*
X72244Y-49606D03*
X70629Y-49606D03*
X70984Y-49606D03*
X70984Y-50000D03*
X70629Y-50000D03*
X70984Y-50728D03*
X70629Y-50728D03*
X70984Y-51062D03*
X70629Y-51062D03*
X83188Y-55393D03*
X83661Y-55393D03*
X83661Y-54606D03*
X42736Y-50551D03*
X42736Y-49940D03*
X46496Y-48188D03*
X45748Y-48188D03*
X44251Y-48188D03*
X45000Y-48188D03*
X52677Y-48818D03*
X52204Y-48818D03*
X48818Y-57362D03*
X48385Y-57362D03*
X79881Y-57440D03*
X76259Y-57007D03*
X75275Y-57007D03*
X74251Y-57007D03*
X69114Y-53779D03*
X69114Y-53307D03*
X67952Y-49271D03*
X68543Y-49271D03*
X67244Y-49271D03*
X66653Y-49271D03*
X80472Y-52952D03*
X80472Y-52519D03*
X76062Y-50118D03*
X74645Y-50354D03*
X84133Y-54606D03*
X84133Y-55393D03*
X84133Y-49291D03*
X84133Y-48503D03*
X76811Y-48149D03*
X80629Y-48996D03*
X80629Y-49566D03*
X80944Y-52952D03*
X80944Y-53346D03*
X81259Y-48996D03*
X80944Y-50708D03*
X80629Y-51496D03*
X81259Y-51496D03*
X80944Y-52519D03*
X81259Y-53779D03*
X80590Y-54251D03*
X81259Y-54251D03*
X79251Y-55157D03*
X79881Y-55157D03*
X76811Y-48464D03*
X75590Y-48464D03*
X74133Y-49094D03*
X74133Y-50354D03*
X74133Y-54448D03*
X43070Y-58346D03*
X43385Y-58346D03*
X43385Y-58661D03*
X43070Y-58661D03*
X43385Y-57322D03*
X43070Y-57322D03*
X43070Y-56614D03*
X43385Y-56614D03*
X43385Y-56968D03*
X43070Y-56968D03*
X43070Y-55590D03*
X43385Y-55590D03*
X43385Y-55275D03*
X43070Y-55275D03*
X81102Y-57440D03*
X82007Y-57440D03*
X82952Y-57440D03*
X83543Y-57440D03*
X82952Y-59448D03*
X81732Y-59448D03*
X79212Y-59448D03*
X80433Y-59448D03*
X72244Y-50000D03*
X71653Y-50000D03*
X70629Y-50393D03*
X70984Y-50393D03*
X80748Y-55157D03*
X81259Y-55157D03*
X74133Y-50984D03*
X74133Y-52224D03*
X74133Y-53110D03*
X74133Y-53740D03*
X77500Y-55157D03*
X77165Y-55157D03*
X76574Y-55157D03*
X75354Y-55157D03*
X75944Y-55157D03*
X74724Y-55157D03*
X54468Y-54448D03*
X54468Y-53976D03*
X54822Y-53976D03*
X54822Y-54448D03*
X54645Y-54212D03*
G54D12*
X43228Y-56082D03*
G54D13*
X43228Y-54665D03*
X43228Y-59271D03*
G54D12*
X43228Y-57854D03*
G54D11*
X74133Y-55157D03*
G54D14*
X67716Y-51181D03*
X66850Y-51181D03*
X68582Y-51181D03*
X70354Y-55196D03*
X70354Y-54960D03*
X57283Y-55570D03*
X57519Y-55570D03*
X53149Y-54212D03*
X55757Y-50679D03*
X55757Y-49891D03*
X55472Y-53503D03*
X55600Y-51387D03*
X57017Y-50679D03*
X53238Y-48789D03*
X54970Y-51387D03*
X54025Y-51387D03*
X57017Y-49891D03*
X55127Y-48789D03*
X56230Y-51387D03*
X55757Y-48789D03*
X56860Y-51387D03*
X57017Y-48789D03*
X57490Y-51387D03*
X57647Y-48789D03*
X56387Y-48789D03*
X59744Y-50472D03*
X51870Y-52047D03*
X59744Y-52440D03*
X59744Y-53228D03*
X50708Y-51200D03*
X59744Y-51259D03*
X65059Y-48799D03*
X62500Y-49685D03*
X63681Y-49685D03*
X60137Y-49685D03*
X61318Y-49685D03*
X59153Y-48799D03*
X75000Y-51397D03*
X76614Y-54015D03*
X55098Y-56358D03*
X55393Y-56633D03*
X51141Y-57598D03*
X51377Y-57598D03*
X63366Y-55649D03*
X65354Y-55216D03*
X51543Y-49692D03*
X52598Y-55629D03*
X51574Y-57598D03*
X60137Y-54015D03*
X62893Y-54409D03*
X63681Y-54015D03*
X59153Y-55295D03*
X64468Y-50472D03*
X53818Y-53622D03*
X45748Y-52657D03*
X64468Y-52440D03*
X61712Y-54409D03*
X49035Y-56200D03*
X49606Y-49409D03*
X49606Y-50492D03*
X64468Y-51259D03*
X64468Y-53228D03*
X76417Y-51633D03*
X75610Y-52559D03*
X61811Y-57559D03*
X70354Y-56830D03*
X56358Y-58385D03*
X56594Y-58385D03*
X56594Y-58188D03*
X56358Y-58188D03*
X71988Y-52303D03*
X83326Y-54173D03*
X71712Y-52165D03*
X72460Y-51122D03*
X72224Y-51122D03*
X70354Y-56614D03*
X70157Y-56614D03*
X70157Y-56830D03*
X64980Y-57637D03*
X51397Y-58149D03*
X65196Y-57637D03*
X75905Y-49055D03*
X76338Y-49055D03*
X51397Y-57933D03*
X64980Y-57421D03*
X64685Y-57283D03*
X51397Y-58366D03*
X44153Y-53031D03*
X44350Y-53248D03*
X46968Y-58307D03*
X44566Y-53248D03*
X46751Y-58307D03*
X46751Y-58070D03*
X56240Y-57637D03*
X56240Y-57834D03*
X64094Y-56830D03*
X64094Y-57066D03*
X48346Y-51889D03*
X44724Y-56653D03*
X44724Y-57283D03*
X48661Y-51889D03*
X58937Y-55511D03*
X49133Y-54783D03*
X50905Y-49311D03*
X50236Y-54094D03*
X72677Y-49251D03*
X51692Y-48503D03*
X50866Y-54409D03*
X73031Y-49251D03*
X51417Y-48346D03*
X50551Y-53779D03*
X73582Y-49251D03*
X51909Y-48169D03*
X51496Y-54409D03*
X60137Y-52047D03*
X57618Y-53307D03*
X60531Y-52047D03*
X57952Y-53307D03*
X60531Y-52440D03*
X58287Y-53307D03*
X49291Y-52204D03*
X45984Y-51673D03*
X45748Y-53877D03*
X44724Y-58464D03*
X45748Y-53622D03*
X44724Y-57834D03*
X75000Y-51751D03*
X75708Y-51279D03*
X76043Y-54271D03*
X81259Y-58976D03*
X81968Y-49370D03*
X61181Y-58307D03*
X61318Y-53622D03*
X61437Y-58307D03*
X82263Y-58582D03*
X82362Y-49370D03*
X61712Y-53622D03*
X75846Y-55669D03*
X62696Y-55295D03*
X76299Y-58051D03*
X62106Y-54409D03*
X60137Y-54803D03*
X67381Y-59055D03*
X69389Y-58877D03*
X60925Y-54015D03*
X69724Y-57244D03*
X60531Y-55295D03*
X70334Y-58700D03*
X60925Y-54803D03*
X71377Y-58700D03*
X61122Y-55295D03*
X61318Y-54803D03*
X72125Y-56830D03*
X61515Y-55295D03*
X72381Y-56830D03*
X74744Y-55669D03*
X62106Y-54803D03*
X79251Y-57322D03*
X62500Y-54015D03*
X80551Y-57637D03*
X61318Y-53228D03*
X81358Y-56948D03*
X62500Y-53622D03*
X81751Y-57637D03*
X62106Y-53622D03*
X62500Y-53228D03*
X82263Y-56535D03*
X83346Y-56102D03*
X62106Y-53228D03*
X61712Y-53228D03*
X82559Y-57637D03*
X78366Y-57834D03*
X62500Y-54803D03*
X62106Y-54015D03*
X79468Y-57637D03*
X62500Y-54409D03*
X77559Y-57362D03*
X77342Y-58051D03*
X61318Y-54015D03*
X74370Y-58779D03*
X61909Y-55295D03*
X73385Y-58858D03*
X61712Y-54803D03*
X69192Y-57637D03*
X60688Y-57677D03*
X61318Y-54409D03*
X75354Y-58779D03*
X62303Y-55295D03*
X64094Y-56574D03*
X63287Y-54409D03*
X66515Y-57440D03*
X63681Y-50866D03*
X60531Y-52834D03*
X63287Y-51259D03*
X63681Y-50472D03*
X60137Y-53622D03*
X54025Y-51072D03*
X61318Y-51259D03*
X54183Y-49891D03*
X62303Y-48799D03*
X63090Y-48799D03*
X54025Y-49498D03*
X53405Y-50679D03*
X60137Y-49291D03*
X59940Y-48799D03*
X53001Y-49340D03*
X61712Y-50866D03*
X54183Y-50679D03*
X53710Y-49498D03*
X61515Y-48799D03*
X53710Y-51072D03*
X64074Y-50078D03*
X53868Y-49891D03*
X61909Y-48799D03*
X53868Y-50679D03*
X61712Y-51259D03*
X59547Y-48799D03*
X53395Y-49498D03*
X59744Y-49685D03*
X53395Y-51072D03*
X61122Y-48799D03*
X53553Y-49891D03*
X63484Y-48799D03*
X54340Y-49498D03*
X64271Y-48799D03*
X54498Y-49891D03*
X64665Y-48799D03*
X54655Y-49498D03*
X54655Y-51072D03*
X60925Y-50472D03*
X61318Y-50472D03*
X54970Y-51072D03*
X55600Y-51072D03*
X62893Y-50472D03*
X62893Y-49291D03*
X55600Y-49498D03*
X56702Y-50679D03*
X62106Y-50078D03*
X56702Y-49891D03*
X60531Y-49291D03*
X56702Y-48789D03*
X60728Y-48799D03*
X61712Y-50078D03*
X56545Y-51387D03*
X60334Y-48799D03*
X57332Y-48789D03*
X62106Y-49685D03*
X57175Y-51387D03*
X63287Y-50078D03*
X55442Y-50679D03*
X55442Y-49891D03*
X62500Y-49291D03*
X63287Y-49291D03*
X55442Y-48789D03*
X62500Y-50866D03*
X55285Y-51387D03*
X56072Y-48789D03*
X64074Y-49291D03*
X62106Y-50866D03*
X55915Y-51387D03*
X60925Y-49291D03*
X56860Y-51072D03*
X61318Y-49291D03*
X56860Y-49498D03*
X56072Y-49891D03*
X64074Y-49685D03*
X62500Y-50472D03*
X56072Y-50679D03*
X62106Y-49291D03*
X54655Y-51387D03*
X57332Y-49891D03*
X62106Y-50472D03*
X62696Y-48799D03*
X57332Y-50679D03*
X60925Y-50866D03*
X54498Y-50679D03*
X61318Y-50866D03*
X54340Y-51072D03*
X61712Y-50472D03*
X54812Y-50679D03*
X61712Y-49291D03*
X54812Y-49891D03*
X66377Y-54409D03*
X63287Y-54015D03*
X65354Y-51062D03*
X67677Y-52047D03*
X66850Y-51889D03*
X64862Y-50866D03*
X66377Y-51574D03*
X64074Y-50866D03*
X67677Y-52677D03*
X65354Y-51850D03*
X65354Y-49881D03*
X68976Y-51574D03*
X65354Y-51456D03*
X66377Y-52204D03*
X67677Y-52362D03*
X63681Y-51259D03*
X67677Y-51732D03*
X63287Y-50866D03*
X68582Y-51732D03*
X64862Y-49685D03*
X65354Y-49488D03*
X68976Y-51889D03*
X62893Y-51259D03*
X66850Y-52519D03*
X64862Y-50078D03*
X68582Y-52047D03*
X66850Y-53779D03*
X64074Y-53622D03*
X68582Y-53937D03*
X63287Y-54803D03*
X64862Y-51653D03*
X66377Y-52834D03*
X64862Y-52440D03*
X67677Y-52992D03*
X67677Y-53937D03*
X64074Y-54015D03*
X65354Y-54803D03*
X68779Y-53779D03*
X64862Y-52834D03*
X66377Y-53464D03*
X67677Y-53622D03*
X63681Y-53228D03*
X67677Y-53307D03*
X65354Y-52992D03*
X64468Y-54409D03*
X68582Y-53622D03*
X65354Y-52440D03*
X66850Y-53149D03*
X65354Y-54409D03*
X68779Y-53464D03*
X63287Y-51653D03*
X68976Y-52519D03*
X64468Y-54015D03*
X68779Y-53149D03*
X68582Y-52362D03*
X64862Y-51259D03*
X68582Y-52992D03*
X64862Y-53622D03*
X59350Y-53228D03*
X77263Y-54251D03*
X54192Y-53307D03*
X59744Y-52047D03*
X79340Y-50364D03*
X63681Y-54803D03*
X79251Y-58011D03*
X49094Y-55374D03*
X64468Y-52047D03*
X52244Y-54566D03*
X64862Y-52047D03*
X64862Y-54803D03*
X67677Y-54881D03*
X63287Y-52047D03*
X49842Y-55374D03*
X50777Y-55393D03*
X64074Y-52834D03*
X63287Y-53622D03*
X68582Y-54881D03*
X78464Y-55433D03*
X78828Y-50364D03*
X66377Y-55039D03*
X63484Y-55295D03*
X79084Y-50364D03*
X78641Y-55610D03*
X66850Y-54724D03*
X62893Y-53622D03*
X49606Y-53464D03*
X53385Y-53307D03*
X51496Y-52204D03*
X59350Y-51259D03*
X51496Y-52519D03*
X59350Y-51653D03*
X51496Y-53149D03*
X58858Y-51850D03*
X60137Y-51653D03*
X51181Y-53149D03*
X50866Y-53149D03*
X59350Y-52440D03*
X51181Y-52519D03*
X60137Y-52834D03*
X50866Y-52519D03*
X59350Y-53622D03*
X50551Y-52519D03*
X58858Y-54606D03*
X50236Y-53149D03*
X59350Y-52834D03*
X51496Y-52834D03*
X59744Y-51653D03*
X53090Y-52421D03*
X60531Y-51653D03*
X50866Y-52204D03*
X50551Y-53149D03*
X58897Y-52637D03*
X50866Y-52834D03*
X58897Y-54212D03*
X49448Y-54783D03*
X49291Y-53779D03*
X51889Y-55590D03*
X50236Y-51574D03*
X58858Y-49881D03*
X50236Y-51889D03*
X58681Y-49724D03*
X51338Y-51200D03*
X60531Y-50472D03*
X51811Y-51574D03*
X59350Y-50866D03*
X60137Y-50866D03*
X51496Y-51574D03*
X51496Y-51889D03*
X60531Y-50866D03*
X51181Y-52204D03*
X58858Y-51456D03*
X50551Y-52204D03*
X60925Y-52440D03*
X49921Y-52834D03*
X58897Y-53031D03*
X60531Y-50078D03*
X50551Y-51574D03*
X50551Y-51889D03*
X60925Y-51259D03*
X60925Y-51653D03*
X50236Y-52204D03*
X59350Y-50078D03*
X50866Y-51574D03*
X60531Y-51259D03*
X50866Y-51889D03*
X58858Y-50275D03*
X51181Y-51574D03*
X51181Y-51889D03*
X58858Y-51062D03*
X64074Y-54803D03*
X51948Y-55177D03*
X63838Y-55295D03*
X51692Y-55177D03*
X50866Y-54094D03*
X63681Y-53622D03*
X57381Y-54232D03*
X58208Y-55866D03*
X64035Y-55649D03*
X51437Y-55177D03*
X62598Y-56771D03*
X49763Y-54783D03*
X49606Y-54409D03*
X49606Y-53779D03*
X51181Y-52834D03*
X58897Y-53818D03*
X50354Y-50098D03*
X63287Y-53228D03*
X50255Y-57736D03*
X50905Y-49035D03*
X49291Y-54094D03*
X62893Y-53228D03*
X48996Y-49704D03*
X48996Y-48641D03*
X49291Y-53149D03*
X49114Y-57263D03*
X49744Y-57736D03*
X49291Y-53464D03*
X49173Y-49901D03*
X49173Y-48838D03*
X62893Y-54803D03*
X49291Y-51574D03*
X49921Y-53779D03*
X50078Y-54783D03*
X49822Y-55629D03*
X49094Y-55629D03*
X48818Y-54783D03*
X48326Y-48582D03*
X48740Y-49606D03*
X48740Y-49409D03*
X51023Y-51200D03*
X50078Y-51200D03*
X48976Y-51574D03*
X46003Y-54763D03*
X51870Y-53307D03*
X51870Y-52677D03*
X50708Y-54783D03*
X49921Y-51889D03*
X48976Y-53779D03*
X62874Y-56771D03*
X62283Y-56771D03*
X61850Y-56771D03*
X67716Y-50393D03*
X66850Y-57224D03*
X67716Y-57224D03*
X67716Y-57440D03*
X68582Y-57440D03*
X68582Y-57224D03*
X66377Y-56614D03*
X68582Y-55590D03*
X68582Y-57657D03*
X67716Y-57657D03*
X66850Y-57657D03*
X66850Y-50078D03*
X67716Y-55590D03*
X68582Y-55275D03*
X67716Y-55275D03*
X68582Y-51417D03*
X67716Y-51417D03*
X66850Y-51417D03*
X67716Y-50708D03*
X67716Y-50944D03*
X68582Y-50944D03*
X66850Y-50944D03*
X68582Y-50629D03*
X66850Y-50708D03*
X68582Y-50078D03*
X67716Y-50078D03*
X66850Y-55275D03*
X68582Y-50393D03*
X66850Y-50393D03*
X66850Y-55590D03*
X62755Y-57559D03*
X62244Y-57559D03*
X63267Y-59645D03*
X63897Y-59645D03*
X55472Y-55649D03*
X56043Y-55610D03*
X56279Y-55610D03*
X57086Y-57342D03*
X58208Y-57874D03*
X57755Y-57066D03*
X55531Y-59035D03*
X56358Y-59035D03*
X54704Y-59035D03*
X72500Y-54724D03*
X71023Y-52480D03*
X70728Y-54212D03*
X70748Y-55019D03*
X69685Y-51889D03*
X72224Y-50688D03*
X71929Y-50433D03*
X70255Y-50137D03*
X59744Y-50866D03*
X66161Y-59645D03*
X66161Y-59173D03*
X47066Y-48602D03*
X75000Y-50846D03*
X75846Y-51968D03*
X76377Y-54625D03*
X60137Y-53228D03*
X75688Y-54271D03*
X80314Y-48031D03*
X74114Y-48425D03*
X64468Y-51653D03*
X66141Y-49271D03*
X66456Y-50078D03*
X66417Y-50393D03*
X56437Y-52736D03*
X63287Y-50472D03*
X59744Y-54803D03*
X59940Y-55334D03*
X61712Y-52834D03*
X57775Y-54232D03*
X58011Y-54409D03*
X58326Y-54409D03*
X49330Y-48070D03*
X49566Y-51200D03*
X49606Y-53149D03*
X64468Y-55275D03*
X76761Y-52923D03*
X77096Y-52923D03*
X76427Y-52923D03*
X76427Y-53139D03*
X77096Y-53139D03*
X76761Y-53139D03*
X76761Y-52470D03*
X77096Y-52470D03*
X76427Y-52470D03*
X76427Y-52706D03*
X77096Y-52706D03*
X76761Y-52706D03*
X83661Y-48503D03*
X82716Y-53818D03*
X83326Y-52874D03*
X83326Y-52381D03*
X83917Y-53188D03*
X76220Y-48070D03*
X82027Y-48070D03*
X81594Y-48070D03*
X78700Y-48366D03*
X74990Y-52135D03*
X74950Y-50580D03*
X76210Y-50580D03*
X75246Y-54124D03*
X76958Y-53750D03*
X75580Y-50103D03*
X75265Y-50103D03*
X76525Y-50103D03*
X76840Y-50103D03*
X76663Y-51053D03*
X75068Y-49064D03*
X77175Y-49064D03*
X76427Y-50895D03*
X77627Y-51643D03*
X77627Y-51151D03*
X77568Y-50462D03*
X77568Y-50816D03*
X77844Y-49675D03*
X78179Y-49675D03*
X79084Y-49576D03*
X79084Y-48946D03*
X79616Y-53198D03*
X79301Y-52903D03*
X79301Y-53474D03*
X79891Y-53356D03*
X80246Y-53789D03*
X79537Y-53789D03*
X79891Y-54202D03*
X80364Y-50462D03*
X80364Y-50816D03*
X62893Y-54015D03*
X43700Y-56968D03*
X51397Y-59192D03*
X63681Y-55649D03*
X70748Y-57244D03*
X69133Y-59055D03*
X68366Y-59055D03*
X69724Y-49311D03*
X43700Y-55787D03*
X44724Y-56968D03*
X73307Y-48385D03*
X48385Y-59448D03*
X47460Y-59645D03*
X49311Y-59645D03*
X54094Y-59448D03*
X53169Y-59645D03*
X55019Y-59645D03*
X59803Y-59429D03*
X58877Y-59645D03*
X60728Y-59645D03*
X64291Y-59645D03*
X65433Y-55688D03*
X65964Y-50964D03*
X66141Y-48070D03*
X64271Y-48070D03*
X60748Y-48070D03*
X58858Y-48070D03*
X55039Y-48070D03*
X53149Y-48070D03*
X47440Y-48070D03*
X42500Y-52834D03*
X42500Y-50944D03*
X42500Y-49488D03*
X43897Y-48070D03*
X64980Y-59271D03*
X70433Y-53543D03*
X70216Y-53543D03*
X69350Y-55590D03*
X64468Y-54803D03*
X63681Y-52440D03*
X65354Y-50511D03*
X60137Y-51259D03*
X59350Y-49685D03*
X64074Y-53228D03*
X62106Y-51653D03*
X61712Y-51653D03*
X62500Y-50078D03*
X50905Y-48641D03*
X73759Y-57244D03*
X80748Y-55669D03*
X80748Y-57244D03*
X44842Y-50098D03*
X44842Y-50531D03*
X44842Y-50314D03*
X44271Y-50098D03*
X44271Y-50531D03*
X44271Y-50314D03*
X44547Y-50098D03*
X44547Y-50531D03*
X44547Y-50314D03*
X45118Y-50098D03*
X45118Y-50531D03*
X45118Y-50314D03*
X43976Y-50314D03*
X43976Y-50531D03*
X43976Y-50098D03*
X53208Y-58444D03*
X49330Y-57401D03*
X49547Y-57618D03*
X48011Y-57657D03*
X48011Y-57460D03*
X48976Y-57795D03*
X48011Y-57263D03*
X47283Y-56023D03*
X47283Y-56830D03*
X47283Y-56417D03*
X47283Y-56220D03*
X47283Y-56633D03*
X46732Y-56023D03*
X46732Y-56830D03*
X46732Y-56417D03*
X46732Y-56220D03*
X46732Y-56633D03*
X47578Y-56633D03*
X47578Y-56220D03*
X47578Y-56417D03*
X47578Y-56830D03*
X47578Y-56023D03*
X47007Y-56023D03*
X47007Y-56830D03*
X47007Y-56417D03*
X47007Y-56220D03*
X47007Y-56633D03*
X46437Y-56633D03*
X46437Y-56220D03*
X46437Y-56417D03*
X46437Y-56830D03*
X46437Y-56023D03*
X77145Y-58779D03*
X77145Y-58425D03*
X78366Y-56456D03*
X83366Y-58425D03*
X60137Y-50472D03*
X61712Y-54015D03*
X63681Y-54409D03*
X83759Y-57657D03*
X50314Y-48641D03*
X58858Y-53425D03*
X62893Y-50866D03*
X64862Y-50472D03*
X55127Y-49891D03*
X56545Y-51072D03*
X55915Y-49498D03*
X56387Y-49891D03*
X46299Y-48602D03*
X51043Y-59133D03*
X50728Y-59133D03*
X52362Y-58779D03*
X53208Y-59035D03*
X53956Y-58838D03*
X53956Y-59035D03*
X53208Y-58838D03*
X53208Y-58641D03*
X58858Y-52244D03*
X51496Y-53464D03*
X50374Y-50708D03*
X51870Y-54566D03*
X46181Y-54251D03*
X46062Y-52795D03*
X64862Y-53228D03*
X64074Y-52440D03*
X55098Y-52696D03*
X56102Y-52736D03*
X53110Y-55393D03*
X53543Y-55629D03*
X53818Y-56102D03*
X51043Y-56338D03*
X50728Y-56338D03*
X59350Y-52047D03*
X65334Y-48562D03*
X61318Y-51653D03*
X64074Y-50472D03*
X46377Y-51555D03*
X47539Y-50728D03*
X46259Y-50944D03*
X58799Y-48789D03*
X55285Y-49498D03*
X56387Y-50679D03*
X55127Y-50679D03*
X55285Y-51072D03*
X55915Y-51072D03*
X57175Y-51072D03*
X57175Y-49498D03*
X57647Y-50679D03*
X57647Y-49891D03*
X53868Y-48789D03*
X56545Y-49498D03*
X53395Y-51387D03*
X59350Y-50472D03*
X60531Y-49685D03*
X63287Y-49685D03*
X63681Y-49291D03*
X60137Y-52440D03*
X60531Y-54015D03*
X60531Y-53228D03*
X62106Y-52834D03*
X62500Y-52047D03*
X62106Y-52047D03*
X61712Y-52047D03*
X61318Y-52047D03*
X49842Y-56220D03*
X48661Y-50944D03*
X47618Y-48700D03*
X51653Y-51200D03*
X51870Y-53937D03*
X51870Y-52992D03*
X49606Y-52519D03*
X48051Y-51102D03*
X47677Y-51673D03*
X45433Y-52933D03*
X48976Y-52204D03*
X47007Y-52677D03*
X48031Y-54822D03*
X47401Y-52677D03*
X48503Y-54783D03*
X48169Y-55098D03*
X48818Y-55393D03*
X50393Y-54783D03*
X51496Y-53937D03*
X52086Y-51397D03*
X52401Y-51397D03*
X49960Y-57618D03*
X47952Y-50866D03*
X48267Y-50866D03*
X46043Y-48602D03*
X45807Y-48897D03*
X43681Y-52716D03*
X43267Y-53248D03*
X43267Y-52185D03*
X45551Y-51535D03*
X45295Y-52086D03*
X47795Y-54330D03*
X48287Y-54566D03*
X45984Y-50866D03*
X46633Y-51259D03*
X47303Y-50413D03*
X46791Y-53444D03*
X45925Y-53444D03*
X50098Y-49468D03*
X50098Y-50452D03*
X50905Y-49704D03*
X53090Y-53307D03*
X48976Y-51889D03*
X48976Y-52519D03*
X49921Y-54094D03*
X51870Y-54251D03*
X50393Y-51200D03*
X64862Y-49291D03*
X43917Y-48602D03*
X49468Y-56062D03*
X49035Y-55866D03*
X48346Y-59055D03*
X49173Y-59055D03*
X64074Y-51259D03*
X61318Y-50078D03*
X69488Y-54724D03*
X61712Y-49685D03*
X69488Y-50039D03*
X69330Y-50236D03*
X69330Y-54566D03*
X64468Y-50866D03*
X69822Y-54409D03*
X69822Y-49724D03*
X60137Y-50078D03*
X70019Y-54251D03*
X70019Y-49547D03*
X59744Y-50078D03*
X78149Y-59173D03*
X59744Y-54409D03*
X66377Y-59055D03*
X76338Y-48543D03*
X77706Y-53001D03*
X49783Y-48169D03*
X49606Y-52204D03*
X77854Y-59350D03*
X59744Y-54015D03*
X65393Y-59173D03*
X75984Y-48543D03*
X77706Y-53277D03*
X50039Y-48169D03*
X49606Y-51889D03*
X62500Y-51653D03*
X82755Y-49370D03*
X65354Y-50275D03*
X68976Y-52204D03*
X64862Y-54409D03*
X68582Y-53307D03*
X48661Y-53779D03*
X46574Y-54251D03*
X49606Y-52834D03*
X53346Y-52755D03*
X53661Y-52755D03*
X48661Y-53464D03*
X52578Y-54980D03*
X48976Y-53464D03*
X50236Y-53464D03*
X52244Y-54251D03*
X73307Y-48661D03*
X49350Y-49035D03*
X51102Y-48838D03*
X49291Y-52519D03*
X46673Y-52578D03*
X72677Y-48385D03*
X73858Y-48661D03*
X51259Y-49685D03*
X49350Y-50098D03*
X53385Y-55393D03*
X59173Y-55688D03*
X52125Y-50137D03*
X47539Y-50019D03*
X43937Y-52401D03*
X53976Y-52755D03*
X48976Y-54094D03*
X48287Y-52677D03*
X48661Y-53149D03*
X48287Y-54251D03*
X47893Y-52362D03*
X48661Y-52834D03*
X82755Y-48503D03*
X82362Y-48543D03*
X81712Y-48740D03*
X53346Y-54015D03*
X53346Y-54409D03*
X43484Y-51535D03*
X44291Y-48858D03*
X45925Y-49842D03*
X46023Y-55551D03*
X47244Y-54803D03*
X46751Y-54803D03*
X48248Y-55866D03*
X46023Y-57263D03*
X46023Y-57657D03*
X46023Y-57460D03*
X50000Y-58188D03*
X45905Y-58700D03*
X52362Y-59035D03*
X52598Y-59035D03*
X46496Y-58700D03*
X45905Y-58897D03*
X46496Y-58897D03*
X83149Y-48503D03*
X75531Y-51633D03*
X65354Y-53425D03*
X46968Y-50984D03*
X48976Y-52834D03*
X48976Y-53149D03*
X46968Y-51299D03*
X67716Y-54468D03*
X64468Y-52834D03*
X74990Y-52490D03*
X68779Y-50787D03*
X59940Y-55688D03*
X59763Y-57677D03*
X69468Y-57637D03*
X69665Y-54094D03*
X78385Y-59527D03*
X77706Y-52746D03*
X50236Y-53779D03*
X50472Y-59448D03*
X83326Y-50885D03*
X83937Y-53562D03*
X64074Y-52047D03*
X81751Y-49881D03*
X50944Y-50098D03*
X50236Y-52834D03*
X83326Y-51889D03*
X83602Y-53562D03*
X63681Y-52047D03*
X81751Y-50885D03*
X49921Y-52519D03*
X64074Y-51653D03*
X83326Y-49881D03*
X81751Y-51870D03*
X49291Y-51889D03*
X83326Y-50374D03*
X63681Y-51653D03*
X81751Y-50374D03*
X49921Y-52204D03*
X48661Y-51200D03*
X81751Y-52381D03*
X68582Y-52677D03*
X63681Y-52834D03*
X63287Y-52834D03*
X68976Y-52834D03*
X74990Y-53513D03*
X68779Y-55039D03*
X65433Y-55433D03*
X60295Y-55295D03*
X65551Y-53543D03*
X58326Y-52244D03*
X57893Y-54980D03*
X62893Y-52440D03*
X62500Y-52440D03*
X62106Y-52440D03*
X61712Y-52440D03*
X61318Y-52440D03*
X62893Y-52047D03*
X62893Y-51653D03*
X46948Y-49566D03*
X46653Y-49566D03*
X46417Y-49566D03*
X46259Y-49311D03*
X43602Y-48720D03*
X63562Y-57342D03*
X66397Y-50708D03*
X60925Y-54409D03*
X57381Y-53956D03*
X62893Y-50078D03*
X60925Y-50078D03*
X54970Y-49498D03*
G54D15*
X58651Y-53179D02*
X59005Y-53179D01*
X59005Y-53179D02*
X59064Y-53120D01*
X57775Y-53149D02*
X58622Y-53149D01*
X58622Y-53149D02*
X58651Y-53179D01*
X59064Y-53120D02*
X59153Y-53031D01*
X59153Y-53031D02*
X59547Y-53031D01*
X59547Y-53031D02*
X59940Y-52637D01*
X59940Y-52637D02*
X59940Y-52244D01*
X59940Y-52244D02*
X60137Y-52047D01*
X57775Y-53149D02*
X57618Y-53307D01*
X60728Y-53159D02*
X60728Y-53307D01*
X60728Y-53307D02*
X60561Y-53474D01*
X59163Y-53474D02*
X59055Y-53582D01*
X60561Y-53474D02*
X59163Y-53474D01*
X58228Y-53582D02*
X59055Y-53582D01*
X59055Y-53582D02*
X59173Y-53464D01*
X60570Y-53464D02*
X60728Y-53307D01*
X60728Y-53159D02*
X60728Y-52244D01*
X60728Y-52244D02*
X60531Y-52047D01*
X58228Y-53582D02*
X57952Y-53307D01*
X59734Y-53385D02*
X59261Y-53385D01*
X59143Y-53267D02*
X58927Y-53267D01*
X59261Y-53385D02*
X59143Y-53267D01*
X58444Y-53307D02*
X58484Y-53267D01*
X58444Y-53307D02*
X58287Y-53307D01*
X58484Y-53267D02*
X58927Y-53267D01*
X59734Y-53385D02*
X60236Y-53385D01*
X60236Y-53385D02*
X60334Y-53287D01*
X60334Y-53287D02*
X60334Y-52637D01*
X60334Y-52637D02*
X60531Y-52440D01*
G54D10*
X64566Y-58661D02*
X69881Y-58661D01*
X69881Y-58661D02*
X70118Y-58897D01*
X70118Y-58897D02*
X71574Y-58897D01*
X71574Y-58897D02*
X71811Y-58661D01*
X71811Y-58661D02*
X73740Y-58661D01*
X73740Y-58661D02*
X74055Y-58976D01*
X74055Y-58976D02*
X78228Y-58976D01*
X78228Y-58976D02*
X81259Y-58976D01*
X64271Y-58661D02*
X64566Y-58661D01*
X61830Y-58503D02*
X61496Y-58503D01*
X62007Y-58326D02*
X61830Y-58503D01*
X63937Y-58326D02*
X62007Y-58326D01*
X64271Y-58661D02*
X63937Y-58326D01*
X61377Y-58503D02*
X61181Y-58307D01*
X61496Y-58503D02*
X61377Y-58503D01*
X64311Y-58484D02*
X64015Y-58188D01*
X64015Y-58188D02*
X61948Y-58188D01*
X61948Y-58188D02*
X61830Y-58307D01*
X61830Y-58307D02*
X61437Y-58307D01*
X65059Y-58484D02*
X64311Y-58484D01*
X81259Y-58582D02*
X82263Y-58582D01*
X79251Y-58582D02*
X81259Y-58582D01*
X65275Y-58484D02*
X76437Y-58484D01*
X65059Y-58484D02*
X65275Y-58484D01*
X76535Y-58582D02*
X79251Y-58582D01*
X76437Y-58484D02*
X76535Y-58582D01*
G54D15*
X63287Y-55885D02*
X74015Y-55885D01*
X74183Y-55718D02*
X74015Y-55885D01*
X74183Y-55718D02*
X74409Y-55492D01*
X74409Y-55492D02*
X75669Y-55492D01*
X75669Y-55492D02*
X75846Y-55669D01*
X63287Y-55885D02*
X62696Y-55295D01*
X62401Y-56338D02*
X61889Y-56338D01*
X60846Y-55295D02*
X60531Y-55295D01*
X61889Y-56338D02*
X60846Y-55295D01*
X68110Y-56338D02*
X68818Y-56338D01*
X68818Y-56338D02*
X69724Y-57244D01*
X65787Y-56338D02*
X68110Y-56338D01*
X62401Y-56338D02*
X65787Y-56338D01*
X71535Y-56240D02*
X62204Y-56240D01*
X62204Y-56240D02*
X62145Y-56181D01*
X61318Y-54803D02*
X61318Y-55354D01*
X61318Y-55354D02*
X62145Y-56181D01*
X71535Y-56240D02*
X72125Y-56830D01*
X62322Y-56102D02*
X71653Y-56102D01*
X71653Y-56102D02*
X72381Y-56830D01*
X62322Y-56102D02*
X61515Y-55295D01*
X62598Y-55984D02*
X74074Y-55984D01*
X74173Y-55885D02*
X74074Y-55984D01*
X74389Y-55669D02*
X74744Y-55669D01*
X74173Y-55885D02*
X74389Y-55669D01*
X62106Y-55492D02*
X62106Y-54803D01*
X62598Y-55984D02*
X62106Y-55492D01*
X69192Y-57637D02*
X68956Y-57874D01*
X60688Y-57677D02*
X60885Y-57874D01*
X68956Y-57874D02*
X60885Y-57874D01*
X64153Y-56633D02*
X64094Y-56574D01*
X64547Y-56633D02*
X65708Y-56633D01*
X65708Y-56633D02*
X66515Y-57440D01*
X64547Y-56633D02*
X64153Y-56633D01*
X62893Y-49291D02*
X62893Y-49271D01*
X62893Y-49271D02*
X62765Y-49143D01*
X62765Y-49143D02*
X55954Y-49143D01*
X55954Y-49143D02*
X55600Y-49498D01*
X56702Y-48789D02*
X56948Y-48543D01*
X60472Y-48543D02*
X60728Y-48799D01*
X56948Y-48543D02*
X60472Y-48543D01*
X60177Y-48641D02*
X60334Y-48799D01*
X57332Y-48789D02*
X57480Y-48641D01*
X57480Y-48641D02*
X60177Y-48641D01*
X60984Y-49537D02*
X61309Y-49537D01*
X61397Y-49448D02*
X62342Y-49448D01*
X61309Y-49537D02*
X61397Y-49448D01*
X55442Y-49891D02*
X55590Y-49744D01*
X55590Y-49744D02*
X57224Y-49744D01*
X59458Y-49340D02*
X59783Y-49340D01*
X58159Y-49340D02*
X57627Y-49340D01*
X57627Y-49340D02*
X57224Y-49744D01*
X58001Y-49340D02*
X58159Y-49340D01*
X58159Y-49340D02*
X59458Y-49340D01*
X59783Y-49340D02*
X59980Y-49537D01*
X59980Y-49537D02*
X60984Y-49537D01*
X62342Y-49448D02*
X62500Y-49291D01*
X63051Y-49055D02*
X63287Y-49291D01*
X55708Y-49055D02*
X63051Y-49055D01*
X55442Y-48789D02*
X55708Y-49055D01*
X56072Y-48789D02*
X56220Y-48937D01*
X56240Y-48956D02*
X63740Y-48956D01*
X56220Y-48937D02*
X56240Y-48956D01*
X63740Y-48956D02*
X64074Y-49291D01*
X59527Y-49251D02*
X59852Y-49251D01*
X59852Y-49251D02*
X60049Y-49448D01*
X61161Y-49448D02*
X61318Y-49291D01*
X60049Y-49448D02*
X61161Y-49448D01*
X57362Y-49251D02*
X59527Y-49251D01*
X57362Y-49251D02*
X57106Y-49251D01*
X57106Y-49251D02*
X56860Y-49498D01*
X57775Y-49448D02*
X59734Y-49448D01*
X59734Y-49448D02*
X59950Y-49665D01*
X59950Y-49665D02*
X59950Y-49734D01*
X59950Y-49734D02*
X60049Y-49832D01*
X60049Y-49832D02*
X61751Y-49832D01*
X57332Y-49891D02*
X57775Y-49448D01*
X61929Y-50295D02*
X62106Y-50472D01*
X61929Y-50009D02*
X61929Y-50295D01*
X61751Y-49832D02*
X61929Y-50009D01*
X66377Y-54409D02*
X65767Y-54409D01*
X65767Y-54409D02*
X65521Y-54163D01*
X63435Y-54163D02*
X63287Y-54015D01*
X65521Y-54163D02*
X63435Y-54163D01*
X67480Y-52047D02*
X67677Y-52047D01*
X65354Y-51062D02*
X65610Y-51062D01*
X65610Y-51062D02*
X66240Y-51692D01*
X66240Y-51692D02*
X66594Y-52047D01*
X67480Y-52047D02*
X66594Y-52047D01*
X65669Y-50807D02*
X66023Y-50807D01*
X66358Y-51318D02*
X66535Y-51496D01*
X66358Y-51141D02*
X66358Y-51318D01*
X66023Y-50807D02*
X66358Y-51141D01*
X66535Y-51496D02*
X66535Y-51535D01*
X65629Y-50807D02*
X65669Y-50807D01*
X66850Y-51889D02*
X66830Y-51889D01*
X66830Y-51889D02*
X66535Y-51594D01*
X64862Y-50866D02*
X64901Y-50866D01*
X64960Y-50807D02*
X65629Y-50807D01*
X64901Y-50866D02*
X64960Y-50807D01*
X66535Y-51535D02*
X66535Y-51594D01*
X65236Y-50905D02*
X65629Y-50905D01*
X66299Y-51574D02*
X66377Y-51574D01*
X65629Y-50905D02*
X66299Y-51574D01*
X64232Y-51023D02*
X65019Y-51023D01*
X64074Y-50866D02*
X64232Y-51023D01*
X65137Y-50905D02*
X65236Y-50905D01*
X65019Y-51023D02*
X65137Y-50905D01*
X67480Y-52677D02*
X67677Y-52677D01*
X66181Y-52559D02*
X66240Y-52618D01*
X65472Y-51850D02*
X66181Y-52559D01*
X65354Y-51850D02*
X65472Y-51850D01*
X66299Y-52677D02*
X67480Y-52677D01*
X67480Y-52677D02*
X67500Y-52677D01*
X66279Y-52657D02*
X66299Y-52677D01*
X66240Y-52618D02*
X66279Y-52657D01*
X68976Y-51574D02*
X68405Y-51574D01*
X65354Y-49881D02*
X67519Y-49881D01*
X67893Y-49881D02*
X68287Y-50275D01*
X68287Y-50275D02*
X68287Y-51456D01*
X68287Y-51456D02*
X68405Y-51574D01*
X67519Y-49881D02*
X67893Y-49881D01*
X66377Y-52204D02*
X66259Y-52086D01*
X65629Y-51456D02*
X66259Y-52086D01*
X65354Y-51456D02*
X65629Y-51456D01*
X67677Y-52362D02*
X67500Y-52362D01*
X64645Y-51407D02*
X65068Y-51407D01*
X65551Y-51614D02*
X66299Y-52362D01*
X65275Y-51614D02*
X65551Y-51614D01*
X65068Y-51407D02*
X65275Y-51614D01*
X67500Y-52362D02*
X66299Y-52362D01*
X63681Y-51259D02*
X63828Y-51407D01*
X63828Y-51407D02*
X64645Y-51407D01*
X64645Y-51407D02*
X64921Y-51407D01*
X65787Y-50688D02*
X66062Y-50688D01*
X66476Y-51299D02*
X66653Y-51476D01*
X66476Y-51102D02*
X66476Y-51299D01*
X66062Y-50688D02*
X66476Y-51102D01*
X65590Y-50688D02*
X65787Y-50688D01*
X66653Y-51476D02*
X66653Y-51496D01*
X67460Y-51732D02*
X67677Y-51732D01*
X63287Y-50846D02*
X63444Y-50688D01*
X63444Y-50688D02*
X65590Y-50688D01*
X66653Y-51496D02*
X66653Y-51555D01*
X66653Y-51555D02*
X66830Y-51732D01*
X66830Y-51732D02*
X67460Y-51732D01*
X63287Y-50866D02*
X63287Y-50846D01*
X69153Y-50964D02*
X69153Y-50551D01*
X69153Y-50551D02*
X68937Y-50334D01*
X68858Y-51732D02*
X69074Y-51732D01*
X68700Y-49685D02*
X68937Y-49921D01*
X68503Y-49685D02*
X68700Y-49685D01*
X68858Y-51732D02*
X68582Y-51732D01*
X68937Y-50334D02*
X68937Y-49921D01*
X69153Y-51653D02*
X69153Y-50964D01*
X69074Y-51732D02*
X69153Y-51653D01*
X64862Y-49685D02*
X68503Y-49685D01*
X68503Y-49685D02*
X68661Y-49685D01*
X65354Y-49488D02*
X65551Y-49488D01*
X65629Y-49566D02*
X68740Y-49566D01*
X65551Y-49488D02*
X65629Y-49566D01*
X68740Y-49566D02*
X69055Y-49881D01*
X69271Y-50944D02*
X69271Y-50511D01*
X69271Y-50511D02*
X69055Y-50295D01*
X68976Y-51889D02*
X69074Y-51889D01*
X69055Y-50295D02*
X69055Y-49881D01*
X69271Y-51692D02*
X69271Y-50944D01*
X69074Y-51889D02*
X69271Y-51692D01*
X63543Y-51505D02*
X63139Y-51505D01*
X63139Y-51505D02*
X62893Y-51259D01*
X66653Y-52519D02*
X66850Y-52519D01*
X66299Y-52519D02*
X66653Y-52519D01*
X64921Y-51505D02*
X65009Y-51505D01*
X65482Y-51702D02*
X66240Y-52460D01*
X65206Y-51702D02*
X65482Y-51702D01*
X65009Y-51505D02*
X65206Y-51702D01*
X66240Y-52460D02*
X66299Y-52519D01*
X64783Y-51505D02*
X64862Y-51505D01*
X64862Y-51505D02*
X64921Y-51505D01*
X64921Y-51505D02*
X64931Y-51505D01*
X63543Y-51505D02*
X64783Y-51505D01*
X66732Y-50236D02*
X65807Y-50236D01*
X65807Y-50236D02*
X65649Y-50078D01*
X64862Y-50078D02*
X65649Y-50078D01*
X67598Y-50236D02*
X67854Y-50236D01*
X68129Y-51594D02*
X68385Y-51850D01*
X68129Y-50511D02*
X68129Y-51594D01*
X67854Y-50236D02*
X68129Y-50511D01*
X68385Y-51850D02*
X68582Y-52047D01*
X66673Y-50236D02*
X66732Y-50236D01*
X66732Y-50236D02*
X67598Y-50236D01*
X66003Y-53917D02*
X65846Y-53917D01*
X65196Y-53700D02*
X64960Y-53464D01*
X65629Y-53700D02*
X65196Y-53700D01*
X65846Y-53917D02*
X65629Y-53700D01*
X66555Y-53917D02*
X66712Y-53917D01*
X66712Y-53917D02*
X66850Y-53779D01*
X66003Y-53917D02*
X66555Y-53917D01*
X66555Y-53917D02*
X66653Y-53917D01*
X64527Y-53464D02*
X64960Y-53464D01*
X64960Y-53464D02*
X65078Y-53582D01*
X64074Y-53622D02*
X64232Y-53464D01*
X64232Y-53464D02*
X64527Y-53464D01*
X64527Y-53464D02*
X64862Y-53464D01*
X64468Y-54960D02*
X65019Y-54960D01*
X66555Y-55216D02*
X66673Y-55098D01*
X66220Y-55216D02*
X66555Y-55216D01*
X66003Y-55000D02*
X66220Y-55216D01*
X65059Y-55000D02*
X66003Y-55000D01*
X65019Y-54960D02*
X65059Y-55000D01*
X63444Y-54960D02*
X64468Y-54960D01*
X66673Y-55098D02*
X66751Y-55098D01*
X63287Y-54803D02*
X63444Y-54960D01*
X68582Y-54389D02*
X68582Y-54133D01*
X67844Y-55127D02*
X68582Y-54389D01*
X67372Y-55127D02*
X67844Y-55127D01*
X67342Y-55098D02*
X67372Y-55127D01*
X66751Y-55098D02*
X67342Y-55098D01*
X68582Y-53937D02*
X68582Y-54133D01*
X66377Y-52834D02*
X66299Y-52834D01*
X64901Y-51653D02*
X65314Y-52066D01*
X65314Y-52066D02*
X65531Y-52066D01*
X65531Y-52066D02*
X66141Y-52677D01*
X64862Y-51653D02*
X64901Y-51653D01*
X66299Y-52834D02*
X66141Y-52677D01*
X67460Y-52992D02*
X67677Y-52992D01*
X65649Y-52519D02*
X66220Y-53090D01*
X66220Y-53090D02*
X66555Y-53090D01*
X66555Y-53090D02*
X66653Y-52992D01*
X66653Y-52992D02*
X67460Y-52992D01*
X65649Y-52519D02*
X65511Y-52381D01*
X64862Y-52421D02*
X65019Y-52263D01*
X65019Y-52263D02*
X65177Y-52263D01*
X64862Y-52440D02*
X64862Y-52421D01*
X65393Y-52263D02*
X65511Y-52381D01*
X65177Y-52263D02*
X65393Y-52263D01*
X64222Y-53868D02*
X65521Y-53868D01*
X65767Y-54114D02*
X65885Y-54114D01*
X65521Y-53868D02*
X65767Y-54114D01*
X67677Y-53937D02*
X67460Y-53937D01*
X67145Y-53937D02*
X67460Y-53937D01*
X66968Y-54114D02*
X67145Y-53937D01*
X65885Y-54114D02*
X66968Y-54114D01*
X64074Y-54015D02*
X64222Y-53868D01*
X65925Y-54881D02*
X65433Y-54881D01*
X65433Y-54881D02*
X65354Y-54803D01*
X68464Y-53779D02*
X68779Y-53779D01*
X65925Y-54881D02*
X67362Y-54881D01*
X67362Y-54881D02*
X67519Y-55039D01*
X67519Y-55039D02*
X67775Y-55039D01*
X67775Y-55039D02*
X68405Y-54409D01*
X68405Y-54409D02*
X68405Y-53838D01*
X68405Y-53838D02*
X68464Y-53779D01*
X64960Y-52834D02*
X65019Y-52775D01*
X65019Y-52775D02*
X65472Y-52775D01*
X64862Y-52834D02*
X64960Y-52834D01*
X66161Y-53464D02*
X66377Y-53464D01*
X65590Y-52893D02*
X66161Y-53464D01*
X65570Y-52874D02*
X65590Y-52893D01*
X65472Y-52775D02*
X65570Y-52874D01*
X67480Y-53622D02*
X67677Y-53622D01*
X65511Y-53267D02*
X66062Y-53818D01*
X66062Y-53818D02*
X66555Y-53818D01*
X66555Y-53818D02*
X66751Y-53622D01*
X66751Y-53622D02*
X67480Y-53622D01*
X65452Y-53267D02*
X65137Y-53267D01*
X65137Y-53267D02*
X64940Y-53070D01*
X63838Y-53070D02*
X64940Y-53070D01*
X65452Y-53267D02*
X65511Y-53267D01*
X63681Y-53228D02*
X63838Y-53070D01*
X67500Y-53307D02*
X67677Y-53307D01*
X66673Y-53425D02*
X67047Y-53425D01*
X67047Y-53425D02*
X67165Y-53307D01*
X67165Y-53307D02*
X67500Y-53307D01*
X65531Y-52992D02*
X66161Y-53622D01*
X66161Y-53622D02*
X66476Y-53622D01*
X66476Y-53622D02*
X66673Y-53425D01*
X65354Y-52992D02*
X65531Y-52992D01*
X66023Y-54763D02*
X65570Y-54763D01*
X65570Y-54763D02*
X65452Y-54645D01*
X65452Y-54645D02*
X64704Y-54645D01*
X64704Y-54645D02*
X64468Y-54409D01*
X66023Y-54763D02*
X66574Y-54763D01*
X66574Y-54763D02*
X66811Y-54527D01*
X66811Y-54527D02*
X67381Y-54527D01*
X67381Y-54527D02*
X67578Y-54724D01*
X67578Y-54724D02*
X67775Y-54724D01*
X68582Y-53622D02*
X68405Y-53622D01*
X67775Y-54724D02*
X68307Y-54192D01*
X68307Y-54192D02*
X68307Y-53720D01*
X68307Y-53720D02*
X68405Y-53622D01*
X65354Y-52440D02*
X65413Y-52440D01*
X65413Y-52440D02*
X65610Y-52637D01*
X66456Y-53188D02*
X66811Y-53188D01*
X66811Y-53188D02*
X66850Y-53149D01*
X65610Y-52637D02*
X66161Y-53188D01*
X66712Y-53188D02*
X66456Y-53188D01*
X66456Y-53188D02*
X66161Y-53188D01*
X67834Y-54311D02*
X67263Y-54311D01*
X67263Y-54311D02*
X67165Y-54409D01*
X66220Y-54665D02*
X65610Y-54665D01*
X66791Y-54409D02*
X67165Y-54409D01*
X66535Y-54665D02*
X66791Y-54409D01*
X66220Y-54665D02*
X66535Y-54665D01*
X65610Y-54665D02*
X65354Y-54409D01*
X68779Y-53464D02*
X68405Y-53464D01*
X67834Y-54311D02*
X68208Y-53937D01*
X68208Y-53937D02*
X68208Y-53661D01*
X68208Y-53661D02*
X68405Y-53464D01*
X68503Y-52519D02*
X68976Y-52519D01*
X64881Y-51811D02*
X65226Y-52155D01*
X63444Y-51811D02*
X63287Y-51653D01*
X63444Y-51811D02*
X64881Y-51811D01*
X65226Y-52155D02*
X65442Y-52155D01*
X68090Y-52519D02*
X68503Y-52519D01*
X67775Y-52834D02*
X68090Y-52519D01*
X66673Y-52834D02*
X67775Y-52834D01*
X66515Y-52992D02*
X66673Y-52834D01*
X66279Y-52992D02*
X66515Y-52992D01*
X65442Y-52155D02*
X66279Y-52992D01*
X67755Y-54094D02*
X67185Y-54094D01*
X67185Y-54094D02*
X67066Y-54212D01*
X64468Y-54015D02*
X65511Y-54015D01*
X65826Y-54212D02*
X67066Y-54212D01*
X65511Y-54015D02*
X65708Y-54212D01*
X65708Y-54212D02*
X65826Y-54212D01*
X68011Y-53562D02*
X68425Y-53149D01*
X68779Y-53149D02*
X68425Y-53149D01*
X67755Y-54094D02*
X68011Y-53838D01*
X68011Y-53838D02*
X68011Y-53562D01*
X68582Y-52362D02*
X68444Y-52362D01*
X67480Y-52145D02*
X67539Y-52204D01*
X67539Y-52204D02*
X68287Y-52204D01*
X68287Y-52204D02*
X68444Y-52362D01*
X65669Y-51259D02*
X64862Y-51259D01*
X65669Y-51259D02*
X66555Y-52145D01*
X66555Y-52145D02*
X67480Y-52145D01*
X65295Y-51259D02*
X65452Y-51259D01*
X64862Y-51259D02*
X65295Y-51259D01*
X65944Y-54015D02*
X65807Y-54015D01*
X65019Y-53779D02*
X64862Y-53622D01*
X65570Y-53779D02*
X65019Y-53779D01*
X65807Y-54015D02*
X65570Y-53779D01*
X68582Y-52992D02*
X68425Y-52992D01*
X65944Y-54015D02*
X66889Y-54015D01*
X66889Y-54015D02*
X67125Y-53779D01*
X67125Y-53779D02*
X67775Y-53779D01*
X67775Y-53779D02*
X67893Y-53661D01*
X67893Y-53661D02*
X67893Y-53523D01*
X67893Y-53523D02*
X68385Y-53031D01*
X68425Y-52992D02*
X68385Y-53031D01*
X50629Y-54251D02*
X50157Y-54251D01*
X49763Y-53858D02*
X49763Y-53622D01*
X49842Y-53937D02*
X49763Y-53858D01*
X50000Y-53937D02*
X49842Y-53937D01*
X50078Y-54015D02*
X50000Y-53937D01*
X50078Y-54173D02*
X50078Y-54015D01*
X50157Y-54251D02*
X50078Y-54173D01*
X51555Y-54251D02*
X50629Y-54251D01*
X53248Y-53523D02*
X53248Y-53444D01*
X53248Y-53444D02*
X53385Y-53307D01*
X52047Y-54409D02*
X52362Y-54409D01*
X52362Y-54409D02*
X53248Y-53523D01*
X49606Y-53464D02*
X49763Y-53622D01*
X51712Y-54409D02*
X52047Y-54409D01*
X51555Y-54251D02*
X51712Y-54409D01*
X51948Y-52204D02*
X51496Y-52204D01*
X52401Y-51751D02*
X51948Y-52204D01*
X57637Y-51751D02*
X52401Y-51751D01*
X59025Y-51309D02*
X58080Y-51309D01*
X58080Y-51309D02*
X57637Y-51751D01*
X59025Y-51309D02*
X59074Y-51259D01*
X59350Y-51259D02*
X59074Y-51259D01*
X59074Y-51259D02*
X59035Y-51299D01*
X59350Y-51653D02*
X59212Y-51653D01*
X58100Y-51604D02*
X58031Y-51673D01*
X59163Y-51604D02*
X58100Y-51604D01*
X59212Y-51653D02*
X59163Y-51604D01*
X57755Y-51948D02*
X58031Y-51673D01*
X57755Y-51948D02*
X52539Y-51948D01*
X52539Y-51948D02*
X51968Y-52519D01*
X51968Y-52519D02*
X51496Y-52519D01*
X58051Y-51653D02*
X58031Y-51673D01*
X53366Y-52145D02*
X52677Y-52145D01*
X52185Y-52637D02*
X52185Y-52933D01*
X52677Y-52145D02*
X52185Y-52637D01*
X53366Y-52145D02*
X57874Y-52145D01*
X57874Y-52145D02*
X58169Y-51850D01*
X58169Y-51850D02*
X58858Y-51850D01*
X51968Y-53149D02*
X52185Y-52933D01*
X51968Y-53149D02*
X51496Y-53149D01*
X51496Y-53149D02*
X51811Y-53149D01*
X53582Y-52244D02*
X52755Y-52244D01*
X52303Y-52696D02*
X52303Y-53129D01*
X52755Y-52244D02*
X52303Y-52696D01*
X59891Y-51899D02*
X59704Y-51899D01*
X59950Y-51840D02*
X59891Y-51899D01*
X60137Y-51653D02*
X59950Y-51840D01*
X59950Y-51840D02*
X59901Y-51889D01*
X59163Y-51899D02*
X59015Y-52047D01*
X51338Y-53307D02*
X51594Y-53307D01*
X51181Y-53149D02*
X51338Y-53307D01*
X51968Y-53464D02*
X52303Y-53129D01*
X51751Y-53464D02*
X51968Y-53464D01*
X51594Y-53307D02*
X51751Y-53464D01*
X53582Y-52244D02*
X57933Y-52244D01*
X57933Y-52244D02*
X58129Y-52047D01*
X58129Y-52047D02*
X59015Y-52047D01*
X59694Y-51899D02*
X59163Y-51899D01*
X59744Y-51899D02*
X59694Y-51899D01*
X52352Y-53218D02*
X52972Y-52598D01*
X58740Y-52460D02*
X58759Y-52440D01*
X55039Y-52460D02*
X58740Y-52460D01*
X54901Y-52598D02*
X55039Y-52460D01*
X52972Y-52598D02*
X54901Y-52598D01*
X52352Y-53218D02*
X51958Y-53612D01*
X51309Y-53592D02*
X51328Y-53612D01*
X51328Y-53612D02*
X51958Y-53612D01*
X50866Y-53149D02*
X51309Y-53592D01*
X58759Y-52440D02*
X59350Y-52440D01*
X52834Y-53031D02*
X57362Y-53031D01*
X57362Y-53031D02*
X57480Y-52913D01*
X50880Y-53794D02*
X52071Y-53794D01*
X52071Y-53794D02*
X52076Y-53789D01*
X57480Y-52913D02*
X58582Y-52913D01*
X58582Y-52913D02*
X58661Y-52834D01*
X50236Y-53149D02*
X50880Y-53794D01*
X52066Y-53799D02*
X52834Y-53031D01*
X58661Y-52834D02*
X59350Y-52834D01*
X53169Y-52047D02*
X52618Y-52047D01*
X52086Y-52578D02*
X52086Y-52716D01*
X52618Y-52047D02*
X52086Y-52578D01*
X51968Y-52834D02*
X52086Y-52716D01*
X51496Y-52834D02*
X51968Y-52834D01*
X58169Y-51692D02*
X59035Y-51692D01*
X59035Y-51692D02*
X59153Y-51811D01*
X59153Y-51811D02*
X59586Y-51811D01*
X59586Y-51811D02*
X59744Y-51653D01*
X57814Y-52047D02*
X58149Y-51712D01*
X58149Y-51712D02*
X58169Y-51692D01*
X57500Y-52047D02*
X57814Y-52047D01*
X53169Y-52047D02*
X57500Y-52047D01*
X52775Y-52933D02*
X57263Y-52933D01*
X57559Y-52637D02*
X58897Y-52637D01*
X57263Y-52933D02*
X57559Y-52637D01*
X51087Y-53705D02*
X52002Y-53705D01*
X50551Y-53149D02*
X50551Y-53169D01*
X52007Y-53700D02*
X52775Y-52933D01*
X50551Y-53169D02*
X51087Y-53705D01*
X49291Y-53779D02*
X49291Y-53858D01*
X50610Y-55590D02*
X51889Y-55590D01*
X49921Y-54901D02*
X50610Y-55590D01*
X49921Y-54488D02*
X49921Y-54901D01*
X49291Y-53858D02*
X49921Y-54488D01*
X50895Y-50442D02*
X52883Y-50442D01*
X52883Y-50442D02*
X53129Y-50196D01*
X50236Y-51574D02*
X50236Y-51102D01*
X50236Y-51102D02*
X50895Y-50442D01*
X58858Y-49881D02*
X58208Y-49881D01*
X57893Y-50196D02*
X53129Y-50196D01*
X58208Y-49881D02*
X57893Y-50196D01*
X50236Y-51889D02*
X50078Y-51732D01*
X49921Y-51417D02*
X49921Y-51574D01*
X50078Y-51732D02*
X49921Y-51574D01*
X49921Y-51417D02*
X49921Y-51338D01*
X58228Y-49724D02*
X57854Y-50098D01*
X57854Y-50098D02*
X53070Y-50098D01*
X58228Y-49724D02*
X58681Y-49724D01*
X52834Y-50334D02*
X53070Y-50098D01*
X50826Y-50334D02*
X52834Y-50334D01*
X49921Y-50885D02*
X50472Y-50334D01*
X50472Y-50334D02*
X50826Y-50334D01*
X49921Y-51338D02*
X49921Y-50885D01*
X50078Y-51732D02*
X50118Y-51771D01*
X57810Y-50831D02*
X51550Y-50831D01*
X51550Y-50831D02*
X51476Y-50905D01*
X51338Y-51200D02*
X51338Y-51043D01*
X51476Y-50905D02*
X51338Y-51043D01*
X51535Y-50846D02*
X51476Y-50905D01*
X60374Y-50314D02*
X59114Y-50314D01*
X59114Y-50314D02*
X58996Y-50433D01*
X58996Y-50433D02*
X58208Y-50433D01*
X58208Y-50433D02*
X57810Y-50831D01*
X60531Y-50472D02*
X60374Y-50314D01*
X51535Y-50846D02*
X51358Y-51023D01*
X52322Y-51240D02*
X52834Y-51240D01*
X51811Y-51318D02*
X51889Y-51240D01*
X51889Y-51240D02*
X52322Y-51240D01*
X51811Y-51574D02*
X51811Y-51318D01*
X59094Y-50866D02*
X59055Y-50905D01*
X59055Y-50905D02*
X58011Y-50905D01*
X58011Y-50905D02*
X57677Y-51240D01*
X59350Y-50866D02*
X59094Y-50866D01*
X57677Y-51240D02*
X52834Y-51240D01*
X52716Y-51240D02*
X52145Y-51240D01*
X52834Y-51240D02*
X52716Y-51240D01*
X52716Y-51240D02*
X52145Y-51240D01*
X59261Y-50708D02*
X58070Y-50708D01*
X60137Y-50866D02*
X60000Y-50728D01*
X59980Y-50708D02*
X59261Y-50708D01*
X60000Y-50728D02*
X59980Y-50708D01*
X58070Y-50708D02*
X57854Y-50925D01*
X51653Y-50925D02*
X52578Y-50925D01*
X51496Y-51082D02*
X51496Y-51377D01*
X51653Y-50925D02*
X51496Y-51082D01*
X51496Y-51574D02*
X51496Y-51377D01*
X57854Y-50925D02*
X52578Y-50925D01*
X52578Y-50925D02*
X52500Y-50925D01*
X57913Y-50866D02*
X57854Y-50925D01*
X52165Y-51653D02*
X51929Y-51889D01*
X51496Y-51889D02*
X51929Y-51889D01*
X60531Y-50866D02*
X60354Y-51043D01*
X60354Y-51043D02*
X59114Y-51043D01*
X59114Y-51043D02*
X58937Y-51220D01*
X58937Y-51220D02*
X58011Y-51220D01*
X58011Y-51220D02*
X57578Y-51653D01*
X57578Y-51653D02*
X52165Y-51653D01*
X52165Y-51653D02*
X52007Y-51811D01*
X58090Y-51456D02*
X57696Y-51850D01*
X57696Y-51850D02*
X52500Y-51850D01*
X52500Y-51850D02*
X52007Y-52342D01*
X58858Y-51456D02*
X58090Y-51456D01*
X51181Y-52204D02*
X51338Y-52362D01*
X51988Y-52362D02*
X52007Y-52342D01*
X51338Y-52362D02*
X51988Y-52362D01*
X50472Y-53937D02*
X50118Y-53937D01*
X50078Y-53897D02*
X50078Y-53543D01*
X50118Y-53937D02*
X50078Y-53897D01*
X52972Y-53129D02*
X57460Y-53129D01*
X57460Y-53129D02*
X57559Y-53031D01*
X50472Y-53937D02*
X51220Y-53937D01*
X51220Y-53937D02*
X51377Y-54094D01*
X50078Y-53129D02*
X50078Y-52992D01*
X50078Y-52992D02*
X49921Y-52834D01*
X51377Y-54094D02*
X52007Y-54094D01*
X52007Y-54094D02*
X52972Y-53129D01*
X57559Y-53031D02*
X58641Y-53031D01*
X50078Y-53129D02*
X50078Y-53543D01*
X58897Y-53031D02*
X58799Y-53031D01*
X58641Y-53031D02*
X58799Y-53031D01*
X58641Y-53031D02*
X58858Y-53031D01*
X59881Y-49921D02*
X60374Y-49921D01*
X60374Y-49921D02*
X60531Y-50078D01*
X51082Y-50551D02*
X52933Y-50551D01*
X52933Y-50551D02*
X53188Y-50295D01*
X50551Y-51574D02*
X50551Y-51082D01*
X50551Y-51082D02*
X51082Y-50551D01*
X57933Y-50295D02*
X53188Y-50295D01*
X58188Y-50039D02*
X57933Y-50295D01*
X59015Y-50039D02*
X58188Y-50039D01*
X59133Y-49921D02*
X59015Y-50039D01*
X59881Y-49921D02*
X59133Y-49921D01*
X58238Y-50127D02*
X59163Y-50127D01*
X59163Y-50127D02*
X59212Y-50078D01*
X59350Y-50078D02*
X59212Y-50078D01*
X58238Y-50127D02*
X57972Y-50393D01*
X59212Y-50078D02*
X59173Y-50118D01*
X57972Y-50393D02*
X53267Y-50393D01*
X53011Y-50649D02*
X53267Y-50393D01*
X51318Y-50649D02*
X53011Y-50649D01*
X50866Y-51574D02*
X50866Y-51102D01*
X50866Y-51102D02*
X51318Y-50649D01*
X53070Y-50748D02*
X53326Y-50492D01*
X58858Y-50275D02*
X58228Y-50275D01*
X58011Y-50492D02*
X53326Y-50492D01*
X58228Y-50275D02*
X58011Y-50492D01*
X51476Y-50748D02*
X53070Y-50748D01*
X51181Y-51043D02*
X51476Y-50748D01*
X51181Y-51574D02*
X51181Y-51043D01*
X58858Y-51062D02*
X58011Y-51062D01*
X58011Y-51062D02*
X57519Y-51555D01*
X57519Y-51555D02*
X52125Y-51555D01*
X51948Y-51732D02*
X51870Y-51732D01*
X52125Y-51555D02*
X51948Y-51732D01*
X51870Y-51732D02*
X51338Y-51732D01*
X51338Y-51732D02*
X51181Y-51889D01*
X63248Y-54557D02*
X63828Y-54557D01*
X63828Y-54557D02*
X64074Y-54803D01*
X58917Y-54812D02*
X53159Y-54812D01*
X59173Y-54557D02*
X58917Y-54812D01*
X63248Y-54557D02*
X59173Y-54557D01*
X52795Y-55177D02*
X51948Y-55177D01*
X53159Y-54812D02*
X52795Y-55177D01*
X63838Y-55295D02*
X63622Y-55078D01*
X63287Y-55078D02*
X63090Y-54881D01*
X63622Y-55078D02*
X63287Y-55078D01*
X56377Y-55216D02*
X58681Y-55216D01*
X58681Y-55216D02*
X59242Y-54655D01*
X53877Y-55216D02*
X52972Y-55216D01*
X52972Y-55216D02*
X52992Y-55196D01*
X63011Y-54655D02*
X59242Y-54655D01*
X63090Y-54734D02*
X63011Y-54655D01*
X63090Y-54881D02*
X63090Y-54734D01*
X51850Y-55334D02*
X51692Y-55177D01*
X52854Y-55334D02*
X51850Y-55334D01*
X52992Y-55196D02*
X52854Y-55334D01*
X56377Y-55216D02*
X53877Y-55216D01*
X57677Y-53976D02*
X57637Y-53976D01*
X63681Y-53622D02*
X63523Y-53779D01*
X59015Y-53976D02*
X57677Y-53976D01*
X59212Y-53779D02*
X59015Y-53976D01*
X63523Y-53779D02*
X59212Y-53779D01*
X57637Y-53976D02*
X57381Y-54232D01*
X61870Y-56476D02*
X62303Y-56476D01*
X62303Y-56476D02*
X62598Y-56771D01*
X61771Y-56476D02*
X61870Y-56476D01*
X59192Y-56220D02*
X57696Y-56220D01*
X57696Y-56220D02*
X57372Y-55895D01*
X50698Y-55895D02*
X57372Y-55895D01*
X49763Y-54960D02*
X50698Y-55895D01*
X49763Y-54783D02*
X49763Y-54960D01*
X61515Y-56220D02*
X61771Y-56476D01*
X58838Y-56220D02*
X59192Y-56220D01*
X59192Y-56220D02*
X61515Y-56220D01*
X65334Y-49330D02*
X65551Y-49330D01*
X65669Y-49448D02*
X68897Y-49448D01*
X65551Y-49330D02*
X65669Y-49448D01*
X68897Y-49448D02*
X69488Y-50039D01*
X65255Y-49330D02*
X65334Y-49330D01*
X65049Y-49537D02*
X65255Y-49330D01*
X61860Y-49537D02*
X65049Y-49537D01*
X61712Y-49685D02*
X61860Y-49537D01*
X66692Y-50551D02*
X65944Y-50551D01*
X65944Y-50551D02*
X65669Y-50275D01*
X65354Y-50275D02*
X65669Y-50275D01*
X68622Y-52204D02*
X68976Y-52204D01*
X66692Y-50551D02*
X67539Y-50551D01*
X68503Y-52204D02*
X68622Y-52204D01*
X68267Y-51968D02*
X68503Y-52204D01*
X67854Y-50551D02*
X68011Y-50708D01*
X68011Y-50708D02*
X68011Y-51712D01*
X68011Y-51712D02*
X68267Y-51968D01*
X67539Y-50551D02*
X67854Y-50551D01*
X67805Y-54202D02*
X67214Y-54202D01*
X67214Y-54202D02*
X67106Y-54311D01*
X66299Y-54566D02*
X65767Y-54566D01*
X66732Y-54311D02*
X67106Y-54311D01*
X66476Y-54566D02*
X66732Y-54311D01*
X66299Y-54566D02*
X66476Y-54566D01*
X65019Y-54251D02*
X65452Y-54251D01*
X64862Y-54409D02*
X65019Y-54251D01*
X65767Y-54566D02*
X65452Y-54251D01*
X68582Y-53307D02*
X68405Y-53307D01*
X67805Y-54202D02*
X68110Y-53897D01*
X68110Y-53897D02*
X68110Y-53602D01*
X68110Y-53602D02*
X68405Y-53307D01*
X51377Y-54980D02*
X50314Y-54980D01*
X50236Y-54645D02*
X49448Y-53858D01*
X50236Y-54901D02*
X50236Y-54645D01*
X50314Y-54980D02*
X50236Y-54901D01*
X49133Y-53622D02*
X49370Y-53622D01*
X48976Y-53464D02*
X49133Y-53622D01*
X49448Y-53700D02*
X49448Y-53858D01*
X49370Y-53622D02*
X49448Y-53700D01*
X51377Y-54980D02*
X52578Y-54980D01*
G54D16*
X44291Y-48858D02*
X44940Y-48858D01*
X44940Y-48858D02*
X45925Y-49842D01*
G54D15*
X47244Y-51181D02*
X47814Y-51181D01*
X48129Y-51496D02*
X48129Y-51909D01*
X47814Y-51181D02*
X48129Y-51496D01*
X46968Y-50984D02*
X47165Y-51181D01*
X47165Y-51181D02*
X47244Y-51181D01*
X48976Y-52755D02*
X48976Y-52834D01*
X48129Y-51909D02*
X48976Y-52755D01*
X47263Y-51299D02*
X47795Y-51299D01*
X48031Y-51535D02*
X48031Y-51948D01*
X47795Y-51299D02*
X48031Y-51535D01*
X46968Y-51299D02*
X47263Y-51299D01*
X48818Y-52992D02*
X48976Y-53149D01*
X48818Y-52736D02*
X48818Y-52992D01*
X48031Y-51948D02*
X48818Y-52736D01*
X69468Y-57637D02*
X69094Y-58011D01*
X60098Y-58011D02*
X59763Y-57677D01*
X69094Y-58011D02*
X60098Y-58011D01*
X69468Y-57637D02*
X69232Y-57874D01*
X59763Y-57677D02*
X59960Y-57874D01*
X68425Y-52677D02*
X68582Y-52677D01*
X63838Y-52677D02*
X64940Y-52677D01*
X67755Y-53149D02*
X68228Y-52677D01*
X67165Y-53149D02*
X67755Y-53149D01*
X67007Y-53307D02*
X67165Y-53149D01*
X66122Y-53307D02*
X67007Y-53307D01*
X65610Y-52795D02*
X66122Y-53307D01*
X68228Y-52677D02*
X68425Y-52677D01*
X63681Y-52834D02*
X63838Y-52677D01*
X65492Y-52677D02*
X65610Y-52795D01*
X64940Y-52677D02*
X65492Y-52677D01*
X68779Y-52834D02*
X68976Y-52834D01*
X65492Y-53169D02*
X65551Y-53169D01*
X63435Y-52982D02*
X65009Y-52982D01*
X65009Y-52982D02*
X65196Y-53169D01*
X65196Y-53169D02*
X65492Y-53169D01*
X63287Y-52834D02*
X63435Y-52982D01*
X67755Y-53464D02*
X68385Y-52834D01*
X67165Y-53464D02*
X67755Y-53464D01*
X67106Y-53523D02*
X67165Y-53464D01*
X66712Y-53523D02*
X67106Y-53523D01*
X66515Y-53720D02*
X66712Y-53523D01*
X66102Y-53720D02*
X66515Y-53720D01*
X65551Y-53169D02*
X66102Y-53720D01*
X68385Y-52834D02*
X68779Y-52834D01*
X68779Y-55039D02*
X69803Y-55039D01*
X74694Y-53513D02*
X74990Y-53513D01*
X73720Y-54488D02*
X74694Y-53513D01*
X70354Y-54488D02*
X73720Y-54488D01*
X69803Y-55039D02*
X70354Y-54488D01*
M02*
