G04 (created by PCBNEW (2013-07-07 BZR 4022)-stable) date 27/11/2015 23:20:48*
%MOIN*%
G04 Gerber Fmt 3.4, Leading zero omitted, Abs format*
%FSLAX34Y34*%
G01*
G70*
G90*
G04 APERTURE LIST*
%ADD10C,0.00590551*%
%ADD11R,0.051X0.0472*%
%ADD12R,0.0472X0.051*%
%ADD13R,0.0195X0.0175*%
%ADD14R,0.0175X0.0195*%
%ADD15R,0.0314X0.0275*%
%ADD16R,0.0275X0.0314*%
%ADD17R,0.0195X0.0195*%
%ADD18R,0.0137795X0.011811*%
%ADD19R,0.011811X0.0137795*%
%ADD20R,0.0787X0.0984*%
%ADD21R,0.06X0.08*%
%ADD22R,0.08X0.06*%
%ADD23R,0.0492126X0.0314961*%
%ADD24R,0.0314961X0.0492126*%
%ADD25R,0.05X0.126*%
%ADD26R,0.0629921X0.011811*%
%ADD27O,0.0629921X0.011811*%
%ADD28R,0.061811X0.0740157*%
%ADD29R,0.0392X0.0392*%
%ADD30R,0.0354331X0.0314961*%
%ADD31R,0.015748X0.0314961*%
%ADD32R,0.0551X0.0354*%
%ADD33R,0.2039X0.0563*%
%ADD34R,0.0563X0.2039*%
%ADD35R,0.0354X0.0551*%
%ADD36R,0.0472X0.0591*%
%ADD37R,0.0354331X0.0472441*%
%ADD38R,0.0944882X0.0299213*%
%ADD39R,0.05X0.0866142*%
%ADD40R,0.023622X0.011811*%
%ADD41R,0.011811X0.023622*%
%ADD42R,0.122047X0.0393701*%
%ADD43R,0.149606X0.0393701*%
%ADD44R,0.0393701X0.122047*%
%ADD45R,0.0393701X0.149606*%
%ADD46R,0.0114X0.0283*%
%ADD47R,0.0472X0.0295*%
%ADD48R,0.0255906X0.011811*%
%ADD49R,0.0629921X0.0925197*%
%ADD50R,0.011811X0.0255906*%
%ADD51R,0.0925197X0.0629921*%
G04 APERTURE END LIST*
G54D10*
G54D11*
X47441Y-49311D03*
X48345Y-49311D03*
G54D12*
X46377Y-53799D03*
X46377Y-54703D03*
G54D13*
X63897Y-59066D03*
X63897Y-59436D03*
X63562Y-57921D03*
X63562Y-57551D03*
X63897Y-58377D03*
X63897Y-58747D03*
X49311Y-55381D03*
X49311Y-55011D03*
X52283Y-54933D03*
X52283Y-55303D03*
X83149Y-48752D03*
X83149Y-49122D03*
G54D14*
X51700Y-48838D03*
X51330Y-48838D03*
G54D13*
X73582Y-49003D03*
X73582Y-48633D03*
X73031Y-49003D03*
X73031Y-48633D03*
X72677Y-49003D03*
X72677Y-48633D03*
X49389Y-48787D03*
X49389Y-48417D03*
G54D14*
X51543Y-49311D03*
X51173Y-49311D03*
G54D13*
X49232Y-49614D03*
X49232Y-49244D03*
G54D14*
X51543Y-49901D03*
X51173Y-49901D03*
X46425Y-52578D03*
X46055Y-52578D03*
G54D13*
X58208Y-56779D03*
X58208Y-56409D03*
X57755Y-55933D03*
X57755Y-55563D03*
X58208Y-57275D03*
X58208Y-57645D03*
G54D14*
X54771Y-53307D03*
X54401Y-53307D03*
G54D13*
X51102Y-55519D03*
X51102Y-55149D03*
G54D14*
X50440Y-55511D03*
X50070Y-55511D03*
G54D13*
X49606Y-55381D03*
X49606Y-55011D03*
G54D14*
X50578Y-55196D03*
X50208Y-55196D03*
X53964Y-53307D03*
X53594Y-53307D03*
G54D13*
X49232Y-50696D03*
X49232Y-50326D03*
X77490Y-49057D03*
X77490Y-49427D03*
G54D14*
X79013Y-50816D03*
X78643Y-50816D03*
G54D15*
X55393Y-56356D03*
X55393Y-55926D03*
G54D16*
X61812Y-57854D03*
X62242Y-57854D03*
G54D15*
X57755Y-56359D03*
X57755Y-56789D03*
G54D16*
X63187Y-57854D03*
X62757Y-57854D03*
G54D17*
X46634Y-51555D03*
X46988Y-51555D03*
X47598Y-51141D03*
X47244Y-51141D03*
X49606Y-49685D03*
X49960Y-49685D03*
X49606Y-50708D03*
X49960Y-50708D03*
X48681Y-54074D03*
X48681Y-54428D03*
X52086Y-52657D03*
X52086Y-53011D03*
X50118Y-54547D03*
X50472Y-54547D03*
X49921Y-53503D03*
X49921Y-53149D03*
X48661Y-51633D03*
X48307Y-51633D03*
X49980Y-51673D03*
X49626Y-51673D03*
X51122Y-54783D03*
X51122Y-54429D03*
X48523Y-55393D03*
X48169Y-55393D03*
X49291Y-51003D03*
X48937Y-51003D03*
X49291Y-51318D03*
X48937Y-51318D03*
X48740Y-52617D03*
X48740Y-52263D03*
X50728Y-50944D03*
X50374Y-50944D03*
X48051Y-53149D03*
X47697Y-53149D03*
X52086Y-53445D03*
X52086Y-53799D03*
X48818Y-55000D03*
X48464Y-55000D03*
X51043Y-50629D03*
X51397Y-50629D03*
X51043Y-50944D03*
X51397Y-50944D03*
X48051Y-52677D03*
X47697Y-52677D03*
X52086Y-52047D03*
X52086Y-51693D03*
X52401Y-52047D03*
X52401Y-51693D03*
X50866Y-53818D03*
X51220Y-53818D03*
X50866Y-53464D03*
X51220Y-53464D03*
X50728Y-50492D03*
X50374Y-50492D03*
X48405Y-51318D03*
X48051Y-51318D03*
X49330Y-54429D03*
X48976Y-54429D03*
X49980Y-51397D03*
X49626Y-51397D03*
X51437Y-54783D03*
X51791Y-54783D03*
X52401Y-52657D03*
X52401Y-53011D03*
X52401Y-53445D03*
X52401Y-53799D03*
X48031Y-54252D03*
X48031Y-54606D03*
X55659Y-51633D03*
X56013Y-51633D03*
X53897Y-51614D03*
X53543Y-51614D03*
X56358Y-48996D03*
X56358Y-49350D03*
X53385Y-49015D03*
X53739Y-49015D03*
X54960Y-51633D03*
X55314Y-51633D03*
X57657Y-49153D03*
X57657Y-49507D03*
X54881Y-48799D03*
X54527Y-48799D03*
X57716Y-51259D03*
X57716Y-50905D03*
X56988Y-49173D03*
X57342Y-49173D03*
X57145Y-50157D03*
X57499Y-50157D03*
X57145Y-50452D03*
X57499Y-50452D03*
X56850Y-51633D03*
X57204Y-51633D03*
X55895Y-50137D03*
X56249Y-50137D03*
X55757Y-49133D03*
X55403Y-49133D03*
X55600Y-50423D03*
X55246Y-50423D03*
X54763Y-49133D03*
X55117Y-49133D03*
X59901Y-49114D03*
X59901Y-49468D03*
X64655Y-49074D03*
X64655Y-49428D03*
X59114Y-51476D03*
X59114Y-51830D03*
X64763Y-48523D03*
X65117Y-48523D03*
X58267Y-49881D03*
X57913Y-49881D03*
X60767Y-51909D03*
X61121Y-51909D03*
X56309Y-51210D03*
X56309Y-50856D03*
X53110Y-54823D03*
X53110Y-55177D03*
G54D18*
X61712Y-48582D03*
X61712Y-48799D03*
X62303Y-50767D03*
X62303Y-50551D03*
G54D19*
X64498Y-49980D03*
X64281Y-49980D03*
G54D18*
X62106Y-48582D03*
X62106Y-48799D03*
X61909Y-51486D03*
X61909Y-51269D03*
X59744Y-48582D03*
X59744Y-48799D03*
X61909Y-50649D03*
X61909Y-50866D03*
X62500Y-48582D03*
X62500Y-48799D03*
X61515Y-51525D03*
X61515Y-51309D03*
X63681Y-48582D03*
X63681Y-48799D03*
G54D19*
X64498Y-49724D03*
X64281Y-49724D03*
G54D18*
X62893Y-48582D03*
X62893Y-48799D03*
X62696Y-50767D03*
X62696Y-50551D03*
X62303Y-49901D03*
X62303Y-49685D03*
X59940Y-49990D03*
X59940Y-49773D03*
X61318Y-48582D03*
X61318Y-48799D03*
X63287Y-48582D03*
X63287Y-48799D03*
X60334Y-49074D03*
X60334Y-49291D03*
X60137Y-48582D03*
X60137Y-48799D03*
X62155Y-51259D03*
X62155Y-51043D03*
X64074Y-48582D03*
X64074Y-48799D03*
X61515Y-50669D03*
X61515Y-50452D03*
X61122Y-50885D03*
X61122Y-51102D03*
X61909Y-49074D03*
X61909Y-49291D03*
X61515Y-50885D03*
X61515Y-51102D03*
X62303Y-49074D03*
X62303Y-49291D03*
X64468Y-48582D03*
X64468Y-48799D03*
X60531Y-48582D03*
X60531Y-48799D03*
X62696Y-50108D03*
X62696Y-50324D03*
X63090Y-49074D03*
X63090Y-49291D03*
X63484Y-49773D03*
X63484Y-49990D03*
X62696Y-49074D03*
X62696Y-49291D03*
X63484Y-49074D03*
X63484Y-49291D03*
X62411Y-51259D03*
X62411Y-51043D03*
X64271Y-49074D03*
X64271Y-49291D03*
X61122Y-49074D03*
X61122Y-49291D03*
X61515Y-49074D03*
X61515Y-49291D03*
X62303Y-50108D03*
X62303Y-50324D03*
X60728Y-49074D03*
X60728Y-49291D03*
X60925Y-48582D03*
X60925Y-48799D03*
X61909Y-50108D03*
X61909Y-50324D03*
G54D20*
X48267Y-50255D03*
X46653Y-50255D03*
G54D21*
X63366Y-56240D03*
X62066Y-56240D03*
G54D22*
X65925Y-48700D03*
X65925Y-50000D03*
X58326Y-52657D03*
X58326Y-53957D03*
G54D23*
X47007Y-53799D03*
X47007Y-53090D03*
G54D24*
X48602Y-48700D03*
X47893Y-48700D03*
G54D23*
X56279Y-54606D03*
X56279Y-55314D03*
X55590Y-53208D03*
X55590Y-52500D03*
X56279Y-53779D03*
X56279Y-53070D03*
G54D25*
X81751Y-58425D03*
X80751Y-58425D03*
X79751Y-58425D03*
X78751Y-58425D03*
X77751Y-58425D03*
X76751Y-58425D03*
X75751Y-58425D03*
X74751Y-58425D03*
X81751Y-56456D03*
X80751Y-56456D03*
X79751Y-56456D03*
X78751Y-56456D03*
X77751Y-56456D03*
X76751Y-56456D03*
X75751Y-56456D03*
X74751Y-56456D03*
X82751Y-56456D03*
X83751Y-56456D03*
X82751Y-58425D03*
X83751Y-58425D03*
X73751Y-58425D03*
X72751Y-58425D03*
X73751Y-56456D03*
X72751Y-56456D03*
X64751Y-56456D03*
X65751Y-56456D03*
X66751Y-56456D03*
X67751Y-56456D03*
X68751Y-56456D03*
X69751Y-56456D03*
X70751Y-56456D03*
X71751Y-56456D03*
X64751Y-58425D03*
X65751Y-58425D03*
X66751Y-58425D03*
X67751Y-58425D03*
X68751Y-58425D03*
X69751Y-58425D03*
X70751Y-58425D03*
X71751Y-58425D03*
G54D17*
X64291Y-53444D03*
X64645Y-53444D03*
G54D26*
X53818Y-53818D03*
X53818Y-54015D03*
G54D27*
X55472Y-53818D03*
G54D26*
X55472Y-54015D03*
X55472Y-54212D03*
X55472Y-54409D03*
X55472Y-54606D03*
X53818Y-54606D03*
X53818Y-54409D03*
X53818Y-54212D03*
G54D28*
X54645Y-54212D03*
G54D29*
X40157Y-62204D03*
X40157Y-45669D03*
X86614Y-62204D03*
X86614Y-45669D03*
G54D17*
X63090Y-50295D03*
X63090Y-50649D03*
X60728Y-50255D03*
X60728Y-49901D03*
G54D14*
X78186Y-50088D03*
X77816Y-50088D03*
G54D13*
X43937Y-53019D03*
X43937Y-52649D03*
X81968Y-49122D03*
X81968Y-48752D03*
X82362Y-49122D03*
X82362Y-48752D03*
X82755Y-49122D03*
X82755Y-48752D03*
G54D30*
X79311Y-53188D03*
X79311Y-52381D03*
X78740Y-52381D03*
X78740Y-53188D03*
G54D15*
X71929Y-51120D03*
X71929Y-50690D03*
X69685Y-51182D03*
X69685Y-51612D03*
G54D16*
X71711Y-52480D03*
X71281Y-52480D03*
X71792Y-54724D03*
X72222Y-54724D03*
G54D17*
X69685Y-50767D03*
X69685Y-50413D03*
G54D31*
X79340Y-49261D03*
X79084Y-49261D03*
X78828Y-49261D03*
X78828Y-50049D03*
X79084Y-50049D03*
X79340Y-50049D03*
G54D17*
X46929Y-54507D03*
X46929Y-54153D03*
X50669Y-49015D03*
X50669Y-48661D03*
X63110Y-52263D03*
X63464Y-52263D03*
X62303Y-52421D03*
X62303Y-52067D03*
X61515Y-54192D03*
X61515Y-53838D03*
X78178Y-50816D03*
X77824Y-50816D03*
X61122Y-52617D03*
X61122Y-52263D03*
X61515Y-52421D03*
X61515Y-52067D03*
X61909Y-52421D03*
X61909Y-52067D03*
X62677Y-52834D03*
X62323Y-52834D03*
X63110Y-52578D03*
X63464Y-52578D03*
X63051Y-51850D03*
X62697Y-51850D03*
X63070Y-51456D03*
X62716Y-51456D03*
X63464Y-51062D03*
X63110Y-51062D03*
X63877Y-51082D03*
X63877Y-51436D03*
X59547Y-51043D03*
X59547Y-50689D03*
X65137Y-55216D03*
X64783Y-55216D03*
X63858Y-53818D03*
X63504Y-53818D03*
X62696Y-54586D03*
X62696Y-54232D03*
X64685Y-50275D03*
X65039Y-50275D03*
X59370Y-55295D03*
X59724Y-55295D03*
X59763Y-52263D03*
X60117Y-52263D03*
X59881Y-53011D03*
X59881Y-52657D03*
X59527Y-50275D03*
X59173Y-50275D03*
X59153Y-49025D03*
X58799Y-49025D03*
X60334Y-49901D03*
X60334Y-50255D03*
X61102Y-49586D03*
X60748Y-49586D03*
X65098Y-49015D03*
X65098Y-49369D03*
X62716Y-49685D03*
X63070Y-49685D03*
X63877Y-49862D03*
X63877Y-49508D03*
X64271Y-51082D03*
X64271Y-51436D03*
X60767Y-53011D03*
X60767Y-52657D03*
X60334Y-53011D03*
X60334Y-52657D03*
X63897Y-50669D03*
X64251Y-50669D03*
X63897Y-50275D03*
X64251Y-50275D03*
X63484Y-50295D03*
X63484Y-50649D03*
X59901Y-53799D03*
X59901Y-53445D03*
X60354Y-53464D03*
X60708Y-53464D03*
X60354Y-53779D03*
X60708Y-53779D03*
X77844Y-49065D03*
X77844Y-49419D03*
X78179Y-49065D03*
X78179Y-49419D03*
X79754Y-50462D03*
X80108Y-50462D03*
X79754Y-50816D03*
X80108Y-50816D03*
X78178Y-50462D03*
X77824Y-50462D03*
X61141Y-53011D03*
X61495Y-53011D03*
G54D32*
X55118Y-58286D03*
X55118Y-59036D03*
X50885Y-58109D03*
X50885Y-58859D03*
X50885Y-57343D03*
X50885Y-56593D03*
X46653Y-49331D03*
X46653Y-48581D03*
X55944Y-58286D03*
X55944Y-59036D03*
G54D33*
X44488Y-49330D03*
X44488Y-50964D03*
X48838Y-56712D03*
X48838Y-58346D03*
G54D34*
X53799Y-57598D03*
X52165Y-57598D03*
G54D15*
X79931Y-49870D03*
X79931Y-49440D03*
G54D35*
X47067Y-55551D03*
X46317Y-55551D03*
G54D17*
X64665Y-53011D03*
X64665Y-52657D03*
X69192Y-51181D03*
X68838Y-51181D03*
X70984Y-55374D03*
X70630Y-55374D03*
X71338Y-54665D03*
X71338Y-55019D03*
X69488Y-49311D03*
X69488Y-49665D03*
X70984Y-55019D03*
X70984Y-54665D03*
X75246Y-52489D03*
X75246Y-52135D03*
X76377Y-54015D03*
X76377Y-54369D03*
X75610Y-52322D03*
X75610Y-51968D03*
X76663Y-51643D03*
X76663Y-51289D03*
X76052Y-54005D03*
X75698Y-54005D03*
X77017Y-51643D03*
X77371Y-51643D03*
X75246Y-53513D03*
X75246Y-53867D03*
X47224Y-54488D03*
X47578Y-54488D03*
X47224Y-54173D03*
X47578Y-54173D03*
X60137Y-54232D03*
X60491Y-54232D03*
X64448Y-52263D03*
X64094Y-52263D03*
X64665Y-51476D03*
X64665Y-51830D03*
G54D36*
X79891Y-53785D03*
X79891Y-51785D03*
X78159Y-51785D03*
X78159Y-53785D03*
G54D37*
X79025Y-51584D03*
X79025Y-53986D03*
G54D32*
X68149Y-51182D03*
X68149Y-50432D03*
X67283Y-51182D03*
X67283Y-50432D03*
G54D35*
X70060Y-55196D03*
X69310Y-55196D03*
G54D32*
X70236Y-54607D03*
X70236Y-53857D03*
G54D16*
X83029Y-54114D03*
X82599Y-54114D03*
G54D17*
X83070Y-53582D03*
X82716Y-53582D03*
G54D38*
X82381Y-49877D03*
X82381Y-50377D03*
X82381Y-51377D03*
X82381Y-50877D03*
X82381Y-52877D03*
X82381Y-52377D03*
X82381Y-51877D03*
X83917Y-49877D03*
X83917Y-50377D03*
X83917Y-50877D03*
X83917Y-52377D03*
X83917Y-51877D03*
X83917Y-51377D03*
X83917Y-52877D03*
G54D13*
X83661Y-48752D03*
X83661Y-49122D03*
X83602Y-53811D03*
X83602Y-54181D03*
X83937Y-53811D03*
X83937Y-54181D03*
G54D14*
X82000Y-53582D03*
X82370Y-53582D03*
G54D39*
X60440Y-56259D03*
X59440Y-56259D03*
G54D40*
X76958Y-52509D03*
X76958Y-52903D03*
X76958Y-53100D03*
X76958Y-52706D03*
X76564Y-52903D03*
X76564Y-52509D03*
X76564Y-53100D03*
G54D41*
X77155Y-52125D03*
X76958Y-52125D03*
X76564Y-52125D03*
X76761Y-52125D03*
X76368Y-52125D03*
X76368Y-53484D03*
X76761Y-53484D03*
X76564Y-53484D03*
X76958Y-53484D03*
X77155Y-53484D03*
G54D40*
X76082Y-52411D03*
X76082Y-52608D03*
X76082Y-53001D03*
X76082Y-52805D03*
X76082Y-53198D03*
X77440Y-53198D03*
X77440Y-52805D03*
X77440Y-53001D03*
X77440Y-52608D03*
X77440Y-52411D03*
X76564Y-52706D03*
G54D14*
X51070Y-59527D03*
X50700Y-59527D03*
G54D13*
X50078Y-48826D03*
X50078Y-48456D03*
X49744Y-48826D03*
X49744Y-48456D03*
X61062Y-53728D03*
X61062Y-53358D03*
G54D14*
X66149Y-50708D03*
X65779Y-50708D03*
X58122Y-54980D03*
X58492Y-54980D03*
G54D13*
X63484Y-51838D03*
X63484Y-51468D03*
G54D42*
X80521Y-48356D03*
G54D43*
X77687Y-48356D03*
G54D42*
X74852Y-48356D03*
G54D44*
X74438Y-48769D03*
G54D45*
X74438Y-51604D03*
G54D44*
X74438Y-54438D03*
X80935Y-48769D03*
G54D42*
X74852Y-54852D03*
G54D43*
X77687Y-54852D03*
G54D42*
X80521Y-54852D03*
G54D44*
X80935Y-54438D03*
G54D45*
X80935Y-51604D03*
G54D14*
X75937Y-51279D03*
X76307Y-51279D03*
G54D17*
X76584Y-49064D03*
X76938Y-49064D03*
X77017Y-51151D03*
X77371Y-51151D03*
X75678Y-49064D03*
X75324Y-49064D03*
X75354Y-51082D03*
X75000Y-51082D03*
G54D46*
X76938Y-50570D03*
X76682Y-50570D03*
X76426Y-50570D03*
X76426Y-49637D03*
X76682Y-49637D03*
X76938Y-49637D03*
G54D47*
X76682Y-50103D03*
G54D46*
X75679Y-50570D03*
X75423Y-50570D03*
X75167Y-50570D03*
X75167Y-49637D03*
X75423Y-49637D03*
X75679Y-49637D03*
G54D47*
X75423Y-50103D03*
G54D13*
X75255Y-51759D03*
X75255Y-51389D03*
G54D14*
X75618Y-52834D03*
X75248Y-52834D03*
X75618Y-53169D03*
X75248Y-53169D03*
X76901Y-54015D03*
X77271Y-54015D03*
X76129Y-51633D03*
X75759Y-51633D03*
G54D21*
X52342Y-57598D03*
X53642Y-57598D03*
G54D48*
X63257Y-59025D03*
X63257Y-59281D03*
X63257Y-58769D03*
X63257Y-58513D03*
X62175Y-58513D03*
X62175Y-58769D03*
X62175Y-59281D03*
G54D49*
X62716Y-58897D03*
G54D48*
X62175Y-59025D03*
X57076Y-56879D03*
X57076Y-57135D03*
X57076Y-56624D03*
X57076Y-56368D03*
X55994Y-56368D03*
X55994Y-56624D03*
X55994Y-57135D03*
G54D49*
X56535Y-56751D03*
G54D48*
X55994Y-56879D03*
X70265Y-50600D03*
X70265Y-50344D03*
X70265Y-50856D03*
X70265Y-51112D03*
X71348Y-51112D03*
X71348Y-50856D03*
X71348Y-50344D03*
G54D49*
X70807Y-50728D03*
G54D48*
X71348Y-50600D03*
G54D50*
X71210Y-54202D03*
X70954Y-54202D03*
X71466Y-54202D03*
X71722Y-54202D03*
X71722Y-53120D03*
X71466Y-53120D03*
X70954Y-53120D03*
G54D51*
X71338Y-53661D03*
G54D50*
X71210Y-53120D03*
M02*
