G04 (created by PCBNEW (2013-07-07 BZR 4022)-stable) date 27/11/2015 23:20:48*
%MOIN*%
G04 Gerber Fmt 3.4, Leading zero omitted, Abs format*
%FSLAX34Y34*%
G01*
G70*
G90*
G04 APERTURE LIST*
%ADD10C,0.00590551*%
%ADD11C,0.019685*%
%ADD12C,0.0472441*%
%ADD13O,0.15748X0.0629921*%
%ADD14C,0.015748*%
%ADD15C,0.0314961*%
%ADD16C,0.015748*%
%ADD17C,0.00393701*%
%ADD18C,0.0393701*%
G04 APERTURE END LIST*
G54D10*
G54D11*
X62539Y-59232D03*
X62893Y-59232D03*
X62893Y-58562D03*
X62539Y-58562D03*
X56358Y-56082D03*
X56712Y-56082D03*
X56712Y-56437D03*
X56358Y-56437D03*
X56358Y-56751D03*
X56712Y-56751D03*
X56712Y-57066D03*
X56358Y-57066D03*
X70629Y-52381D03*
X70275Y-52381D03*
X69704Y-52381D03*
X71653Y-53838D03*
X71653Y-53484D03*
X70708Y-53838D03*
X70708Y-53484D03*
X71023Y-53484D03*
X71338Y-53484D03*
X71338Y-53838D03*
X71023Y-53838D03*
X69704Y-53307D03*
X69704Y-53779D03*
X70629Y-51771D03*
X70984Y-51771D03*
X71653Y-49606D03*
X72244Y-49606D03*
X70629Y-49606D03*
X70984Y-49606D03*
X70984Y-50000D03*
X70629Y-50000D03*
X70984Y-50728D03*
X70629Y-50728D03*
X70984Y-51062D03*
X70629Y-51062D03*
X83188Y-55393D03*
X83661Y-55393D03*
X83661Y-54606D03*
X42736Y-50551D03*
X42736Y-49940D03*
X46496Y-48188D03*
X45748Y-48188D03*
X44251Y-48188D03*
X45000Y-48188D03*
X52677Y-48818D03*
X52204Y-48818D03*
X48818Y-57362D03*
X48385Y-57362D03*
X79881Y-57440D03*
X76259Y-57007D03*
X75275Y-57007D03*
X74251Y-57007D03*
X69114Y-53779D03*
X69114Y-53307D03*
X67952Y-49271D03*
X68543Y-49271D03*
X67244Y-49271D03*
X66653Y-49271D03*
X80472Y-52952D03*
X80472Y-52519D03*
X76062Y-50118D03*
X74645Y-50354D03*
X84133Y-54606D03*
X84133Y-55393D03*
X84133Y-49291D03*
X84133Y-48503D03*
X76811Y-48149D03*
X80629Y-48996D03*
X80629Y-49566D03*
X80944Y-52952D03*
X80944Y-53346D03*
X81259Y-48996D03*
X80944Y-50708D03*
X80629Y-51496D03*
X81259Y-51496D03*
X80944Y-52519D03*
X81259Y-53779D03*
X80590Y-54251D03*
X81259Y-54251D03*
X79251Y-55157D03*
X79881Y-55157D03*
X76811Y-48464D03*
X75590Y-48464D03*
X74133Y-49094D03*
X74133Y-50354D03*
X74133Y-54448D03*
X43070Y-58346D03*
X43385Y-58346D03*
X43385Y-58661D03*
X43070Y-58661D03*
X43385Y-57322D03*
X43070Y-57322D03*
X43070Y-56614D03*
X43385Y-56614D03*
X43385Y-56968D03*
X43070Y-56968D03*
X43070Y-55590D03*
X43385Y-55590D03*
X43385Y-55275D03*
X43070Y-55275D03*
X81102Y-57440D03*
X82007Y-57440D03*
X82952Y-57440D03*
X83543Y-57440D03*
X82952Y-59448D03*
X81732Y-59448D03*
X79212Y-59448D03*
X80433Y-59448D03*
X72244Y-50000D03*
X71653Y-50000D03*
X70629Y-50393D03*
X70984Y-50393D03*
X80748Y-55157D03*
X81259Y-55157D03*
X74133Y-50984D03*
X74133Y-52224D03*
X74133Y-53110D03*
X74133Y-53740D03*
X77500Y-55157D03*
X77165Y-55157D03*
X76574Y-55157D03*
X75354Y-55157D03*
X75944Y-55157D03*
X74724Y-55157D03*
X54468Y-54448D03*
X54468Y-53976D03*
X54822Y-53976D03*
X54822Y-54448D03*
X54645Y-54212D03*
G54D12*
X43228Y-56082D03*
G54D13*
X43228Y-54665D03*
X43228Y-59271D03*
G54D12*
X43228Y-57854D03*
G54D11*
X74133Y-55157D03*
G54D14*
X67716Y-51181D03*
X66850Y-51181D03*
X68582Y-51181D03*
X70354Y-55196D03*
X70354Y-54960D03*
X57283Y-55570D03*
X57519Y-55570D03*
X53149Y-54212D03*
X55757Y-50679D03*
X55757Y-49891D03*
X55472Y-53503D03*
X55600Y-51387D03*
X57017Y-50679D03*
X53238Y-48789D03*
X54970Y-51387D03*
X54025Y-51387D03*
X57017Y-49891D03*
X55127Y-48789D03*
X56230Y-51387D03*
X55757Y-48789D03*
X56860Y-51387D03*
X57017Y-48789D03*
X57490Y-51387D03*
X57647Y-48789D03*
X56387Y-48789D03*
X59744Y-50472D03*
X51870Y-52047D03*
X59744Y-52440D03*
X59744Y-53228D03*
X50708Y-51200D03*
X59744Y-51259D03*
X65059Y-48799D03*
X62500Y-49685D03*
X63681Y-49685D03*
X60137Y-49685D03*
X61318Y-49685D03*
X59153Y-48799D03*
X75000Y-51397D03*
X76614Y-54015D03*
X55098Y-56358D03*
X55393Y-56633D03*
X51141Y-57598D03*
X51377Y-57598D03*
X63366Y-55649D03*
X65354Y-55216D03*
X51543Y-49692D03*
X52598Y-55629D03*
X51574Y-57598D03*
X60137Y-54015D03*
X62893Y-54409D03*
X63681Y-54015D03*
X59153Y-55295D03*
X64468Y-50472D03*
X53818Y-53622D03*
X45748Y-52657D03*
X64468Y-52440D03*
X61712Y-54409D03*
X49035Y-56200D03*
X49606Y-49409D03*
X49606Y-50492D03*
X64468Y-51259D03*
X64468Y-53228D03*
X76417Y-51633D03*
X75610Y-52559D03*
X61811Y-57559D03*
X70354Y-56830D03*
X56358Y-58385D03*
X56594Y-58385D03*
X56594Y-58188D03*
X56358Y-58188D03*
X71988Y-52303D03*
X83326Y-54173D03*
X71712Y-52165D03*
X72460Y-51122D03*
X72224Y-51122D03*
X70354Y-56614D03*
X70157Y-56614D03*
X70157Y-56830D03*
X64980Y-57637D03*
X51397Y-58149D03*
X65196Y-57637D03*
X75905Y-49055D03*
X76338Y-49055D03*
X51397Y-57933D03*
X64980Y-57421D03*
X64685Y-57283D03*
X51397Y-58366D03*
X44153Y-53031D03*
X44350Y-53248D03*
X46968Y-58307D03*
X44566Y-53248D03*
X46751Y-58307D03*
X46751Y-58070D03*
X56240Y-57637D03*
X56240Y-57834D03*
X64094Y-56830D03*
X64094Y-57066D03*
X48346Y-51889D03*
X44724Y-56653D03*
X44724Y-57283D03*
X48661Y-51889D03*
X58937Y-55511D03*
X49133Y-54783D03*
X50905Y-49311D03*
X50236Y-54094D03*
X72677Y-49251D03*
X51692Y-48503D03*
X50866Y-54409D03*
X73031Y-49251D03*
X51417Y-48346D03*
X50551Y-53779D03*
X73582Y-49251D03*
X51909Y-48169D03*
X51496Y-54409D03*
X60137Y-52047D03*
X57618Y-53307D03*
X60531Y-52047D03*
X57952Y-53307D03*
X60531Y-52440D03*
X58287Y-53307D03*
X49291Y-52204D03*
X45984Y-51673D03*
X45748Y-53877D03*
X44724Y-58464D03*
X45748Y-53622D03*
X44724Y-57834D03*
X75000Y-51751D03*
X75708Y-51279D03*
X76043Y-54271D03*
X81259Y-58976D03*
X81968Y-49370D03*
X61181Y-58307D03*
X61318Y-53622D03*
X61437Y-58307D03*
X82263Y-58582D03*
X82362Y-49370D03*
X61712Y-53622D03*
X75846Y-55669D03*
X62696Y-55295D03*
X76299Y-58051D03*
X62106Y-54409D03*
X60137Y-54803D03*
X67381Y-59055D03*
X69389Y-58877D03*
X60925Y-54015D03*
X69724Y-57244D03*
X60531Y-55295D03*
X70334Y-58700D03*
X60925Y-54803D03*
X71377Y-58700D03*
X61122Y-55295D03*
X61318Y-54803D03*
X72125Y-56830D03*
X61515Y-55295D03*
X72381Y-56830D03*
X74744Y-55669D03*
X62106Y-54803D03*
X79251Y-57322D03*
X62500Y-54015D03*
X80551Y-57637D03*
X61318Y-53228D03*
X81358Y-56948D03*
X62500Y-53622D03*
X81751Y-57637D03*
X62106Y-53622D03*
X62500Y-53228D03*
X82263Y-56535D03*
X83346Y-56102D03*
X62106Y-53228D03*
X61712Y-53228D03*
X82559Y-57637D03*
X78366Y-57834D03*
X62500Y-54803D03*
X62106Y-54015D03*
X79468Y-57637D03*
X62500Y-54409D03*
X77559Y-57362D03*
X77342Y-58051D03*
X61318Y-54015D03*
X74370Y-58779D03*
X61909Y-55295D03*
X73385Y-58858D03*
X61712Y-54803D03*
X69192Y-57637D03*
X60688Y-57677D03*
X61318Y-54409D03*
X75354Y-58779D03*
X62303Y-55295D03*
X64094Y-56574D03*
X63287Y-54409D03*
X66515Y-57440D03*
X63681Y-50866D03*
X60531Y-52834D03*
X63287Y-51259D03*
X63681Y-50472D03*
X60137Y-53622D03*
X54025Y-51072D03*
X61318Y-51259D03*
X54183Y-49891D03*
X62303Y-48799D03*
X63090Y-48799D03*
X54025Y-49498D03*
X53405Y-50679D03*
X60137Y-49291D03*
X59940Y-48799D03*
X53001Y-49340D03*
X61712Y-50866D03*
X54183Y-50679D03*
X53710Y-49498D03*
X61515Y-48799D03*
X53710Y-51072D03*
X64074Y-50078D03*
X53868Y-49891D03*
X61909Y-48799D03*
X53868Y-50679D03*
X61712Y-51259D03*
X59547Y-48799D03*
X53395Y-49498D03*
X59744Y-49685D03*
X53395Y-51072D03*
X61122Y-48799D03*
X53553Y-49891D03*
X63484Y-48799D03*
X54340Y-49498D03*
X64271Y-48799D03*
X54498Y-49891D03*
X64665Y-48799D03*
X54655Y-49498D03*
X54655Y-51072D03*
X60925Y-50472D03*
X61318Y-50472D03*
X54970Y-51072D03*
X55600Y-51072D03*
X62893Y-50472D03*
X62893Y-49291D03*
X55600Y-49498D03*
X56702Y-50679D03*
X62106Y-50078D03*
X56702Y-49891D03*
X60531Y-49291D03*
X56702Y-48789D03*
X60728Y-48799D03*
X61712Y-50078D03*
X56545Y-51387D03*
X60334Y-48799D03*
X57332Y-48789D03*
X62106Y-49685D03*
X57175Y-51387D03*
X63287Y-50078D03*
X55442Y-50679D03*
X55442Y-49891D03*
X62500Y-49291D03*
X63287Y-49291D03*
X55442Y-48789D03*
X62500Y-50866D03*
X55285Y-51387D03*
X56072Y-48789D03*
X64074Y-49291D03*
X62106Y-50866D03*
X55915Y-51387D03*
X60925Y-49291D03*
X56860Y-51072D03*
X61318Y-49291D03*
X56860Y-49498D03*
X56072Y-49891D03*
X64074Y-49685D03*
X62500Y-50472D03*
X56072Y-50679D03*
X62106Y-49291D03*
X54655Y-51387D03*
X57332Y-49891D03*
X62106Y-50472D03*
X62696Y-48799D03*
X57332Y-50679D03*
X60925Y-50866D03*
X54498Y-50679D03*
X61318Y-50866D03*
X54340Y-51072D03*
X61712Y-50472D03*
X54812Y-50679D03*
X61712Y-49291D03*
X54812Y-49891D03*
X66377Y-54409D03*
X63287Y-54015D03*
X65354Y-51062D03*
X67677Y-52047D03*
X66850Y-51889D03*
X64862Y-50866D03*
X66377Y-51574D03*
X64074Y-50866D03*
X67677Y-52677D03*
X65354Y-51850D03*
X65354Y-49881D03*
X68976Y-51574D03*
X65354Y-51456D03*
X66377Y-52204D03*
X67677Y-52362D03*
X63681Y-51259D03*
X67677Y-51732D03*
X63287Y-50866D03*
X68582Y-51732D03*
X64862Y-49685D03*
X65354Y-49488D03*
X68976Y-51889D03*
X62893Y-51259D03*
X66850Y-52519D03*
X64862Y-50078D03*
X68582Y-52047D03*
X66850Y-53779D03*
X64074Y-53622D03*
X68582Y-53937D03*
X63287Y-54803D03*
X64862Y-51653D03*
X66377Y-52834D03*
X64862Y-52440D03*
X67677Y-52992D03*
X67677Y-53937D03*
X64074Y-54015D03*
X65354Y-54803D03*
X68779Y-53779D03*
X64862Y-52834D03*
X66377Y-53464D03*
X67677Y-53622D03*
X63681Y-53228D03*
X67677Y-53307D03*
X65354Y-52992D03*
X64468Y-54409D03*
X68582Y-53622D03*
X65354Y-52440D03*
X66850Y-53149D03*
X65354Y-54409D03*
X68779Y-53464D03*
X63287Y-51653D03*
X68976Y-52519D03*
X64468Y-54015D03*
X68779Y-53149D03*
X68582Y-52362D03*
X64862Y-51259D03*
X68582Y-52992D03*
X64862Y-53622D03*
X59350Y-53228D03*
X77263Y-54251D03*
X54192Y-53307D03*
X59744Y-52047D03*
X79340Y-50364D03*
X63681Y-54803D03*
X79251Y-58011D03*
X49094Y-55374D03*
X64468Y-52047D03*
X52244Y-54566D03*
X64862Y-52047D03*
X64862Y-54803D03*
X67677Y-54881D03*
X63287Y-52047D03*
X49842Y-55374D03*
X50777Y-55393D03*
X64074Y-52834D03*
X63287Y-53622D03*
X68582Y-54881D03*
X78464Y-55433D03*
X78828Y-50364D03*
X66377Y-55039D03*
X63484Y-55295D03*
X79084Y-50364D03*
X78641Y-55610D03*
X66850Y-54724D03*
X62893Y-53622D03*
X49606Y-53464D03*
X53385Y-53307D03*
X51496Y-52204D03*
X59350Y-51259D03*
X51496Y-52519D03*
X59350Y-51653D03*
X51496Y-53149D03*
X58858Y-51850D03*
X60137Y-51653D03*
X51181Y-53149D03*
X50866Y-53149D03*
X59350Y-52440D03*
X51181Y-52519D03*
X60137Y-52834D03*
X50866Y-52519D03*
X59350Y-53622D03*
X50551Y-52519D03*
X58858Y-54606D03*
X50236Y-53149D03*
X59350Y-52834D03*
X51496Y-52834D03*
X59744Y-51653D03*
X53090Y-52421D03*
X60531Y-51653D03*
X50866Y-52204D03*
X50551Y-53149D03*
X58897Y-52637D03*
X50866Y-52834D03*
X58897Y-54212D03*
X49448Y-54783D03*
X49291Y-53779D03*
X51889Y-55590D03*
X50236Y-51574D03*
X58858Y-49881D03*
X50236Y-51889D03*
X58681Y-49724D03*
X51338Y-51200D03*
X60531Y-50472D03*
X51811Y-51574D03*
X59350Y-50866D03*
X60137Y-50866D03*
X51496Y-51574D03*
X51496Y-51889D03*
X60531Y-50866D03*
X51181Y-52204D03*
X58858Y-51456D03*
X50551Y-52204D03*
X60925Y-52440D03*
X49921Y-52834D03*
X58897Y-53031D03*
X60531Y-50078D03*
X50551Y-51574D03*
X50551Y-51889D03*
X60925Y-51259D03*
X60925Y-51653D03*
X50236Y-52204D03*
X59350Y-50078D03*
X50866Y-51574D03*
X60531Y-51259D03*
X50866Y-51889D03*
X58858Y-50275D03*
X51181Y-51574D03*
X51181Y-51889D03*
X58858Y-51062D03*
X64074Y-54803D03*
X51948Y-55177D03*
X63838Y-55295D03*
X51692Y-55177D03*
X50866Y-54094D03*
X63681Y-53622D03*
X57381Y-54232D03*
X58208Y-55866D03*
X64035Y-55649D03*
X51437Y-55177D03*
X62598Y-56771D03*
X49763Y-54783D03*
X49606Y-54409D03*
X49606Y-53779D03*
X51181Y-52834D03*
X58897Y-53818D03*
X50354Y-50098D03*
X63287Y-53228D03*
X50255Y-57736D03*
X50905Y-49035D03*
X49291Y-54094D03*
X62893Y-53228D03*
X48996Y-49704D03*
X48996Y-48641D03*
X49291Y-53149D03*
X49114Y-57263D03*
X49744Y-57736D03*
X49291Y-53464D03*
X49173Y-49901D03*
X49173Y-48838D03*
X62893Y-54803D03*
X49291Y-51574D03*
X49921Y-53779D03*
X50078Y-54783D03*
X49822Y-55629D03*
X49094Y-55629D03*
X48818Y-54783D03*
X48326Y-48582D03*
X48740Y-49606D03*
X48740Y-49409D03*
X51023Y-51200D03*
X50078Y-51200D03*
X48976Y-51574D03*
X46003Y-54763D03*
X51870Y-53307D03*
X51870Y-52677D03*
X50708Y-54783D03*
X49921Y-51889D03*
X48976Y-53779D03*
X62874Y-56771D03*
X62283Y-56771D03*
X61850Y-56771D03*
X67716Y-50393D03*
X66850Y-57224D03*
X67716Y-57224D03*
X67716Y-57440D03*
X68582Y-57440D03*
X68582Y-57224D03*
X66377Y-56614D03*
X68582Y-55590D03*
X68582Y-57657D03*
X67716Y-57657D03*
X66850Y-57657D03*
X66850Y-50078D03*
X67716Y-55590D03*
X68582Y-55275D03*
X67716Y-55275D03*
X68582Y-51417D03*
X67716Y-51417D03*
X66850Y-51417D03*
X67716Y-50708D03*
X67716Y-50944D03*
X68582Y-50944D03*
X66850Y-50944D03*
X68582Y-50629D03*
X66850Y-50708D03*
X68582Y-50078D03*
X67716Y-50078D03*
X66850Y-55275D03*
X68582Y-50393D03*
X66850Y-50393D03*
X66850Y-55590D03*
X62755Y-57559D03*
X62244Y-57559D03*
X63267Y-59645D03*
X63897Y-59645D03*
X55472Y-55649D03*
X56043Y-55610D03*
X56279Y-55610D03*
X57086Y-57342D03*
X58208Y-57874D03*
X57755Y-57066D03*
X55531Y-59035D03*
X56358Y-59035D03*
X54704Y-59035D03*
X72500Y-54724D03*
X71023Y-52480D03*
X70728Y-54212D03*
X70748Y-55019D03*
X69685Y-51889D03*
X72224Y-50688D03*
X71929Y-50433D03*
X70255Y-50137D03*
X59744Y-50866D03*
X66161Y-59645D03*
X66161Y-59173D03*
X47066Y-48602D03*
X75000Y-50846D03*
X75846Y-51968D03*
X76377Y-54625D03*
X60137Y-53228D03*
X75688Y-54271D03*
X80314Y-48031D03*
X74114Y-48425D03*
X64468Y-51653D03*
X66141Y-49271D03*
X66456Y-50078D03*
X66417Y-50393D03*
X56437Y-52736D03*
X63287Y-50472D03*
X59744Y-54803D03*
X59940Y-55334D03*
X61712Y-52834D03*
X57775Y-54232D03*
X58011Y-54409D03*
X58326Y-54409D03*
X49330Y-48070D03*
X49566Y-51200D03*
X49606Y-53149D03*
X64468Y-55275D03*
X76761Y-52923D03*
X77096Y-52923D03*
X76427Y-52923D03*
X76427Y-53139D03*
X77096Y-53139D03*
X76761Y-53139D03*
X76761Y-52470D03*
X77096Y-52470D03*
X76427Y-52470D03*
X76427Y-52706D03*
X77096Y-52706D03*
X76761Y-52706D03*
X83661Y-48503D03*
X82716Y-53818D03*
X83326Y-52874D03*
X83326Y-52381D03*
X83917Y-53188D03*
X76220Y-48070D03*
X82027Y-48070D03*
X81594Y-48070D03*
X78700Y-48366D03*
X74990Y-52135D03*
X74950Y-50580D03*
X76210Y-50580D03*
X75246Y-54124D03*
X76958Y-53750D03*
X75580Y-50103D03*
X75265Y-50103D03*
X76525Y-50103D03*
X76840Y-50103D03*
X76663Y-51053D03*
X75068Y-49064D03*
X77175Y-49064D03*
X76427Y-50895D03*
X77627Y-51643D03*
X77627Y-51151D03*
X77568Y-50462D03*
X77568Y-50816D03*
X77844Y-49675D03*
X78179Y-49675D03*
X79084Y-49576D03*
X79084Y-48946D03*
X79616Y-53198D03*
X79301Y-52903D03*
X79301Y-53474D03*
X79891Y-53356D03*
X80246Y-53789D03*
X79537Y-53789D03*
X79891Y-54202D03*
X80364Y-50462D03*
X80364Y-50816D03*
X62893Y-54015D03*
X43700Y-56968D03*
X51397Y-59192D03*
X63681Y-55649D03*
X70748Y-57244D03*
X69133Y-59055D03*
X68366Y-59055D03*
X69724Y-49311D03*
X43700Y-55787D03*
X44724Y-56968D03*
X73307Y-48385D03*
X48385Y-59448D03*
X47460Y-59645D03*
X49311Y-59645D03*
X54094Y-59448D03*
X53169Y-59645D03*
X55019Y-59645D03*
X59803Y-59429D03*
X58877Y-59645D03*
X60728Y-59645D03*
X64291Y-59645D03*
X65433Y-55688D03*
X65964Y-50964D03*
X66141Y-48070D03*
X64271Y-48070D03*
X60748Y-48070D03*
X58858Y-48070D03*
X55039Y-48070D03*
X53149Y-48070D03*
X47440Y-48070D03*
X42500Y-52834D03*
X42500Y-50944D03*
X42500Y-49488D03*
X43897Y-48070D03*
X64980Y-59271D03*
X70433Y-53543D03*
X70216Y-53543D03*
X69350Y-55590D03*
X64468Y-54803D03*
X63681Y-52440D03*
X65354Y-50511D03*
X60137Y-51259D03*
X59350Y-49685D03*
X64074Y-53228D03*
X62106Y-51653D03*
X61712Y-51653D03*
X62500Y-50078D03*
X50905Y-48641D03*
X73759Y-57244D03*
X80748Y-55669D03*
X80748Y-57244D03*
X44842Y-50098D03*
X44842Y-50531D03*
X44842Y-50314D03*
X44271Y-50098D03*
X44271Y-50531D03*
X44271Y-50314D03*
X44547Y-50098D03*
X44547Y-50531D03*
X44547Y-50314D03*
X45118Y-50098D03*
X45118Y-50531D03*
X45118Y-50314D03*
X43976Y-50314D03*
X43976Y-50531D03*
X43976Y-50098D03*
X53208Y-58444D03*
X49330Y-57401D03*
X49547Y-57618D03*
X48011Y-57657D03*
X48011Y-57460D03*
X48976Y-57795D03*
X48011Y-57263D03*
X47283Y-56023D03*
X47283Y-56830D03*
X47283Y-56417D03*
X47283Y-56220D03*
X47283Y-56633D03*
X46732Y-56023D03*
X46732Y-56830D03*
X46732Y-56417D03*
X46732Y-56220D03*
X46732Y-56633D03*
X47578Y-56633D03*
X47578Y-56220D03*
X47578Y-56417D03*
X47578Y-56830D03*
X47578Y-56023D03*
X47007Y-56023D03*
X47007Y-56830D03*
X47007Y-56417D03*
X47007Y-56220D03*
X47007Y-56633D03*
X46437Y-56633D03*
X46437Y-56220D03*
X46437Y-56417D03*
X46437Y-56830D03*
X46437Y-56023D03*
X77145Y-58779D03*
X77145Y-58425D03*
X78366Y-56456D03*
X83366Y-58425D03*
X60137Y-50472D03*
X61712Y-54015D03*
X63681Y-54409D03*
X83759Y-57657D03*
X50314Y-48641D03*
X58858Y-53425D03*
X62893Y-50866D03*
X64862Y-50472D03*
X55127Y-49891D03*
X56545Y-51072D03*
X55915Y-49498D03*
X56387Y-49891D03*
X46299Y-48602D03*
X51043Y-59133D03*
X50728Y-59133D03*
X52362Y-58779D03*
X53208Y-59035D03*
X53956Y-58838D03*
X53956Y-59035D03*
X53208Y-58838D03*
X53208Y-58641D03*
X58858Y-52244D03*
X51496Y-53464D03*
X50374Y-50708D03*
X51870Y-54566D03*
X46181Y-54251D03*
X46062Y-52795D03*
X64862Y-53228D03*
X64074Y-52440D03*
X55098Y-52696D03*
X56102Y-52736D03*
X53110Y-55393D03*
X53543Y-55629D03*
X53818Y-56102D03*
X51043Y-56338D03*
X50728Y-56338D03*
X59350Y-52047D03*
X65334Y-48562D03*
X61318Y-51653D03*
X64074Y-50472D03*
X46377Y-51555D03*
X47539Y-50728D03*
X46259Y-50944D03*
X58799Y-48789D03*
X55285Y-49498D03*
X56387Y-50679D03*
X55127Y-50679D03*
X55285Y-51072D03*
X55915Y-51072D03*
X57175Y-51072D03*
X57175Y-49498D03*
X57647Y-50679D03*
X57647Y-49891D03*
X53868Y-48789D03*
X56545Y-49498D03*
X53395Y-51387D03*
X59350Y-50472D03*
X60531Y-49685D03*
X63287Y-49685D03*
X63681Y-49291D03*
X60137Y-52440D03*
X60531Y-54015D03*
X60531Y-53228D03*
X62106Y-52834D03*
X62500Y-52047D03*
X62106Y-52047D03*
X61712Y-52047D03*
X61318Y-52047D03*
X49842Y-56220D03*
X48661Y-50944D03*
X47618Y-48700D03*
X51653Y-51200D03*
X51870Y-53937D03*
X51870Y-52992D03*
X49606Y-52519D03*
X48051Y-51102D03*
X47677Y-51673D03*
X45433Y-52933D03*
X48976Y-52204D03*
X47007Y-52677D03*
X48031Y-54822D03*
X47401Y-52677D03*
X48503Y-54783D03*
X48169Y-55098D03*
X48818Y-55393D03*
X50393Y-54783D03*
X51496Y-53937D03*
X52086Y-51397D03*
X52401Y-51397D03*
X49960Y-57618D03*
X47952Y-50866D03*
X48267Y-50866D03*
X46043Y-48602D03*
X45807Y-48897D03*
X43681Y-52716D03*
X43267Y-53248D03*
X43267Y-52185D03*
X45551Y-51535D03*
X45295Y-52086D03*
X47795Y-54330D03*
X48287Y-54566D03*
X45984Y-50866D03*
X46633Y-51259D03*
X47303Y-50413D03*
X46791Y-53444D03*
X45925Y-53444D03*
X50098Y-49468D03*
X50098Y-50452D03*
X50905Y-49704D03*
X53090Y-53307D03*
X48976Y-51889D03*
X48976Y-52519D03*
X49921Y-54094D03*
X51870Y-54251D03*
X50393Y-51200D03*
X64862Y-49291D03*
X43917Y-48602D03*
X49468Y-56062D03*
X49035Y-55866D03*
X48346Y-59055D03*
X49173Y-59055D03*
X64074Y-51259D03*
X61318Y-50078D03*
X69488Y-54724D03*
X61712Y-49685D03*
X69488Y-50039D03*
X69330Y-50236D03*
X69330Y-54566D03*
X64468Y-50866D03*
X69822Y-54409D03*
X69822Y-49724D03*
X60137Y-50078D03*
X70019Y-54251D03*
X70019Y-49547D03*
X59744Y-50078D03*
X78149Y-59173D03*
X59744Y-54409D03*
X66377Y-59055D03*
X76338Y-48543D03*
X77706Y-53001D03*
X49783Y-48169D03*
X49606Y-52204D03*
X77854Y-59350D03*
X59744Y-54015D03*
X65393Y-59173D03*
X75984Y-48543D03*
X77706Y-53277D03*
X50039Y-48169D03*
X49606Y-51889D03*
X62500Y-51653D03*
X82755Y-49370D03*
X65354Y-50275D03*
X68976Y-52204D03*
X64862Y-54409D03*
X68582Y-53307D03*
X48661Y-53779D03*
X46574Y-54251D03*
X49606Y-52834D03*
X53346Y-52755D03*
X53661Y-52755D03*
X48661Y-53464D03*
X52578Y-54980D03*
X48976Y-53464D03*
X50236Y-53464D03*
X52244Y-54251D03*
X73307Y-48661D03*
X49350Y-49035D03*
X51102Y-48838D03*
X49291Y-52519D03*
X46673Y-52578D03*
X72677Y-48385D03*
X73858Y-48661D03*
X51259Y-49685D03*
X49350Y-50098D03*
X53385Y-55393D03*
X59173Y-55688D03*
X52125Y-50137D03*
X47539Y-50019D03*
X43937Y-52401D03*
X53976Y-52755D03*
X48976Y-54094D03*
X48287Y-52677D03*
X48661Y-53149D03*
X48287Y-54251D03*
X47893Y-52362D03*
X48661Y-52834D03*
X82755Y-48503D03*
X82362Y-48543D03*
X81712Y-48740D03*
X53346Y-54015D03*
X53346Y-54409D03*
X43484Y-51535D03*
X44291Y-48858D03*
X45925Y-49842D03*
X46023Y-55551D03*
X47244Y-54803D03*
X46751Y-54803D03*
X48248Y-55866D03*
X46023Y-57263D03*
X46023Y-57657D03*
X46023Y-57460D03*
X50000Y-58188D03*
X45905Y-58700D03*
X52362Y-59035D03*
X52598Y-59035D03*
X46496Y-58700D03*
X45905Y-58897D03*
X46496Y-58897D03*
X83149Y-48503D03*
X75531Y-51633D03*
X65354Y-53425D03*
X46968Y-50984D03*
X48976Y-52834D03*
X48976Y-53149D03*
X46968Y-51299D03*
X67716Y-54468D03*
X64468Y-52834D03*
X74990Y-52490D03*
X68779Y-50787D03*
X59940Y-55688D03*
X59763Y-57677D03*
X69468Y-57637D03*
X69665Y-54094D03*
X78385Y-59527D03*
X77706Y-52746D03*
X50236Y-53779D03*
X50472Y-59448D03*
X83326Y-50885D03*
X83937Y-53562D03*
X64074Y-52047D03*
X81751Y-49881D03*
X50944Y-50098D03*
X50236Y-52834D03*
X83326Y-51889D03*
X83602Y-53562D03*
X63681Y-52047D03*
X81751Y-50885D03*
X49921Y-52519D03*
X64074Y-51653D03*
X83326Y-49881D03*
X81751Y-51870D03*
X49291Y-51889D03*
X83326Y-50374D03*
X63681Y-51653D03*
X81751Y-50374D03*
X49921Y-52204D03*
X48661Y-51200D03*
X81751Y-52381D03*
X68582Y-52677D03*
X63681Y-52834D03*
X63287Y-52834D03*
X68976Y-52834D03*
X74990Y-53513D03*
X68779Y-55039D03*
X65433Y-55433D03*
X60295Y-55295D03*
X65551Y-53543D03*
X58326Y-52244D03*
X57893Y-54980D03*
X62893Y-52440D03*
X62500Y-52440D03*
X62106Y-52440D03*
X61712Y-52440D03*
X61318Y-52440D03*
X62893Y-52047D03*
X62893Y-51653D03*
X46948Y-49566D03*
X46653Y-49566D03*
X46417Y-49566D03*
X46259Y-49311D03*
X43602Y-48720D03*
X63562Y-57342D03*
X66397Y-50708D03*
X60925Y-54409D03*
X57381Y-53956D03*
X62893Y-50078D03*
X60925Y-50078D03*
X54970Y-49498D03*
G54D15*
X54025Y-51387D02*
X53366Y-52047D01*
X53366Y-52047D02*
X51870Y-52047D01*
G54D16*
X56712Y-58622D02*
X58641Y-58622D01*
X58641Y-58622D02*
X59251Y-58011D01*
X64606Y-58011D02*
X59251Y-58011D01*
X64606Y-58011D02*
X64980Y-57637D01*
X52814Y-58149D02*
X53425Y-58149D01*
X51397Y-58149D02*
X52814Y-58149D01*
X53425Y-58149D02*
X53897Y-58622D01*
X53897Y-58622D02*
X56712Y-58622D01*
X64094Y-56830D02*
X63661Y-56830D01*
X59153Y-56318D02*
X58897Y-56574D01*
X63149Y-56318D02*
X59153Y-56318D01*
X63661Y-56830D02*
X63149Y-56318D01*
G54D15*
X56240Y-57637D02*
X57677Y-57637D01*
X57677Y-57637D02*
X58740Y-56574D01*
X58740Y-56574D02*
X58897Y-56574D01*
X56240Y-57834D02*
X57795Y-57834D01*
X57795Y-57834D02*
X58897Y-56732D01*
X58897Y-56732D02*
X58897Y-56574D01*
G54D16*
X58877Y-56574D02*
X58897Y-56574D01*
G54D17*
X49291Y-52204D02*
X49212Y-52204D01*
X49212Y-52204D02*
X49055Y-52047D01*
X46358Y-52047D02*
X45984Y-51673D01*
X49055Y-52047D02*
X46358Y-52047D01*
X60925Y-50472D02*
X60787Y-50610D01*
X54891Y-50836D02*
X54655Y-51072D01*
X57933Y-50836D02*
X54891Y-50836D01*
X58149Y-50620D02*
X57933Y-50836D01*
X60777Y-50620D02*
X58149Y-50620D01*
X60787Y-50610D02*
X60777Y-50620D01*
X61318Y-50472D02*
X61082Y-50708D01*
X55118Y-50925D02*
X54970Y-51072D01*
X57972Y-50925D02*
X55118Y-50925D01*
X58188Y-50708D02*
X57972Y-50925D01*
X61082Y-50708D02*
X58188Y-50708D01*
X55600Y-51072D02*
X55580Y-51072D01*
X56702Y-50679D02*
X56850Y-50531D01*
X61919Y-50265D02*
X62106Y-50078D01*
X61919Y-50551D02*
X61919Y-50265D01*
X61820Y-50649D02*
X61919Y-50551D01*
X61584Y-50649D02*
X61820Y-50649D01*
X61515Y-50580D02*
X61584Y-50649D01*
X61515Y-50423D02*
X61515Y-50580D01*
X61417Y-50324D02*
X61515Y-50423D01*
X59222Y-50324D02*
X61417Y-50324D01*
X59025Y-50521D02*
X59222Y-50324D01*
X56860Y-50521D02*
X59025Y-50521D01*
X56850Y-50531D02*
X56860Y-50521D01*
X62500Y-51053D02*
X62500Y-50866D01*
X62057Y-51496D02*
X62500Y-51053D01*
X59281Y-51496D02*
X62057Y-51496D01*
X59084Y-51692D02*
X59281Y-51496D01*
X58769Y-51692D02*
X59084Y-51692D01*
X55285Y-51387D02*
X55629Y-51732D01*
X58730Y-51732D02*
X58769Y-51692D01*
X55629Y-51732D02*
X58730Y-51732D01*
X62106Y-51200D02*
X62106Y-50866D01*
X61899Y-51407D02*
X62106Y-51200D01*
X59212Y-51407D02*
X61899Y-51407D01*
X59015Y-51604D02*
X59212Y-51407D01*
X58730Y-51604D02*
X59015Y-51604D01*
X55915Y-51387D02*
X56171Y-51643D01*
X58690Y-51643D02*
X58730Y-51604D01*
X56171Y-51643D02*
X58690Y-51643D01*
X62106Y-49291D02*
X61948Y-49448D01*
X57755Y-50127D02*
X54891Y-50127D01*
X58435Y-49448D02*
X57755Y-50127D01*
X61948Y-49448D02*
X58435Y-49448D01*
X54655Y-50364D02*
X54891Y-50127D01*
X54655Y-50826D02*
X54655Y-50364D01*
X54655Y-51387D02*
X54498Y-51230D01*
X54498Y-50984D02*
X54655Y-50826D01*
X54498Y-51230D02*
X54498Y-50984D01*
X61712Y-50472D02*
X61476Y-50236D01*
X61476Y-50236D02*
X59143Y-50236D01*
X59143Y-50236D02*
X58946Y-50433D01*
X58946Y-50433D02*
X55059Y-50433D01*
X55059Y-50433D02*
X54812Y-50679D01*
X77263Y-54251D02*
X77263Y-54763D01*
X59488Y-53090D02*
X59507Y-53070D01*
X59507Y-53070D02*
X64940Y-53070D01*
X64940Y-53070D02*
X65039Y-53169D01*
X65039Y-53169D02*
X65039Y-53523D01*
X65039Y-53523D02*
X65728Y-54212D01*
X65728Y-54212D02*
X67224Y-54212D01*
X67224Y-54212D02*
X67637Y-54625D01*
X67637Y-54625D02*
X69015Y-54625D01*
X69015Y-54625D02*
X70078Y-55688D01*
X70078Y-55688D02*
X74192Y-55688D01*
X74192Y-55688D02*
X74468Y-55413D01*
X74468Y-55413D02*
X76614Y-55413D01*
X76614Y-55413D02*
X77125Y-54901D01*
X59350Y-53228D02*
X59488Y-53090D01*
X77263Y-54763D02*
X77125Y-54901D01*
X59744Y-52047D02*
X59596Y-52194D01*
X55098Y-52401D02*
X54192Y-53307D01*
X59035Y-52401D02*
X55098Y-52401D01*
X59242Y-52194D02*
X59035Y-52401D01*
X59596Y-52194D02*
X59242Y-52194D01*
X50196Y-55118D02*
X50885Y-55118D01*
X51240Y-54763D02*
X52322Y-54763D01*
X50885Y-55118D02*
X51240Y-54763D01*
X59488Y-51889D02*
X59271Y-51889D01*
X59074Y-52086D02*
X55000Y-52086D01*
X59271Y-51889D02*
X59074Y-52086D01*
X52322Y-54763D02*
X53021Y-54064D01*
X53021Y-54064D02*
X55000Y-52086D01*
X49094Y-55374D02*
X49350Y-55118D01*
X49350Y-55118D02*
X50196Y-55118D01*
X64153Y-51889D02*
X64311Y-51889D01*
X64311Y-51889D02*
X64468Y-52047D01*
X59488Y-51889D02*
X64153Y-51889D01*
X55216Y-51998D02*
X54950Y-51998D01*
X52381Y-54566D02*
X52244Y-54566D01*
X54950Y-51998D02*
X52381Y-54566D01*
X59005Y-51998D02*
X55216Y-51998D01*
X59202Y-51801D02*
X59005Y-51998D01*
X64862Y-52047D02*
X64625Y-51811D01*
X64616Y-51801D02*
X59202Y-51801D01*
X64625Y-51811D02*
X64616Y-51801D01*
X64862Y-54803D02*
X65000Y-54940D01*
X66181Y-54881D02*
X67677Y-54881D01*
X66112Y-54950D02*
X66181Y-54881D01*
X65009Y-54950D02*
X66112Y-54950D01*
X65000Y-54940D02*
X65009Y-54950D01*
X50629Y-55226D02*
X50935Y-55226D01*
X52637Y-54606D02*
X53435Y-54606D01*
X52381Y-54862D02*
X52637Y-54606D01*
X51299Y-54862D02*
X52381Y-54862D01*
X50935Y-55226D02*
X51299Y-54862D01*
X62893Y-52293D02*
X63041Y-52293D01*
X59074Y-52490D02*
X55551Y-52490D01*
X55551Y-52490D02*
X53435Y-54606D01*
X62893Y-52293D02*
X59271Y-52293D01*
X59271Y-52293D02*
X59074Y-52490D01*
X63041Y-52293D02*
X63287Y-52047D01*
X49990Y-55226D02*
X50629Y-55226D01*
X49990Y-55226D02*
X49842Y-55374D01*
X53179Y-55009D02*
X52795Y-55393D01*
X50777Y-55393D02*
X52795Y-55393D01*
X64074Y-52834D02*
X63946Y-52962D01*
X55157Y-53031D02*
X53179Y-55009D01*
X53179Y-55009D02*
X52992Y-55196D01*
X58454Y-53031D02*
X55157Y-53031D01*
X58651Y-52834D02*
X58454Y-53031D01*
X59005Y-52834D02*
X58651Y-52834D01*
X59153Y-52982D02*
X59005Y-52834D01*
X63927Y-52982D02*
X59153Y-52982D01*
X63946Y-52962D02*
X63927Y-52982D01*
X63946Y-52962D02*
X63946Y-52962D01*
X63287Y-53622D02*
X63425Y-53759D01*
X65944Y-54566D02*
X66279Y-54566D01*
X65147Y-53769D02*
X65944Y-54566D01*
X63435Y-53769D02*
X65147Y-53769D01*
X63425Y-53759D02*
X63435Y-53769D01*
X68425Y-54724D02*
X68582Y-54881D01*
X67578Y-54724D02*
X68425Y-54724D01*
X67421Y-54566D02*
X67578Y-54724D01*
X66279Y-54566D02*
X67421Y-54566D01*
X78051Y-55846D02*
X78464Y-55433D01*
X77224Y-55846D02*
X78051Y-55846D01*
X66377Y-55039D02*
X67992Y-55039D01*
X70019Y-55846D02*
X77224Y-55846D01*
X69606Y-55433D02*
X70019Y-55846D01*
X68385Y-55433D02*
X69606Y-55433D01*
X67992Y-55039D02*
X68385Y-55433D01*
X66377Y-55039D02*
X63740Y-55039D01*
X63740Y-55039D02*
X63484Y-55295D01*
X62893Y-53622D02*
X63129Y-53858D01*
X65925Y-54724D02*
X66850Y-54724D01*
X65059Y-53858D02*
X65925Y-54724D01*
X63129Y-53858D02*
X65059Y-53858D01*
X63090Y-53818D02*
X62893Y-53622D01*
X66850Y-54724D02*
X66181Y-54724D01*
X51023Y-52362D02*
X53031Y-52362D01*
X53031Y-52362D02*
X53090Y-52421D01*
X50866Y-52204D02*
X51023Y-52362D01*
X58937Y-55866D02*
X63818Y-55866D01*
X63818Y-55866D02*
X64035Y-55649D01*
X58208Y-55866D02*
X58937Y-55866D01*
X55118Y-55551D02*
X56998Y-53671D01*
X51181Y-56811D02*
X53858Y-56811D01*
X53858Y-56811D02*
X55118Y-55551D01*
X63051Y-53464D02*
X59232Y-53464D01*
X59232Y-53464D02*
X59025Y-53671D01*
X59025Y-53671D02*
X56998Y-53671D01*
X63287Y-53228D02*
X63051Y-53464D01*
X51181Y-56811D02*
X50255Y-57736D01*
X55019Y-55452D02*
X56889Y-53582D01*
X51200Y-56633D02*
X53838Y-56633D01*
X53838Y-56633D02*
X55019Y-55452D01*
X49114Y-57263D02*
X49232Y-57145D01*
X50688Y-57145D02*
X51200Y-56633D01*
X49232Y-57145D02*
X50688Y-57145D01*
X62746Y-53375D02*
X59133Y-53375D01*
X62893Y-53228D02*
X62746Y-53375D01*
X58927Y-53582D02*
X56889Y-53582D01*
X59133Y-53375D02*
X58927Y-53582D01*
X57598Y-55216D02*
X55649Y-55216D01*
X55649Y-55216D02*
X55275Y-55590D01*
X51397Y-56929D02*
X53937Y-56929D01*
X49940Y-57933D02*
X49744Y-57736D01*
X50393Y-57933D02*
X49940Y-57933D01*
X51397Y-56929D02*
X50393Y-57933D01*
X53937Y-56929D02*
X55275Y-55590D01*
X58799Y-55216D02*
X59015Y-55000D01*
X62696Y-55000D02*
X59015Y-55000D01*
X62893Y-54803D02*
X62696Y-55000D01*
X58582Y-55216D02*
X57598Y-55216D01*
X58582Y-55216D02*
X58799Y-55216D01*
X69822Y-49724D02*
X69370Y-49724D01*
X65275Y-49724D02*
X69370Y-49724D01*
X60275Y-49940D02*
X60295Y-49921D01*
X60295Y-49921D02*
X65078Y-49921D01*
X65078Y-49921D02*
X65275Y-49724D01*
X60137Y-50078D02*
X60275Y-49940D01*
X65275Y-49635D02*
X69498Y-49635D01*
X69498Y-49635D02*
X69586Y-49547D01*
X69586Y-49547D02*
X70019Y-49547D01*
X65187Y-49635D02*
X65275Y-49635D01*
X64990Y-49832D02*
X65187Y-49635D01*
X59990Y-49832D02*
X64990Y-49832D01*
X59980Y-49842D02*
X59990Y-49832D01*
X59744Y-50078D02*
X59980Y-49842D01*
X49960Y-47992D02*
X52086Y-47992D01*
X52086Y-47992D02*
X52322Y-48228D01*
X52322Y-48228D02*
X64960Y-48228D01*
X64960Y-48228D02*
X64960Y-48228D01*
X64960Y-48228D02*
X72145Y-48228D01*
X72145Y-48228D02*
X72362Y-48011D01*
X72362Y-48011D02*
X75807Y-48011D01*
X75807Y-48011D02*
X76338Y-48543D01*
X49783Y-48169D02*
X49960Y-47992D01*
X72224Y-48307D02*
X72421Y-48110D01*
X72421Y-48110D02*
X75551Y-48110D01*
X75551Y-48110D02*
X75984Y-48543D01*
X50039Y-48169D02*
X51574Y-48169D01*
X65059Y-48307D02*
X72185Y-48307D01*
X65019Y-48346D02*
X65059Y-48307D01*
X51751Y-48346D02*
X65019Y-48346D01*
X51574Y-48169D02*
X51751Y-48346D01*
X72185Y-48307D02*
X72224Y-48307D01*
X48661Y-53779D02*
X47047Y-53779D01*
X47047Y-53779D02*
X46574Y-54251D01*
X49606Y-52834D02*
X49763Y-52677D01*
X51594Y-52677D02*
X51751Y-52834D01*
X49763Y-52677D02*
X51594Y-52677D01*
X51751Y-52834D02*
X53267Y-52834D01*
X53267Y-52834D02*
X53346Y-52755D01*
X48976Y-53307D02*
X49842Y-53307D01*
X49842Y-53307D02*
X50157Y-52992D01*
X53248Y-53031D02*
X52401Y-53031D01*
X52401Y-53031D02*
X52283Y-53149D01*
X52224Y-53149D02*
X51791Y-53149D01*
X52224Y-53149D02*
X52283Y-53149D01*
X51791Y-53149D02*
X51633Y-52992D01*
X51633Y-52992D02*
X50157Y-52992D01*
X53385Y-53031D02*
X53661Y-52755D01*
X53248Y-53031D02*
X53385Y-53031D01*
X48818Y-53307D02*
X48976Y-53307D01*
X48976Y-53307D02*
X49074Y-53307D01*
X48661Y-53464D02*
X48818Y-53307D01*
X50236Y-53464D02*
X51200Y-53464D01*
X52244Y-53897D02*
X52244Y-54251D01*
X51988Y-53641D02*
X52244Y-53897D01*
X51377Y-53641D02*
X51988Y-53641D01*
X51200Y-53464D02*
X51377Y-53641D01*
X49291Y-52519D02*
X49133Y-52362D01*
X46771Y-52480D02*
X46673Y-52578D01*
X47578Y-52480D02*
X46771Y-52480D01*
X47637Y-52539D02*
X47578Y-52480D01*
X48070Y-52539D02*
X47637Y-52539D01*
X48248Y-52362D02*
X48070Y-52539D01*
X49133Y-52362D02*
X48248Y-52362D01*
G54D18*
X47539Y-50019D02*
X46279Y-50019D01*
X46279Y-50019D02*
X46141Y-50157D01*
X43937Y-52401D02*
X43937Y-52362D01*
X43937Y-52362D02*
X46141Y-50157D01*
X45629Y-50669D02*
X46141Y-50157D01*
G54D17*
X49251Y-53937D02*
X49704Y-53937D01*
X49763Y-53622D02*
X50078Y-53307D01*
X49763Y-53877D02*
X49763Y-53622D01*
X49704Y-53937D02*
X49763Y-53877D01*
X53425Y-53149D02*
X52421Y-53149D01*
X51594Y-53307D02*
X50078Y-53307D01*
X51751Y-53464D02*
X51594Y-53307D01*
X52106Y-53464D02*
X51751Y-53464D01*
X52421Y-53149D02*
X52106Y-53464D01*
X53582Y-53149D02*
X53976Y-52755D01*
X53425Y-53149D02*
X53582Y-53149D01*
X48976Y-54094D02*
X49133Y-53937D01*
X49133Y-53937D02*
X49251Y-53937D01*
X49251Y-53937D02*
X49370Y-53937D01*
X75413Y-52224D02*
X75413Y-52480D01*
X75413Y-52480D02*
X75137Y-52755D01*
X69429Y-52755D02*
X69350Y-52677D01*
X75137Y-52755D02*
X69429Y-52755D01*
X75216Y-52677D02*
X75413Y-52480D01*
X75413Y-52283D02*
X75413Y-52224D01*
X75413Y-52224D02*
X75413Y-51751D01*
X75413Y-51751D02*
X75531Y-51633D01*
X75413Y-52480D02*
X75413Y-52283D01*
X75413Y-52283D02*
X75413Y-52125D01*
X65511Y-53267D02*
X65354Y-53425D01*
X66240Y-53267D02*
X65511Y-53267D01*
X66673Y-52834D02*
X66240Y-53267D01*
X68700Y-52834D02*
X66673Y-52834D01*
X68858Y-52677D02*
X68700Y-52834D01*
X69350Y-52677D02*
X68858Y-52677D01*
X67224Y-54114D02*
X67362Y-54114D01*
X64468Y-52834D02*
X64586Y-52952D01*
X65049Y-52982D02*
X65147Y-53080D01*
X64606Y-52972D02*
X64616Y-52982D01*
X64586Y-52952D02*
X64606Y-52972D01*
X64616Y-52982D02*
X65049Y-52982D01*
X65147Y-53080D02*
X65147Y-53248D01*
X65147Y-53494D02*
X65767Y-54114D01*
X65767Y-54114D02*
X67224Y-54114D01*
X65147Y-53248D02*
X65147Y-53494D01*
X67362Y-54114D02*
X67716Y-54468D01*
X72539Y-51496D02*
X69488Y-51496D01*
X69488Y-51496D02*
X68779Y-50787D01*
X73996Y-51496D02*
X74990Y-52490D01*
X72539Y-51496D02*
X73996Y-51496D01*
X73700Y-48208D02*
X74960Y-48208D01*
X74960Y-48208D02*
X75492Y-48740D01*
X80610Y-48740D02*
X75492Y-48740D01*
X80610Y-48740D02*
X81751Y-49881D01*
X73700Y-48208D02*
X72480Y-48208D01*
X65492Y-48405D02*
X72283Y-48405D01*
X72283Y-48405D02*
X72480Y-48208D01*
X65236Y-48405D02*
X65492Y-48405D01*
X50944Y-50098D02*
X51082Y-49960D01*
X65078Y-48405D02*
X65236Y-48405D01*
X64940Y-48543D02*
X65078Y-48405D01*
X58484Y-48543D02*
X64940Y-48543D01*
X57874Y-49153D02*
X58484Y-48543D01*
X53484Y-49153D02*
X57874Y-49153D01*
X52677Y-49960D02*
X53484Y-49153D01*
X51082Y-49960D02*
X52677Y-49960D01*
X70000Y-49232D02*
X72244Y-49232D01*
X72244Y-49232D02*
X72677Y-49665D01*
X78858Y-49901D02*
X77696Y-49901D01*
X77460Y-49665D02*
X72677Y-49665D01*
X77696Y-49901D02*
X77460Y-49665D01*
X80767Y-49901D02*
X81751Y-50885D01*
X78858Y-49901D02*
X80767Y-49901D01*
X70000Y-49232D02*
X69862Y-49094D01*
X65059Y-49124D02*
X65324Y-49124D01*
X65354Y-49094D02*
X69862Y-49094D01*
X65324Y-49124D02*
X65354Y-49094D01*
X65059Y-49124D02*
X58818Y-49124D01*
X54389Y-49744D02*
X57933Y-49744D01*
X54330Y-49803D02*
X54389Y-49744D01*
X54330Y-50059D02*
X54330Y-49803D01*
X53897Y-50492D02*
X54330Y-50059D01*
X53326Y-50492D02*
X53897Y-50492D01*
X53070Y-50748D02*
X53326Y-50492D01*
X51751Y-50748D02*
X53070Y-50748D01*
X58553Y-49124D02*
X57933Y-49744D01*
X58818Y-49124D02*
X58553Y-49124D01*
X51043Y-50748D02*
X50866Y-50925D01*
X50866Y-50925D02*
X50866Y-51318D01*
X50866Y-51318D02*
X50708Y-51476D01*
X51751Y-50748D02*
X51043Y-50748D01*
X49921Y-52519D02*
X50078Y-52362D01*
X50078Y-52362D02*
X50255Y-52362D01*
X50708Y-51476D02*
X50708Y-52283D01*
X50708Y-52283D02*
X50629Y-52362D01*
X50629Y-52362D02*
X50255Y-52362D01*
X77598Y-49311D02*
X80767Y-49311D01*
X70118Y-48996D02*
X69980Y-48858D01*
X73641Y-48996D02*
X70118Y-48996D01*
X73956Y-49311D02*
X73641Y-48996D01*
X77598Y-49311D02*
X73956Y-49311D01*
X81968Y-50452D02*
X81968Y-50295D01*
X81968Y-50452D02*
X81968Y-51653D01*
X81968Y-51653D02*
X81751Y-51870D01*
X81968Y-50295D02*
X81870Y-50196D01*
X81870Y-50196D02*
X81653Y-50196D01*
X81653Y-50196D02*
X80767Y-49311D01*
X65295Y-48858D02*
X69980Y-48858D01*
X64940Y-48946D02*
X58395Y-48946D01*
X58395Y-48946D02*
X57992Y-49350D01*
X57992Y-49350D02*
X53937Y-49350D01*
X53937Y-49350D02*
X53877Y-49409D01*
X53877Y-49409D02*
X53877Y-49586D01*
X53877Y-49586D02*
X53700Y-49763D01*
X53700Y-49763D02*
X53700Y-50196D01*
X53700Y-50196D02*
X53602Y-50295D01*
X53602Y-50295D02*
X53188Y-50295D01*
X53188Y-50295D02*
X52933Y-50551D01*
X51515Y-50551D02*
X52933Y-50551D01*
X64940Y-48946D02*
X65206Y-48946D01*
X65206Y-48946D02*
X65295Y-48858D01*
X51515Y-50551D02*
X50787Y-50551D01*
X49842Y-51732D02*
X49704Y-51732D01*
X50236Y-51338D02*
X49842Y-51732D01*
X50236Y-51102D02*
X50236Y-51338D01*
X50787Y-50551D02*
X50236Y-51102D01*
X49763Y-51732D02*
X49704Y-51732D01*
X49448Y-51732D02*
X49291Y-51889D01*
X49704Y-51732D02*
X49448Y-51732D01*
X51515Y-50551D02*
X50826Y-50551D01*
X70059Y-49114D02*
X72283Y-49114D01*
X72283Y-49114D02*
X72657Y-49488D01*
X81751Y-50374D02*
X81456Y-50374D01*
X78897Y-49763D02*
X80846Y-49763D01*
X78622Y-49488D02*
X78897Y-49763D01*
X78622Y-49488D02*
X72657Y-49488D01*
X81456Y-50374D02*
X80846Y-49763D01*
X53011Y-50649D02*
X51358Y-50649D01*
X53267Y-50393D02*
X53011Y-50649D01*
X53681Y-50393D02*
X53267Y-50393D01*
X54035Y-50039D02*
X53681Y-50393D01*
X54035Y-49744D02*
X54035Y-50039D01*
X54133Y-49645D02*
X54035Y-49744D01*
X57874Y-49645D02*
X54133Y-49645D01*
X58484Y-49035D02*
X57874Y-49645D01*
X65000Y-49035D02*
X58484Y-49035D01*
X50984Y-50649D02*
X50551Y-51082D01*
X50551Y-51082D02*
X50551Y-51259D01*
X50551Y-51259D02*
X50393Y-51417D01*
X50393Y-51417D02*
X50393Y-51988D01*
X50393Y-51988D02*
X50334Y-52047D01*
X50078Y-52047D02*
X50334Y-52047D01*
X51358Y-50649D02*
X50984Y-50649D01*
X65000Y-49035D02*
X65255Y-49035D01*
X65255Y-49035D02*
X65314Y-48976D01*
X65314Y-48976D02*
X69921Y-48976D01*
X70059Y-49114D02*
X69921Y-48976D01*
X50078Y-52047D02*
X49921Y-52204D01*
X49921Y-52204D02*
X50078Y-52047D01*
X65290Y-48745D02*
X70063Y-48745D01*
X48877Y-51417D02*
X49803Y-51417D01*
X48661Y-51200D02*
X48877Y-51417D01*
X65187Y-48641D02*
X65290Y-48745D01*
X58523Y-48641D02*
X65187Y-48641D01*
X57913Y-49251D02*
X58523Y-48641D01*
X53700Y-49251D02*
X57913Y-49251D01*
X53562Y-49389D02*
X53700Y-49251D01*
X53562Y-49586D02*
X53562Y-49389D01*
X53366Y-49783D02*
X53562Y-49586D01*
X53366Y-49960D02*
X53366Y-49783D01*
X52893Y-50433D02*
X53366Y-49960D01*
X50354Y-50433D02*
X52893Y-50433D01*
X50118Y-50669D02*
X50354Y-50433D01*
X50118Y-50905D02*
X50118Y-50669D01*
X49921Y-51102D02*
X50118Y-50905D01*
X49921Y-51299D02*
X49921Y-51102D01*
X49803Y-51417D02*
X49921Y-51299D01*
X82106Y-52027D02*
X81751Y-52381D01*
X82106Y-50255D02*
X82106Y-52027D01*
X81929Y-50078D02*
X82106Y-50255D01*
X81712Y-50078D02*
X81929Y-50078D01*
X80807Y-49173D02*
X81712Y-50078D01*
X78799Y-49173D02*
X80807Y-49173D01*
X78484Y-48858D02*
X78799Y-49173D01*
X70177Y-48858D02*
X78484Y-48858D01*
X70063Y-48745D02*
X70177Y-48858D01*
X60511Y-55511D02*
X63090Y-55511D01*
X63090Y-55511D02*
X63129Y-55472D01*
X63129Y-55472D02*
X65393Y-55472D01*
X65393Y-55472D02*
X65433Y-55433D01*
X60295Y-55295D02*
X60511Y-55511D01*
G54D10*
G36*
X64202Y-57332D02*
X63730Y-57332D01*
X63730Y-57309D01*
X63704Y-57247D01*
X63657Y-57200D01*
X63596Y-57175D01*
X63529Y-57175D01*
X63468Y-57200D01*
X63421Y-57247D01*
X63395Y-57309D01*
X63395Y-57332D01*
X63041Y-57332D01*
X63041Y-56738D01*
X63015Y-56676D01*
X62968Y-56629D01*
X62907Y-56604D01*
X62840Y-56604D01*
X62779Y-56629D01*
X62736Y-56672D01*
X62693Y-56629D01*
X62631Y-56604D01*
X62565Y-56604D01*
X62503Y-56629D01*
X62456Y-56676D01*
X62440Y-56714D01*
X62425Y-56676D01*
X62378Y-56629D01*
X62316Y-56604D01*
X62250Y-56604D01*
X62188Y-56629D01*
X62141Y-56676D01*
X62116Y-56738D01*
X62116Y-56804D01*
X62141Y-56866D01*
X62188Y-56913D01*
X62250Y-56938D01*
X62316Y-56939D01*
X62378Y-56913D01*
X62425Y-56866D01*
X62440Y-56828D01*
X62456Y-56866D01*
X62503Y-56913D01*
X62564Y-56938D01*
X62631Y-56939D01*
X62693Y-56913D01*
X62736Y-56870D01*
X62779Y-56913D01*
X62840Y-56938D01*
X62907Y-56939D01*
X62968Y-56913D01*
X63015Y-56866D01*
X63041Y-56805D01*
X63041Y-56738D01*
X63041Y-57332D01*
X62017Y-57332D01*
X62017Y-56738D01*
X61992Y-56676D01*
X61945Y-56629D01*
X61883Y-56604D01*
X61817Y-56604D01*
X61755Y-56629D01*
X61708Y-56676D01*
X61683Y-56738D01*
X61683Y-56804D01*
X61708Y-56866D01*
X61755Y-56913D01*
X61816Y-56938D01*
X61883Y-56939D01*
X61945Y-56913D01*
X61992Y-56866D01*
X62017Y-56805D01*
X62017Y-56738D01*
X62017Y-57332D01*
X57982Y-57332D01*
X57982Y-56889D01*
X57982Y-56053D01*
X64202Y-56053D01*
X64202Y-56446D01*
X64189Y-56433D01*
X64127Y-56407D01*
X64061Y-56407D01*
X63999Y-56432D01*
X63952Y-56479D01*
X63927Y-56541D01*
X63927Y-56607D01*
X63952Y-56669D01*
X63999Y-56716D01*
X64061Y-56742D01*
X64127Y-56742D01*
X64189Y-56716D01*
X64202Y-56703D01*
X64202Y-57332D01*
X64202Y-57332D01*
G37*
X64202Y-57332D02*
X63730Y-57332D01*
X63730Y-57309D01*
X63704Y-57247D01*
X63657Y-57200D01*
X63596Y-57175D01*
X63529Y-57175D01*
X63468Y-57200D01*
X63421Y-57247D01*
X63395Y-57309D01*
X63395Y-57332D01*
X63041Y-57332D01*
X63041Y-56738D01*
X63015Y-56676D01*
X62968Y-56629D01*
X62907Y-56604D01*
X62840Y-56604D01*
X62779Y-56629D01*
X62736Y-56672D01*
X62693Y-56629D01*
X62631Y-56604D01*
X62565Y-56604D01*
X62503Y-56629D01*
X62456Y-56676D01*
X62440Y-56714D01*
X62425Y-56676D01*
X62378Y-56629D01*
X62316Y-56604D01*
X62250Y-56604D01*
X62188Y-56629D01*
X62141Y-56676D01*
X62116Y-56738D01*
X62116Y-56804D01*
X62141Y-56866D01*
X62188Y-56913D01*
X62250Y-56938D01*
X62316Y-56939D01*
X62378Y-56913D01*
X62425Y-56866D01*
X62440Y-56828D01*
X62456Y-56866D01*
X62503Y-56913D01*
X62564Y-56938D01*
X62631Y-56939D01*
X62693Y-56913D01*
X62736Y-56870D01*
X62779Y-56913D01*
X62840Y-56938D01*
X62907Y-56939D01*
X62968Y-56913D01*
X63015Y-56866D01*
X63041Y-56805D01*
X63041Y-56738D01*
X63041Y-57332D01*
X62017Y-57332D01*
X62017Y-56738D01*
X61992Y-56676D01*
X61945Y-56629D01*
X61883Y-56604D01*
X61817Y-56604D01*
X61755Y-56629D01*
X61708Y-56676D01*
X61683Y-56738D01*
X61683Y-56804D01*
X61708Y-56866D01*
X61755Y-56913D01*
X61816Y-56938D01*
X61883Y-56939D01*
X61945Y-56913D01*
X61992Y-56866D01*
X62017Y-56805D01*
X62017Y-56738D01*
X62017Y-57332D01*
X57982Y-57332D01*
X57982Y-56889D01*
X57982Y-56053D01*
X64202Y-56053D01*
X64202Y-56446D01*
X64189Y-56433D01*
X64127Y-56407D01*
X64061Y-56407D01*
X63999Y-56432D01*
X63952Y-56479D01*
X63927Y-56541D01*
X63927Y-56607D01*
X63952Y-56669D01*
X63999Y-56716D01*
X64061Y-56742D01*
X64127Y-56742D01*
X64189Y-56716D01*
X64202Y-56703D01*
X64202Y-57332D01*
G36*
X65639Y-59498D02*
X65561Y-59498D01*
X65561Y-59140D01*
X65535Y-59078D01*
X65488Y-59031D01*
X65427Y-59005D01*
X65360Y-59005D01*
X65299Y-59031D01*
X65251Y-59078D01*
X65226Y-59139D01*
X65226Y-59206D01*
X65251Y-59267D01*
X65298Y-59314D01*
X65360Y-59340D01*
X65426Y-59340D01*
X65488Y-59315D01*
X65535Y-59268D01*
X65560Y-59206D01*
X65561Y-59140D01*
X65561Y-59498D01*
X65147Y-59498D01*
X65147Y-59238D01*
X65122Y-59176D01*
X65075Y-59129D01*
X65013Y-59104D01*
X64947Y-59104D01*
X64885Y-59129D01*
X64838Y-59176D01*
X64813Y-59238D01*
X64812Y-59304D01*
X64838Y-59366D01*
X64885Y-59413D01*
X64946Y-59438D01*
X65013Y-59439D01*
X65074Y-59413D01*
X65122Y-59366D01*
X65147Y-59305D01*
X65147Y-59238D01*
X65147Y-59498D01*
X64372Y-59498D01*
X64324Y-59478D01*
X64258Y-59478D01*
X64210Y-59498D01*
X63978Y-59498D01*
X63931Y-59478D01*
X63864Y-59478D01*
X63816Y-59498D01*
X63348Y-59498D01*
X63301Y-59478D01*
X63234Y-59478D01*
X63186Y-59498D01*
X63080Y-59498D01*
X63080Y-59195D01*
X63080Y-58525D01*
X63052Y-58457D01*
X62999Y-58404D01*
X62931Y-58376D01*
X62856Y-58375D01*
X62787Y-58404D01*
X62735Y-58456D01*
X62716Y-58502D01*
X62698Y-58457D01*
X62645Y-58404D01*
X62576Y-58376D01*
X62502Y-58375D01*
X62433Y-58404D01*
X62380Y-58456D01*
X62352Y-58525D01*
X62352Y-58600D01*
X62380Y-58668D01*
X62433Y-58721D01*
X62502Y-58749D01*
X62576Y-58750D01*
X62645Y-58721D01*
X62697Y-58669D01*
X62716Y-58623D01*
X62735Y-58668D01*
X62787Y-58721D01*
X62856Y-58749D01*
X62930Y-58750D01*
X62999Y-58721D01*
X63052Y-58669D01*
X63080Y-58600D01*
X63080Y-58525D01*
X63080Y-59195D01*
X63052Y-59126D01*
X62999Y-59073D01*
X62931Y-59045D01*
X62856Y-59045D01*
X62787Y-59073D01*
X62735Y-59126D01*
X62716Y-59171D01*
X62698Y-59126D01*
X62645Y-59073D01*
X62576Y-59045D01*
X62502Y-59045D01*
X62433Y-59073D01*
X62380Y-59126D01*
X62352Y-59194D01*
X62352Y-59269D01*
X62380Y-59338D01*
X62433Y-59390D01*
X62502Y-59419D01*
X62576Y-59419D01*
X62645Y-59390D01*
X62697Y-59338D01*
X62716Y-59293D01*
X62735Y-59338D01*
X62787Y-59390D01*
X62856Y-59419D01*
X62930Y-59419D01*
X62999Y-59390D01*
X63052Y-59338D01*
X63080Y-59269D01*
X63080Y-59195D01*
X63080Y-59498D01*
X61604Y-59498D01*
X61604Y-58273D01*
X61578Y-58212D01*
X61531Y-58165D01*
X61470Y-58139D01*
X61403Y-58139D01*
X61342Y-58165D01*
X61309Y-58198D01*
X61276Y-58165D01*
X61214Y-58139D01*
X61147Y-58139D01*
X61086Y-58165D01*
X61039Y-58212D01*
X61013Y-58273D01*
X61013Y-58340D01*
X61039Y-58401D01*
X61086Y-58448D01*
X61147Y-58474D01*
X61214Y-58474D01*
X61275Y-58449D01*
X61309Y-58415D01*
X61342Y-58448D01*
X61403Y-58474D01*
X61470Y-58474D01*
X61531Y-58449D01*
X61578Y-58401D01*
X61604Y-58340D01*
X61604Y-58273D01*
X61604Y-59498D01*
X60809Y-59498D01*
X60761Y-59478D01*
X60695Y-59478D01*
X60647Y-59498D01*
X59955Y-59498D01*
X59970Y-59462D01*
X59970Y-59395D01*
X59945Y-59334D01*
X59898Y-59287D01*
X59836Y-59261D01*
X59770Y-59261D01*
X59708Y-59287D01*
X59661Y-59334D01*
X59635Y-59395D01*
X59635Y-59462D01*
X59650Y-59498D01*
X58958Y-59498D01*
X58911Y-59478D01*
X58844Y-59478D01*
X58797Y-59498D01*
X56525Y-59498D01*
X56525Y-59002D01*
X56500Y-58940D01*
X56453Y-58893D01*
X56391Y-58868D01*
X56325Y-58868D01*
X56263Y-58893D01*
X56216Y-58940D01*
X56190Y-59002D01*
X56190Y-59068D01*
X56216Y-59130D01*
X56263Y-59177D01*
X56324Y-59202D01*
X56391Y-59202D01*
X56452Y-59177D01*
X56500Y-59130D01*
X56525Y-59068D01*
X56525Y-59002D01*
X56525Y-59498D01*
X55698Y-59498D01*
X55698Y-59002D01*
X55673Y-58940D01*
X55626Y-58893D01*
X55564Y-58868D01*
X55498Y-58868D01*
X55436Y-58893D01*
X55389Y-58940D01*
X55364Y-59002D01*
X55364Y-59068D01*
X55389Y-59130D01*
X55436Y-59177D01*
X55498Y-59202D01*
X55564Y-59202D01*
X55626Y-59177D01*
X55673Y-59130D01*
X55698Y-59068D01*
X55698Y-59002D01*
X55698Y-59498D01*
X55100Y-59498D01*
X55053Y-59478D01*
X54986Y-59478D01*
X54938Y-59498D01*
X54872Y-59498D01*
X54872Y-59002D01*
X54846Y-58940D01*
X54799Y-58893D01*
X54738Y-58868D01*
X54671Y-58868D01*
X54610Y-58893D01*
X54562Y-58940D01*
X54537Y-59002D01*
X54537Y-59068D01*
X54562Y-59130D01*
X54609Y-59177D01*
X54671Y-59202D01*
X54737Y-59202D01*
X54799Y-59177D01*
X54846Y-59130D01*
X54872Y-59068D01*
X54872Y-59002D01*
X54872Y-59498D01*
X54255Y-59498D01*
X54261Y-59482D01*
X54261Y-59415D01*
X54236Y-59354D01*
X54189Y-59307D01*
X54127Y-59281D01*
X54124Y-59281D01*
X54124Y-59002D01*
X54098Y-58940D01*
X54094Y-58937D01*
X54098Y-58933D01*
X54123Y-58872D01*
X54124Y-58805D01*
X54098Y-58743D01*
X54051Y-58696D01*
X53990Y-58671D01*
X53923Y-58671D01*
X53862Y-58696D01*
X53814Y-58743D01*
X53789Y-58805D01*
X53789Y-58871D01*
X53814Y-58933D01*
X53818Y-58936D01*
X53814Y-58940D01*
X53789Y-59002D01*
X53789Y-59068D01*
X53814Y-59130D01*
X53861Y-59177D01*
X53923Y-59202D01*
X53989Y-59202D01*
X54051Y-59177D01*
X54098Y-59130D01*
X54123Y-59068D01*
X54124Y-59002D01*
X54124Y-59281D01*
X54061Y-59281D01*
X53999Y-59306D01*
X53952Y-59353D01*
X53927Y-59415D01*
X53927Y-59481D01*
X53933Y-59498D01*
X53376Y-59498D01*
X53376Y-59002D01*
X53350Y-58940D01*
X53346Y-58937D01*
X53350Y-58933D01*
X53375Y-58872D01*
X53376Y-58805D01*
X53350Y-58743D01*
X53346Y-58740D01*
X53350Y-58736D01*
X53375Y-58675D01*
X53376Y-58608D01*
X53350Y-58547D01*
X53346Y-58543D01*
X53350Y-58539D01*
X53375Y-58478D01*
X53376Y-58411D01*
X53350Y-58350D01*
X53303Y-58303D01*
X53242Y-58277D01*
X53175Y-58277D01*
X53114Y-58302D01*
X53066Y-58349D01*
X53041Y-58411D01*
X53041Y-58478D01*
X53066Y-58539D01*
X53070Y-58543D01*
X53066Y-58546D01*
X53041Y-58608D01*
X53041Y-58674D01*
X53066Y-58736D01*
X53070Y-58740D01*
X53066Y-58743D01*
X53041Y-58805D01*
X53041Y-58871D01*
X53066Y-58933D01*
X53070Y-58936D01*
X53066Y-58940D01*
X53041Y-59002D01*
X53041Y-59068D01*
X53066Y-59130D01*
X53113Y-59177D01*
X53175Y-59202D01*
X53241Y-59202D01*
X53303Y-59177D01*
X53350Y-59130D01*
X53375Y-59068D01*
X53376Y-59002D01*
X53376Y-59498D01*
X53250Y-59498D01*
X53202Y-59478D01*
X53136Y-59478D01*
X53088Y-59498D01*
X52765Y-59498D01*
X52765Y-59002D01*
X52740Y-58940D01*
X52693Y-58893D01*
X52631Y-58868D01*
X52565Y-58868D01*
X52503Y-58893D01*
X52480Y-58916D01*
X52470Y-58907D01*
X52503Y-58874D01*
X52529Y-58812D01*
X52529Y-58746D01*
X52504Y-58684D01*
X52457Y-58637D01*
X52395Y-58612D01*
X52329Y-58612D01*
X52267Y-58637D01*
X52220Y-58684D01*
X52194Y-58746D01*
X52194Y-58812D01*
X52220Y-58874D01*
X52253Y-58907D01*
X52220Y-58940D01*
X52194Y-59002D01*
X52194Y-59068D01*
X52220Y-59130D01*
X52267Y-59177D01*
X52328Y-59202D01*
X52395Y-59202D01*
X52456Y-59177D01*
X52480Y-59153D01*
X52503Y-59177D01*
X52564Y-59202D01*
X52631Y-59202D01*
X52693Y-59177D01*
X52740Y-59130D01*
X52765Y-59068D01*
X52765Y-59002D01*
X52765Y-59498D01*
X51289Y-59498D01*
X51289Y-59321D01*
X51302Y-59334D01*
X51364Y-59360D01*
X51430Y-59360D01*
X51492Y-59334D01*
X51539Y-59287D01*
X51564Y-59226D01*
X51564Y-59159D01*
X51539Y-59098D01*
X51492Y-59051D01*
X51431Y-59025D01*
X51364Y-59025D01*
X51302Y-59050D01*
X51289Y-59064D01*
X51289Y-57864D01*
X55999Y-57864D01*
X56012Y-57928D01*
X56066Y-58008D01*
X56145Y-58061D01*
X56231Y-58079D01*
X56216Y-58094D01*
X56190Y-58155D01*
X56190Y-58222D01*
X56216Y-58283D01*
X56220Y-58287D01*
X56216Y-58290D01*
X56190Y-58352D01*
X56190Y-58418D01*
X56216Y-58480D01*
X56263Y-58527D01*
X56324Y-58553D01*
X56391Y-58553D01*
X56452Y-58527D01*
X56476Y-58504D01*
X56499Y-58527D01*
X56561Y-58553D01*
X56627Y-58553D01*
X56689Y-58527D01*
X56736Y-58480D01*
X56761Y-58419D01*
X56761Y-58352D01*
X56736Y-58291D01*
X56732Y-58287D01*
X56736Y-58283D01*
X56761Y-58222D01*
X56761Y-58155D01*
X56736Y-58094D01*
X56722Y-58080D01*
X57795Y-58080D01*
X57889Y-58061D01*
X57969Y-58008D01*
X58049Y-57927D01*
X58066Y-57968D01*
X58113Y-58015D01*
X58175Y-58041D01*
X58241Y-58041D01*
X58303Y-58015D01*
X58350Y-57968D01*
X58375Y-57907D01*
X58375Y-57864D01*
X64478Y-57864D01*
X64478Y-57155D01*
X65639Y-57155D01*
X65639Y-59498D01*
X65639Y-59498D01*
G37*
X65639Y-59498D02*
X65561Y-59498D01*
X65561Y-59140D01*
X65535Y-59078D01*
X65488Y-59031D01*
X65427Y-59005D01*
X65360Y-59005D01*
X65299Y-59031D01*
X65251Y-59078D01*
X65226Y-59139D01*
X65226Y-59206D01*
X65251Y-59267D01*
X65298Y-59314D01*
X65360Y-59340D01*
X65426Y-59340D01*
X65488Y-59315D01*
X65535Y-59268D01*
X65560Y-59206D01*
X65561Y-59140D01*
X65561Y-59498D01*
X65147Y-59498D01*
X65147Y-59238D01*
X65122Y-59176D01*
X65075Y-59129D01*
X65013Y-59104D01*
X64947Y-59104D01*
X64885Y-59129D01*
X64838Y-59176D01*
X64813Y-59238D01*
X64812Y-59304D01*
X64838Y-59366D01*
X64885Y-59413D01*
X64946Y-59438D01*
X65013Y-59439D01*
X65074Y-59413D01*
X65122Y-59366D01*
X65147Y-59305D01*
X65147Y-59238D01*
X65147Y-59498D01*
X64372Y-59498D01*
X64324Y-59478D01*
X64258Y-59478D01*
X64210Y-59498D01*
X63978Y-59498D01*
X63931Y-59478D01*
X63864Y-59478D01*
X63816Y-59498D01*
X63348Y-59498D01*
X63301Y-59478D01*
X63234Y-59478D01*
X63186Y-59498D01*
X63080Y-59498D01*
X63080Y-59195D01*
X63080Y-58525D01*
X63052Y-58457D01*
X62999Y-58404D01*
X62931Y-58376D01*
X62856Y-58375D01*
X62787Y-58404D01*
X62735Y-58456D01*
X62716Y-58502D01*
X62698Y-58457D01*
X62645Y-58404D01*
X62576Y-58376D01*
X62502Y-58375D01*
X62433Y-58404D01*
X62380Y-58456D01*
X62352Y-58525D01*
X62352Y-58600D01*
X62380Y-58668D01*
X62433Y-58721D01*
X62502Y-58749D01*
X62576Y-58750D01*
X62645Y-58721D01*
X62697Y-58669D01*
X62716Y-58623D01*
X62735Y-58668D01*
X62787Y-58721D01*
X62856Y-58749D01*
X62930Y-58750D01*
X62999Y-58721D01*
X63052Y-58669D01*
X63080Y-58600D01*
X63080Y-58525D01*
X63080Y-59195D01*
X63052Y-59126D01*
X62999Y-59073D01*
X62931Y-59045D01*
X62856Y-59045D01*
X62787Y-59073D01*
X62735Y-59126D01*
X62716Y-59171D01*
X62698Y-59126D01*
X62645Y-59073D01*
X62576Y-59045D01*
X62502Y-59045D01*
X62433Y-59073D01*
X62380Y-59126D01*
X62352Y-59194D01*
X62352Y-59269D01*
X62380Y-59338D01*
X62433Y-59390D01*
X62502Y-59419D01*
X62576Y-59419D01*
X62645Y-59390D01*
X62697Y-59338D01*
X62716Y-59293D01*
X62735Y-59338D01*
X62787Y-59390D01*
X62856Y-59419D01*
X62930Y-59419D01*
X62999Y-59390D01*
X63052Y-59338D01*
X63080Y-59269D01*
X63080Y-59195D01*
X63080Y-59498D01*
X61604Y-59498D01*
X61604Y-58273D01*
X61578Y-58212D01*
X61531Y-58165D01*
X61470Y-58139D01*
X61403Y-58139D01*
X61342Y-58165D01*
X61309Y-58198D01*
X61276Y-58165D01*
X61214Y-58139D01*
X61147Y-58139D01*
X61086Y-58165D01*
X61039Y-58212D01*
X61013Y-58273D01*
X61013Y-58340D01*
X61039Y-58401D01*
X61086Y-58448D01*
X61147Y-58474D01*
X61214Y-58474D01*
X61275Y-58449D01*
X61309Y-58415D01*
X61342Y-58448D01*
X61403Y-58474D01*
X61470Y-58474D01*
X61531Y-58449D01*
X61578Y-58401D01*
X61604Y-58340D01*
X61604Y-58273D01*
X61604Y-59498D01*
X60809Y-59498D01*
X60761Y-59478D01*
X60695Y-59478D01*
X60647Y-59498D01*
X59955Y-59498D01*
X59970Y-59462D01*
X59970Y-59395D01*
X59945Y-59334D01*
X59898Y-59287D01*
X59836Y-59261D01*
X59770Y-59261D01*
X59708Y-59287D01*
X59661Y-59334D01*
X59635Y-59395D01*
X59635Y-59462D01*
X59650Y-59498D01*
X58958Y-59498D01*
X58911Y-59478D01*
X58844Y-59478D01*
X58797Y-59498D01*
X56525Y-59498D01*
X56525Y-59002D01*
X56500Y-58940D01*
X56453Y-58893D01*
X56391Y-58868D01*
X56325Y-58868D01*
X56263Y-58893D01*
X56216Y-58940D01*
X56190Y-59002D01*
X56190Y-59068D01*
X56216Y-59130D01*
X56263Y-59177D01*
X56324Y-59202D01*
X56391Y-59202D01*
X56452Y-59177D01*
X56500Y-59130D01*
X56525Y-59068D01*
X56525Y-59002D01*
X56525Y-59498D01*
X55698Y-59498D01*
X55698Y-59002D01*
X55673Y-58940D01*
X55626Y-58893D01*
X55564Y-58868D01*
X55498Y-58868D01*
X55436Y-58893D01*
X55389Y-58940D01*
X55364Y-59002D01*
X55364Y-59068D01*
X55389Y-59130D01*
X55436Y-59177D01*
X55498Y-59202D01*
X55564Y-59202D01*
X55626Y-59177D01*
X55673Y-59130D01*
X55698Y-59068D01*
X55698Y-59002D01*
X55698Y-59498D01*
X55100Y-59498D01*
X55053Y-59478D01*
X54986Y-59478D01*
X54938Y-59498D01*
X54872Y-59498D01*
X54872Y-59002D01*
X54846Y-58940D01*
X54799Y-58893D01*
X54738Y-58868D01*
X54671Y-58868D01*
X54610Y-58893D01*
X54562Y-58940D01*
X54537Y-59002D01*
X54537Y-59068D01*
X54562Y-59130D01*
X54609Y-59177D01*
X54671Y-59202D01*
X54737Y-59202D01*
X54799Y-59177D01*
X54846Y-59130D01*
X54872Y-59068D01*
X54872Y-59002D01*
X54872Y-59498D01*
X54255Y-59498D01*
X54261Y-59482D01*
X54261Y-59415D01*
X54236Y-59354D01*
X54189Y-59307D01*
X54127Y-59281D01*
X54124Y-59281D01*
X54124Y-59002D01*
X54098Y-58940D01*
X54094Y-58937D01*
X54098Y-58933D01*
X54123Y-58872D01*
X54124Y-58805D01*
X54098Y-58743D01*
X54051Y-58696D01*
X53990Y-58671D01*
X53923Y-58671D01*
X53862Y-58696D01*
X53814Y-58743D01*
X53789Y-58805D01*
X53789Y-58871D01*
X53814Y-58933D01*
X53818Y-58936D01*
X53814Y-58940D01*
X53789Y-59002D01*
X53789Y-59068D01*
X53814Y-59130D01*
X53861Y-59177D01*
X53923Y-59202D01*
X53989Y-59202D01*
X54051Y-59177D01*
X54098Y-59130D01*
X54123Y-59068D01*
X54124Y-59002D01*
X54124Y-59281D01*
X54061Y-59281D01*
X53999Y-59306D01*
X53952Y-59353D01*
X53927Y-59415D01*
X53927Y-59481D01*
X53933Y-59498D01*
X53376Y-59498D01*
X53376Y-59002D01*
X53350Y-58940D01*
X53346Y-58937D01*
X53350Y-58933D01*
X53375Y-58872D01*
X53376Y-58805D01*
X53350Y-58743D01*
X53346Y-58740D01*
X53350Y-58736D01*
X53375Y-58675D01*
X53376Y-58608D01*
X53350Y-58547D01*
X53346Y-58543D01*
X53350Y-58539D01*
X53375Y-58478D01*
X53376Y-58411D01*
X53350Y-58350D01*
X53303Y-58303D01*
X53242Y-58277D01*
X53175Y-58277D01*
X53114Y-58302D01*
X53066Y-58349D01*
X53041Y-58411D01*
X53041Y-58478D01*
X53066Y-58539D01*
X53070Y-58543D01*
X53066Y-58546D01*
X53041Y-58608D01*
X53041Y-58674D01*
X53066Y-58736D01*
X53070Y-58740D01*
X53066Y-58743D01*
X53041Y-58805D01*
X53041Y-58871D01*
X53066Y-58933D01*
X53070Y-58936D01*
X53066Y-58940D01*
X53041Y-59002D01*
X53041Y-59068D01*
X53066Y-59130D01*
X53113Y-59177D01*
X53175Y-59202D01*
X53241Y-59202D01*
X53303Y-59177D01*
X53350Y-59130D01*
X53375Y-59068D01*
X53376Y-59002D01*
X53376Y-59498D01*
X53250Y-59498D01*
X53202Y-59478D01*
X53136Y-59478D01*
X53088Y-59498D01*
X52765Y-59498D01*
X52765Y-59002D01*
X52740Y-58940D01*
X52693Y-58893D01*
X52631Y-58868D01*
X52565Y-58868D01*
X52503Y-58893D01*
X52480Y-58916D01*
X52470Y-58907D01*
X52503Y-58874D01*
X52529Y-58812D01*
X52529Y-58746D01*
X52504Y-58684D01*
X52457Y-58637D01*
X52395Y-58612D01*
X52329Y-58612D01*
X52267Y-58637D01*
X52220Y-58684D01*
X52194Y-58746D01*
X52194Y-58812D01*
X52220Y-58874D01*
X52253Y-58907D01*
X52220Y-58940D01*
X52194Y-59002D01*
X52194Y-59068D01*
X52220Y-59130D01*
X52267Y-59177D01*
X52328Y-59202D01*
X52395Y-59202D01*
X52456Y-59177D01*
X52480Y-59153D01*
X52503Y-59177D01*
X52564Y-59202D01*
X52631Y-59202D01*
X52693Y-59177D01*
X52740Y-59130D01*
X52765Y-59068D01*
X52765Y-59002D01*
X52765Y-59498D01*
X51289Y-59498D01*
X51289Y-59321D01*
X51302Y-59334D01*
X51364Y-59360D01*
X51430Y-59360D01*
X51492Y-59334D01*
X51539Y-59287D01*
X51564Y-59226D01*
X51564Y-59159D01*
X51539Y-59098D01*
X51492Y-59051D01*
X51431Y-59025D01*
X51364Y-59025D01*
X51302Y-59050D01*
X51289Y-59064D01*
X51289Y-57864D01*
X55999Y-57864D01*
X56012Y-57928D01*
X56066Y-58008D01*
X56145Y-58061D01*
X56231Y-58079D01*
X56216Y-58094D01*
X56190Y-58155D01*
X56190Y-58222D01*
X56216Y-58283D01*
X56220Y-58287D01*
X56216Y-58290D01*
X56190Y-58352D01*
X56190Y-58418D01*
X56216Y-58480D01*
X56263Y-58527D01*
X56324Y-58553D01*
X56391Y-58553D01*
X56452Y-58527D01*
X56476Y-58504D01*
X56499Y-58527D01*
X56561Y-58553D01*
X56627Y-58553D01*
X56689Y-58527D01*
X56736Y-58480D01*
X56761Y-58419D01*
X56761Y-58352D01*
X56736Y-58291D01*
X56732Y-58287D01*
X56736Y-58283D01*
X56761Y-58222D01*
X56761Y-58155D01*
X56736Y-58094D01*
X56722Y-58080D01*
X57795Y-58080D01*
X57889Y-58061D01*
X57969Y-58008D01*
X58049Y-57927D01*
X58066Y-57968D01*
X58113Y-58015D01*
X58175Y-58041D01*
X58241Y-58041D01*
X58303Y-58015D01*
X58350Y-57968D01*
X58375Y-57907D01*
X58375Y-57864D01*
X64478Y-57864D01*
X64478Y-57155D01*
X65639Y-57155D01*
X65639Y-59498D01*
M02*
