G04 (created by PCBNEW (2013-07-07 BZR 4022)-stable) date 27/11/2015 23:20:48*
%MOIN*%
G04 Gerber Fmt 3.4, Leading zero omitted, Abs format*
%FSLAX34Y34*%
G01*
G70*
G90*
G04 APERTURE LIST*
%ADD10C,0.00590551*%
%ADD11C,0.0077*%
G04 APERTURE END LIST*
G54D10*
G54D11*
X87559Y-44881D02*
X39291Y-44881D01*
X87559Y-62913D02*
X87559Y-44881D01*
X39291Y-62913D02*
X87559Y-62913D01*
X39291Y-44881D02*
X39291Y-62913D01*
X85590Y-46850D02*
X84724Y-46850D01*
X85590Y-60944D02*
X85590Y-46850D01*
X84724Y-60944D02*
X85590Y-60944D01*
X41259Y-60944D02*
X45118Y-60944D01*
X41259Y-46850D02*
X41259Y-60944D01*
X45118Y-46850D02*
X41259Y-46850D01*
X67480Y-46850D02*
X83700Y-46850D01*
X46141Y-46850D02*
X66456Y-46850D01*
X67480Y-60944D02*
X83700Y-60944D01*
X46141Y-60944D02*
X66456Y-60944D01*
X46141Y-60000D02*
X46141Y-60944D01*
X45118Y-60000D02*
X45118Y-60944D01*
X45118Y-46850D02*
X45118Y-47716D01*
X42125Y-47716D02*
X42125Y-60000D01*
X84724Y-60000D02*
X42125Y-60000D01*
X84724Y-47716D02*
X84724Y-60000D01*
X42125Y-47716D02*
X84724Y-47716D01*
X66456Y-60000D02*
X66456Y-60944D01*
X67480Y-60000D02*
X67480Y-60944D01*
X83700Y-60000D02*
X83700Y-60944D01*
X84724Y-60000D02*
X84724Y-60944D01*
X66456Y-46850D02*
X66456Y-47716D01*
X83700Y-46850D02*
X83700Y-47716D01*
X67480Y-47716D02*
X67480Y-46850D01*
X84724Y-47716D02*
X84724Y-46850D01*
X46141Y-46850D02*
X46141Y-47716D01*
M02*
