G04 (created by PCBNEW (2013-07-07 BZR 4022)-stable) date 10/02/2015 04:29:17*
%MOIN*%
G04 Gerber Fmt 3.4, Leading zero omitted, Abs format*
%FSLAX34Y34*%
G01*
G70*
G90*
G04 APERTURE LIST*
%ADD10C,0.00590551*%
%ADD11C,0.011811*%
%ADD12C,0.019685*%
%ADD13R,0.0392X0.0392*%
%ADD14R,0.023622X0.0344488*%
%ADD15R,0.015748X0.0344488*%
%ADD16R,0.0393701X0.0748031*%
%ADD17R,0.0645669X0.0291118*%
%ADD18R,0.0291118X0.0645669*%
%ADD19C,0.0220472*%
%ADD20C,0.019685*%
%ADD21R,0.0314X0.0314*%
%ADD22R,0.126X0.05*%
%ADD23R,0.0393701X0.0393701*%
%ADD24R,0.0866142X0.0413386*%
%ADD25R,0.063637X0.063637*%
%ADD26C,0.063637*%
%ADD27C,0.23622*%
%ADD28R,0.0811024X0.0181102*%
%ADD29C,0.023622*%
%ADD30R,0.0122047X0.0496063*%
%ADD31R,0.0496063X0.0122047*%
%ADD32C,0.0393701*%
%ADD33R,0.0633858X0.0122047*%
%ADD34R,0.0122047X0.0633858*%
%ADD35R,0.317323X0.317323*%
%ADD36R,0.199213X0.199213*%
%ADD37O,0.0122047X0.0633858*%
%ADD38R,0.0273X0.0273*%
%ADD39R,0.0392X0.0353*%
%ADD40R,0.0253X0.0273*%
%ADD41R,0.0273X0.0253*%
%ADD42C,0.216535*%
%ADD43C,0.0708661*%
%ADD44C,0.0590551*%
%ADD45C,0.0984252*%
%ADD46C,0.145669*%
%ADD47C,0.0314961*%
%ADD48R,0.0393701X0.0610236*%
%ADD49R,0.0314961X0.0551181*%
%ADD50R,0.0570866X0.0393701*%
%ADD51R,0.0314961X0.0590551*%
%ADD52R,0.0590551X0.0590551*%
%ADD53R,0.0275591X0.0688976*%
%ADD54R,0.0511811X0.0590551*%
%ADD55R,0.0748031X0.0748031*%
%ADD56R,0.015748X0.0531496*%
%ADD57R,0.100394X0.0748031*%
%ADD58R,0.0787X0.0984*%
%ADD59R,0.0165354X0.023622*%
%ADD60R,0.053937X0.0208661*%
%ADD61C,0.0826772*%
%ADD62R,0.0692992X0.0180992*%
%ADD63R,0.0692992X0.0338992*%
%ADD64C,0.0496063*%
%ADD65C,0.0535433*%
%ADD66R,0.128299X0.0692992*%
%ADD67C,0.0944882*%
%ADD68C,0.0551181*%
%ADD69C,0.026378*%
%ADD70C,0.200787*%
%ADD71C,0.053937*%
%ADD72C,0.0354331*%
%ADD73R,0.0354331X0.011811*%
%ADD74R,0.011811X0.0354331*%
%ADD75O,0.0354331X0.011811*%
%ADD76R,0.0393701X0.0570866*%
%ADD77R,0.0866142X0.0669291*%
%ADD78O,0.401575X0.0669291*%
%ADD79R,0.0393701X0.163386*%
%ADD80R,0.05X0.126*%
%ADD81R,0.0492126X0.0299213*%
%ADD82C,0.0787402*%
%ADD83O,0.0590551X0.110236*%
%ADD84O,0.11811X0.0590551*%
%ADD85C,0.11811*%
%ADD86R,0.0811024X0.0811024*%
%ADD87O,0.0259843X0.0102362*%
%ADD88O,0.0102362X0.0259843*%
%ADD89R,0.258268X0.258268*%
%ADD90R,0.0102362X0.0259843*%
G04 APERTURE END LIST*
G54D10*
G54D11*
X73440Y-83192D02*
X73065Y-83192D01*
X73065Y-82405D01*
X73702Y-83192D02*
X73702Y-82667D01*
X73702Y-82405D02*
X73665Y-82442D01*
X73702Y-82480D01*
X73740Y-82442D01*
X73702Y-82405D01*
X73702Y-82480D01*
X74077Y-83192D02*
X74077Y-82667D01*
X74077Y-82742D02*
X74115Y-82705D01*
X74190Y-82667D01*
X74302Y-82667D01*
X74377Y-82705D01*
X74415Y-82780D01*
X74415Y-83192D01*
X74415Y-82780D02*
X74452Y-82705D01*
X74527Y-82667D01*
X74640Y-82667D01*
X74715Y-82705D01*
X74752Y-82780D01*
X74752Y-83192D01*
X75427Y-83155D02*
X75352Y-83192D01*
X75202Y-83192D01*
X75127Y-83155D01*
X75089Y-83080D01*
X75089Y-82780D01*
X75127Y-82705D01*
X75202Y-82667D01*
X75352Y-82667D01*
X75427Y-82705D01*
X75464Y-82780D01*
X75464Y-82855D01*
X75089Y-82930D01*
X76402Y-83192D02*
X76402Y-82405D01*
X76664Y-82967D01*
X76927Y-82405D01*
X76927Y-83192D01*
X77302Y-83192D02*
X77302Y-82667D01*
X77302Y-82405D02*
X77264Y-82442D01*
X77302Y-82480D01*
X77339Y-82442D01*
X77302Y-82405D01*
X77302Y-82480D01*
X78014Y-83155D02*
X77939Y-83192D01*
X77789Y-83192D01*
X77714Y-83155D01*
X77677Y-83117D01*
X77639Y-83042D01*
X77639Y-82817D01*
X77677Y-82742D01*
X77714Y-82705D01*
X77789Y-82667D01*
X77939Y-82667D01*
X78014Y-82705D01*
X78352Y-83192D02*
X78352Y-82667D01*
X78352Y-82817D02*
X78389Y-82742D01*
X78427Y-82705D01*
X78502Y-82667D01*
X78577Y-82667D01*
X78952Y-83192D02*
X78877Y-83155D01*
X78839Y-83117D01*
X78802Y-83042D01*
X78802Y-82817D01*
X78839Y-82742D01*
X78877Y-82705D01*
X78952Y-82667D01*
X79064Y-82667D01*
X79139Y-82705D01*
X79176Y-82742D01*
X79214Y-82817D01*
X79214Y-83042D01*
X79176Y-83117D01*
X79139Y-83155D01*
X79064Y-83192D01*
X78952Y-83192D01*
X79514Y-83155D02*
X79589Y-83192D01*
X79739Y-83192D01*
X79814Y-83155D01*
X79851Y-83080D01*
X79851Y-83042D01*
X79814Y-82967D01*
X79739Y-82930D01*
X79626Y-82930D01*
X79551Y-82892D01*
X79514Y-82817D01*
X79514Y-82780D01*
X79551Y-82705D01*
X79626Y-82667D01*
X79739Y-82667D01*
X79814Y-82705D01*
X80114Y-82667D02*
X80301Y-83192D01*
X80489Y-82667D02*
X80301Y-83192D01*
X80226Y-83380D01*
X80189Y-83417D01*
X80114Y-83455D01*
X80751Y-83155D02*
X80826Y-83192D01*
X80976Y-83192D01*
X81051Y-83155D01*
X81089Y-83080D01*
X81089Y-83042D01*
X81051Y-82967D01*
X80976Y-82930D01*
X80864Y-82930D01*
X80789Y-82892D01*
X80751Y-82817D01*
X80751Y-82780D01*
X80789Y-82705D01*
X80864Y-82667D01*
X80976Y-82667D01*
X81051Y-82705D01*
X81314Y-82667D02*
X81614Y-82667D01*
X81426Y-82405D02*
X81426Y-83080D01*
X81464Y-83155D01*
X81539Y-83192D01*
X81614Y-83192D01*
X82176Y-83155D02*
X82101Y-83192D01*
X81951Y-83192D01*
X81876Y-83155D01*
X81839Y-83080D01*
X81839Y-82780D01*
X81876Y-82705D01*
X81951Y-82667D01*
X82101Y-82667D01*
X82176Y-82705D01*
X82214Y-82780D01*
X82214Y-82855D01*
X81839Y-82930D01*
X82551Y-83192D02*
X82551Y-82667D01*
X82551Y-82742D02*
X82589Y-82705D01*
X82664Y-82667D01*
X82776Y-82667D01*
X82851Y-82705D01*
X82889Y-82780D01*
X82889Y-83192D01*
X82889Y-82780D02*
X82926Y-82705D01*
X83001Y-82667D01*
X83113Y-82667D01*
X83188Y-82705D01*
X83226Y-82780D01*
X83226Y-83192D01*
X83563Y-83155D02*
X83638Y-83192D01*
X83788Y-83192D01*
X83863Y-83155D01*
X83901Y-83080D01*
X83901Y-83042D01*
X83863Y-82967D01*
X83788Y-82930D01*
X83676Y-82930D01*
X83601Y-82892D01*
X83563Y-82817D01*
X83563Y-82780D01*
X83601Y-82705D01*
X83676Y-82667D01*
X83788Y-82667D01*
X83863Y-82705D01*
G54D12*
X75489Y-81996D02*
X75658Y-82052D01*
X75939Y-82052D01*
X76051Y-81996D01*
X76107Y-81940D01*
X76164Y-81827D01*
X76164Y-81715D01*
X76107Y-81602D01*
X76051Y-81546D01*
X75939Y-81490D01*
X75714Y-81434D01*
X75601Y-81377D01*
X75545Y-81321D01*
X75489Y-81209D01*
X75489Y-81096D01*
X75545Y-80984D01*
X75601Y-80928D01*
X75714Y-80871D01*
X75995Y-80871D01*
X76164Y-80928D01*
X76501Y-80871D02*
X77176Y-80871D01*
X76839Y-82052D02*
X76839Y-80871D01*
X78245Y-82052D02*
X77851Y-81490D01*
X77570Y-82052D02*
X77570Y-80871D01*
X78020Y-80871D01*
X78132Y-80928D01*
X78188Y-80984D01*
X78245Y-81096D01*
X78245Y-81265D01*
X78188Y-81377D01*
X78132Y-81434D01*
X78020Y-81490D01*
X77570Y-81490D01*
X78751Y-81434D02*
X79145Y-81434D01*
X79313Y-82052D02*
X78751Y-82052D01*
X78751Y-80871D01*
X79313Y-80871D01*
X79763Y-81715D02*
X80326Y-81715D01*
X79651Y-82052D02*
X80044Y-80871D01*
X80438Y-82052D01*
X80832Y-82052D02*
X80832Y-80871D01*
X81226Y-81715D01*
X81619Y-80871D01*
X81619Y-82052D01*
G54D13*
X67322Y-86220D03*
X115748Y-86220D03*
X115748Y-31889D03*
G54D14*
X97125Y-37849D03*
X97125Y-37505D03*
G54D15*
X97322Y-37505D03*
X97519Y-37505D03*
X97322Y-37849D03*
X97519Y-37849D03*
X96929Y-37849D03*
X96732Y-37849D03*
X96732Y-37505D03*
X96929Y-37505D03*
G54D16*
X86574Y-80393D03*
X87913Y-80393D03*
X96584Y-71978D03*
X97923Y-71978D03*
X103090Y-36023D03*
X104429Y-36023D03*
G54D17*
X88228Y-47045D03*
X88228Y-47545D03*
X88228Y-48045D03*
X88228Y-48545D03*
X90354Y-48545D03*
X90354Y-48045D03*
X90354Y-47545D03*
X90354Y-47045D03*
G54D18*
X89332Y-43582D03*
X88832Y-43582D03*
X88332Y-43582D03*
X87832Y-43582D03*
X87832Y-45708D03*
X88332Y-45708D03*
X88832Y-45708D03*
X89332Y-45708D03*
G54D19*
X85314Y-62716D03*
X85000Y-62716D03*
X84685Y-62716D03*
X86574Y-62716D03*
X86889Y-62716D03*
X87204Y-62716D03*
X86889Y-62401D03*
X86574Y-62401D03*
X84685Y-62401D03*
X85000Y-62401D03*
X85314Y-62401D03*
X85314Y-61771D03*
X85000Y-61771D03*
X84685Y-61771D03*
X86574Y-61771D03*
X86889Y-61771D03*
X87204Y-62086D03*
X86889Y-62086D03*
X86574Y-62086D03*
X85000Y-62086D03*
X85314Y-62086D03*
X85314Y-60826D03*
X85000Y-60826D03*
X86574Y-60826D03*
X86889Y-60826D03*
X87204Y-60826D03*
X85314Y-61141D03*
X85000Y-61141D03*
X84685Y-61141D03*
X86574Y-61141D03*
X86889Y-61141D03*
X87204Y-61456D03*
X86889Y-61456D03*
X86574Y-61456D03*
X85000Y-61456D03*
X85314Y-61456D03*
X85314Y-64291D03*
X85000Y-64291D03*
X84685Y-64291D03*
X86574Y-64291D03*
X86889Y-64291D03*
X87204Y-64291D03*
X87204Y-63976D03*
X86889Y-63976D03*
X86574Y-63976D03*
X84685Y-63976D03*
X85000Y-63976D03*
X85314Y-63976D03*
X85314Y-63031D03*
X85000Y-63031D03*
X84685Y-63031D03*
X86574Y-63031D03*
X86889Y-63031D03*
X87204Y-63031D03*
X87204Y-63346D03*
X86889Y-63346D03*
X86574Y-63346D03*
X84685Y-63346D03*
X85000Y-63346D03*
X85314Y-63346D03*
X85314Y-64606D03*
X85000Y-64606D03*
X84685Y-64606D03*
X86574Y-64606D03*
X86889Y-64606D03*
X87204Y-64606D03*
X87204Y-63661D03*
X86889Y-63661D03*
X86574Y-63661D03*
X84685Y-63661D03*
X85000Y-63661D03*
X85314Y-63661D03*
X85314Y-64921D03*
X85000Y-64921D03*
X84685Y-64921D03*
X86574Y-64921D03*
X86889Y-64921D03*
X87204Y-64921D03*
X87204Y-65236D03*
X86889Y-65236D03*
X86574Y-65236D03*
X84685Y-65236D03*
X85000Y-65236D03*
X85314Y-65236D03*
X86574Y-68858D03*
X86889Y-68858D03*
X87204Y-68858D03*
X85314Y-68858D03*
X85000Y-68858D03*
X84685Y-68858D03*
X85000Y-69173D03*
X85314Y-69173D03*
X87204Y-69173D03*
X86889Y-69173D03*
X86574Y-69173D03*
X86574Y-69803D03*
X86889Y-69803D03*
X87204Y-69803D03*
X85314Y-69803D03*
X85000Y-69803D03*
X84685Y-69488D03*
X85000Y-69488D03*
X85314Y-69488D03*
X86889Y-69488D03*
X86574Y-69488D03*
X86574Y-70748D03*
X86889Y-70748D03*
X85314Y-70748D03*
X85000Y-70748D03*
X84685Y-70748D03*
X86574Y-70433D03*
X86889Y-70433D03*
X87204Y-70433D03*
X85314Y-70433D03*
X85000Y-70433D03*
X84685Y-70118D03*
X85000Y-70118D03*
X85314Y-70118D03*
X86889Y-70118D03*
X86574Y-70118D03*
X86574Y-67283D03*
X86889Y-67283D03*
X87204Y-67283D03*
X85314Y-67283D03*
X85000Y-67283D03*
X84685Y-67283D03*
X84685Y-67598D03*
X85000Y-67598D03*
X85314Y-67598D03*
X87204Y-67598D03*
X86889Y-67598D03*
X86574Y-67598D03*
X86574Y-68543D03*
X86889Y-68543D03*
X87204Y-68543D03*
X85314Y-68543D03*
X85000Y-68543D03*
X84685Y-68543D03*
X84685Y-68228D03*
X85000Y-68228D03*
X85314Y-68228D03*
X87204Y-68228D03*
X86889Y-68228D03*
X86574Y-68228D03*
X86574Y-66968D03*
X86889Y-66968D03*
X87204Y-66968D03*
X85314Y-66968D03*
X85000Y-66968D03*
X84685Y-66968D03*
X84685Y-67913D03*
X85000Y-67913D03*
X85314Y-67913D03*
X87204Y-67913D03*
X86889Y-67913D03*
X86574Y-67913D03*
X86574Y-66653D03*
X86889Y-66653D03*
X87204Y-66653D03*
X85314Y-66653D03*
X85000Y-66653D03*
X84685Y-66653D03*
X84685Y-66338D03*
X85000Y-66338D03*
X85314Y-66338D03*
X87204Y-66338D03*
X86889Y-66338D03*
X86574Y-66338D03*
G54D20*
X92716Y-52391D03*
X92716Y-52076D03*
X92716Y-51761D03*
X92716Y-51446D03*
X92716Y-53966D03*
X92716Y-53651D03*
X92716Y-53336D03*
X92716Y-53021D03*
X94291Y-53021D03*
X94291Y-53336D03*
X94291Y-53651D03*
X94291Y-53966D03*
X94291Y-51446D03*
X94291Y-51761D03*
X94291Y-52076D03*
X94291Y-52391D03*
X93976Y-51131D03*
X93976Y-52706D03*
X93976Y-54281D03*
X93976Y-52391D03*
X93976Y-52076D03*
X93976Y-51761D03*
X93976Y-51446D03*
X93976Y-53966D03*
X93976Y-53651D03*
X93976Y-53336D03*
X93976Y-53021D03*
X93661Y-53021D03*
X93661Y-53336D03*
X93661Y-53651D03*
X93661Y-53966D03*
X93661Y-51446D03*
X93661Y-51761D03*
X93661Y-52076D03*
X93661Y-52391D03*
X93661Y-54281D03*
X93661Y-52706D03*
X93661Y-51131D03*
X93346Y-51131D03*
X93346Y-52706D03*
X93346Y-54281D03*
X93346Y-52391D03*
X93346Y-52076D03*
X93346Y-51761D03*
X93346Y-51446D03*
X93346Y-53966D03*
X93346Y-53651D03*
X93346Y-53336D03*
X93346Y-53021D03*
X93031Y-53021D03*
X93031Y-53336D03*
X93031Y-53651D03*
X93031Y-53966D03*
X93031Y-51446D03*
X93031Y-51761D03*
X93031Y-52076D03*
X93031Y-52391D03*
X93031Y-54281D03*
X93031Y-52706D03*
X93031Y-51131D03*
X94606Y-51131D03*
X94606Y-52706D03*
X94606Y-54281D03*
X94606Y-52391D03*
X94606Y-52076D03*
X94606Y-51761D03*
X94606Y-51446D03*
X94606Y-53966D03*
X94606Y-53651D03*
X94606Y-53336D03*
X94606Y-53021D03*
X94921Y-53021D03*
X94921Y-53336D03*
X94921Y-53651D03*
X94921Y-53966D03*
X94921Y-51446D03*
X94921Y-51761D03*
X94921Y-52076D03*
X94921Y-52391D03*
X94921Y-54281D03*
X94921Y-52706D03*
X94921Y-51131D03*
X95236Y-51131D03*
X95236Y-52706D03*
X95236Y-54281D03*
X95236Y-52391D03*
X95236Y-52076D03*
X95236Y-51761D03*
X95236Y-51446D03*
X95236Y-53966D03*
X95236Y-53651D03*
X95236Y-53336D03*
X95236Y-53021D03*
X95551Y-53021D03*
X95551Y-53336D03*
X95551Y-53651D03*
X95551Y-53966D03*
X95551Y-51446D03*
X95551Y-51761D03*
X95551Y-52076D03*
X95551Y-52391D03*
X95551Y-54281D03*
X95551Y-52706D03*
X95551Y-51131D03*
X95866Y-51131D03*
X95866Y-52706D03*
X95866Y-54281D03*
X92716Y-51131D03*
X92716Y-52706D03*
X92716Y-54281D03*
X94291Y-54281D03*
X94291Y-52706D03*
X94291Y-51131D03*
X95866Y-52391D03*
X95866Y-52076D03*
X95866Y-51761D03*
X95866Y-51446D03*
X95866Y-53966D03*
X95866Y-53651D03*
X95866Y-53336D03*
X95866Y-53021D03*
G54D21*
X106165Y-35362D03*
X106165Y-35992D03*
X105346Y-35366D03*
X105346Y-35996D03*
X71281Y-50565D03*
X71281Y-49935D03*
X106988Y-35364D03*
X106988Y-35994D03*
X107086Y-72381D03*
X107086Y-73011D03*
X106377Y-72381D03*
X106377Y-73011D03*
G54D22*
X100433Y-63139D03*
X100433Y-64139D03*
X100433Y-65139D03*
X100433Y-66139D03*
X100433Y-67139D03*
X102402Y-63139D03*
X102402Y-64139D03*
X102402Y-65139D03*
X102402Y-66139D03*
X102402Y-67139D03*
G54D23*
X71062Y-57834D03*
X72244Y-57834D03*
G54D24*
X71653Y-57253D03*
X71653Y-58415D03*
G54D21*
X71377Y-59685D03*
X71377Y-60315D03*
G54D25*
X108083Y-35511D03*
G54D26*
X109083Y-35511D03*
G54D27*
X111732Y-82283D03*
X111732Y-36141D03*
X71220Y-36141D03*
X71220Y-82283D03*
G54D28*
X73188Y-66751D03*
X73188Y-66948D03*
X73188Y-67145D03*
X73188Y-67342D03*
X73188Y-67539D03*
X73188Y-67736D03*
X73188Y-67933D03*
X73188Y-68129D03*
X73188Y-68326D03*
X73188Y-68523D03*
X73188Y-66555D03*
X73188Y-66358D03*
X73188Y-66161D03*
X73188Y-65964D03*
X73188Y-65767D03*
X73188Y-65570D03*
X73188Y-65374D03*
X73188Y-65177D03*
X73188Y-64980D03*
G54D29*
X78838Y-71948D03*
X78838Y-71476D03*
X79192Y-71476D03*
X79192Y-71948D03*
X79015Y-71712D03*
G54D30*
X102303Y-74212D03*
X102893Y-74212D03*
X102696Y-74212D03*
X102500Y-74212D03*
G54D31*
X101771Y-73287D03*
X101771Y-73484D03*
X101771Y-73681D03*
X101771Y-71909D03*
X101771Y-72106D03*
X101771Y-72303D03*
X101771Y-72500D03*
X101771Y-72696D03*
X101771Y-72893D03*
X101771Y-73090D03*
G54D30*
X103090Y-74212D03*
X103287Y-74212D03*
X103484Y-74212D03*
X103681Y-74212D03*
X103877Y-74212D03*
X104074Y-74212D03*
X104271Y-74212D03*
X104468Y-74212D03*
G54D31*
X105000Y-72500D03*
X105000Y-72303D03*
X105000Y-72106D03*
X105000Y-71909D03*
X105000Y-71712D03*
X105000Y-71515D03*
X105000Y-73681D03*
X105000Y-73484D03*
X105000Y-73287D03*
X105000Y-73090D03*
X105000Y-72893D03*
X105000Y-72696D03*
X101771Y-71712D03*
X101771Y-71515D03*
G54D30*
X104468Y-70984D03*
X104271Y-70984D03*
X104074Y-70984D03*
X103877Y-70984D03*
X103681Y-70984D03*
X103484Y-70984D03*
X103287Y-70984D03*
X103090Y-70984D03*
X102893Y-70984D03*
X102696Y-70984D03*
X102500Y-70984D03*
X102303Y-70984D03*
G54D32*
X95590Y-54881D03*
G54D33*
X87145Y-50787D03*
X87145Y-50984D03*
G54D34*
X86417Y-54468D03*
X86220Y-54468D03*
G54D33*
X82736Y-53740D03*
X82736Y-53543D03*
G54D34*
X83464Y-50059D03*
X83661Y-50059D03*
G54D35*
X84940Y-52263D03*
G54D36*
X84941Y-52263D03*
G54D33*
X82736Y-51771D03*
X82736Y-51968D03*
X82736Y-52165D03*
X82736Y-52362D03*
X82736Y-52559D03*
X82736Y-52755D03*
X82736Y-52952D03*
X82736Y-53149D03*
X82736Y-53346D03*
X82736Y-50787D03*
X82736Y-50984D03*
X82736Y-51181D03*
X82736Y-51377D03*
X82736Y-51574D03*
G54D34*
X85433Y-54468D03*
X85629Y-54468D03*
X85826Y-54468D03*
X86023Y-54468D03*
X83464Y-54468D03*
X83661Y-54468D03*
X83858Y-54468D03*
X84055Y-54468D03*
X84251Y-54468D03*
X84448Y-54468D03*
X84645Y-54468D03*
X84842Y-54468D03*
X85039Y-54468D03*
X85236Y-54468D03*
G54D33*
X87145Y-52165D03*
X87145Y-51968D03*
X87145Y-51771D03*
X87145Y-51574D03*
X87145Y-51377D03*
X87145Y-51181D03*
X87145Y-53740D03*
X87145Y-53543D03*
X87145Y-53346D03*
X87145Y-53149D03*
X87145Y-52952D03*
X87145Y-52755D03*
X87145Y-52559D03*
X87145Y-52362D03*
G54D37*
X86417Y-50059D03*
G54D34*
X86220Y-50059D03*
X86023Y-50059D03*
X85826Y-50059D03*
X85629Y-50059D03*
X85433Y-50059D03*
X85236Y-50059D03*
X85039Y-50059D03*
X84842Y-50059D03*
X84645Y-50059D03*
X84448Y-50059D03*
X84251Y-50059D03*
X84055Y-50059D03*
X83839Y-50056D03*
G54D38*
X93346Y-50000D03*
X93700Y-50000D03*
X93346Y-50334D03*
X93700Y-50334D03*
X97145Y-54291D03*
X97145Y-54645D03*
X93819Y-55944D03*
X94173Y-55944D03*
X81771Y-38551D03*
X81771Y-38197D03*
X90354Y-46437D03*
X90708Y-46437D03*
X102145Y-35748D03*
X102499Y-35748D03*
X96909Y-52391D03*
X96555Y-52391D03*
X92726Y-55817D03*
X92726Y-56171D03*
X95117Y-55059D03*
X94763Y-55059D03*
X96151Y-55059D03*
X96151Y-55413D03*
X94291Y-50344D03*
X94645Y-50344D03*
X91830Y-52382D03*
X91830Y-52736D03*
X91830Y-53405D03*
X91830Y-53051D03*
X92726Y-55068D03*
X92372Y-55068D03*
X97696Y-54291D03*
X97696Y-54645D03*
X95689Y-50039D03*
X96043Y-50039D03*
X95689Y-50344D03*
X96043Y-50344D03*
X90019Y-45708D03*
X90373Y-45708D03*
X91102Y-53130D03*
X91102Y-53484D03*
X94074Y-55059D03*
X94428Y-55059D03*
X94291Y-50019D03*
X94645Y-50019D03*
X91614Y-54665D03*
X91968Y-54665D03*
X91830Y-52027D03*
X91830Y-51673D03*
X91968Y-53956D03*
X91968Y-54310D03*
X96909Y-52706D03*
X96555Y-52706D03*
X96033Y-71742D03*
X95679Y-71742D03*
X87972Y-67598D03*
X88326Y-67598D03*
X87972Y-66968D03*
X88326Y-66968D03*
X87972Y-68228D03*
X88326Y-68228D03*
G54D39*
X88484Y-80392D03*
X88484Y-79962D03*
X81283Y-38545D03*
X81283Y-38115D03*
G54D40*
X101700Y-37421D03*
X101330Y-37421D03*
X76389Y-70236D03*
X76759Y-70236D03*
X74318Y-64980D03*
X73948Y-64980D03*
X71901Y-60314D03*
X72271Y-60314D03*
X89263Y-39881D03*
X89633Y-39881D03*
X79854Y-49070D03*
X80224Y-49070D03*
G54D41*
X84090Y-48562D03*
X84090Y-48192D03*
G54D40*
X79858Y-49527D03*
X80228Y-49527D03*
X88708Y-42834D03*
X88338Y-42834D03*
X90391Y-44980D03*
X90021Y-44980D03*
X90391Y-43572D03*
X90021Y-43572D03*
X87078Y-48051D03*
X87448Y-48051D03*
G54D41*
X91220Y-47177D03*
X91220Y-47547D03*
X91594Y-47177D03*
X91594Y-47547D03*
X102539Y-75283D03*
X102539Y-74913D03*
G54D40*
X77625Y-69803D03*
X77255Y-69803D03*
X77625Y-68937D03*
X77255Y-68937D03*
G54D41*
X103129Y-75283D03*
X103129Y-74913D03*
X102854Y-75283D03*
X102854Y-74913D03*
G54D40*
X77625Y-70236D03*
X77255Y-70236D03*
X77625Y-69370D03*
X77255Y-69370D03*
G54D41*
X91220Y-48043D03*
X91220Y-48413D03*
G54D40*
X102137Y-35314D03*
X102507Y-35314D03*
X106803Y-36496D03*
X107173Y-36496D03*
X99358Y-37431D03*
X98988Y-37431D03*
X105795Y-36496D03*
X106165Y-36496D03*
X100523Y-37431D03*
X100893Y-37431D03*
X104976Y-36500D03*
X105346Y-36500D03*
G54D41*
X102263Y-75283D03*
X102263Y-74913D03*
X106377Y-73846D03*
X106377Y-73476D03*
X107086Y-73846D03*
X107086Y-73476D03*
G54D40*
X103082Y-35157D03*
X103452Y-35157D03*
X97059Y-57913D03*
X97429Y-57913D03*
X97330Y-57027D03*
X96960Y-57027D03*
G54D41*
X71281Y-48946D03*
X71281Y-49316D03*
G54D40*
X96031Y-72106D03*
X95661Y-72106D03*
G54D41*
X82795Y-66704D03*
X82795Y-67074D03*
G54D40*
X80751Y-66913D03*
X80381Y-66913D03*
G54D41*
X78838Y-67074D03*
X78838Y-66704D03*
X97196Y-72811D03*
X97196Y-73181D03*
X87846Y-71862D03*
X87846Y-71492D03*
X96322Y-72811D03*
X96322Y-73181D03*
X89767Y-53224D03*
X89767Y-52854D03*
X89401Y-53220D03*
X89401Y-52850D03*
X95389Y-74196D03*
X95389Y-73826D03*
G54D40*
X101118Y-60877D03*
X100748Y-60877D03*
X100763Y-60145D03*
X101133Y-60145D03*
G54D41*
X95389Y-72811D03*
X95389Y-73181D03*
X86417Y-71862D03*
X86417Y-71492D03*
X97196Y-74208D03*
X97196Y-73838D03*
X87370Y-71862D03*
X87370Y-71492D03*
X86889Y-71862D03*
X86889Y-71492D03*
X96326Y-74196D03*
X96326Y-73826D03*
G54D42*
X100291Y-41531D03*
X85251Y-41531D03*
X100291Y-57279D03*
X85251Y-57279D03*
G54D22*
X103021Y-68750D03*
X103021Y-69750D03*
X104990Y-68750D03*
X104990Y-69750D03*
G54D43*
X71515Y-79417D03*
X70515Y-79417D03*
X72515Y-73496D03*
X71515Y-73496D03*
G54D44*
X77614Y-78854D03*
X77614Y-78055D03*
X77614Y-77255D03*
X77614Y-75657D03*
X77614Y-74858D03*
X77614Y-74059D03*
X76614Y-78454D03*
X76614Y-77655D03*
X76614Y-76856D03*
X76614Y-74458D03*
X76614Y-75257D03*
G54D45*
X74015Y-79921D03*
G54D46*
X74015Y-78356D03*
X74015Y-74557D03*
G54D45*
X74015Y-72992D03*
G54D44*
X76614Y-76057D03*
G54D43*
X70515Y-73496D03*
G54D47*
X72637Y-36850D03*
X112322Y-38543D03*
X109606Y-82598D03*
G54D13*
X67322Y-31889D03*
G54D40*
X76389Y-68937D03*
X76759Y-68937D03*
X76389Y-69370D03*
X76759Y-69370D03*
X76389Y-69803D03*
X76759Y-69803D03*
G54D48*
X96594Y-78425D03*
G54D49*
X96732Y-79379D03*
G54D50*
X92155Y-79094D03*
G54D51*
X92027Y-79635D03*
G54D52*
X96594Y-82627D03*
G54D53*
X94763Y-82677D03*
X95629Y-82677D03*
X95196Y-82677D03*
X93897Y-82677D03*
X94330Y-82677D03*
X93464Y-82677D03*
X93031Y-82677D03*
X92598Y-82677D03*
G54D54*
X92125Y-82627D03*
G54D55*
X101338Y-35314D03*
X100236Y-35314D03*
X99291Y-35314D03*
X98188Y-35314D03*
X97185Y-35314D03*
G54D56*
X97637Y-36377D03*
X97381Y-36377D03*
X96614Y-36377D03*
X96870Y-36377D03*
X97125Y-36377D03*
X100275Y-36377D03*
X100019Y-36377D03*
X99251Y-36377D03*
X99507Y-36377D03*
X99763Y-36377D03*
G54D57*
X96131Y-35314D03*
G54D58*
X76062Y-49055D03*
X74448Y-49055D03*
G54D59*
X73188Y-66003D03*
G54D41*
X70649Y-51464D03*
X70649Y-51094D03*
G54D40*
X103807Y-45767D03*
X103437Y-45767D03*
G54D21*
X70649Y-49940D03*
X70649Y-50570D03*
X104940Y-45767D03*
X104310Y-45767D03*
G54D60*
X109712Y-72629D03*
X112492Y-72629D03*
X109712Y-72881D03*
X112492Y-72881D03*
X109712Y-73133D03*
X112492Y-73133D03*
X109712Y-73385D03*
X112492Y-73385D03*
X109712Y-73637D03*
X112492Y-73637D03*
X109712Y-73889D03*
X112492Y-73889D03*
X109712Y-74141D03*
X112492Y-74141D03*
X109712Y-74393D03*
X112492Y-74393D03*
X109712Y-74645D03*
X112492Y-74645D03*
X109712Y-74897D03*
X112492Y-74897D03*
X109712Y-75149D03*
X112492Y-75149D03*
X109712Y-75401D03*
X112492Y-75401D03*
X109712Y-75653D03*
X112492Y-75653D03*
X109712Y-75905D03*
X112492Y-75905D03*
X109712Y-76157D03*
X112492Y-76157D03*
X109712Y-76409D03*
X112492Y-76409D03*
X109712Y-76661D03*
X112492Y-76661D03*
X109712Y-76913D03*
X112492Y-76913D03*
X109712Y-77165D03*
X112492Y-77165D03*
G54D61*
X111102Y-70381D03*
G54D62*
X101697Y-53877D03*
X101697Y-53680D03*
X101697Y-53483D03*
X101697Y-53286D03*
X101697Y-53090D03*
G54D63*
X101697Y-52794D03*
G54D62*
X101697Y-52499D03*
X101697Y-52302D03*
X101697Y-52105D03*
X101697Y-51908D03*
X101697Y-51712D03*
X101697Y-51515D03*
X101697Y-51318D03*
X101697Y-51121D03*
X101697Y-50924D03*
X101697Y-50727D03*
G54D63*
X101697Y-50432D03*
G54D62*
X101697Y-50137D03*
X101697Y-49940D03*
X101697Y-49743D03*
X101697Y-49546D03*
X101697Y-49349D03*
X101697Y-49153D03*
X101697Y-48956D03*
X101697Y-48759D03*
X101697Y-48562D03*
X101697Y-48365D03*
G54D63*
X101697Y-48069D03*
G54D62*
X101697Y-47775D03*
X101697Y-47578D03*
X101697Y-47381D03*
X101697Y-47184D03*
X101697Y-46987D03*
X101697Y-46790D03*
X101697Y-46594D03*
X101697Y-46397D03*
X101697Y-46200D03*
X101697Y-46003D03*
G54D63*
X101697Y-45707D03*
G54D62*
X101697Y-45412D03*
X101697Y-45216D03*
X101697Y-45019D03*
X101697Y-44822D03*
X101697Y-44625D03*
X99295Y-44623D03*
X99295Y-44820D03*
X99295Y-45017D03*
X99295Y-45214D03*
X99295Y-45410D03*
G54D63*
X99295Y-45705D03*
G54D62*
X99295Y-46001D03*
X99295Y-46198D03*
X99295Y-46395D03*
X99295Y-46592D03*
X99295Y-46788D03*
X99295Y-46985D03*
X99295Y-47182D03*
X99295Y-47379D03*
X99295Y-47576D03*
X99295Y-47773D03*
G54D63*
X99295Y-48068D03*
G54D62*
X99295Y-48364D03*
X99295Y-48561D03*
X99295Y-48758D03*
X99295Y-48955D03*
X99295Y-49151D03*
X99295Y-49348D03*
X99295Y-49545D03*
X99295Y-49742D03*
X99295Y-49939D03*
X99295Y-50136D03*
G54D63*
X99295Y-50431D03*
G54D62*
X99295Y-50727D03*
X99295Y-50924D03*
X99295Y-51121D03*
X99295Y-51318D03*
X99295Y-51514D03*
X99295Y-51711D03*
X99295Y-51908D03*
X99295Y-52105D03*
X99295Y-52302D03*
X99295Y-52499D03*
G54D63*
X99295Y-52794D03*
G54D62*
X99295Y-53090D03*
X99295Y-53286D03*
X99295Y-53483D03*
X99295Y-53680D03*
X99295Y-53877D03*
G54D64*
X100492Y-44054D03*
G54D65*
X100492Y-54448D03*
G54D66*
X100492Y-43365D03*
X100492Y-55137D03*
G54D67*
X106417Y-77755D03*
X104133Y-77755D03*
X106417Y-80511D03*
X104133Y-80511D03*
G54D68*
X105275Y-77952D03*
X105275Y-78740D03*
X105275Y-79527D03*
X105275Y-80314D03*
G54D67*
X101082Y-77755D03*
X98799Y-77755D03*
X101082Y-80511D03*
X98799Y-80511D03*
G54D68*
X99940Y-77952D03*
X99940Y-78740D03*
X99940Y-79527D03*
X99940Y-80314D03*
G54D69*
X97736Y-61712D03*
X97736Y-64074D03*
X97736Y-63681D03*
X97736Y-63287D03*
X97736Y-62893D03*
X97736Y-62500D03*
X97736Y-62106D03*
X98129Y-61712D03*
X98129Y-62106D03*
X98129Y-62500D03*
X98129Y-62893D03*
X98129Y-63287D03*
X98129Y-63681D03*
X98129Y-64074D03*
X98129Y-64468D03*
X98129Y-64862D03*
X98129Y-65255D03*
X98129Y-65649D03*
X98129Y-66043D03*
X98129Y-66437D03*
X98129Y-66830D03*
X98129Y-67224D03*
X98129Y-67618D03*
X98129Y-68011D03*
X98129Y-68405D03*
X98129Y-68799D03*
X98129Y-69192D03*
X98129Y-69586D03*
X98129Y-69980D03*
X97736Y-64468D03*
X97736Y-64862D03*
X97736Y-65255D03*
X97736Y-65649D03*
X97736Y-66043D03*
X97736Y-66437D03*
X97736Y-66830D03*
X97736Y-67224D03*
X97736Y-67618D03*
X97736Y-68011D03*
X97736Y-68405D03*
X97736Y-68799D03*
X97736Y-69192D03*
X97736Y-69586D03*
X97736Y-69980D03*
X97342Y-61712D03*
X97342Y-62106D03*
X97342Y-62500D03*
X97342Y-62893D03*
X97342Y-63287D03*
X97342Y-63681D03*
X97342Y-64074D03*
X97342Y-64468D03*
X97342Y-64862D03*
X97342Y-65255D03*
X97342Y-65649D03*
X97342Y-66043D03*
X97342Y-66437D03*
X97342Y-66830D03*
X97342Y-67224D03*
X97342Y-67618D03*
X97342Y-68011D03*
X97342Y-68405D03*
X97342Y-68799D03*
X97342Y-69192D03*
X97342Y-69586D03*
X97342Y-69980D03*
X96948Y-61712D03*
X96948Y-62106D03*
X96948Y-62500D03*
X96948Y-62893D03*
X96948Y-63287D03*
X96948Y-63681D03*
X96948Y-64074D03*
X96948Y-64468D03*
X96948Y-64862D03*
X96948Y-65255D03*
X96948Y-65649D03*
X96948Y-66043D03*
X96948Y-66437D03*
X96948Y-66830D03*
X96948Y-67224D03*
X96948Y-67618D03*
X96948Y-68011D03*
X96948Y-68405D03*
X96948Y-68799D03*
X96948Y-69192D03*
X96948Y-69586D03*
X96948Y-69980D03*
X96555Y-61712D03*
X96555Y-62106D03*
X96555Y-62500D03*
X96555Y-62893D03*
X96555Y-63287D03*
X96555Y-63681D03*
X96555Y-64074D03*
X96555Y-64468D03*
X96555Y-64862D03*
X96555Y-65255D03*
X96555Y-65649D03*
X96555Y-66043D03*
X96555Y-66437D03*
X96555Y-66830D03*
X96555Y-67224D03*
X96555Y-67618D03*
X96555Y-68011D03*
X96555Y-68405D03*
X96555Y-68799D03*
X96555Y-69192D03*
X96555Y-69586D03*
X96555Y-69980D03*
X96161Y-61712D03*
X96161Y-62106D03*
X96161Y-62500D03*
X96161Y-62893D03*
X96161Y-63287D03*
X96161Y-63681D03*
X96161Y-64074D03*
X96161Y-64468D03*
X96161Y-64862D03*
X96161Y-65255D03*
X96161Y-65649D03*
X96161Y-66043D03*
X96161Y-66437D03*
X96161Y-66830D03*
X96161Y-67224D03*
X96161Y-67618D03*
X96161Y-68011D03*
X96161Y-68405D03*
X96161Y-68799D03*
X96161Y-69192D03*
X96161Y-69586D03*
X96161Y-69980D03*
X95767Y-61712D03*
X95767Y-62106D03*
X95767Y-62500D03*
X95767Y-62893D03*
X95767Y-63287D03*
X95767Y-63681D03*
X95767Y-64074D03*
X95767Y-64468D03*
X95767Y-64862D03*
X95767Y-65255D03*
X95767Y-65649D03*
X95767Y-66043D03*
X95767Y-66437D03*
X95767Y-66830D03*
X95767Y-67224D03*
X95767Y-67618D03*
X95767Y-68011D03*
X95767Y-68405D03*
X95767Y-68799D03*
X95767Y-69192D03*
X95767Y-69586D03*
X95767Y-69980D03*
X95374Y-61712D03*
X95374Y-62106D03*
X95374Y-62500D03*
X95374Y-62893D03*
X95374Y-63287D03*
X95374Y-63681D03*
X95374Y-64074D03*
X95374Y-64468D03*
X95374Y-64862D03*
X95374Y-65255D03*
X95374Y-65649D03*
X95374Y-66043D03*
X95374Y-66437D03*
X95374Y-66830D03*
X95374Y-67224D03*
X95374Y-67618D03*
X95374Y-68011D03*
X95374Y-68405D03*
X95374Y-68799D03*
X95374Y-69192D03*
X95374Y-69586D03*
X95374Y-69980D03*
X94980Y-61712D03*
X94980Y-62106D03*
X94980Y-62500D03*
X94980Y-62893D03*
X94980Y-63287D03*
X94980Y-63681D03*
X94980Y-64074D03*
X94980Y-64468D03*
X94980Y-64862D03*
X94980Y-65255D03*
X94980Y-65649D03*
X94980Y-66043D03*
X94980Y-66437D03*
X94980Y-66830D03*
X94980Y-67224D03*
X94980Y-67618D03*
X94980Y-68011D03*
X94980Y-68405D03*
X94980Y-68799D03*
X94980Y-69192D03*
X94980Y-69586D03*
X94980Y-69980D03*
X94586Y-61712D03*
X94586Y-62106D03*
X94586Y-62500D03*
X94586Y-62893D03*
X94586Y-63287D03*
X94586Y-63681D03*
X94586Y-64074D03*
X94586Y-64468D03*
X94586Y-64862D03*
X94586Y-65255D03*
X94586Y-65649D03*
X94586Y-66043D03*
X94586Y-66437D03*
X94586Y-66830D03*
X94586Y-67224D03*
X94586Y-67618D03*
X94586Y-68011D03*
X94586Y-68405D03*
X94586Y-68799D03*
X94586Y-69192D03*
X94586Y-69586D03*
X94586Y-69980D03*
X94192Y-61712D03*
X94192Y-62106D03*
X94192Y-62500D03*
X94192Y-62893D03*
X94192Y-63287D03*
X94192Y-63681D03*
X94192Y-64074D03*
X94192Y-64468D03*
X94192Y-64862D03*
X94192Y-65255D03*
X94192Y-65649D03*
X94192Y-66043D03*
X94192Y-66437D03*
X94192Y-66830D03*
X94192Y-67224D03*
X94192Y-67618D03*
X94192Y-68011D03*
X94192Y-68405D03*
X94192Y-68799D03*
X94192Y-69192D03*
X94192Y-69586D03*
X94192Y-69980D03*
X93799Y-61712D03*
X93799Y-62106D03*
X93799Y-62500D03*
X93799Y-62893D03*
X93799Y-63287D03*
X93799Y-63681D03*
X93799Y-64074D03*
X93799Y-64468D03*
X93799Y-64862D03*
X93799Y-65255D03*
X93799Y-65649D03*
X93799Y-66043D03*
X93799Y-66437D03*
X93799Y-66830D03*
X93799Y-67224D03*
X93799Y-67618D03*
X93799Y-68011D03*
X93799Y-68405D03*
X93799Y-68799D03*
X93799Y-69192D03*
X93799Y-69586D03*
X93799Y-69980D03*
X93405Y-61712D03*
X93405Y-62106D03*
X93405Y-62500D03*
X93405Y-62893D03*
X93405Y-63287D03*
X93405Y-63681D03*
X93405Y-64074D03*
X93405Y-64468D03*
X93405Y-64862D03*
X93405Y-65255D03*
X93405Y-65649D03*
X93405Y-66043D03*
X93405Y-66437D03*
X93405Y-66830D03*
X93405Y-67224D03*
X93405Y-67618D03*
X93405Y-68011D03*
X93405Y-68405D03*
X93405Y-68799D03*
X93405Y-69192D03*
X93405Y-69586D03*
X93405Y-69980D03*
X93011Y-61712D03*
X93011Y-62106D03*
X93011Y-62500D03*
X93011Y-62893D03*
X93011Y-63287D03*
X93011Y-63681D03*
X93011Y-64074D03*
X93011Y-64468D03*
X93011Y-64862D03*
X93011Y-65255D03*
X93011Y-65649D03*
X93011Y-66043D03*
X93011Y-66437D03*
X93011Y-66830D03*
X93011Y-67224D03*
X93011Y-67618D03*
X93011Y-68011D03*
X93011Y-68405D03*
X93011Y-68799D03*
X93011Y-69192D03*
X93011Y-69586D03*
X93011Y-69980D03*
X92618Y-61712D03*
X92618Y-62106D03*
X92618Y-62500D03*
X92618Y-62893D03*
X92618Y-63287D03*
X92618Y-63681D03*
X92618Y-64074D03*
X92618Y-64468D03*
X92618Y-64862D03*
X92618Y-65255D03*
X92618Y-65649D03*
X92618Y-66043D03*
X92618Y-66437D03*
X92618Y-66830D03*
X92618Y-67224D03*
X92618Y-67618D03*
X92618Y-68011D03*
X92618Y-68405D03*
X92618Y-68799D03*
X92618Y-69192D03*
X92618Y-69586D03*
X92618Y-69980D03*
X92224Y-61712D03*
X92224Y-62106D03*
X92224Y-62500D03*
X92224Y-62893D03*
X92224Y-63287D03*
X92224Y-63681D03*
X92224Y-64074D03*
X92224Y-64468D03*
X92224Y-64862D03*
X92224Y-65255D03*
X92224Y-65649D03*
X92224Y-66043D03*
X92224Y-66437D03*
X92224Y-66830D03*
X92224Y-67224D03*
X92224Y-67618D03*
X92224Y-68011D03*
X92224Y-68405D03*
X92224Y-68799D03*
X92224Y-69192D03*
X92224Y-69586D03*
X92224Y-69980D03*
X91830Y-61712D03*
X91830Y-62106D03*
X91830Y-62500D03*
X91830Y-62893D03*
X91830Y-63287D03*
X91830Y-63681D03*
X91830Y-64074D03*
X91830Y-64468D03*
X91830Y-64862D03*
X91830Y-65255D03*
X91830Y-65649D03*
X91830Y-66043D03*
X91830Y-66437D03*
X91830Y-66830D03*
X91830Y-67224D03*
X91830Y-67618D03*
X91830Y-68011D03*
X91830Y-68405D03*
X91830Y-68799D03*
X91830Y-69192D03*
X91830Y-69586D03*
X91830Y-69980D03*
X91437Y-61712D03*
X91437Y-62106D03*
X91437Y-62500D03*
X91437Y-62893D03*
X91437Y-63287D03*
X91437Y-63681D03*
X91437Y-64074D03*
X91437Y-64468D03*
X91437Y-64862D03*
X91437Y-65255D03*
X91437Y-65649D03*
X91437Y-66043D03*
X91437Y-66437D03*
X91437Y-66830D03*
X91437Y-67224D03*
X91437Y-67618D03*
X91437Y-68011D03*
X91437Y-68405D03*
X91437Y-68799D03*
X91437Y-69192D03*
X91437Y-69586D03*
X91437Y-69980D03*
X91043Y-61712D03*
X91043Y-62106D03*
X91043Y-62500D03*
X91043Y-62893D03*
X91043Y-63287D03*
X91043Y-63681D03*
X91043Y-64074D03*
X91043Y-64468D03*
X91043Y-64862D03*
X91043Y-65255D03*
X91043Y-65649D03*
X91043Y-66043D03*
X91043Y-66437D03*
X91043Y-66830D03*
X91043Y-67224D03*
X91043Y-67618D03*
X91043Y-68011D03*
X91043Y-68405D03*
X91043Y-68799D03*
X91043Y-69192D03*
X91043Y-69586D03*
X91043Y-69980D03*
X90649Y-61712D03*
X90649Y-62106D03*
X90649Y-62500D03*
X90649Y-62893D03*
X90649Y-63287D03*
X90649Y-63681D03*
X90649Y-64074D03*
X90649Y-64468D03*
X90649Y-64862D03*
X90649Y-65255D03*
X90649Y-65649D03*
X90649Y-66043D03*
X90649Y-66437D03*
X90649Y-66830D03*
X90649Y-67224D03*
X90649Y-67618D03*
X90649Y-68011D03*
X90649Y-68405D03*
X90649Y-68799D03*
X90649Y-69192D03*
X90649Y-69586D03*
X90649Y-69980D03*
X90255Y-61712D03*
X90255Y-62106D03*
X90255Y-62500D03*
X90255Y-62893D03*
X90255Y-63287D03*
X90255Y-63681D03*
X90255Y-64074D03*
X90255Y-64468D03*
X90255Y-64862D03*
X90255Y-65255D03*
X90255Y-65649D03*
X90255Y-66043D03*
X90255Y-66437D03*
X90255Y-66830D03*
X90255Y-67224D03*
X90255Y-67618D03*
X90255Y-68011D03*
X90255Y-68405D03*
X90255Y-68799D03*
X90255Y-69192D03*
X90255Y-69586D03*
X90255Y-69980D03*
X89862Y-61712D03*
X89862Y-62106D03*
X89862Y-62500D03*
X89862Y-62893D03*
X89862Y-63287D03*
X89862Y-63681D03*
X89862Y-64074D03*
X89862Y-64468D03*
X89862Y-64862D03*
X89862Y-65255D03*
X89862Y-65649D03*
X89862Y-66043D03*
X89862Y-66437D03*
X89862Y-66830D03*
X89862Y-67224D03*
X89862Y-67618D03*
X89862Y-68011D03*
X89862Y-68405D03*
X89862Y-68799D03*
X89862Y-69192D03*
X89862Y-69586D03*
X89862Y-69980D03*
G54D70*
X110787Y-40633D03*
G54D32*
X108750Y-62163D03*
G54D71*
X108799Y-63614D03*
G54D32*
X110750Y-62663D03*
X110750Y-62163D03*
X111250Y-62663D03*
X111250Y-62163D03*
X110750Y-59663D03*
X111250Y-59663D03*
X111250Y-59163D03*
X110750Y-59163D03*
X110750Y-58163D03*
X111250Y-58163D03*
X111250Y-58663D03*
X110750Y-58663D03*
X110750Y-60663D03*
X111250Y-60663D03*
X111250Y-60163D03*
X110750Y-60163D03*
X110750Y-61163D03*
X111250Y-61163D03*
X111250Y-61663D03*
X110750Y-61663D03*
X110750Y-53663D03*
X111250Y-53663D03*
X111250Y-53163D03*
X110750Y-53163D03*
X110750Y-52663D03*
X111250Y-52667D03*
X110750Y-51163D03*
X111250Y-51163D03*
X111250Y-50663D03*
X110750Y-50663D03*
X110750Y-51663D03*
X111250Y-51663D03*
X111250Y-52163D03*
X110750Y-52163D03*
X110750Y-55663D03*
X111250Y-55663D03*
X111250Y-55163D03*
X110750Y-55163D03*
X110750Y-54163D03*
X111250Y-54163D03*
X111250Y-54663D03*
X110750Y-54663D03*
X110750Y-56663D03*
X111250Y-56663D03*
X111250Y-56163D03*
X110750Y-56163D03*
X110750Y-57163D03*
X111250Y-57163D03*
X111250Y-57663D03*
X110750Y-57663D03*
X110750Y-48663D03*
X111250Y-48663D03*
X111250Y-48163D03*
X110750Y-48163D03*
X110750Y-47163D03*
X111250Y-47163D03*
X111250Y-47663D03*
X110750Y-47663D03*
X111250Y-49163D03*
X110750Y-49163D03*
X110750Y-49663D03*
X111250Y-49663D03*
X111250Y-50163D03*
X110750Y-50163D03*
X110750Y-45663D03*
X111250Y-45663D03*
X111250Y-45163D03*
X110750Y-45163D03*
X110750Y-44663D03*
X111250Y-44663D03*
X110750Y-43163D03*
X111250Y-43163D03*
X110750Y-43663D03*
X111250Y-43663D03*
X111250Y-44163D03*
X110750Y-44163D03*
X110750Y-46163D03*
X111250Y-46163D03*
X111250Y-46663D03*
X110750Y-46663D03*
X108750Y-46663D03*
X109250Y-46663D03*
X109250Y-46163D03*
X108750Y-46163D03*
X108750Y-44163D03*
X109250Y-44163D03*
X109250Y-43663D03*
X108750Y-43663D03*
X109250Y-43163D03*
X108750Y-43163D03*
X109250Y-44663D03*
X108750Y-44663D03*
X108750Y-45163D03*
X109250Y-45163D03*
X109250Y-45663D03*
X108750Y-45663D03*
X108750Y-50163D03*
X109250Y-50163D03*
X109250Y-49663D03*
X108750Y-49663D03*
X108750Y-49163D03*
X109250Y-49163D03*
X108750Y-47663D03*
X109250Y-47663D03*
X109250Y-47163D03*
X108750Y-47163D03*
X108750Y-48163D03*
X109250Y-48163D03*
X109250Y-48663D03*
X108750Y-48663D03*
X108750Y-57663D03*
X109250Y-57663D03*
X109250Y-57163D03*
X108750Y-57163D03*
X108750Y-56163D03*
X109250Y-56163D03*
X109250Y-56663D03*
X108750Y-56663D03*
X108750Y-54663D03*
X109250Y-54663D03*
X109250Y-54163D03*
X108750Y-54163D03*
X108750Y-55163D03*
X109250Y-55163D03*
X109250Y-55663D03*
X108750Y-55663D03*
X108750Y-52163D03*
X109250Y-52163D03*
X109250Y-51663D03*
X108750Y-51663D03*
X108750Y-50663D03*
X109250Y-50663D03*
X109250Y-51163D03*
X108750Y-51163D03*
X109250Y-52667D03*
X108750Y-52663D03*
X108750Y-53163D03*
X109250Y-53163D03*
X109250Y-53663D03*
X108750Y-53663D03*
X108750Y-61663D03*
X109250Y-61663D03*
X109250Y-61163D03*
X108750Y-61163D03*
X108750Y-60163D03*
X109250Y-60163D03*
X109250Y-60663D03*
X108750Y-60663D03*
X108750Y-58663D03*
X109250Y-58663D03*
X109250Y-58163D03*
X108750Y-58163D03*
X108750Y-59163D03*
X109250Y-59163D03*
X109250Y-59663D03*
X108750Y-59663D03*
X109250Y-62163D03*
X109250Y-62663D03*
X108750Y-62663D03*
G54D71*
X110000Y-42212D03*
G54D70*
X110787Y-65192D03*
G54D72*
X113149Y-57559D03*
X113149Y-58503D03*
X113149Y-58031D03*
X113149Y-78188D03*
X113149Y-78661D03*
X113149Y-79133D03*
X113149Y-77716D03*
X113149Y-38858D03*
X113149Y-40275D03*
X113149Y-39803D03*
X113149Y-39330D03*
X69842Y-58070D03*
X69842Y-58543D03*
X69842Y-57598D03*
X69842Y-77165D03*
X69842Y-78582D03*
X69842Y-78110D03*
X69842Y-77637D03*
X69842Y-39251D03*
X69842Y-39724D03*
X69842Y-40196D03*
X69842Y-38779D03*
X76299Y-83700D03*
X91299Y-83700D03*
X90826Y-83700D03*
X90354Y-83700D03*
X108228Y-83700D03*
X107755Y-83700D03*
X107283Y-83700D03*
X75354Y-83700D03*
X75826Y-83700D03*
X102047Y-34724D03*
X102519Y-34724D03*
X102992Y-34724D03*
X84763Y-34724D03*
X84291Y-34724D03*
X83818Y-34724D03*
G54D41*
X85909Y-49110D03*
X85909Y-48740D03*
X83602Y-48094D03*
X83602Y-48464D03*
G54D40*
X87007Y-49267D03*
X86637Y-49267D03*
G54D41*
X86220Y-49338D03*
X86220Y-48968D03*
G54D40*
X83397Y-48913D03*
X83027Y-48913D03*
G54D41*
X85618Y-48846D03*
X85618Y-48476D03*
X85216Y-48846D03*
X85216Y-48476D03*
G54D40*
X83846Y-55216D03*
X83476Y-55216D03*
X84224Y-55216D03*
X84594Y-55216D03*
X83393Y-49255D03*
X83023Y-49255D03*
G54D41*
X84787Y-48649D03*
X84787Y-48279D03*
X84429Y-48653D03*
X84429Y-48283D03*
G54D40*
X96960Y-57342D03*
X97330Y-57342D03*
G54D41*
X97066Y-58417D03*
X97066Y-58787D03*
G54D21*
X102795Y-60885D03*
X102165Y-60885D03*
X102795Y-60196D03*
X102165Y-60196D03*
G54D73*
X89740Y-51799D03*
X89740Y-51956D03*
G54D74*
X89622Y-51523D03*
X89464Y-51523D03*
X89307Y-51523D03*
G54D75*
X89188Y-51799D03*
G54D73*
X89188Y-51956D03*
G54D74*
X89307Y-52232D03*
X89464Y-52232D03*
X89622Y-52232D03*
G54D76*
X91047Y-54291D03*
X90338Y-54291D03*
G54D50*
X95196Y-49606D03*
X95196Y-48897D03*
G54D40*
X88858Y-71551D03*
X88488Y-71551D03*
X100748Y-61566D03*
X101118Y-61566D03*
G54D21*
X102795Y-61488D03*
X102165Y-61488D03*
X102188Y-36728D03*
X102188Y-37358D03*
G54D77*
X94228Y-36425D03*
X92929Y-35429D03*
G54D45*
X73251Y-42539D03*
X73251Y-44409D03*
X73251Y-46279D03*
G54D78*
X72244Y-47874D03*
X72244Y-40944D03*
G54D79*
X91513Y-35811D03*
X90513Y-35811D03*
X91513Y-38566D03*
X90513Y-38566D03*
X82513Y-38566D03*
X83513Y-38566D03*
X84513Y-38566D03*
X85513Y-38566D03*
X86513Y-38566D03*
X87513Y-38566D03*
X88513Y-38566D03*
X89513Y-38566D03*
X82513Y-35811D03*
X83513Y-35811D03*
X84513Y-35811D03*
X85513Y-35811D03*
X86513Y-35811D03*
X87513Y-35811D03*
X88513Y-35811D03*
X89513Y-35811D03*
G54D80*
X82824Y-68149D03*
X81824Y-68149D03*
X80824Y-68149D03*
X79824Y-68149D03*
X78824Y-68149D03*
X82824Y-70118D03*
X81824Y-70118D03*
X80824Y-70118D03*
X79824Y-70118D03*
X78824Y-70118D03*
G54D32*
X98543Y-59527D03*
X89842Y-59842D03*
X88110Y-65314D03*
G54D40*
X106232Y-47874D03*
X106602Y-47874D03*
X106232Y-48385D03*
X106602Y-48385D03*
G54D81*
X82329Y-71864D03*
X82329Y-72364D03*
X82329Y-72864D03*
X82329Y-73364D03*
X85008Y-71864D03*
X85008Y-72364D03*
X85008Y-72864D03*
X85008Y-73364D03*
G54D59*
X94744Y-59192D03*
X95000Y-59192D03*
X95255Y-59192D03*
X95255Y-58444D03*
X94744Y-58444D03*
X95000Y-58444D03*
G54D40*
X94598Y-59901D03*
X94968Y-59901D03*
X95641Y-58444D03*
X96011Y-58444D03*
G54D82*
X77145Y-35645D03*
G54D83*
X74803Y-38066D03*
X74803Y-36019D03*
X79488Y-36019D03*
G54D84*
X77145Y-37614D03*
G54D83*
X79488Y-38066D03*
G54D85*
X77145Y-40232D03*
G54D86*
X91643Y-73907D03*
X91643Y-72647D03*
X90383Y-72647D03*
G54D87*
X89498Y-74458D03*
X89498Y-74301D03*
G54D88*
X89832Y-71761D03*
X89994Y-71761D03*
G54D87*
X92529Y-72096D03*
X92529Y-72253D03*
G54D88*
X92194Y-74793D03*
X92037Y-74793D03*
G54D89*
X91012Y-73277D03*
G54D87*
X92529Y-73671D03*
X92529Y-73513D03*
X92529Y-73356D03*
X92529Y-73198D03*
X92529Y-73041D03*
X92529Y-72883D03*
X92529Y-72726D03*
X92529Y-72568D03*
X92529Y-72411D03*
X92529Y-74458D03*
X92529Y-74301D03*
X92529Y-74143D03*
X92529Y-73986D03*
X92529Y-73828D03*
G54D88*
X90620Y-71761D03*
X90462Y-71761D03*
X90305Y-71761D03*
X90147Y-71761D03*
X92194Y-71761D03*
X92037Y-71761D03*
X91879Y-71761D03*
X91722Y-71761D03*
X91564Y-71761D03*
X91407Y-71761D03*
X91250Y-71761D03*
X91092Y-71761D03*
X90935Y-71761D03*
X90777Y-71761D03*
G54D87*
X89498Y-73356D03*
X89498Y-73513D03*
X89498Y-73671D03*
X89498Y-73828D03*
X89498Y-73986D03*
X89498Y-74143D03*
X89498Y-72096D03*
X89498Y-72253D03*
X89498Y-72411D03*
X89498Y-72568D03*
X89498Y-72726D03*
X89498Y-72883D03*
X89498Y-73041D03*
X89498Y-73198D03*
G54D90*
X89832Y-74793D03*
G54D88*
X89990Y-74793D03*
X90147Y-74793D03*
X90305Y-74793D03*
X90462Y-74793D03*
X90620Y-74793D03*
X90777Y-74793D03*
X90935Y-74793D03*
X91092Y-74793D03*
X91250Y-74793D03*
X91407Y-74793D03*
X91564Y-74793D03*
X91722Y-74793D03*
X91879Y-74793D03*
G54D86*
X90383Y-73907D03*
G54D68*
X85708Y-82047D03*
X86496Y-82047D03*
X89645Y-82047D03*
X88858Y-82047D03*
X88070Y-82047D03*
X87283Y-82047D03*
M02*
