M48
;DRILL file {Pcbnew (2013-07-07 BZR 4022)-stable} date 10/02/2015 04:29:21
;FORMAT={-:-/ absolute / metric / decimal}
FMAT,2
METRIC,TZ
T1C0.900
T2C1.100
T3C1.200
T4C1.270
T5C2.000
%
G90
G05
M71
T1
X177.4Y-98.5
X177.4Y-99.7
X177.4Y-100.9
X177.4Y-102.1
X177.4Y-146.3
X177.4Y-147.5
X177.4Y-148.7
X177.4Y-196.
X177.4Y-197.2
X177.4Y-198.4
X177.4Y-199.6
X191.4Y-212.6
X192.6Y-212.6
X193.8Y-212.6
X212.9Y-88.2
X214.1Y-88.2
X215.3Y-88.2
X229.5Y-212.6
X230.7Y-212.6
X231.9Y-212.6
X259.2Y-88.2
X260.4Y-88.2
X261.6Y-88.2
X272.5Y-212.6
X273.7Y-212.6
X274.9Y-212.6
X287.4Y-98.7
X287.4Y-99.9
X287.4Y-101.1
X287.4Y-102.3
X287.4Y-146.2
X287.4Y-147.4
X287.4Y-148.6
X287.4Y-197.4
X287.4Y-198.6
X287.4Y-199.8
X287.4Y-201.
T2
X255.25Y-111.9
T3
X255.25Y-138.3
T4
X276.35Y-161.58
X279.4Y-107.22
T5
X195.95Y-90.54
X282.2Y-178.77
T0
M30
