G04 (created by PCBNEW (2013-07-07 BZR 4022)-stable) date 10/02/2015 04:29:17*
%MOIN*%
G04 Gerber Fmt 3.4, Leading zero omitted, Abs format*
%FSLAX34Y34*%
G01*
G70*
G90*
G04 APERTURE LIST*
%ADD10C,0.00590551*%
%ADD11C,0.019685*%
%ADD12R,0.0597X0.0597*%
%ADD13C,0.0597*%
%ADD14C,0.23622*%
%ADD15C,0.0787402*%
%ADD16C,0.216535*%
%ADD17C,0.0708661*%
%ADD18C,0.0590551*%
%ADD19C,0.0984252*%
%ADD20C,0.145669*%
%ADD21C,0.0393701*%
%ADD22C,0.0944882*%
%ADD23C,0.0551181*%
%ADD24C,0.015748*%
%ADD25C,0.19685*%
%ADD26O,0.401575X0.0669291*%
%ADD27O,0.0590551X0.110236*%
%ADD28O,0.11811X0.0590551*%
%ADD29C,0.11811*%
%ADD30C,0.00393701*%
%ADD31C,0.00787402*%
%ADD32C,0.011811*%
G04 APERTURE END LIST*
G54D10*
G54D11*
X71889Y-46692D03*
X71531Y-46232D03*
X71141Y-46692D03*
X71141Y-44566D03*
X71531Y-44106D03*
X71889Y-44566D03*
X71889Y-42480D03*
X71531Y-42019D03*
X71141Y-42480D03*
X71338Y-38818D03*
X71728Y-38358D03*
X72086Y-38818D03*
X73937Y-40000D03*
X73578Y-39539D03*
X73188Y-40000D03*
X73188Y-35669D03*
X73578Y-35208D03*
X73937Y-35669D03*
X73937Y-37007D03*
X73578Y-36547D03*
X73188Y-37007D03*
X73188Y-38346D03*
X73578Y-37885D03*
X73937Y-38346D03*
X104094Y-38602D03*
X104094Y-37874D03*
X104094Y-38248D03*
X103759Y-38248D03*
X103759Y-37874D03*
X103759Y-38602D03*
X103405Y-38602D03*
X103405Y-37874D03*
X103405Y-38248D03*
X103070Y-38248D03*
X103070Y-37874D03*
X103070Y-38602D03*
X105118Y-59055D03*
X105118Y-58208D03*
X105118Y-59921D03*
X107559Y-62185D03*
X88188Y-50925D03*
X88637Y-51200D03*
X93236Y-43653D03*
X92291Y-43653D03*
X94141Y-43653D03*
X94141Y-44716D03*
X94133Y-46673D03*
X94133Y-47303D03*
X92291Y-44716D03*
X84019Y-37181D03*
X85889Y-37185D03*
X79074Y-48307D03*
X78582Y-48307D03*
X78070Y-48307D03*
X77212Y-49850D03*
X77212Y-50598D03*
X77212Y-50244D03*
X76858Y-50244D03*
X76858Y-50598D03*
X76858Y-49850D03*
X76503Y-49850D03*
X76503Y-50598D03*
X76503Y-50244D03*
X75082Y-50236D03*
X75082Y-50590D03*
X75082Y-49842D03*
X74708Y-50236D03*
X74708Y-50590D03*
X74708Y-49842D03*
X75866Y-54866D03*
X76417Y-54866D03*
X76141Y-54866D03*
X76141Y-55141D03*
X76141Y-54590D03*
X76417Y-54590D03*
X76417Y-55141D03*
X75866Y-55141D03*
X71968Y-54688D03*
X71968Y-54314D03*
X71968Y-55062D03*
X72342Y-55062D03*
X72342Y-54314D03*
X72342Y-54688D03*
X75570Y-58307D03*
X75098Y-58307D03*
X77165Y-62637D03*
X106279Y-63129D03*
X105039Y-64330D03*
X79527Y-45216D03*
X80196Y-45216D03*
X79862Y-45216D03*
X79192Y-45511D03*
X79527Y-45511D03*
X78858Y-45511D03*
X78503Y-45511D03*
X77677Y-46456D03*
X78228Y-46456D03*
X78228Y-46791D03*
X77677Y-46791D03*
X84330Y-45570D03*
X78826Y-51507D03*
X79330Y-47696D03*
X78838Y-47696D03*
X78326Y-47696D03*
X77834Y-47696D03*
X76625Y-48897D03*
X77145Y-47933D03*
X77145Y-47381D03*
X77677Y-46122D03*
X78228Y-46122D03*
X76968Y-46791D03*
X79862Y-46673D03*
X86200Y-46437D03*
X86590Y-45976D03*
X86948Y-46437D03*
X85511Y-45964D03*
X84330Y-46082D03*
X80511Y-46358D03*
X80177Y-46358D03*
X80177Y-47480D03*
X80511Y-47480D03*
X74350Y-53287D03*
X74685Y-53011D03*
X74685Y-52736D03*
X74685Y-53287D03*
X75437Y-49842D03*
X75437Y-50590D03*
X75437Y-50236D03*
X98807Y-71535D03*
X104606Y-64507D03*
X105866Y-63523D03*
X105452Y-63897D03*
X107106Y-63976D03*
X104606Y-64783D03*
X106555Y-64527D03*
X105767Y-65354D03*
X106555Y-66259D03*
X103149Y-41929D03*
X103149Y-42322D03*
X103149Y-42716D03*
X103149Y-43503D03*
X103149Y-43110D03*
X103149Y-43897D03*
X103149Y-44291D03*
X102755Y-43897D03*
X102362Y-43897D03*
X102755Y-43110D03*
X102362Y-43110D03*
X102362Y-43503D03*
X102755Y-43503D03*
X102755Y-42716D03*
X102362Y-42716D03*
X102362Y-42322D03*
X102755Y-42322D03*
X102755Y-41929D03*
X102362Y-41929D03*
X103543Y-41929D03*
X103937Y-41929D03*
X103937Y-42322D03*
X103543Y-42322D03*
X103543Y-42716D03*
X103937Y-42716D03*
X103937Y-43503D03*
X103543Y-43503D03*
X103543Y-43110D03*
X103937Y-43110D03*
X103543Y-43897D03*
X103937Y-43897D03*
X103937Y-44291D03*
X103543Y-44291D03*
X107791Y-46889D03*
X101716Y-42334D03*
X106811Y-45925D03*
X106259Y-46570D03*
X93228Y-47303D03*
X93228Y-46673D03*
X93228Y-48051D03*
X92007Y-48051D03*
X100354Y-73759D03*
X101023Y-73759D03*
X97637Y-79586D03*
X97637Y-78129D03*
X97637Y-76830D03*
X95748Y-76830D03*
X95748Y-78129D03*
X93425Y-77618D03*
X92559Y-77618D03*
X92240Y-78448D03*
X92389Y-81149D03*
X96566Y-80759D03*
X95748Y-79586D03*
X96181Y-79114D03*
X74629Y-76291D03*
X75216Y-77602D03*
X75401Y-74960D03*
X87755Y-79665D03*
X87007Y-79665D03*
X86141Y-79665D03*
X82677Y-79665D03*
X83543Y-79665D03*
X85157Y-79665D03*
X84291Y-79665D03*
X79940Y-72677D03*
X79566Y-72677D03*
X78838Y-72677D03*
X79192Y-72677D03*
X109862Y-59429D03*
X110354Y-62401D03*
X110354Y-61633D03*
X109862Y-61870D03*
X109862Y-62401D03*
X108720Y-66259D03*
X107381Y-66259D03*
X104468Y-67500D03*
X103543Y-68129D03*
X102893Y-67933D03*
X99872Y-45964D03*
X81960Y-81755D03*
X81299Y-81830D03*
X83578Y-81799D03*
X82334Y-81755D03*
X102066Y-38602D03*
X102066Y-37874D03*
X102066Y-38248D03*
X102401Y-38248D03*
X102401Y-37874D03*
X102401Y-38602D03*
X102736Y-38602D03*
X102736Y-37874D03*
X102736Y-38248D03*
X104429Y-38248D03*
X104429Y-37874D03*
X104429Y-38602D03*
X103291Y-44980D03*
X106799Y-46555D03*
X83110Y-57618D03*
X82244Y-57618D03*
X82677Y-57145D03*
X103822Y-81342D03*
X93236Y-44716D03*
X86614Y-44429D03*
X86181Y-44901D03*
X87047Y-44901D03*
X85822Y-44440D03*
X86181Y-43759D03*
X86614Y-43287D03*
X87771Y-49980D03*
X85000Y-43287D03*
X84566Y-43759D03*
X85433Y-43759D03*
X85433Y-44901D03*
X85000Y-44429D03*
X86062Y-62027D03*
X86062Y-61043D03*
X86062Y-61594D03*
X82244Y-56555D03*
X83110Y-56555D03*
X83677Y-58188D03*
X83681Y-57141D03*
X82881Y-58212D03*
X88070Y-44901D03*
X92007Y-46673D03*
X91338Y-46673D03*
X87834Y-46437D03*
X89094Y-47578D03*
X87248Y-48700D03*
X88188Y-49704D03*
X87322Y-49704D03*
X96062Y-56948D03*
X99318Y-55787D03*
X101653Y-55413D03*
X102283Y-54685D03*
X99488Y-55413D03*
X100393Y-53444D03*
X100393Y-52696D03*
X100393Y-51870D03*
X100393Y-50452D03*
X100393Y-49153D03*
X100393Y-47893D03*
X100393Y-47263D03*
X100393Y-45964D03*
X100472Y-45098D03*
X106141Y-45925D03*
X105354Y-45925D03*
X99566Y-43169D03*
X99566Y-44114D03*
X101574Y-43129D03*
X101574Y-44074D03*
X111259Y-38090D03*
X110826Y-38562D03*
X111692Y-38562D03*
X112755Y-52775D03*
X112755Y-51003D03*
X112755Y-47893D03*
X112755Y-49665D03*
X112755Y-43444D03*
X112755Y-41673D03*
X112755Y-44783D03*
X112755Y-46555D03*
X112755Y-58996D03*
X112755Y-57224D03*
X112755Y-54114D03*
X112755Y-55885D03*
X112755Y-62106D03*
X112755Y-60334D03*
X112755Y-63444D03*
X112755Y-65216D03*
X112755Y-66555D03*
X110826Y-66909D03*
X109015Y-66909D03*
X109881Y-66909D03*
X112086Y-70846D03*
X111653Y-71318D03*
X112519Y-71318D03*
X111338Y-78090D03*
X110472Y-78090D03*
X110905Y-77618D03*
X112007Y-78641D03*
X111574Y-79114D03*
X112440Y-79114D03*
X110314Y-79114D03*
X109811Y-79460D03*
X109881Y-78641D03*
X109881Y-80374D03*
X109448Y-80846D03*
X110314Y-80846D03*
X79192Y-72342D03*
X78838Y-72342D03*
X75881Y-81791D03*
X75688Y-82531D03*
X77169Y-81933D03*
X74440Y-80720D03*
X72909Y-80791D03*
X74724Y-81830D03*
X72795Y-76988D03*
X72669Y-77452D03*
X73228Y-77460D03*
X71000Y-78023D03*
X70748Y-77460D03*
X71181Y-76988D03*
X71181Y-74980D03*
X70748Y-75452D03*
X71566Y-74507D03*
X73228Y-75452D03*
X72641Y-75456D03*
X72732Y-74559D03*
X72834Y-70964D03*
X72401Y-71437D03*
X73267Y-71437D03*
X71653Y-71437D03*
X70787Y-71437D03*
X71220Y-70964D03*
X71181Y-68326D03*
X70748Y-68799D03*
X71614Y-68799D03*
X80362Y-81791D03*
X78468Y-81858D03*
X79468Y-81811D03*
X75598Y-79181D03*
X75448Y-76149D03*
X76625Y-49468D03*
X75570Y-58602D03*
X75098Y-58602D03*
X79862Y-47224D03*
X79862Y-45511D03*
X79862Y-46102D03*
X76417Y-46791D03*
X75570Y-58011D03*
X75098Y-58011D03*
X92047Y-74429D03*
X91692Y-74429D03*
X90984Y-74429D03*
X91338Y-74429D03*
X90629Y-74429D03*
X90275Y-74429D03*
X89921Y-74429D03*
X89921Y-74114D03*
X90275Y-74114D03*
X90629Y-74114D03*
X91338Y-74114D03*
X90984Y-74114D03*
X91692Y-74114D03*
X92047Y-74114D03*
X92047Y-73759D03*
X91692Y-73759D03*
X90984Y-73759D03*
X91338Y-73759D03*
X90629Y-73759D03*
X90275Y-73759D03*
X89921Y-73759D03*
X89921Y-73051D03*
X90275Y-73051D03*
X90629Y-73051D03*
X91338Y-73051D03*
X90984Y-73051D03*
X91692Y-73051D03*
X92047Y-73051D03*
X92047Y-73405D03*
X91692Y-73405D03*
X90984Y-73405D03*
X91338Y-73405D03*
X90629Y-73405D03*
X90275Y-73405D03*
X89921Y-73405D03*
X89921Y-72578D03*
X90275Y-72578D03*
X90629Y-72578D03*
X91338Y-72578D03*
X90984Y-72578D03*
X91692Y-72578D03*
X92047Y-72578D03*
X92047Y-72224D03*
X91692Y-72224D03*
X90984Y-72224D03*
X91338Y-72224D03*
X90629Y-72224D03*
X90275Y-72224D03*
X89921Y-72224D03*
X77165Y-62362D03*
X77165Y-62086D03*
X77204Y-61417D03*
X76771Y-61417D03*
X76771Y-61712D03*
X77204Y-61712D03*
X77204Y-61122D03*
X76771Y-61122D03*
X71594Y-54688D03*
X71594Y-54314D03*
X71594Y-55062D03*
X76149Y-50244D03*
X75795Y-50244D03*
X75795Y-50598D03*
X76149Y-50598D03*
X75795Y-49850D03*
X76149Y-49850D03*
X75866Y-54590D03*
X108307Y-58976D03*
X108307Y-59291D03*
X104330Y-44291D03*
X104724Y-44291D03*
X105511Y-44291D03*
X105118Y-44291D03*
X105905Y-44291D03*
X106299Y-44291D03*
X106692Y-44291D03*
X107086Y-44291D03*
X107086Y-43897D03*
X106692Y-43897D03*
X106299Y-43897D03*
X105905Y-43897D03*
X105118Y-43897D03*
X105511Y-43897D03*
X104724Y-43897D03*
X104330Y-43897D03*
X107086Y-43110D03*
X106692Y-43110D03*
X106299Y-43110D03*
X105905Y-43110D03*
X105118Y-43110D03*
X105511Y-43110D03*
X104724Y-43110D03*
X104330Y-43110D03*
X104330Y-43503D03*
X104724Y-43503D03*
X105511Y-43503D03*
X105118Y-43503D03*
X105905Y-43503D03*
X106299Y-43503D03*
X106692Y-43503D03*
X107086Y-43503D03*
X107086Y-42716D03*
X106692Y-42716D03*
X106299Y-42716D03*
X105905Y-42716D03*
X105118Y-42716D03*
X105511Y-42716D03*
X104724Y-42716D03*
X104330Y-42716D03*
X104330Y-42322D03*
X104724Y-42322D03*
X105511Y-42322D03*
X105118Y-42322D03*
X105905Y-42322D03*
X106299Y-42322D03*
X106692Y-42322D03*
X107086Y-42322D03*
X107086Y-41929D03*
X106692Y-41929D03*
X106299Y-41929D03*
X105905Y-41929D03*
X105118Y-41929D03*
X105511Y-41929D03*
X104724Y-41929D03*
G54D12*
X108083Y-35511D03*
G54D13*
X109083Y-35511D03*
G54D14*
X111732Y-82283D03*
X111732Y-36141D03*
X71220Y-36141D03*
X71220Y-82283D03*
G54D11*
X104330Y-41929D03*
G54D15*
X70885Y-63562D03*
X72814Y-63799D03*
X72814Y-69507D03*
X70885Y-69744D03*
G54D11*
X78838Y-71948D03*
X78838Y-71476D03*
X79192Y-71476D03*
X79192Y-71948D03*
X79015Y-71712D03*
X83661Y-53543D03*
X83661Y-53031D03*
X83661Y-52007D03*
X83661Y-52519D03*
X83661Y-51496D03*
X83661Y-50984D03*
X84173Y-51496D03*
X84173Y-52519D03*
X84173Y-52007D03*
X84173Y-53031D03*
X84173Y-53543D03*
X84173Y-50984D03*
X84685Y-53543D03*
X84685Y-53031D03*
X84685Y-52007D03*
X84685Y-52519D03*
X84685Y-51496D03*
X84685Y-50984D03*
X85196Y-51496D03*
X85196Y-52519D03*
X85196Y-52007D03*
X85196Y-53031D03*
X85196Y-53543D03*
X85196Y-50984D03*
X85708Y-53543D03*
X85708Y-53031D03*
X85708Y-52007D03*
X85708Y-52519D03*
X85708Y-51496D03*
X85708Y-50984D03*
X86220Y-50984D03*
X86220Y-51496D03*
X86220Y-52007D03*
X86220Y-53543D03*
X86220Y-53031D03*
X86220Y-52519D03*
G54D16*
X100291Y-41531D03*
X85251Y-41531D03*
X100291Y-57279D03*
X85251Y-57279D03*
G54D17*
X71515Y-79417D03*
X70515Y-79417D03*
X72515Y-73496D03*
X71515Y-73496D03*
G54D18*
X77614Y-78854D03*
X77614Y-78055D03*
X77614Y-77255D03*
X77614Y-75657D03*
X77614Y-74858D03*
X77614Y-74059D03*
X76614Y-78454D03*
X76614Y-77655D03*
X76614Y-76856D03*
X76614Y-74458D03*
X76614Y-75257D03*
G54D19*
X74015Y-79921D03*
G54D20*
X74015Y-78356D03*
X74015Y-74557D03*
G54D19*
X74015Y-72992D03*
G54D18*
X76614Y-76057D03*
G54D17*
X70515Y-73496D03*
G54D21*
X111102Y-72881D03*
X111102Y-73881D03*
X111102Y-74881D03*
X111102Y-75881D03*
X111102Y-76881D03*
G54D22*
X106417Y-77755D03*
X104133Y-77755D03*
X106417Y-80511D03*
X104133Y-80511D03*
G54D23*
X105275Y-77952D03*
X105275Y-78740D03*
X105275Y-79527D03*
X105275Y-80314D03*
G54D22*
X101082Y-77755D03*
X98799Y-77755D03*
X101082Y-80511D03*
X98799Y-80511D03*
G54D23*
X99940Y-77952D03*
X99940Y-78740D03*
X99940Y-79527D03*
X99940Y-80314D03*
G54D24*
X98326Y-61909D03*
X98326Y-62303D03*
X98326Y-62696D03*
X98326Y-63090D03*
X98326Y-63484D03*
X98326Y-63877D03*
X98326Y-64271D03*
X98326Y-64665D03*
X98326Y-65059D03*
X98326Y-65452D03*
X98326Y-65846D03*
X98326Y-66240D03*
X98326Y-66633D03*
X98326Y-67027D03*
X98326Y-68996D03*
X98326Y-69389D03*
X98326Y-69783D03*
X98326Y-70177D03*
X97933Y-61909D03*
X97933Y-62303D03*
X97933Y-62696D03*
X97933Y-63090D03*
X97933Y-63484D03*
X97933Y-63877D03*
X97933Y-64271D03*
X97933Y-64665D03*
X97933Y-65059D03*
X97933Y-65452D03*
X97933Y-65846D03*
X97933Y-66240D03*
X97933Y-66633D03*
X97933Y-67027D03*
X97933Y-68996D03*
X97933Y-69389D03*
X97933Y-69783D03*
X97933Y-70177D03*
X97539Y-61909D03*
X97539Y-62303D03*
X97539Y-62696D03*
X97539Y-63090D03*
X97539Y-63484D03*
X97539Y-63877D03*
X97539Y-64271D03*
X97539Y-64665D03*
X97539Y-65059D03*
X97539Y-65452D03*
X97539Y-65846D03*
X97539Y-66240D03*
X97539Y-66633D03*
X97539Y-67027D03*
X97539Y-67421D03*
X97539Y-67814D03*
X97539Y-68208D03*
X97539Y-68602D03*
X97539Y-68996D03*
X97539Y-69389D03*
X97539Y-69783D03*
X97539Y-70177D03*
X97145Y-61909D03*
X97145Y-62303D03*
X97145Y-62696D03*
X97145Y-63090D03*
X97145Y-63484D03*
X97145Y-63877D03*
X97145Y-64271D03*
X97145Y-64665D03*
X97145Y-65059D03*
X97145Y-65452D03*
X97145Y-65846D03*
X97145Y-66240D03*
X97145Y-66633D03*
X97145Y-67027D03*
X97145Y-67421D03*
X97145Y-67814D03*
X97145Y-68208D03*
X97145Y-68602D03*
X97145Y-68996D03*
X97145Y-69389D03*
X97145Y-69783D03*
X97145Y-70177D03*
X96751Y-61909D03*
X96751Y-62303D03*
X96751Y-62696D03*
X96751Y-63090D03*
X96751Y-63484D03*
X96751Y-63877D03*
X96751Y-64271D03*
X96751Y-64665D03*
X96751Y-65059D03*
X96751Y-65452D03*
X96751Y-65846D03*
X96751Y-66240D03*
X96751Y-66633D03*
X96751Y-67027D03*
X96751Y-67421D03*
X96751Y-67814D03*
X96751Y-68208D03*
X96751Y-68602D03*
X96751Y-68996D03*
X96751Y-69389D03*
X96751Y-69783D03*
X96751Y-70177D03*
X96358Y-61909D03*
X96358Y-62303D03*
X96358Y-62696D03*
X96358Y-63090D03*
X96358Y-63484D03*
X96358Y-63877D03*
X96358Y-64271D03*
X96358Y-64665D03*
X96358Y-65059D03*
X96358Y-65452D03*
X96358Y-65846D03*
X96358Y-66240D03*
X96358Y-66633D03*
X96358Y-67027D03*
X96358Y-67421D03*
X96358Y-67814D03*
X96358Y-68208D03*
X96358Y-68602D03*
X96358Y-68996D03*
X96358Y-69389D03*
X96358Y-69783D03*
X96358Y-70177D03*
X95964Y-61909D03*
X95964Y-62303D03*
X95964Y-62696D03*
X95964Y-63090D03*
X95964Y-63484D03*
X95964Y-63877D03*
X95964Y-64271D03*
X95964Y-64665D03*
X95964Y-65059D03*
X95964Y-65452D03*
X95964Y-65846D03*
X95964Y-66240D03*
X95964Y-66633D03*
X95964Y-67027D03*
X95964Y-67421D03*
X95964Y-67814D03*
X95964Y-68208D03*
X95964Y-68602D03*
X95964Y-68996D03*
X95964Y-69389D03*
X95964Y-69783D03*
X95964Y-70177D03*
X95570Y-61909D03*
X95570Y-62303D03*
X95570Y-62696D03*
X95570Y-63090D03*
X95570Y-63484D03*
X95570Y-63877D03*
X95570Y-64271D03*
X95570Y-64665D03*
X95570Y-65059D03*
X95570Y-65452D03*
X95570Y-65846D03*
X95570Y-66240D03*
X95570Y-66633D03*
X95570Y-67027D03*
X95570Y-67421D03*
X95570Y-67814D03*
X95570Y-68208D03*
X95570Y-68602D03*
X95570Y-68996D03*
X95570Y-69389D03*
X95570Y-69783D03*
X95570Y-70177D03*
X95177Y-61909D03*
X95177Y-62303D03*
X95177Y-62696D03*
X95177Y-63090D03*
X95177Y-63484D03*
X95177Y-63877D03*
X95177Y-64271D03*
X95177Y-64665D03*
X95177Y-65059D03*
X95177Y-65452D03*
X95177Y-65846D03*
X95177Y-66240D03*
X95177Y-66633D03*
X95177Y-67421D03*
X95177Y-67814D03*
X95177Y-68208D03*
X95177Y-68602D03*
X95177Y-68996D03*
X95177Y-69389D03*
X95177Y-69783D03*
X95177Y-70177D03*
X94783Y-61909D03*
X94783Y-62303D03*
X94783Y-62696D03*
X94783Y-63090D03*
X94783Y-63484D03*
X94783Y-63877D03*
X94783Y-64271D03*
X94783Y-64665D03*
X94783Y-65059D03*
X94783Y-65452D03*
X94783Y-65846D03*
X94783Y-66240D03*
X94783Y-66633D03*
X94783Y-67027D03*
X94783Y-68208D03*
X94783Y-68602D03*
X94783Y-68996D03*
X94783Y-69389D03*
X94783Y-69783D03*
X94783Y-70177D03*
X94389Y-61909D03*
X94389Y-62303D03*
X94389Y-62696D03*
X94389Y-63090D03*
X94389Y-63484D03*
X94389Y-63877D03*
X94389Y-64271D03*
X94389Y-64665D03*
X94389Y-65059D03*
X94389Y-65452D03*
X94389Y-65846D03*
X94389Y-66240D03*
X94389Y-66633D03*
X94389Y-67027D03*
X94389Y-67421D03*
X94389Y-67814D03*
X94389Y-68208D03*
X94389Y-68602D03*
X94389Y-68996D03*
X94389Y-69389D03*
X94389Y-69783D03*
X94389Y-70177D03*
X93996Y-61909D03*
X93996Y-62303D03*
X93996Y-62696D03*
X93996Y-63090D03*
X93996Y-63484D03*
X93996Y-63877D03*
X93996Y-64271D03*
X93996Y-64665D03*
X93996Y-65059D03*
X93996Y-65452D03*
X93996Y-65846D03*
X93996Y-66240D03*
X93996Y-66633D03*
X93996Y-67027D03*
X93996Y-67814D03*
X93996Y-68208D03*
X93996Y-68602D03*
X93996Y-68996D03*
X93996Y-69389D03*
X93996Y-69783D03*
X93996Y-70177D03*
X93602Y-61909D03*
X93602Y-62303D03*
X93602Y-62696D03*
X93602Y-63090D03*
X93602Y-63484D03*
X93602Y-63877D03*
X93602Y-64271D03*
X93602Y-64665D03*
X93602Y-65059D03*
X93602Y-65452D03*
X93602Y-65846D03*
X93602Y-66240D03*
X93602Y-66633D03*
X93602Y-67027D03*
X93602Y-67421D03*
X93602Y-67814D03*
X93602Y-68208D03*
X93602Y-68602D03*
X93602Y-68996D03*
X93602Y-69389D03*
X93602Y-69783D03*
X93602Y-70177D03*
X93208Y-61909D03*
X93208Y-62303D03*
X93208Y-62696D03*
X93208Y-63090D03*
X93208Y-63484D03*
X93208Y-63877D03*
X93208Y-64271D03*
X93208Y-64665D03*
X93208Y-65059D03*
X93208Y-65452D03*
X93208Y-65846D03*
X93208Y-66240D03*
X93208Y-66633D03*
X93208Y-67027D03*
X93208Y-67421D03*
X93208Y-67814D03*
X93208Y-68208D03*
X93208Y-68602D03*
X93208Y-68996D03*
X93208Y-69389D03*
X93208Y-69783D03*
X93208Y-70177D03*
X92814Y-61909D03*
X92814Y-62303D03*
X92814Y-62696D03*
X92814Y-63090D03*
X92814Y-63484D03*
X92814Y-63877D03*
X92814Y-64271D03*
X92814Y-65059D03*
X92814Y-65452D03*
X92814Y-65846D03*
X92814Y-66240D03*
X92814Y-66633D03*
X92814Y-67027D03*
X92814Y-67421D03*
X92814Y-67814D03*
X92814Y-68208D03*
X92814Y-68602D03*
X92814Y-68996D03*
X92814Y-69389D03*
X92814Y-69783D03*
X92814Y-70177D03*
X92421Y-61909D03*
X92421Y-62303D03*
X92421Y-62696D03*
X92421Y-63090D03*
X92421Y-63484D03*
X92421Y-63877D03*
X92421Y-64271D03*
X92421Y-64665D03*
X92421Y-65059D03*
X92421Y-65452D03*
X92421Y-65846D03*
X92421Y-66240D03*
X92421Y-66633D03*
X92421Y-67027D03*
X92421Y-67421D03*
X92421Y-67814D03*
X92421Y-68208D03*
X92421Y-68602D03*
X92421Y-68996D03*
X92421Y-69389D03*
X92421Y-69783D03*
X92421Y-70177D03*
X92027Y-61909D03*
X92027Y-62303D03*
X92027Y-62696D03*
X92027Y-63090D03*
X92027Y-63484D03*
X92027Y-63877D03*
X92027Y-64271D03*
X92027Y-64665D03*
X92027Y-65059D03*
X92027Y-65452D03*
X92027Y-65846D03*
X92027Y-66240D03*
X92027Y-66633D03*
X92027Y-67027D03*
X92027Y-67421D03*
X92027Y-67814D03*
X92027Y-68208D03*
X92027Y-68602D03*
X92027Y-68996D03*
X92027Y-69389D03*
X92027Y-69783D03*
X92027Y-70177D03*
X91633Y-61909D03*
X91633Y-62303D03*
X91633Y-62696D03*
X91633Y-63090D03*
X91633Y-63484D03*
X91633Y-63877D03*
X91633Y-64271D03*
X91633Y-64665D03*
X91633Y-65059D03*
X91633Y-65452D03*
X91633Y-65846D03*
X91633Y-66240D03*
X91633Y-66633D03*
X91633Y-67027D03*
X91633Y-67421D03*
X91633Y-67814D03*
X91633Y-68208D03*
X91633Y-68602D03*
X91633Y-68996D03*
X91633Y-69389D03*
X91633Y-69783D03*
X91633Y-70177D03*
X91240Y-61909D03*
X91240Y-62303D03*
X91240Y-62696D03*
X91240Y-63090D03*
X91240Y-63484D03*
X91240Y-63877D03*
X91240Y-64271D03*
X91240Y-64665D03*
X91240Y-65059D03*
X91240Y-65452D03*
X91240Y-65846D03*
X91240Y-66240D03*
X91240Y-66633D03*
X91240Y-67027D03*
X91240Y-67421D03*
X91240Y-67814D03*
X91240Y-68208D03*
X91240Y-68602D03*
X91240Y-68996D03*
X91240Y-69389D03*
X91240Y-69783D03*
X91240Y-70177D03*
X90846Y-61909D03*
X90846Y-62303D03*
X90846Y-62696D03*
X90846Y-63090D03*
X90846Y-63484D03*
X90846Y-63877D03*
X90846Y-64271D03*
X90846Y-64665D03*
X90846Y-65059D03*
X90846Y-65452D03*
X90846Y-65846D03*
X90846Y-66240D03*
X90846Y-66633D03*
X90846Y-67027D03*
X90846Y-67421D03*
X90846Y-67814D03*
X90846Y-68208D03*
X90846Y-68602D03*
X90846Y-68996D03*
X90846Y-69389D03*
X90846Y-69783D03*
X90846Y-70177D03*
X90452Y-61909D03*
X90452Y-62303D03*
X90452Y-62696D03*
X90452Y-63090D03*
X90452Y-63484D03*
X90452Y-63877D03*
X90452Y-64271D03*
X90452Y-64665D03*
X90452Y-65059D03*
X90452Y-65452D03*
X90452Y-65846D03*
X90452Y-66240D03*
X90452Y-66633D03*
X90452Y-67027D03*
X90452Y-67421D03*
X90452Y-67814D03*
X90452Y-68208D03*
X90452Y-68602D03*
X90452Y-68996D03*
X90452Y-69389D03*
X90452Y-69783D03*
X90452Y-70177D03*
X90059Y-61909D03*
X90059Y-62303D03*
X90059Y-62696D03*
X90059Y-63090D03*
X90059Y-63484D03*
X90059Y-63877D03*
X90059Y-64271D03*
X90059Y-64665D03*
X90059Y-65059D03*
X90059Y-65452D03*
X90059Y-65846D03*
X90059Y-66240D03*
X90059Y-66633D03*
X90059Y-67027D03*
X90059Y-67421D03*
X90059Y-67814D03*
X90059Y-68208D03*
X90059Y-68602D03*
X90059Y-68996D03*
X90059Y-69389D03*
X90059Y-69783D03*
X90059Y-70177D03*
G54D25*
X110787Y-40633D03*
X110787Y-65192D03*
G54D24*
X80102Y-44000D03*
X79866Y-44000D03*
X79629Y-44236D03*
X79629Y-44000D03*
X79629Y-44472D03*
X79866Y-44472D03*
X80102Y-44472D03*
X80102Y-44236D03*
X79866Y-44236D03*
X79629Y-43055D03*
X79866Y-43055D03*
X80102Y-43055D03*
X79866Y-43527D03*
X80102Y-43527D03*
X80102Y-43763D03*
X79866Y-43763D03*
X79629Y-43763D03*
X79629Y-43291D03*
X79629Y-43527D03*
X79866Y-43291D03*
X80102Y-43291D03*
X80102Y-42346D03*
X79866Y-42346D03*
X79629Y-42582D03*
X79629Y-42346D03*
X79629Y-42818D03*
X79866Y-42818D03*
X80102Y-42818D03*
X80102Y-42582D03*
X79866Y-42582D03*
X79866Y-41874D03*
X80102Y-41874D03*
X80102Y-42110D03*
X79866Y-42110D03*
X79629Y-42110D03*
X79629Y-41637D03*
X79629Y-41874D03*
X79866Y-41637D03*
X80102Y-41637D03*
G54D19*
X73251Y-42539D03*
X73251Y-44409D03*
X73251Y-46279D03*
G54D26*
X72244Y-47874D03*
X72244Y-40944D03*
G54D27*
X74803Y-38066D03*
X74803Y-36019D03*
X79488Y-36019D03*
G54D28*
X77145Y-37614D03*
G54D27*
X79488Y-38066D03*
G54D29*
X77145Y-40232D03*
G54D23*
X85708Y-82047D03*
X86496Y-82047D03*
X89645Y-82047D03*
X88858Y-82047D03*
X88070Y-82047D03*
X87283Y-82047D03*
G54D24*
X99468Y-40137D03*
X94822Y-54557D03*
X89271Y-73051D03*
X87606Y-73062D03*
X95389Y-73602D03*
X92923Y-74143D03*
X96326Y-73629D03*
X92539Y-74645D03*
X82751Y-73385D03*
X90462Y-71545D03*
X83507Y-73649D03*
X90620Y-71377D03*
X84149Y-73633D03*
X90935Y-71377D03*
X84377Y-73212D03*
X91250Y-71377D03*
X91407Y-71545D03*
X91564Y-71377D03*
X91879Y-71377D03*
X92037Y-71545D03*
X92923Y-73828D03*
X92746Y-73671D03*
X92923Y-73513D03*
X92746Y-73356D03*
X92746Y-73041D03*
X93080Y-72883D03*
X92746Y-72726D03*
X92923Y-72568D03*
X102755Y-47185D03*
X111023Y-44409D03*
X110511Y-44881D03*
X102952Y-46751D03*
X99763Y-47185D03*
X102185Y-48759D03*
X105000Y-49133D03*
X111023Y-48897D03*
X99763Y-48759D03*
X104921Y-49763D03*
X110511Y-49370D03*
X103149Y-47381D03*
X102185Y-47381D03*
X111023Y-44881D03*
X110511Y-45393D03*
X103346Y-46968D03*
X99901Y-47381D03*
X103543Y-47775D03*
X102185Y-47775D03*
X111023Y-45905D03*
X99763Y-47775D03*
X103740Y-47578D03*
X110511Y-46889D03*
X103937Y-48366D03*
X102185Y-48366D03*
X111023Y-47401D03*
X104133Y-48188D03*
X99763Y-48366D03*
X110511Y-47874D03*
X104330Y-48562D03*
X102322Y-48562D03*
X111023Y-47874D03*
X104527Y-48956D03*
X99901Y-48562D03*
X110511Y-48385D03*
X102185Y-49547D03*
X106102Y-51653D03*
X110511Y-51377D03*
X99763Y-49547D03*
X105787Y-51062D03*
X110511Y-50905D03*
X102185Y-51122D03*
X108070Y-55629D03*
X110511Y-55393D03*
X108070Y-58267D03*
X99763Y-51122D03*
X111023Y-55393D03*
X102322Y-49744D03*
X106299Y-52125D03*
X111023Y-51889D03*
X106771Y-52913D03*
X99901Y-49744D03*
X111023Y-52401D03*
X102185Y-50137D03*
X107204Y-53661D03*
X111023Y-53385D03*
X106299Y-53051D03*
X110511Y-52401D03*
X99763Y-50137D03*
X107362Y-54370D03*
X102185Y-50728D03*
X110511Y-53897D03*
X107283Y-55157D03*
X99763Y-50728D03*
X111023Y-53897D03*
X102322Y-50925D03*
X107874Y-55157D03*
X111023Y-54881D03*
X107480Y-57381D03*
X99901Y-50925D03*
X110511Y-54409D03*
X85137Y-61909D03*
X86437Y-61633D03*
X87027Y-61909D03*
X85511Y-61141D03*
X87027Y-60964D03*
X85511Y-61771D03*
X87027Y-61594D03*
X85137Y-61594D03*
X86712Y-61594D03*
X85511Y-61456D03*
X87027Y-61279D03*
X85137Y-61279D03*
X86712Y-61279D03*
X85137Y-63484D03*
X87027Y-63484D03*
X85452Y-64153D03*
X86712Y-64429D03*
X87401Y-64291D03*
X84822Y-64429D03*
X87401Y-64921D03*
X84822Y-65059D03*
X85679Y-63523D03*
X85511Y-63031D03*
X88956Y-63464D03*
X86712Y-63169D03*
X87864Y-66151D03*
X87362Y-62874D03*
X84822Y-63169D03*
X87401Y-63661D03*
X89133Y-63877D03*
X84822Y-63799D03*
X85137Y-64744D03*
X85816Y-63700D03*
X88267Y-63952D03*
X87027Y-64744D03*
X87047Y-69645D03*
X85531Y-69803D03*
X85157Y-69645D03*
X86732Y-70275D03*
X85157Y-70590D03*
X86732Y-69645D03*
X86141Y-67921D03*
X85157Y-69960D03*
X87047Y-69960D03*
X85531Y-70118D03*
X86732Y-69960D03*
X85157Y-70275D03*
X87047Y-70275D03*
X85531Y-70433D03*
X87047Y-67755D03*
X85157Y-68070D03*
X86732Y-67125D03*
X85531Y-67283D03*
X84842Y-67125D03*
X87421Y-67283D03*
X84842Y-66496D03*
X87421Y-66653D03*
X86250Y-69330D03*
X85531Y-68543D03*
X84842Y-68385D03*
X87421Y-68543D03*
X84842Y-67755D03*
X87421Y-67814D03*
X87047Y-66811D03*
X85157Y-66811D03*
X95177Y-56889D03*
X87568Y-50984D03*
X95324Y-57037D03*
X87726Y-51181D03*
X97933Y-58661D03*
X87726Y-53346D03*
X98080Y-58809D03*
X87568Y-53543D03*
X95570Y-57185D03*
X87568Y-51377D03*
X87726Y-51574D03*
X95718Y-57332D03*
X96062Y-57480D03*
X87568Y-51771D03*
X96210Y-57627D03*
X87726Y-51968D03*
X96751Y-58070D03*
X87726Y-52559D03*
X96899Y-58218D03*
X87568Y-52755D03*
X97293Y-58366D03*
X87726Y-52952D03*
X97539Y-58513D03*
X87568Y-53149D03*
X83858Y-65649D03*
X95248Y-71637D03*
X86358Y-72364D03*
X95031Y-71787D03*
X87370Y-72228D03*
X95318Y-71940D03*
X87846Y-72287D03*
X96606Y-70704D03*
X91505Y-54055D03*
X91515Y-52952D03*
X94143Y-58956D03*
X91348Y-51909D03*
X91348Y-51683D03*
X90826Y-52687D03*
X91505Y-53572D03*
X91505Y-53346D03*
X91515Y-52470D03*
X91348Y-51427D03*
X91515Y-52726D03*
X94143Y-59173D03*
X91505Y-53828D03*
X91348Y-51200D03*
X91515Y-52244D03*
X95098Y-55492D03*
X95305Y-55492D03*
X92519Y-55492D03*
X91811Y-55492D03*
X92293Y-55492D03*
X92037Y-55492D03*
X93415Y-55492D03*
X93641Y-55492D03*
X95787Y-55492D03*
X94478Y-55492D03*
X94704Y-55492D03*
X95561Y-55492D03*
X93996Y-55492D03*
X94222Y-55492D03*
X92933Y-55492D03*
X93159Y-55492D03*
X82795Y-67322D03*
X82795Y-60954D03*
X78828Y-67322D03*
X80413Y-61909D03*
X81909Y-58799D03*
X81830Y-67322D03*
X94783Y-59547D03*
X81220Y-67322D03*
X81692Y-60787D03*
X102129Y-69228D03*
X102129Y-62779D03*
X77007Y-68937D03*
X77007Y-69370D03*
X77007Y-69803D03*
X77007Y-70236D03*
X109291Y-77165D03*
X109291Y-76909D03*
X109291Y-74645D03*
X109291Y-74389D03*
X109291Y-74143D03*
X109291Y-73887D03*
X109291Y-73641D03*
X109291Y-73385D03*
X109291Y-76663D03*
X109291Y-76407D03*
X109291Y-76161D03*
X109291Y-75905D03*
X109291Y-75649D03*
X109291Y-75403D03*
X109291Y-75147D03*
X109291Y-74891D03*
X112106Y-77165D03*
X112106Y-76909D03*
X112106Y-74645D03*
X112106Y-74389D03*
X112106Y-74143D03*
X112106Y-73887D03*
X112106Y-73631D03*
X112106Y-73385D03*
X112106Y-76663D03*
X112106Y-76407D03*
X112106Y-76161D03*
X112106Y-75905D03*
X112106Y-75649D03*
X112106Y-75403D03*
X112106Y-75147D03*
X112106Y-74901D03*
X101013Y-69143D03*
X101269Y-71909D03*
X101417Y-72106D03*
X94094Y-72106D03*
X94094Y-72391D03*
X101417Y-72500D03*
X94094Y-72696D03*
X101269Y-72696D03*
X94724Y-72893D03*
X101417Y-72893D03*
X94566Y-73090D03*
X101269Y-73090D03*
X94251Y-73287D03*
X101417Y-73287D03*
X101269Y-73484D03*
X94409Y-73484D03*
X72677Y-65767D03*
X73710Y-65570D03*
X104511Y-79535D03*
X103728Y-78740D03*
X94055Y-75866D03*
X105000Y-75492D03*
X105354Y-72893D03*
X95354Y-75866D03*
X105885Y-75866D03*
X105885Y-72303D03*
X104507Y-76043D03*
X104566Y-73543D03*
X96594Y-76850D03*
X93188Y-75866D03*
X105708Y-75314D03*
X105708Y-72500D03*
X94921Y-75866D03*
X105531Y-75688D03*
X105531Y-72696D03*
X95393Y-37350D03*
X95393Y-50954D03*
X94448Y-51289D03*
X88641Y-47047D03*
X91594Y-47755D03*
X94242Y-47755D03*
X89921Y-36968D03*
X92874Y-51289D03*
X90925Y-36968D03*
X93188Y-51919D03*
X91929Y-36968D03*
X93031Y-50954D03*
X92519Y-37736D03*
X93188Y-51289D03*
X93523Y-37736D03*
X93346Y-50954D03*
X94527Y-37736D03*
X93503Y-51604D03*
X104744Y-36496D03*
X98513Y-50964D03*
X93818Y-51289D03*
X105629Y-36496D03*
X98336Y-51692D03*
X93818Y-51604D03*
X106614Y-36338D03*
X94133Y-51919D03*
X98690Y-51879D03*
X99360Y-37647D03*
X97440Y-54728D03*
X95393Y-53494D03*
X86992Y-38740D03*
X94133Y-52549D03*
X84905Y-38409D03*
X94763Y-52864D03*
X88169Y-38248D03*
X95393Y-53809D03*
X85885Y-38244D03*
X94763Y-53179D03*
X83866Y-38015D03*
X95866Y-54498D03*
X111053Y-69242D03*
X107657Y-69232D03*
X76692Y-55787D03*
X76161Y-59488D03*
X89468Y-59842D03*
X78681Y-65787D03*
X76830Y-55452D03*
X87844Y-65738D03*
X70944Y-54389D03*
X70590Y-58681D03*
X98248Y-59724D03*
X77381Y-53622D03*
X72716Y-53622D03*
X101259Y-53484D03*
X84862Y-62263D03*
X84862Y-62578D03*
X87047Y-69015D03*
X87047Y-68700D03*
X86870Y-59360D03*
X91387Y-59360D03*
X86751Y-61948D03*
X86437Y-61948D03*
X92500Y-59527D03*
X87194Y-59527D03*
X87037Y-62253D03*
X86437Y-63523D03*
X85728Y-64507D03*
X85511Y-63661D03*
X84488Y-62401D03*
X84143Y-60570D03*
X93061Y-60570D03*
X86200Y-63011D03*
X86437Y-64783D03*
X85511Y-64921D03*
X85511Y-62086D03*
X84862Y-61948D03*
X84862Y-60374D03*
X92667Y-60374D03*
X85177Y-62263D03*
X85846Y-63366D03*
X86407Y-62234D03*
X85866Y-67598D03*
X85866Y-69330D03*
X85807Y-66417D03*
X85531Y-69488D03*
X85157Y-69015D03*
X85000Y-65925D03*
X85531Y-67913D03*
X86289Y-67283D03*
X87598Y-69173D03*
X87667Y-66427D03*
X85639Y-65925D03*
X86358Y-65925D03*
X86417Y-69645D03*
X86200Y-66368D03*
X87864Y-69173D03*
X88248Y-64374D03*
X86574Y-65925D03*
X86732Y-69015D03*
X85531Y-69173D03*
X85413Y-65925D03*
X73011Y-64625D03*
X73917Y-66003D03*
X79783Y-65816D03*
X86220Y-49635D03*
X79940Y-65383D03*
X85826Y-49635D03*
X74547Y-64980D03*
X96358Y-57923D03*
X87568Y-52372D03*
X87568Y-52155D03*
X96505Y-57775D03*
X81043Y-63031D03*
X84448Y-49517D03*
X84645Y-49635D03*
X80885Y-62106D03*
X80098Y-65580D03*
X85629Y-49517D03*
X97500Y-58208D03*
X111023Y-49370D03*
X105118Y-56102D03*
X99763Y-51515D03*
X97342Y-56791D03*
X111496Y-56417D03*
X102185Y-51515D03*
X107746Y-65137D03*
X108503Y-48385D03*
X108503Y-47874D03*
X107362Y-65698D03*
X94311Y-56486D03*
X89401Y-56161D03*
X91236Y-60165D03*
X98555Y-61129D03*
X89767Y-56240D03*
X91232Y-59937D03*
X94870Y-60425D03*
X95968Y-61555D03*
X95078Y-51917D03*
X91602Y-55480D03*
X81653Y-55472D03*
X74822Y-60275D03*
X81653Y-58799D03*
X94744Y-55905D03*
X94448Y-52234D03*
X98740Y-60137D03*
X99921Y-52244D03*
X94921Y-50954D03*
X95078Y-51604D03*
X99921Y-52608D03*
X99074Y-60137D03*
X97696Y-50875D03*
X94606Y-50954D03*
X95724Y-56984D03*
X94133Y-51289D03*
X81417Y-50285D03*
X81417Y-66811D03*
X90236Y-51141D03*
X91358Y-58984D03*
X95964Y-59360D03*
X94133Y-51604D03*
X94751Y-49720D03*
X94448Y-51604D03*
X96318Y-49753D03*
X95078Y-51289D03*
X98513Y-51515D03*
X98405Y-60137D03*
X98362Y-52220D03*
X97783Y-60185D03*
X94448Y-51919D03*
X93848Y-56722D03*
X94133Y-52234D03*
X88641Y-50433D03*
X88641Y-47539D03*
X95393Y-51289D03*
X75157Y-60275D03*
X96078Y-53062D03*
X89881Y-50925D03*
X89881Y-48543D03*
X94763Y-52234D03*
X75531Y-60275D03*
X96220Y-56732D03*
X89625Y-56555D03*
X89645Y-48041D03*
X89645Y-50767D03*
X94763Y-51919D03*
X91614Y-54291D03*
X94763Y-51604D03*
X94763Y-53809D03*
X95566Y-49614D03*
X95393Y-54124D03*
X96151Y-54488D03*
X98503Y-51259D03*
X99874Y-54547D03*
X93090Y-50334D03*
X90984Y-51200D03*
X96724Y-55059D03*
X85118Y-59763D03*
X93346Y-49763D03*
X85118Y-59566D03*
X85118Y-59960D03*
X94448Y-53484D03*
X95393Y-51604D03*
X93484Y-55944D03*
X76102Y-42637D03*
X75826Y-41968D03*
X76377Y-41968D03*
X94881Y-40039D03*
X92519Y-40039D03*
X91515Y-40039D03*
X90531Y-40039D03*
X91181Y-35807D03*
X91850Y-35807D03*
X90846Y-35807D03*
X90177Y-35807D03*
X89173Y-35807D03*
X89842Y-35807D03*
X88838Y-35807D03*
X88169Y-35807D03*
X87165Y-35807D03*
X87834Y-35807D03*
X86181Y-35807D03*
X86850Y-35807D03*
X85846Y-35807D03*
X85177Y-35807D03*
X84173Y-35807D03*
X84842Y-35807D03*
X83838Y-35807D03*
X83169Y-35807D03*
X94763Y-52549D03*
X96122Y-51564D03*
X89901Y-75570D03*
X106043Y-83326D03*
X107106Y-81673D03*
X98858Y-45019D03*
X97637Y-71811D03*
X82677Y-72362D03*
X82677Y-72618D03*
X92614Y-79094D03*
X92425Y-79633D03*
X93464Y-83169D03*
X93464Y-82165D03*
X71417Y-52874D03*
X88070Y-76692D03*
X87244Y-74763D03*
X101496Y-59862D03*
X101240Y-60570D03*
X103027Y-61964D03*
X102696Y-78976D03*
X102696Y-78228D03*
X96141Y-48435D03*
X95551Y-48897D03*
X96614Y-56574D03*
X92185Y-48700D03*
X91811Y-48976D03*
X93996Y-50334D03*
X90078Y-52795D03*
X90059Y-51437D03*
X89094Y-52224D03*
X87775Y-47283D03*
X92627Y-56397D03*
X96476Y-50374D03*
X97145Y-54862D03*
X82322Y-73661D03*
X83956Y-72618D03*
X83307Y-72618D03*
X70334Y-55866D03*
X84645Y-54893D03*
X74173Y-53818D03*
X71377Y-59015D03*
X71653Y-57637D03*
X72204Y-58425D03*
X71062Y-58425D03*
X71062Y-57519D03*
X71062Y-58149D03*
X71377Y-57834D03*
X73070Y-55944D03*
X75000Y-56043D03*
X77165Y-55570D03*
X77047Y-53838D03*
X76417Y-58700D03*
X74744Y-57539D03*
X75165Y-57094D03*
X73937Y-63523D03*
X76318Y-56614D03*
X75944Y-53877D03*
X74744Y-54350D03*
X73917Y-55964D03*
X71673Y-56515D03*
X73326Y-55767D03*
X72657Y-55433D03*
X73326Y-53799D03*
X72480Y-53622D03*
X72263Y-53622D03*
X71318Y-53740D03*
X71082Y-53405D03*
X71220Y-55354D03*
X70334Y-55275D03*
X70334Y-53838D03*
X72677Y-59429D03*
X71929Y-59429D03*
X72303Y-59862D03*
X72303Y-58996D03*
X73248Y-56515D03*
X73011Y-57834D03*
X76732Y-56929D03*
X73956Y-59763D03*
X73366Y-58208D03*
X73366Y-58523D03*
X77125Y-62992D03*
X77244Y-60314D03*
X75944Y-61929D03*
X76141Y-61722D03*
X73976Y-61929D03*
X75748Y-61929D03*
X75157Y-61929D03*
X74566Y-61929D03*
X75354Y-61929D03*
X75551Y-61929D03*
X74763Y-61929D03*
X74960Y-61929D03*
X74370Y-61929D03*
X74173Y-61929D03*
X79311Y-64704D03*
X106003Y-46909D03*
X105787Y-46909D03*
X105905Y-48464D03*
X106141Y-50334D03*
X95393Y-72342D03*
X101456Y-70196D03*
X101456Y-70452D03*
X100354Y-70196D03*
X100354Y-70452D03*
X91122Y-60767D03*
X90846Y-60767D03*
X91023Y-58996D03*
X88090Y-58070D03*
X87854Y-58070D03*
X88346Y-58070D03*
X88090Y-58562D03*
X87854Y-58562D03*
X88346Y-58562D03*
X94783Y-70688D03*
X80019Y-40255D03*
X82007Y-40000D03*
X77637Y-51200D03*
X79507Y-51200D03*
X70649Y-49625D03*
X71279Y-50866D03*
X76437Y-48405D03*
X82736Y-53917D03*
X101220Y-63779D03*
X76610Y-79602D03*
X77618Y-80015D03*
X76039Y-73850D03*
X78771Y-74062D03*
X98598Y-79535D03*
X98614Y-78740D03*
X106657Y-78755D03*
X106669Y-79515D03*
X104566Y-81350D03*
X105070Y-82031D03*
X100318Y-81314D03*
X97779Y-82507D03*
X97783Y-81228D03*
X77196Y-51598D03*
X75385Y-52645D03*
X75858Y-52633D03*
X76901Y-52090D03*
X75874Y-60275D03*
X99338Y-60614D03*
X102795Y-62157D03*
X92649Y-59354D03*
X88677Y-58311D03*
X106933Y-41566D03*
X106933Y-40287D03*
X81283Y-37846D03*
X81775Y-37929D03*
X102188Y-36141D03*
X96389Y-79389D03*
X96732Y-79881D03*
X96594Y-82165D03*
X97133Y-82622D03*
X91708Y-82618D03*
X92125Y-82169D03*
X92035Y-80204D03*
X89055Y-65807D03*
X86330Y-67598D03*
X93622Y-73484D03*
X88543Y-67598D03*
X88267Y-68858D03*
X90031Y-54228D03*
X97696Y-54862D03*
X97669Y-52586D03*
X96984Y-72811D03*
X96531Y-72846D03*
X91244Y-53405D03*
X92051Y-53106D03*
X96870Y-53244D03*
X95814Y-56015D03*
X87007Y-49051D03*
X85980Y-48468D03*
X83027Y-49500D03*
X84779Y-48055D03*
X84055Y-54893D03*
X84251Y-54893D03*
X84448Y-54893D03*
X84842Y-54889D03*
X85039Y-54893D03*
X85236Y-54893D03*
X85433Y-54893D03*
X85629Y-54893D03*
X85826Y-54897D03*
X86023Y-54893D03*
X86220Y-54893D03*
X103177Y-69322D03*
X104535Y-69196D03*
X104397Y-69322D03*
X103917Y-70177D03*
X105433Y-69212D03*
X104877Y-69318D03*
X88590Y-70720D03*
X84055Y-49517D03*
X98858Y-48070D03*
X105000Y-49429D03*
X106948Y-49429D03*
X102165Y-45039D03*
X104409Y-35551D03*
X102755Y-35314D03*
X99055Y-36377D03*
X99251Y-36811D03*
X99251Y-35944D03*
X97125Y-36811D03*
X97125Y-35944D03*
X95393Y-80866D03*
X76161Y-70236D03*
X76161Y-68937D03*
X91614Y-76062D03*
X107952Y-66259D03*
X111181Y-67480D03*
X109409Y-67480D03*
X111771Y-67854D03*
X111771Y-68602D03*
X109921Y-68602D03*
X109921Y-67854D03*
X108740Y-68838D03*
X109094Y-67677D03*
X110944Y-67677D03*
X109783Y-37598D03*
X102539Y-40275D03*
X102539Y-41358D03*
X102716Y-40078D03*
X100492Y-55570D03*
X99763Y-55137D03*
X101220Y-55137D03*
X70255Y-66476D03*
X70255Y-66003D03*
X71712Y-66614D03*
X72362Y-66614D03*
X70295Y-65196D03*
X70728Y-65748D03*
X70728Y-64645D03*
X99251Y-83169D03*
X82618Y-63622D03*
X72677Y-68326D03*
X72677Y-67736D03*
X72677Y-67145D03*
X72677Y-66555D03*
X100492Y-42933D03*
X99763Y-43366D03*
X101220Y-43366D03*
X82618Y-66535D03*
X80452Y-72519D03*
X81830Y-72519D03*
X81456Y-72814D03*
X80826Y-72814D03*
X99734Y-52795D03*
X98858Y-52795D03*
X105757Y-35364D03*
X91220Y-48641D03*
X77598Y-72696D03*
X77460Y-70570D03*
X78700Y-62598D03*
X92342Y-75374D03*
X78937Y-40098D03*
X77913Y-42460D03*
X81141Y-65216D03*
X82263Y-62283D03*
X82519Y-62559D03*
X99212Y-62194D03*
X99793Y-49251D03*
X109370Y-71929D03*
X103789Y-71929D03*
X87913Y-74015D03*
X87913Y-73641D03*
X88484Y-79704D03*
X86259Y-80393D03*
X92086Y-50009D03*
X95462Y-71742D03*
X110088Y-72883D03*
X109291Y-72883D03*
X102539Y-67519D03*
X107283Y-35364D03*
X106574Y-35364D03*
X94035Y-48051D03*
X103484Y-71338D03*
X103484Y-70629D03*
X103090Y-70629D03*
X103090Y-71338D03*
X99822Y-46653D03*
X99822Y-45708D03*
X89596Y-63041D03*
X84685Y-69911D03*
X85531Y-68858D03*
X87421Y-70433D03*
X85157Y-68700D03*
X85157Y-67755D03*
X85157Y-67440D03*
X85157Y-66496D03*
X79202Y-70118D03*
X78444Y-70118D03*
X82824Y-70875D03*
X83198Y-70118D03*
X86732Y-68700D03*
X86732Y-66496D03*
X84606Y-69202D03*
X86712Y-62854D03*
X86751Y-63523D03*
X86751Y-64783D03*
X85137Y-65059D03*
X85137Y-64153D03*
X85137Y-63799D03*
X85511Y-65413D03*
X85511Y-62716D03*
X86023Y-63779D03*
X87342Y-61318D03*
X83671Y-61771D03*
X83671Y-62716D03*
X83671Y-63346D03*
X83671Y-63976D03*
X83671Y-64606D03*
X83671Y-65236D03*
X86427Y-65413D03*
X86437Y-62854D03*
X84488Y-61141D03*
X88267Y-69803D03*
X83671Y-68858D03*
X83671Y-68228D03*
X83671Y-67598D03*
X83671Y-66968D03*
X83671Y-66338D03*
X84488Y-71102D03*
X85807Y-66751D03*
X101259Y-52795D03*
X102135Y-53287D03*
X101259Y-46555D03*
X101259Y-45059D03*
X101259Y-45708D03*
X102145Y-45708D03*
X101259Y-46003D03*
X101102Y-47381D03*
X102185Y-47992D03*
X101240Y-47992D03*
X101043Y-48956D03*
X102490Y-51496D03*
X101259Y-49940D03*
X101259Y-50433D03*
X102185Y-51909D03*
X98858Y-47578D03*
X99734Y-48070D03*
X99763Y-50433D03*
X98858Y-49940D03*
X99763Y-51742D03*
X98858Y-51712D03*
X98858Y-51318D03*
X108996Y-62913D03*
X109015Y-62401D03*
X109015Y-61909D03*
X108996Y-60915D03*
X108996Y-60413D03*
X109015Y-56889D03*
X108996Y-42913D03*
X108996Y-44409D03*
X109015Y-44881D03*
X109015Y-58385D03*
X109015Y-43897D03*
X108503Y-47401D03*
X108503Y-48897D03*
X108503Y-49409D03*
X109015Y-49409D03*
X108503Y-50905D03*
X109015Y-50905D03*
X108503Y-51377D03*
X109015Y-52401D03*
X108503Y-52913D03*
X108503Y-53385D03*
X109015Y-53897D03*
X108503Y-54881D03*
X108503Y-55393D03*
X109015Y-55393D03*
X108503Y-56889D03*
X108503Y-46889D03*
X110511Y-45905D03*
X110511Y-59389D03*
X110511Y-62903D03*
X111545Y-61663D03*
X110511Y-61397D03*
X110511Y-60895D03*
X111545Y-60167D03*
X111545Y-58661D03*
X110511Y-43385D03*
X111023Y-43897D03*
X110511Y-44409D03*
X111023Y-45393D03*
X111023Y-46889D03*
X110511Y-47401D03*
X111023Y-48385D03*
X110511Y-48897D03*
X111023Y-49881D03*
X110511Y-50393D03*
X111023Y-51377D03*
X110511Y-51889D03*
X111023Y-52913D03*
X110511Y-53385D03*
X111023Y-54409D03*
X110511Y-54881D03*
X110511Y-57913D03*
X111023Y-57401D03*
X111023Y-55905D03*
X110511Y-56377D03*
X90590Y-45708D03*
X87598Y-43582D03*
X87834Y-43159D03*
X97125Y-38090D03*
X97125Y-37263D03*
X90925Y-46437D03*
X88228Y-48789D03*
X87814Y-48543D03*
X96476Y-50708D03*
X98779Y-37431D03*
X96496Y-49389D03*
X102125Y-73681D03*
X104635Y-71299D03*
X104468Y-70620D03*
X102696Y-74566D03*
X102696Y-73858D03*
X101417Y-73681D03*
X105354Y-73287D03*
X104645Y-73287D03*
X100688Y-71614D03*
X100255Y-71614D03*
X102696Y-73641D03*
X102460Y-71919D03*
X104232Y-72982D03*
X72677Y-65374D03*
X82736Y-50511D03*
X82303Y-52559D03*
X83179Y-51377D03*
X87145Y-50511D03*
X83464Y-49635D03*
X86417Y-54901D03*
X83661Y-54901D03*
X82145Y-48031D03*
X82490Y-50511D03*
X82047Y-52559D03*
X82047Y-53740D03*
X86771Y-48976D03*
X107519Y-68031D03*
X108267Y-67795D03*
X107559Y-67795D03*
X93622Y-74409D03*
X96151Y-55639D03*
X95708Y-53494D03*
X95078Y-53179D03*
X94931Y-50344D03*
X94763Y-51289D03*
X96476Y-50039D03*
X92539Y-54281D03*
X92539Y-52706D03*
X92539Y-51761D03*
X96053Y-51131D03*
X94261Y-56190D03*
X93976Y-54458D03*
X92874Y-51919D03*
X92874Y-51604D03*
X92539Y-51446D03*
X92539Y-51131D03*
X80314Y-71909D03*
X77736Y-71712D03*
X102716Y-35748D03*
X102716Y-36082D03*
X102795Y-39842D03*
X102539Y-39271D03*
X76141Y-61978D03*
X79566Y-64094D03*
X80275Y-64094D03*
X80275Y-63602D03*
X80393Y-63110D03*
X80472Y-64704D03*
X79311Y-64350D03*
X101496Y-59429D03*
X100964Y-59429D03*
X101240Y-59429D03*
X102135Y-53681D03*
X83661Y-49517D03*
X98858Y-50433D03*
X94803Y-58700D03*
X94763Y-49055D03*
X75196Y-54665D03*
X79645Y-49070D03*
X95078Y-53494D03*
X94783Y-60098D03*
X95019Y-58877D03*
X75196Y-54429D03*
X79649Y-49527D03*
X95078Y-53809D03*
X95551Y-49320D03*
X95216Y-58700D03*
X96614Y-72661D03*
X89271Y-72736D03*
X106200Y-50846D03*
X102539Y-46535D03*
X111023Y-50393D03*
X101240Y-49153D03*
X101023Y-50984D03*
X110511Y-56889D03*
X89271Y-72253D03*
X89291Y-70610D03*
X89074Y-72401D03*
X97240Y-71519D03*
X88311Y-71547D03*
X88799Y-73248D03*
X88897Y-80393D03*
X97586Y-55397D03*
X109015Y-54409D03*
X101141Y-52106D03*
X97598Y-55679D03*
X101259Y-52303D03*
X108503Y-53897D03*
X101141Y-52500D03*
X108503Y-54409D03*
X97933Y-55885D03*
X96860Y-56574D03*
X109015Y-53385D03*
X101259Y-53090D03*
X108996Y-52913D03*
X108740Y-67893D03*
X108061Y-64498D03*
X108996Y-51919D03*
X109842Y-61397D03*
X109498Y-50413D03*
X109094Y-67401D03*
X109498Y-49911D03*
X98830Y-52106D03*
X103779Y-67145D03*
X99488Y-66633D03*
X112007Y-56161D03*
X112007Y-66633D03*
X101003Y-66633D03*
X99291Y-54055D03*
X104645Y-66456D03*
X98858Y-53287D03*
X100354Y-66633D03*
X98690Y-52500D03*
X99921Y-66633D03*
X103779Y-66830D03*
X111771Y-69645D03*
X109921Y-69645D03*
X98858Y-52303D03*
X99716Y-66633D03*
X104645Y-65925D03*
X110295Y-69645D03*
X112145Y-69645D03*
X104645Y-66141D03*
X98690Y-53090D03*
X100137Y-66633D03*
X99007Y-62287D03*
X109842Y-61161D03*
X109251Y-64685D03*
X109015Y-58897D03*
X111712Y-63395D03*
X110511Y-49881D03*
X111712Y-55157D03*
X101692Y-54064D03*
X108297Y-61781D03*
X108503Y-57913D03*
X111023Y-59389D03*
X107903Y-64675D03*
X108503Y-55905D03*
X108415Y-64675D03*
X100039Y-46397D03*
X108149Y-47401D03*
X109015Y-57913D03*
X109015Y-55905D03*
X108061Y-64271D03*
X111023Y-59891D03*
X99921Y-51968D03*
X106102Y-51220D03*
X111023Y-50905D03*
X99094Y-64429D03*
X102559Y-51909D03*
X111003Y-56909D03*
X100570Y-66633D03*
X98690Y-53484D03*
X100787Y-66633D03*
X98858Y-53681D03*
X109291Y-73129D03*
X112106Y-73129D03*
X101751Y-56496D03*
X99763Y-48996D03*
X98838Y-66279D03*
X99043Y-61062D03*
X108484Y-66830D03*
X104606Y-66830D03*
X108503Y-56377D03*
X109015Y-56377D03*
X112401Y-56653D03*
X104606Y-67145D03*
X112401Y-67145D03*
X99251Y-68996D03*
X109645Y-63070D03*
X109507Y-51417D03*
X109448Y-66456D03*
X105472Y-66456D03*
X109468Y-54881D03*
X110748Y-63720D03*
X110511Y-58897D03*
X105472Y-65905D03*
X112204Y-57677D03*
X105472Y-66141D03*
X112204Y-66456D03*
X111574Y-43169D03*
X109015Y-45905D03*
X108503Y-46417D03*
X111259Y-62992D03*
X93188Y-53179D03*
X93503Y-52864D03*
X93818Y-52864D03*
X94448Y-52864D03*
X92874Y-52549D03*
X93188Y-52864D03*
X93818Y-55059D03*
X93503Y-52549D03*
X92145Y-52125D03*
X93818Y-52549D03*
X92214Y-51456D03*
X92874Y-52234D03*
X93188Y-52234D03*
X91279Y-52244D03*
X93503Y-52234D03*
X93818Y-52234D03*
X92214Y-51200D03*
X92874Y-52864D03*
X93188Y-54124D03*
X93031Y-54458D03*
X92539Y-53966D03*
X92874Y-54124D03*
X93818Y-54124D03*
X94133Y-54124D03*
X94448Y-53809D03*
X92874Y-53809D03*
X93188Y-53809D03*
X93818Y-53809D03*
X94133Y-53809D03*
X94133Y-53494D03*
X92874Y-53494D03*
X93503Y-53494D03*
X93503Y-53179D03*
X93818Y-53494D03*
X94448Y-53179D03*
X95393Y-51919D03*
X95708Y-51289D03*
X94448Y-52549D03*
X94035Y-48858D03*
X97700Y-49122D03*
X95393Y-52549D03*
X92539Y-52076D03*
X92086Y-50787D03*
X95708Y-51604D03*
X97334Y-55102D03*
X95393Y-53179D03*
X90019Y-53149D03*
X92539Y-53346D03*
X93503Y-51919D03*
X93011Y-49507D03*
X93818Y-51919D03*
X93346Y-49507D03*
X98854Y-48980D03*
X95393Y-52864D03*
X98551Y-52039D03*
X103082Y-35472D03*
X95393Y-52234D03*
X103651Y-70482D03*
X103907Y-70482D03*
X104074Y-71338D03*
X94330Y-81259D03*
X85039Y-49635D03*
X85236Y-49517D03*
X85433Y-49635D03*
X72480Y-65177D03*
X82293Y-51181D03*
X109724Y-72401D03*
X83838Y-49635D03*
X84842Y-49517D03*
X86023Y-49517D03*
X89084Y-73877D03*
X89212Y-73681D03*
X89665Y-74803D03*
X89251Y-74251D03*
X92342Y-75019D03*
X89084Y-74094D03*
X90472Y-75039D03*
X91653Y-75098D03*
X89251Y-74488D03*
X72519Y-60314D03*
X72992Y-54586D03*
X75688Y-56555D03*
X76338Y-53877D03*
X96673Y-57027D03*
X75944Y-55787D03*
X97421Y-57657D03*
X72066Y-56535D03*
X70944Y-59015D03*
X99196Y-61751D03*
X76988Y-57952D03*
X73070Y-56299D03*
X74763Y-54035D03*
X70314Y-54448D03*
X95708Y-52864D03*
X95708Y-52224D03*
X96053Y-51338D03*
X95708Y-53179D03*
X73897Y-49055D03*
X98783Y-62019D03*
X96673Y-57342D03*
X98322Y-70614D03*
X89188Y-71598D03*
X97066Y-58976D03*
X102657Y-70482D03*
X102509Y-62647D03*
X111003Y-62401D03*
X111712Y-66909D03*
X110314Y-66909D03*
X110295Y-60413D03*
X100216Y-46200D03*
X110157Y-47401D03*
X102185Y-46456D03*
X99311Y-66043D03*
X110511Y-55905D03*
X102185Y-46200D03*
X108238Y-53149D03*
X110511Y-52913D03*
X99311Y-65068D03*
X105570Y-71909D03*
X105354Y-72106D03*
X87362Y-40039D03*
X102303Y-70482D03*
X100665Y-45480D03*
X88523Y-40039D03*
X100244Y-45279D03*
X101771Y-71131D03*
X89527Y-40196D03*
X99196Y-44240D03*
X101220Y-71622D03*
X78444Y-40236D03*
X103405Y-40826D03*
X103405Y-41043D03*
X103405Y-40610D03*
X89074Y-72893D03*
X88169Y-66299D03*
X83700Y-59566D03*
X83700Y-59960D03*
X83700Y-59763D03*
X75984Y-62992D03*
X75984Y-62677D03*
X75511Y-62992D03*
X75748Y-62992D03*
X75275Y-62992D03*
X74803Y-62992D03*
X75039Y-62992D03*
X74566Y-62992D03*
X74330Y-62992D03*
X74330Y-62677D03*
X74566Y-62677D03*
X75039Y-62677D03*
X74803Y-62677D03*
X75275Y-62677D03*
X75748Y-62677D03*
X75511Y-62677D03*
X88255Y-74511D03*
X91141Y-75885D03*
X91722Y-71545D03*
X90777Y-71545D03*
X92923Y-73198D03*
X92746Y-73986D03*
X77165Y-55216D03*
X93346Y-48681D03*
X93015Y-48681D03*
X90007Y-53976D03*
X87421Y-68858D03*
X85531Y-68228D03*
X87401Y-66338D03*
X85531Y-66968D03*
X84488Y-68858D03*
X84488Y-68228D03*
X84488Y-67598D03*
X84488Y-66968D03*
X84488Y-66338D03*
X84488Y-70748D03*
X87421Y-69803D03*
X86377Y-68228D03*
X86377Y-66968D03*
X87440Y-62253D03*
X87342Y-60964D03*
X86437Y-63208D03*
X87047Y-64448D03*
X86437Y-64468D03*
X84488Y-61771D03*
X84488Y-62716D03*
X85511Y-63346D03*
X84488Y-63346D03*
X84488Y-63976D03*
X85492Y-64507D03*
X84488Y-64606D03*
X84488Y-65236D03*
X87401Y-63326D03*
X87057Y-63818D03*
X87204Y-65472D03*
X87618Y-72795D03*
X81830Y-70885D03*
X86181Y-71496D03*
X83602Y-47854D03*
X89862Y-52224D03*
X90523Y-49696D03*
X98429Y-61444D03*
X95728Y-72342D03*
X97771Y-61358D03*
X97141Y-60342D03*
X95637Y-56200D03*
X89055Y-39881D03*
X71279Y-48720D03*
X90086Y-51799D03*
X77618Y-68700D03*
X76377Y-60511D03*
X76377Y-59763D03*
X107401Y-48622D03*
X80984Y-38543D03*
X103188Y-66299D03*
X80472Y-49523D03*
X89106Y-51566D03*
X86870Y-48051D03*
X86456Y-48744D03*
X83862Y-48188D03*
X83023Y-48736D03*
X91830Y-47185D03*
X90019Y-46082D03*
X90354Y-46082D03*
X90610Y-44980D03*
X88937Y-42834D03*
X90610Y-43562D03*
X84877Y-73972D03*
X87566Y-74035D03*
X95389Y-74488D03*
X96326Y-74503D03*
X97200Y-74503D03*
X92933Y-72354D03*
X91092Y-71545D03*
X90147Y-71545D03*
X92746Y-74301D03*
X102244Y-72470D03*
X103681Y-35157D03*
X110112Y-43163D03*
X110039Y-46476D03*
X110039Y-46712D03*
X110037Y-46927D03*
X109803Y-46476D03*
X109803Y-46712D03*
X109803Y-46929D03*
X106751Y-73848D03*
X103287Y-73858D03*
X104586Y-72982D03*
X104370Y-71348D03*
X83267Y-54468D03*
X86417Y-49517D03*
X84251Y-49635D03*
X82145Y-50984D03*
X82303Y-51968D03*
X82303Y-53149D03*
X70649Y-51673D03*
X75570Y-56259D03*
X73602Y-59153D03*
X73582Y-54389D03*
X71909Y-53405D03*
X70688Y-53838D03*
X70944Y-55945D03*
X76692Y-53366D03*
X89645Y-80472D03*
X102645Y-80303D03*
X105925Y-82850D03*
X107090Y-82952D03*
X70610Y-66988D03*
X76811Y-71555D03*
X107125Y-67598D03*
X99251Y-82814D03*
X109015Y-71456D03*
X102637Y-45039D03*
X102637Y-44724D03*
X111811Y-43759D03*
X103996Y-61043D03*
X99094Y-64035D03*
X92834Y-74655D03*
X104635Y-74212D03*
X102500Y-70629D03*
X102500Y-67962D03*
X101889Y-81082D03*
X104271Y-74763D03*
X93356Y-74763D03*
X102401Y-81771D03*
X92913Y-71486D03*
X102696Y-71338D03*
X93789Y-75078D03*
X103877Y-75078D03*
X102893Y-81259D03*
X102893Y-70482D03*
X102893Y-69301D03*
X103484Y-74921D03*
X94035Y-74921D03*
X103681Y-73858D03*
X103287Y-68129D03*
X104074Y-73858D03*
X104114Y-67667D03*
X84842Y-68700D03*
X87027Y-62854D03*
X83011Y-63228D03*
X83366Y-68543D03*
X78188Y-72362D03*
X88602Y-65610D03*
X88267Y-63720D03*
X91122Y-61122D03*
X81122Y-71476D03*
X89251Y-69980D03*
X88877Y-72578D03*
X89074Y-69822D03*
X89498Y-71161D03*
X91722Y-71161D03*
X92746Y-72096D03*
X81220Y-55708D03*
X81220Y-60039D03*
X73385Y-60039D03*
X71173Y-78724D03*
X97263Y-55816D03*
X94814Y-73429D03*
X97196Y-73429D03*
X89832Y-71545D03*
X92354Y-71602D03*
X88712Y-71102D03*
X90305Y-71377D03*
X89990Y-71377D03*
X89271Y-73385D03*
X89783Y-70433D03*
X92194Y-71377D03*
X92568Y-71344D03*
G54D30*
X90846Y-69783D02*
X90708Y-69921D01*
X90698Y-69931D02*
X90698Y-70757D01*
X90708Y-69921D02*
X90698Y-69931D01*
X90462Y-71545D02*
X90462Y-70994D01*
X90462Y-70994D02*
X90698Y-70757D01*
X90846Y-70177D02*
X90846Y-70748D01*
X90620Y-70974D02*
X90846Y-70748D01*
X90620Y-71377D02*
X90620Y-70974D01*
X91092Y-70442D02*
X91092Y-71220D01*
X91092Y-71220D02*
X90935Y-71377D01*
X91240Y-69783D02*
X91102Y-69921D01*
X91092Y-69931D02*
X91092Y-70442D01*
X91102Y-69921D02*
X91092Y-69931D01*
X91240Y-70177D02*
X91240Y-71368D01*
X91240Y-71368D02*
X91250Y-71377D01*
X91633Y-69783D02*
X91496Y-69921D01*
X91407Y-70413D02*
X91407Y-71545D01*
X91486Y-70334D02*
X91407Y-70413D01*
X91486Y-69931D02*
X91486Y-70334D01*
X91496Y-69921D02*
X91486Y-69931D01*
X91633Y-69783D02*
X91624Y-69783D01*
X91633Y-70177D02*
X91633Y-70354D01*
X91564Y-71377D02*
X91564Y-70610D01*
X91564Y-70423D02*
X91564Y-70610D01*
X91633Y-70354D02*
X91564Y-70423D01*
X91879Y-69931D02*
X91879Y-71377D01*
X91879Y-69931D02*
X91889Y-69921D01*
X91889Y-69921D02*
X91879Y-69931D01*
X91899Y-69911D02*
X91889Y-69921D01*
X92027Y-69783D02*
X91899Y-69911D01*
X92027Y-70177D02*
X92027Y-71535D01*
X92027Y-71535D02*
X92037Y-71545D01*
X92923Y-73828D02*
X93021Y-73828D01*
X93602Y-70688D02*
X93602Y-70177D01*
X93937Y-71023D02*
X93602Y-70688D01*
X93937Y-72913D02*
X93937Y-71023D01*
X93021Y-73828D02*
X93937Y-72913D01*
X93602Y-69783D02*
X93464Y-69921D01*
X93021Y-73671D02*
X92746Y-73671D01*
X93818Y-72874D02*
X93021Y-73671D01*
X93818Y-71062D02*
X93818Y-72874D01*
X93454Y-70698D02*
X93818Y-71062D01*
X93454Y-69931D02*
X93454Y-70698D01*
X93464Y-69921D02*
X93454Y-69931D01*
X92923Y-73513D02*
X93011Y-73513D01*
X93011Y-73513D02*
X93720Y-72805D01*
X93208Y-69783D02*
X93356Y-69931D01*
X93720Y-71141D02*
X93720Y-72805D01*
X93356Y-70777D02*
X93720Y-71141D01*
X93356Y-69931D02*
X93356Y-70777D01*
X92746Y-73356D02*
X93001Y-73356D01*
X93001Y-73356D02*
X93602Y-72755D01*
X93208Y-70177D02*
X93208Y-70816D01*
X93602Y-71210D02*
X93602Y-72755D01*
X93208Y-70816D02*
X93602Y-71210D01*
X92746Y-73041D02*
X93149Y-73041D01*
X93464Y-72726D02*
X93464Y-72519D01*
X93149Y-73041D02*
X93464Y-72726D01*
X92746Y-73041D02*
X92992Y-73041D01*
X92814Y-69389D02*
X93061Y-69635D01*
X93464Y-71259D02*
X93464Y-72519D01*
X93061Y-70856D02*
X93464Y-71259D01*
X93061Y-69635D02*
X93061Y-70856D01*
X93464Y-72519D02*
X93464Y-72568D01*
X93346Y-72362D02*
X93346Y-72618D01*
X93346Y-72618D02*
X93080Y-72883D01*
X92814Y-69783D02*
X92952Y-69921D01*
X93346Y-71328D02*
X93346Y-72362D01*
X93346Y-72362D02*
X93346Y-72529D01*
X92962Y-70944D02*
X93346Y-71328D01*
X92962Y-69931D02*
X92962Y-70944D01*
X92952Y-69921D02*
X92962Y-69931D01*
X92746Y-72726D02*
X93001Y-72726D01*
X93001Y-72726D02*
X93228Y-72500D01*
X92814Y-70177D02*
X92814Y-70974D01*
X93228Y-71387D02*
X93228Y-72500D01*
X92814Y-70974D02*
X93228Y-71387D01*
X93110Y-72381D02*
X92923Y-72568D01*
X92814Y-68996D02*
X92677Y-69133D01*
X93110Y-71446D02*
X93110Y-72381D01*
X92667Y-71003D02*
X93110Y-71446D01*
X92667Y-69143D02*
X92667Y-71003D01*
X92677Y-69133D02*
X92667Y-69143D01*
X84822Y-65059D02*
X84980Y-64901D01*
X85659Y-63503D02*
X85679Y-63523D01*
X85383Y-63503D02*
X85659Y-63503D01*
X85246Y-63641D02*
X85383Y-63503D01*
X85039Y-63641D02*
X85246Y-63641D01*
X84980Y-63700D02*
X85039Y-63641D01*
X84980Y-64901D02*
X84980Y-63700D01*
X88956Y-63464D02*
X89950Y-64458D01*
X90275Y-64881D02*
X90452Y-65059D01*
X90275Y-64537D02*
X90275Y-64881D01*
X90196Y-64458D02*
X90275Y-64537D01*
X89950Y-64458D02*
X90196Y-64458D01*
X87864Y-66151D02*
X87860Y-66151D01*
G54D10*
X87665Y-65956D02*
X87665Y-62940D01*
X87860Y-66151D02*
X87665Y-65956D01*
X87598Y-62874D02*
X87362Y-62874D01*
X87665Y-62940D02*
X87598Y-62874D01*
G54D30*
X89133Y-63877D02*
X89133Y-65029D01*
X89133Y-65029D02*
X89360Y-65255D01*
X89360Y-65255D02*
X90649Y-65255D01*
X90649Y-65255D02*
X90846Y-65452D01*
X86210Y-68303D02*
X86210Y-67990D01*
X86210Y-67990D02*
X86141Y-67921D01*
X86210Y-68303D02*
X86210Y-68956D01*
X86210Y-68956D02*
X86732Y-69478D01*
X86732Y-69478D02*
X86732Y-69645D01*
X95177Y-61574D02*
X95177Y-61102D01*
X94606Y-57598D02*
X95177Y-57027D01*
X94606Y-60531D02*
X94606Y-57598D01*
X95177Y-61102D02*
X94606Y-60531D01*
X95177Y-56889D02*
X95177Y-57027D01*
X95177Y-61909D02*
X95177Y-61574D01*
X95324Y-61909D02*
X95324Y-61722D01*
X95374Y-57401D02*
X95324Y-57352D01*
X95374Y-61673D02*
X95374Y-57401D01*
X95324Y-61722D02*
X95374Y-61673D01*
X95324Y-57037D02*
X95324Y-57234D01*
X95177Y-62303D02*
X95314Y-62165D01*
X95324Y-62155D02*
X95324Y-61909D01*
X95324Y-57352D02*
X95324Y-57234D01*
X95314Y-62165D02*
X95324Y-62155D01*
X95324Y-57234D02*
X95324Y-57185D01*
X97933Y-58661D02*
X97933Y-61909D01*
X98070Y-62165D02*
X97933Y-62303D01*
X98080Y-62155D02*
X98080Y-58809D01*
X98070Y-62165D02*
X98080Y-62155D01*
X95570Y-57185D02*
X95570Y-57401D01*
X95570Y-61909D02*
X95570Y-57401D01*
X95570Y-57401D02*
X95570Y-57332D01*
X95718Y-61901D02*
X95718Y-61990D01*
X95570Y-62137D02*
X95570Y-62303D01*
X95718Y-61990D02*
X95570Y-62137D01*
X95718Y-61901D02*
X95718Y-57480D01*
X95718Y-57332D02*
X95718Y-57480D01*
X96112Y-57765D02*
X96062Y-57716D01*
X96062Y-57716D02*
X96062Y-57480D01*
X95964Y-62696D02*
X96112Y-62549D01*
X96112Y-62549D02*
X96112Y-57765D01*
X96210Y-62844D02*
X96210Y-57627D01*
X96210Y-62844D02*
X95964Y-63090D01*
X96751Y-61909D02*
X96751Y-58070D01*
X96899Y-62549D02*
X96751Y-62696D01*
X96899Y-58218D02*
X96899Y-62549D01*
X97293Y-62155D02*
X97145Y-62303D01*
X97293Y-58366D02*
X97293Y-62155D01*
X97539Y-61909D02*
X97539Y-61566D01*
X97425Y-58627D02*
X97539Y-58513D01*
X97425Y-61452D02*
X97425Y-58627D01*
X97539Y-61566D02*
X97425Y-61452D01*
X95324Y-64025D02*
X95177Y-63877D01*
X95324Y-64025D02*
X95324Y-71511D01*
X95324Y-71561D02*
X95248Y-71637D01*
X95324Y-71511D02*
X95324Y-71561D01*
X95029Y-71785D02*
X95031Y-71787D01*
X95029Y-70661D02*
X95029Y-71785D01*
X95177Y-63484D02*
X95029Y-63631D01*
X95029Y-63631D02*
X95029Y-70661D01*
X95029Y-70661D02*
X95029Y-70738D01*
X95964Y-61909D02*
X95964Y-62047D01*
X95692Y-71940D02*
X95318Y-71940D01*
X96169Y-71464D02*
X95692Y-71940D01*
X96169Y-66133D02*
X96169Y-71464D01*
X96078Y-66043D02*
X96169Y-66133D01*
X95885Y-66043D02*
X96078Y-66043D01*
X95799Y-65956D02*
X95885Y-66043D01*
X95799Y-62212D02*
X95799Y-65956D01*
X95964Y-62047D02*
X95799Y-62212D01*
X96633Y-63208D02*
X96604Y-63238D01*
X96604Y-63238D02*
X96606Y-70704D01*
X96751Y-63090D02*
X96633Y-63208D01*
X93996Y-63090D02*
X94242Y-62844D01*
X94301Y-59114D02*
X94143Y-58956D01*
X94301Y-59281D02*
X94301Y-59114D01*
X94242Y-59340D02*
X94301Y-59281D01*
X94242Y-62844D02*
X94242Y-59340D01*
X94143Y-62549D02*
X94143Y-59173D01*
X93996Y-62696D02*
X94143Y-62549D01*
X93454Y-57618D02*
X93454Y-57598D01*
X95098Y-55954D02*
X95098Y-55492D01*
X93454Y-57598D02*
X95098Y-55954D01*
X93454Y-62450D02*
X93454Y-57618D01*
X93454Y-62450D02*
X93208Y-62696D01*
X93602Y-57854D02*
X93602Y-57637D01*
X95305Y-55935D02*
X95305Y-55492D01*
X93602Y-57637D02*
X95305Y-55935D01*
X93602Y-61909D02*
X93602Y-57854D01*
X92086Y-56545D02*
X92086Y-56102D01*
X92519Y-55669D02*
X92519Y-55492D01*
X92086Y-56102D02*
X92519Y-55669D01*
X92086Y-60265D02*
X92086Y-56545D01*
X92086Y-56545D02*
X92086Y-56250D01*
X92027Y-61909D02*
X92027Y-60393D01*
X92086Y-60334D02*
X92086Y-60265D01*
X92086Y-60265D02*
X92086Y-60118D01*
X92027Y-60393D02*
X92086Y-60334D01*
X91633Y-56466D02*
X91633Y-56328D01*
X92293Y-55669D02*
X92293Y-55492D01*
X91633Y-56328D02*
X92293Y-55669D01*
X91633Y-61909D02*
X91633Y-56466D01*
X91535Y-56368D02*
X91535Y-56171D01*
X92037Y-55669D02*
X92037Y-55492D01*
X91535Y-56171D02*
X92037Y-55669D01*
X91633Y-62303D02*
X91496Y-62165D01*
X91535Y-59517D02*
X91535Y-56368D01*
X91535Y-56368D02*
X91535Y-56250D01*
X91486Y-59566D02*
X91535Y-59517D01*
X91486Y-62155D02*
X91486Y-59566D01*
X91496Y-62165D02*
X91486Y-62155D01*
X92814Y-56309D02*
X92814Y-56092D01*
X92814Y-56092D02*
X93415Y-55492D01*
X92814Y-61909D02*
X92814Y-56309D01*
X92814Y-56309D02*
X92814Y-56250D01*
X92913Y-56377D02*
X92913Y-56220D01*
X92913Y-56220D02*
X93641Y-55492D01*
X92814Y-62303D02*
X92962Y-62155D01*
X92913Y-60708D02*
X92913Y-56377D01*
X92913Y-56377D02*
X92913Y-56250D01*
X92962Y-60757D02*
X92913Y-60708D01*
X92962Y-62155D02*
X92962Y-60757D01*
X93996Y-57696D02*
X93996Y-57608D01*
X95787Y-55816D02*
X95787Y-55492D01*
X93996Y-57608D02*
X95787Y-55816D01*
X93996Y-61909D02*
X93996Y-57696D01*
X93208Y-57460D02*
X93208Y-56761D01*
X93208Y-56761D02*
X94478Y-55492D01*
X93208Y-61909D02*
X93208Y-57460D01*
X93208Y-57460D02*
X93208Y-57391D01*
X93356Y-57391D02*
X93356Y-56840D01*
X93356Y-56840D02*
X94704Y-55492D01*
X93356Y-62155D02*
X93356Y-57391D01*
X93208Y-62303D02*
X93356Y-62155D01*
X93750Y-57687D02*
X93750Y-57657D01*
X95561Y-55846D02*
X95561Y-55492D01*
X93750Y-57657D02*
X95561Y-55846D01*
X93750Y-62155D02*
X93750Y-57687D01*
X93750Y-62155D02*
X93602Y-62303D01*
X82795Y-67322D02*
X82795Y-60954D01*
G54D10*
X81919Y-58809D02*
X81909Y-58799D01*
X81919Y-58809D02*
X81919Y-59350D01*
X81830Y-67322D02*
X81919Y-67234D01*
X81919Y-67234D02*
X81919Y-59350D01*
X81919Y-59350D02*
X81919Y-59064D01*
G54D30*
X81692Y-66850D02*
X81220Y-67322D01*
X81692Y-60787D02*
X81692Y-66850D01*
G54D10*
X102129Y-69106D02*
X102129Y-62779D01*
X102129Y-69228D02*
X102129Y-69106D01*
G54D30*
X101013Y-69448D02*
X101013Y-69143D01*
X101013Y-69242D02*
X101013Y-69448D01*
X101013Y-69448D02*
X101013Y-71653D01*
X101013Y-71653D02*
X101269Y-71909D01*
X93740Y-69527D02*
X93750Y-69537D01*
X93750Y-69537D02*
X93750Y-70649D01*
X93750Y-70649D02*
X94094Y-70994D01*
X94094Y-70994D02*
X94094Y-72106D01*
X93602Y-69389D02*
X93740Y-69527D01*
X94724Y-72893D02*
X94724Y-70875D01*
X94242Y-69242D02*
X93996Y-68996D01*
X94242Y-70393D02*
X94242Y-69242D01*
X94724Y-70875D02*
X94242Y-70393D01*
X94566Y-73090D02*
X94566Y-70905D01*
X94143Y-69537D02*
X93996Y-69389D01*
X94143Y-70482D02*
X94143Y-69537D01*
X94566Y-70905D02*
X94143Y-70482D01*
X93848Y-69931D02*
X93848Y-70570D01*
X93848Y-70570D02*
X94251Y-70974D01*
X94251Y-70974D02*
X94251Y-73287D01*
X93996Y-69783D02*
X93848Y-69931D01*
X93996Y-70531D02*
X94409Y-70944D01*
X93996Y-70531D02*
X93996Y-70177D01*
X94409Y-73484D02*
X94409Y-70944D01*
G54D10*
X105000Y-73248D02*
X105354Y-72893D01*
X105000Y-75492D02*
X105000Y-73248D01*
X105885Y-72303D02*
X105885Y-75866D01*
G54D31*
X104389Y-73720D02*
X104389Y-74429D01*
X104389Y-74429D02*
X104507Y-74547D01*
X104507Y-74547D02*
X104507Y-76043D01*
X104566Y-73543D02*
X104389Y-73720D01*
G54D10*
X105708Y-72500D02*
X105708Y-75314D01*
X105531Y-75688D02*
X105531Y-72696D01*
X95393Y-38464D02*
X95393Y-37350D01*
X95393Y-39783D02*
X95393Y-38464D01*
X95393Y-38464D02*
X95393Y-38072D01*
X95393Y-50954D02*
X95393Y-39783D01*
X95393Y-39783D02*
X95393Y-39549D01*
G54D30*
X94448Y-51289D02*
X94448Y-47962D01*
X94448Y-47962D02*
X94242Y-47755D01*
G54D10*
X89921Y-43362D02*
X89921Y-36968D01*
X92736Y-51151D02*
X92874Y-51289D01*
X92736Y-51072D02*
X92736Y-51151D01*
X92362Y-45803D02*
X89921Y-43362D01*
X92362Y-49045D02*
X92362Y-46102D01*
X92362Y-46102D02*
X92362Y-45803D01*
X92362Y-50698D02*
X92736Y-51072D01*
X92362Y-48858D02*
X92362Y-49045D01*
X92362Y-49045D02*
X92362Y-50698D01*
X90925Y-44165D02*
X90925Y-36968D01*
X93188Y-51604D02*
X93188Y-51919D01*
X93031Y-51446D02*
X93188Y-51604D01*
X93031Y-51181D02*
X93031Y-51446D01*
X92490Y-50639D02*
X93031Y-51181D01*
X92490Y-45730D02*
X90925Y-44165D01*
X92490Y-46161D02*
X92490Y-49094D01*
X92490Y-46161D02*
X92490Y-45730D01*
X92490Y-48927D02*
X92490Y-49094D01*
X92490Y-49094D02*
X92490Y-50639D01*
X91929Y-44964D02*
X91929Y-36968D01*
X92618Y-50541D02*
X93031Y-50954D01*
X92618Y-45653D02*
X91929Y-44964D01*
X92618Y-46259D02*
X92618Y-45653D01*
X92618Y-49074D02*
X92618Y-46259D01*
X92618Y-46259D02*
X92618Y-46250D01*
X92618Y-48996D02*
X92618Y-49074D01*
X92618Y-49074D02*
X92618Y-50541D01*
X92746Y-41102D02*
X92746Y-37962D01*
X92746Y-37962D02*
X92519Y-37736D01*
X93188Y-50846D02*
X93188Y-51289D01*
X92746Y-50403D02*
X93188Y-50846D01*
X92746Y-40702D02*
X92744Y-40700D01*
X92746Y-49143D02*
X92746Y-46318D01*
X92746Y-46318D02*
X92746Y-41102D01*
X92746Y-41102D02*
X92746Y-40702D01*
X92746Y-49064D02*
X92746Y-49143D01*
X92746Y-49143D02*
X92746Y-50403D01*
X93602Y-40925D02*
X93602Y-37814D01*
X93602Y-37814D02*
X93523Y-37736D01*
X93602Y-40681D02*
X93602Y-40925D01*
X93602Y-40925D02*
X93602Y-43326D01*
X93602Y-47214D02*
X93602Y-50698D01*
X93602Y-50698D02*
X93346Y-50954D01*
X93602Y-43326D02*
X93602Y-47214D01*
X93602Y-47214D02*
X93602Y-47303D01*
X93779Y-41397D02*
X93779Y-38484D01*
X93779Y-38484D02*
X94527Y-37736D01*
X93779Y-41059D02*
X93779Y-41090D01*
X93779Y-47273D02*
X93779Y-50797D01*
X93503Y-51072D02*
X93503Y-51604D01*
X93779Y-50797D02*
X93503Y-51072D01*
X93779Y-41090D02*
X93779Y-41397D01*
X93779Y-41397D02*
X93779Y-47273D01*
X93779Y-47273D02*
X93779Y-47303D01*
X104744Y-36496D02*
X103720Y-36496D01*
X101358Y-36830D02*
X103129Y-36830D01*
X100797Y-37391D02*
X101358Y-36830D01*
X103129Y-36830D02*
X103385Y-36830D01*
X103720Y-36496D02*
X103385Y-36830D01*
X98513Y-50964D02*
X98513Y-41240D01*
X98513Y-40866D02*
X98513Y-39675D01*
X98513Y-39675D02*
X100797Y-37391D01*
X100797Y-37391D02*
X100866Y-37322D01*
X98513Y-40984D02*
X98513Y-40866D01*
X98513Y-41240D02*
X98513Y-40984D01*
X98513Y-40984D02*
X98513Y-40797D01*
X98513Y-41240D02*
X98513Y-40944D01*
X105629Y-36496D02*
X105629Y-36488D01*
X103685Y-36291D02*
X103283Y-36692D01*
X105433Y-36291D02*
X103685Y-36291D01*
X105629Y-36488D02*
X105433Y-36291D01*
X103129Y-36692D02*
X103283Y-36692D01*
X103283Y-36692D02*
X103287Y-36692D01*
X100659Y-37273D02*
X101240Y-36692D01*
X101240Y-36692D02*
X103129Y-36692D01*
X98336Y-41082D02*
X98336Y-39596D01*
X98336Y-39596D02*
X100659Y-37273D01*
X100659Y-37273D02*
X100748Y-37185D01*
X98336Y-51210D02*
X98336Y-51692D01*
X98336Y-50944D02*
X98336Y-51210D01*
X98336Y-40905D02*
X98336Y-40698D01*
X98336Y-40846D02*
X98336Y-40718D01*
X98336Y-50944D02*
X98336Y-41082D01*
X98336Y-41082D02*
X98336Y-40905D01*
X98336Y-40905D02*
X98336Y-40846D01*
X98336Y-40846D02*
X98336Y-40767D01*
X106141Y-36811D02*
X106614Y-36338D01*
X101476Y-36968D02*
X103228Y-36968D01*
X100935Y-37509D02*
X101476Y-36968D01*
X103464Y-36968D02*
X103622Y-36811D01*
X103622Y-36811D02*
X104885Y-36811D01*
X103228Y-36968D02*
X103464Y-36968D01*
X104885Y-36811D02*
X106141Y-36811D01*
X98690Y-41141D02*
X98690Y-39753D01*
X98690Y-39753D02*
X100935Y-37509D01*
X100935Y-37509D02*
X100984Y-37460D01*
X98690Y-40964D02*
X98690Y-40816D01*
X98690Y-41141D02*
X98690Y-40964D01*
X98690Y-40964D02*
X98690Y-40836D01*
X98690Y-51879D02*
X98690Y-50984D01*
X98690Y-51122D02*
X98690Y-50984D01*
X98690Y-50984D02*
X98690Y-41141D01*
X98690Y-41141D02*
X98690Y-41122D01*
X97913Y-52200D02*
X97913Y-54255D01*
X97913Y-51952D02*
X97913Y-52200D01*
X97913Y-51952D02*
X97913Y-39094D01*
X97913Y-39094D02*
X99360Y-37647D01*
X97913Y-54255D02*
X97440Y-54728D01*
X76161Y-59488D02*
X76161Y-57263D01*
X76692Y-56732D02*
X76692Y-55787D01*
X76161Y-57263D02*
X76692Y-56732D01*
X76958Y-55580D02*
X76958Y-56348D01*
X76958Y-56348D02*
X78070Y-57460D01*
X78681Y-65787D02*
X78070Y-65177D01*
X78070Y-65177D02*
X78070Y-57460D01*
X76958Y-55580D02*
X76830Y-55452D01*
X70590Y-58681D02*
X70590Y-54744D01*
X70590Y-54744D02*
X70944Y-54389D01*
G54D30*
X98179Y-66092D02*
X98179Y-59901D01*
X98179Y-59901D02*
X98248Y-59832D01*
X98248Y-59832D02*
X98248Y-59724D01*
X98179Y-66092D02*
X98326Y-66240D01*
X86870Y-59537D02*
X86870Y-59360D01*
X91387Y-62844D02*
X91387Y-59360D01*
X91387Y-62844D02*
X91633Y-63090D01*
X91496Y-62952D02*
X91633Y-63090D01*
X91496Y-62952D02*
X91486Y-62942D01*
X86751Y-61948D02*
X86870Y-61830D01*
X86870Y-61830D02*
X86870Y-59537D01*
X86870Y-59537D02*
X86870Y-59429D01*
X92500Y-59655D02*
X92500Y-59527D01*
X92814Y-64271D02*
X92568Y-64025D01*
X92500Y-60600D02*
X92500Y-59655D01*
X92500Y-59655D02*
X92500Y-59557D01*
X92568Y-60669D02*
X92500Y-60600D01*
X92568Y-64025D02*
X92568Y-60669D01*
X87037Y-62253D02*
X87194Y-62096D01*
X87194Y-62096D02*
X87194Y-59527D01*
G54D10*
X85728Y-64507D02*
X85728Y-63877D01*
X85728Y-63877D02*
X85511Y-63661D01*
G54D30*
X84143Y-60570D02*
X84143Y-62057D01*
X84488Y-62401D02*
X84143Y-62057D01*
X93070Y-63740D02*
X93208Y-63877D01*
X93061Y-63730D02*
X93061Y-60570D01*
X93070Y-63740D02*
X93061Y-63730D01*
X86200Y-63425D02*
X86200Y-63011D01*
X86200Y-63366D02*
X86200Y-63425D01*
X86200Y-63425D02*
X86200Y-64547D01*
X86200Y-64547D02*
X86437Y-64783D01*
X84862Y-60374D02*
X84862Y-61948D01*
X92677Y-63740D02*
X92814Y-63877D01*
X92667Y-63730D02*
X92667Y-60374D01*
X92677Y-63740D02*
X92667Y-63730D01*
X85846Y-63366D02*
X85846Y-62795D01*
X85846Y-62795D02*
X86072Y-62568D01*
X86072Y-62568D02*
X86407Y-62234D01*
X85698Y-67303D02*
X85698Y-66899D01*
X85629Y-66594D02*
X85807Y-66417D01*
X85629Y-66830D02*
X85629Y-66594D01*
X85698Y-66899D02*
X85629Y-66830D01*
X85698Y-69320D02*
X85531Y-69488D01*
X85698Y-67116D02*
X85698Y-67303D01*
X85698Y-67303D02*
X85698Y-69320D01*
X85157Y-69015D02*
X85157Y-69005D01*
X85000Y-68848D02*
X85000Y-65925D01*
X85157Y-69005D02*
X85000Y-68848D01*
X91624Y-66633D02*
X91633Y-66633D01*
X87667Y-68848D02*
X87667Y-69104D01*
X87667Y-69104D02*
X87598Y-69173D01*
X87667Y-66427D02*
X87667Y-68848D01*
X87667Y-68848D02*
X87667Y-68927D01*
X86092Y-67629D02*
X86092Y-67690D01*
X85952Y-68338D02*
X86092Y-68478D01*
X85952Y-67830D02*
X85952Y-68338D01*
X86092Y-67690D02*
X85952Y-67830D01*
X86092Y-69094D02*
X86092Y-68478D01*
X86092Y-69094D02*
X86092Y-69438D01*
X86092Y-69438D02*
X86299Y-69645D01*
X86299Y-69645D02*
X86417Y-69645D01*
X86092Y-67629D02*
X86092Y-66476D01*
X86092Y-66476D02*
X86200Y-66368D01*
X86574Y-66358D02*
X86574Y-65925D01*
X86732Y-69015D02*
X86574Y-68858D01*
X86574Y-68858D02*
X86574Y-66358D01*
X86574Y-66358D02*
X86574Y-66151D01*
X85531Y-69173D02*
X85354Y-68996D01*
X85413Y-66102D02*
X85413Y-65925D01*
X85354Y-66161D02*
X85413Y-66102D01*
X85354Y-68996D02*
X85354Y-66161D01*
X79783Y-65708D02*
X79783Y-65816D01*
X79783Y-64045D02*
X79783Y-65708D01*
X86220Y-49635D02*
X86220Y-49458D01*
X79783Y-50423D02*
X79783Y-64045D01*
X79783Y-64045D02*
X79783Y-64202D01*
X81840Y-48366D02*
X79783Y-50423D01*
X85127Y-48366D02*
X81840Y-48366D01*
X86220Y-49458D02*
X85127Y-48366D01*
X79940Y-64055D02*
X79940Y-65383D01*
X85826Y-49635D02*
X85826Y-49478D01*
X79940Y-50403D02*
X79940Y-64055D01*
X79940Y-64055D02*
X79940Y-64202D01*
X81879Y-48464D02*
X79940Y-50403D01*
X84812Y-48464D02*
X81879Y-48464D01*
X85826Y-49478D02*
X84812Y-48464D01*
X96358Y-57923D02*
X96358Y-61909D01*
X96505Y-62155D02*
X96358Y-62303D01*
X96505Y-57775D02*
X96505Y-62155D01*
X84448Y-49517D02*
X84084Y-49153D01*
X82155Y-49153D02*
X81043Y-50265D01*
X84084Y-49153D02*
X82155Y-49153D01*
X81043Y-63031D02*
X81043Y-50265D01*
X84645Y-49635D02*
X84645Y-49488D01*
X84645Y-49488D02*
X84212Y-49055D01*
X84212Y-49055D02*
X82116Y-49055D01*
X82116Y-49055D02*
X80885Y-50285D01*
X80885Y-62106D02*
X80885Y-50285D01*
X80098Y-65177D02*
X80098Y-65580D01*
X80098Y-64005D02*
X80098Y-65177D01*
X80098Y-65177D02*
X80098Y-65403D01*
X85629Y-49517D02*
X84704Y-48592D01*
X80098Y-50374D02*
X80098Y-64005D01*
X80098Y-64005D02*
X80098Y-64202D01*
X81909Y-48562D02*
X80098Y-50374D01*
X84675Y-48562D02*
X81909Y-48562D01*
X84704Y-48592D02*
X84675Y-48562D01*
X107746Y-64950D02*
X107746Y-65137D01*
X107746Y-64950D02*
X107746Y-57627D01*
X108041Y-48848D02*
X108503Y-48385D01*
X108041Y-55255D02*
X108041Y-48848D01*
X107795Y-55501D02*
X108041Y-55255D01*
X107795Y-57578D02*
X107795Y-55501D01*
X107746Y-57627D02*
X107795Y-57578D01*
X107362Y-65698D02*
X107362Y-57814D01*
X107677Y-48700D02*
X108503Y-47874D01*
X107677Y-57500D02*
X107677Y-48700D01*
X107362Y-57814D02*
X107677Y-57500D01*
G54D10*
X91236Y-60165D02*
X90472Y-60165D01*
X89401Y-59094D02*
X89401Y-56161D01*
X90472Y-60165D02*
X89401Y-59094D01*
X89767Y-56240D02*
X89767Y-56385D01*
X90712Y-59937D02*
X91232Y-59937D01*
X90062Y-59287D02*
X90712Y-59937D01*
X90062Y-56681D02*
X90062Y-59287D01*
X89767Y-56385D02*
X90062Y-56681D01*
G54D30*
X95078Y-51897D02*
X94940Y-51759D01*
X94940Y-51759D02*
X93716Y-51759D01*
X93716Y-51759D02*
X93661Y-51814D01*
X93661Y-51814D02*
X93661Y-54307D01*
X93661Y-54307D02*
X92740Y-55228D01*
X92740Y-55228D02*
X91964Y-55228D01*
X95078Y-51917D02*
X95078Y-51897D01*
X91854Y-55228D02*
X91602Y-55480D01*
X91964Y-55228D02*
X91854Y-55228D01*
G54D10*
X81653Y-55472D02*
X81653Y-58799D01*
G54D30*
X94901Y-55433D02*
X94901Y-54874D01*
X94606Y-54578D02*
X94606Y-52391D01*
X94901Y-54874D02*
X94606Y-54578D01*
X94901Y-55748D02*
X94744Y-55905D01*
X94901Y-55462D02*
X94901Y-55433D01*
X94606Y-52391D02*
X94448Y-52234D01*
X94901Y-55570D02*
X94901Y-55462D01*
X94901Y-55570D02*
X94901Y-55748D01*
X97897Y-56377D02*
X97897Y-56224D01*
X96633Y-51405D02*
X97163Y-50875D01*
X96633Y-54251D02*
X96633Y-51405D01*
X96968Y-54586D02*
X96633Y-54251D01*
X96968Y-55295D02*
X96968Y-54586D01*
X97897Y-56224D02*
X96968Y-55295D01*
X97732Y-61515D02*
X97594Y-61377D01*
X97732Y-62122D02*
X97732Y-61515D01*
X97551Y-62303D02*
X97732Y-62122D01*
X97539Y-62303D02*
X97551Y-62303D01*
X97696Y-50875D02*
X97163Y-50875D01*
X97594Y-58759D02*
X97897Y-58456D01*
X97594Y-61377D02*
X97594Y-58759D01*
X97897Y-58456D02*
X97897Y-56377D01*
X95423Y-61909D02*
X95423Y-61801D01*
X95472Y-57362D02*
X95423Y-57312D01*
X95472Y-61751D02*
X95472Y-57362D01*
X95423Y-61801D02*
X95472Y-61751D01*
X95423Y-57145D02*
X95423Y-57135D01*
X95423Y-66879D02*
X95570Y-67027D01*
X95423Y-57185D02*
X95423Y-57145D01*
X95423Y-66879D02*
X95423Y-61909D01*
X95423Y-57312D02*
X95423Y-57185D01*
X95574Y-56984D02*
X95724Y-56984D01*
X95423Y-57135D02*
X95574Y-56984D01*
G54D10*
X81417Y-66811D02*
X81417Y-50285D01*
X90236Y-57539D02*
X90236Y-57862D01*
X90236Y-57862D02*
X91358Y-58984D01*
X90236Y-51141D02*
X90236Y-57539D01*
G54D30*
X94763Y-50433D02*
X94763Y-49732D01*
X94763Y-49732D02*
X94751Y-49720D01*
X94763Y-50330D02*
X94763Y-50307D01*
X94763Y-49732D02*
X94751Y-49720D01*
X95816Y-61992D02*
X95816Y-62025D01*
X95712Y-66381D02*
X95736Y-66405D01*
X95712Y-62129D02*
X95712Y-66381D01*
X95816Y-62025D02*
X95712Y-62129D01*
X95736Y-66405D02*
X95964Y-66633D01*
X96318Y-55744D02*
X96318Y-56397D01*
X96318Y-56397D02*
X95895Y-56820D01*
X94448Y-51604D02*
X94606Y-51446D01*
X94606Y-51446D02*
X94606Y-51210D01*
X94606Y-51210D02*
X94763Y-51053D01*
X94763Y-51053D02*
X94763Y-50433D01*
X94763Y-50433D02*
X94763Y-50330D01*
X96318Y-49753D02*
X96318Y-49911D01*
X95816Y-61992D02*
X95816Y-57568D01*
X95816Y-57568D02*
X95895Y-57490D01*
X95895Y-57490D02*
X95895Y-56820D01*
X96318Y-55744D02*
X96318Y-49911D01*
X96318Y-49911D02*
X96318Y-49862D01*
X94960Y-61496D02*
X94960Y-61122D01*
X94488Y-57307D02*
X95261Y-56533D01*
X94488Y-60649D02*
X94488Y-57307D01*
X94960Y-61122D02*
X94488Y-60649D01*
X94279Y-52086D02*
X94279Y-52088D01*
X94279Y-52088D02*
X94133Y-52234D01*
X95177Y-63082D02*
X94960Y-62866D01*
X95177Y-63090D02*
X95177Y-63082D01*
X94960Y-62866D02*
X94960Y-61496D01*
X95984Y-56070D02*
X95984Y-55476D01*
X95850Y-56204D02*
X95984Y-56070D01*
X94866Y-52086D02*
X94917Y-52137D01*
X94917Y-52137D02*
X94917Y-54409D01*
X94917Y-54409D02*
X95984Y-55476D01*
X94279Y-52086D02*
X94866Y-52086D01*
X95517Y-56533D02*
X95850Y-56200D01*
X95850Y-56200D02*
X95850Y-56204D01*
X95261Y-56533D02*
X95517Y-56533D01*
X94285Y-52082D02*
X94291Y-52082D01*
X94279Y-52088D02*
X94285Y-52082D01*
X94133Y-52234D02*
X94133Y-52232D01*
X94133Y-52234D02*
X94139Y-52234D01*
X88641Y-50433D02*
X88641Y-47539D01*
X89881Y-50925D02*
X89881Y-48543D01*
X89448Y-53377D02*
X89448Y-52629D01*
X89267Y-51145D02*
X89448Y-50964D01*
X89267Y-52448D02*
X89267Y-51145D01*
X89448Y-52629D02*
X89267Y-52448D01*
X89625Y-56555D02*
X89625Y-53562D01*
X89448Y-50964D02*
X89645Y-50767D01*
X89448Y-53385D02*
X89448Y-53377D01*
X89625Y-53562D02*
X89448Y-53385D01*
X89645Y-48041D02*
X89645Y-50767D01*
X95964Y-62303D02*
X95964Y-62346D01*
X84055Y-49517D02*
X84045Y-49517D01*
X95236Y-49527D02*
X94763Y-49055D01*
X95236Y-49527D02*
X95236Y-49763D01*
G54D10*
X75629Y-52677D02*
X75629Y-52480D01*
X75629Y-52480D02*
X79039Y-49070D01*
X79645Y-49070D02*
X79039Y-49070D01*
X75039Y-54665D02*
X75196Y-54665D01*
X74980Y-54606D02*
X75039Y-54665D01*
X74980Y-54015D02*
X74980Y-54606D01*
X75629Y-53366D02*
X74980Y-54015D01*
X75629Y-52677D02*
X75629Y-53366D01*
G54D30*
X95236Y-49881D02*
X95236Y-49763D01*
X95078Y-53494D02*
X95236Y-53336D01*
X95236Y-53336D02*
X95236Y-49881D01*
X95236Y-49881D02*
X95236Y-49773D01*
X95840Y-50092D02*
X95840Y-49610D01*
X95840Y-49610D02*
X95551Y-49320D01*
G54D10*
X79649Y-49527D02*
X78779Y-49527D01*
X75196Y-54074D02*
X75196Y-54429D01*
X76102Y-53169D02*
X75196Y-54074D01*
X76102Y-52204D02*
X76102Y-53169D01*
X78779Y-49527D02*
X76102Y-52204D01*
G54D30*
X95840Y-50092D02*
X95551Y-50381D01*
X95236Y-53651D02*
X95501Y-53651D01*
X95078Y-53809D02*
X95236Y-53651D01*
X95551Y-53248D02*
X95551Y-50381D01*
X95501Y-53651D02*
X95551Y-53602D01*
X95551Y-53602D02*
X95551Y-53248D01*
X96614Y-71318D02*
X96417Y-71122D01*
X96417Y-71122D02*
X96417Y-70413D01*
X96417Y-70413D02*
X96515Y-70314D01*
X96515Y-70314D02*
X96515Y-62539D01*
X96751Y-62303D02*
X96515Y-62539D01*
X96614Y-72488D02*
X96614Y-71318D01*
X96614Y-72488D02*
X96614Y-72661D01*
G54D31*
X101023Y-50984D02*
X101023Y-49370D01*
X101023Y-49370D02*
X101240Y-49153D01*
G54D10*
X89271Y-72253D02*
X89271Y-71976D01*
X89271Y-71976D02*
X89381Y-71866D01*
X89281Y-71326D02*
X89281Y-71466D01*
X89381Y-71866D02*
X89281Y-71966D01*
X89381Y-71566D02*
X89381Y-71866D01*
X89281Y-71466D02*
X89381Y-71566D01*
X89281Y-71326D02*
X89281Y-70620D01*
X89281Y-70620D02*
X89291Y-70610D01*
G54D30*
X96948Y-70456D02*
X96948Y-66830D01*
X96948Y-66830D02*
X96751Y-66633D01*
X97240Y-70748D02*
X96948Y-70456D01*
X97240Y-71519D02*
X97240Y-70748D01*
G54D10*
X88311Y-71547D02*
X88311Y-72759D01*
X88311Y-72759D02*
X88799Y-73248D01*
X88897Y-73346D02*
X88799Y-73248D01*
X88897Y-73346D02*
X88897Y-73779D01*
X88897Y-73464D02*
X88897Y-73779D01*
X88897Y-73779D02*
X88897Y-80393D01*
X109498Y-49911D02*
X109498Y-49921D01*
X109635Y-66860D02*
X109094Y-67401D01*
X109635Y-64389D02*
X109635Y-66860D01*
X110098Y-63927D02*
X109635Y-64389D01*
X110098Y-50521D02*
X110098Y-63927D01*
X109498Y-49921D02*
X110098Y-50521D01*
G54D30*
X98830Y-52106D02*
X98690Y-52106D01*
X98690Y-52106D02*
X98080Y-52716D01*
X98080Y-58051D02*
X99488Y-59458D01*
X98080Y-52716D02*
X98080Y-58051D01*
X99488Y-59458D02*
X99488Y-66633D01*
G54D10*
X112007Y-56161D02*
X112007Y-66633D01*
G54D30*
X98937Y-54409D02*
X98937Y-57923D01*
X98937Y-57923D02*
X101003Y-59990D01*
X101003Y-59990D02*
X101003Y-66633D01*
X99291Y-54055D02*
X98937Y-54409D01*
X98858Y-53287D02*
X98641Y-53287D01*
X98533Y-53395D02*
X98533Y-57942D01*
X98641Y-53287D02*
X98533Y-53395D01*
X100354Y-59763D02*
X100354Y-66633D01*
X98533Y-57942D02*
X100354Y-59763D01*
X98297Y-52893D02*
X98297Y-57992D01*
X98690Y-52500D02*
X98297Y-52893D01*
X98297Y-57992D02*
X99921Y-59616D01*
X99921Y-59616D02*
X99921Y-66633D01*
X98645Y-52303D02*
X98204Y-52744D01*
X98858Y-52303D02*
X98645Y-52303D01*
X99624Y-59446D02*
X99728Y-59551D01*
X98204Y-57826D02*
X98204Y-58027D01*
X98204Y-52744D02*
X98204Y-57826D01*
X98204Y-58027D02*
X99624Y-59446D01*
X99624Y-59446D02*
X99625Y-59448D01*
X99728Y-66448D02*
X99728Y-66622D01*
X99728Y-59551D02*
X99728Y-66448D01*
X99728Y-66622D02*
X99716Y-66633D01*
X98690Y-53090D02*
X98425Y-53356D01*
X98425Y-53356D02*
X98425Y-57982D01*
X100137Y-59694D02*
X100137Y-66633D01*
X98425Y-57982D02*
X100137Y-59694D01*
X99385Y-62803D02*
X99385Y-62665D01*
X99385Y-62665D02*
X99007Y-62287D01*
X97933Y-66240D02*
X97937Y-66240D01*
X99385Y-64413D02*
X99385Y-62803D01*
X98862Y-64937D02*
X99385Y-64413D01*
X98862Y-66015D02*
X98862Y-64937D01*
X98385Y-66492D02*
X98862Y-66015D01*
X98188Y-66492D02*
X98385Y-66492D01*
X97937Y-66240D02*
X98188Y-66492D01*
X109251Y-63858D02*
X109251Y-64685D01*
X109251Y-63858D02*
X109251Y-59133D01*
X109251Y-59133D02*
X109015Y-58897D01*
G54D10*
X111712Y-63395D02*
X111712Y-55157D01*
X111712Y-55157D02*
X111712Y-50620D01*
X110767Y-50137D02*
X110511Y-49881D01*
X111230Y-50137D02*
X110767Y-50137D01*
X111712Y-50620D02*
X111230Y-50137D01*
G54D30*
X108503Y-57913D02*
X108503Y-58149D01*
X108622Y-61456D02*
X108297Y-61781D01*
X108622Y-58267D02*
X108622Y-61456D01*
X108503Y-58149D02*
X108622Y-58267D01*
X107903Y-64675D02*
X107903Y-58011D01*
X107903Y-58011D02*
X107903Y-56505D01*
X107903Y-56505D02*
X108503Y-55905D01*
X107903Y-58366D02*
X107903Y-58011D01*
X108415Y-64675D02*
X108415Y-64537D01*
X108366Y-63228D02*
X108838Y-62755D01*
X108366Y-64488D02*
X108366Y-63228D01*
X108415Y-64537D02*
X108366Y-64488D01*
X109015Y-57194D02*
X109183Y-57027D01*
X109183Y-57027D02*
X109183Y-47834D01*
X109183Y-47834D02*
X108986Y-47637D01*
X108986Y-47637D02*
X108385Y-47637D01*
X108385Y-47637D02*
X108149Y-47401D01*
X109015Y-57194D02*
X109015Y-57913D01*
X109015Y-57913D02*
X108838Y-58090D01*
X108838Y-58090D02*
X108838Y-62755D01*
X108061Y-64271D02*
X108061Y-58602D01*
X108799Y-56122D02*
X108484Y-56122D01*
X108484Y-56122D02*
X108248Y-56358D01*
X108248Y-56358D02*
X108248Y-58415D01*
X108248Y-58415D02*
X108061Y-58602D01*
X109015Y-55905D02*
X108799Y-56122D01*
X99094Y-64429D02*
X99078Y-64429D01*
X98673Y-64834D02*
X98673Y-65500D01*
X99078Y-64429D02*
X98673Y-64834D01*
X98673Y-65500D02*
X98326Y-65846D01*
X98690Y-57952D02*
X100570Y-59832D01*
X100570Y-59832D02*
X100570Y-66633D01*
X98690Y-53484D02*
X98690Y-57952D01*
X100787Y-59911D02*
X100787Y-66633D01*
X98838Y-57962D02*
X100787Y-59911D01*
X98838Y-53700D02*
X98858Y-53681D01*
X98838Y-57962D02*
X98838Y-53700D01*
X108248Y-65413D02*
X108248Y-66594D01*
X108740Y-57677D02*
X108740Y-56614D01*
X108740Y-57677D02*
X108740Y-62657D01*
X108248Y-65413D02*
X108248Y-63149D01*
X108740Y-56614D02*
X108503Y-56377D01*
X108248Y-63149D02*
X108740Y-62657D01*
X108248Y-66594D02*
X108484Y-66830D01*
G54D10*
X112401Y-56653D02*
X112401Y-67145D01*
G54D30*
X109645Y-63070D02*
X109645Y-51555D01*
X109645Y-51555D02*
X109507Y-51417D01*
G54D10*
X109448Y-66456D02*
X109448Y-54901D01*
X109448Y-54901D02*
X109468Y-54881D01*
X110748Y-63720D02*
X110748Y-59133D01*
X110748Y-59133D02*
X110511Y-58897D01*
X112204Y-57677D02*
X112204Y-66456D01*
X92539Y-52076D02*
X92017Y-51555D01*
X92017Y-50856D02*
X92086Y-50787D01*
X92017Y-51555D02*
X92017Y-50856D01*
X98551Y-52039D02*
X98381Y-52039D01*
X98381Y-52039D02*
X98129Y-51787D01*
X103082Y-35472D02*
X102992Y-35472D01*
X102913Y-35551D02*
X102185Y-35551D01*
X102992Y-35472D02*
X102913Y-35551D01*
X102185Y-35551D02*
X101240Y-36496D01*
X101240Y-36496D02*
X100728Y-37007D01*
X98129Y-41102D02*
X98129Y-39606D01*
X98129Y-39606D02*
X100728Y-37007D01*
X98129Y-51545D02*
X98129Y-51787D01*
X98129Y-51545D02*
X98129Y-41102D01*
X100728Y-37007D02*
X100767Y-36968D01*
X72066Y-56535D02*
X72066Y-57893D01*
X72066Y-57893D02*
X70944Y-59015D01*
G54D30*
X98322Y-70614D02*
X98322Y-70456D01*
X98322Y-70456D02*
X98141Y-70275D01*
X98141Y-70275D02*
X98141Y-69574D01*
X98141Y-69574D02*
X98326Y-69389D01*
G54D10*
X102706Y-70433D02*
X102657Y-70482D01*
X102706Y-67312D02*
X102706Y-70433D01*
X102509Y-67116D02*
X102706Y-67312D01*
X102509Y-62647D02*
X102509Y-67116D01*
X110295Y-58405D02*
X110295Y-58395D01*
X110295Y-57972D02*
X110295Y-58395D01*
X110295Y-58395D02*
X110295Y-60413D01*
X110295Y-58188D02*
X110295Y-57972D01*
X110295Y-57972D02*
X110295Y-47539D01*
X110295Y-47539D02*
X110157Y-47401D01*
X102303Y-55324D02*
X100826Y-53848D01*
X102303Y-70482D02*
X102303Y-55324D01*
X100826Y-53848D02*
X100826Y-45712D01*
X100826Y-45641D02*
X100665Y-45480D01*
X100826Y-45712D02*
X100826Y-45641D01*
X100639Y-45649D02*
X100614Y-45649D01*
X100614Y-45649D02*
X100244Y-45279D01*
X101771Y-71131D02*
X101771Y-58425D01*
X100639Y-53858D02*
X100639Y-45649D01*
X102155Y-55374D02*
X100639Y-53858D01*
X102155Y-58041D02*
X102155Y-55374D01*
X101771Y-58425D02*
X102155Y-58041D01*
G54D30*
X101220Y-64200D02*
X101425Y-63996D01*
X101425Y-63996D02*
X101425Y-60220D01*
X101425Y-60220D02*
X99078Y-57874D01*
X99078Y-57874D02*
X99078Y-54661D01*
X99078Y-54661D02*
X99484Y-54255D01*
X99484Y-54255D02*
X99484Y-44527D01*
X99484Y-44527D02*
X99196Y-44240D01*
X101220Y-71622D02*
X101220Y-64200D01*
G54D32*
X90059Y-62303D02*
X90255Y-62500D01*
X91043Y-62893D02*
X91240Y-63090D01*
X91043Y-62578D02*
X91043Y-62893D01*
X90964Y-62500D02*
X91043Y-62578D01*
X90255Y-62500D02*
X90964Y-62500D01*
X91240Y-65059D02*
X91043Y-65059D01*
X90846Y-67027D02*
X91043Y-67027D01*
X90452Y-63877D02*
X90649Y-63681D01*
X90649Y-63681D02*
X91043Y-63681D01*
X91240Y-66240D02*
X91043Y-66240D01*
X91240Y-65846D02*
X91043Y-65846D01*
X91240Y-67814D02*
X91043Y-67814D01*
X91240Y-63484D02*
X91043Y-63681D01*
X91043Y-63681D02*
X91043Y-65059D01*
X91043Y-65059D02*
X91043Y-65846D01*
X91043Y-65846D02*
X91043Y-66240D01*
X91043Y-66240D02*
X91043Y-67027D01*
X91043Y-67027D02*
X91043Y-67814D01*
X91043Y-68405D02*
X91240Y-68602D01*
X91043Y-67814D02*
X91043Y-68405D01*
X91240Y-63090D02*
X91240Y-63484D01*
G54D31*
X110112Y-43163D02*
X109251Y-42303D01*
X104625Y-36102D02*
X103681Y-35157D01*
X108503Y-36102D02*
X104625Y-36102D01*
X109251Y-36850D02*
X108503Y-36102D01*
X109251Y-42303D02*
X109251Y-36850D01*
G54D10*
X102500Y-71555D02*
X102263Y-71791D01*
X102263Y-71791D02*
X101968Y-72086D01*
X102500Y-70629D02*
X102500Y-71555D01*
G54D30*
X102500Y-70629D02*
X102500Y-67962D01*
G54D10*
X101889Y-80728D02*
X101889Y-81082D01*
X101968Y-72086D02*
X101889Y-72165D01*
X101889Y-72165D02*
X101889Y-80728D01*
X101889Y-80728D02*
X101889Y-80885D01*
X102696Y-73248D02*
X102401Y-73543D01*
X102401Y-73543D02*
X102401Y-79921D01*
X102696Y-71338D02*
X102696Y-73248D01*
X102401Y-81771D02*
X102401Y-79921D01*
X102893Y-80216D02*
X102893Y-81259D01*
X102893Y-70482D02*
X102893Y-80216D01*
X102893Y-80216D02*
X102893Y-80236D01*
G54D30*
X102893Y-69301D02*
X102893Y-70482D01*
X103287Y-68129D02*
X103287Y-68236D01*
X103500Y-70059D02*
X103287Y-70271D01*
X103500Y-68448D02*
X103500Y-70059D01*
X103287Y-68236D02*
X103500Y-68448D01*
X103287Y-70271D02*
X103287Y-73464D01*
X103287Y-73464D02*
X103681Y-73858D01*
X104074Y-71751D02*
X103877Y-71555D01*
X103877Y-71555D02*
X103877Y-71161D01*
X103877Y-71161D02*
X104114Y-70925D01*
X104074Y-73858D02*
X104074Y-71751D01*
X104114Y-70925D02*
X104114Y-67667D01*
G54D32*
X92027Y-65846D02*
X91830Y-65846D01*
X91633Y-65059D02*
X91830Y-65255D01*
X91830Y-65255D02*
X91830Y-65846D01*
X91830Y-65846D02*
X91830Y-66240D01*
X91830Y-66240D02*
X91830Y-67224D01*
X91437Y-67224D02*
X91830Y-67224D01*
X91830Y-67224D02*
X91830Y-67618D01*
X91633Y-66240D02*
X91830Y-66240D01*
X91240Y-67027D02*
X91437Y-67224D01*
X91830Y-67618D02*
X91633Y-67814D01*
G54D10*
X88877Y-72578D02*
X88877Y-70019D01*
X88877Y-70019D02*
X89074Y-69822D01*
X88887Y-70009D02*
X89074Y-69822D01*
G54D30*
X91781Y-69635D02*
X91781Y-70383D01*
X91781Y-70383D02*
X91722Y-70442D01*
X91722Y-70442D02*
X91722Y-71161D01*
X91781Y-69635D02*
X92027Y-69389D01*
X92746Y-71259D02*
X92746Y-72096D01*
X92746Y-71259D02*
X92568Y-71082D01*
X92814Y-68602D02*
X92568Y-68848D01*
X92746Y-71259D02*
X92746Y-71870D01*
X92568Y-71082D02*
X92746Y-71259D01*
X92568Y-68848D02*
X92568Y-71082D01*
G54D31*
X81220Y-60039D02*
X81220Y-55708D01*
X73389Y-60043D02*
X73389Y-61653D01*
X73389Y-60043D02*
X73385Y-60039D01*
X73389Y-61968D02*
X73389Y-61653D01*
X73389Y-63346D02*
X73389Y-70913D01*
G54D32*
X73389Y-70913D02*
X72165Y-72137D01*
X72165Y-72137D02*
X72165Y-72507D01*
X72039Y-78527D02*
X71842Y-78724D01*
X71842Y-78724D02*
X71173Y-78724D01*
X72165Y-72507D02*
X72165Y-72948D01*
X72039Y-73074D02*
X72039Y-78338D01*
X72165Y-72948D02*
X72039Y-73074D01*
X72039Y-78338D02*
X72039Y-78527D01*
G54D31*
X73389Y-63346D02*
X73389Y-61968D01*
X73389Y-61653D02*
X73389Y-61334D01*
G54D30*
X92354Y-71318D02*
X92354Y-71177D01*
X92293Y-69911D02*
X92273Y-69931D01*
X92293Y-69911D02*
X92421Y-69783D01*
X92273Y-69931D02*
X92273Y-71096D01*
X92354Y-71318D02*
X92354Y-71602D01*
X92354Y-71177D02*
X92273Y-71096D01*
X90600Y-69933D02*
X90600Y-69931D01*
X90600Y-69931D02*
X90452Y-69783D01*
X90305Y-71377D02*
X90305Y-71023D01*
X90305Y-71023D02*
X90600Y-70728D01*
X90600Y-70728D02*
X90600Y-69933D01*
G54D10*
X89488Y-72814D02*
X89488Y-73169D01*
X89488Y-73169D02*
X89271Y-73385D01*
X89488Y-72814D02*
X89488Y-71574D01*
X89488Y-71574D02*
X89783Y-71279D01*
X89783Y-71279D02*
X89783Y-70433D01*
G54D30*
X92421Y-68602D02*
X92175Y-68848D01*
X92175Y-71358D02*
X92194Y-71377D01*
X92175Y-68848D02*
X92175Y-71358D01*
G54D10*
G36*
X91318Y-68877D02*
X91315Y-68877D01*
X91267Y-68858D01*
X91212Y-68858D01*
X91165Y-68877D01*
X90984Y-68877D01*
X90984Y-68575D01*
X90984Y-68181D01*
X90984Y-67787D01*
X90984Y-67393D01*
X90984Y-66606D01*
X90984Y-66212D01*
X90984Y-65819D01*
X90963Y-65768D01*
X90924Y-65729D01*
X90873Y-65708D01*
X90819Y-65708D01*
X90768Y-65729D01*
X90729Y-65768D01*
X90708Y-65818D01*
X90708Y-65873D01*
X90729Y-65924D01*
X90768Y-65963D01*
X90818Y-65984D01*
X90873Y-65984D01*
X90924Y-65963D01*
X90963Y-65924D01*
X90984Y-65873D01*
X90984Y-65819D01*
X90984Y-66212D01*
X90963Y-66162D01*
X90924Y-66123D01*
X90873Y-66102D01*
X90819Y-66102D01*
X90768Y-66123D01*
X90729Y-66162D01*
X90708Y-66212D01*
X90708Y-66267D01*
X90729Y-66318D01*
X90768Y-66356D01*
X90818Y-66377D01*
X90873Y-66377D01*
X90924Y-66357D01*
X90963Y-66318D01*
X90984Y-66267D01*
X90984Y-66212D01*
X90984Y-66606D01*
X90963Y-66555D01*
X90924Y-66517D01*
X90873Y-66496D01*
X90819Y-66496D01*
X90768Y-66516D01*
X90729Y-66555D01*
X90708Y-66606D01*
X90708Y-66661D01*
X90729Y-66711D01*
X90768Y-66750D01*
X90818Y-66771D01*
X90873Y-66771D01*
X90924Y-66750D01*
X90963Y-66712D01*
X90984Y-66661D01*
X90984Y-66606D01*
X90984Y-67393D01*
X90963Y-67343D01*
X90924Y-67304D01*
X90873Y-67283D01*
X90819Y-67283D01*
X90768Y-67304D01*
X90729Y-67343D01*
X90708Y-67393D01*
X90708Y-67448D01*
X90729Y-67499D01*
X90768Y-67538D01*
X90818Y-67559D01*
X90873Y-67559D01*
X90924Y-67538D01*
X90963Y-67499D01*
X90984Y-67448D01*
X90984Y-67393D01*
X90984Y-67787D01*
X90963Y-67737D01*
X90924Y-67698D01*
X90873Y-67677D01*
X90819Y-67677D01*
X90768Y-67698D01*
X90729Y-67736D01*
X90708Y-67787D01*
X90708Y-67842D01*
X90729Y-67892D01*
X90768Y-67931D01*
X90818Y-67952D01*
X90873Y-67952D01*
X90924Y-67931D01*
X90963Y-67893D01*
X90984Y-67842D01*
X90984Y-67787D01*
X90984Y-68181D01*
X90963Y-68130D01*
X90924Y-68091D01*
X90873Y-68070D01*
X90819Y-68070D01*
X90768Y-68091D01*
X90729Y-68130D01*
X90708Y-68181D01*
X90708Y-68235D01*
X90729Y-68286D01*
X90768Y-68325D01*
X90818Y-68346D01*
X90873Y-68346D01*
X90924Y-68325D01*
X90963Y-68286D01*
X90984Y-68236D01*
X90984Y-68181D01*
X90984Y-68575D01*
X90963Y-68524D01*
X90924Y-68485D01*
X90873Y-68464D01*
X90819Y-68464D01*
X90768Y-68485D01*
X90729Y-68524D01*
X90708Y-68574D01*
X90708Y-68629D01*
X90729Y-68680D01*
X90768Y-68719D01*
X90818Y-68740D01*
X90873Y-68740D01*
X90924Y-68719D01*
X90963Y-68680D01*
X90984Y-68629D01*
X90984Y-68575D01*
X90984Y-68877D01*
X90921Y-68877D01*
X90873Y-68858D01*
X90819Y-68858D01*
X90771Y-68877D01*
X90590Y-68877D01*
X90590Y-68575D01*
X90590Y-68181D01*
X90590Y-67787D01*
X90590Y-67393D01*
X90590Y-67000D01*
X90590Y-66606D01*
X90590Y-66212D01*
X90590Y-65819D01*
X90569Y-65768D01*
X90530Y-65729D01*
X90480Y-65708D01*
X90425Y-65708D01*
X90374Y-65729D01*
X90336Y-65768D01*
X90314Y-65818D01*
X90314Y-65873D01*
X90335Y-65924D01*
X90374Y-65963D01*
X90425Y-65984D01*
X90480Y-65984D01*
X90530Y-65963D01*
X90569Y-65924D01*
X90590Y-65873D01*
X90590Y-65819D01*
X90590Y-66212D01*
X90569Y-66162D01*
X90530Y-66123D01*
X90480Y-66102D01*
X90425Y-66102D01*
X90374Y-66123D01*
X90336Y-66162D01*
X90314Y-66212D01*
X90314Y-66267D01*
X90335Y-66318D01*
X90374Y-66356D01*
X90425Y-66377D01*
X90480Y-66377D01*
X90530Y-66357D01*
X90569Y-66318D01*
X90590Y-66267D01*
X90590Y-66212D01*
X90590Y-66606D01*
X90569Y-66555D01*
X90530Y-66517D01*
X90480Y-66496D01*
X90425Y-66496D01*
X90374Y-66516D01*
X90336Y-66555D01*
X90314Y-66606D01*
X90314Y-66661D01*
X90335Y-66711D01*
X90374Y-66750D01*
X90425Y-66771D01*
X90480Y-66771D01*
X90530Y-66750D01*
X90569Y-66712D01*
X90590Y-66661D01*
X90590Y-66606D01*
X90590Y-67000D01*
X90569Y-66949D01*
X90530Y-66910D01*
X90480Y-66889D01*
X90425Y-66889D01*
X90374Y-66910D01*
X90336Y-66949D01*
X90314Y-67000D01*
X90314Y-67054D01*
X90335Y-67105D01*
X90374Y-67144D01*
X90425Y-67165D01*
X90480Y-67165D01*
X90530Y-67144D01*
X90569Y-67105D01*
X90590Y-67055D01*
X90590Y-67000D01*
X90590Y-67393D01*
X90569Y-67343D01*
X90530Y-67304D01*
X90480Y-67283D01*
X90425Y-67283D01*
X90374Y-67304D01*
X90336Y-67343D01*
X90314Y-67393D01*
X90314Y-67448D01*
X90335Y-67499D01*
X90374Y-67538D01*
X90425Y-67559D01*
X90480Y-67559D01*
X90530Y-67538D01*
X90569Y-67499D01*
X90590Y-67448D01*
X90590Y-67393D01*
X90590Y-67787D01*
X90569Y-67737D01*
X90530Y-67698D01*
X90480Y-67677D01*
X90425Y-67677D01*
X90374Y-67698D01*
X90336Y-67736D01*
X90314Y-67787D01*
X90314Y-67842D01*
X90335Y-67892D01*
X90374Y-67931D01*
X90425Y-67952D01*
X90480Y-67952D01*
X90530Y-67931D01*
X90569Y-67893D01*
X90590Y-67842D01*
X90590Y-67787D01*
X90590Y-68181D01*
X90569Y-68130D01*
X90530Y-68091D01*
X90480Y-68070D01*
X90425Y-68070D01*
X90374Y-68091D01*
X90336Y-68130D01*
X90314Y-68181D01*
X90314Y-68235D01*
X90335Y-68286D01*
X90374Y-68325D01*
X90425Y-68346D01*
X90480Y-68346D01*
X90530Y-68325D01*
X90569Y-68286D01*
X90590Y-68236D01*
X90590Y-68181D01*
X90590Y-68575D01*
X90569Y-68524D01*
X90530Y-68485D01*
X90480Y-68464D01*
X90425Y-68464D01*
X90374Y-68485D01*
X90336Y-68524D01*
X90314Y-68574D01*
X90314Y-68629D01*
X90335Y-68680D01*
X90374Y-68719D01*
X90425Y-68740D01*
X90480Y-68740D01*
X90530Y-68719D01*
X90569Y-68680D01*
X90590Y-68629D01*
X90590Y-68575D01*
X90590Y-68877D01*
X90527Y-68877D01*
X90480Y-68858D01*
X90425Y-68858D01*
X90377Y-68877D01*
X90177Y-68877D01*
X90177Y-68677D01*
X90196Y-68629D01*
X90196Y-68575D01*
X90177Y-68527D01*
X90177Y-68283D01*
X90196Y-68236D01*
X90196Y-68181D01*
X90177Y-68133D01*
X90177Y-67889D01*
X90196Y-67842D01*
X90196Y-67787D01*
X90177Y-67739D01*
X90177Y-67496D01*
X90196Y-67448D01*
X90196Y-67393D01*
X90177Y-67346D01*
X90177Y-67102D01*
X90196Y-67055D01*
X90196Y-67000D01*
X90177Y-66952D01*
X90177Y-66708D01*
X90196Y-66661D01*
X90196Y-66606D01*
X90177Y-66558D01*
X90177Y-66315D01*
X90196Y-66267D01*
X90196Y-66212D01*
X90177Y-66165D01*
X90177Y-65921D01*
X90196Y-65873D01*
X90196Y-65819D01*
X90177Y-65771D01*
X90177Y-65527D01*
X90196Y-65480D01*
X90196Y-65425D01*
X90177Y-65377D01*
X90177Y-65334D01*
X90377Y-65334D01*
X90374Y-65335D01*
X90336Y-65374D01*
X90314Y-65425D01*
X90314Y-65480D01*
X90335Y-65530D01*
X90374Y-65569D01*
X90425Y-65590D01*
X90480Y-65590D01*
X90530Y-65569D01*
X90569Y-65530D01*
X90590Y-65480D01*
X90590Y-65425D01*
X90569Y-65374D01*
X90530Y-65336D01*
X90527Y-65334D01*
X90616Y-65334D01*
X90708Y-65426D01*
X90708Y-65480D01*
X90729Y-65530D01*
X90768Y-65569D01*
X90818Y-65590D01*
X90873Y-65590D01*
X90924Y-65569D01*
X90963Y-65530D01*
X90984Y-65480D01*
X90984Y-65425D01*
X90984Y-65031D01*
X90984Y-64638D01*
X90984Y-64244D01*
X90984Y-63850D01*
X90984Y-63456D01*
X90984Y-63063D01*
X90984Y-62669D01*
X90984Y-62275D01*
X90963Y-62225D01*
X90924Y-62186D01*
X90873Y-62165D01*
X90819Y-62165D01*
X90768Y-62186D01*
X90729Y-62224D01*
X90708Y-62275D01*
X90708Y-62330D01*
X90729Y-62381D01*
X90768Y-62419D01*
X90818Y-62440D01*
X90873Y-62440D01*
X90924Y-62420D01*
X90963Y-62381D01*
X90984Y-62330D01*
X90984Y-62275D01*
X90984Y-62669D01*
X90963Y-62618D01*
X90924Y-62580D01*
X90873Y-62559D01*
X90819Y-62559D01*
X90768Y-62579D01*
X90729Y-62618D01*
X90708Y-62669D01*
X90708Y-62724D01*
X90729Y-62774D01*
X90768Y-62813D01*
X90818Y-62834D01*
X90873Y-62834D01*
X90924Y-62813D01*
X90963Y-62775D01*
X90984Y-62724D01*
X90984Y-62669D01*
X90984Y-63063D01*
X90963Y-63012D01*
X90924Y-62973D01*
X90873Y-62952D01*
X90819Y-62952D01*
X90768Y-62973D01*
X90729Y-63012D01*
X90708Y-63063D01*
X90708Y-63117D01*
X90729Y-63168D01*
X90768Y-63207D01*
X90818Y-63228D01*
X90873Y-63228D01*
X90924Y-63207D01*
X90963Y-63168D01*
X90984Y-63118D01*
X90984Y-63063D01*
X90984Y-63456D01*
X90963Y-63406D01*
X90924Y-63367D01*
X90873Y-63346D01*
X90819Y-63346D01*
X90768Y-63367D01*
X90729Y-63406D01*
X90708Y-63456D01*
X90708Y-63511D01*
X90729Y-63562D01*
X90768Y-63601D01*
X90818Y-63622D01*
X90873Y-63622D01*
X90924Y-63601D01*
X90963Y-63562D01*
X90984Y-63511D01*
X90984Y-63456D01*
X90984Y-63850D01*
X90963Y-63800D01*
X90924Y-63761D01*
X90873Y-63740D01*
X90819Y-63740D01*
X90768Y-63761D01*
X90729Y-63799D01*
X90708Y-63850D01*
X90708Y-63905D01*
X90729Y-63955D01*
X90768Y-63994D01*
X90818Y-64015D01*
X90873Y-64015D01*
X90924Y-63994D01*
X90963Y-63956D01*
X90984Y-63905D01*
X90984Y-63850D01*
X90984Y-64244D01*
X90963Y-64193D01*
X90924Y-64154D01*
X90873Y-64133D01*
X90819Y-64133D01*
X90768Y-64154D01*
X90729Y-64193D01*
X90708Y-64244D01*
X90708Y-64298D01*
X90729Y-64349D01*
X90768Y-64388D01*
X90818Y-64409D01*
X90873Y-64409D01*
X90924Y-64388D01*
X90963Y-64349D01*
X90984Y-64299D01*
X90984Y-64244D01*
X90984Y-64638D01*
X90963Y-64587D01*
X90924Y-64548D01*
X90873Y-64527D01*
X90819Y-64527D01*
X90768Y-64548D01*
X90729Y-64587D01*
X90708Y-64637D01*
X90708Y-64692D01*
X90729Y-64743D01*
X90768Y-64782D01*
X90818Y-64803D01*
X90873Y-64803D01*
X90924Y-64782D01*
X90963Y-64743D01*
X90984Y-64692D01*
X90984Y-64638D01*
X90984Y-65031D01*
X90963Y-64981D01*
X90924Y-64942D01*
X90873Y-64921D01*
X90819Y-64921D01*
X90768Y-64942D01*
X90729Y-64980D01*
X90708Y-65031D01*
X90708Y-65086D01*
X90729Y-65137D01*
X90768Y-65175D01*
X90818Y-65196D01*
X90873Y-65196D01*
X90924Y-65175D01*
X90963Y-65137D01*
X90984Y-65086D01*
X90984Y-65031D01*
X90984Y-65425D01*
X90963Y-65374D01*
X90924Y-65336D01*
X90873Y-65314D01*
X90819Y-65314D01*
X90705Y-65200D01*
X90679Y-65183D01*
X90649Y-65177D01*
X90527Y-65177D01*
X90530Y-65175D01*
X90569Y-65137D01*
X90590Y-65086D01*
X90590Y-65031D01*
X90569Y-64981D01*
X90530Y-64942D01*
X90480Y-64921D01*
X90426Y-64921D01*
X90354Y-64849D01*
X90354Y-64761D01*
X90374Y-64782D01*
X90425Y-64803D01*
X90480Y-64803D01*
X90530Y-64782D01*
X90569Y-64743D01*
X90590Y-64692D01*
X90590Y-64638D01*
X90590Y-64244D01*
X90590Y-63456D01*
X90590Y-63063D01*
X90590Y-62669D01*
X90590Y-62275D01*
X90569Y-62225D01*
X90530Y-62186D01*
X90480Y-62165D01*
X90425Y-62165D01*
X90374Y-62186D01*
X90336Y-62224D01*
X90314Y-62275D01*
X90314Y-62330D01*
X90335Y-62381D01*
X90374Y-62419D01*
X90425Y-62440D01*
X90480Y-62440D01*
X90530Y-62420D01*
X90569Y-62381D01*
X90590Y-62330D01*
X90590Y-62275D01*
X90590Y-62669D01*
X90569Y-62618D01*
X90530Y-62580D01*
X90480Y-62559D01*
X90425Y-62559D01*
X90374Y-62579D01*
X90336Y-62618D01*
X90314Y-62669D01*
X90314Y-62724D01*
X90335Y-62774D01*
X90374Y-62813D01*
X90425Y-62834D01*
X90480Y-62834D01*
X90530Y-62813D01*
X90569Y-62775D01*
X90590Y-62724D01*
X90590Y-62669D01*
X90590Y-63063D01*
X90569Y-63012D01*
X90530Y-62973D01*
X90480Y-62952D01*
X90425Y-62952D01*
X90374Y-62973D01*
X90336Y-63012D01*
X90314Y-63063D01*
X90314Y-63117D01*
X90335Y-63168D01*
X90374Y-63207D01*
X90425Y-63228D01*
X90480Y-63228D01*
X90530Y-63207D01*
X90569Y-63168D01*
X90590Y-63118D01*
X90590Y-63063D01*
X90590Y-63456D01*
X90569Y-63406D01*
X90530Y-63367D01*
X90480Y-63346D01*
X90425Y-63346D01*
X90374Y-63367D01*
X90336Y-63406D01*
X90314Y-63456D01*
X90314Y-63511D01*
X90335Y-63562D01*
X90374Y-63601D01*
X90425Y-63622D01*
X90480Y-63622D01*
X90530Y-63601D01*
X90569Y-63562D01*
X90590Y-63511D01*
X90590Y-63456D01*
X90590Y-64244D01*
X90569Y-64193D01*
X90530Y-64154D01*
X90480Y-64133D01*
X90425Y-64133D01*
X90374Y-64154D01*
X90336Y-64193D01*
X90314Y-64244D01*
X90314Y-64298D01*
X90335Y-64349D01*
X90374Y-64388D01*
X90425Y-64409D01*
X90480Y-64409D01*
X90530Y-64388D01*
X90569Y-64349D01*
X90590Y-64299D01*
X90590Y-64244D01*
X90590Y-64638D01*
X90569Y-64587D01*
X90530Y-64548D01*
X90480Y-64527D01*
X90425Y-64527D01*
X90374Y-64548D01*
X90354Y-64568D01*
X90354Y-64537D01*
X90354Y-64537D01*
X90348Y-64507D01*
X90331Y-64481D01*
X90331Y-64481D01*
X90252Y-64402D01*
X90226Y-64385D01*
X90196Y-64379D01*
X90177Y-64379D01*
X90177Y-64346D01*
X90196Y-64299D01*
X90196Y-64244D01*
X90177Y-64196D01*
X90177Y-64173D01*
X90177Y-63952D01*
X90196Y-63905D01*
X90196Y-63850D01*
X90177Y-63802D01*
X90177Y-63559D01*
X90196Y-63511D01*
X90196Y-63456D01*
X90177Y-63409D01*
X90177Y-63165D01*
X90196Y-63118D01*
X90196Y-63063D01*
X90177Y-63015D01*
X90177Y-62771D01*
X90196Y-62724D01*
X90196Y-62669D01*
X90177Y-62621D01*
X90177Y-62578D01*
X90133Y-62578D01*
X90086Y-62559D01*
X90031Y-62559D01*
X89984Y-62578D01*
X89940Y-62578D01*
X89940Y-62165D01*
X89940Y-62027D01*
X89984Y-62027D01*
X90031Y-62047D01*
X90086Y-62047D01*
X90134Y-62027D01*
X90377Y-62027D01*
X90425Y-62047D01*
X90480Y-62047D01*
X90527Y-62027D01*
X90771Y-62027D01*
X90818Y-62047D01*
X90873Y-62047D01*
X90921Y-62027D01*
X91122Y-62027D01*
X91122Y-62228D01*
X91102Y-62275D01*
X91102Y-62330D01*
X91122Y-62378D01*
X91122Y-62621D01*
X91102Y-62669D01*
X91102Y-62724D01*
X91122Y-62771D01*
X91122Y-63011D01*
X91318Y-63011D01*
X91318Y-63761D01*
X91318Y-63761D01*
X91267Y-63740D01*
X91212Y-63740D01*
X91162Y-63761D01*
X91123Y-63799D01*
X91102Y-63850D01*
X91102Y-63905D01*
X91123Y-63955D01*
X91162Y-63994D01*
X91212Y-64015D01*
X91267Y-64015D01*
X91318Y-63994D01*
X91318Y-63994D01*
X91318Y-64155D01*
X91318Y-64154D01*
X91267Y-64133D01*
X91212Y-64133D01*
X91162Y-64154D01*
X91123Y-64193D01*
X91102Y-64244D01*
X91102Y-64298D01*
X91123Y-64349D01*
X91162Y-64388D01*
X91212Y-64409D01*
X91267Y-64409D01*
X91318Y-64388D01*
X91318Y-64387D01*
X91318Y-64549D01*
X91318Y-64548D01*
X91267Y-64527D01*
X91212Y-64527D01*
X91162Y-64548D01*
X91123Y-64587D01*
X91102Y-64637D01*
X91102Y-64692D01*
X91123Y-64743D01*
X91162Y-64782D01*
X91212Y-64803D01*
X91267Y-64803D01*
X91318Y-64782D01*
X91318Y-64781D01*
X91318Y-65336D01*
X91318Y-65336D01*
X91267Y-65314D01*
X91212Y-65314D01*
X91162Y-65335D01*
X91123Y-65374D01*
X91102Y-65425D01*
X91102Y-65480D01*
X91123Y-65530D01*
X91162Y-65569D01*
X91212Y-65590D01*
X91267Y-65590D01*
X91318Y-65569D01*
X91318Y-65568D01*
X91318Y-66517D01*
X91318Y-66517D01*
X91267Y-66496D01*
X91212Y-66496D01*
X91162Y-66516D01*
X91123Y-66555D01*
X91102Y-66606D01*
X91102Y-66661D01*
X91123Y-66711D01*
X91162Y-66750D01*
X91212Y-66771D01*
X91267Y-66771D01*
X91318Y-66750D01*
X91318Y-66749D01*
X91318Y-66911D01*
X91318Y-66910D01*
X91267Y-66889D01*
X91212Y-66889D01*
X91162Y-66910D01*
X91123Y-66949D01*
X91102Y-67000D01*
X91102Y-67054D01*
X91123Y-67105D01*
X91162Y-67144D01*
X91209Y-67164D01*
X91318Y-67273D01*
X91318Y-67305D01*
X91318Y-67304D01*
X91267Y-67283D01*
X91212Y-67283D01*
X91162Y-67304D01*
X91123Y-67343D01*
X91102Y-67393D01*
X91102Y-67448D01*
X91123Y-67499D01*
X91162Y-67538D01*
X91212Y-67559D01*
X91267Y-67559D01*
X91318Y-67538D01*
X91318Y-67537D01*
X91318Y-68092D01*
X91318Y-68091D01*
X91267Y-68070D01*
X91212Y-68070D01*
X91162Y-68091D01*
X91123Y-68130D01*
X91102Y-68181D01*
X91102Y-68235D01*
X91123Y-68286D01*
X91162Y-68325D01*
X91212Y-68346D01*
X91267Y-68346D01*
X91318Y-68325D01*
X91318Y-68324D01*
X91318Y-68877D01*
X91318Y-68877D01*
G37*
G54D30*
X91318Y-68877D02*
X91315Y-68877D01*
X91267Y-68858D01*
X91212Y-68858D01*
X91165Y-68877D01*
X90984Y-68877D01*
X90984Y-68575D01*
X90984Y-68181D01*
X90984Y-67787D01*
X90984Y-67393D01*
X90984Y-66606D01*
X90984Y-66212D01*
X90984Y-65819D01*
X90963Y-65768D01*
X90924Y-65729D01*
X90873Y-65708D01*
X90819Y-65708D01*
X90768Y-65729D01*
X90729Y-65768D01*
X90708Y-65818D01*
X90708Y-65873D01*
X90729Y-65924D01*
X90768Y-65963D01*
X90818Y-65984D01*
X90873Y-65984D01*
X90924Y-65963D01*
X90963Y-65924D01*
X90984Y-65873D01*
X90984Y-65819D01*
X90984Y-66212D01*
X90963Y-66162D01*
X90924Y-66123D01*
X90873Y-66102D01*
X90819Y-66102D01*
X90768Y-66123D01*
X90729Y-66162D01*
X90708Y-66212D01*
X90708Y-66267D01*
X90729Y-66318D01*
X90768Y-66356D01*
X90818Y-66377D01*
X90873Y-66377D01*
X90924Y-66357D01*
X90963Y-66318D01*
X90984Y-66267D01*
X90984Y-66212D01*
X90984Y-66606D01*
X90963Y-66555D01*
X90924Y-66517D01*
X90873Y-66496D01*
X90819Y-66496D01*
X90768Y-66516D01*
X90729Y-66555D01*
X90708Y-66606D01*
X90708Y-66661D01*
X90729Y-66711D01*
X90768Y-66750D01*
X90818Y-66771D01*
X90873Y-66771D01*
X90924Y-66750D01*
X90963Y-66712D01*
X90984Y-66661D01*
X90984Y-66606D01*
X90984Y-67393D01*
X90963Y-67343D01*
X90924Y-67304D01*
X90873Y-67283D01*
X90819Y-67283D01*
X90768Y-67304D01*
X90729Y-67343D01*
X90708Y-67393D01*
X90708Y-67448D01*
X90729Y-67499D01*
X90768Y-67538D01*
X90818Y-67559D01*
X90873Y-67559D01*
X90924Y-67538D01*
X90963Y-67499D01*
X90984Y-67448D01*
X90984Y-67393D01*
X90984Y-67787D01*
X90963Y-67737D01*
X90924Y-67698D01*
X90873Y-67677D01*
X90819Y-67677D01*
X90768Y-67698D01*
X90729Y-67736D01*
X90708Y-67787D01*
X90708Y-67842D01*
X90729Y-67892D01*
X90768Y-67931D01*
X90818Y-67952D01*
X90873Y-67952D01*
X90924Y-67931D01*
X90963Y-67893D01*
X90984Y-67842D01*
X90984Y-67787D01*
X90984Y-68181D01*
X90963Y-68130D01*
X90924Y-68091D01*
X90873Y-68070D01*
X90819Y-68070D01*
X90768Y-68091D01*
X90729Y-68130D01*
X90708Y-68181D01*
X90708Y-68235D01*
X90729Y-68286D01*
X90768Y-68325D01*
X90818Y-68346D01*
X90873Y-68346D01*
X90924Y-68325D01*
X90963Y-68286D01*
X90984Y-68236D01*
X90984Y-68181D01*
X90984Y-68575D01*
X90963Y-68524D01*
X90924Y-68485D01*
X90873Y-68464D01*
X90819Y-68464D01*
X90768Y-68485D01*
X90729Y-68524D01*
X90708Y-68574D01*
X90708Y-68629D01*
X90729Y-68680D01*
X90768Y-68719D01*
X90818Y-68740D01*
X90873Y-68740D01*
X90924Y-68719D01*
X90963Y-68680D01*
X90984Y-68629D01*
X90984Y-68575D01*
X90984Y-68877D01*
X90921Y-68877D01*
X90873Y-68858D01*
X90819Y-68858D01*
X90771Y-68877D01*
X90590Y-68877D01*
X90590Y-68575D01*
X90590Y-68181D01*
X90590Y-67787D01*
X90590Y-67393D01*
X90590Y-67000D01*
X90590Y-66606D01*
X90590Y-66212D01*
X90590Y-65819D01*
X90569Y-65768D01*
X90530Y-65729D01*
X90480Y-65708D01*
X90425Y-65708D01*
X90374Y-65729D01*
X90336Y-65768D01*
X90314Y-65818D01*
X90314Y-65873D01*
X90335Y-65924D01*
X90374Y-65963D01*
X90425Y-65984D01*
X90480Y-65984D01*
X90530Y-65963D01*
X90569Y-65924D01*
X90590Y-65873D01*
X90590Y-65819D01*
X90590Y-66212D01*
X90569Y-66162D01*
X90530Y-66123D01*
X90480Y-66102D01*
X90425Y-66102D01*
X90374Y-66123D01*
X90336Y-66162D01*
X90314Y-66212D01*
X90314Y-66267D01*
X90335Y-66318D01*
X90374Y-66356D01*
X90425Y-66377D01*
X90480Y-66377D01*
X90530Y-66357D01*
X90569Y-66318D01*
X90590Y-66267D01*
X90590Y-66212D01*
X90590Y-66606D01*
X90569Y-66555D01*
X90530Y-66517D01*
X90480Y-66496D01*
X90425Y-66496D01*
X90374Y-66516D01*
X90336Y-66555D01*
X90314Y-66606D01*
X90314Y-66661D01*
X90335Y-66711D01*
X90374Y-66750D01*
X90425Y-66771D01*
X90480Y-66771D01*
X90530Y-66750D01*
X90569Y-66712D01*
X90590Y-66661D01*
X90590Y-66606D01*
X90590Y-67000D01*
X90569Y-66949D01*
X90530Y-66910D01*
X90480Y-66889D01*
X90425Y-66889D01*
X90374Y-66910D01*
X90336Y-66949D01*
X90314Y-67000D01*
X90314Y-67054D01*
X90335Y-67105D01*
X90374Y-67144D01*
X90425Y-67165D01*
X90480Y-67165D01*
X90530Y-67144D01*
X90569Y-67105D01*
X90590Y-67055D01*
X90590Y-67000D01*
X90590Y-67393D01*
X90569Y-67343D01*
X90530Y-67304D01*
X90480Y-67283D01*
X90425Y-67283D01*
X90374Y-67304D01*
X90336Y-67343D01*
X90314Y-67393D01*
X90314Y-67448D01*
X90335Y-67499D01*
X90374Y-67538D01*
X90425Y-67559D01*
X90480Y-67559D01*
X90530Y-67538D01*
X90569Y-67499D01*
X90590Y-67448D01*
X90590Y-67393D01*
X90590Y-67787D01*
X90569Y-67737D01*
X90530Y-67698D01*
X90480Y-67677D01*
X90425Y-67677D01*
X90374Y-67698D01*
X90336Y-67736D01*
X90314Y-67787D01*
X90314Y-67842D01*
X90335Y-67892D01*
X90374Y-67931D01*
X90425Y-67952D01*
X90480Y-67952D01*
X90530Y-67931D01*
X90569Y-67893D01*
X90590Y-67842D01*
X90590Y-67787D01*
X90590Y-68181D01*
X90569Y-68130D01*
X90530Y-68091D01*
X90480Y-68070D01*
X90425Y-68070D01*
X90374Y-68091D01*
X90336Y-68130D01*
X90314Y-68181D01*
X90314Y-68235D01*
X90335Y-68286D01*
X90374Y-68325D01*
X90425Y-68346D01*
X90480Y-68346D01*
X90530Y-68325D01*
X90569Y-68286D01*
X90590Y-68236D01*
X90590Y-68181D01*
X90590Y-68575D01*
X90569Y-68524D01*
X90530Y-68485D01*
X90480Y-68464D01*
X90425Y-68464D01*
X90374Y-68485D01*
X90336Y-68524D01*
X90314Y-68574D01*
X90314Y-68629D01*
X90335Y-68680D01*
X90374Y-68719D01*
X90425Y-68740D01*
X90480Y-68740D01*
X90530Y-68719D01*
X90569Y-68680D01*
X90590Y-68629D01*
X90590Y-68575D01*
X90590Y-68877D01*
X90527Y-68877D01*
X90480Y-68858D01*
X90425Y-68858D01*
X90377Y-68877D01*
X90177Y-68877D01*
X90177Y-68677D01*
X90196Y-68629D01*
X90196Y-68575D01*
X90177Y-68527D01*
X90177Y-68283D01*
X90196Y-68236D01*
X90196Y-68181D01*
X90177Y-68133D01*
X90177Y-67889D01*
X90196Y-67842D01*
X90196Y-67787D01*
X90177Y-67739D01*
X90177Y-67496D01*
X90196Y-67448D01*
X90196Y-67393D01*
X90177Y-67346D01*
X90177Y-67102D01*
X90196Y-67055D01*
X90196Y-67000D01*
X90177Y-66952D01*
X90177Y-66708D01*
X90196Y-66661D01*
X90196Y-66606D01*
X90177Y-66558D01*
X90177Y-66315D01*
X90196Y-66267D01*
X90196Y-66212D01*
X90177Y-66165D01*
X90177Y-65921D01*
X90196Y-65873D01*
X90196Y-65819D01*
X90177Y-65771D01*
X90177Y-65527D01*
X90196Y-65480D01*
X90196Y-65425D01*
X90177Y-65377D01*
X90177Y-65334D01*
X90377Y-65334D01*
X90374Y-65335D01*
X90336Y-65374D01*
X90314Y-65425D01*
X90314Y-65480D01*
X90335Y-65530D01*
X90374Y-65569D01*
X90425Y-65590D01*
X90480Y-65590D01*
X90530Y-65569D01*
X90569Y-65530D01*
X90590Y-65480D01*
X90590Y-65425D01*
X90569Y-65374D01*
X90530Y-65336D01*
X90527Y-65334D01*
X90616Y-65334D01*
X90708Y-65426D01*
X90708Y-65480D01*
X90729Y-65530D01*
X90768Y-65569D01*
X90818Y-65590D01*
X90873Y-65590D01*
X90924Y-65569D01*
X90963Y-65530D01*
X90984Y-65480D01*
X90984Y-65425D01*
X90984Y-65031D01*
X90984Y-64638D01*
X90984Y-64244D01*
X90984Y-63850D01*
X90984Y-63456D01*
X90984Y-63063D01*
X90984Y-62669D01*
X90984Y-62275D01*
X90963Y-62225D01*
X90924Y-62186D01*
X90873Y-62165D01*
X90819Y-62165D01*
X90768Y-62186D01*
X90729Y-62224D01*
X90708Y-62275D01*
X90708Y-62330D01*
X90729Y-62381D01*
X90768Y-62419D01*
X90818Y-62440D01*
X90873Y-62440D01*
X90924Y-62420D01*
X90963Y-62381D01*
X90984Y-62330D01*
X90984Y-62275D01*
X90984Y-62669D01*
X90963Y-62618D01*
X90924Y-62580D01*
X90873Y-62559D01*
X90819Y-62559D01*
X90768Y-62579D01*
X90729Y-62618D01*
X90708Y-62669D01*
X90708Y-62724D01*
X90729Y-62774D01*
X90768Y-62813D01*
X90818Y-62834D01*
X90873Y-62834D01*
X90924Y-62813D01*
X90963Y-62775D01*
X90984Y-62724D01*
X90984Y-62669D01*
X90984Y-63063D01*
X90963Y-63012D01*
X90924Y-62973D01*
X90873Y-62952D01*
X90819Y-62952D01*
X90768Y-62973D01*
X90729Y-63012D01*
X90708Y-63063D01*
X90708Y-63117D01*
X90729Y-63168D01*
X90768Y-63207D01*
X90818Y-63228D01*
X90873Y-63228D01*
X90924Y-63207D01*
X90963Y-63168D01*
X90984Y-63118D01*
X90984Y-63063D01*
X90984Y-63456D01*
X90963Y-63406D01*
X90924Y-63367D01*
X90873Y-63346D01*
X90819Y-63346D01*
X90768Y-63367D01*
X90729Y-63406D01*
X90708Y-63456D01*
X90708Y-63511D01*
X90729Y-63562D01*
X90768Y-63601D01*
X90818Y-63622D01*
X90873Y-63622D01*
X90924Y-63601D01*
X90963Y-63562D01*
X90984Y-63511D01*
X90984Y-63456D01*
X90984Y-63850D01*
X90963Y-63800D01*
X90924Y-63761D01*
X90873Y-63740D01*
X90819Y-63740D01*
X90768Y-63761D01*
X90729Y-63799D01*
X90708Y-63850D01*
X90708Y-63905D01*
X90729Y-63955D01*
X90768Y-63994D01*
X90818Y-64015D01*
X90873Y-64015D01*
X90924Y-63994D01*
X90963Y-63956D01*
X90984Y-63905D01*
X90984Y-63850D01*
X90984Y-64244D01*
X90963Y-64193D01*
X90924Y-64154D01*
X90873Y-64133D01*
X90819Y-64133D01*
X90768Y-64154D01*
X90729Y-64193D01*
X90708Y-64244D01*
X90708Y-64298D01*
X90729Y-64349D01*
X90768Y-64388D01*
X90818Y-64409D01*
X90873Y-64409D01*
X90924Y-64388D01*
X90963Y-64349D01*
X90984Y-64299D01*
X90984Y-64244D01*
X90984Y-64638D01*
X90963Y-64587D01*
X90924Y-64548D01*
X90873Y-64527D01*
X90819Y-64527D01*
X90768Y-64548D01*
X90729Y-64587D01*
X90708Y-64637D01*
X90708Y-64692D01*
X90729Y-64743D01*
X90768Y-64782D01*
X90818Y-64803D01*
X90873Y-64803D01*
X90924Y-64782D01*
X90963Y-64743D01*
X90984Y-64692D01*
X90984Y-64638D01*
X90984Y-65031D01*
X90963Y-64981D01*
X90924Y-64942D01*
X90873Y-64921D01*
X90819Y-64921D01*
X90768Y-64942D01*
X90729Y-64980D01*
X90708Y-65031D01*
X90708Y-65086D01*
X90729Y-65137D01*
X90768Y-65175D01*
X90818Y-65196D01*
X90873Y-65196D01*
X90924Y-65175D01*
X90963Y-65137D01*
X90984Y-65086D01*
X90984Y-65031D01*
X90984Y-65425D01*
X90963Y-65374D01*
X90924Y-65336D01*
X90873Y-65314D01*
X90819Y-65314D01*
X90705Y-65200D01*
X90679Y-65183D01*
X90649Y-65177D01*
X90527Y-65177D01*
X90530Y-65175D01*
X90569Y-65137D01*
X90590Y-65086D01*
X90590Y-65031D01*
X90569Y-64981D01*
X90530Y-64942D01*
X90480Y-64921D01*
X90426Y-64921D01*
X90354Y-64849D01*
X90354Y-64761D01*
X90374Y-64782D01*
X90425Y-64803D01*
X90480Y-64803D01*
X90530Y-64782D01*
X90569Y-64743D01*
X90590Y-64692D01*
X90590Y-64638D01*
X90590Y-64244D01*
X90590Y-63456D01*
X90590Y-63063D01*
X90590Y-62669D01*
X90590Y-62275D01*
X90569Y-62225D01*
X90530Y-62186D01*
X90480Y-62165D01*
X90425Y-62165D01*
X90374Y-62186D01*
X90336Y-62224D01*
X90314Y-62275D01*
X90314Y-62330D01*
X90335Y-62381D01*
X90374Y-62419D01*
X90425Y-62440D01*
X90480Y-62440D01*
X90530Y-62420D01*
X90569Y-62381D01*
X90590Y-62330D01*
X90590Y-62275D01*
X90590Y-62669D01*
X90569Y-62618D01*
X90530Y-62580D01*
X90480Y-62559D01*
X90425Y-62559D01*
X90374Y-62579D01*
X90336Y-62618D01*
X90314Y-62669D01*
X90314Y-62724D01*
X90335Y-62774D01*
X90374Y-62813D01*
X90425Y-62834D01*
X90480Y-62834D01*
X90530Y-62813D01*
X90569Y-62775D01*
X90590Y-62724D01*
X90590Y-62669D01*
X90590Y-63063D01*
X90569Y-63012D01*
X90530Y-62973D01*
X90480Y-62952D01*
X90425Y-62952D01*
X90374Y-62973D01*
X90336Y-63012D01*
X90314Y-63063D01*
X90314Y-63117D01*
X90335Y-63168D01*
X90374Y-63207D01*
X90425Y-63228D01*
X90480Y-63228D01*
X90530Y-63207D01*
X90569Y-63168D01*
X90590Y-63118D01*
X90590Y-63063D01*
X90590Y-63456D01*
X90569Y-63406D01*
X90530Y-63367D01*
X90480Y-63346D01*
X90425Y-63346D01*
X90374Y-63367D01*
X90336Y-63406D01*
X90314Y-63456D01*
X90314Y-63511D01*
X90335Y-63562D01*
X90374Y-63601D01*
X90425Y-63622D01*
X90480Y-63622D01*
X90530Y-63601D01*
X90569Y-63562D01*
X90590Y-63511D01*
X90590Y-63456D01*
X90590Y-64244D01*
X90569Y-64193D01*
X90530Y-64154D01*
X90480Y-64133D01*
X90425Y-64133D01*
X90374Y-64154D01*
X90336Y-64193D01*
X90314Y-64244D01*
X90314Y-64298D01*
X90335Y-64349D01*
X90374Y-64388D01*
X90425Y-64409D01*
X90480Y-64409D01*
X90530Y-64388D01*
X90569Y-64349D01*
X90590Y-64299D01*
X90590Y-64244D01*
X90590Y-64638D01*
X90569Y-64587D01*
X90530Y-64548D01*
X90480Y-64527D01*
X90425Y-64527D01*
X90374Y-64548D01*
X90354Y-64568D01*
X90354Y-64537D01*
X90354Y-64537D01*
X90348Y-64507D01*
X90331Y-64481D01*
X90331Y-64481D01*
X90252Y-64402D01*
X90226Y-64385D01*
X90196Y-64379D01*
X90177Y-64379D01*
X90177Y-64346D01*
X90196Y-64299D01*
X90196Y-64244D01*
X90177Y-64196D01*
X90177Y-64173D01*
X90177Y-63952D01*
X90196Y-63905D01*
X90196Y-63850D01*
X90177Y-63802D01*
X90177Y-63559D01*
X90196Y-63511D01*
X90196Y-63456D01*
X90177Y-63409D01*
X90177Y-63165D01*
X90196Y-63118D01*
X90196Y-63063D01*
X90177Y-63015D01*
X90177Y-62771D01*
X90196Y-62724D01*
X90196Y-62669D01*
X90177Y-62621D01*
X90177Y-62578D01*
X90133Y-62578D01*
X90086Y-62559D01*
X90031Y-62559D01*
X89984Y-62578D01*
X89940Y-62578D01*
X89940Y-62165D01*
X89940Y-62027D01*
X89984Y-62027D01*
X90031Y-62047D01*
X90086Y-62047D01*
X90134Y-62027D01*
X90377Y-62027D01*
X90425Y-62047D01*
X90480Y-62047D01*
X90527Y-62027D01*
X90771Y-62027D01*
X90818Y-62047D01*
X90873Y-62047D01*
X90921Y-62027D01*
X91122Y-62027D01*
X91122Y-62228D01*
X91102Y-62275D01*
X91102Y-62330D01*
X91122Y-62378D01*
X91122Y-62621D01*
X91102Y-62669D01*
X91102Y-62724D01*
X91122Y-62771D01*
X91122Y-63011D01*
X91318Y-63011D01*
X91318Y-63761D01*
X91318Y-63761D01*
X91267Y-63740D01*
X91212Y-63740D01*
X91162Y-63761D01*
X91123Y-63799D01*
X91102Y-63850D01*
X91102Y-63905D01*
X91123Y-63955D01*
X91162Y-63994D01*
X91212Y-64015D01*
X91267Y-64015D01*
X91318Y-63994D01*
X91318Y-63994D01*
X91318Y-64155D01*
X91318Y-64154D01*
X91267Y-64133D01*
X91212Y-64133D01*
X91162Y-64154D01*
X91123Y-64193D01*
X91102Y-64244D01*
X91102Y-64298D01*
X91123Y-64349D01*
X91162Y-64388D01*
X91212Y-64409D01*
X91267Y-64409D01*
X91318Y-64388D01*
X91318Y-64387D01*
X91318Y-64549D01*
X91318Y-64548D01*
X91267Y-64527D01*
X91212Y-64527D01*
X91162Y-64548D01*
X91123Y-64587D01*
X91102Y-64637D01*
X91102Y-64692D01*
X91123Y-64743D01*
X91162Y-64782D01*
X91212Y-64803D01*
X91267Y-64803D01*
X91318Y-64782D01*
X91318Y-64781D01*
X91318Y-65336D01*
X91318Y-65336D01*
X91267Y-65314D01*
X91212Y-65314D01*
X91162Y-65335D01*
X91123Y-65374D01*
X91102Y-65425D01*
X91102Y-65480D01*
X91123Y-65530D01*
X91162Y-65569D01*
X91212Y-65590D01*
X91267Y-65590D01*
X91318Y-65569D01*
X91318Y-65568D01*
X91318Y-66517D01*
X91318Y-66517D01*
X91267Y-66496D01*
X91212Y-66496D01*
X91162Y-66516D01*
X91123Y-66555D01*
X91102Y-66606D01*
X91102Y-66661D01*
X91123Y-66711D01*
X91162Y-66750D01*
X91212Y-66771D01*
X91267Y-66771D01*
X91318Y-66750D01*
X91318Y-66749D01*
X91318Y-66911D01*
X91318Y-66910D01*
X91267Y-66889D01*
X91212Y-66889D01*
X91162Y-66910D01*
X91123Y-66949D01*
X91102Y-67000D01*
X91102Y-67054D01*
X91123Y-67105D01*
X91162Y-67144D01*
X91209Y-67164D01*
X91318Y-67273D01*
X91318Y-67305D01*
X91318Y-67304D01*
X91267Y-67283D01*
X91212Y-67283D01*
X91162Y-67304D01*
X91123Y-67343D01*
X91102Y-67393D01*
X91102Y-67448D01*
X91123Y-67499D01*
X91162Y-67538D01*
X91212Y-67559D01*
X91267Y-67559D01*
X91318Y-67538D01*
X91318Y-67537D01*
X91318Y-68092D01*
X91318Y-68091D01*
X91267Y-68070D01*
X91212Y-68070D01*
X91162Y-68091D01*
X91123Y-68130D01*
X91102Y-68181D01*
X91102Y-68235D01*
X91123Y-68286D01*
X91162Y-68325D01*
X91212Y-68346D01*
X91267Y-68346D01*
X91318Y-68325D01*
X91318Y-68324D01*
X91318Y-68877D01*
M02*
