G04 (created by PCBNEW (2013-07-07 BZR 4022)-stable) date 10/02/2015 04:29:17*
%MOIN*%
G04 Gerber Fmt 3.4, Leading zero omitted, Abs format*
%FSLAX34Y34*%
G01*
G70*
G90*
G04 APERTURE LIST*
%ADD10C,0.00590551*%
%ADD11C,0.019685*%
%ADD12R,0.0597X0.0597*%
%ADD13C,0.0597*%
%ADD14C,0.23622*%
%ADD15C,0.0787402*%
%ADD16C,0.216535*%
%ADD17C,0.0708661*%
%ADD18C,0.0590551*%
%ADD19C,0.0984252*%
%ADD20C,0.145669*%
%ADD21C,0.0393701*%
%ADD22C,0.0944882*%
%ADD23C,0.0551181*%
%ADD24C,0.015748*%
%ADD25C,0.19685*%
%ADD26O,0.401575X0.0669291*%
%ADD27O,0.0590551X0.110236*%
%ADD28O,0.11811X0.0590551*%
%ADD29C,0.11811*%
%ADD30C,0.00393701*%
%ADD31C,0.0393701*%
%ADD32C,0.015748*%
%ADD33C,0.019685*%
%ADD34C,0.0314961*%
G04 APERTURE END LIST*
G54D10*
G54D11*
X71889Y-46692D03*
X71531Y-46232D03*
X71141Y-46692D03*
X71141Y-44566D03*
X71531Y-44106D03*
X71889Y-44566D03*
X71889Y-42480D03*
X71531Y-42019D03*
X71141Y-42480D03*
X71338Y-38818D03*
X71728Y-38358D03*
X72086Y-38818D03*
X73937Y-40000D03*
X73578Y-39539D03*
X73188Y-40000D03*
X73188Y-35669D03*
X73578Y-35208D03*
X73937Y-35669D03*
X73937Y-37007D03*
X73578Y-36547D03*
X73188Y-37007D03*
X73188Y-38346D03*
X73578Y-37885D03*
X73937Y-38346D03*
X104094Y-38602D03*
X104094Y-37874D03*
X104094Y-38248D03*
X103759Y-38248D03*
X103759Y-37874D03*
X103759Y-38602D03*
X103405Y-38602D03*
X103405Y-37874D03*
X103405Y-38248D03*
X103070Y-38248D03*
X103070Y-37874D03*
X103070Y-38602D03*
X105118Y-59055D03*
X105118Y-58208D03*
X105118Y-59921D03*
X107559Y-62185D03*
X88188Y-50925D03*
X88637Y-51200D03*
X93236Y-43653D03*
X92291Y-43653D03*
X94141Y-43653D03*
X94141Y-44716D03*
X94133Y-46673D03*
X94133Y-47303D03*
X92291Y-44716D03*
X84019Y-37181D03*
X85889Y-37185D03*
X79074Y-48307D03*
X78582Y-48307D03*
X78070Y-48307D03*
X77212Y-49850D03*
X77212Y-50598D03*
X77212Y-50244D03*
X76858Y-50244D03*
X76858Y-50598D03*
X76858Y-49850D03*
X76503Y-49850D03*
X76503Y-50598D03*
X76503Y-50244D03*
X75082Y-50236D03*
X75082Y-50590D03*
X75082Y-49842D03*
X74708Y-50236D03*
X74708Y-50590D03*
X74708Y-49842D03*
X75866Y-54866D03*
X76417Y-54866D03*
X76141Y-54866D03*
X76141Y-55141D03*
X76141Y-54590D03*
X76417Y-54590D03*
X76417Y-55141D03*
X75866Y-55141D03*
X71968Y-54688D03*
X71968Y-54314D03*
X71968Y-55062D03*
X72342Y-55062D03*
X72342Y-54314D03*
X72342Y-54688D03*
X75570Y-58307D03*
X75098Y-58307D03*
X77165Y-62637D03*
X106279Y-63129D03*
X105039Y-64330D03*
X79527Y-45216D03*
X80196Y-45216D03*
X79862Y-45216D03*
X79192Y-45511D03*
X79527Y-45511D03*
X78858Y-45511D03*
X78503Y-45511D03*
X77677Y-46456D03*
X78228Y-46456D03*
X78228Y-46791D03*
X77677Y-46791D03*
X84330Y-45570D03*
X78826Y-51507D03*
X79330Y-47696D03*
X78838Y-47696D03*
X78326Y-47696D03*
X77834Y-47696D03*
X76625Y-48897D03*
X77145Y-47933D03*
X77145Y-47381D03*
X77677Y-46122D03*
X78228Y-46122D03*
X76968Y-46791D03*
X79862Y-46673D03*
X86200Y-46437D03*
X86590Y-45976D03*
X86948Y-46437D03*
X85511Y-45964D03*
X84330Y-46082D03*
X80511Y-46358D03*
X80177Y-46358D03*
X80177Y-47480D03*
X80511Y-47480D03*
X74350Y-53287D03*
X74685Y-53011D03*
X74685Y-52736D03*
X74685Y-53287D03*
X75437Y-49842D03*
X75437Y-50590D03*
X75437Y-50236D03*
X98807Y-71535D03*
X104606Y-64507D03*
X105866Y-63523D03*
X105452Y-63897D03*
X107106Y-63976D03*
X104606Y-64783D03*
X106555Y-64527D03*
X105767Y-65354D03*
X106555Y-66259D03*
X103149Y-41929D03*
X103149Y-42322D03*
X103149Y-42716D03*
X103149Y-43503D03*
X103149Y-43110D03*
X103149Y-43897D03*
X103149Y-44291D03*
X102755Y-43897D03*
X102362Y-43897D03*
X102755Y-43110D03*
X102362Y-43110D03*
X102362Y-43503D03*
X102755Y-43503D03*
X102755Y-42716D03*
X102362Y-42716D03*
X102362Y-42322D03*
X102755Y-42322D03*
X102755Y-41929D03*
X102362Y-41929D03*
X103543Y-41929D03*
X103937Y-41929D03*
X103937Y-42322D03*
X103543Y-42322D03*
X103543Y-42716D03*
X103937Y-42716D03*
X103937Y-43503D03*
X103543Y-43503D03*
X103543Y-43110D03*
X103937Y-43110D03*
X103543Y-43897D03*
X103937Y-43897D03*
X103937Y-44291D03*
X103543Y-44291D03*
X107791Y-46889D03*
X101716Y-42334D03*
X106811Y-45925D03*
X106259Y-46570D03*
X93228Y-47303D03*
X93228Y-46673D03*
X93228Y-48051D03*
X92007Y-48051D03*
X100354Y-73759D03*
X101023Y-73759D03*
X97637Y-79586D03*
X97637Y-78129D03*
X97637Y-76830D03*
X95748Y-76830D03*
X95748Y-78129D03*
X93425Y-77618D03*
X92559Y-77618D03*
X92240Y-78448D03*
X92389Y-81149D03*
X96566Y-80759D03*
X95748Y-79586D03*
X96181Y-79114D03*
X74629Y-76291D03*
X75216Y-77602D03*
X75401Y-74960D03*
X87755Y-79665D03*
X87007Y-79665D03*
X86141Y-79665D03*
X82677Y-79665D03*
X83543Y-79665D03*
X85157Y-79665D03*
X84291Y-79665D03*
X79940Y-72677D03*
X79566Y-72677D03*
X78838Y-72677D03*
X79192Y-72677D03*
X109862Y-59429D03*
X110354Y-62401D03*
X110354Y-61633D03*
X109862Y-61870D03*
X109862Y-62401D03*
X108720Y-66259D03*
X107381Y-66259D03*
X104468Y-67500D03*
X103543Y-68129D03*
X102893Y-67933D03*
X99872Y-45964D03*
X81960Y-81755D03*
X81299Y-81830D03*
X83578Y-81799D03*
X82334Y-81755D03*
X102066Y-38602D03*
X102066Y-37874D03*
X102066Y-38248D03*
X102401Y-38248D03*
X102401Y-37874D03*
X102401Y-38602D03*
X102736Y-38602D03*
X102736Y-37874D03*
X102736Y-38248D03*
X104429Y-38248D03*
X104429Y-37874D03*
X104429Y-38602D03*
X103291Y-44980D03*
X106799Y-46555D03*
X83110Y-57618D03*
X82244Y-57618D03*
X82677Y-57145D03*
X103822Y-81342D03*
X93236Y-44716D03*
X86614Y-44429D03*
X86181Y-44901D03*
X87047Y-44901D03*
X85822Y-44440D03*
X86181Y-43759D03*
X86614Y-43287D03*
X87771Y-49980D03*
X85000Y-43287D03*
X84566Y-43759D03*
X85433Y-43759D03*
X85433Y-44901D03*
X85000Y-44429D03*
X86062Y-62027D03*
X86062Y-61043D03*
X86062Y-61594D03*
X82244Y-56555D03*
X83110Y-56555D03*
X83677Y-58188D03*
X83681Y-57141D03*
X82881Y-58212D03*
X88070Y-44901D03*
X92007Y-46673D03*
X91338Y-46673D03*
X87834Y-46437D03*
X89094Y-47578D03*
X87248Y-48700D03*
X88188Y-49704D03*
X87322Y-49704D03*
X96062Y-56948D03*
X99318Y-55787D03*
X101653Y-55413D03*
X102283Y-54685D03*
X99488Y-55413D03*
X100393Y-53444D03*
X100393Y-52696D03*
X100393Y-51870D03*
X100393Y-50452D03*
X100393Y-49153D03*
X100393Y-47893D03*
X100393Y-47263D03*
X100393Y-45964D03*
X100472Y-45098D03*
X106141Y-45925D03*
X105354Y-45925D03*
X99566Y-43169D03*
X99566Y-44114D03*
X101574Y-43129D03*
X101574Y-44074D03*
X111259Y-38090D03*
X110826Y-38562D03*
X111692Y-38562D03*
X112755Y-52775D03*
X112755Y-51003D03*
X112755Y-47893D03*
X112755Y-49665D03*
X112755Y-43444D03*
X112755Y-41673D03*
X112755Y-44783D03*
X112755Y-46555D03*
X112755Y-58996D03*
X112755Y-57224D03*
X112755Y-54114D03*
X112755Y-55885D03*
X112755Y-62106D03*
X112755Y-60334D03*
X112755Y-63444D03*
X112755Y-65216D03*
X112755Y-66555D03*
X110826Y-66909D03*
X109015Y-66909D03*
X109881Y-66909D03*
X112086Y-70846D03*
X111653Y-71318D03*
X112519Y-71318D03*
X111338Y-78090D03*
X110472Y-78090D03*
X110905Y-77618D03*
X112007Y-78641D03*
X111574Y-79114D03*
X112440Y-79114D03*
X110314Y-79114D03*
X109811Y-79460D03*
X109881Y-78641D03*
X109881Y-80374D03*
X109448Y-80846D03*
X110314Y-80846D03*
X79192Y-72342D03*
X78838Y-72342D03*
X75881Y-81791D03*
X75688Y-82531D03*
X77169Y-81933D03*
X74440Y-80720D03*
X72909Y-80791D03*
X74724Y-81830D03*
X72795Y-76988D03*
X72669Y-77452D03*
X73228Y-77460D03*
X71000Y-78023D03*
X70748Y-77460D03*
X71181Y-76988D03*
X71181Y-74980D03*
X70748Y-75452D03*
X71566Y-74507D03*
X73228Y-75452D03*
X72641Y-75456D03*
X72732Y-74559D03*
X72834Y-70964D03*
X72401Y-71437D03*
X73267Y-71437D03*
X71653Y-71437D03*
X70787Y-71437D03*
X71220Y-70964D03*
X71181Y-68326D03*
X70748Y-68799D03*
X71614Y-68799D03*
X80362Y-81791D03*
X78468Y-81858D03*
X79468Y-81811D03*
X75598Y-79181D03*
X75448Y-76149D03*
X76625Y-49468D03*
X75570Y-58602D03*
X75098Y-58602D03*
X79862Y-47224D03*
X79862Y-45511D03*
X79862Y-46102D03*
X76417Y-46791D03*
X75570Y-58011D03*
X75098Y-58011D03*
X92047Y-74429D03*
X91692Y-74429D03*
X90984Y-74429D03*
X91338Y-74429D03*
X90629Y-74429D03*
X90275Y-74429D03*
X89921Y-74429D03*
X89921Y-74114D03*
X90275Y-74114D03*
X90629Y-74114D03*
X91338Y-74114D03*
X90984Y-74114D03*
X91692Y-74114D03*
X92047Y-74114D03*
X92047Y-73759D03*
X91692Y-73759D03*
X90984Y-73759D03*
X91338Y-73759D03*
X90629Y-73759D03*
X90275Y-73759D03*
X89921Y-73759D03*
X89921Y-73051D03*
X90275Y-73051D03*
X90629Y-73051D03*
X91338Y-73051D03*
X90984Y-73051D03*
X91692Y-73051D03*
X92047Y-73051D03*
X92047Y-73405D03*
X91692Y-73405D03*
X90984Y-73405D03*
X91338Y-73405D03*
X90629Y-73405D03*
X90275Y-73405D03*
X89921Y-73405D03*
X89921Y-72578D03*
X90275Y-72578D03*
X90629Y-72578D03*
X91338Y-72578D03*
X90984Y-72578D03*
X91692Y-72578D03*
X92047Y-72578D03*
X92047Y-72224D03*
X91692Y-72224D03*
X90984Y-72224D03*
X91338Y-72224D03*
X90629Y-72224D03*
X90275Y-72224D03*
X89921Y-72224D03*
X77165Y-62362D03*
X77165Y-62086D03*
X77204Y-61417D03*
X76771Y-61417D03*
X76771Y-61712D03*
X77204Y-61712D03*
X77204Y-61122D03*
X76771Y-61122D03*
X71594Y-54688D03*
X71594Y-54314D03*
X71594Y-55062D03*
X76149Y-50244D03*
X75795Y-50244D03*
X75795Y-50598D03*
X76149Y-50598D03*
X75795Y-49850D03*
X76149Y-49850D03*
X75866Y-54590D03*
X108307Y-58976D03*
X108307Y-59291D03*
X104330Y-44291D03*
X104724Y-44291D03*
X105511Y-44291D03*
X105118Y-44291D03*
X105905Y-44291D03*
X106299Y-44291D03*
X106692Y-44291D03*
X107086Y-44291D03*
X107086Y-43897D03*
X106692Y-43897D03*
X106299Y-43897D03*
X105905Y-43897D03*
X105118Y-43897D03*
X105511Y-43897D03*
X104724Y-43897D03*
X104330Y-43897D03*
X107086Y-43110D03*
X106692Y-43110D03*
X106299Y-43110D03*
X105905Y-43110D03*
X105118Y-43110D03*
X105511Y-43110D03*
X104724Y-43110D03*
X104330Y-43110D03*
X104330Y-43503D03*
X104724Y-43503D03*
X105511Y-43503D03*
X105118Y-43503D03*
X105905Y-43503D03*
X106299Y-43503D03*
X106692Y-43503D03*
X107086Y-43503D03*
X107086Y-42716D03*
X106692Y-42716D03*
X106299Y-42716D03*
X105905Y-42716D03*
X105118Y-42716D03*
X105511Y-42716D03*
X104724Y-42716D03*
X104330Y-42716D03*
X104330Y-42322D03*
X104724Y-42322D03*
X105511Y-42322D03*
X105118Y-42322D03*
X105905Y-42322D03*
X106299Y-42322D03*
X106692Y-42322D03*
X107086Y-42322D03*
X107086Y-41929D03*
X106692Y-41929D03*
X106299Y-41929D03*
X105905Y-41929D03*
X105118Y-41929D03*
X105511Y-41929D03*
X104724Y-41929D03*
G54D12*
X108083Y-35511D03*
G54D13*
X109083Y-35511D03*
G54D14*
X111732Y-82283D03*
X111732Y-36141D03*
X71220Y-36141D03*
X71220Y-82283D03*
G54D11*
X104330Y-41929D03*
G54D15*
X70885Y-63562D03*
X72814Y-63799D03*
X72814Y-69507D03*
X70885Y-69744D03*
G54D11*
X78838Y-71948D03*
X78838Y-71476D03*
X79192Y-71476D03*
X79192Y-71948D03*
X79015Y-71712D03*
X83661Y-53543D03*
X83661Y-53031D03*
X83661Y-52007D03*
X83661Y-52519D03*
X83661Y-51496D03*
X83661Y-50984D03*
X84173Y-51496D03*
X84173Y-52519D03*
X84173Y-52007D03*
X84173Y-53031D03*
X84173Y-53543D03*
X84173Y-50984D03*
X84685Y-53543D03*
X84685Y-53031D03*
X84685Y-52007D03*
X84685Y-52519D03*
X84685Y-51496D03*
X84685Y-50984D03*
X85196Y-51496D03*
X85196Y-52519D03*
X85196Y-52007D03*
X85196Y-53031D03*
X85196Y-53543D03*
X85196Y-50984D03*
X85708Y-53543D03*
X85708Y-53031D03*
X85708Y-52007D03*
X85708Y-52519D03*
X85708Y-51496D03*
X85708Y-50984D03*
X86220Y-50984D03*
X86220Y-51496D03*
X86220Y-52007D03*
X86220Y-53543D03*
X86220Y-53031D03*
X86220Y-52519D03*
G54D16*
X100291Y-41531D03*
X85251Y-41531D03*
X100291Y-57279D03*
X85251Y-57279D03*
G54D17*
X71515Y-79417D03*
X70515Y-79417D03*
X72515Y-73496D03*
X71515Y-73496D03*
G54D18*
X77614Y-78854D03*
X77614Y-78055D03*
X77614Y-77255D03*
X77614Y-75657D03*
X77614Y-74858D03*
X77614Y-74059D03*
X76614Y-78454D03*
X76614Y-77655D03*
X76614Y-76856D03*
X76614Y-74458D03*
X76614Y-75257D03*
G54D19*
X74015Y-79921D03*
G54D20*
X74015Y-78356D03*
X74015Y-74557D03*
G54D19*
X74015Y-72992D03*
G54D18*
X76614Y-76057D03*
G54D17*
X70515Y-73496D03*
G54D21*
X111102Y-72881D03*
X111102Y-73881D03*
X111102Y-74881D03*
X111102Y-75881D03*
X111102Y-76881D03*
G54D22*
X106417Y-77755D03*
X104133Y-77755D03*
X106417Y-80511D03*
X104133Y-80511D03*
G54D23*
X105275Y-77952D03*
X105275Y-78740D03*
X105275Y-79527D03*
X105275Y-80314D03*
G54D22*
X101082Y-77755D03*
X98799Y-77755D03*
X101082Y-80511D03*
X98799Y-80511D03*
G54D23*
X99940Y-77952D03*
X99940Y-78740D03*
X99940Y-79527D03*
X99940Y-80314D03*
G54D24*
X98326Y-61909D03*
X98326Y-62303D03*
X98326Y-62696D03*
X98326Y-63090D03*
X98326Y-63484D03*
X98326Y-63877D03*
X98326Y-64271D03*
X98326Y-64665D03*
X98326Y-65059D03*
X98326Y-65452D03*
X98326Y-65846D03*
X98326Y-66240D03*
X98326Y-66633D03*
X98326Y-67027D03*
X98326Y-68996D03*
X98326Y-69389D03*
X98326Y-69783D03*
X98326Y-70177D03*
X97933Y-61909D03*
X97933Y-62303D03*
X97933Y-62696D03*
X97933Y-63090D03*
X97933Y-63484D03*
X97933Y-63877D03*
X97933Y-64271D03*
X97933Y-64665D03*
X97933Y-65059D03*
X97933Y-65452D03*
X97933Y-65846D03*
X97933Y-66240D03*
X97933Y-66633D03*
X97933Y-67027D03*
X97933Y-68996D03*
X97933Y-69389D03*
X97933Y-69783D03*
X97933Y-70177D03*
X97539Y-61909D03*
X97539Y-62303D03*
X97539Y-62696D03*
X97539Y-63090D03*
X97539Y-63484D03*
X97539Y-63877D03*
X97539Y-64271D03*
X97539Y-64665D03*
X97539Y-65059D03*
X97539Y-65452D03*
X97539Y-65846D03*
X97539Y-66240D03*
X97539Y-66633D03*
X97539Y-67027D03*
X97539Y-67421D03*
X97539Y-67814D03*
X97539Y-68208D03*
X97539Y-68602D03*
X97539Y-68996D03*
X97539Y-69389D03*
X97539Y-69783D03*
X97539Y-70177D03*
X97145Y-61909D03*
X97145Y-62303D03*
X97145Y-62696D03*
X97145Y-63090D03*
X97145Y-63484D03*
X97145Y-63877D03*
X97145Y-64271D03*
X97145Y-64665D03*
X97145Y-65059D03*
X97145Y-65452D03*
X97145Y-65846D03*
X97145Y-66240D03*
X97145Y-66633D03*
X97145Y-67027D03*
X97145Y-67421D03*
X97145Y-67814D03*
X97145Y-68208D03*
X97145Y-68602D03*
X97145Y-68996D03*
X97145Y-69389D03*
X97145Y-69783D03*
X97145Y-70177D03*
X96751Y-61909D03*
X96751Y-62303D03*
X96751Y-62696D03*
X96751Y-63090D03*
X96751Y-63484D03*
X96751Y-63877D03*
X96751Y-64271D03*
X96751Y-64665D03*
X96751Y-65059D03*
X96751Y-65452D03*
X96751Y-65846D03*
X96751Y-66240D03*
X96751Y-66633D03*
X96751Y-67027D03*
X96751Y-67421D03*
X96751Y-67814D03*
X96751Y-68208D03*
X96751Y-68602D03*
X96751Y-68996D03*
X96751Y-69389D03*
X96751Y-69783D03*
X96751Y-70177D03*
X96358Y-61909D03*
X96358Y-62303D03*
X96358Y-62696D03*
X96358Y-63090D03*
X96358Y-63484D03*
X96358Y-63877D03*
X96358Y-64271D03*
X96358Y-64665D03*
X96358Y-65059D03*
X96358Y-65452D03*
X96358Y-65846D03*
X96358Y-66240D03*
X96358Y-66633D03*
X96358Y-67027D03*
X96358Y-67421D03*
X96358Y-67814D03*
X96358Y-68208D03*
X96358Y-68602D03*
X96358Y-68996D03*
X96358Y-69389D03*
X96358Y-69783D03*
X96358Y-70177D03*
X95964Y-61909D03*
X95964Y-62303D03*
X95964Y-62696D03*
X95964Y-63090D03*
X95964Y-63484D03*
X95964Y-63877D03*
X95964Y-64271D03*
X95964Y-64665D03*
X95964Y-65059D03*
X95964Y-65452D03*
X95964Y-65846D03*
X95964Y-66240D03*
X95964Y-66633D03*
X95964Y-67027D03*
X95964Y-67421D03*
X95964Y-67814D03*
X95964Y-68208D03*
X95964Y-68602D03*
X95964Y-68996D03*
X95964Y-69389D03*
X95964Y-69783D03*
X95964Y-70177D03*
X95570Y-61909D03*
X95570Y-62303D03*
X95570Y-62696D03*
X95570Y-63090D03*
X95570Y-63484D03*
X95570Y-63877D03*
X95570Y-64271D03*
X95570Y-64665D03*
X95570Y-65059D03*
X95570Y-65452D03*
X95570Y-65846D03*
X95570Y-66240D03*
X95570Y-66633D03*
X95570Y-67027D03*
X95570Y-67421D03*
X95570Y-67814D03*
X95570Y-68208D03*
X95570Y-68602D03*
X95570Y-68996D03*
X95570Y-69389D03*
X95570Y-69783D03*
X95570Y-70177D03*
X95177Y-61909D03*
X95177Y-62303D03*
X95177Y-62696D03*
X95177Y-63090D03*
X95177Y-63484D03*
X95177Y-63877D03*
X95177Y-64271D03*
X95177Y-64665D03*
X95177Y-65059D03*
X95177Y-65452D03*
X95177Y-65846D03*
X95177Y-66240D03*
X95177Y-66633D03*
X95177Y-67421D03*
X95177Y-67814D03*
X95177Y-68208D03*
X95177Y-68602D03*
X95177Y-68996D03*
X95177Y-69389D03*
X95177Y-69783D03*
X95177Y-70177D03*
X94783Y-61909D03*
X94783Y-62303D03*
X94783Y-62696D03*
X94783Y-63090D03*
X94783Y-63484D03*
X94783Y-63877D03*
X94783Y-64271D03*
X94783Y-64665D03*
X94783Y-65059D03*
X94783Y-65452D03*
X94783Y-65846D03*
X94783Y-66240D03*
X94783Y-66633D03*
X94783Y-67027D03*
X94783Y-68208D03*
X94783Y-68602D03*
X94783Y-68996D03*
X94783Y-69389D03*
X94783Y-69783D03*
X94783Y-70177D03*
X94389Y-61909D03*
X94389Y-62303D03*
X94389Y-62696D03*
X94389Y-63090D03*
X94389Y-63484D03*
X94389Y-63877D03*
X94389Y-64271D03*
X94389Y-64665D03*
X94389Y-65059D03*
X94389Y-65452D03*
X94389Y-65846D03*
X94389Y-66240D03*
X94389Y-66633D03*
X94389Y-67027D03*
X94389Y-67421D03*
X94389Y-67814D03*
X94389Y-68208D03*
X94389Y-68602D03*
X94389Y-68996D03*
X94389Y-69389D03*
X94389Y-69783D03*
X94389Y-70177D03*
X93996Y-61909D03*
X93996Y-62303D03*
X93996Y-62696D03*
X93996Y-63090D03*
X93996Y-63484D03*
X93996Y-63877D03*
X93996Y-64271D03*
X93996Y-64665D03*
X93996Y-65059D03*
X93996Y-65452D03*
X93996Y-65846D03*
X93996Y-66240D03*
X93996Y-66633D03*
X93996Y-67027D03*
X93996Y-67814D03*
X93996Y-68208D03*
X93996Y-68602D03*
X93996Y-68996D03*
X93996Y-69389D03*
X93996Y-69783D03*
X93996Y-70177D03*
X93602Y-61909D03*
X93602Y-62303D03*
X93602Y-62696D03*
X93602Y-63090D03*
X93602Y-63484D03*
X93602Y-63877D03*
X93602Y-64271D03*
X93602Y-64665D03*
X93602Y-65059D03*
X93602Y-65452D03*
X93602Y-65846D03*
X93602Y-66240D03*
X93602Y-66633D03*
X93602Y-67027D03*
X93602Y-67421D03*
X93602Y-67814D03*
X93602Y-68208D03*
X93602Y-68602D03*
X93602Y-68996D03*
X93602Y-69389D03*
X93602Y-69783D03*
X93602Y-70177D03*
X93208Y-61909D03*
X93208Y-62303D03*
X93208Y-62696D03*
X93208Y-63090D03*
X93208Y-63484D03*
X93208Y-63877D03*
X93208Y-64271D03*
X93208Y-64665D03*
X93208Y-65059D03*
X93208Y-65452D03*
X93208Y-65846D03*
X93208Y-66240D03*
X93208Y-66633D03*
X93208Y-67027D03*
X93208Y-67421D03*
X93208Y-67814D03*
X93208Y-68208D03*
X93208Y-68602D03*
X93208Y-68996D03*
X93208Y-69389D03*
X93208Y-69783D03*
X93208Y-70177D03*
X92814Y-61909D03*
X92814Y-62303D03*
X92814Y-62696D03*
X92814Y-63090D03*
X92814Y-63484D03*
X92814Y-63877D03*
X92814Y-64271D03*
X92814Y-65059D03*
X92814Y-65452D03*
X92814Y-65846D03*
X92814Y-66240D03*
X92814Y-66633D03*
X92814Y-67027D03*
X92814Y-67421D03*
X92814Y-67814D03*
X92814Y-68208D03*
X92814Y-68602D03*
X92814Y-68996D03*
X92814Y-69389D03*
X92814Y-69783D03*
X92814Y-70177D03*
X92421Y-61909D03*
X92421Y-62303D03*
X92421Y-62696D03*
X92421Y-63090D03*
X92421Y-63484D03*
X92421Y-63877D03*
X92421Y-64271D03*
X92421Y-64665D03*
X92421Y-65059D03*
X92421Y-65452D03*
X92421Y-65846D03*
X92421Y-66240D03*
X92421Y-66633D03*
X92421Y-67027D03*
X92421Y-67421D03*
X92421Y-67814D03*
X92421Y-68208D03*
X92421Y-68602D03*
X92421Y-68996D03*
X92421Y-69389D03*
X92421Y-69783D03*
X92421Y-70177D03*
X92027Y-61909D03*
X92027Y-62303D03*
X92027Y-62696D03*
X92027Y-63090D03*
X92027Y-63484D03*
X92027Y-63877D03*
X92027Y-64271D03*
X92027Y-64665D03*
X92027Y-65059D03*
X92027Y-65452D03*
X92027Y-65846D03*
X92027Y-66240D03*
X92027Y-66633D03*
X92027Y-67027D03*
X92027Y-67421D03*
X92027Y-67814D03*
X92027Y-68208D03*
X92027Y-68602D03*
X92027Y-68996D03*
X92027Y-69389D03*
X92027Y-69783D03*
X92027Y-70177D03*
X91633Y-61909D03*
X91633Y-62303D03*
X91633Y-62696D03*
X91633Y-63090D03*
X91633Y-63484D03*
X91633Y-63877D03*
X91633Y-64271D03*
X91633Y-64665D03*
X91633Y-65059D03*
X91633Y-65452D03*
X91633Y-65846D03*
X91633Y-66240D03*
X91633Y-66633D03*
X91633Y-67027D03*
X91633Y-67421D03*
X91633Y-67814D03*
X91633Y-68208D03*
X91633Y-68602D03*
X91633Y-68996D03*
X91633Y-69389D03*
X91633Y-69783D03*
X91633Y-70177D03*
X91240Y-61909D03*
X91240Y-62303D03*
X91240Y-62696D03*
X91240Y-63090D03*
X91240Y-63484D03*
X91240Y-63877D03*
X91240Y-64271D03*
X91240Y-64665D03*
X91240Y-65059D03*
X91240Y-65452D03*
X91240Y-65846D03*
X91240Y-66240D03*
X91240Y-66633D03*
X91240Y-67027D03*
X91240Y-67421D03*
X91240Y-67814D03*
X91240Y-68208D03*
X91240Y-68602D03*
X91240Y-68996D03*
X91240Y-69389D03*
X91240Y-69783D03*
X91240Y-70177D03*
X90846Y-61909D03*
X90846Y-62303D03*
X90846Y-62696D03*
X90846Y-63090D03*
X90846Y-63484D03*
X90846Y-63877D03*
X90846Y-64271D03*
X90846Y-64665D03*
X90846Y-65059D03*
X90846Y-65452D03*
X90846Y-65846D03*
X90846Y-66240D03*
X90846Y-66633D03*
X90846Y-67027D03*
X90846Y-67421D03*
X90846Y-67814D03*
X90846Y-68208D03*
X90846Y-68602D03*
X90846Y-68996D03*
X90846Y-69389D03*
X90846Y-69783D03*
X90846Y-70177D03*
X90452Y-61909D03*
X90452Y-62303D03*
X90452Y-62696D03*
X90452Y-63090D03*
X90452Y-63484D03*
X90452Y-63877D03*
X90452Y-64271D03*
X90452Y-64665D03*
X90452Y-65059D03*
X90452Y-65452D03*
X90452Y-65846D03*
X90452Y-66240D03*
X90452Y-66633D03*
X90452Y-67027D03*
X90452Y-67421D03*
X90452Y-67814D03*
X90452Y-68208D03*
X90452Y-68602D03*
X90452Y-68996D03*
X90452Y-69389D03*
X90452Y-69783D03*
X90452Y-70177D03*
X90059Y-61909D03*
X90059Y-62303D03*
X90059Y-62696D03*
X90059Y-63090D03*
X90059Y-63484D03*
X90059Y-63877D03*
X90059Y-64271D03*
X90059Y-64665D03*
X90059Y-65059D03*
X90059Y-65452D03*
X90059Y-65846D03*
X90059Y-66240D03*
X90059Y-66633D03*
X90059Y-67027D03*
X90059Y-67421D03*
X90059Y-67814D03*
X90059Y-68208D03*
X90059Y-68602D03*
X90059Y-68996D03*
X90059Y-69389D03*
X90059Y-69783D03*
X90059Y-70177D03*
G54D25*
X110787Y-40633D03*
X110787Y-65192D03*
G54D24*
X80102Y-44000D03*
X79866Y-44000D03*
X79629Y-44236D03*
X79629Y-44000D03*
X79629Y-44472D03*
X79866Y-44472D03*
X80102Y-44472D03*
X80102Y-44236D03*
X79866Y-44236D03*
X79629Y-43055D03*
X79866Y-43055D03*
X80102Y-43055D03*
X79866Y-43527D03*
X80102Y-43527D03*
X80102Y-43763D03*
X79866Y-43763D03*
X79629Y-43763D03*
X79629Y-43291D03*
X79629Y-43527D03*
X79866Y-43291D03*
X80102Y-43291D03*
X80102Y-42346D03*
X79866Y-42346D03*
X79629Y-42582D03*
X79629Y-42346D03*
X79629Y-42818D03*
X79866Y-42818D03*
X80102Y-42818D03*
X80102Y-42582D03*
X79866Y-42582D03*
X79866Y-41874D03*
X80102Y-41874D03*
X80102Y-42110D03*
X79866Y-42110D03*
X79629Y-42110D03*
X79629Y-41637D03*
X79629Y-41874D03*
X79866Y-41637D03*
X80102Y-41637D03*
G54D19*
X73251Y-42539D03*
X73251Y-44409D03*
X73251Y-46279D03*
G54D26*
X72244Y-47874D03*
X72244Y-40944D03*
G54D27*
X74803Y-38066D03*
X74803Y-36019D03*
X79488Y-36019D03*
G54D28*
X77145Y-37614D03*
G54D27*
X79488Y-38066D03*
G54D29*
X77145Y-40232D03*
G54D23*
X85708Y-82047D03*
X86496Y-82047D03*
X89645Y-82047D03*
X88858Y-82047D03*
X88070Y-82047D03*
X87283Y-82047D03*
G54D24*
X99468Y-40137D03*
X94822Y-54557D03*
X89271Y-73051D03*
X87606Y-73062D03*
X95389Y-73602D03*
X92923Y-74143D03*
X96326Y-73629D03*
X92539Y-74645D03*
X82751Y-73385D03*
X90462Y-71545D03*
X83507Y-73649D03*
X90620Y-71377D03*
X84149Y-73633D03*
X90935Y-71377D03*
X84377Y-73212D03*
X91250Y-71377D03*
X91407Y-71545D03*
X91564Y-71377D03*
X91879Y-71377D03*
X92037Y-71545D03*
X92923Y-73828D03*
X92746Y-73671D03*
X92923Y-73513D03*
X92746Y-73356D03*
X92746Y-73041D03*
X93080Y-72883D03*
X92746Y-72726D03*
X92923Y-72568D03*
X102755Y-47185D03*
X111023Y-44409D03*
X110511Y-44881D03*
X102952Y-46751D03*
X99763Y-47185D03*
X102185Y-48759D03*
X105000Y-49133D03*
X111023Y-48897D03*
X99763Y-48759D03*
X104921Y-49763D03*
X110511Y-49370D03*
X103149Y-47381D03*
X102185Y-47381D03*
X111023Y-44881D03*
X110511Y-45393D03*
X103346Y-46968D03*
X99901Y-47381D03*
X103543Y-47775D03*
X102185Y-47775D03*
X111023Y-45905D03*
X99763Y-47775D03*
X103740Y-47578D03*
X110511Y-46889D03*
X103937Y-48366D03*
X102185Y-48366D03*
X111023Y-47401D03*
X104133Y-48188D03*
X99763Y-48366D03*
X110511Y-47874D03*
X104330Y-48562D03*
X102322Y-48562D03*
X111023Y-47874D03*
X104527Y-48956D03*
X99901Y-48562D03*
X110511Y-48385D03*
X102185Y-49547D03*
X106102Y-51653D03*
X110511Y-51377D03*
X99763Y-49547D03*
X105787Y-51062D03*
X110511Y-50905D03*
X102185Y-51122D03*
X108070Y-55629D03*
X110511Y-55393D03*
X108070Y-58267D03*
X99763Y-51122D03*
X111023Y-55393D03*
X102322Y-49744D03*
X106299Y-52125D03*
X111023Y-51889D03*
X106771Y-52913D03*
X99901Y-49744D03*
X111023Y-52401D03*
X102185Y-50137D03*
X107204Y-53661D03*
X111023Y-53385D03*
X106299Y-53051D03*
X110511Y-52401D03*
X99763Y-50137D03*
X107362Y-54370D03*
X102185Y-50728D03*
X110511Y-53897D03*
X107283Y-55157D03*
X99763Y-50728D03*
X111023Y-53897D03*
X102322Y-50925D03*
X107874Y-55157D03*
X111023Y-54881D03*
X107480Y-57381D03*
X99901Y-50925D03*
X110511Y-54409D03*
X85137Y-61909D03*
X86437Y-61633D03*
X87027Y-61909D03*
X85511Y-61141D03*
X87027Y-60964D03*
X85511Y-61771D03*
X87027Y-61594D03*
X85137Y-61594D03*
X86712Y-61594D03*
X85511Y-61456D03*
X87027Y-61279D03*
X85137Y-61279D03*
X86712Y-61279D03*
X85137Y-63484D03*
X87027Y-63484D03*
X85452Y-64153D03*
X86712Y-64429D03*
X87401Y-64291D03*
X84822Y-64429D03*
X87401Y-64921D03*
X84822Y-65059D03*
X85679Y-63523D03*
X85511Y-63031D03*
X88956Y-63464D03*
X86712Y-63169D03*
X87864Y-66151D03*
X87362Y-62874D03*
X84822Y-63169D03*
X87401Y-63661D03*
X89133Y-63877D03*
X84822Y-63799D03*
X85137Y-64744D03*
X85816Y-63700D03*
X88267Y-63952D03*
X87027Y-64744D03*
X87047Y-69645D03*
X85531Y-69803D03*
X85157Y-69645D03*
X86732Y-70275D03*
X85157Y-70590D03*
X86732Y-69645D03*
X86141Y-67921D03*
X85157Y-69960D03*
X87047Y-69960D03*
X85531Y-70118D03*
X86732Y-69960D03*
X85157Y-70275D03*
X87047Y-70275D03*
X85531Y-70433D03*
X87047Y-67755D03*
X85157Y-68070D03*
X86732Y-67125D03*
X85531Y-67283D03*
X84842Y-67125D03*
X87421Y-67283D03*
X84842Y-66496D03*
X87421Y-66653D03*
X86250Y-69330D03*
X85531Y-68543D03*
X84842Y-68385D03*
X87421Y-68543D03*
X84842Y-67755D03*
X87421Y-67814D03*
X87047Y-66811D03*
X85157Y-66811D03*
X95177Y-56889D03*
X87568Y-50984D03*
X95324Y-57037D03*
X87726Y-51181D03*
X97933Y-58661D03*
X87726Y-53346D03*
X98080Y-58809D03*
X87568Y-53543D03*
X95570Y-57185D03*
X87568Y-51377D03*
X87726Y-51574D03*
X95718Y-57332D03*
X96062Y-57480D03*
X87568Y-51771D03*
X96210Y-57627D03*
X87726Y-51968D03*
X96751Y-58070D03*
X87726Y-52559D03*
X96899Y-58218D03*
X87568Y-52755D03*
X97293Y-58366D03*
X87726Y-52952D03*
X97539Y-58513D03*
X87568Y-53149D03*
X83858Y-65649D03*
X95248Y-71637D03*
X86358Y-72364D03*
X95031Y-71787D03*
X87370Y-72228D03*
X95318Y-71940D03*
X87846Y-72287D03*
X96606Y-70704D03*
X91505Y-54055D03*
X91515Y-52952D03*
X94143Y-58956D03*
X91348Y-51909D03*
X91348Y-51683D03*
X90826Y-52687D03*
X91505Y-53572D03*
X91505Y-53346D03*
X91515Y-52470D03*
X91348Y-51427D03*
X91515Y-52726D03*
X94143Y-59173D03*
X91505Y-53828D03*
X91348Y-51200D03*
X91515Y-52244D03*
X95098Y-55492D03*
X95305Y-55492D03*
X92519Y-55492D03*
X91811Y-55492D03*
X92293Y-55492D03*
X92037Y-55492D03*
X93415Y-55492D03*
X93641Y-55492D03*
X95787Y-55492D03*
X94478Y-55492D03*
X94704Y-55492D03*
X95561Y-55492D03*
X93996Y-55492D03*
X94222Y-55492D03*
X92933Y-55492D03*
X93159Y-55492D03*
X82795Y-67322D03*
X82795Y-60954D03*
X78828Y-67322D03*
X80413Y-61909D03*
X81909Y-58799D03*
X81830Y-67322D03*
X94783Y-59547D03*
X81220Y-67322D03*
X81692Y-60787D03*
X102129Y-69228D03*
X102129Y-62779D03*
X77007Y-68937D03*
X77007Y-69370D03*
X77007Y-69803D03*
X77007Y-70236D03*
X109291Y-77165D03*
X109291Y-76909D03*
X109291Y-74645D03*
X109291Y-74389D03*
X109291Y-74143D03*
X109291Y-73887D03*
X109291Y-73641D03*
X109291Y-73385D03*
X109291Y-76663D03*
X109291Y-76407D03*
X109291Y-76161D03*
X109291Y-75905D03*
X109291Y-75649D03*
X109291Y-75403D03*
X109291Y-75147D03*
X109291Y-74891D03*
X112106Y-77165D03*
X112106Y-76909D03*
X112106Y-74645D03*
X112106Y-74389D03*
X112106Y-74143D03*
X112106Y-73887D03*
X112106Y-73631D03*
X112106Y-73385D03*
X112106Y-76663D03*
X112106Y-76407D03*
X112106Y-76161D03*
X112106Y-75905D03*
X112106Y-75649D03*
X112106Y-75403D03*
X112106Y-75147D03*
X112106Y-74901D03*
X101013Y-69143D03*
X101269Y-71909D03*
X101417Y-72106D03*
X94094Y-72106D03*
X94094Y-72391D03*
X101417Y-72500D03*
X94094Y-72696D03*
X101269Y-72696D03*
X94724Y-72893D03*
X101417Y-72893D03*
X94566Y-73090D03*
X101269Y-73090D03*
X94251Y-73287D03*
X101417Y-73287D03*
X101269Y-73484D03*
X94409Y-73484D03*
X72677Y-65767D03*
X73710Y-65570D03*
X104511Y-79535D03*
X103728Y-78740D03*
X94055Y-75866D03*
X105000Y-75492D03*
X105354Y-72893D03*
X95354Y-75866D03*
X105885Y-75866D03*
X105885Y-72303D03*
X104507Y-76043D03*
X104566Y-73543D03*
X96594Y-76850D03*
X93188Y-75866D03*
X105708Y-75314D03*
X105708Y-72500D03*
X94921Y-75866D03*
X105531Y-75688D03*
X105531Y-72696D03*
X95393Y-37350D03*
X95393Y-50954D03*
X94448Y-51289D03*
X88641Y-47047D03*
X91594Y-47755D03*
X94242Y-47755D03*
X89921Y-36968D03*
X92874Y-51289D03*
X90925Y-36968D03*
X93188Y-51919D03*
X91929Y-36968D03*
X93031Y-50954D03*
X92519Y-37736D03*
X93188Y-51289D03*
X93523Y-37736D03*
X93346Y-50954D03*
X94527Y-37736D03*
X93503Y-51604D03*
X104744Y-36496D03*
X98513Y-50964D03*
X93818Y-51289D03*
X105629Y-36496D03*
X98336Y-51692D03*
X93818Y-51604D03*
X106614Y-36338D03*
X94133Y-51919D03*
X98690Y-51879D03*
X99360Y-37647D03*
X97440Y-54728D03*
X95393Y-53494D03*
X86992Y-38740D03*
X94133Y-52549D03*
X84905Y-38409D03*
X94763Y-52864D03*
X88169Y-38248D03*
X95393Y-53809D03*
X85885Y-38244D03*
X94763Y-53179D03*
X83866Y-38015D03*
X95866Y-54498D03*
X111053Y-69242D03*
X107657Y-69232D03*
X76692Y-55787D03*
X76161Y-59488D03*
X89468Y-59842D03*
X78681Y-65787D03*
X76830Y-55452D03*
X87844Y-65738D03*
X70944Y-54389D03*
X70590Y-58681D03*
X98248Y-59724D03*
X77381Y-53622D03*
X72716Y-53622D03*
X101259Y-53484D03*
X84862Y-62263D03*
X84862Y-62578D03*
X87047Y-69015D03*
X87047Y-68700D03*
X86870Y-59360D03*
X91387Y-59360D03*
X86751Y-61948D03*
X86437Y-61948D03*
X92500Y-59527D03*
X87194Y-59527D03*
X87037Y-62253D03*
X86437Y-63523D03*
X85728Y-64507D03*
X85511Y-63661D03*
X84488Y-62401D03*
X84143Y-60570D03*
X93061Y-60570D03*
X86200Y-63011D03*
X86437Y-64783D03*
X85511Y-64921D03*
X85511Y-62086D03*
X84862Y-61948D03*
X84862Y-60374D03*
X92667Y-60374D03*
X85177Y-62263D03*
X85846Y-63366D03*
X86407Y-62234D03*
X85866Y-67598D03*
X85866Y-69330D03*
X85807Y-66417D03*
X85531Y-69488D03*
X85157Y-69015D03*
X85000Y-65925D03*
X85531Y-67913D03*
X86289Y-67283D03*
X87598Y-69173D03*
X87667Y-66427D03*
X85639Y-65925D03*
X86358Y-65925D03*
X86417Y-69645D03*
X86200Y-66368D03*
X87864Y-69173D03*
X88248Y-64374D03*
X86574Y-65925D03*
X86732Y-69015D03*
X85531Y-69173D03*
X85413Y-65925D03*
X73011Y-64625D03*
X73917Y-66003D03*
X79783Y-65816D03*
X86220Y-49635D03*
X79940Y-65383D03*
X85826Y-49635D03*
X74547Y-64980D03*
X96358Y-57923D03*
X87568Y-52372D03*
X87568Y-52155D03*
X96505Y-57775D03*
X81043Y-63031D03*
X84448Y-49517D03*
X84645Y-49635D03*
X80885Y-62106D03*
X80098Y-65580D03*
X85629Y-49517D03*
X97500Y-58208D03*
X111023Y-49370D03*
X105118Y-56102D03*
X99763Y-51515D03*
X97342Y-56791D03*
X111496Y-56417D03*
X102185Y-51515D03*
X107746Y-65137D03*
X108503Y-48385D03*
X108503Y-47874D03*
X107362Y-65698D03*
X94311Y-56486D03*
X89401Y-56161D03*
X91236Y-60165D03*
X98555Y-61129D03*
X89767Y-56240D03*
X91232Y-59937D03*
X94870Y-60425D03*
X95968Y-61555D03*
X95078Y-51917D03*
X91602Y-55480D03*
X81653Y-55472D03*
X74822Y-60275D03*
X81653Y-58799D03*
X94744Y-55905D03*
X94448Y-52234D03*
X98740Y-60137D03*
X99921Y-52244D03*
X94921Y-50954D03*
X95078Y-51604D03*
X99921Y-52608D03*
X99074Y-60137D03*
X97696Y-50875D03*
X94606Y-50954D03*
X95724Y-56984D03*
X94133Y-51289D03*
X81417Y-50285D03*
X81417Y-66811D03*
X90236Y-51141D03*
X91358Y-58984D03*
X95964Y-59360D03*
X94133Y-51604D03*
X94751Y-49720D03*
X94448Y-51604D03*
X96318Y-49753D03*
X95078Y-51289D03*
X98513Y-51515D03*
X98405Y-60137D03*
X98362Y-52220D03*
X97783Y-60185D03*
X94448Y-51919D03*
X93848Y-56722D03*
X94133Y-52234D03*
X88641Y-50433D03*
X88641Y-47539D03*
X95393Y-51289D03*
X75157Y-60275D03*
X96078Y-53062D03*
X89881Y-50925D03*
X89881Y-48543D03*
X94763Y-52234D03*
X75531Y-60275D03*
X96220Y-56732D03*
X89625Y-56555D03*
X89645Y-48041D03*
X89645Y-50767D03*
X94763Y-51919D03*
X91614Y-54291D03*
X94763Y-51604D03*
X94763Y-53809D03*
X95566Y-49614D03*
X95393Y-54124D03*
X96151Y-54488D03*
X98503Y-51259D03*
X99874Y-54547D03*
X93090Y-50334D03*
X90984Y-51200D03*
X96724Y-55059D03*
X85118Y-59763D03*
X93346Y-49763D03*
X85118Y-59566D03*
X85118Y-59960D03*
X94448Y-53484D03*
X95393Y-51604D03*
X93484Y-55944D03*
X76102Y-42637D03*
X75826Y-41968D03*
X76377Y-41968D03*
X94881Y-40039D03*
X92519Y-40039D03*
X91515Y-40039D03*
X90531Y-40039D03*
X91181Y-35807D03*
X91850Y-35807D03*
X90846Y-35807D03*
X90177Y-35807D03*
X89173Y-35807D03*
X89842Y-35807D03*
X88838Y-35807D03*
X88169Y-35807D03*
X87165Y-35807D03*
X87834Y-35807D03*
X86181Y-35807D03*
X86850Y-35807D03*
X85846Y-35807D03*
X85177Y-35807D03*
X84173Y-35807D03*
X84842Y-35807D03*
X83838Y-35807D03*
X83169Y-35807D03*
X94763Y-52549D03*
X96122Y-51564D03*
X89901Y-75570D03*
X106043Y-83326D03*
X107106Y-81673D03*
X98858Y-45019D03*
X97637Y-71811D03*
X82677Y-72362D03*
X82677Y-72618D03*
X92614Y-79094D03*
X92425Y-79633D03*
X93464Y-83169D03*
X93464Y-82165D03*
X71417Y-52874D03*
X88070Y-76692D03*
X87244Y-74763D03*
X101496Y-59862D03*
X101240Y-60570D03*
X103027Y-61964D03*
X102696Y-78976D03*
X102696Y-78228D03*
X96141Y-48435D03*
X95551Y-48897D03*
X96614Y-56574D03*
X92185Y-48700D03*
X91811Y-48976D03*
X93996Y-50334D03*
X90078Y-52795D03*
X90059Y-51437D03*
X89094Y-52224D03*
X87775Y-47283D03*
X92627Y-56397D03*
X96476Y-50374D03*
X97145Y-54862D03*
X82322Y-73661D03*
X83956Y-72618D03*
X83307Y-72618D03*
X70334Y-55866D03*
X84645Y-54893D03*
X74173Y-53818D03*
X71377Y-59015D03*
X71653Y-57637D03*
X72204Y-58425D03*
X71062Y-58425D03*
X71062Y-57519D03*
X71062Y-58149D03*
X71377Y-57834D03*
X73070Y-55944D03*
X75000Y-56043D03*
X77165Y-55570D03*
X77047Y-53838D03*
X76417Y-58700D03*
X74744Y-57539D03*
X75165Y-57094D03*
X73937Y-63523D03*
X76318Y-56614D03*
X75944Y-53877D03*
X74744Y-54350D03*
X73917Y-55964D03*
X71673Y-56515D03*
X73326Y-55767D03*
X72657Y-55433D03*
X73326Y-53799D03*
X72480Y-53622D03*
X72263Y-53622D03*
X71318Y-53740D03*
X71082Y-53405D03*
X71220Y-55354D03*
X70334Y-55275D03*
X70334Y-53838D03*
X72677Y-59429D03*
X71929Y-59429D03*
X72303Y-59862D03*
X72303Y-58996D03*
X73248Y-56515D03*
X73011Y-57834D03*
X76732Y-56929D03*
X73956Y-59763D03*
X73366Y-58208D03*
X73366Y-58523D03*
X77125Y-62992D03*
X77244Y-60314D03*
X75944Y-61929D03*
X76141Y-61722D03*
X73976Y-61929D03*
X75748Y-61929D03*
X75157Y-61929D03*
X74566Y-61929D03*
X75354Y-61929D03*
X75551Y-61929D03*
X74763Y-61929D03*
X74960Y-61929D03*
X74370Y-61929D03*
X74173Y-61929D03*
X79311Y-64704D03*
X106003Y-46909D03*
X105787Y-46909D03*
X105905Y-48464D03*
X106141Y-50334D03*
X95393Y-72342D03*
X101456Y-70196D03*
X101456Y-70452D03*
X100354Y-70196D03*
X100354Y-70452D03*
X91122Y-60767D03*
X90846Y-60767D03*
X91023Y-58996D03*
X88090Y-58070D03*
X87854Y-58070D03*
X88346Y-58070D03*
X88090Y-58562D03*
X87854Y-58562D03*
X88346Y-58562D03*
X94783Y-70688D03*
X80019Y-40255D03*
X82007Y-40000D03*
X77637Y-51200D03*
X79507Y-51200D03*
X70649Y-49625D03*
X71279Y-50866D03*
X76437Y-48405D03*
X82736Y-53917D03*
X101220Y-63779D03*
X76610Y-79602D03*
X77618Y-80015D03*
X76039Y-73850D03*
X78771Y-74062D03*
X98598Y-79535D03*
X98614Y-78740D03*
X106657Y-78755D03*
X106669Y-79515D03*
X104566Y-81350D03*
X105070Y-82031D03*
X100318Y-81314D03*
X97779Y-82507D03*
X97783Y-81228D03*
X77196Y-51598D03*
X75385Y-52645D03*
X75858Y-52633D03*
X76901Y-52090D03*
X75874Y-60275D03*
X99338Y-60614D03*
X102795Y-62157D03*
X92649Y-59354D03*
X88677Y-58311D03*
X106933Y-41566D03*
X106933Y-40287D03*
X81283Y-37846D03*
X81775Y-37929D03*
X102188Y-36141D03*
X96389Y-79389D03*
X96732Y-79881D03*
X96594Y-82165D03*
X97133Y-82622D03*
X91708Y-82618D03*
X92125Y-82169D03*
X92035Y-80204D03*
X89055Y-65807D03*
X86330Y-67598D03*
X93622Y-73484D03*
X88543Y-67598D03*
X88267Y-68858D03*
X90031Y-54228D03*
X97696Y-54862D03*
X97669Y-52586D03*
X96984Y-72811D03*
X96531Y-72846D03*
X91244Y-53405D03*
X92051Y-53106D03*
X96870Y-53244D03*
X95814Y-56015D03*
X87007Y-49051D03*
X85980Y-48468D03*
X83027Y-49500D03*
X84779Y-48055D03*
X84055Y-54893D03*
X84251Y-54893D03*
X84448Y-54893D03*
X84842Y-54889D03*
X85039Y-54893D03*
X85236Y-54893D03*
X85433Y-54893D03*
X85629Y-54893D03*
X85826Y-54897D03*
X86023Y-54893D03*
X86220Y-54893D03*
X103177Y-69322D03*
X104535Y-69196D03*
X104397Y-69322D03*
X103917Y-70177D03*
X105433Y-69212D03*
X104877Y-69318D03*
X88590Y-70720D03*
X84055Y-49517D03*
X98858Y-48070D03*
X105000Y-49429D03*
X106948Y-49429D03*
X102165Y-45039D03*
X104409Y-35551D03*
X102755Y-35314D03*
X99055Y-36377D03*
X99251Y-36811D03*
X99251Y-35944D03*
X97125Y-36811D03*
X97125Y-35944D03*
X95393Y-80866D03*
X76161Y-70236D03*
X76161Y-68937D03*
X91614Y-76062D03*
X107952Y-66259D03*
X111181Y-67480D03*
X109409Y-67480D03*
X111771Y-67854D03*
X111771Y-68602D03*
X109921Y-68602D03*
X109921Y-67854D03*
X108740Y-68838D03*
X109094Y-67677D03*
X110944Y-67677D03*
X109783Y-37598D03*
X102539Y-40275D03*
X102539Y-41358D03*
X102716Y-40078D03*
X100492Y-55570D03*
X99763Y-55137D03*
X101220Y-55137D03*
X70255Y-66476D03*
X70255Y-66003D03*
X71712Y-66614D03*
X72362Y-66614D03*
X70295Y-65196D03*
X70728Y-65748D03*
X70728Y-64645D03*
X99251Y-83169D03*
X82618Y-63622D03*
X72677Y-68326D03*
X72677Y-67736D03*
X72677Y-67145D03*
X72677Y-66555D03*
X100492Y-42933D03*
X99763Y-43366D03*
X101220Y-43366D03*
X82618Y-66535D03*
X80452Y-72519D03*
X81830Y-72519D03*
X81456Y-72814D03*
X80826Y-72814D03*
X99734Y-52795D03*
X98858Y-52795D03*
X105757Y-35364D03*
X91220Y-48641D03*
X77598Y-72696D03*
X77460Y-70570D03*
X78700Y-62598D03*
X92342Y-75374D03*
X78937Y-40098D03*
X77913Y-42460D03*
X81141Y-65216D03*
X82263Y-62283D03*
X82519Y-62559D03*
X99212Y-62194D03*
X99793Y-49251D03*
X109370Y-71929D03*
X103789Y-71929D03*
X87913Y-74015D03*
X87913Y-73641D03*
X88484Y-79704D03*
X86259Y-80393D03*
X92086Y-50009D03*
X95462Y-71742D03*
X110088Y-72883D03*
X109291Y-72883D03*
X102539Y-67519D03*
X107283Y-35364D03*
X106574Y-35364D03*
X94035Y-48051D03*
X103484Y-71338D03*
X103484Y-70629D03*
X103090Y-70629D03*
X103090Y-71338D03*
X99822Y-46653D03*
X99822Y-45708D03*
X89596Y-63041D03*
X84685Y-69911D03*
X85531Y-68858D03*
X87421Y-70433D03*
X85157Y-68700D03*
X85157Y-67755D03*
X85157Y-67440D03*
X85157Y-66496D03*
X79202Y-70118D03*
X78444Y-70118D03*
X82824Y-70875D03*
X83198Y-70118D03*
X86732Y-68700D03*
X86732Y-66496D03*
X84606Y-69202D03*
X86712Y-62854D03*
X86751Y-63523D03*
X86751Y-64783D03*
X85137Y-65059D03*
X85137Y-64153D03*
X85137Y-63799D03*
X85511Y-65413D03*
X85511Y-62716D03*
X86023Y-63779D03*
X87342Y-61318D03*
X83671Y-61771D03*
X83671Y-62716D03*
X83671Y-63346D03*
X83671Y-63976D03*
X83671Y-64606D03*
X83671Y-65236D03*
X86427Y-65413D03*
X86437Y-62854D03*
X84488Y-61141D03*
X88267Y-69803D03*
X83671Y-68858D03*
X83671Y-68228D03*
X83671Y-67598D03*
X83671Y-66968D03*
X83671Y-66338D03*
X84488Y-71102D03*
X85807Y-66751D03*
X101259Y-52795D03*
X102135Y-53287D03*
X101259Y-46555D03*
X101259Y-45059D03*
X101259Y-45708D03*
X102145Y-45708D03*
X101259Y-46003D03*
X101102Y-47381D03*
X102185Y-47992D03*
X101240Y-47992D03*
X101043Y-48956D03*
X102490Y-51496D03*
X101259Y-49940D03*
X101259Y-50433D03*
X102185Y-51909D03*
X98858Y-47578D03*
X99734Y-48070D03*
X99763Y-50433D03*
X98858Y-49940D03*
X99763Y-51742D03*
X98858Y-51712D03*
X98858Y-51318D03*
X108996Y-62913D03*
X109015Y-62401D03*
X109015Y-61909D03*
X108996Y-60915D03*
X108996Y-60413D03*
X109015Y-56889D03*
X108996Y-42913D03*
X108996Y-44409D03*
X109015Y-44881D03*
X109015Y-58385D03*
X109015Y-43897D03*
X108503Y-47401D03*
X108503Y-48897D03*
X108503Y-49409D03*
X109015Y-49409D03*
X108503Y-50905D03*
X109015Y-50905D03*
X108503Y-51377D03*
X109015Y-52401D03*
X108503Y-52913D03*
X108503Y-53385D03*
X109015Y-53897D03*
X108503Y-54881D03*
X108503Y-55393D03*
X109015Y-55393D03*
X108503Y-56889D03*
X108503Y-46889D03*
X110511Y-45905D03*
X110511Y-59389D03*
X110511Y-62903D03*
X111545Y-61663D03*
X110511Y-61397D03*
X110511Y-60895D03*
X111545Y-60167D03*
X111545Y-58661D03*
X110511Y-43385D03*
X111023Y-43897D03*
X110511Y-44409D03*
X111023Y-45393D03*
X111023Y-46889D03*
X110511Y-47401D03*
X111023Y-48385D03*
X110511Y-48897D03*
X111023Y-49881D03*
X110511Y-50393D03*
X111023Y-51377D03*
X110511Y-51889D03*
X111023Y-52913D03*
X110511Y-53385D03*
X111023Y-54409D03*
X110511Y-54881D03*
X110511Y-57913D03*
X111023Y-57401D03*
X111023Y-55905D03*
X110511Y-56377D03*
X90590Y-45708D03*
X87598Y-43582D03*
X87834Y-43159D03*
X97125Y-38090D03*
X97125Y-37263D03*
X90925Y-46437D03*
X88228Y-48789D03*
X87814Y-48543D03*
X96476Y-50708D03*
X98779Y-37431D03*
X96496Y-49389D03*
X102125Y-73681D03*
X104635Y-71299D03*
X104468Y-70620D03*
X102696Y-74566D03*
X102696Y-73858D03*
X101417Y-73681D03*
X105354Y-73287D03*
X104645Y-73287D03*
X100688Y-71614D03*
X100255Y-71614D03*
X102696Y-73641D03*
X102460Y-71919D03*
X104232Y-72982D03*
X72677Y-65374D03*
X82736Y-50511D03*
X82303Y-52559D03*
X83179Y-51377D03*
X87145Y-50511D03*
X83464Y-49635D03*
X86417Y-54901D03*
X83661Y-54901D03*
X82145Y-48031D03*
X82490Y-50511D03*
X82047Y-52559D03*
X82047Y-53740D03*
X86771Y-48976D03*
X107519Y-68031D03*
X108267Y-67795D03*
X107559Y-67795D03*
X93622Y-74409D03*
X96151Y-55639D03*
X95708Y-53494D03*
X95078Y-53179D03*
X94931Y-50344D03*
X94763Y-51289D03*
X96476Y-50039D03*
X92539Y-54281D03*
X92539Y-52706D03*
X92539Y-51761D03*
X96053Y-51131D03*
X94261Y-56190D03*
X93976Y-54458D03*
X92874Y-51919D03*
X92874Y-51604D03*
X92539Y-51446D03*
X92539Y-51131D03*
X80314Y-71909D03*
X77736Y-71712D03*
X102716Y-35748D03*
X102716Y-36082D03*
X102795Y-39842D03*
X102539Y-39271D03*
X76141Y-61978D03*
X79566Y-64094D03*
X80275Y-64094D03*
X80275Y-63602D03*
X80393Y-63110D03*
X80472Y-64704D03*
X79311Y-64350D03*
X101496Y-59429D03*
X100964Y-59429D03*
X101240Y-59429D03*
X102135Y-53681D03*
X83661Y-49517D03*
X98858Y-50433D03*
X94803Y-58700D03*
X94763Y-49055D03*
X75196Y-54665D03*
X79645Y-49070D03*
X95078Y-53494D03*
X94783Y-60098D03*
X95019Y-58877D03*
X75196Y-54429D03*
X79649Y-49527D03*
X95078Y-53809D03*
X95551Y-49320D03*
X95216Y-58700D03*
X96614Y-72661D03*
X89271Y-72736D03*
X106200Y-50846D03*
X102539Y-46535D03*
X111023Y-50393D03*
X101240Y-49153D03*
X101023Y-50984D03*
X110511Y-56889D03*
X89271Y-72253D03*
X89291Y-70610D03*
X89074Y-72401D03*
X97240Y-71519D03*
X88311Y-71547D03*
X88799Y-73248D03*
X88897Y-80393D03*
X97586Y-55397D03*
X109015Y-54409D03*
X101141Y-52106D03*
X97598Y-55679D03*
X101259Y-52303D03*
X108503Y-53897D03*
X101141Y-52500D03*
X108503Y-54409D03*
X97933Y-55885D03*
X96860Y-56574D03*
X109015Y-53385D03*
X101259Y-53090D03*
X108996Y-52913D03*
X108740Y-67893D03*
X108061Y-64498D03*
X108996Y-51919D03*
X109842Y-61397D03*
X109498Y-50413D03*
X109094Y-67401D03*
X109498Y-49911D03*
X98830Y-52106D03*
X103779Y-67145D03*
X99488Y-66633D03*
X112007Y-56161D03*
X112007Y-66633D03*
X101003Y-66633D03*
X99291Y-54055D03*
X104645Y-66456D03*
X98858Y-53287D03*
X100354Y-66633D03*
X98690Y-52500D03*
X99921Y-66633D03*
X103779Y-66830D03*
X111771Y-69645D03*
X109921Y-69645D03*
X98858Y-52303D03*
X99716Y-66633D03*
X104645Y-65925D03*
X110295Y-69645D03*
X112145Y-69645D03*
X104645Y-66141D03*
X98690Y-53090D03*
X100137Y-66633D03*
X99007Y-62287D03*
X109842Y-61161D03*
X109251Y-64685D03*
X109015Y-58897D03*
X111712Y-63395D03*
X110511Y-49881D03*
X111712Y-55157D03*
X101692Y-54064D03*
X108297Y-61781D03*
X108503Y-57913D03*
X111023Y-59389D03*
X107903Y-64675D03*
X108503Y-55905D03*
X108415Y-64675D03*
X100039Y-46397D03*
X108149Y-47401D03*
X109015Y-57913D03*
X109015Y-55905D03*
X108061Y-64271D03*
X111023Y-59891D03*
X99921Y-51968D03*
X106102Y-51220D03*
X111023Y-50905D03*
X99094Y-64429D03*
X102559Y-51909D03*
X111003Y-56909D03*
X100570Y-66633D03*
X98690Y-53484D03*
X100787Y-66633D03*
X98858Y-53681D03*
X109291Y-73129D03*
X112106Y-73129D03*
X101751Y-56496D03*
X99763Y-48996D03*
X98838Y-66279D03*
X99043Y-61062D03*
X108484Y-66830D03*
X104606Y-66830D03*
X108503Y-56377D03*
X109015Y-56377D03*
X112401Y-56653D03*
X104606Y-67145D03*
X112401Y-67145D03*
X99251Y-68996D03*
X109645Y-63070D03*
X109507Y-51417D03*
X109448Y-66456D03*
X105472Y-66456D03*
X109468Y-54881D03*
X110748Y-63720D03*
X110511Y-58897D03*
X105472Y-65905D03*
X112204Y-57677D03*
X105472Y-66141D03*
X112204Y-66456D03*
X111574Y-43169D03*
X109015Y-45905D03*
X108503Y-46417D03*
X111259Y-62992D03*
X93188Y-53179D03*
X93503Y-52864D03*
X93818Y-52864D03*
X94448Y-52864D03*
X92874Y-52549D03*
X93188Y-52864D03*
X93818Y-55059D03*
X93503Y-52549D03*
X92145Y-52125D03*
X93818Y-52549D03*
X92214Y-51456D03*
X92874Y-52234D03*
X93188Y-52234D03*
X91279Y-52244D03*
X93503Y-52234D03*
X93818Y-52234D03*
X92214Y-51200D03*
X92874Y-52864D03*
X93188Y-54124D03*
X93031Y-54458D03*
X92539Y-53966D03*
X92874Y-54124D03*
X93818Y-54124D03*
X94133Y-54124D03*
X94448Y-53809D03*
X92874Y-53809D03*
X93188Y-53809D03*
X93818Y-53809D03*
X94133Y-53809D03*
X94133Y-53494D03*
X92874Y-53494D03*
X93503Y-53494D03*
X93503Y-53179D03*
X93818Y-53494D03*
X94448Y-53179D03*
X95393Y-51919D03*
X95708Y-51289D03*
X94448Y-52549D03*
X94035Y-48858D03*
X97700Y-49122D03*
X95393Y-52549D03*
X92539Y-52076D03*
X92086Y-50787D03*
X95708Y-51604D03*
X97334Y-55102D03*
X95393Y-53179D03*
X90019Y-53149D03*
X92539Y-53346D03*
X93503Y-51919D03*
X93011Y-49507D03*
X93818Y-51919D03*
X93346Y-49507D03*
X98854Y-48980D03*
X95393Y-52864D03*
X98551Y-52039D03*
X103082Y-35472D03*
X95393Y-52234D03*
X103651Y-70482D03*
X103907Y-70482D03*
X104074Y-71338D03*
X94330Y-81259D03*
X85039Y-49635D03*
X85236Y-49517D03*
X85433Y-49635D03*
X72480Y-65177D03*
X82293Y-51181D03*
X109724Y-72401D03*
X83838Y-49635D03*
X84842Y-49517D03*
X86023Y-49517D03*
X89084Y-73877D03*
X89212Y-73681D03*
X89665Y-74803D03*
X89251Y-74251D03*
X92342Y-75019D03*
X89084Y-74094D03*
X90472Y-75039D03*
X91653Y-75098D03*
X89251Y-74488D03*
X72519Y-60314D03*
X72992Y-54586D03*
X75688Y-56555D03*
X76338Y-53877D03*
X96673Y-57027D03*
X75944Y-55787D03*
X97421Y-57657D03*
X72066Y-56535D03*
X70944Y-59015D03*
X99196Y-61751D03*
X76988Y-57952D03*
X73070Y-56299D03*
X74763Y-54035D03*
X70314Y-54448D03*
X95708Y-52864D03*
X95708Y-52224D03*
X96053Y-51338D03*
X95708Y-53179D03*
X73897Y-49055D03*
X98783Y-62019D03*
X96673Y-57342D03*
X98322Y-70614D03*
X89188Y-71598D03*
X97066Y-58976D03*
X102657Y-70482D03*
X102509Y-62647D03*
X111003Y-62401D03*
X111712Y-66909D03*
X110314Y-66909D03*
X110295Y-60413D03*
X100216Y-46200D03*
X110157Y-47401D03*
X102185Y-46456D03*
X99311Y-66043D03*
X110511Y-55905D03*
X102185Y-46200D03*
X108238Y-53149D03*
X110511Y-52913D03*
X99311Y-65068D03*
X105570Y-71909D03*
X105354Y-72106D03*
X87362Y-40039D03*
X102303Y-70482D03*
X100665Y-45480D03*
X88523Y-40039D03*
X100244Y-45279D03*
X101771Y-71131D03*
X89527Y-40196D03*
X99196Y-44240D03*
X101220Y-71622D03*
X78444Y-40236D03*
X103405Y-40826D03*
X103405Y-41043D03*
X103405Y-40610D03*
X89074Y-72893D03*
X88169Y-66299D03*
X83700Y-59566D03*
X83700Y-59960D03*
X83700Y-59763D03*
X75984Y-62992D03*
X75984Y-62677D03*
X75511Y-62992D03*
X75748Y-62992D03*
X75275Y-62992D03*
X74803Y-62992D03*
X75039Y-62992D03*
X74566Y-62992D03*
X74330Y-62992D03*
X74330Y-62677D03*
X74566Y-62677D03*
X75039Y-62677D03*
X74803Y-62677D03*
X75275Y-62677D03*
X75748Y-62677D03*
X75511Y-62677D03*
X88255Y-74511D03*
X91141Y-75885D03*
X91722Y-71545D03*
X90777Y-71545D03*
X92923Y-73198D03*
X92746Y-73986D03*
X77165Y-55216D03*
X93346Y-48681D03*
X93015Y-48681D03*
X90007Y-53976D03*
X87421Y-68858D03*
X85531Y-68228D03*
X87401Y-66338D03*
X85531Y-66968D03*
X84488Y-68858D03*
X84488Y-68228D03*
X84488Y-67598D03*
X84488Y-66968D03*
X84488Y-66338D03*
X84488Y-70748D03*
X87421Y-69803D03*
X86377Y-68228D03*
X86377Y-66968D03*
X87440Y-62253D03*
X87342Y-60964D03*
X86437Y-63208D03*
X87047Y-64448D03*
X86437Y-64468D03*
X84488Y-61771D03*
X84488Y-62716D03*
X85511Y-63346D03*
X84488Y-63346D03*
X84488Y-63976D03*
X85492Y-64507D03*
X84488Y-64606D03*
X84488Y-65236D03*
X87401Y-63326D03*
X87057Y-63818D03*
X87204Y-65472D03*
X87618Y-72795D03*
X81830Y-70885D03*
X86181Y-71496D03*
X83602Y-47854D03*
X89862Y-52224D03*
X90523Y-49696D03*
X98429Y-61444D03*
X95728Y-72342D03*
X97771Y-61358D03*
X97141Y-60342D03*
X95637Y-56200D03*
X89055Y-39881D03*
X71279Y-48720D03*
X90086Y-51799D03*
X77618Y-68700D03*
X76377Y-60511D03*
X76377Y-59763D03*
X107401Y-48622D03*
X80984Y-38543D03*
X103188Y-66299D03*
X80472Y-49523D03*
X89106Y-51566D03*
X86870Y-48051D03*
X86456Y-48744D03*
X83862Y-48188D03*
X83023Y-48736D03*
X91830Y-47185D03*
X90019Y-46082D03*
X90354Y-46082D03*
X90610Y-44980D03*
X88937Y-42834D03*
X90610Y-43562D03*
X84877Y-73972D03*
X87566Y-74035D03*
X95389Y-74488D03*
X96326Y-74503D03*
X97200Y-74503D03*
X92933Y-72354D03*
X91092Y-71545D03*
X90147Y-71545D03*
X92746Y-74301D03*
X102244Y-72470D03*
X103681Y-35157D03*
X110112Y-43163D03*
X110039Y-46476D03*
X110039Y-46712D03*
X110037Y-46927D03*
X109803Y-46476D03*
X109803Y-46712D03*
X109803Y-46929D03*
X106751Y-73848D03*
X103287Y-73858D03*
X104586Y-72982D03*
X104370Y-71348D03*
X83267Y-54468D03*
X86417Y-49517D03*
X84251Y-49635D03*
X82145Y-50984D03*
X82303Y-51968D03*
X82303Y-53149D03*
X70649Y-51673D03*
X75570Y-56259D03*
X73602Y-59153D03*
X73582Y-54389D03*
X71909Y-53405D03*
X70688Y-53838D03*
X70944Y-55945D03*
X76692Y-53366D03*
X89645Y-80472D03*
X102645Y-80303D03*
X105925Y-82850D03*
X107090Y-82952D03*
X70610Y-66988D03*
X76811Y-71555D03*
X107125Y-67598D03*
X99251Y-82814D03*
X109015Y-71456D03*
X102637Y-45039D03*
X102637Y-44724D03*
X111811Y-43759D03*
X103996Y-61043D03*
X99094Y-64035D03*
X92834Y-74655D03*
X104635Y-74212D03*
X102500Y-70629D03*
X102500Y-67962D03*
X101889Y-81082D03*
X104271Y-74763D03*
X93356Y-74763D03*
X102401Y-81771D03*
X92913Y-71486D03*
X102696Y-71338D03*
X93789Y-75078D03*
X103877Y-75078D03*
X102893Y-81259D03*
X102893Y-70482D03*
X102893Y-69301D03*
X103484Y-74921D03*
X94035Y-74921D03*
X103681Y-73858D03*
X103287Y-68129D03*
X104074Y-73858D03*
X104114Y-67667D03*
X84842Y-68700D03*
X87027Y-62854D03*
X83011Y-63228D03*
X83366Y-68543D03*
X78188Y-72362D03*
X88602Y-65610D03*
X88267Y-63720D03*
X91122Y-61122D03*
X81122Y-71476D03*
X89251Y-69980D03*
X88877Y-72578D03*
X89074Y-69822D03*
X89498Y-71161D03*
X91722Y-71161D03*
X92746Y-72096D03*
X81220Y-55708D03*
X81220Y-60039D03*
X73385Y-60039D03*
X71173Y-78724D03*
X97263Y-55816D03*
X94814Y-73429D03*
X97196Y-73429D03*
X89832Y-71545D03*
X92354Y-71602D03*
X88712Y-71102D03*
X90305Y-71377D03*
X89990Y-71377D03*
X89271Y-73385D03*
X89783Y-70433D03*
X92194Y-71377D03*
X92568Y-71344D03*
G54D30*
X85137Y-64744D02*
X85147Y-64744D01*
X85679Y-63838D02*
X85816Y-63700D01*
X85462Y-63838D02*
X85679Y-63838D01*
X85295Y-64005D02*
X85462Y-63838D01*
X85295Y-64596D02*
X85295Y-64005D01*
X85147Y-64744D02*
X85295Y-64596D01*
X88267Y-63952D02*
X88267Y-64035D01*
X88267Y-64035D02*
X87864Y-64438D01*
X87696Y-64744D02*
X87864Y-64576D01*
X87864Y-64576D02*
X87864Y-64438D01*
X87027Y-64744D02*
X87696Y-64744D01*
X91811Y-56151D02*
X91811Y-55492D01*
X92027Y-62303D02*
X91879Y-62155D01*
X91614Y-56348D02*
X91811Y-56151D01*
X91614Y-60216D02*
X91614Y-56348D01*
X91879Y-60482D02*
X91614Y-60216D01*
X91879Y-62155D02*
X91879Y-60482D01*
X92814Y-57165D02*
X92814Y-56919D01*
X93996Y-55738D02*
X93996Y-55492D01*
X92814Y-56919D02*
X93996Y-55738D01*
X93208Y-63484D02*
X92962Y-63238D01*
X92814Y-60797D02*
X92814Y-57165D01*
X92962Y-60944D02*
X92814Y-60797D01*
X92962Y-63238D02*
X92962Y-60944D01*
X92913Y-57214D02*
X92913Y-56978D01*
X94222Y-55669D02*
X94222Y-55492D01*
X92913Y-56978D02*
X94222Y-55669D01*
X92913Y-60708D02*
X92913Y-57214D01*
X93061Y-62942D02*
X93061Y-60856D01*
X93061Y-60856D02*
X92913Y-60708D01*
X93061Y-62942D02*
X93208Y-63090D01*
X92185Y-56564D02*
X92185Y-56240D01*
X92185Y-56240D02*
X92933Y-55492D01*
X92273Y-61456D02*
X92273Y-61082D01*
X92185Y-60994D02*
X92185Y-56564D01*
X92185Y-56564D02*
X92185Y-56387D01*
X92273Y-61082D02*
X92185Y-60994D01*
X92421Y-62696D02*
X92273Y-62549D01*
X92273Y-62549D02*
X92273Y-61456D01*
X92342Y-56673D02*
X92342Y-56309D01*
X92342Y-56309D02*
X93159Y-55492D01*
X92814Y-63484D02*
X92568Y-63238D01*
X92342Y-60935D02*
X92342Y-56673D01*
X92342Y-56673D02*
X92342Y-56387D01*
X92568Y-61161D02*
X92342Y-60935D01*
X92568Y-63238D02*
X92568Y-61161D01*
X80413Y-61909D02*
X80068Y-62253D01*
X79537Y-66614D02*
X78828Y-67322D01*
X79537Y-65265D02*
X79537Y-66614D01*
X80068Y-64734D02*
X79537Y-65265D01*
X80068Y-62253D02*
X80068Y-64734D01*
X94537Y-62942D02*
X94389Y-63090D01*
X94537Y-62942D02*
X94537Y-59793D01*
X94537Y-59793D02*
X94783Y-59547D01*
X93208Y-67814D02*
X93454Y-68061D01*
X93631Y-71929D02*
X94094Y-72391D01*
X93631Y-70629D02*
X93631Y-71929D01*
X93454Y-70452D02*
X93631Y-70629D01*
X93454Y-68061D02*
X93454Y-70452D01*
X93208Y-68208D02*
X93356Y-68356D01*
X93523Y-72125D02*
X94094Y-72696D01*
X93523Y-70688D02*
X93523Y-72125D01*
X93356Y-70521D02*
X93523Y-70688D01*
X93356Y-68356D02*
X93356Y-70521D01*
G54D10*
X93799Y-40622D02*
X91917Y-38740D01*
X91917Y-38740D02*
X86992Y-38740D01*
X93799Y-40921D02*
X93799Y-40622D01*
X94133Y-52549D02*
X93976Y-52391D01*
X93799Y-51033D02*
X93799Y-40921D01*
X93976Y-51210D02*
X93799Y-51033D01*
X93976Y-52391D02*
X93976Y-51210D01*
X94438Y-41057D02*
X92003Y-38622D01*
X92003Y-38622D02*
X87185Y-38622D01*
X87185Y-38622D02*
X86972Y-38409D01*
X86972Y-38409D02*
X84905Y-38409D01*
X94438Y-41350D02*
X94438Y-41057D01*
X94763Y-52864D02*
X94606Y-52706D01*
X94438Y-51053D02*
X94438Y-41350D01*
X94606Y-51220D02*
X94438Y-51053D01*
X94606Y-52706D02*
X94606Y-51220D01*
X89094Y-38236D02*
X88181Y-38236D01*
X88181Y-38236D02*
X88169Y-38248D01*
X95039Y-41208D02*
X92066Y-38236D01*
X92066Y-38236D02*
X89094Y-38236D01*
X89094Y-38236D02*
X88881Y-38236D01*
X95039Y-41255D02*
X95039Y-41208D01*
X95393Y-53809D02*
X95236Y-53651D01*
X95039Y-49271D02*
X95039Y-41255D01*
X95236Y-49468D02*
X95039Y-49271D01*
X95236Y-53651D02*
X95236Y-49468D01*
X94763Y-51043D02*
X94763Y-50836D01*
X94576Y-40974D02*
X92047Y-38444D01*
X92047Y-38444D02*
X87200Y-38444D01*
X87200Y-38444D02*
X87000Y-38244D01*
X87000Y-38244D02*
X85885Y-38244D01*
X94576Y-41161D02*
X94576Y-40974D01*
X94763Y-53179D02*
X94921Y-53021D01*
X94576Y-50649D02*
X94576Y-41161D01*
X94763Y-50836D02*
X94576Y-50649D01*
X94921Y-51200D02*
X94763Y-51043D01*
X94921Y-53021D02*
X94921Y-51200D01*
X95866Y-41413D02*
X92464Y-38011D01*
X92464Y-38011D02*
X83870Y-38011D01*
X83870Y-38011D02*
X83866Y-38015D01*
X95866Y-41755D02*
X95866Y-41413D01*
X95866Y-41755D02*
X95866Y-54498D01*
X72716Y-53622D02*
X77381Y-53622D01*
G54D30*
X85866Y-67913D02*
X85866Y-69330D01*
X85866Y-67775D02*
X85866Y-67913D01*
X85866Y-67598D02*
X85866Y-67775D01*
X87862Y-64748D02*
X87862Y-64751D01*
X87649Y-66181D02*
X88061Y-66592D01*
X87649Y-64964D02*
X87649Y-66181D01*
X87862Y-64751D02*
X87649Y-64964D01*
X88064Y-64557D02*
X87968Y-64653D01*
X87862Y-64759D02*
X87862Y-64748D01*
X87968Y-64653D02*
X87862Y-64759D01*
X87972Y-69064D02*
X88061Y-68976D01*
X87864Y-69173D02*
X87972Y-69064D01*
X88061Y-66592D02*
X88061Y-68976D01*
X88064Y-64557D02*
X88248Y-64374D01*
X93996Y-68602D02*
X94143Y-68454D01*
X93976Y-56820D02*
X94311Y-56486D01*
X93976Y-59370D02*
X93976Y-56820D01*
X94143Y-59537D02*
X93976Y-59370D01*
X94143Y-68454D02*
X94143Y-59537D01*
G54D10*
X99419Y-53503D02*
X99419Y-52746D01*
X99419Y-52746D02*
X99921Y-52244D01*
X98740Y-60137D02*
X98740Y-54183D01*
X98740Y-54183D02*
X99419Y-53503D01*
X99074Y-60137D02*
X99074Y-59968D01*
X98929Y-54742D02*
X99921Y-53750D01*
X98929Y-59822D02*
X98929Y-54742D01*
X99074Y-59968D02*
X98929Y-59822D01*
X99921Y-53750D02*
X99921Y-52608D01*
G54D30*
X95964Y-59360D02*
X95964Y-61358D01*
X95816Y-67175D02*
X95570Y-67421D01*
X95816Y-61505D02*
X95816Y-67175D01*
X95964Y-61358D02*
X95816Y-61505D01*
G54D10*
X98513Y-51515D02*
X98980Y-51515D01*
X98566Y-52944D02*
X98405Y-53106D01*
G54D30*
X98948Y-52944D02*
X98566Y-52944D01*
G54D10*
X99169Y-52724D02*
X98948Y-52944D01*
X99169Y-51704D02*
X99169Y-52724D01*
X98980Y-51515D02*
X99169Y-51704D01*
X98405Y-60137D02*
X98405Y-53106D01*
X98110Y-52472D02*
X98362Y-52220D01*
X98110Y-52484D02*
X98110Y-52472D01*
G54D30*
X97775Y-59948D02*
X97775Y-60177D01*
X97775Y-60177D02*
X97783Y-60185D01*
X97775Y-59948D02*
X97775Y-55285D01*
G54D10*
X98110Y-54950D02*
X98110Y-52484D01*
X97775Y-55285D02*
X98110Y-54950D01*
G54D30*
X93848Y-62155D02*
X93848Y-56722D01*
X93848Y-62155D02*
X93996Y-62303D01*
X95984Y-55610D02*
X95984Y-56673D01*
X95984Y-56673D02*
X95875Y-56781D01*
X96112Y-58307D02*
X96112Y-58080D01*
X96102Y-67283D02*
X96112Y-67273D01*
X96112Y-67273D02*
X96112Y-58307D01*
X95964Y-67421D02*
X96102Y-67283D01*
X96112Y-58080D02*
X95875Y-57844D01*
X95875Y-57844D02*
X95875Y-56781D01*
X95551Y-51446D02*
X95393Y-51289D01*
X95551Y-54557D02*
X95551Y-51446D01*
X95984Y-54990D02*
X95551Y-54557D01*
X95984Y-55610D02*
X95984Y-54990D01*
X96377Y-53610D02*
X96377Y-53362D01*
X96377Y-53362D02*
X96078Y-53062D01*
X96210Y-57844D02*
X96377Y-57677D01*
X96377Y-57677D02*
X96377Y-53610D01*
X96210Y-57844D02*
X96210Y-58277D01*
X95964Y-67814D02*
X96210Y-67568D01*
X96210Y-67568D02*
X96210Y-58277D01*
X96210Y-58277D02*
X96210Y-58149D01*
X94931Y-57736D02*
X94931Y-58572D01*
X94931Y-58572D02*
X94803Y-58700D01*
X94980Y-53986D02*
X94921Y-53927D01*
X94921Y-53651D02*
X95078Y-53494D01*
X94921Y-53927D02*
X94921Y-53651D01*
X94852Y-55000D02*
X94852Y-54901D01*
X94852Y-54901D02*
X94980Y-54773D01*
X94980Y-54773D02*
X94980Y-53986D01*
X94852Y-54901D02*
X94921Y-54832D01*
X94931Y-55738D02*
X94852Y-55659D01*
X94852Y-55659D02*
X94852Y-55000D01*
X94931Y-56062D02*
X94931Y-55738D01*
X94931Y-55994D02*
X94931Y-55935D01*
X94931Y-57736D02*
X94931Y-56062D01*
X94931Y-56062D02*
X94931Y-55994D01*
X94931Y-55994D02*
X94931Y-55944D01*
X95055Y-60370D02*
X94783Y-60098D01*
X95055Y-60370D02*
X95055Y-60842D01*
X95055Y-60842D02*
X94931Y-60966D01*
X94783Y-64271D02*
X94921Y-64133D01*
X94921Y-64133D02*
X94931Y-64124D01*
X94931Y-64124D02*
X94931Y-60966D01*
X95029Y-58740D02*
X95029Y-58868D01*
X95029Y-58868D02*
X95019Y-58877D01*
X95029Y-55698D02*
X94940Y-55610D01*
X95078Y-54507D02*
X95078Y-55265D01*
X95078Y-55265D02*
X94940Y-55403D01*
X95078Y-54507D02*
X95078Y-53809D01*
X94940Y-55610D02*
X94940Y-55403D01*
X95029Y-56082D02*
X95029Y-55698D01*
X95029Y-58740D02*
X95029Y-56082D01*
X95248Y-59763D02*
X95248Y-58732D01*
X95248Y-58732D02*
X95216Y-58700D01*
X95248Y-59692D02*
X95248Y-59763D01*
X95248Y-59763D02*
X95248Y-60791D01*
X95248Y-60791D02*
X95029Y-61009D01*
X95177Y-64271D02*
X95049Y-64143D01*
X95049Y-64143D02*
X95029Y-64124D01*
X95029Y-64124D02*
X95029Y-61009D01*
X97047Y-55566D02*
X97216Y-55397D01*
X97216Y-55397D02*
X97586Y-55397D01*
X97047Y-55614D02*
X97047Y-55566D01*
X96899Y-58877D02*
X96899Y-58523D01*
X97047Y-58375D02*
X97047Y-55614D01*
X96899Y-58523D02*
X97047Y-58375D01*
X96899Y-66879D02*
X96751Y-67027D01*
X96899Y-66879D02*
X96899Y-58877D01*
X97549Y-58789D02*
X97687Y-58651D01*
X97687Y-58651D02*
X97687Y-55767D01*
X97687Y-55767D02*
X97598Y-55679D01*
X97549Y-58789D02*
X97549Y-59212D01*
X96751Y-67421D02*
X96998Y-67175D01*
X96998Y-67175D02*
X96998Y-64557D01*
X96998Y-64557D02*
X97096Y-64458D01*
X97096Y-64458D02*
X97204Y-64458D01*
X97204Y-64458D02*
X97293Y-64370D01*
X97293Y-64370D02*
X97293Y-60885D01*
X97293Y-60885D02*
X97549Y-60629D01*
X97549Y-60629D02*
X97549Y-59212D01*
X96948Y-67618D02*
X96948Y-67381D01*
X96948Y-67381D02*
X97116Y-67214D01*
X97116Y-67214D02*
X97253Y-67214D01*
X97253Y-67214D02*
X97391Y-67076D01*
X97391Y-67076D02*
X97391Y-60954D01*
X97391Y-60954D02*
X97923Y-60423D01*
X97923Y-60423D02*
X97923Y-59261D01*
X97923Y-59261D02*
X98257Y-58927D01*
X98257Y-58927D02*
X98257Y-56210D01*
X98257Y-56210D02*
X97933Y-55885D01*
X96751Y-67814D02*
X96948Y-67618D01*
X96860Y-56574D02*
X96860Y-57687D01*
X96860Y-57687D02*
X96870Y-57677D01*
X96515Y-67263D02*
X96515Y-58031D01*
X96358Y-67421D02*
X96515Y-67263D01*
X96515Y-58031D02*
X96870Y-57677D01*
G54D10*
X108996Y-52913D02*
X108848Y-53061D01*
X108740Y-66820D02*
X108740Y-67893D01*
X108986Y-66574D02*
X108740Y-66820D01*
X108986Y-64586D02*
X108986Y-66574D01*
X109251Y-64320D02*
X108986Y-64586D01*
X109251Y-62903D02*
X109251Y-64320D01*
X108828Y-62480D02*
X109251Y-62903D01*
X108828Y-53080D02*
X108828Y-62480D01*
X108848Y-53061D02*
X108828Y-53080D01*
X108326Y-63149D02*
X108326Y-64370D01*
X108681Y-52234D02*
X108681Y-62795D01*
X108681Y-62795D02*
X108326Y-63149D01*
X108996Y-51919D02*
X108681Y-52234D01*
X108198Y-64498D02*
X108061Y-64498D01*
X108326Y-64370D02*
X108198Y-64498D01*
X109498Y-50413D02*
X109251Y-50659D01*
X109251Y-60807D02*
X109842Y-61397D01*
X109251Y-50659D02*
X109251Y-60807D01*
X99763Y-48996D02*
X99901Y-48996D01*
X98838Y-63622D02*
X98838Y-66279D01*
X99665Y-62795D02*
X98838Y-63622D01*
X99665Y-60275D02*
X99665Y-62795D01*
X101751Y-58188D02*
X99665Y-60275D01*
X101751Y-56496D02*
X101751Y-58188D01*
X101082Y-55826D02*
X101751Y-56496D01*
X100374Y-55826D02*
X101082Y-55826D01*
X100118Y-55570D02*
X100374Y-55826D01*
X100118Y-49212D02*
X100118Y-55570D01*
X99901Y-48996D02*
X100118Y-49212D01*
X93188Y-52864D02*
X93346Y-53021D01*
X93346Y-54586D02*
X93818Y-55059D01*
X93346Y-53021D02*
X93346Y-54586D01*
G54D30*
X94291Y-52391D02*
X94291Y-50305D01*
X94291Y-50305D02*
X94242Y-50255D01*
X94242Y-50255D02*
X94242Y-49064D01*
X94242Y-49064D02*
X94035Y-48858D01*
X94448Y-52549D02*
X94291Y-52391D01*
X93188Y-50984D02*
X93188Y-50866D01*
X92874Y-49645D02*
X93011Y-49507D01*
X92874Y-50551D02*
X92874Y-49645D01*
X93188Y-50866D02*
X92874Y-50551D01*
X93503Y-51919D02*
X93346Y-51761D01*
X93188Y-51043D02*
X93188Y-50984D01*
X93346Y-51200D02*
X93188Y-51043D01*
X93346Y-51761D02*
X93346Y-51200D01*
X93818Y-51919D02*
X93661Y-51761D01*
X93661Y-49822D02*
X93346Y-49507D01*
X93661Y-51761D02*
X93661Y-49822D01*
X96998Y-59045D02*
X97066Y-58976D01*
X96998Y-59045D02*
X96998Y-59468D01*
X96998Y-64124D02*
X96998Y-59468D01*
X96998Y-59468D02*
X96998Y-59320D01*
X96998Y-64124D02*
X97145Y-64271D01*
X92421Y-70177D02*
X92421Y-71427D01*
X92559Y-74379D02*
X92834Y-74655D01*
X92559Y-71948D02*
X92559Y-74379D01*
X92657Y-71850D02*
X92559Y-71948D01*
X92657Y-71663D02*
X92657Y-71850D01*
X92421Y-71427D02*
X92657Y-71663D01*
X93090Y-69507D02*
X93061Y-69537D01*
X93061Y-69537D02*
X93061Y-70433D01*
X93061Y-70433D02*
X93356Y-70728D01*
X93356Y-70728D02*
X93356Y-74763D01*
X93208Y-69389D02*
X93090Y-69507D01*
X92667Y-68356D02*
X92667Y-71240D01*
X92667Y-71240D02*
X92913Y-71486D01*
X92814Y-68208D02*
X92667Y-68356D01*
X93789Y-75078D02*
X93789Y-73257D01*
X93750Y-68750D02*
X93750Y-71427D01*
X93750Y-71427D02*
X94311Y-71988D01*
X94311Y-71988D02*
X94311Y-72312D01*
X93602Y-68602D02*
X93750Y-68750D01*
X94311Y-72736D02*
X93789Y-73257D01*
X94311Y-72312D02*
X94311Y-72736D01*
X93602Y-68208D02*
X93848Y-68454D01*
X94035Y-73188D02*
X94035Y-74921D01*
X94429Y-72795D02*
X94035Y-73188D01*
X94429Y-71919D02*
X94429Y-72795D01*
X93848Y-71338D02*
X94429Y-71919D01*
X93848Y-68454D02*
X93848Y-71338D01*
G54D31*
X83248Y-63464D02*
X83011Y-63228D01*
X83366Y-68543D02*
X83248Y-68425D01*
X83248Y-68425D02*
X83248Y-63464D01*
G54D32*
X88602Y-63720D02*
X88602Y-65610D01*
G54D33*
X88602Y-63720D02*
X88267Y-63720D01*
G54D34*
X85078Y-71476D02*
X85472Y-71476D01*
X85472Y-71476D02*
X86149Y-70799D01*
X87992Y-70799D02*
X86149Y-70799D01*
X88141Y-70649D02*
X87992Y-70799D01*
G54D31*
X88602Y-64610D02*
X88602Y-67047D01*
X88602Y-67047D02*
X88917Y-67362D01*
X88602Y-64570D02*
X88602Y-64610D01*
X88937Y-70216D02*
X88795Y-70216D01*
X88720Y-70000D02*
X88720Y-69498D01*
X88720Y-69498D02*
X88917Y-69301D01*
X88917Y-69301D02*
X88917Y-69084D01*
X88917Y-69084D02*
X88917Y-67362D01*
X88720Y-70141D02*
X88212Y-70649D01*
X88795Y-70216D02*
X88720Y-70141D01*
X88720Y-70000D02*
X88937Y-70216D01*
X89330Y-61358D02*
X88602Y-62086D01*
X88602Y-62086D02*
X88602Y-63720D01*
X88602Y-63720D02*
X88602Y-64570D01*
G54D33*
X91122Y-61122D02*
X90885Y-61358D01*
G54D31*
X90885Y-61358D02*
X89330Y-61358D01*
G54D34*
X88212Y-70649D02*
X88141Y-70649D01*
X81122Y-71476D02*
X85078Y-71476D01*
G54D33*
X89251Y-69980D02*
X89094Y-70137D01*
X89094Y-70137D02*
X88937Y-70137D01*
G54D30*
X97263Y-55994D02*
X97263Y-55816D01*
X97263Y-56289D02*
X97263Y-55994D01*
X97263Y-55994D02*
X97263Y-55905D01*
X97145Y-56407D02*
X97263Y-56289D01*
G54D10*
X97145Y-60728D02*
X97145Y-61909D01*
X97362Y-58779D02*
X97145Y-58562D01*
X97362Y-60511D02*
X97362Y-58779D01*
X97145Y-60728D02*
X97362Y-60511D01*
G54D30*
X97145Y-58562D02*
X97145Y-56407D01*
X92568Y-71318D02*
X92568Y-71344D01*
X92568Y-71259D02*
X92568Y-71318D01*
X92568Y-71318D02*
X92568Y-71377D01*
X92421Y-68208D02*
X92568Y-68356D01*
X92568Y-68356D02*
X92568Y-71259D01*
M02*
