M48
;DRILL file {Pcbnew (2013-07-07 BZR 4022)-stable} date 10/02/2015 04:29:21
;FORMAT={-:-/ absolute / metric / decimal}
FMAT,2
METRIC,TZ
T1C0.200
T2C0.300
T3C0.800
T4C0.800
T5C0.810
T6C0.899
T7C0.900
T8C1.000
T9C1.270
T10C1.300
T11C1.570
T12C1.600
T13C1.650
T14C1.700
T15C2.000
T16C2.700
T17C3.000
T18C3.200
T19C3.250
%
G90
G05
M71
T1
X178.45Y-167.65
X178.45Y-168.85
X178.55Y-165.6
X178.6Y-138.3
X178.65Y-136.75
X178.65Y-140.4
X178.65Y-141.9
X179.3Y-149.05
X179.35Y-170.15
X179.45Y-126.05
X179.45Y-131.25
X179.55Y-136.75
X179.65Y-164.2
X179.65Y-167.
X180.2Y-138.15
X180.2Y-142.1
X180.2Y-149.9
X180.5Y-146.1
X180.5Y-147.7
X180.5Y-148.4
X180.55Y-135.65
X180.78Y-199.96
X180.9Y-140.6
X181.05Y-123.75
X181.05Y-129.2
X181.15Y-136.5
X181.3Y-146.9
X181.3Y-149.9
X181.4Y-134.3
X182.Y-146.4
X182.05Y-143.55
X182.15Y-169.2
X182.65Y-135.65
X182.7Y-150.95
X183.05Y-143.6
X183.4Y-148.4
X183.55Y-136.2
X183.65Y-149.85
X183.65Y-152.05
X183.8Y-169.2
X184.1Y-136.2
X184.1Y-165.55
X184.2Y-153.2
X184.55Y-140.8
X184.6Y-150.95
X184.6Y-166.05
X184.6Y-167.05
X184.6Y-169.05
X184.6Y-170.55
X184.6Y-172.05
X184.6Y-173.55
X184.7Y-136.2
X185.4Y-138.65
X185.45Y-146.9
X185.45Y-164.15
X185.6Y-142.1
X185.6Y-143.
X186.05Y-143.55
X186.25Y-136.65
X186.25Y-141.65
X186.35Y-147.85
X186.35Y-148.65
X186.4Y-152.5
X186.9Y-138.15
X186.95Y-150.25
X187.225Y-166.55
X187.7Y-124.6
X187.75Y-142.15
X187.75Y-167.65
X187.8Y-161.35
X187.85Y-151.8
X187.9Y-157.3
X188.4Y-136.7
X188.4Y-157.3
X188.8Y-159.2
X188.8Y-160.
X188.9Y-157.3
X189.35Y-165.05
X189.4Y-157.3
X189.4Y-159.2
X189.4Y-160.
X189.85Y-138.05
X189.85Y-146.15
X189.9Y-137.25
X189.9Y-157.3
X190.Y-159.2
X190.Y-160.
X190.05Y-153.1
X190.4Y-157.3
X190.5Y-142.35
X190.6Y-159.2
X190.6Y-160.
X190.9Y-153.1
X190.9Y-157.3
X190.92Y-145.02
X191.Y-138.25
X191.Y-138.85
X191.2Y-159.2
X191.2Y-160.
X191.4Y-157.3
X191.48Y-133.72
X191.8Y-159.2
X191.8Y-160.
X191.85Y-153.1
X191.9Y-157.3
X191.95Y-142.9
X192.25Y-143.65
X192.4Y-157.3
X192.4Y-159.2
X192.4Y-160.
X192.6Y-106.6
X192.68Y-133.69
X192.72Y-153.1
X192.9Y-136.85
X192.9Y-141.7
X192.9Y-157.3
X193.Y-159.2
X193.Y-160.
X193.14Y-187.58
X193.3Y-108.3
X193.4Y-156.775
X193.4Y-157.425
X193.45Y-151.1
X193.45Y-175.1
X193.45Y-178.4
X193.85Y-143.8
X193.9Y-136.85
X194.Y-106.6
X194.Y-151.8
X194.Y-153.7
X194.1Y-149.1
X194.15Y-122.95
X194.59Y-202.19
X194.8Y-135.55
X194.8Y-141.7
X194.9Y-144.6
X195.1Y-181.75
X195.15Y-140.85
X195.33Y-132.31
X195.55Y-147.2
X195.6Y-175.1
X195.6Y-176.2
X195.6Y-177.3
X195.6Y-178.4
X195.7Y-136.75
X195.9Y-160.
X196.Y-140.25
X196.Y-141.15
X196.08Y-131.06
X196.2Y-153.2
X196.55Y-136.2
X196.75Y-179.25
X197.1Y-184.65
X197.15Y-174.5
X197.15Y-203.24
X197.2Y-130.05
X197.45Y-182.15
X197.9Y-107.85
X198.6Y-183.8
X199.25Y-102.2
X199.25Y-178.1
X199.85Y-167.1
X199.9Y-159.
X200.08Y-188.12
X200.225Y-171.
X200.5Y-101.85
X201.175Y-178.1
X201.45Y-163.45
X201.45Y-164.35
X201.95Y-130.05
X202.1Y-162.8
X202.26Y-105.76
X202.26Y-106.36
X202.26Y-106.96
X202.26Y-107.56
X202.26Y-108.16
X202.26Y-108.76
X202.26Y-109.36
X202.26Y-109.96
X202.26Y-110.56
X202.26Y-111.16
X202.26Y-111.76
X202.26Y-112.36
X202.26Y-112.96
X202.3Y-124.64
X202.31Y-125.8
X202.65Y-167.175
X202.86Y-105.76
X202.86Y-106.36
X202.86Y-106.96
X202.86Y-107.56
X202.86Y-108.16
X202.86Y-108.76
X202.86Y-109.36
X202.86Y-109.96
X202.86Y-110.56
X202.86Y-111.16
X202.86Y-111.76
X202.86Y-112.36
X202.86Y-112.96
X203.05Y-166.075
X203.25Y-102.25
X203.45Y-166.575
X203.46Y-105.76
X203.46Y-106.36
X203.46Y-106.96
X203.46Y-107.56
X203.46Y-108.16
X203.46Y-108.76
X203.46Y-109.36
X203.46Y-109.96
X203.46Y-110.56
X203.46Y-111.16
X203.46Y-111.76
X203.46Y-112.36
X203.46Y-112.96
X203.9Y-161.55
X203.9Y-162.8
X204.Y-182.65
X204.2Y-160.3
X204.25Y-157.25
X204.35Y-184.2
X204.4Y-125.79
X204.4Y-164.35
X205.3Y-184.95
X205.45Y-157.75
X205.7Y-97.9
X205.85Y-160.1
X206.05Y-181.55
X206.1Y-165.65
X206.3Y-141.5
X206.3Y-152.5
X206.3Y-171.
X206.46Y-96.13
X206.8Y-127.725
X206.8Y-169.7
X206.9Y-184.95
X207.4Y-140.9
X207.4Y-149.35
X207.5Y-154.4
X207.71Y-96.34
X207.85Y-171.
X207.85Y-180.05
X207.85Y-184.2
X208.05Y-149.35
X208.3Y-101.6
X208.4Y-133.5
X208.4Y-136.5
X208.65Y-122.
X208.65Y-129.5
X208.95Y-158.2
X209.025Y-130.
X209.05Y-132.
X209.05Y-133.5
X209.05Y-135.
X209.1Y-187.1
X209.525Y-128.3
X209.6Y-158.9
X209.85Y-161.6
X209.85Y-169.
X210.Y-183.8
X210.Y-184.45
X210.15Y-128.3
X210.15Y-136.95
X210.19Y-186.4
X210.3Y-154.825
X210.3Y-171.
X210.375Y-180.025
X210.85Y-160.6
X210.88Y-123.79
X210.89Y-125.73
X211.25Y-90.95
X211.275Y-130.5
X211.325Y-178.1
X211.5Y-138.35
X211.6Y-184.45
X211.75Y-174.1
X212.Y-126.075
X212.11Y-187.07
X212.35Y-121.55
X212.5Y-125.775
X212.5Y-139.45
X212.525Y-156.9
X212.525Y-159.3
X212.525Y-160.9
X212.525Y-162.5
X212.525Y-164.1
X212.525Y-165.7
X212.525Y-168.5
X212.525Y-170.1
X212.525Y-171.7
X212.525Y-173.3
X212.525Y-174.9
X212.6Y-151.3
X212.6Y-151.8
X212.6Y-152.3
X212.95Y-90.95
X212.95Y-126.075
X213.Y-166.75
X213.01Y-122.4
X213.02Y-96.56
X213.25Y-184.45
X213.5Y-125.775
X213.5Y-139.43
X213.725Y-153.85
X213.74Y-187.03
X213.8Y-90.95
X214.Y-126.075
X214.Y-139.43
X214.32Y-185.96
X214.5Y-125.775
X214.5Y-139.43
X214.6Y-155.3
X214.6Y-156.9
X214.6Y-158.5
X214.6Y-159.3
X214.6Y-160.9
X214.6Y-162.5
X214.6Y-164.1
X214.6Y-165.7
X214.6Y-168.5
X214.6Y-170.1
X214.6Y-171.7
X214.6Y-173.3
X214.6Y-174.9
X214.6Y-179.7
X214.6Y-180.6
X214.9Y-175.775
X215.Y-126.075
X215.Y-139.43
X215.1Y-177.575
X215.34Y-122.06
X215.45Y-160.45
X215.45Y-162.05
X215.45Y-163.65
X215.45Y-165.25
X215.5Y-90.95
X215.5Y-125.775
X215.5Y-139.42
X215.5Y-168.9
X215.5Y-170.5
X215.5Y-172.1
X215.5Y-173.7
X215.5Y-174.5
X215.55Y-153.35
X215.55Y-157.35
X215.55Y-158.15
X215.55Y-158.95
X215.59Y-187.89
X215.66Y-97.56
X215.9Y-167.45
X216.Y-126.075
X216.Y-139.43
X216.2Y-151.3
X216.2Y-151.8
X216.2Y-152.3
X216.25Y-155.65
X216.25Y-156.45
X216.25Y-157.25
X216.25Y-161.25
X216.25Y-162.05
X216.25Y-162.95
X216.25Y-164.45
X216.25Y-165.25
X216.3Y-168.9
X216.3Y-169.7
X216.3Y-171.3
X216.3Y-172.1
X216.3Y-172.9
X216.3Y-174.5
X216.3Y-175.3
X216.3Y-176.9
X216.3Y-177.7
X216.3Y-178.5
X216.3Y-179.3
X216.35Y-90.95
X216.35Y-158.15
X216.5Y-125.775
X216.5Y-139.43
X216.95Y-167.45
X217.Y-126.075
X217.Y-139.43
X217.05Y-162.95
X217.15Y-163.85
X217.2Y-155.3
X217.2Y-156.1
X217.2Y-156.9
X217.2Y-157.7
X217.2Y-159.3
X217.2Y-160.1
X217.2Y-160.9
X217.2Y-161.7
X217.2Y-164.9
X217.2Y-166.15
X217.25Y-170.1
X217.25Y-170.9
X217.25Y-172.5
X217.25Y-173.3
X217.25Y-174.1
X217.25Y-174.9
X217.25Y-175.7
X217.25Y-176.5
X217.25Y-177.3
X217.25Y-178.1
X217.25Y-178.9
X217.5Y-125.775
X217.5Y-139.43
X217.525Y-167.45
X217.625Y-161.35
X217.75Y-163.85
X217.95Y-168.7
X217.95Y-169.55
X217.975Y-161.8
X218.Y-126.075
X218.Y-139.44
X218.05Y-90.95
X218.05Y-160.95
X218.1Y-171.7
X218.1Y-176.1
X218.15Y-97.14
X218.39Y-123.11
X218.5Y-125.775
X218.5Y-139.43
X218.5Y-162.
X218.8Y-172.52
X218.9Y-90.95
X218.9Y-181.6
X218.95Y-160.05
X218.95Y-168.575
X219.Y-126.075
X219.Y-139.43
X219.075Y-176.1
X219.1Y-204.2
X219.175Y-170.9
X219.28Y-171.7
X219.35Y-167.45
X219.35Y-183.805
X219.4Y-170.1
X219.4Y-173.3
X219.475Y-158.075
X219.5Y-125.775
X219.5Y-139.45
X219.5Y-176.9
X219.525Y-166.15
X219.55Y-156.55
X219.55Y-157.35
X219.55Y-159.65
X219.55Y-160.55
X219.55Y-161.35
X219.55Y-163.75
X219.55Y-164.55
X219.6Y-123.81
X219.9Y-167.45
X220.25Y-155.65
X220.25Y-156.45
X220.25Y-159.65
X220.25Y-160.45
X220.25Y-163.65
X220.3Y-168.9
X220.3Y-170.5
X220.3Y-174.5
X220.3Y-175.3
X220.3Y-176.9
X220.3Y-177.7
X220.3Y-178.5
X220.35Y-157.35
X220.35Y-161.35
X220.35Y-164.55
X220.4Y-124.4
X220.6Y-90.95
X220.65Y-122.05
X220.65Y-150.775
X220.96Y-98.4
X221.Y-124.59
X221.05Y-154.85
X221.05Y-155.65
X221.05Y-156.45
X221.05Y-157.25
X221.05Y-159.65
X221.05Y-161.25
X221.05Y-164.45
X221.075Y-158.125
X221.1Y-163.7
X221.1Y-169.7
X221.1Y-172.1
X221.1Y-174.5
X221.1Y-175.3
X221.1Y-176.9
X221.1Y-177.7
X221.1Y-178.5
X221.125Y-162.1
X221.35Y-128.3
X221.4Y-90.95
X221.475Y-151.2
X221.5Y-166.3
X221.6Y-189.9
X221.85Y-154.85
X221.85Y-155.75
X221.9Y-101.7
X221.9Y-159.7
X221.92Y-183.46
X222.Y-160.85
X222.Y-161.7
X222.Y-163.3
X222.Y-164.9
X222.Y-168.5
X222.05Y-169.3
X222.05Y-170.9
X222.05Y-172.25
X222.05Y-174.1
X222.05Y-174.9
X222.05Y-177.3
X222.05Y-178.9
X222.1Y-158.125
X222.42Y-188.05
X222.425Y-129.5
X222.425Y-130.5
X222.425Y-131.5
X222.425Y-132.475
X222.425Y-133.025
X222.425Y-134.
X222.425Y-135.
X222.425Y-136.
X222.5Y-110.7
X222.5Y-175.7
X222.52Y-185.58
X222.55Y-184.9
X222.675Y-168.725
X222.825Y-130.
X222.825Y-131.
X222.825Y-132.
X222.825Y-133.5
X222.825Y-134.5
X222.825Y-135.5
X222.95Y-120.1
X223.05Y-123.3
X223.1Y-90.95
X223.1Y-109.625
X223.125Y-166.975
X223.13Y-183.61
X223.15Y-147.5
X223.15Y-148.75
X223.175Y-168.025
X223.175Y-175.7
X223.3Y-187.05
X223.3Y-188.
X223.7Y-194.8
X223.75Y-147.5
X223.75Y-148.75
X223.95Y-90.95
X223.95Y-97.15
X223.95Y-168.4
X224.1Y-123.925
X224.15Y-163.51
X224.17Y-189.26
X224.2Y-161.85
X224.2Y-162.44
X224.2Y-174.9
X224.2Y-177.3
X224.31Y-181.73
X224.4Y-147.5
X224.4Y-148.75
X224.75Y-202.45
X224.85Y-101.7
X224.9Y-171.7
X225.02Y-179.63
X225.05Y-166.65
X225.15Y-119.5
X225.15Y-120.75
X225.15Y-128.1
X225.24Y-148.11
X225.33Y-180.6
X225.55Y-186.05
X225.65Y-90.95
X225.75Y-184.35
X225.8Y-204.2
X225.9Y-108.8
X225.95Y-161.2
X226.2Y-101.3
X226.2Y-167.15
X226.25Y-177.35
X226.25Y-183.9
X226.25Y-185.15
X226.275Y-187.65
X226.275Y-188.2
X226.3Y-132.65
X226.33Y-130.98
X226.4Y-162.25
X226.5Y-90.95
X226.54Y-181.86
X226.6Y-187.15
X226.7Y-177.75
X226.7Y-188.6
X226.7Y-189.2
X226.75Y-183.525
X226.75Y-184.75
X226.75Y-185.55
X226.75Y-186.4
X226.8Y-179.35
X227.08Y-142.65
X227.25Y-152.
X227.325Y-180.75
X227.4Y-102.1
X227.575Y-160.125
X227.65Y-143.65
X227.7Y-122.025
X227.7Y-128.95
X227.7Y-204.4
X227.75Y-190.
X228.01Y-142.85
X228.05Y-178.9
X228.175Y-181.725
X228.2Y-90.95
X228.25Y-132.65
X228.3Y-123.3
X228.3Y-129.35
X228.35Y-191.95
X228.4Y-93.9
X228.575Y-181.3
X228.62Y-137.1
X228.65Y-117.05
X228.65Y-135.
X228.68Y-137.74
X228.75Y-130.65
X228.75Y-157.25
X228.75Y-158.25
X228.75Y-159.25
X228.75Y-160.25
X228.75Y-161.25
X228.75Y-162.25
X228.75Y-163.25
X228.75Y-164.25
X228.75Y-165.25
X228.75Y-166.25
X228.75Y-167.25
X228.75Y-168.25
X228.75Y-169.25
X228.75Y-170.25
X228.75Y-171.25
X228.75Y-172.25
X228.75Y-173.25
X228.75Y-174.25
X228.75Y-175.25
X228.75Y-176.25
X228.75Y-177.25
X228.75Y-178.25
X228.8Y-134.1
X228.82Y-131.57
X228.975Y-181.725
X229.05Y-90.95
X229.2Y-129.9
X229.375Y-181.3
X229.5Y-117.05
X229.75Y-157.25
X229.75Y-158.25
X229.75Y-159.25
X229.75Y-160.25
X229.75Y-161.25
X229.75Y-162.25
X229.75Y-163.25
X229.75Y-164.25
X229.75Y-165.25
X229.75Y-166.25
X229.75Y-167.25
X229.75Y-168.25
X229.75Y-169.25
X229.75Y-170.25
X229.75Y-171.25
X229.75Y-172.25
X229.75Y-173.25
X229.75Y-174.25
X229.75Y-175.25
X229.75Y-176.25
X229.75Y-177.25
X229.75Y-178.25
X229.775Y-181.725
X229.8Y-190.6
X229.93Y-126.23
X229.95Y-101.7
X230.1Y-116.1
X230.15Y-110.65
X230.15Y-114.25
X230.175Y-181.3
X230.575Y-181.725
X230.7Y-133.825
X230.75Y-90.95
X230.75Y-154.35
X230.75Y-157.25
X230.75Y-158.25
X230.75Y-159.25
X230.75Y-160.25
X230.75Y-161.25
X230.75Y-162.25
X230.75Y-163.25
X230.75Y-164.25
X230.75Y-165.25
X230.75Y-166.25
X230.75Y-167.25
X230.75Y-168.25
X230.75Y-169.25
X230.75Y-170.25
X230.75Y-171.25
X230.75Y-172.25
X230.75Y-173.25
X230.75Y-174.25
X230.75Y-175.25
X230.75Y-176.25
X230.75Y-177.25
X230.75Y-178.25
X230.95Y-93.9
X230.95Y-117.95
X230.975Y-181.3
X231.1Y-130.05
X231.2Y-149.85
X231.375Y-181.725
X231.45Y-154.35
X231.45Y-155.25
X231.5Y-192.75
X231.6Y-90.95
X231.7Y-123.55
X231.73Y-152.24
X231.74Y-152.82
X231.75Y-157.25
X231.75Y-158.25
X231.75Y-159.25
X231.75Y-160.25
X231.75Y-161.25
X231.75Y-162.25
X231.75Y-163.25
X231.75Y-164.25
X231.75Y-165.25
X231.75Y-166.25
X231.75Y-167.25
X231.75Y-168.25
X231.75Y-169.25
X231.75Y-170.25
X231.75Y-171.25
X231.75Y-172.25
X231.75Y-173.25
X231.75Y-174.25
X231.75Y-175.25
X231.75Y-176.25
X231.75Y-177.25
X231.75Y-178.25
X231.76Y-135.65
X231.775Y-181.3
X231.85Y-132.7
X232.025Y-130.05
X232.025Y-130.625
X232.025Y-131.275
X232.025Y-131.85
X232.05Y-149.82
X232.125Y-150.775
X232.175Y-181.725
X232.425Y-135.5
X232.425Y-136.075
X232.425Y-136.725
X232.425Y-137.3
X232.45Y-101.7
X232.45Y-132.7
X232.45Y-133.275
X232.45Y-133.925
X232.45Y-134.5
X232.575Y-181.3
X232.65Y-121.3
X232.67Y-140.92
X232.7Y-193.2
X232.7Y-137.9
X232.75Y-157.25
X232.75Y-158.25
X232.75Y-159.25
X232.75Y-160.25
X232.75Y-161.25
X232.75Y-162.25
X232.75Y-163.25
X232.75Y-164.25
X232.75Y-165.25
X232.75Y-166.25
X232.75Y-167.25
X232.75Y-168.25
X232.75Y-169.25
X232.75Y-170.25
X232.75Y-171.25
X232.75Y-172.25
X232.75Y-173.25
X232.75Y-174.25
X232.75Y-175.25
X232.75Y-176.25
X232.75Y-177.25
X232.75Y-178.25
X232.8Y-190.75
X232.94Y-209.85
X232.975Y-180.75
X232.975Y-181.725
X233.2Y-124.4
X233.2Y-140.95
X233.25Y-119.85
X233.3Y-90.95
X233.375Y-181.3
X233.5Y-93.9
X233.75Y-157.25
X233.75Y-158.25
X233.75Y-159.25
X233.75Y-160.25
X233.75Y-161.25
X233.75Y-162.25
X233.75Y-163.25
X233.75Y-164.25
X233.75Y-165.25
X233.75Y-166.25
X233.75Y-167.25
X233.75Y-168.25
X233.75Y-169.25
X233.75Y-170.25
X233.75Y-171.25
X233.75Y-172.25
X233.75Y-173.25
X233.75Y-174.25
X233.75Y-175.25
X233.75Y-176.25
X233.75Y-177.25
X233.75Y-178.25
X233.77Y-203.72
X233.775Y-140.95
X233.775Y-181.725
X233.81Y-134.89
X233.9Y-127.025
X233.9Y-129.
X234.Y-208.71
X234.05Y-132.4
X234.15Y-123.7
X234.175Y-181.3
X234.225Y-130.05
X234.225Y-130.7
X234.425Y-140.95
X234.55Y-190.55
X234.55Y-191.45
X234.58Y-181.87
X234.75Y-157.25
X234.75Y-158.25
X234.75Y-159.25
X234.75Y-160.25
X234.75Y-161.25
X234.75Y-162.25
X234.75Y-163.25
X234.75Y-164.25
X234.75Y-165.25
X234.75Y-166.25
X234.75Y-167.25
X234.75Y-168.25
X234.75Y-169.25
X234.75Y-170.25
X234.75Y-171.25
X234.75Y-172.25
X234.75Y-173.25
X234.75Y-174.25
X234.75Y-175.25
X234.75Y-176.25
X234.75Y-177.25
X234.75Y-178.25
X234.76Y-202.27
X234.95Y-151.2
X235.Y-95.85
X235.Y-101.7
X235.Y-140.95
X235.05Y-129.875
X235.05Y-130.675
X235.05Y-131.475
X235.05Y-132.275
X235.05Y-133.875
X235.05Y-135.5
X235.05Y-137.075
X235.05Y-137.875
X235.05Y-189.6
X235.125Y-181.215
X235.24Y-200.9
X235.275Y-143.25
X235.33Y-150.76
X235.375Y-153.35
X235.575Y-183.125
X235.575Y-184.725
X235.575Y-185.525
X235.575Y-186.325
X235.575Y-187.125
X235.575Y-187.925
X235.575Y-188.725
X235.75Y-157.25
X235.75Y-158.25
X235.75Y-159.25
X235.75Y-160.25
X235.75Y-161.25
X235.75Y-162.25
X235.75Y-163.25
X235.75Y-165.25
X235.75Y-166.25
X235.75Y-167.25
X235.75Y-168.25
X235.75Y-169.25
X235.75Y-170.25
X235.75Y-171.25
X235.75Y-172.25
X235.75Y-173.25
X235.75Y-174.25
X235.75Y-175.25
X235.75Y-176.25
X235.75Y-177.25
X235.75Y-178.25
X235.8Y-189.625
X235.9Y-130.275
X235.9Y-131.075
X235.9Y-131.875
X235.9Y-132.675
X235.9Y-133.475
X235.9Y-134.275
X235.9Y-135.875
X235.9Y-136.675
X235.9Y-137.475
X236.Y-181.575
X236.025Y-184.325
X236.025Y-185.925
X236.025Y-186.725
X236.025Y-187.525
X236.025Y-188.325
X236.05Y-140.95
X236.05Y-183.78
X236.25Y-125.75
X236.26Y-123.65
X236.3Y-129.425
X236.3Y-138.325
X236.375Y-153.85
X236.425Y-185.125
X236.45Y-127.85
X236.625Y-140.95
X236.7Y-130.275
X236.7Y-131.875
X236.7Y-132.675
X236.7Y-134.275
X236.7Y-135.075
X236.7Y-136.675
X236.7Y-137.475
X236.7Y-192.7
X236.75Y-157.25
X236.75Y-158.25
X236.75Y-159.25
X236.75Y-160.25
X236.75Y-161.25
X236.75Y-162.25
X236.75Y-163.25
X236.75Y-164.25
X236.75Y-165.25
X236.75Y-166.25
X236.75Y-167.25
X236.75Y-168.25
X236.75Y-169.25
X236.75Y-170.25
X236.75Y-171.25
X236.75Y-172.25
X236.75Y-173.25
X236.75Y-174.25
X236.75Y-175.25
X236.75Y-176.25
X236.75Y-177.25
X236.75Y-178.25
X237.1Y-123.65
X237.1Y-125.75
X237.1Y-126.4
X237.1Y-129.425
X237.125Y-189.9
X237.275Y-140.95
X237.4Y-208.7
X237.4Y-211.25
X237.45Y-142.1
X237.5Y-131.075
X237.5Y-131.875
X237.5Y-132.675
X237.5Y-133.475
X237.5Y-134.275
X237.5Y-135.075
X237.5Y-135.875
X237.55Y-95.85
X237.75Y-157.25
X237.75Y-158.25
X237.75Y-159.25
X237.75Y-160.25
X237.75Y-161.25
X237.75Y-162.25
X237.75Y-163.25
X237.75Y-164.25
X237.75Y-165.25
X237.75Y-166.25
X237.75Y-167.25
X237.75Y-168.25
X237.75Y-169.25
X237.75Y-170.25
X237.75Y-171.25
X237.75Y-172.25
X237.75Y-173.25
X237.75Y-174.25
X237.75Y-175.25
X237.75Y-176.25
X237.75Y-177.25
X237.75Y-178.25
X237.8Y-186.65
X237.8Y-189.
X237.85Y-140.95
X238.225Y-190.7
X238.3Y-130.275
X238.3Y-131.075
X238.3Y-131.875
X238.3Y-132.675
X238.3Y-133.475
X238.3Y-134.275
X238.3Y-135.875
X238.3Y-136.675
X238.3Y-137.475
X238.3Y-139.85
X238.375Y-144.075
X238.7Y-138.325
X238.75Y-127.85
X238.75Y-140.95
X238.75Y-157.25
X238.75Y-158.25
X238.75Y-159.25
X238.75Y-160.25
X238.75Y-161.25
X238.75Y-162.25
X238.75Y-163.25
X238.75Y-164.25
X238.75Y-165.25
X238.75Y-166.25
X238.75Y-167.25
X238.75Y-168.25
X238.75Y-169.25
X238.75Y-170.25
X238.75Y-172.25
X238.75Y-173.25
X238.75Y-174.25
X238.75Y-175.25
X238.75Y-176.25
X238.75Y-177.25
X238.75Y-178.25
X238.85Y-122.05
X238.85Y-124.1
X238.85Y-190.3
X238.9Y-192.7
X239.Y-183.15
X239.Y-183.875
X239.Y-184.65
X239.1Y-130.275
X239.1Y-131.075
X239.1Y-131.875
X239.1Y-132.675
X239.1Y-133.475
X239.1Y-135.875
X239.1Y-136.675
X239.1Y-137.475
X239.125Y-149.75
X239.125Y-150.3
X239.325Y-140.95
X239.375Y-121.3
X239.4Y-186.15
X239.425Y-142.725
X239.55Y-143.475
X239.6Y-206.4
X239.75Y-157.25
X239.75Y-158.25
X239.75Y-159.25
X239.75Y-160.25
X239.75Y-161.25
X239.75Y-162.25
X239.75Y-163.25
X239.75Y-164.25
X239.75Y-165.25
X239.75Y-166.25
X239.75Y-167.25
X239.75Y-168.25
X239.75Y-169.25
X239.75Y-170.25
X239.75Y-171.25
X239.75Y-172.25
X239.75Y-173.25
X239.75Y-174.25
X239.75Y-175.25
X239.75Y-176.25
X239.75Y-177.25
X239.75Y-178.25
X239.8Y-186.65
X239.9Y-130.275
X239.9Y-131.075
X239.9Y-131.875
X239.9Y-132.675
X239.9Y-133.475
X239.9Y-134.275
X239.9Y-135.075
X239.9Y-135.85
X239.9Y-136.675
X239.975Y-140.95
X240.1Y-95.85
X240.2Y-185.65
X240.3Y-129.425
X240.55Y-140.95
X240.6Y-185.15
X240.65Y-142.
X240.67Y-126.29
X240.7Y-124.6
X240.7Y-130.275
X240.7Y-131.075
X240.7Y-131.875
X240.7Y-132.675
X240.7Y-133.475
X240.7Y-134.275
X240.7Y-135.075
X240.7Y-136.675
X240.75Y-151.25
X240.75Y-152.65
X240.75Y-157.25
X240.75Y-158.25
X240.75Y-159.25
X240.75Y-160.25
X240.75Y-161.25
X240.75Y-162.25
X240.75Y-163.25
X240.75Y-164.25
X240.75Y-165.25
X240.75Y-166.25
X240.75Y-167.25
X240.75Y-168.25
X240.75Y-169.25
X240.75Y-170.25
X240.75Y-173.25
X240.75Y-174.25
X240.75Y-175.25
X240.75Y-176.25
X240.75Y-177.25
X240.75Y-178.25
X240.75Y-179.55
X240.8Y-149.1
X240.83Y-186.51
X240.85Y-138.575
X240.97Y-153.48
X241.Y-101.7
X241.1Y-129.425
X241.1Y-192.7
X241.125Y-127.875
X241.35Y-149.55
X241.38Y-182.34
X241.5Y-130.275
X241.5Y-131.075
X241.5Y-131.87
X241.5Y-135.075
X241.5Y-135.875
X241.5Y-136.675
X241.55Y-140.95
X241.75Y-144.5
X241.75Y-157.25
X241.75Y-158.25
X241.75Y-159.25
X241.75Y-160.25
X241.75Y-161.25
X241.75Y-162.25
X241.75Y-163.25
X241.75Y-164.25
X241.75Y-165.25
X241.75Y-166.25
X241.75Y-167.25
X241.75Y-168.25
X241.75Y-169.25
X241.75Y-171.25
X241.75Y-172.25
X241.75Y-173.25
X241.75Y-174.25
X241.75Y-175.25
X241.75Y-176.25
X241.75Y-177.25
X241.75Y-178.25
X241.85Y-149.1
X241.93Y-181.96
X242.075Y-140.95
X242.11Y-182.73
X242.125Y-144.875
X242.2Y-192.7
X242.29Y-186.95
X242.29Y-189.2
X242.3Y-94.87
X242.3Y-129.425
X242.3Y-130.275
X242.3Y-131.075
X242.3Y-131.875
X242.3Y-132.675
X242.3Y-133.475
X242.3Y-134.275
X242.3Y-135.075
X242.3Y-135.875
X242.3Y-136.675
X242.3Y-137.475
X242.3Y-183.75
X242.3Y-205.4
X242.475Y-182.225
X242.7Y-124.2
X242.7Y-125.275
X242.725Y-140.95
X242.74Y-126.02
X242.75Y-145.25
X242.75Y-157.25
X242.75Y-158.25
X242.75Y-159.25
X242.75Y-160.25
X242.75Y-161.25
X242.75Y-162.25
X242.75Y-163.25
X242.75Y-164.25
X242.75Y-165.25
X242.75Y-166.25
X242.75Y-167.25
X242.75Y-168.25
X242.75Y-169.25
X242.75Y-170.25
X242.75Y-171.25
X242.75Y-172.25
X242.75Y-173.25
X242.75Y-174.25
X242.75Y-175.25
X242.75Y-176.25
X242.75Y-177.25
X242.75Y-178.25
X242.92Y-142.75
X243.1Y-130.275
X243.1Y-131.075
X243.1Y-132.65
X243.1Y-134.275
X243.1Y-135.075
X243.1Y-135.875
X243.125Y-145.625
X243.14Y-144.74
X243.15Y-183.75
X243.3Y-140.95
X243.37Y-142.28
X243.5Y-138.425
X243.75Y-150.775
X243.75Y-157.25
X243.75Y-158.25
X243.75Y-159.25
X243.75Y-160.25
X243.75Y-161.25
X243.75Y-162.25
X243.75Y-163.25
X243.75Y-164.25
X243.75Y-165.25
X243.75Y-166.25
X243.75Y-167.25
X243.75Y-168.25
X243.75Y-169.25
X243.75Y-170.25
X243.75Y-171.25
X243.75Y-172.25
X243.75Y-173.25
X243.75Y-174.25
X243.75Y-175.25
X243.75Y-176.25
X243.75Y-177.25
X243.75Y-178.25
X243.76Y-156.35
X243.975Y-129.875
X243.975Y-130.4
X244.Y-146.
X244.04Y-134.78
X244.15Y-130.975
X244.2Y-123.025
X244.225Y-138.4
X244.225Y-141.325
X244.375Y-146.375
X244.4Y-144.1
X244.65Y-126.375
X244.67Y-187.02
X244.67Y-189.24
X244.75Y-147.125
X244.75Y-157.25
X244.75Y-158.25
X244.75Y-159.25
X244.75Y-160.25
X244.75Y-161.25
X244.75Y-162.25
X244.75Y-163.25
X244.75Y-164.25
X244.75Y-165.25
X244.75Y-166.25
X244.75Y-167.25
X244.75Y-168.25
X244.75Y-169.25
X244.75Y-170.25
X244.75Y-171.25
X244.75Y-172.25
X244.75Y-173.25
X244.75Y-174.25
X244.75Y-175.25
X244.75Y-176.25
X244.75Y-177.25
X244.75Y-178.25
X244.83Y-201.65
X245.05Y-127.1
X245.05Y-127.95
X245.05Y-128.8
X245.1Y-125.45
X245.125Y-146.75
X245.19Y-185.03
X245.35Y-195.2
X245.35Y-208.7
X245.38Y-179.59
X245.4Y-143.7
X245.4Y-184.56
X245.55Y-144.85
X245.55Y-145.65
X245.68Y-139.85
X245.7Y-202.9
X245.75Y-147.5
X245.75Y-157.25
X245.75Y-158.25
X245.75Y-159.25
X245.75Y-160.25
X245.75Y-161.25
X245.75Y-162.25
X245.75Y-163.25
X245.75Y-164.25
X245.75Y-165.25
X245.75Y-166.25
X245.75Y-167.25
X245.75Y-168.25
X245.75Y-169.25
X245.75Y-170.25
X245.75Y-171.25
X245.75Y-172.25
X245.75Y-173.25
X245.75Y-174.25
X245.75Y-175.25
X245.75Y-176.25
X245.75Y-177.25
X245.75Y-178.25
X246.025Y-143.7
X246.05Y-135.24
X246.125Y-147.875
X246.34Y-184.94
X246.55Y-149.8
X246.7Y-91.3
X246.7Y-93.5
X246.7Y-94.65
X246.7Y-96.75
X246.72Y-209.86
X246.74Y-153.27
X246.75Y-139.35
X246.75Y-157.25
X246.75Y-158.25
X246.75Y-159.25
X246.75Y-160.25
X246.75Y-161.25
X246.75Y-162.25
X246.75Y-163.25
X246.75Y-164.25
X246.75Y-165.25
X246.75Y-166.25
X246.75Y-167.25
X246.75Y-168.25
X246.75Y-169.25
X246.75Y-170.25
X246.75Y-171.25
X246.75Y-172.25
X246.75Y-173.25
X246.75Y-174.25
X246.75Y-175.25
X246.75Y-176.25
X246.75Y-177.25
X246.75Y-178.25
X246.88Y-186.51
X246.89Y-189.24
X246.99Y-181.66
X247.05Y-141.775
X247.125Y-148.25
X247.23Y-139.96
X247.25Y-144.25
X247.45Y-146.45
X247.5Y-139.01
X247.65Y-147.85
X247.75Y-148.625
X247.75Y-157.25
X247.75Y-158.25
X247.75Y-159.25
X247.75Y-160.25
X247.75Y-161.25
X247.75Y-162.25
X247.75Y-163.25
X247.75Y-164.25
X247.75Y-165.25
X247.75Y-166.25
X247.75Y-167.25
X247.75Y-168.25
X247.75Y-169.25
X247.75Y-170.25
X247.75Y-171.25
X247.75Y-172.25
X247.75Y-173.25
X247.75Y-174.25
X247.75Y-175.25
X247.75Y-176.25
X247.75Y-177.25
X247.75Y-178.25
X247.87Y-140.71
X247.9Y-141.425
X248.Y-182.4
X248.08Y-133.57
X248.15Y-129.225
X248.15Y-139.35
X248.16Y-124.77
X248.34Y-155.85
X248.36Y-209.57
X248.37Y-152.87
X248.37Y-206.32
X248.75Y-141.95
X248.75Y-149.
X248.75Y-157.25
X248.75Y-158.25
X248.75Y-159.25
X248.75Y-160.25
X248.75Y-161.25
X248.75Y-162.25
X248.75Y-163.25
X248.75Y-164.25
X248.75Y-165.25
X248.75Y-166.25
X248.75Y-167.25
X248.75Y-168.25
X248.75Y-169.25
X248.75Y-170.25
X248.75Y-175.25
X248.75Y-176.25
X248.75Y-177.25
X248.75Y-178.25
X249.125Y-149.375
X249.55Y-151.7
X249.74Y-179.36
X249.75Y-157.25
X249.75Y-158.25
X249.75Y-159.25
X249.75Y-160.25
X249.75Y-161.25
X249.75Y-162.25
X249.75Y-163.25
X249.75Y-164.25
X249.75Y-165.25
X249.75Y-166.25
X249.75Y-167.25
X249.75Y-168.25
X249.75Y-169.25
X249.75Y-170.25
X249.75Y-175.25
X249.75Y-176.25
X249.75Y-177.25
X249.75Y-178.25
X249.775Y-131.3
X249.84Y-132.64
X249.95Y-152.75
X250.01Y-156.07
X250.2Y-130.2
X250.225Y-129.45
X250.225Y-130.85
X250.32Y-132.18
X250.33Y-155.27
X250.44Y-202.02
X250.48Y-200.
X250.675Y-131.775
X250.675Y-133.35
X250.675Y-134.85
X250.675Y-135.85
X250.8Y-152.75
X250.9Y-95.075
X250.91Y-157.53
X251.03Y-132.35
X251.05Y-168.35
X251.09Y-124.41
X251.1Y-114.35
X251.1Y-120.85
X251.1Y-122.1
X251.1Y-126.85
X251.1Y-128.1
X251.1Y-130.35
X251.1Y-131.35
X251.1Y-132.85
X251.1Y-134.1
X251.1Y-135.35
X251.1Y-136.35
X251.48Y-158.21
X251.57Y-155.1
X251.6Y-92.4
X251.65Y-152.75
X251.7Y-162.65
X251.7Y-163.65
X251.96Y-112.37
X251.96Y-156.85
X252.Y-157.975
X252.1Y-91.3
X252.1Y-93.5
X252.1Y-175.25
X252.1Y-210.35
X252.1Y-211.25
X252.2Y-137.3
X252.25Y-165.275
X252.25Y-167.75
X252.32Y-153.96
X252.375Y-95.625
X252.65Y-101.95
X252.7Y-169.25
X253.28Y-169.25
X253.325Y-122.1
X253.325Y-134.1
X253.4Y-110.15
X253.4Y-119.85
X253.4Y-121.35
X253.4Y-122.85
X253.4Y-123.85
X253.4Y-124.45
X253.4Y-125.85
X253.4Y-127.35
X253.4Y-128.1
X253.4Y-128.85
X253.4Y-129.85
X253.4Y-130.85
X253.4Y-131.425
X253.4Y-140.05
X253.475Y-125.1
X253.55Y-116.1
X253.55Y-118.5
X253.68Y-138.55
X253.75Y-120.35
X253.75Y-123.35
X253.75Y-126.35
X253.75Y-129.35
X253.8Y-132.
X253.8Y-132.7
X253.8Y-133.625
X253.8Y-169.25
X254.1Y-117.85
X254.35Y-169.25
X254.55Y-117.35
X254.62Y-115.01
X254.65Y-181.9
X254.81Y-206.54
X254.9Y-169.25
X254.9Y-178.3
X254.9Y-178.95
X255.25Y-109.05
X255.25Y-141.15
X255.45Y-169.25
X255.69Y-115.52
X255.75Y-181.9
X256.Y-169.25
X256.45Y-150.95
X256.55Y-169.25
X256.575Y-175.625
X256.6Y-129.5
X256.65Y-124.35
X256.8Y-120.35
X256.9Y-132.35
X256.9Y-133.35
X257.1Y-110.15
X257.1Y-140.05
X257.1Y-162.
X257.1Y-181.92
X257.15Y-121.9
X257.15Y-124.85
X257.15Y-150.95
X257.15Y-153.85
X257.2Y-114.45
X257.2Y-116.1
X257.2Y-116.85
X257.2Y-118.25
X257.2Y-126.85
X257.2Y-128.1
X257.2Y-132.85
X257.2Y-134.1
X257.2Y-134.85
X257.2Y-135.85
X257.225Y-182.65
X257.225Y-184.65
X257.225Y-185.65
X257.225Y-186.65
X257.6Y-183.15
X257.6Y-184.15
X257.6Y-185.15
X257.6Y-186.15
X257.6Y-187.15
X257.7Y-178.3
X257.7Y-178.95
X257.8Y-150.95
X257.8Y-152.05
X258.3Y-137.325
X258.45Y-143.5
X258.5Y-180.675
X258.8Y-205.95
X259.4Y-187.15
X259.41Y-159.46
X259.41Y-175.84
X259.425Y-135.35
X259.425Y-136.35
X259.45Y-116.1
X259.5Y-114.4
X259.55Y-117.35
X259.55Y-118.
X259.55Y-120.35
X259.55Y-121.35
X259.55Y-121.9
X259.55Y-122.85
X259.55Y-123.85
X259.55Y-125.85
X259.55Y-127.35
X259.55Y-128.85
X259.55Y-129.85
X259.55Y-130.85
X259.55Y-131.85
X259.56Y-91.8
X259.7Y-184.075
X259.85Y-179.025
X259.9Y-123.35
X259.9Y-126.35
X259.9Y-129.35
X260.1Y-207.7
X260.25Y-182.675
X260.325Y-130.8
X260.35Y-172.625
X260.35Y-179.4
X260.375Y-159.125
X260.45Y-99.75
X260.45Y-102.3
X260.45Y-105.05
X260.45Y-118.2
X260.45Y-171.5
X260.5Y-131.85
X260.7Y-113.6
X260.7Y-114.4
X260.72Y-203.97
X260.75Y-179.025
X260.85Y-181.2
X260.85Y-187.05
X260.85Y-187.6
X260.85Y-189.4
X260.85Y-198.7
X260.85Y-200.6
X260.9Y-90.8
X260.9Y-91.65
X260.9Y-101.8
X261.Y-89.7
X261.Y-119.85
X261.1Y-101.2
X261.1Y-157.88
X261.35Y-176.025
X261.35Y-179.025
X261.35Y-206.4
X261.5Y-118.75
X261.69Y-157.39
X261.83Y-90.1
X261.85Y-179.4
X261.85Y-181.2
X262.Y-120.35
X262.07Y-176.08
X262.1Y-168.4
X262.35Y-173.05
X262.35Y-187.6
X262.5Y-119.3
X262.65Y-103.15
X262.65Y-103.7
X262.65Y-104.25
X262.85Y-179.4
X262.85Y-181.2
X262.85Y-190.3
X263.Y-121.35
X263.275Y-179.025
X263.35Y-89.3
X263.35Y-187.6
X263.47Y-200.
X263.5Y-120.85
X263.6Y-169.75
X263.6Y-170.55
X263.625Y-182.7
X263.85Y-190.7
X263.925Y-179.025
X263.95Y-178.25
X264.Y-122.85
X264.15Y-155.05
X264.35Y-181.2
X264.35Y-187.6
X264.45Y-171.875
X264.5Y-122.4
X264.75Y-185.375
X264.85Y-189.9
X265.Y-123.35
X265.1Y-181.225
X265.17Y-176.08
X265.2Y-90.3
X265.35Y-179.375
X265.45Y-193.15
X265.46Y-202.02
X265.5Y-124.35
X265.52Y-175.76
X265.6Y-186.8
X265.6Y-206.63
X265.65Y-185.375
X265.7Y-169.75
X265.7Y-170.55
X265.775Y-181.1
X265.775Y-188.5
X265.8Y-167.45
X265.8Y-168.
X265.8Y-168.8
X265.8Y-186.15
X266.05Y-92.7
X266.39Y-176.07
X266.5Y-126.4
X266.7Y-124.8
X266.7Y-125.55
X266.7Y-191.75
X266.88Y-208.36
X267.Y-142.5
X267.6Y-183.15
X267.6Y-185.15
X267.6Y-186.15
X267.8Y-175.8
X267.9Y-167.4
X267.9Y-168.
X267.9Y-168.8
X268.05Y-184.65
X268.05Y-192.25
X268.15Y-182.65
X268.3Y-92.7
X268.5Y-184.15
X268.5Y-191.3
X268.625Y-89.825
X268.7Y-119.15
X268.7Y-129.7
X268.95Y-183.65
X268.95Y-192.7
X269.Y-123.1
X269.05Y-210.44
X269.25Y-119.15
X269.35Y-211.65
X269.5Y-130.1
X269.5Y-131.2
X269.6Y-127.85
X269.75Y-129.15
X270.Y-132.4
X270.Y-134.75
X270.7Y-89.825
X270.8Y-92.3
X270.91Y-200.04
X270.94Y-201.97
X271.15Y-187.575
X271.2Y-134.4
X271.61Y-102.33
X271.61Y-105.58
X271.65Y-125.55
X272.01Y-210.7
X272.05Y-207.45
X272.1Y-171.7
X272.3Y-136.3
X272.5Y-89.825
X272.5Y-140.1
X272.7Y-138.1
X272.7Y-166.875
X272.8Y-123.5
X273.Y-145.75
X273.1Y-172.8
X273.2Y-172.2
X273.45Y-175.85
X273.675Y-165.45
X274.Y-140.1
X274.075Y-164.275
X274.2Y-168.3
X274.475Y-163.25
X274.475Y-163.825
X274.5Y-141.3
X274.5Y-148.
X274.7Y-120.4
X274.925Y-135.
X275.Y-172.2
X275.075Y-156.925
X275.375Y-164.275
X275.55Y-169.75
X275.6Y-117.9
X275.6Y-119.1
X275.6Y-120.4
X275.6Y-121.6
X275.6Y-122.9
X275.6Y-124.2
X275.6Y-125.5
X275.6Y-129.3
X275.6Y-130.5
X275.6Y-134.4
X275.6Y-135.6
X275.6Y-136.9
X275.6Y-138.2
X275.6Y-139.4
X275.6Y-140.7
X275.6Y-142.
X275.6Y-143.2
X275.6Y-144.5
X275.6Y-147.1
X276.2Y-172.45
X276.2Y-174.85
X276.85Y-109.
X276.85Y-112.8
X276.85Y-131.875
X276.85Y-134.4
X276.85Y-153.45
X276.85Y-154.725
X276.85Y-159.8
X276.9Y-111.5
X276.9Y-114.
X276.9Y-116.6
X276.9Y-125.5
X276.9Y-129.3
X276.9Y-133.1
X276.9Y-135.6
X276.9Y-136.9
X276.9Y-138.2
X276.9Y-140.7
X276.9Y-142.
X276.9Y-143.2
X276.9Y-144.5
X276.9Y-147.1
X276.9Y-148.3
X276.9Y-149.6
X276.9Y-157.25
X276.9Y-158.5
X276.9Y-181.5
X277.1Y-171.2
X277.1Y-171.9
X277.5Y-164.3
X277.6Y-185.125
X277.6Y-185.75
X277.6Y-186.4
X277.6Y-187.05
X277.6Y-187.675
X277.6Y-188.325
X277.6Y-188.95
X277.6Y-189.6
X277.6Y-190.225
X277.6Y-190.875
X277.6Y-191.525
X277.6Y-192.15
X277.6Y-192.8
X277.6Y-193.45
X277.6Y-194.075
X277.6Y-194.725
X277.6Y-195.35
X277.6Y-196.
X277.8Y-182.7
X277.9Y-171.4
X278.Y-168.8
X278.05Y-139.4
X278.125Y-126.775
X278.125Y-128.05
X278.15Y-130.6
X278.5Y-160.2
X278.7Y-183.9
X278.85Y-95.5
X278.9Y-118.05
X278.9Y-118.65
X278.9Y-119.2
X279.Y-155.35
X279.Y-155.95
X279.2Y-172.35
X279.2Y-174.25
X279.2Y-176.9
X279.495Y-119.195
X279.5Y-118.05
X279.5Y-118.65
X279.625Y-185.125
X279.685Y-109.635
X279.8Y-120.4
X280.15Y-153.45
X280.15Y-176.9
X280.2Y-169.95
X280.7Y-110.2
X280.7Y-112.8
X280.7Y-114.
X280.7Y-115.3
X280.7Y-116.6
X280.7Y-119.1
X280.7Y-120.4
X280.7Y-121.6
X280.7Y-122.9
X280.7Y-124.2
X280.7Y-125.4
X280.7Y-126.7
X280.7Y-128.
X280.7Y-129.3
X280.7Y-130.5
X280.7Y-131.8
X280.7Y-133.1
X280.7Y-134.4
X280.7Y-135.6
X280.7Y-136.9
X280.7Y-138.2
X280.7Y-139.4
X280.7Y-140.7
X280.7Y-142.
X280.7Y-143.2
X280.7Y-144.5
X280.7Y-147.1
X280.7Y-149.6
X280.7Y-150.85
X280.7Y-154.675
X280.7Y-155.95
X280.7Y-159.775
X281.3Y-161.85
X281.8Y-171.9
X281.95Y-144.55
X281.95Y-158.5
X282.Y-111.5
X282.Y-112.8
X282.Y-114.
X282.Y-115.3
X282.Y-116.6
X282.Y-119.1
X282.Y-120.4
X282.Y-121.6
X282.Y-122.9
X282.Y-124.2
X282.Y-125.4
X282.Y-126.7
X282.Y-128.
X282.Y-129.3
X282.Y-130.5
X282.Y-131.8
X282.Y-133.1
X282.Y-134.4
X282.Y-135.6
X282.Y-136.9
X282.Y-138.2
X282.Y-139.4
X282.Y-140.7
X282.Y-142.
X282.Y-145.8
X282.Y-150.85
X282.Y-152.125
X282.075Y-175.875
X282.4Y-171.4
X282.6Y-160.
X283.2Y-143.3
X283.325Y-149.
X283.325Y-152.825
X283.325Y-156.625
X283.4Y-109.65
X283.75Y-140.1
X283.75Y-161.025
X283.75Y-169.95
X283.9Y-172.35
X283.9Y-174.25
X283.9Y-176.9
X284.Y-111.15
X284.5Y-142.65
X284.5Y-169.25
X284.75Y-185.75
X284.75Y-186.4
X284.75Y-187.025
X284.75Y-187.675
X284.75Y-188.325
X284.75Y-188.95
X284.75Y-189.6
X284.75Y-190.25
X284.75Y-190.875
X284.75Y-191.525
X284.75Y-192.15
X284.75Y-192.8
X284.75Y-193.45
X284.75Y-194.075
X284.75Y-194.725
X284.75Y-195.35
X284.75Y-196.
X284.85Y-176.9
X285.Y-146.5
X285.Y-168.8
X285.5Y-143.9
X285.5Y-170.55
T2
X179.7Y-174.75
X179.7Y-191.65
X179.7Y-196.75
X179.8Y-181.45
X180.34Y-198.18
X180.7Y-107.9
X180.7Y-113.2
X180.7Y-118.6
X180.8Y-173.55
X180.8Y-190.45
X180.8Y-195.55
X180.9Y-180.25
X181.2Y-98.6
X181.69Y-106.73
X181.69Y-112.03
X181.69Y-117.43
X181.78Y-189.25
X181.85Y-137.96
X181.85Y-138.91
X181.85Y-139.86
X181.9Y-174.75
X182.Y-181.45
X182.19Y-97.43
X182.6Y-107.9
X182.6Y-113.2
X182.6Y-118.6
X182.8Y-137.96
X182.8Y-138.91
X182.8Y-139.86
X183.1Y-98.6
X183.75Y-137.96
X183.75Y-138.91
X183.75Y-139.86
X183.9Y-181.45
X184.51Y-191.66
X184.58Y-196.73
X184.74Y-189.38
X184.9Y-195.55
X185.Y-180.25
X185.19Y-205.21
X185.9Y-90.6
X185.9Y-94.
X185.9Y-97.4
X185.9Y-101.6
X186.Y-191.65
X186.Y-196.75
X186.1Y-181.45
X186.89Y-89.43
X186.89Y-92.83
X186.89Y-96.23
X186.89Y-100.43
X187.8Y-90.6
X187.8Y-94.
X187.8Y-97.4
X187.8Y-101.6
X188.85Y-135.35
X189.08Y-205.03
X189.56Y-193.78
X189.7Y-133.95
X189.7Y-134.65
X189.7Y-135.35
X189.76Y-126.6
X189.76Y-127.6
X189.76Y-128.5
X189.8Y-207.85
X190.71Y-126.6
X190.71Y-127.6
X190.71Y-128.5
X190.75Y-147.35
X190.75Y-148.1
X190.75Y-148.85
X191.05Y-197.11
X191.52Y-190.4
X191.61Y-126.6
X191.61Y-127.6
X191.61Y-128.5
X191.64Y-193.42
X191.95Y-147.35
X191.95Y-148.1
X191.95Y-148.85
X192.02Y-201.12
X192.25Y-209.63
X192.52Y-126.62
X192.52Y-127.62
X192.52Y-128.52
X192.7Y-138.66
X192.7Y-139.36
X192.7Y-140.06
X192.74Y-207.75
X193.4Y-138.66
X193.4Y-139.36
X193.4Y-140.06
X193.42Y-126.62
X193.42Y-127.62
X193.42Y-128.52
X194.1Y-118.85
X194.1Y-138.66
X194.1Y-139.36
X194.1Y-140.06
X194.32Y-126.62
X194.32Y-127.62
X194.32Y-128.52
X194.63Y-124.2
X194.63Y-125.65
X195.Y-155.25
X195.Y-156.
X195.Y-156.75
X195.22Y-126.62
X195.22Y-127.62
X195.22Y-128.52
X195.5Y-118.85
X195.95Y-120.35
X195.95Y-121.75
X196.Y-157.7
X196.Y-158.4
X196.Y-159.1
X196.01Y-208.11
X196.1Y-155.25
X196.1Y-156.
X196.1Y-156.75
X196.12Y-126.62
X196.12Y-127.62
X196.12Y-128.52
X197.3Y-117.15
X197.3Y-118.
X197.3Y-118.85
X197.7Y-121.15
X198.3Y-122.7
X198.7Y-117.15
X198.7Y-118.
X198.7Y-118.85
X198.95Y-121.15
X199.31Y-207.92
X199.4Y-115.6
X199.6Y-122.7
X200.22Y-130.83
X200.25Y-121.15
X200.25Y-181.55
X200.25Y-182.75
X200.25Y-183.75
X200.25Y-184.6
X200.3Y-115.6
X200.7Y-182.15
X200.85Y-122.7
X201.15Y-115.6
X201.15Y-181.55
X201.15Y-182.75
X201.15Y-183.75
X201.15Y-184.6
X201.5Y-121.15
X201.85Y-207.8
X202.Y-114.85
X202.Y-115.6
X202.1Y-184.6
X202.85Y-114.85
X202.85Y-115.6
X202.85Y-117.1
X202.85Y-118.55
X202.85Y-119.95
X203.05Y-184.6
X203.65Y-117.75
X203.65Y-120.6
X203.7Y-114.85
X204.12Y-207.75
X204.5Y-117.75
X204.5Y-120.6
X206.5Y-207.85
X208.18Y-207.66
X208.9Y-143.65
X208.9Y-146.35
X209.13Y-207.66
X210.Y-145.15
X210.Y-202.35
X210.52Y-147.86
X211.1Y-143.65
X211.1Y-146.35
X212.2Y-202.35
X212.29Y-207.77
X212.5Y-129.5
X212.5Y-130.8
X212.5Y-132.1
X212.5Y-133.4
X212.5Y-134.7
X212.5Y-136.
X212.54Y-147.8
X212.55Y-145.14
X213.41Y-94.44
X213.8Y-129.5
X213.8Y-130.8
X213.8Y-132.1
X213.8Y-133.4
X213.8Y-134.7
X213.8Y-136.
X214.1Y-202.35
X214.2Y-115.75
X214.2Y-117.05
X214.8Y-111.15
X215.1Y-129.5
X215.1Y-130.8
X215.1Y-132.1
X215.1Y-133.4
X215.1Y-134.7
X215.1Y-136.
X215.9Y-109.95
X215.9Y-112.85
X216.3Y-202.35
X216.4Y-129.5
X216.4Y-130.8
X216.4Y-132.1
X216.4Y-133.4
X216.4Y-134.7
X216.4Y-136.
X217.Y-111.15
X217.Y-114.05
X217.2Y-116.75
X217.7Y-129.5
X217.7Y-130.8
X217.7Y-132.1
X217.7Y-133.4
X217.7Y-134.7
X217.7Y-136.
X217.99Y-112.88
X218.16Y-94.45
X218.6Y-155.05
X218.6Y-156.45
X218.6Y-157.55
X218.8Y-202.35
X218.9Y-111.15
X218.9Y-114.05
X218.95Y-117.95
X219.Y-129.5
X219.Y-130.8
X219.Y-132.1
X219.Y-133.4
X219.Y-134.7
X219.Y-136.
X219.94Y-116.78
X220.Y-109.95
X220.Y-112.85
X220.85Y-117.95
X221.Y-202.35
X221.1Y-114.05
X221.61Y-123.7
X221.8Y-126.25
X222.9Y-202.35
X222.94Y-126.95
X223.1Y-117.95
X223.7Y-114.05
X224.Y-126.25
X224.Y-129.35
X225.14Y-130.05
X226.3Y-120.85
X228.4Y-183.45
X228.4Y-184.35
X228.4Y-185.55
X228.4Y-186.45
X228.4Y-187.35
X228.4Y-188.25
X228.4Y-189.05
X229.3Y-183.45
X229.3Y-184.35
X229.3Y-185.55
X229.3Y-186.45
X229.3Y-187.35
X229.3Y-188.25
X229.3Y-189.05
X230.2Y-183.45
X230.2Y-184.35
X230.2Y-185.55
X230.2Y-186.45
X230.2Y-187.35
X230.2Y-188.25
X230.2Y-189.05
X231.1Y-183.45
X231.1Y-184.35
X231.1Y-185.55
X231.1Y-186.45
X231.1Y-187.35
X231.1Y-188.25
X231.1Y-189.05
X232.Y-118.55
X232.Y-183.45
X232.Y-184.35
X232.Y-185.55
X232.Y-186.45
X232.Y-187.35
X232.Y-188.25
X232.Y-189.05
X232.9Y-183.45
X232.9Y-184.35
X232.9Y-185.55
X232.9Y-186.45
X232.9Y-187.35
X232.9Y-188.25
X232.9Y-189.05
X233.7Y-118.55
X233.7Y-122.05
X233.8Y-183.45
X233.8Y-184.35
X233.8Y-185.55
X233.8Y-186.45
X233.8Y-187.35
X233.8Y-188.25
X233.8Y-189.05
X234.29Y-199.26
X234.42Y-110.88
X234.42Y-113.58
X234.67Y-206.12
X235.1Y-197.15
X236.8Y-118.55
X236.8Y-120.15
X236.8Y-122.05
X236.82Y-110.88
X236.82Y-113.58
X237.3Y-197.15
X239.1Y-118.55
X239.1Y-120.15
X239.12Y-110.88
X239.12Y-113.58
X243.2Y-195.15
X243.2Y-198.45
X243.2Y-202.15
X244.Y-144.65
X244.3Y-200.95
X245.28Y-205.13
X248.Y-195.15
X248.Y-198.45
X248.Y-202.15
X250.97Y-181.7
X252.27Y-141.7
X252.7Y-140.75
X252.9Y-109.65
X252.9Y-112.05
X253.675Y-116.75
X254.9Y-187.35
X255.Y-116.75
X255.Y-120.05
X255.Y-121.65
X255.Y-124.85
X255.Y-128.15
X255.Y-131.75
X255.Y-133.85
X255.Y-135.75
X255.2Y-114.55
X256.6Y-187.35
X258.Y-109.55
X258.Y-111.95
X258.2Y-140.75
X258.36Y-107.53
X259.25Y-96.2
X259.25Y-97.15
X259.25Y-98.05
X259.8Y-138.9
X260.Y-106.5
X260.Y-107.5
X260.Y-108.5
X260.Y-109.5
X260.Y-110.5
X260.Y-111.5
X260.1Y-96.2
X260.1Y-97.15
X260.1Y-98.05
X260.95Y-96.2
X260.95Y-97.15
X260.95Y-98.05
X261.Y-106.5
X261.Y-107.5
X261.Y-108.5
X261.Y-109.5
X261.Y-110.5
X261.Y-111.5
X261.35Y-172.55
X261.8Y-96.2
X261.8Y-97.15
X261.8Y-98.05
X262.Y-106.5
X262.Y-107.5
X262.Y-108.5
X262.Y-109.5
X262.Y-110.5
X262.Y-111.5
X262.Y-112.5
X262.36Y-114.25
X262.65Y-96.2
X262.65Y-97.15
X262.65Y-98.05
X263.Y-106.5
X263.Y-107.5
X263.Y-108.5
X263.Y-109.5
X263.Y-110.5
X263.Y-111.5
X263.Y-112.5
X263.Y-173.05
X263.55Y-96.2
X263.55Y-97.15
X263.55Y-98.05
X263.71Y-206.61
X264.Y-106.5
X264.Y-107.5
X264.Y-108.5
X264.Y-109.5
X264.Y-110.5
X264.Y-111.5
X264.Y-112.5
X264.4Y-96.2
X264.4Y-97.15
X264.4Y-98.05
X265.Y-106.5
X265.Y-107.5
X265.Y-108.5
X265.Y-109.5
X265.Y-110.5
X265.Y-111.5
X265.Y-112.5
X265.25Y-96.2
X265.25Y-97.15
X265.25Y-98.05
X265.35Y-171.45
X265.7Y-163.85
X265.7Y-164.55
X266.Y-106.5
X266.Y-107.5
X266.Y-108.5
X266.Y-109.5
X266.Y-110.5
X266.Y-111.5
X266.Y-112.5
X266.8Y-163.4
X267.Y-106.5
X267.Y-107.5
X267.Y-108.5
X267.Y-109.5
X267.Y-110.5
X267.Y-111.5
X267.Y-112.5
X267.Y-147.85
X267.Y-150.
X267.Y-152.2
X267.6Y-116.65
X267.85Y-162.3
X268.Y-106.5
X268.Y-107.5
X268.Y-108.5
X268.Y-109.5
X268.Y-110.5
X268.Y-111.5
X268.Y-112.5
X268.65Y-166.
X268.9Y-161.35
X269.Y-106.5
X269.Y-107.5
X269.Y-108.5
X269.Y-109.5
X269.Y-110.5
X269.Y-111.5
X269.Y-112.5
X269.6Y-116.65
X269.9Y-118.29
X269.95Y-160.35
X270.Y-106.5
X270.Y-107.5
X270.Y-108.5
X270.Y-109.5
X270.Y-110.5
X270.Y-111.5
X270.Y-112.5
X270.65Y-163.9
X270.65Y-168.3
X271.Y-106.5
X271.Y-107.5
X271.Y-108.5
X271.Y-109.5
X271.Y-110.5
X271.Y-111.5
X271.Y-112.5
X271.27Y-118.25
X271.3Y-116.65
X272.Y-106.5
X272.Y-107.5
X272.Y-108.5
X272.Y-109.5
X272.Y-110.5
X272.Y-111.5
X272.Y-112.5
X272.05Y-162.5
X272.75Y-168.3
X273.2Y-157.95
X273.79Y-119.1
X275.1Y-149.8
X275.1Y-150.6
X276.15Y-168.3
X276.9Y-169.95
X278.Y-205.35
X278.92Y-201.83
X279.05Y-150.95
X279.05Y-157.15
X279.05Y-158.5
X279.1Y-169.95
X279.1Y-199.75
X279.1Y-204.15
X280.2Y-200.95
X280.2Y-205.35
X280.3Y-156.55
X280.3Y-158.5
X280.6Y-198.35
X281.5Y-97.95
X281.5Y-169.95
X281.7Y-197.15
X282.6Y-96.75
X282.8Y-198.35
X283.4Y-200.95
X283.6Y-181.15
X283.7Y-97.95
X284.5Y-199.75
X284.7Y-179.95
X285.6Y-200.95
X285.8Y-181.15
X286.4Y-105.85
X286.4Y-110.35
X286.4Y-113.75
X286.4Y-118.25
X286.4Y-121.65
X286.4Y-126.15
X286.4Y-129.55
X286.4Y-134.05
X286.4Y-137.45
X286.4Y-141.95
X286.4Y-145.35
X286.4Y-149.85
X286.4Y-153.25
X286.4Y-157.75
X286.4Y-161.15
X286.4Y-165.65
X286.4Y-169.05
T3
X217.7Y-208.4
X219.7Y-208.4
X221.7Y-208.4
X223.7Y-208.4
X225.7Y-208.4
X227.7Y-208.4
T5
X282.2Y-185.12
X282.2Y-187.66
X282.2Y-190.2
X282.2Y-192.74
X282.2Y-195.28
T6
X274.531Y-90.199
X277.071Y-90.199
T7
X253.85Y-198.
X253.85Y-200.
X253.85Y-202.
X253.85Y-204.
X267.4Y-198.
X267.4Y-200.
X267.4Y-202.
X267.4Y-204.
T8
X194.6Y-189.125
X194.6Y-191.155
X194.6Y-193.185
X194.6Y-195.215
X194.6Y-197.245
X194.6Y-199.275
X197.14Y-188.11
X197.14Y-190.14
X197.14Y-192.17
X197.14Y-196.23
X197.14Y-198.26
X197.14Y-200.29
T9
X179.11Y-186.68
X179.11Y-201.72
X181.65Y-186.68
X181.65Y-201.72
X184.19Y-186.68
T10
X180.05Y-161.45
X180.05Y-177.15
X184.95Y-162.05
X184.95Y-176.55
T11
X188.Y-185.4
X188.Y-203.
T12
X250.95Y-197.5
X250.95Y-204.5
X256.75Y-197.5
X256.75Y-204.5
X264.5Y-197.5
X264.5Y-204.5
X270.3Y-197.5
X270.3Y-204.5
T13
X186.06Y-108.05
X186.06Y-112.8
X186.06Y-117.55
T15
X195.95Y-102.19
T16
X281.4Y-103.21
X281.4Y-165.59
T17
X180.9Y-91.8
X180.9Y-209.
X283.8Y-91.8
X283.8Y-209.
T18
X216.54Y-105.49
X216.54Y-145.49
X254.74Y-105.49
X254.74Y-145.49
T19
X188.Y-189.375
X188.Y-199.025
T4
X190.Y-90.89G85X190.Y-92.09
G05
X190.Y-96.09G85X190.Y-97.29
G05
X195.25Y-95.54G85X196.65Y-95.54
G05
X201.9Y-90.89G85X201.9Y-92.09
G05
X201.9Y-96.09G85X201.9Y-97.29
G05
T14
X187.75Y-104.G85X179.25Y-104.
G05
X187.75Y-121.6G85X179.25Y-121.6
G05
T0
M30
