G04 (created by PCBNEW (2013-07-07 BZR 4022)-stable) date 10/02/2015 04:29:17*
%MOIN*%
G04 Gerber Fmt 3.4, Leading zero omitted, Abs format*
%FSLAX34Y34*%
G01*
G70*
G90*
G04 APERTURE LIST*
%ADD10C,0.00590551*%
%ADD11C,0.019685*%
%ADD12R,0.0597X0.0597*%
%ADD13C,0.0597*%
%ADD14C,0.23622*%
%ADD15C,0.0787402*%
%ADD16C,0.216535*%
%ADD17C,0.0708661*%
%ADD18C,0.0590551*%
%ADD19C,0.0984252*%
%ADD20C,0.145669*%
%ADD21C,0.0393701*%
%ADD22C,0.0944882*%
%ADD23C,0.0551181*%
%ADD24C,0.015748*%
%ADD25C,0.19685*%
%ADD26O,0.401575X0.0669291*%
%ADD27O,0.0590551X0.110236*%
%ADD28O,0.11811X0.0590551*%
%ADD29C,0.11811*%
%ADD30C,0.011811*%
%ADD31C,0.00787402*%
%ADD32C,0.00393701*%
G04 APERTURE END LIST*
G54D10*
G54D11*
X71889Y-46692D03*
X71531Y-46232D03*
X71141Y-46692D03*
X71141Y-44566D03*
X71531Y-44106D03*
X71889Y-44566D03*
X71889Y-42480D03*
X71531Y-42019D03*
X71141Y-42480D03*
X71338Y-38818D03*
X71728Y-38358D03*
X72086Y-38818D03*
X73937Y-40000D03*
X73578Y-39539D03*
X73188Y-40000D03*
X73188Y-35669D03*
X73578Y-35208D03*
X73937Y-35669D03*
X73937Y-37007D03*
X73578Y-36547D03*
X73188Y-37007D03*
X73188Y-38346D03*
X73578Y-37885D03*
X73937Y-38346D03*
X104094Y-38602D03*
X104094Y-37874D03*
X104094Y-38248D03*
X103759Y-38248D03*
X103759Y-37874D03*
X103759Y-38602D03*
X103405Y-38602D03*
X103405Y-37874D03*
X103405Y-38248D03*
X103070Y-38248D03*
X103070Y-37874D03*
X103070Y-38602D03*
X105118Y-59055D03*
X105118Y-58208D03*
X105118Y-59921D03*
X107559Y-62185D03*
X88188Y-50925D03*
X88637Y-51200D03*
X93236Y-43653D03*
X92291Y-43653D03*
X94141Y-43653D03*
X94141Y-44716D03*
X94133Y-46673D03*
X94133Y-47303D03*
X92291Y-44716D03*
X84019Y-37181D03*
X85889Y-37185D03*
X79074Y-48307D03*
X78582Y-48307D03*
X78070Y-48307D03*
X77212Y-49850D03*
X77212Y-50598D03*
X77212Y-50244D03*
X76858Y-50244D03*
X76858Y-50598D03*
X76858Y-49850D03*
X76503Y-49850D03*
X76503Y-50598D03*
X76503Y-50244D03*
X75082Y-50236D03*
X75082Y-50590D03*
X75082Y-49842D03*
X74708Y-50236D03*
X74708Y-50590D03*
X74708Y-49842D03*
X75866Y-54866D03*
X76417Y-54866D03*
X76141Y-54866D03*
X76141Y-55141D03*
X76141Y-54590D03*
X76417Y-54590D03*
X76417Y-55141D03*
X75866Y-55141D03*
X71968Y-54688D03*
X71968Y-54314D03*
X71968Y-55062D03*
X72342Y-55062D03*
X72342Y-54314D03*
X72342Y-54688D03*
X75570Y-58307D03*
X75098Y-58307D03*
X77165Y-62637D03*
X106279Y-63129D03*
X105039Y-64330D03*
X79527Y-45216D03*
X80196Y-45216D03*
X79862Y-45216D03*
X79192Y-45511D03*
X79527Y-45511D03*
X78858Y-45511D03*
X78503Y-45511D03*
X77677Y-46456D03*
X78228Y-46456D03*
X78228Y-46791D03*
X77677Y-46791D03*
X84330Y-45570D03*
X78826Y-51507D03*
X79330Y-47696D03*
X78838Y-47696D03*
X78326Y-47696D03*
X77834Y-47696D03*
X76625Y-48897D03*
X77145Y-47933D03*
X77145Y-47381D03*
X77677Y-46122D03*
X78228Y-46122D03*
X76968Y-46791D03*
X79862Y-46673D03*
X86200Y-46437D03*
X86590Y-45976D03*
X86948Y-46437D03*
X85511Y-45964D03*
X84330Y-46082D03*
X80511Y-46358D03*
X80177Y-46358D03*
X80177Y-47480D03*
X80511Y-47480D03*
X74350Y-53287D03*
X74685Y-53011D03*
X74685Y-52736D03*
X74685Y-53287D03*
X75437Y-49842D03*
X75437Y-50590D03*
X75437Y-50236D03*
X98807Y-71535D03*
X104606Y-64507D03*
X105866Y-63523D03*
X105452Y-63897D03*
X107106Y-63976D03*
X104606Y-64783D03*
X106555Y-64527D03*
X105767Y-65354D03*
X106555Y-66259D03*
X103149Y-41929D03*
X103149Y-42322D03*
X103149Y-42716D03*
X103149Y-43503D03*
X103149Y-43110D03*
X103149Y-43897D03*
X103149Y-44291D03*
X102755Y-43897D03*
X102362Y-43897D03*
X102755Y-43110D03*
X102362Y-43110D03*
X102362Y-43503D03*
X102755Y-43503D03*
X102755Y-42716D03*
X102362Y-42716D03*
X102362Y-42322D03*
X102755Y-42322D03*
X102755Y-41929D03*
X102362Y-41929D03*
X103543Y-41929D03*
X103937Y-41929D03*
X103937Y-42322D03*
X103543Y-42322D03*
X103543Y-42716D03*
X103937Y-42716D03*
X103937Y-43503D03*
X103543Y-43503D03*
X103543Y-43110D03*
X103937Y-43110D03*
X103543Y-43897D03*
X103937Y-43897D03*
X103937Y-44291D03*
X103543Y-44291D03*
X107791Y-46889D03*
X101716Y-42334D03*
X106811Y-45925D03*
X106259Y-46570D03*
X93228Y-47303D03*
X93228Y-46673D03*
X93228Y-48051D03*
X92007Y-48051D03*
X100354Y-73759D03*
X101023Y-73759D03*
X97637Y-79586D03*
X97637Y-78129D03*
X97637Y-76830D03*
X95748Y-76830D03*
X95748Y-78129D03*
X93425Y-77618D03*
X92559Y-77618D03*
X92240Y-78448D03*
X92389Y-81149D03*
X96566Y-80759D03*
X95748Y-79586D03*
X96181Y-79114D03*
X74629Y-76291D03*
X75216Y-77602D03*
X75401Y-74960D03*
X87755Y-79665D03*
X87007Y-79665D03*
X86141Y-79665D03*
X82677Y-79665D03*
X83543Y-79665D03*
X85157Y-79665D03*
X84291Y-79665D03*
X79940Y-72677D03*
X79566Y-72677D03*
X78838Y-72677D03*
X79192Y-72677D03*
X109862Y-59429D03*
X110354Y-62401D03*
X110354Y-61633D03*
X109862Y-61870D03*
X109862Y-62401D03*
X108720Y-66259D03*
X107381Y-66259D03*
X104468Y-67500D03*
X103543Y-68129D03*
X102893Y-67933D03*
X99872Y-45964D03*
X81960Y-81755D03*
X81299Y-81830D03*
X83578Y-81799D03*
X82334Y-81755D03*
X102066Y-38602D03*
X102066Y-37874D03*
X102066Y-38248D03*
X102401Y-38248D03*
X102401Y-37874D03*
X102401Y-38602D03*
X102736Y-38602D03*
X102736Y-37874D03*
X102736Y-38248D03*
X104429Y-38248D03*
X104429Y-37874D03*
X104429Y-38602D03*
X103291Y-44980D03*
X106799Y-46555D03*
X83110Y-57618D03*
X82244Y-57618D03*
X82677Y-57145D03*
X103822Y-81342D03*
X93236Y-44716D03*
X86614Y-44429D03*
X86181Y-44901D03*
X87047Y-44901D03*
X85822Y-44440D03*
X86181Y-43759D03*
X86614Y-43287D03*
X87771Y-49980D03*
X85000Y-43287D03*
X84566Y-43759D03*
X85433Y-43759D03*
X85433Y-44901D03*
X85000Y-44429D03*
X86062Y-62027D03*
X86062Y-61043D03*
X86062Y-61594D03*
X82244Y-56555D03*
X83110Y-56555D03*
X83677Y-58188D03*
X83681Y-57141D03*
X82881Y-58212D03*
X88070Y-44901D03*
X92007Y-46673D03*
X91338Y-46673D03*
X87834Y-46437D03*
X89094Y-47578D03*
X87248Y-48700D03*
X88188Y-49704D03*
X87322Y-49704D03*
X96062Y-56948D03*
X99318Y-55787D03*
X101653Y-55413D03*
X102283Y-54685D03*
X99488Y-55413D03*
X100393Y-53444D03*
X100393Y-52696D03*
X100393Y-51870D03*
X100393Y-50452D03*
X100393Y-49153D03*
X100393Y-47893D03*
X100393Y-47263D03*
X100393Y-45964D03*
X100472Y-45098D03*
X106141Y-45925D03*
X105354Y-45925D03*
X99566Y-43169D03*
X99566Y-44114D03*
X101574Y-43129D03*
X101574Y-44074D03*
X111259Y-38090D03*
X110826Y-38562D03*
X111692Y-38562D03*
X112755Y-52775D03*
X112755Y-51003D03*
X112755Y-47893D03*
X112755Y-49665D03*
X112755Y-43444D03*
X112755Y-41673D03*
X112755Y-44783D03*
X112755Y-46555D03*
X112755Y-58996D03*
X112755Y-57224D03*
X112755Y-54114D03*
X112755Y-55885D03*
X112755Y-62106D03*
X112755Y-60334D03*
X112755Y-63444D03*
X112755Y-65216D03*
X112755Y-66555D03*
X110826Y-66909D03*
X109015Y-66909D03*
X109881Y-66909D03*
X112086Y-70846D03*
X111653Y-71318D03*
X112519Y-71318D03*
X111338Y-78090D03*
X110472Y-78090D03*
X110905Y-77618D03*
X112007Y-78641D03*
X111574Y-79114D03*
X112440Y-79114D03*
X110314Y-79114D03*
X109811Y-79460D03*
X109881Y-78641D03*
X109881Y-80374D03*
X109448Y-80846D03*
X110314Y-80846D03*
X79192Y-72342D03*
X78838Y-72342D03*
X75881Y-81791D03*
X75688Y-82531D03*
X77169Y-81933D03*
X74440Y-80720D03*
X72909Y-80791D03*
X74724Y-81830D03*
X72795Y-76988D03*
X72669Y-77452D03*
X73228Y-77460D03*
X71000Y-78023D03*
X70748Y-77460D03*
X71181Y-76988D03*
X71181Y-74980D03*
X70748Y-75452D03*
X71566Y-74507D03*
X73228Y-75452D03*
X72641Y-75456D03*
X72732Y-74559D03*
X72834Y-70964D03*
X72401Y-71437D03*
X73267Y-71437D03*
X71653Y-71437D03*
X70787Y-71437D03*
X71220Y-70964D03*
X71181Y-68326D03*
X70748Y-68799D03*
X71614Y-68799D03*
X80362Y-81791D03*
X78468Y-81858D03*
X79468Y-81811D03*
X75598Y-79181D03*
X75448Y-76149D03*
X76625Y-49468D03*
X75570Y-58602D03*
X75098Y-58602D03*
X79862Y-47224D03*
X79862Y-45511D03*
X79862Y-46102D03*
X76417Y-46791D03*
X75570Y-58011D03*
X75098Y-58011D03*
X92047Y-74429D03*
X91692Y-74429D03*
X90984Y-74429D03*
X91338Y-74429D03*
X90629Y-74429D03*
X90275Y-74429D03*
X89921Y-74429D03*
X89921Y-74114D03*
X90275Y-74114D03*
X90629Y-74114D03*
X91338Y-74114D03*
X90984Y-74114D03*
X91692Y-74114D03*
X92047Y-74114D03*
X92047Y-73759D03*
X91692Y-73759D03*
X90984Y-73759D03*
X91338Y-73759D03*
X90629Y-73759D03*
X90275Y-73759D03*
X89921Y-73759D03*
X89921Y-73051D03*
X90275Y-73051D03*
X90629Y-73051D03*
X91338Y-73051D03*
X90984Y-73051D03*
X91692Y-73051D03*
X92047Y-73051D03*
X92047Y-73405D03*
X91692Y-73405D03*
X90984Y-73405D03*
X91338Y-73405D03*
X90629Y-73405D03*
X90275Y-73405D03*
X89921Y-73405D03*
X89921Y-72578D03*
X90275Y-72578D03*
X90629Y-72578D03*
X91338Y-72578D03*
X90984Y-72578D03*
X91692Y-72578D03*
X92047Y-72578D03*
X92047Y-72224D03*
X91692Y-72224D03*
X90984Y-72224D03*
X91338Y-72224D03*
X90629Y-72224D03*
X90275Y-72224D03*
X89921Y-72224D03*
X77165Y-62362D03*
X77165Y-62086D03*
X77204Y-61417D03*
X76771Y-61417D03*
X76771Y-61712D03*
X77204Y-61712D03*
X77204Y-61122D03*
X76771Y-61122D03*
X71594Y-54688D03*
X71594Y-54314D03*
X71594Y-55062D03*
X76149Y-50244D03*
X75795Y-50244D03*
X75795Y-50598D03*
X76149Y-50598D03*
X75795Y-49850D03*
X76149Y-49850D03*
X75866Y-54590D03*
X108307Y-58976D03*
X108307Y-59291D03*
X104330Y-44291D03*
X104724Y-44291D03*
X105511Y-44291D03*
X105118Y-44291D03*
X105905Y-44291D03*
X106299Y-44291D03*
X106692Y-44291D03*
X107086Y-44291D03*
X107086Y-43897D03*
X106692Y-43897D03*
X106299Y-43897D03*
X105905Y-43897D03*
X105118Y-43897D03*
X105511Y-43897D03*
X104724Y-43897D03*
X104330Y-43897D03*
X107086Y-43110D03*
X106692Y-43110D03*
X106299Y-43110D03*
X105905Y-43110D03*
X105118Y-43110D03*
X105511Y-43110D03*
X104724Y-43110D03*
X104330Y-43110D03*
X104330Y-43503D03*
X104724Y-43503D03*
X105511Y-43503D03*
X105118Y-43503D03*
X105905Y-43503D03*
X106299Y-43503D03*
X106692Y-43503D03*
X107086Y-43503D03*
X107086Y-42716D03*
X106692Y-42716D03*
X106299Y-42716D03*
X105905Y-42716D03*
X105118Y-42716D03*
X105511Y-42716D03*
X104724Y-42716D03*
X104330Y-42716D03*
X104330Y-42322D03*
X104724Y-42322D03*
X105511Y-42322D03*
X105118Y-42322D03*
X105905Y-42322D03*
X106299Y-42322D03*
X106692Y-42322D03*
X107086Y-42322D03*
X107086Y-41929D03*
X106692Y-41929D03*
X106299Y-41929D03*
X105905Y-41929D03*
X105118Y-41929D03*
X105511Y-41929D03*
X104724Y-41929D03*
G54D12*
X108083Y-35511D03*
G54D13*
X109083Y-35511D03*
G54D14*
X111732Y-82283D03*
X111732Y-36141D03*
X71220Y-36141D03*
X71220Y-82283D03*
G54D11*
X104330Y-41929D03*
G54D15*
X70885Y-63562D03*
X72814Y-63799D03*
X72814Y-69507D03*
X70885Y-69744D03*
G54D11*
X78838Y-71948D03*
X78838Y-71476D03*
X79192Y-71476D03*
X79192Y-71948D03*
X79015Y-71712D03*
X83661Y-53543D03*
X83661Y-53031D03*
X83661Y-52007D03*
X83661Y-52519D03*
X83661Y-51496D03*
X83661Y-50984D03*
X84173Y-51496D03*
X84173Y-52519D03*
X84173Y-52007D03*
X84173Y-53031D03*
X84173Y-53543D03*
X84173Y-50984D03*
X84685Y-53543D03*
X84685Y-53031D03*
X84685Y-52007D03*
X84685Y-52519D03*
X84685Y-51496D03*
X84685Y-50984D03*
X85196Y-51496D03*
X85196Y-52519D03*
X85196Y-52007D03*
X85196Y-53031D03*
X85196Y-53543D03*
X85196Y-50984D03*
X85708Y-53543D03*
X85708Y-53031D03*
X85708Y-52007D03*
X85708Y-52519D03*
X85708Y-51496D03*
X85708Y-50984D03*
X86220Y-50984D03*
X86220Y-51496D03*
X86220Y-52007D03*
X86220Y-53543D03*
X86220Y-53031D03*
X86220Y-52519D03*
G54D16*
X100291Y-41531D03*
X85251Y-41531D03*
X100291Y-57279D03*
X85251Y-57279D03*
G54D17*
X71515Y-79417D03*
X70515Y-79417D03*
X72515Y-73496D03*
X71515Y-73496D03*
G54D18*
X77614Y-78854D03*
X77614Y-78055D03*
X77614Y-77255D03*
X77614Y-75657D03*
X77614Y-74858D03*
X77614Y-74059D03*
X76614Y-78454D03*
X76614Y-77655D03*
X76614Y-76856D03*
X76614Y-74458D03*
X76614Y-75257D03*
G54D19*
X74015Y-79921D03*
G54D20*
X74015Y-78356D03*
X74015Y-74557D03*
G54D19*
X74015Y-72992D03*
G54D18*
X76614Y-76057D03*
G54D17*
X70515Y-73496D03*
G54D21*
X111102Y-72881D03*
X111102Y-73881D03*
X111102Y-74881D03*
X111102Y-75881D03*
X111102Y-76881D03*
G54D22*
X106417Y-77755D03*
X104133Y-77755D03*
X106417Y-80511D03*
X104133Y-80511D03*
G54D23*
X105275Y-77952D03*
X105275Y-78740D03*
X105275Y-79527D03*
X105275Y-80314D03*
G54D22*
X101082Y-77755D03*
X98799Y-77755D03*
X101082Y-80511D03*
X98799Y-80511D03*
G54D23*
X99940Y-77952D03*
X99940Y-78740D03*
X99940Y-79527D03*
X99940Y-80314D03*
G54D24*
X98326Y-61909D03*
X98326Y-62303D03*
X98326Y-62696D03*
X98326Y-63090D03*
X98326Y-63484D03*
X98326Y-63877D03*
X98326Y-64271D03*
X98326Y-64665D03*
X98326Y-65059D03*
X98326Y-65452D03*
X98326Y-65846D03*
X98326Y-66240D03*
X98326Y-66633D03*
X98326Y-67027D03*
X98326Y-68996D03*
X98326Y-69389D03*
X98326Y-69783D03*
X98326Y-70177D03*
X97933Y-61909D03*
X97933Y-62303D03*
X97933Y-62696D03*
X97933Y-63090D03*
X97933Y-63484D03*
X97933Y-63877D03*
X97933Y-64271D03*
X97933Y-64665D03*
X97933Y-65059D03*
X97933Y-65452D03*
X97933Y-65846D03*
X97933Y-66240D03*
X97933Y-66633D03*
X97933Y-67027D03*
X97933Y-68996D03*
X97933Y-69389D03*
X97933Y-69783D03*
X97933Y-70177D03*
X97539Y-61909D03*
X97539Y-62303D03*
X97539Y-62696D03*
X97539Y-63090D03*
X97539Y-63484D03*
X97539Y-63877D03*
X97539Y-64271D03*
X97539Y-64665D03*
X97539Y-65059D03*
X97539Y-65452D03*
X97539Y-65846D03*
X97539Y-66240D03*
X97539Y-66633D03*
X97539Y-67027D03*
X97539Y-67421D03*
X97539Y-67814D03*
X97539Y-68208D03*
X97539Y-68602D03*
X97539Y-68996D03*
X97539Y-69389D03*
X97539Y-69783D03*
X97539Y-70177D03*
X97145Y-61909D03*
X97145Y-62303D03*
X97145Y-62696D03*
X97145Y-63090D03*
X97145Y-63484D03*
X97145Y-63877D03*
X97145Y-64271D03*
X97145Y-64665D03*
X97145Y-65059D03*
X97145Y-65452D03*
X97145Y-65846D03*
X97145Y-66240D03*
X97145Y-66633D03*
X97145Y-67027D03*
X97145Y-67421D03*
X97145Y-67814D03*
X97145Y-68208D03*
X97145Y-68602D03*
X97145Y-68996D03*
X97145Y-69389D03*
X97145Y-69783D03*
X97145Y-70177D03*
X96751Y-61909D03*
X96751Y-62303D03*
X96751Y-62696D03*
X96751Y-63090D03*
X96751Y-63484D03*
X96751Y-63877D03*
X96751Y-64271D03*
X96751Y-64665D03*
X96751Y-65059D03*
X96751Y-65452D03*
X96751Y-65846D03*
X96751Y-66240D03*
X96751Y-66633D03*
X96751Y-67027D03*
X96751Y-67421D03*
X96751Y-67814D03*
X96751Y-68208D03*
X96751Y-68602D03*
X96751Y-68996D03*
X96751Y-69389D03*
X96751Y-69783D03*
X96751Y-70177D03*
X96358Y-61909D03*
X96358Y-62303D03*
X96358Y-62696D03*
X96358Y-63090D03*
X96358Y-63484D03*
X96358Y-63877D03*
X96358Y-64271D03*
X96358Y-64665D03*
X96358Y-65059D03*
X96358Y-65452D03*
X96358Y-65846D03*
X96358Y-66240D03*
X96358Y-66633D03*
X96358Y-67027D03*
X96358Y-67421D03*
X96358Y-67814D03*
X96358Y-68208D03*
X96358Y-68602D03*
X96358Y-68996D03*
X96358Y-69389D03*
X96358Y-69783D03*
X96358Y-70177D03*
X95964Y-61909D03*
X95964Y-62303D03*
X95964Y-62696D03*
X95964Y-63090D03*
X95964Y-63484D03*
X95964Y-63877D03*
X95964Y-64271D03*
X95964Y-64665D03*
X95964Y-65059D03*
X95964Y-65452D03*
X95964Y-65846D03*
X95964Y-66240D03*
X95964Y-66633D03*
X95964Y-67027D03*
X95964Y-67421D03*
X95964Y-67814D03*
X95964Y-68208D03*
X95964Y-68602D03*
X95964Y-68996D03*
X95964Y-69389D03*
X95964Y-69783D03*
X95964Y-70177D03*
X95570Y-61909D03*
X95570Y-62303D03*
X95570Y-62696D03*
X95570Y-63090D03*
X95570Y-63484D03*
X95570Y-63877D03*
X95570Y-64271D03*
X95570Y-64665D03*
X95570Y-65059D03*
X95570Y-65452D03*
X95570Y-65846D03*
X95570Y-66240D03*
X95570Y-66633D03*
X95570Y-67027D03*
X95570Y-67421D03*
X95570Y-67814D03*
X95570Y-68208D03*
X95570Y-68602D03*
X95570Y-68996D03*
X95570Y-69389D03*
X95570Y-69783D03*
X95570Y-70177D03*
X95177Y-61909D03*
X95177Y-62303D03*
X95177Y-62696D03*
X95177Y-63090D03*
X95177Y-63484D03*
X95177Y-63877D03*
X95177Y-64271D03*
X95177Y-64665D03*
X95177Y-65059D03*
X95177Y-65452D03*
X95177Y-65846D03*
X95177Y-66240D03*
X95177Y-66633D03*
X95177Y-67421D03*
X95177Y-67814D03*
X95177Y-68208D03*
X95177Y-68602D03*
X95177Y-68996D03*
X95177Y-69389D03*
X95177Y-69783D03*
X95177Y-70177D03*
X94783Y-61909D03*
X94783Y-62303D03*
X94783Y-62696D03*
X94783Y-63090D03*
X94783Y-63484D03*
X94783Y-63877D03*
X94783Y-64271D03*
X94783Y-64665D03*
X94783Y-65059D03*
X94783Y-65452D03*
X94783Y-65846D03*
X94783Y-66240D03*
X94783Y-66633D03*
X94783Y-67027D03*
X94783Y-68208D03*
X94783Y-68602D03*
X94783Y-68996D03*
X94783Y-69389D03*
X94783Y-69783D03*
X94783Y-70177D03*
X94389Y-61909D03*
X94389Y-62303D03*
X94389Y-62696D03*
X94389Y-63090D03*
X94389Y-63484D03*
X94389Y-63877D03*
X94389Y-64271D03*
X94389Y-64665D03*
X94389Y-65059D03*
X94389Y-65452D03*
X94389Y-65846D03*
X94389Y-66240D03*
X94389Y-66633D03*
X94389Y-67027D03*
X94389Y-67421D03*
X94389Y-67814D03*
X94389Y-68208D03*
X94389Y-68602D03*
X94389Y-68996D03*
X94389Y-69389D03*
X94389Y-69783D03*
X94389Y-70177D03*
X93996Y-61909D03*
X93996Y-62303D03*
X93996Y-62696D03*
X93996Y-63090D03*
X93996Y-63484D03*
X93996Y-63877D03*
X93996Y-64271D03*
X93996Y-64665D03*
X93996Y-65059D03*
X93996Y-65452D03*
X93996Y-65846D03*
X93996Y-66240D03*
X93996Y-66633D03*
X93996Y-67027D03*
X93996Y-67814D03*
X93996Y-68208D03*
X93996Y-68602D03*
X93996Y-68996D03*
X93996Y-69389D03*
X93996Y-69783D03*
X93996Y-70177D03*
X93602Y-61909D03*
X93602Y-62303D03*
X93602Y-62696D03*
X93602Y-63090D03*
X93602Y-63484D03*
X93602Y-63877D03*
X93602Y-64271D03*
X93602Y-64665D03*
X93602Y-65059D03*
X93602Y-65452D03*
X93602Y-65846D03*
X93602Y-66240D03*
X93602Y-66633D03*
X93602Y-67027D03*
X93602Y-67421D03*
X93602Y-67814D03*
X93602Y-68208D03*
X93602Y-68602D03*
X93602Y-68996D03*
X93602Y-69389D03*
X93602Y-69783D03*
X93602Y-70177D03*
X93208Y-61909D03*
X93208Y-62303D03*
X93208Y-62696D03*
X93208Y-63090D03*
X93208Y-63484D03*
X93208Y-63877D03*
X93208Y-64271D03*
X93208Y-64665D03*
X93208Y-65059D03*
X93208Y-65452D03*
X93208Y-65846D03*
X93208Y-66240D03*
X93208Y-66633D03*
X93208Y-67027D03*
X93208Y-67421D03*
X93208Y-67814D03*
X93208Y-68208D03*
X93208Y-68602D03*
X93208Y-68996D03*
X93208Y-69389D03*
X93208Y-69783D03*
X93208Y-70177D03*
X92814Y-61909D03*
X92814Y-62303D03*
X92814Y-62696D03*
X92814Y-63090D03*
X92814Y-63484D03*
X92814Y-63877D03*
X92814Y-64271D03*
X92814Y-65059D03*
X92814Y-65452D03*
X92814Y-65846D03*
X92814Y-66240D03*
X92814Y-66633D03*
X92814Y-67027D03*
X92814Y-67421D03*
X92814Y-67814D03*
X92814Y-68208D03*
X92814Y-68602D03*
X92814Y-68996D03*
X92814Y-69389D03*
X92814Y-69783D03*
X92814Y-70177D03*
X92421Y-61909D03*
X92421Y-62303D03*
X92421Y-62696D03*
X92421Y-63090D03*
X92421Y-63484D03*
X92421Y-63877D03*
X92421Y-64271D03*
X92421Y-64665D03*
X92421Y-65059D03*
X92421Y-65452D03*
X92421Y-65846D03*
X92421Y-66240D03*
X92421Y-66633D03*
X92421Y-67027D03*
X92421Y-67421D03*
X92421Y-67814D03*
X92421Y-68208D03*
X92421Y-68602D03*
X92421Y-68996D03*
X92421Y-69389D03*
X92421Y-69783D03*
X92421Y-70177D03*
X92027Y-61909D03*
X92027Y-62303D03*
X92027Y-62696D03*
X92027Y-63090D03*
X92027Y-63484D03*
X92027Y-63877D03*
X92027Y-64271D03*
X92027Y-64665D03*
X92027Y-65059D03*
X92027Y-65452D03*
X92027Y-65846D03*
X92027Y-66240D03*
X92027Y-66633D03*
X92027Y-67027D03*
X92027Y-67421D03*
X92027Y-67814D03*
X92027Y-68208D03*
X92027Y-68602D03*
X92027Y-68996D03*
X92027Y-69389D03*
X92027Y-69783D03*
X92027Y-70177D03*
X91633Y-61909D03*
X91633Y-62303D03*
X91633Y-62696D03*
X91633Y-63090D03*
X91633Y-63484D03*
X91633Y-63877D03*
X91633Y-64271D03*
X91633Y-64665D03*
X91633Y-65059D03*
X91633Y-65452D03*
X91633Y-65846D03*
X91633Y-66240D03*
X91633Y-66633D03*
X91633Y-67027D03*
X91633Y-67421D03*
X91633Y-67814D03*
X91633Y-68208D03*
X91633Y-68602D03*
X91633Y-68996D03*
X91633Y-69389D03*
X91633Y-69783D03*
X91633Y-70177D03*
X91240Y-61909D03*
X91240Y-62303D03*
X91240Y-62696D03*
X91240Y-63090D03*
X91240Y-63484D03*
X91240Y-63877D03*
X91240Y-64271D03*
X91240Y-64665D03*
X91240Y-65059D03*
X91240Y-65452D03*
X91240Y-65846D03*
X91240Y-66240D03*
X91240Y-66633D03*
X91240Y-67027D03*
X91240Y-67421D03*
X91240Y-67814D03*
X91240Y-68208D03*
X91240Y-68602D03*
X91240Y-68996D03*
X91240Y-69389D03*
X91240Y-69783D03*
X91240Y-70177D03*
X90846Y-61909D03*
X90846Y-62303D03*
X90846Y-62696D03*
X90846Y-63090D03*
X90846Y-63484D03*
X90846Y-63877D03*
X90846Y-64271D03*
X90846Y-64665D03*
X90846Y-65059D03*
X90846Y-65452D03*
X90846Y-65846D03*
X90846Y-66240D03*
X90846Y-66633D03*
X90846Y-67027D03*
X90846Y-67421D03*
X90846Y-67814D03*
X90846Y-68208D03*
X90846Y-68602D03*
X90846Y-68996D03*
X90846Y-69389D03*
X90846Y-69783D03*
X90846Y-70177D03*
X90452Y-61909D03*
X90452Y-62303D03*
X90452Y-62696D03*
X90452Y-63090D03*
X90452Y-63484D03*
X90452Y-63877D03*
X90452Y-64271D03*
X90452Y-64665D03*
X90452Y-65059D03*
X90452Y-65452D03*
X90452Y-65846D03*
X90452Y-66240D03*
X90452Y-66633D03*
X90452Y-67027D03*
X90452Y-67421D03*
X90452Y-67814D03*
X90452Y-68208D03*
X90452Y-68602D03*
X90452Y-68996D03*
X90452Y-69389D03*
X90452Y-69783D03*
X90452Y-70177D03*
X90059Y-61909D03*
X90059Y-62303D03*
X90059Y-62696D03*
X90059Y-63090D03*
X90059Y-63484D03*
X90059Y-63877D03*
X90059Y-64271D03*
X90059Y-64665D03*
X90059Y-65059D03*
X90059Y-65452D03*
X90059Y-65846D03*
X90059Y-66240D03*
X90059Y-66633D03*
X90059Y-67027D03*
X90059Y-67421D03*
X90059Y-67814D03*
X90059Y-68208D03*
X90059Y-68602D03*
X90059Y-68996D03*
X90059Y-69389D03*
X90059Y-69783D03*
X90059Y-70177D03*
G54D25*
X110787Y-40633D03*
X110787Y-65192D03*
G54D24*
X80102Y-44000D03*
X79866Y-44000D03*
X79629Y-44236D03*
X79629Y-44000D03*
X79629Y-44472D03*
X79866Y-44472D03*
X80102Y-44472D03*
X80102Y-44236D03*
X79866Y-44236D03*
X79629Y-43055D03*
X79866Y-43055D03*
X80102Y-43055D03*
X79866Y-43527D03*
X80102Y-43527D03*
X80102Y-43763D03*
X79866Y-43763D03*
X79629Y-43763D03*
X79629Y-43291D03*
X79629Y-43527D03*
X79866Y-43291D03*
X80102Y-43291D03*
X80102Y-42346D03*
X79866Y-42346D03*
X79629Y-42582D03*
X79629Y-42346D03*
X79629Y-42818D03*
X79866Y-42818D03*
X80102Y-42818D03*
X80102Y-42582D03*
X79866Y-42582D03*
X79866Y-41874D03*
X80102Y-41874D03*
X80102Y-42110D03*
X79866Y-42110D03*
X79629Y-42110D03*
X79629Y-41637D03*
X79629Y-41874D03*
X79866Y-41637D03*
X80102Y-41637D03*
G54D19*
X73251Y-42539D03*
X73251Y-44409D03*
X73251Y-46279D03*
G54D26*
X72244Y-47874D03*
X72244Y-40944D03*
G54D27*
X74803Y-38066D03*
X74803Y-36019D03*
X79488Y-36019D03*
G54D28*
X77145Y-37614D03*
G54D27*
X79488Y-38066D03*
G54D29*
X77145Y-40232D03*
G54D23*
X85708Y-82047D03*
X86496Y-82047D03*
X89645Y-82047D03*
X88858Y-82047D03*
X88070Y-82047D03*
X87283Y-82047D03*
G54D24*
X99468Y-40137D03*
X94822Y-54557D03*
X89271Y-73051D03*
X87606Y-73062D03*
X95389Y-73602D03*
X92923Y-74143D03*
X96326Y-73629D03*
X92539Y-74645D03*
X82751Y-73385D03*
X90462Y-71545D03*
X83507Y-73649D03*
X90620Y-71377D03*
X84149Y-73633D03*
X90935Y-71377D03*
X84377Y-73212D03*
X91250Y-71377D03*
X91407Y-71545D03*
X91564Y-71377D03*
X91879Y-71377D03*
X92037Y-71545D03*
X92923Y-73828D03*
X92746Y-73671D03*
X92923Y-73513D03*
X92746Y-73356D03*
X92746Y-73041D03*
X93080Y-72883D03*
X92746Y-72726D03*
X92923Y-72568D03*
X102755Y-47185D03*
X111023Y-44409D03*
X110511Y-44881D03*
X102952Y-46751D03*
X99763Y-47185D03*
X102185Y-48759D03*
X105000Y-49133D03*
X111023Y-48897D03*
X99763Y-48759D03*
X104921Y-49763D03*
X110511Y-49370D03*
X103149Y-47381D03*
X102185Y-47381D03*
X111023Y-44881D03*
X110511Y-45393D03*
X103346Y-46968D03*
X99901Y-47381D03*
X103543Y-47775D03*
X102185Y-47775D03*
X111023Y-45905D03*
X99763Y-47775D03*
X103740Y-47578D03*
X110511Y-46889D03*
X103937Y-48366D03*
X102185Y-48366D03*
X111023Y-47401D03*
X104133Y-48188D03*
X99763Y-48366D03*
X110511Y-47874D03*
X104330Y-48562D03*
X102322Y-48562D03*
X111023Y-47874D03*
X104527Y-48956D03*
X99901Y-48562D03*
X110511Y-48385D03*
X102185Y-49547D03*
X106102Y-51653D03*
X110511Y-51377D03*
X99763Y-49547D03*
X105787Y-51062D03*
X110511Y-50905D03*
X102185Y-51122D03*
X108070Y-55629D03*
X110511Y-55393D03*
X108070Y-58267D03*
X99763Y-51122D03*
X111023Y-55393D03*
X102322Y-49744D03*
X106299Y-52125D03*
X111023Y-51889D03*
X106771Y-52913D03*
X99901Y-49744D03*
X111023Y-52401D03*
X102185Y-50137D03*
X107204Y-53661D03*
X111023Y-53385D03*
X106299Y-53051D03*
X110511Y-52401D03*
X99763Y-50137D03*
X107362Y-54370D03*
X102185Y-50728D03*
X110511Y-53897D03*
X107283Y-55157D03*
X99763Y-50728D03*
X111023Y-53897D03*
X102322Y-50925D03*
X107874Y-55157D03*
X111023Y-54881D03*
X107480Y-57381D03*
X99901Y-50925D03*
X110511Y-54409D03*
X85137Y-61909D03*
X86437Y-61633D03*
X87027Y-61909D03*
X85511Y-61141D03*
X87027Y-60964D03*
X85511Y-61771D03*
X87027Y-61594D03*
X85137Y-61594D03*
X86712Y-61594D03*
X85511Y-61456D03*
X87027Y-61279D03*
X85137Y-61279D03*
X86712Y-61279D03*
X85137Y-63484D03*
X87027Y-63484D03*
X85452Y-64153D03*
X86712Y-64429D03*
X87401Y-64291D03*
X84822Y-64429D03*
X87401Y-64921D03*
X84822Y-65059D03*
X85679Y-63523D03*
X85511Y-63031D03*
X88956Y-63464D03*
X86712Y-63169D03*
X87864Y-66151D03*
X87362Y-62874D03*
X84822Y-63169D03*
X87401Y-63661D03*
X89133Y-63877D03*
X84822Y-63799D03*
X85137Y-64744D03*
X85816Y-63700D03*
X88267Y-63952D03*
X87027Y-64744D03*
X87047Y-69645D03*
X85531Y-69803D03*
X85157Y-69645D03*
X86732Y-70275D03*
X85157Y-70590D03*
X86732Y-69645D03*
X86141Y-67921D03*
X85157Y-69960D03*
X87047Y-69960D03*
X85531Y-70118D03*
X86732Y-69960D03*
X85157Y-70275D03*
X87047Y-70275D03*
X85531Y-70433D03*
X87047Y-67755D03*
X85157Y-68070D03*
X86732Y-67125D03*
X85531Y-67283D03*
X84842Y-67125D03*
X87421Y-67283D03*
X84842Y-66496D03*
X87421Y-66653D03*
X86250Y-69330D03*
X85531Y-68543D03*
X84842Y-68385D03*
X87421Y-68543D03*
X84842Y-67755D03*
X87421Y-67814D03*
X87047Y-66811D03*
X85157Y-66811D03*
X95177Y-56889D03*
X87568Y-50984D03*
X95324Y-57037D03*
X87726Y-51181D03*
X97933Y-58661D03*
X87726Y-53346D03*
X98080Y-58809D03*
X87568Y-53543D03*
X95570Y-57185D03*
X87568Y-51377D03*
X87726Y-51574D03*
X95718Y-57332D03*
X96062Y-57480D03*
X87568Y-51771D03*
X96210Y-57627D03*
X87726Y-51968D03*
X96751Y-58070D03*
X87726Y-52559D03*
X96899Y-58218D03*
X87568Y-52755D03*
X97293Y-58366D03*
X87726Y-52952D03*
X97539Y-58513D03*
X87568Y-53149D03*
X83858Y-65649D03*
X95248Y-71637D03*
X86358Y-72364D03*
X95031Y-71787D03*
X87370Y-72228D03*
X95318Y-71940D03*
X87846Y-72287D03*
X96606Y-70704D03*
X91505Y-54055D03*
X91515Y-52952D03*
X94143Y-58956D03*
X91348Y-51909D03*
X91348Y-51683D03*
X90826Y-52687D03*
X91505Y-53572D03*
X91505Y-53346D03*
X91515Y-52470D03*
X91348Y-51427D03*
X91515Y-52726D03*
X94143Y-59173D03*
X91505Y-53828D03*
X91348Y-51200D03*
X91515Y-52244D03*
X95098Y-55492D03*
X95305Y-55492D03*
X92519Y-55492D03*
X91811Y-55492D03*
X92293Y-55492D03*
X92037Y-55492D03*
X93415Y-55492D03*
X93641Y-55492D03*
X95787Y-55492D03*
X94478Y-55492D03*
X94704Y-55492D03*
X95561Y-55492D03*
X93996Y-55492D03*
X94222Y-55492D03*
X92933Y-55492D03*
X93159Y-55492D03*
X82795Y-67322D03*
X82795Y-60954D03*
X78828Y-67322D03*
X80413Y-61909D03*
X81909Y-58799D03*
X81830Y-67322D03*
X94783Y-59547D03*
X81220Y-67322D03*
X81692Y-60787D03*
X102129Y-69228D03*
X102129Y-62779D03*
X77007Y-68937D03*
X77007Y-69370D03*
X77007Y-69803D03*
X77007Y-70236D03*
X109291Y-77165D03*
X109291Y-76909D03*
X109291Y-74645D03*
X109291Y-74389D03*
X109291Y-74143D03*
X109291Y-73887D03*
X109291Y-73641D03*
X109291Y-73385D03*
X109291Y-76663D03*
X109291Y-76407D03*
X109291Y-76161D03*
X109291Y-75905D03*
X109291Y-75649D03*
X109291Y-75403D03*
X109291Y-75147D03*
X109291Y-74891D03*
X112106Y-77165D03*
X112106Y-76909D03*
X112106Y-74645D03*
X112106Y-74389D03*
X112106Y-74143D03*
X112106Y-73887D03*
X112106Y-73631D03*
X112106Y-73385D03*
X112106Y-76663D03*
X112106Y-76407D03*
X112106Y-76161D03*
X112106Y-75905D03*
X112106Y-75649D03*
X112106Y-75403D03*
X112106Y-75147D03*
X112106Y-74901D03*
X101013Y-69143D03*
X101269Y-71909D03*
X101417Y-72106D03*
X94094Y-72106D03*
X94094Y-72391D03*
X101417Y-72500D03*
X94094Y-72696D03*
X101269Y-72696D03*
X94724Y-72893D03*
X101417Y-72893D03*
X94566Y-73090D03*
X101269Y-73090D03*
X94251Y-73287D03*
X101417Y-73287D03*
X101269Y-73484D03*
X94409Y-73484D03*
X72677Y-65767D03*
X73710Y-65570D03*
X104511Y-79535D03*
X103728Y-78740D03*
X94055Y-75866D03*
X105000Y-75492D03*
X105354Y-72893D03*
X95354Y-75866D03*
X105885Y-75866D03*
X105885Y-72303D03*
X104507Y-76043D03*
X104566Y-73543D03*
X96594Y-76850D03*
X93188Y-75866D03*
X105708Y-75314D03*
X105708Y-72500D03*
X94921Y-75866D03*
X105531Y-75688D03*
X105531Y-72696D03*
X95393Y-37350D03*
X95393Y-50954D03*
X94448Y-51289D03*
X88641Y-47047D03*
X91594Y-47755D03*
X94242Y-47755D03*
X89921Y-36968D03*
X92874Y-51289D03*
X90925Y-36968D03*
X93188Y-51919D03*
X91929Y-36968D03*
X93031Y-50954D03*
X92519Y-37736D03*
X93188Y-51289D03*
X93523Y-37736D03*
X93346Y-50954D03*
X94527Y-37736D03*
X93503Y-51604D03*
X104744Y-36496D03*
X98513Y-50964D03*
X93818Y-51289D03*
X105629Y-36496D03*
X98336Y-51692D03*
X93818Y-51604D03*
X106614Y-36338D03*
X94133Y-51919D03*
X98690Y-51879D03*
X99360Y-37647D03*
X97440Y-54728D03*
X95393Y-53494D03*
X86992Y-38740D03*
X94133Y-52549D03*
X84905Y-38409D03*
X94763Y-52864D03*
X88169Y-38248D03*
X95393Y-53809D03*
X85885Y-38244D03*
X94763Y-53179D03*
X83866Y-38015D03*
X95866Y-54498D03*
X111053Y-69242D03*
X107657Y-69232D03*
X76692Y-55787D03*
X76161Y-59488D03*
X89468Y-59842D03*
X78681Y-65787D03*
X76830Y-55452D03*
X87844Y-65738D03*
X70944Y-54389D03*
X70590Y-58681D03*
X98248Y-59724D03*
X77381Y-53622D03*
X72716Y-53622D03*
X101259Y-53484D03*
X84862Y-62263D03*
X84862Y-62578D03*
X87047Y-69015D03*
X87047Y-68700D03*
X86870Y-59360D03*
X91387Y-59360D03*
X86751Y-61948D03*
X86437Y-61948D03*
X92500Y-59527D03*
X87194Y-59527D03*
X87037Y-62253D03*
X86437Y-63523D03*
X85728Y-64507D03*
X85511Y-63661D03*
X84488Y-62401D03*
X84143Y-60570D03*
X93061Y-60570D03*
X86200Y-63011D03*
X86437Y-64783D03*
X85511Y-64921D03*
X85511Y-62086D03*
X84862Y-61948D03*
X84862Y-60374D03*
X92667Y-60374D03*
X85177Y-62263D03*
X85846Y-63366D03*
X86407Y-62234D03*
X85866Y-67598D03*
X85866Y-69330D03*
X85807Y-66417D03*
X85531Y-69488D03*
X85157Y-69015D03*
X85000Y-65925D03*
X85531Y-67913D03*
X86289Y-67283D03*
X87598Y-69173D03*
X87667Y-66427D03*
X85639Y-65925D03*
X86358Y-65925D03*
X86417Y-69645D03*
X86200Y-66368D03*
X87864Y-69173D03*
X88248Y-64374D03*
X86574Y-65925D03*
X86732Y-69015D03*
X85531Y-69173D03*
X85413Y-65925D03*
X73011Y-64625D03*
X73917Y-66003D03*
X79783Y-65816D03*
X86220Y-49635D03*
X79940Y-65383D03*
X85826Y-49635D03*
X74547Y-64980D03*
X96358Y-57923D03*
X87568Y-52372D03*
X87568Y-52155D03*
X96505Y-57775D03*
X81043Y-63031D03*
X84448Y-49517D03*
X84645Y-49635D03*
X80885Y-62106D03*
X80098Y-65580D03*
X85629Y-49517D03*
X97500Y-58208D03*
X111023Y-49370D03*
X105118Y-56102D03*
X99763Y-51515D03*
X97342Y-56791D03*
X111496Y-56417D03*
X102185Y-51515D03*
X107746Y-65137D03*
X108503Y-48385D03*
X108503Y-47874D03*
X107362Y-65698D03*
X94311Y-56486D03*
X89401Y-56161D03*
X91236Y-60165D03*
X98555Y-61129D03*
X89767Y-56240D03*
X91232Y-59937D03*
X94870Y-60425D03*
X95968Y-61555D03*
X95078Y-51917D03*
X91602Y-55480D03*
X81653Y-55472D03*
X74822Y-60275D03*
X81653Y-58799D03*
X94744Y-55905D03*
X94448Y-52234D03*
X98740Y-60137D03*
X99921Y-52244D03*
X94921Y-50954D03*
X95078Y-51604D03*
X99921Y-52608D03*
X99074Y-60137D03*
X97696Y-50875D03*
X94606Y-50954D03*
X95724Y-56984D03*
X94133Y-51289D03*
X81417Y-50285D03*
X81417Y-66811D03*
X90236Y-51141D03*
X91358Y-58984D03*
X95964Y-59360D03*
X94133Y-51604D03*
X94751Y-49720D03*
X94448Y-51604D03*
X96318Y-49753D03*
X95078Y-51289D03*
X98513Y-51515D03*
X98405Y-60137D03*
X98362Y-52220D03*
X97783Y-60185D03*
X94448Y-51919D03*
X93848Y-56722D03*
X94133Y-52234D03*
X88641Y-50433D03*
X88641Y-47539D03*
X95393Y-51289D03*
X75157Y-60275D03*
X96078Y-53062D03*
X89881Y-50925D03*
X89881Y-48543D03*
X94763Y-52234D03*
X75531Y-60275D03*
X96220Y-56732D03*
X89625Y-56555D03*
X89645Y-48041D03*
X89645Y-50767D03*
X94763Y-51919D03*
X91614Y-54291D03*
X94763Y-51604D03*
X94763Y-53809D03*
X95566Y-49614D03*
X95393Y-54124D03*
X96151Y-54488D03*
X98503Y-51259D03*
X99874Y-54547D03*
X93090Y-50334D03*
X90984Y-51200D03*
X96724Y-55059D03*
X85118Y-59763D03*
X93346Y-49763D03*
X85118Y-59566D03*
X85118Y-59960D03*
X94448Y-53484D03*
X95393Y-51604D03*
X93484Y-55944D03*
X76102Y-42637D03*
X75826Y-41968D03*
X76377Y-41968D03*
X94881Y-40039D03*
X92519Y-40039D03*
X91515Y-40039D03*
X90531Y-40039D03*
X91181Y-35807D03*
X91850Y-35807D03*
X90846Y-35807D03*
X90177Y-35807D03*
X89173Y-35807D03*
X89842Y-35807D03*
X88838Y-35807D03*
X88169Y-35807D03*
X87165Y-35807D03*
X87834Y-35807D03*
X86181Y-35807D03*
X86850Y-35807D03*
X85846Y-35807D03*
X85177Y-35807D03*
X84173Y-35807D03*
X84842Y-35807D03*
X83838Y-35807D03*
X83169Y-35807D03*
X94763Y-52549D03*
X96122Y-51564D03*
X89901Y-75570D03*
X106043Y-83326D03*
X107106Y-81673D03*
X98858Y-45019D03*
X97637Y-71811D03*
X82677Y-72362D03*
X82677Y-72618D03*
X92614Y-79094D03*
X92425Y-79633D03*
X93464Y-83169D03*
X93464Y-82165D03*
X71417Y-52874D03*
X88070Y-76692D03*
X87244Y-74763D03*
X101496Y-59862D03*
X101240Y-60570D03*
X103027Y-61964D03*
X102696Y-78976D03*
X102696Y-78228D03*
X96141Y-48435D03*
X95551Y-48897D03*
X96614Y-56574D03*
X92185Y-48700D03*
X91811Y-48976D03*
X93996Y-50334D03*
X90078Y-52795D03*
X90059Y-51437D03*
X89094Y-52224D03*
X87775Y-47283D03*
X92627Y-56397D03*
X96476Y-50374D03*
X97145Y-54862D03*
X82322Y-73661D03*
X83956Y-72618D03*
X83307Y-72618D03*
X70334Y-55866D03*
X84645Y-54893D03*
X74173Y-53818D03*
X71377Y-59015D03*
X71653Y-57637D03*
X72204Y-58425D03*
X71062Y-58425D03*
X71062Y-57519D03*
X71062Y-58149D03*
X71377Y-57834D03*
X73070Y-55944D03*
X75000Y-56043D03*
X77165Y-55570D03*
X77047Y-53838D03*
X76417Y-58700D03*
X74744Y-57539D03*
X75165Y-57094D03*
X73937Y-63523D03*
X76318Y-56614D03*
X75944Y-53877D03*
X74744Y-54350D03*
X73917Y-55964D03*
X71673Y-56515D03*
X73326Y-55767D03*
X72657Y-55433D03*
X73326Y-53799D03*
X72480Y-53622D03*
X72263Y-53622D03*
X71318Y-53740D03*
X71082Y-53405D03*
X71220Y-55354D03*
X70334Y-55275D03*
X70334Y-53838D03*
X72677Y-59429D03*
X71929Y-59429D03*
X72303Y-59862D03*
X72303Y-58996D03*
X73248Y-56515D03*
X73011Y-57834D03*
X76732Y-56929D03*
X73956Y-59763D03*
X73366Y-58208D03*
X73366Y-58523D03*
X77125Y-62992D03*
X77244Y-60314D03*
X75944Y-61929D03*
X76141Y-61722D03*
X73976Y-61929D03*
X75748Y-61929D03*
X75157Y-61929D03*
X74566Y-61929D03*
X75354Y-61929D03*
X75551Y-61929D03*
X74763Y-61929D03*
X74960Y-61929D03*
X74370Y-61929D03*
X74173Y-61929D03*
X79311Y-64704D03*
X106003Y-46909D03*
X105787Y-46909D03*
X105905Y-48464D03*
X106141Y-50334D03*
X95393Y-72342D03*
X101456Y-70196D03*
X101456Y-70452D03*
X100354Y-70196D03*
X100354Y-70452D03*
X91122Y-60767D03*
X90846Y-60767D03*
X91023Y-58996D03*
X88090Y-58070D03*
X87854Y-58070D03*
X88346Y-58070D03*
X88090Y-58562D03*
X87854Y-58562D03*
X88346Y-58562D03*
X94783Y-70688D03*
X80019Y-40255D03*
X82007Y-40000D03*
X77637Y-51200D03*
X79507Y-51200D03*
X70649Y-49625D03*
X71279Y-50866D03*
X76437Y-48405D03*
X82736Y-53917D03*
X101220Y-63779D03*
X76610Y-79602D03*
X77618Y-80015D03*
X76039Y-73850D03*
X78771Y-74062D03*
X98598Y-79535D03*
X98614Y-78740D03*
X106657Y-78755D03*
X106669Y-79515D03*
X104566Y-81350D03*
X105070Y-82031D03*
X100318Y-81314D03*
X97779Y-82507D03*
X97783Y-81228D03*
X77196Y-51598D03*
X75385Y-52645D03*
X75858Y-52633D03*
X76901Y-52090D03*
X75874Y-60275D03*
X99338Y-60614D03*
X102795Y-62157D03*
X92649Y-59354D03*
X88677Y-58311D03*
X106933Y-41566D03*
X106933Y-40287D03*
X81283Y-37846D03*
X81775Y-37929D03*
X102188Y-36141D03*
X96389Y-79389D03*
X96732Y-79881D03*
X96594Y-82165D03*
X97133Y-82622D03*
X91708Y-82618D03*
X92125Y-82169D03*
X92035Y-80204D03*
X89055Y-65807D03*
X86330Y-67598D03*
X93622Y-73484D03*
X88543Y-67598D03*
X88267Y-68858D03*
X90031Y-54228D03*
X97696Y-54862D03*
X97669Y-52586D03*
X96984Y-72811D03*
X96531Y-72846D03*
X91244Y-53405D03*
X92051Y-53106D03*
X96870Y-53244D03*
X95814Y-56015D03*
X87007Y-49051D03*
X85980Y-48468D03*
X83027Y-49500D03*
X84779Y-48055D03*
X84055Y-54893D03*
X84251Y-54893D03*
X84448Y-54893D03*
X84842Y-54889D03*
X85039Y-54893D03*
X85236Y-54893D03*
X85433Y-54893D03*
X85629Y-54893D03*
X85826Y-54897D03*
X86023Y-54893D03*
X86220Y-54893D03*
X103177Y-69322D03*
X104535Y-69196D03*
X104397Y-69322D03*
X103917Y-70177D03*
X105433Y-69212D03*
X104877Y-69318D03*
X88590Y-70720D03*
X84055Y-49517D03*
X98858Y-48070D03*
X105000Y-49429D03*
X106948Y-49429D03*
X102165Y-45039D03*
X104409Y-35551D03*
X102755Y-35314D03*
X99055Y-36377D03*
X99251Y-36811D03*
X99251Y-35944D03*
X97125Y-36811D03*
X97125Y-35944D03*
X95393Y-80866D03*
X76161Y-70236D03*
X76161Y-68937D03*
X91614Y-76062D03*
X107952Y-66259D03*
X111181Y-67480D03*
X109409Y-67480D03*
X111771Y-67854D03*
X111771Y-68602D03*
X109921Y-68602D03*
X109921Y-67854D03*
X108740Y-68838D03*
X109094Y-67677D03*
X110944Y-67677D03*
X109783Y-37598D03*
X102539Y-40275D03*
X102539Y-41358D03*
X102716Y-40078D03*
X100492Y-55570D03*
X99763Y-55137D03*
X101220Y-55137D03*
X70255Y-66476D03*
X70255Y-66003D03*
X71712Y-66614D03*
X72362Y-66614D03*
X70295Y-65196D03*
X70728Y-65748D03*
X70728Y-64645D03*
X99251Y-83169D03*
X82618Y-63622D03*
X72677Y-68326D03*
X72677Y-67736D03*
X72677Y-67145D03*
X72677Y-66555D03*
X100492Y-42933D03*
X99763Y-43366D03*
X101220Y-43366D03*
X82618Y-66535D03*
X80452Y-72519D03*
X81830Y-72519D03*
X81456Y-72814D03*
X80826Y-72814D03*
X99734Y-52795D03*
X98858Y-52795D03*
X105757Y-35364D03*
X91220Y-48641D03*
X77598Y-72696D03*
X77460Y-70570D03*
X78700Y-62598D03*
X92342Y-75374D03*
X78937Y-40098D03*
X77913Y-42460D03*
X81141Y-65216D03*
X82263Y-62283D03*
X82519Y-62559D03*
X99212Y-62194D03*
X99793Y-49251D03*
X109370Y-71929D03*
X103789Y-71929D03*
X87913Y-74015D03*
X87913Y-73641D03*
X88484Y-79704D03*
X86259Y-80393D03*
X92086Y-50009D03*
X95462Y-71742D03*
X110088Y-72883D03*
X109291Y-72883D03*
X102539Y-67519D03*
X107283Y-35364D03*
X106574Y-35364D03*
X94035Y-48051D03*
X103484Y-71338D03*
X103484Y-70629D03*
X103090Y-70629D03*
X103090Y-71338D03*
X99822Y-46653D03*
X99822Y-45708D03*
X89596Y-63041D03*
X84685Y-69911D03*
X85531Y-68858D03*
X87421Y-70433D03*
X85157Y-68700D03*
X85157Y-67755D03*
X85157Y-67440D03*
X85157Y-66496D03*
X79202Y-70118D03*
X78444Y-70118D03*
X82824Y-70875D03*
X83198Y-70118D03*
X86732Y-68700D03*
X86732Y-66496D03*
X84606Y-69202D03*
X86712Y-62854D03*
X86751Y-63523D03*
X86751Y-64783D03*
X85137Y-65059D03*
X85137Y-64153D03*
X85137Y-63799D03*
X85511Y-65413D03*
X85511Y-62716D03*
X86023Y-63779D03*
X87342Y-61318D03*
X83671Y-61771D03*
X83671Y-62716D03*
X83671Y-63346D03*
X83671Y-63976D03*
X83671Y-64606D03*
X83671Y-65236D03*
X86427Y-65413D03*
X86437Y-62854D03*
X84488Y-61141D03*
X88267Y-69803D03*
X83671Y-68858D03*
X83671Y-68228D03*
X83671Y-67598D03*
X83671Y-66968D03*
X83671Y-66338D03*
X84488Y-71102D03*
X85807Y-66751D03*
X101259Y-52795D03*
X102135Y-53287D03*
X101259Y-46555D03*
X101259Y-45059D03*
X101259Y-45708D03*
X102145Y-45708D03*
X101259Y-46003D03*
X101102Y-47381D03*
X102185Y-47992D03*
X101240Y-47992D03*
X101043Y-48956D03*
X102490Y-51496D03*
X101259Y-49940D03*
X101259Y-50433D03*
X102185Y-51909D03*
X98858Y-47578D03*
X99734Y-48070D03*
X99763Y-50433D03*
X98858Y-49940D03*
X99763Y-51742D03*
X98858Y-51712D03*
X98858Y-51318D03*
X108996Y-62913D03*
X109015Y-62401D03*
X109015Y-61909D03*
X108996Y-60915D03*
X108996Y-60413D03*
X109015Y-56889D03*
X108996Y-42913D03*
X108996Y-44409D03*
X109015Y-44881D03*
X109015Y-58385D03*
X109015Y-43897D03*
X108503Y-47401D03*
X108503Y-48897D03*
X108503Y-49409D03*
X109015Y-49409D03*
X108503Y-50905D03*
X109015Y-50905D03*
X108503Y-51377D03*
X109015Y-52401D03*
X108503Y-52913D03*
X108503Y-53385D03*
X109015Y-53897D03*
X108503Y-54881D03*
X108503Y-55393D03*
X109015Y-55393D03*
X108503Y-56889D03*
X108503Y-46889D03*
X110511Y-45905D03*
X110511Y-59389D03*
X110511Y-62903D03*
X111545Y-61663D03*
X110511Y-61397D03*
X110511Y-60895D03*
X111545Y-60167D03*
X111545Y-58661D03*
X110511Y-43385D03*
X111023Y-43897D03*
X110511Y-44409D03*
X111023Y-45393D03*
X111023Y-46889D03*
X110511Y-47401D03*
X111023Y-48385D03*
X110511Y-48897D03*
X111023Y-49881D03*
X110511Y-50393D03*
X111023Y-51377D03*
X110511Y-51889D03*
X111023Y-52913D03*
X110511Y-53385D03*
X111023Y-54409D03*
X110511Y-54881D03*
X110511Y-57913D03*
X111023Y-57401D03*
X111023Y-55905D03*
X110511Y-56377D03*
X90590Y-45708D03*
X87598Y-43582D03*
X87834Y-43159D03*
X97125Y-38090D03*
X97125Y-37263D03*
X90925Y-46437D03*
X88228Y-48789D03*
X87814Y-48543D03*
X96476Y-50708D03*
X98779Y-37431D03*
X96496Y-49389D03*
X102125Y-73681D03*
X104635Y-71299D03*
X104468Y-70620D03*
X102696Y-74566D03*
X102696Y-73858D03*
X101417Y-73681D03*
X105354Y-73287D03*
X104645Y-73287D03*
X100688Y-71614D03*
X100255Y-71614D03*
X102696Y-73641D03*
X102460Y-71919D03*
X104232Y-72982D03*
X72677Y-65374D03*
X82736Y-50511D03*
X82303Y-52559D03*
X83179Y-51377D03*
X87145Y-50511D03*
X83464Y-49635D03*
X86417Y-54901D03*
X83661Y-54901D03*
X82145Y-48031D03*
X82490Y-50511D03*
X82047Y-52559D03*
X82047Y-53740D03*
X86771Y-48976D03*
X107519Y-68031D03*
X108267Y-67795D03*
X107559Y-67795D03*
X93622Y-74409D03*
X96151Y-55639D03*
X95708Y-53494D03*
X95078Y-53179D03*
X94931Y-50344D03*
X94763Y-51289D03*
X96476Y-50039D03*
X92539Y-54281D03*
X92539Y-52706D03*
X92539Y-51761D03*
X96053Y-51131D03*
X94261Y-56190D03*
X93976Y-54458D03*
X92874Y-51919D03*
X92874Y-51604D03*
X92539Y-51446D03*
X92539Y-51131D03*
X80314Y-71909D03*
X77736Y-71712D03*
X102716Y-35748D03*
X102716Y-36082D03*
X102795Y-39842D03*
X102539Y-39271D03*
X76141Y-61978D03*
X79566Y-64094D03*
X80275Y-64094D03*
X80275Y-63602D03*
X80393Y-63110D03*
X80472Y-64704D03*
X79311Y-64350D03*
X101496Y-59429D03*
X100964Y-59429D03*
X101240Y-59429D03*
X102135Y-53681D03*
X83661Y-49517D03*
X98858Y-50433D03*
X94803Y-58700D03*
X94763Y-49055D03*
X75196Y-54665D03*
X79645Y-49070D03*
X95078Y-53494D03*
X94783Y-60098D03*
X95019Y-58877D03*
X75196Y-54429D03*
X79649Y-49527D03*
X95078Y-53809D03*
X95551Y-49320D03*
X95216Y-58700D03*
X96614Y-72661D03*
X89271Y-72736D03*
X106200Y-50846D03*
X102539Y-46535D03*
X111023Y-50393D03*
X101240Y-49153D03*
X101023Y-50984D03*
X110511Y-56889D03*
X89271Y-72253D03*
X89291Y-70610D03*
X89074Y-72401D03*
X97240Y-71519D03*
X88311Y-71547D03*
X88799Y-73248D03*
X88897Y-80393D03*
X97586Y-55397D03*
X109015Y-54409D03*
X101141Y-52106D03*
X97598Y-55679D03*
X101259Y-52303D03*
X108503Y-53897D03*
X101141Y-52500D03*
X108503Y-54409D03*
X97933Y-55885D03*
X96860Y-56574D03*
X109015Y-53385D03*
X101259Y-53090D03*
X108996Y-52913D03*
X108740Y-67893D03*
X108061Y-64498D03*
X108996Y-51919D03*
X109842Y-61397D03*
X109498Y-50413D03*
X109094Y-67401D03*
X109498Y-49911D03*
X98830Y-52106D03*
X103779Y-67145D03*
X99488Y-66633D03*
X112007Y-56161D03*
X112007Y-66633D03*
X101003Y-66633D03*
X99291Y-54055D03*
X104645Y-66456D03*
X98858Y-53287D03*
X100354Y-66633D03*
X98690Y-52500D03*
X99921Y-66633D03*
X103779Y-66830D03*
X111771Y-69645D03*
X109921Y-69645D03*
X98858Y-52303D03*
X99716Y-66633D03*
X104645Y-65925D03*
X110295Y-69645D03*
X112145Y-69645D03*
X104645Y-66141D03*
X98690Y-53090D03*
X100137Y-66633D03*
X99007Y-62287D03*
X109842Y-61161D03*
X109251Y-64685D03*
X109015Y-58897D03*
X111712Y-63395D03*
X110511Y-49881D03*
X111712Y-55157D03*
X101692Y-54064D03*
X108297Y-61781D03*
X108503Y-57913D03*
X111023Y-59389D03*
X107903Y-64675D03*
X108503Y-55905D03*
X108415Y-64675D03*
X100039Y-46397D03*
X108149Y-47401D03*
X109015Y-57913D03*
X109015Y-55905D03*
X108061Y-64271D03*
X111023Y-59891D03*
X99921Y-51968D03*
X106102Y-51220D03*
X111023Y-50905D03*
X99094Y-64429D03*
X102559Y-51909D03*
X111003Y-56909D03*
X100570Y-66633D03*
X98690Y-53484D03*
X100787Y-66633D03*
X98858Y-53681D03*
X109291Y-73129D03*
X112106Y-73129D03*
X101751Y-56496D03*
X99763Y-48996D03*
X98838Y-66279D03*
X99043Y-61062D03*
X108484Y-66830D03*
X104606Y-66830D03*
X108503Y-56377D03*
X109015Y-56377D03*
X112401Y-56653D03*
X104606Y-67145D03*
X112401Y-67145D03*
X99251Y-68996D03*
X109645Y-63070D03*
X109507Y-51417D03*
X109448Y-66456D03*
X105472Y-66456D03*
X109468Y-54881D03*
X110748Y-63720D03*
X110511Y-58897D03*
X105472Y-65905D03*
X112204Y-57677D03*
X105472Y-66141D03*
X112204Y-66456D03*
X111574Y-43169D03*
X109015Y-45905D03*
X108503Y-46417D03*
X111259Y-62992D03*
X93188Y-53179D03*
X93503Y-52864D03*
X93818Y-52864D03*
X94448Y-52864D03*
X92874Y-52549D03*
X93188Y-52864D03*
X93818Y-55059D03*
X93503Y-52549D03*
X92145Y-52125D03*
X93818Y-52549D03*
X92214Y-51456D03*
X92874Y-52234D03*
X93188Y-52234D03*
X91279Y-52244D03*
X93503Y-52234D03*
X93818Y-52234D03*
X92214Y-51200D03*
X92874Y-52864D03*
X93188Y-54124D03*
X93031Y-54458D03*
X92539Y-53966D03*
X92874Y-54124D03*
X93818Y-54124D03*
X94133Y-54124D03*
X94448Y-53809D03*
X92874Y-53809D03*
X93188Y-53809D03*
X93818Y-53809D03*
X94133Y-53809D03*
X94133Y-53494D03*
X92874Y-53494D03*
X93503Y-53494D03*
X93503Y-53179D03*
X93818Y-53494D03*
X94448Y-53179D03*
X95393Y-51919D03*
X95708Y-51289D03*
X94448Y-52549D03*
X94035Y-48858D03*
X97700Y-49122D03*
X95393Y-52549D03*
X92539Y-52076D03*
X92086Y-50787D03*
X95708Y-51604D03*
X97334Y-55102D03*
X95393Y-53179D03*
X90019Y-53149D03*
X92539Y-53346D03*
X93503Y-51919D03*
X93011Y-49507D03*
X93818Y-51919D03*
X93346Y-49507D03*
X98854Y-48980D03*
X95393Y-52864D03*
X98551Y-52039D03*
X103082Y-35472D03*
X95393Y-52234D03*
X103651Y-70482D03*
X103907Y-70482D03*
X104074Y-71338D03*
X94330Y-81259D03*
X85039Y-49635D03*
X85236Y-49517D03*
X85433Y-49635D03*
X72480Y-65177D03*
X82293Y-51181D03*
X109724Y-72401D03*
X83838Y-49635D03*
X84842Y-49517D03*
X86023Y-49517D03*
X89084Y-73877D03*
X89212Y-73681D03*
X89665Y-74803D03*
X89251Y-74251D03*
X92342Y-75019D03*
X89084Y-74094D03*
X90472Y-75039D03*
X91653Y-75098D03*
X89251Y-74488D03*
X72519Y-60314D03*
X72992Y-54586D03*
X75688Y-56555D03*
X76338Y-53877D03*
X96673Y-57027D03*
X75944Y-55787D03*
X97421Y-57657D03*
X72066Y-56535D03*
X70944Y-59015D03*
X99196Y-61751D03*
X76988Y-57952D03*
X73070Y-56299D03*
X74763Y-54035D03*
X70314Y-54448D03*
X95708Y-52864D03*
X95708Y-52224D03*
X96053Y-51338D03*
X95708Y-53179D03*
X73897Y-49055D03*
X98783Y-62019D03*
X96673Y-57342D03*
X98322Y-70614D03*
X89188Y-71598D03*
X97066Y-58976D03*
X102657Y-70482D03*
X102509Y-62647D03*
X111003Y-62401D03*
X111712Y-66909D03*
X110314Y-66909D03*
X110295Y-60413D03*
X100216Y-46200D03*
X110157Y-47401D03*
X102185Y-46456D03*
X99311Y-66043D03*
X110511Y-55905D03*
X102185Y-46200D03*
X108238Y-53149D03*
X110511Y-52913D03*
X99311Y-65068D03*
X105570Y-71909D03*
X105354Y-72106D03*
X87362Y-40039D03*
X102303Y-70482D03*
X100665Y-45480D03*
X88523Y-40039D03*
X100244Y-45279D03*
X101771Y-71131D03*
X89527Y-40196D03*
X99196Y-44240D03*
X101220Y-71622D03*
X78444Y-40236D03*
X103405Y-40826D03*
X103405Y-41043D03*
X103405Y-40610D03*
X89074Y-72893D03*
X88169Y-66299D03*
X83700Y-59566D03*
X83700Y-59960D03*
X83700Y-59763D03*
X75984Y-62992D03*
X75984Y-62677D03*
X75511Y-62992D03*
X75748Y-62992D03*
X75275Y-62992D03*
X74803Y-62992D03*
X75039Y-62992D03*
X74566Y-62992D03*
X74330Y-62992D03*
X74330Y-62677D03*
X74566Y-62677D03*
X75039Y-62677D03*
X74803Y-62677D03*
X75275Y-62677D03*
X75748Y-62677D03*
X75511Y-62677D03*
X88255Y-74511D03*
X91141Y-75885D03*
X91722Y-71545D03*
X90777Y-71545D03*
X92923Y-73198D03*
X92746Y-73986D03*
X77165Y-55216D03*
X93346Y-48681D03*
X93015Y-48681D03*
X90007Y-53976D03*
X87421Y-68858D03*
X85531Y-68228D03*
X87401Y-66338D03*
X85531Y-66968D03*
X84488Y-68858D03*
X84488Y-68228D03*
X84488Y-67598D03*
X84488Y-66968D03*
X84488Y-66338D03*
X84488Y-70748D03*
X87421Y-69803D03*
X86377Y-68228D03*
X86377Y-66968D03*
X87440Y-62253D03*
X87342Y-60964D03*
X86437Y-63208D03*
X87047Y-64448D03*
X86437Y-64468D03*
X84488Y-61771D03*
X84488Y-62716D03*
X85511Y-63346D03*
X84488Y-63346D03*
X84488Y-63976D03*
X85492Y-64507D03*
X84488Y-64606D03*
X84488Y-65236D03*
X87401Y-63326D03*
X87057Y-63818D03*
X87204Y-65472D03*
X87618Y-72795D03*
X81830Y-70885D03*
X86181Y-71496D03*
X83602Y-47854D03*
X89862Y-52224D03*
X90523Y-49696D03*
X98429Y-61444D03*
X95728Y-72342D03*
X97771Y-61358D03*
X97141Y-60342D03*
X95637Y-56200D03*
X89055Y-39881D03*
X71279Y-48720D03*
X90086Y-51799D03*
X77618Y-68700D03*
X76377Y-60511D03*
X76377Y-59763D03*
X107401Y-48622D03*
X80984Y-38543D03*
X103188Y-66299D03*
X80472Y-49523D03*
X89106Y-51566D03*
X86870Y-48051D03*
X86456Y-48744D03*
X83862Y-48188D03*
X83023Y-48736D03*
X91830Y-47185D03*
X90019Y-46082D03*
X90354Y-46082D03*
X90610Y-44980D03*
X88937Y-42834D03*
X90610Y-43562D03*
X84877Y-73972D03*
X87566Y-74035D03*
X95389Y-74488D03*
X96326Y-74503D03*
X97200Y-74503D03*
X92933Y-72354D03*
X91092Y-71545D03*
X90147Y-71545D03*
X92746Y-74301D03*
X102244Y-72470D03*
X103681Y-35157D03*
X110112Y-43163D03*
X110039Y-46476D03*
X110039Y-46712D03*
X110037Y-46927D03*
X109803Y-46476D03*
X109803Y-46712D03*
X109803Y-46929D03*
X106751Y-73848D03*
X103287Y-73858D03*
X104586Y-72982D03*
X104370Y-71348D03*
X83267Y-54468D03*
X86417Y-49517D03*
X84251Y-49635D03*
X82145Y-50984D03*
X82303Y-51968D03*
X82303Y-53149D03*
X70649Y-51673D03*
X75570Y-56259D03*
X73602Y-59153D03*
X73582Y-54389D03*
X71909Y-53405D03*
X70688Y-53838D03*
X70944Y-55945D03*
X76692Y-53366D03*
X89645Y-80472D03*
X102645Y-80303D03*
X105925Y-82850D03*
X107090Y-82952D03*
X70610Y-66988D03*
X76811Y-71555D03*
X107125Y-67598D03*
X99251Y-82814D03*
X109015Y-71456D03*
X102637Y-45039D03*
X102637Y-44724D03*
X111811Y-43759D03*
X103996Y-61043D03*
X99094Y-64035D03*
X92834Y-74655D03*
X104635Y-74212D03*
X102500Y-70629D03*
X102500Y-67962D03*
X101889Y-81082D03*
X104271Y-74763D03*
X93356Y-74763D03*
X102401Y-81771D03*
X92913Y-71486D03*
X102696Y-71338D03*
X93789Y-75078D03*
X103877Y-75078D03*
X102893Y-81259D03*
X102893Y-70482D03*
X102893Y-69301D03*
X103484Y-74921D03*
X94035Y-74921D03*
X103681Y-73858D03*
X103287Y-68129D03*
X104074Y-73858D03*
X104114Y-67667D03*
X84842Y-68700D03*
X87027Y-62854D03*
X83011Y-63228D03*
X83366Y-68543D03*
X78188Y-72362D03*
X88602Y-65610D03*
X88267Y-63720D03*
X91122Y-61122D03*
X81122Y-71476D03*
X89251Y-69980D03*
X88877Y-72578D03*
X89074Y-69822D03*
X89498Y-71161D03*
X91722Y-71161D03*
X92746Y-72096D03*
X81220Y-55708D03*
X81220Y-60039D03*
X73385Y-60039D03*
X71173Y-78724D03*
X97263Y-55816D03*
X94814Y-73429D03*
X97196Y-73429D03*
X89832Y-71545D03*
X92354Y-71602D03*
X88712Y-71102D03*
X90305Y-71377D03*
X89990Y-71377D03*
X89271Y-73385D03*
X89783Y-70433D03*
X92194Y-71377D03*
X92568Y-71344D03*
G54D30*
X74854Y-72177D02*
X73834Y-72177D01*
X73834Y-72177D02*
X72515Y-73496D01*
X76929Y-73070D02*
X76318Y-73070D01*
X89586Y-75374D02*
X82086Y-75374D01*
X90196Y-74763D02*
X89586Y-75374D01*
X92125Y-74763D02*
X90196Y-74763D01*
X92342Y-74547D02*
X92125Y-74763D01*
X92342Y-74350D02*
X92342Y-74547D01*
X92549Y-74143D02*
X92342Y-74350D01*
G54D10*
X92549Y-74143D02*
X92923Y-74143D01*
G54D30*
X79783Y-73070D02*
X82086Y-75374D01*
X76929Y-73070D02*
X79783Y-73070D01*
X76318Y-73070D02*
X75425Y-72177D01*
X74854Y-72177D02*
X75425Y-72177D01*
G54D31*
X92923Y-74143D02*
X93159Y-74143D01*
X95102Y-73889D02*
X95389Y-73602D01*
X93413Y-73889D02*
X95102Y-73889D01*
X93159Y-74143D02*
X93413Y-73889D01*
G54D30*
X74350Y-73661D02*
X73141Y-73661D01*
X92421Y-75610D02*
X90275Y-75610D01*
X90275Y-75610D02*
X90039Y-75846D01*
X90039Y-75846D02*
X82185Y-75846D01*
X82185Y-75846D02*
X79724Y-73385D01*
X79724Y-73385D02*
X76062Y-73385D01*
X76062Y-73385D02*
X75787Y-73661D01*
X75787Y-73661D02*
X74409Y-73661D01*
X74409Y-73661D02*
X74350Y-73661D01*
X92539Y-75492D02*
X92421Y-75610D01*
X92539Y-74645D02*
X92539Y-75492D01*
X71137Y-74118D02*
X70515Y-73496D01*
X72685Y-74118D02*
X71137Y-74118D01*
X73141Y-73661D02*
X72685Y-74118D01*
G54D31*
X95921Y-74035D02*
X96326Y-73629D01*
X93543Y-74035D02*
X95921Y-74035D01*
X93106Y-74472D02*
X93543Y-74035D01*
X92606Y-74472D02*
X93106Y-74472D01*
X92539Y-74539D02*
X92606Y-74472D01*
X92539Y-74645D02*
X92539Y-74539D01*
G54D32*
X89015Y-71779D02*
X88574Y-71779D01*
G54D10*
X88204Y-72149D02*
X88572Y-71781D01*
X88204Y-72149D02*
X88204Y-72677D01*
G54D32*
X88574Y-71779D02*
X88572Y-71781D01*
G54D10*
X86330Y-73385D02*
X87625Y-73385D01*
X87622Y-73385D02*
X87622Y-73389D01*
X87625Y-73385D02*
X87622Y-73385D01*
X83917Y-73165D02*
X84074Y-73165D01*
X84074Y-73165D02*
X84295Y-73385D01*
X82956Y-73385D02*
X83082Y-73385D01*
X83303Y-73165D02*
X83543Y-73165D01*
X83082Y-73385D02*
X83303Y-73165D01*
X83543Y-73165D02*
X83917Y-73165D01*
X85448Y-73385D02*
X86330Y-73385D01*
X82751Y-73385D02*
X82956Y-73385D01*
G54D32*
X90462Y-71545D02*
X90462Y-71671D01*
G54D10*
X88204Y-72807D02*
X87622Y-73389D01*
X88204Y-72677D02*
X88204Y-72807D01*
G54D32*
X90462Y-71671D02*
X90354Y-71779D01*
X90354Y-71779D02*
X89015Y-71779D01*
G54D10*
X85448Y-73385D02*
X84295Y-73385D01*
X84295Y-73385D02*
X84291Y-73385D01*
G54D32*
X89045Y-71889D02*
X88661Y-71889D01*
G54D10*
X88393Y-72157D02*
X88661Y-71889D01*
X88393Y-72157D02*
X88393Y-72627D01*
G54D32*
X88661Y-71889D02*
X88661Y-71889D01*
G54D10*
X86267Y-73649D02*
X87645Y-73649D01*
X88393Y-72901D02*
X88393Y-72627D01*
X87641Y-73653D02*
X88393Y-72901D01*
X84354Y-73649D02*
X85031Y-73649D01*
X85031Y-73649D02*
X85417Y-73649D01*
X85417Y-73649D02*
X85460Y-73649D01*
X85460Y-73649D02*
X86267Y-73649D01*
X84354Y-73606D02*
X84031Y-73283D01*
X84031Y-73283D02*
X83874Y-73283D01*
X83874Y-73283D02*
X83507Y-73649D01*
X84354Y-73649D02*
X84354Y-73606D01*
X87645Y-73649D02*
X87641Y-73653D01*
G54D32*
X89905Y-71889D02*
X89045Y-71889D01*
X90413Y-71889D02*
X90620Y-71683D01*
X89905Y-71889D02*
X90413Y-71889D01*
G54D10*
X90620Y-71683D02*
X90620Y-71377D01*
G54D32*
X89330Y-71968D02*
X88769Y-71968D01*
G54D10*
X88539Y-72198D02*
X88730Y-72007D01*
X88539Y-72198D02*
X88539Y-72746D01*
G54D32*
X88769Y-71968D02*
X88730Y-72007D01*
G54D10*
X84307Y-73791D02*
X84149Y-73633D01*
X84307Y-73791D02*
X84326Y-73791D01*
X86181Y-73791D02*
X88507Y-73791D01*
X88539Y-73267D02*
X88539Y-73759D01*
X86181Y-73791D02*
X84326Y-73791D01*
X88507Y-73791D02*
X88539Y-73759D01*
X84326Y-73791D02*
X84318Y-73791D01*
G54D32*
X89854Y-71968D02*
X89330Y-71968D01*
X90669Y-71968D02*
X90748Y-71889D01*
X89854Y-71968D02*
X90669Y-71968D01*
G54D10*
X88539Y-72746D02*
X88539Y-73267D01*
X88539Y-73267D02*
X88539Y-73283D01*
X90935Y-71702D02*
X90935Y-71377D01*
G54D32*
X90748Y-71889D02*
X90935Y-71702D01*
G54D10*
X90787Y-70629D02*
X89602Y-70629D01*
X91240Y-70177D02*
X90799Y-70618D01*
X90787Y-70629D02*
X90799Y-70618D01*
X87543Y-72011D02*
X87543Y-72476D01*
X89102Y-70452D02*
X87543Y-72011D01*
X89425Y-70452D02*
X89102Y-70452D01*
X89602Y-70629D02*
X89425Y-70452D01*
X87543Y-72574D02*
X86905Y-73212D01*
X86905Y-73212D02*
X84377Y-73212D01*
X87543Y-72476D02*
X87543Y-72574D01*
X102755Y-47185D02*
X102755Y-46653D01*
X102755Y-47185D02*
X102755Y-47047D01*
X102755Y-53700D02*
X102755Y-47047D01*
G54D32*
X97539Y-62696D02*
X97785Y-62450D01*
X97785Y-62450D02*
X99675Y-62450D01*
G54D10*
X99803Y-62322D02*
X100944Y-61181D01*
X102755Y-59370D02*
X100944Y-61181D01*
X102755Y-53582D02*
X102755Y-53700D01*
X102755Y-53700D02*
X102755Y-59370D01*
X99675Y-62450D02*
X99803Y-62322D01*
X102755Y-46653D02*
X104763Y-44645D01*
X111023Y-44409D02*
X110787Y-44645D01*
X110787Y-44645D02*
X104763Y-44645D01*
X102952Y-46751D02*
X102952Y-59409D01*
G54D32*
X98080Y-62549D02*
X97933Y-62696D01*
X98080Y-62549D02*
X99812Y-62549D01*
G54D10*
X102913Y-59448D02*
X101023Y-61338D01*
X99812Y-62549D02*
X101023Y-61338D01*
X102913Y-59448D02*
X102952Y-59409D01*
X104665Y-45039D02*
X110354Y-45039D01*
X110511Y-44881D02*
X110354Y-45039D01*
X104665Y-45039D02*
X102952Y-46751D01*
X105000Y-49133D02*
X110787Y-49133D01*
X110787Y-49133D02*
X111023Y-48897D01*
X104330Y-60118D02*
X104724Y-59724D01*
X100718Y-63730D02*
X102637Y-61811D01*
X104330Y-60118D02*
X102637Y-61811D01*
G54D32*
X98080Y-63730D02*
X100718Y-63730D01*
X97933Y-63877D02*
X98080Y-63730D01*
G54D10*
X104724Y-49409D02*
X105000Y-49133D01*
X104724Y-59724D02*
X104724Y-49409D01*
X111023Y-48897D02*
X110787Y-49133D01*
G54D32*
X98326Y-63877D02*
X98444Y-63877D01*
X98484Y-63838D02*
X100846Y-63838D01*
X98444Y-63877D02*
X98484Y-63838D01*
G54D10*
X104921Y-49763D02*
X108809Y-49763D01*
X108809Y-49763D02*
X109005Y-49566D01*
X104488Y-60196D02*
X104921Y-59763D01*
X100846Y-63838D02*
X102834Y-61850D01*
X104488Y-60196D02*
X102834Y-61850D01*
X104921Y-59763D02*
X104921Y-49763D01*
X110314Y-49566D02*
X109005Y-49566D01*
X110511Y-49370D02*
X110314Y-49566D01*
X103149Y-47381D02*
X103149Y-46850D01*
X103149Y-46850D02*
X104803Y-45196D01*
X103149Y-47381D02*
X103149Y-47204D01*
X103070Y-59488D02*
X103149Y-59409D01*
X103149Y-59409D02*
X103149Y-47204D01*
G54D32*
X99862Y-62696D02*
X98326Y-62696D01*
G54D10*
X103070Y-59488D02*
X101141Y-61417D01*
X99862Y-62696D02*
X101141Y-61417D01*
X111023Y-44881D02*
X110708Y-45196D01*
X110708Y-45196D02*
X104803Y-45196D01*
X104685Y-45629D02*
X110275Y-45629D01*
X110511Y-45393D02*
X110275Y-45629D01*
X104685Y-45629D02*
X103346Y-46968D01*
X103346Y-46968D02*
X103346Y-59448D01*
G54D32*
X97785Y-62844D02*
X97539Y-63090D01*
X97785Y-62844D02*
X99950Y-62844D01*
G54D10*
X103228Y-59566D02*
X101299Y-61496D01*
X99950Y-62844D02*
X101299Y-61496D01*
X103228Y-59566D02*
X103346Y-59448D01*
X103543Y-47775D02*
X103543Y-59488D01*
G54D32*
X98070Y-62952D02*
X97933Y-63090D01*
X98080Y-62942D02*
X100088Y-62942D01*
X98070Y-62952D02*
X98080Y-62942D01*
G54D10*
X103385Y-59645D02*
X101456Y-61574D01*
X100088Y-62942D02*
X101456Y-61574D01*
X103385Y-59645D02*
X103543Y-59488D01*
X103543Y-47775D02*
X103543Y-47165D01*
X103543Y-47165D02*
X104527Y-46181D01*
X111023Y-45905D02*
X110748Y-46181D01*
X110748Y-46181D02*
X104527Y-46181D01*
X103543Y-59724D02*
X103740Y-59527D01*
X100177Y-63090D02*
X101614Y-61653D01*
X110511Y-46889D02*
X110275Y-47125D01*
X103543Y-59724D02*
X101614Y-61653D01*
X110275Y-47125D02*
X104173Y-47125D01*
G54D32*
X100177Y-63090D02*
X98326Y-63090D01*
G54D10*
X103740Y-47559D02*
X104173Y-47125D01*
X103740Y-59527D02*
X103740Y-47559D01*
X103937Y-48366D02*
X103937Y-59566D01*
G54D32*
X96604Y-64025D02*
X96358Y-64271D01*
X97381Y-63238D02*
X100265Y-63238D01*
X97293Y-63326D02*
X97381Y-63238D01*
X97293Y-63946D02*
X97293Y-63326D01*
X97214Y-64025D02*
X97293Y-63946D01*
X96604Y-64025D02*
X97214Y-64025D01*
G54D10*
X103700Y-59803D02*
X101811Y-61692D01*
X100265Y-63238D02*
X101811Y-61692D01*
X103700Y-59803D02*
X103937Y-59566D01*
X103937Y-48366D02*
X103937Y-47972D01*
X103937Y-47972D02*
X104271Y-47637D01*
X111023Y-47401D02*
X110787Y-47637D01*
X110787Y-47637D02*
X104271Y-47637D01*
X104133Y-48188D02*
X104133Y-59606D01*
G54D32*
X96879Y-64143D02*
X96751Y-64271D01*
X97431Y-63336D02*
X100403Y-63336D01*
X97391Y-63375D02*
X97431Y-63336D01*
X97391Y-63996D02*
X97391Y-63375D01*
X97263Y-64124D02*
X97391Y-63996D01*
X96899Y-64124D02*
X97263Y-64124D01*
X96879Y-64143D02*
X96899Y-64124D01*
G54D10*
X100403Y-63336D02*
X102007Y-61732D01*
X103858Y-59881D02*
X102007Y-61732D01*
X103858Y-59881D02*
X104133Y-59606D01*
X104291Y-48031D02*
X104133Y-48188D01*
X110354Y-48031D02*
X104291Y-48031D01*
X110511Y-47874D02*
X110354Y-48031D01*
X104330Y-48562D02*
X104330Y-59645D01*
G54D32*
X100492Y-63484D02*
X98326Y-63484D01*
G54D10*
X100492Y-63484D02*
X102204Y-61771D01*
X104015Y-59960D02*
X102204Y-61771D01*
X104015Y-59960D02*
X104330Y-59645D01*
X110708Y-48188D02*
X104704Y-48188D01*
X111023Y-47874D02*
X110708Y-48188D01*
X104704Y-48188D02*
X104330Y-48562D01*
X104670Y-48813D02*
X108174Y-48813D01*
X108174Y-48813D02*
X108366Y-48622D01*
X104527Y-48956D02*
X104527Y-59685D01*
G54D32*
X97785Y-63631D02*
X97539Y-63877D01*
X97785Y-63631D02*
X100580Y-63631D01*
G54D10*
X100580Y-63631D02*
X102440Y-61771D01*
X104173Y-60039D02*
X102440Y-61771D01*
X104173Y-60039D02*
X104527Y-59685D01*
X104670Y-48813D02*
X104527Y-48956D01*
X110511Y-48385D02*
X110275Y-48622D01*
X110275Y-48622D02*
X108366Y-48622D01*
X105314Y-60551D02*
X105905Y-59960D01*
X101279Y-64586D02*
X103976Y-61889D01*
X110511Y-51377D02*
X110236Y-51653D01*
X105314Y-60551D02*
X103976Y-61889D01*
G54D32*
X98041Y-64379D02*
X98080Y-64419D01*
X98080Y-64419D02*
X98858Y-64419D01*
X98858Y-64419D02*
X99025Y-64586D01*
X99025Y-64586D02*
X101279Y-64586D01*
X98041Y-64379D02*
X97933Y-64271D01*
G54D10*
X106102Y-51653D02*
X110236Y-51653D01*
X105905Y-51850D02*
X106102Y-51653D01*
X105905Y-59960D02*
X105905Y-51850D01*
X104960Y-60433D02*
X105511Y-59881D01*
X110511Y-50905D02*
X110354Y-51062D01*
X105787Y-51062D02*
X110354Y-51062D01*
X105511Y-51338D02*
X105787Y-51062D01*
X105511Y-59881D02*
X105511Y-51338D01*
G54D32*
X98326Y-64271D02*
X101122Y-64271D01*
G54D10*
X105000Y-60393D02*
X104960Y-60433D01*
X104960Y-60433D02*
X103503Y-61889D01*
X101122Y-64271D02*
X103503Y-61889D01*
X108149Y-55551D02*
X108070Y-55629D01*
X110511Y-55393D02*
X110354Y-55551D01*
X108149Y-55551D02*
X110354Y-55551D01*
X108070Y-58011D02*
X108070Y-58267D01*
X105216Y-62952D02*
X105314Y-62952D01*
X111023Y-55393D02*
X110708Y-55708D01*
X105216Y-62952D02*
X102293Y-65875D01*
G54D32*
X97391Y-65698D02*
X98562Y-65698D01*
X98562Y-65698D02*
X98740Y-65875D01*
X98740Y-65875D02*
X102293Y-65875D01*
X97391Y-65698D02*
X97145Y-65452D01*
G54D10*
X108267Y-55708D02*
X110708Y-55708D01*
X108070Y-55905D02*
X108267Y-55708D01*
X108070Y-60196D02*
X108070Y-58011D01*
X108070Y-58011D02*
X108070Y-55905D01*
X105314Y-62952D02*
X108070Y-60196D01*
X106299Y-52125D02*
X110787Y-52125D01*
X110787Y-52125D02*
X111023Y-51889D01*
X106102Y-52519D02*
X106102Y-52322D01*
X106102Y-52322D02*
X106299Y-52125D01*
X105472Y-60629D02*
X106102Y-60000D01*
X101407Y-64694D02*
X104212Y-61889D01*
X111023Y-51889D02*
X110787Y-52125D01*
X105472Y-60629D02*
X104212Y-61889D01*
G54D32*
X96486Y-64537D02*
X96505Y-64517D01*
X96505Y-64517D02*
X98799Y-64517D01*
X98799Y-64517D02*
X98976Y-64694D01*
X98976Y-64694D02*
X101407Y-64694D01*
X96486Y-64537D02*
X96358Y-64665D01*
G54D10*
X106102Y-60000D02*
X106102Y-52519D01*
G54D32*
X98779Y-64812D02*
X98877Y-64911D01*
G54D10*
X106968Y-52716D02*
X106771Y-52913D01*
X105787Y-60787D02*
X106496Y-60078D01*
X101663Y-64911D02*
X104685Y-61889D01*
X111023Y-52401D02*
X110708Y-52716D01*
X105787Y-60787D02*
X104685Y-61889D01*
G54D32*
X98061Y-64793D02*
X98080Y-64812D01*
X98080Y-64812D02*
X98435Y-64812D01*
X98061Y-64793D02*
X97933Y-64665D01*
X98877Y-64911D02*
X101663Y-64911D01*
X98435Y-64812D02*
X98779Y-64812D01*
G54D10*
X106968Y-52716D02*
X110708Y-52716D01*
X106496Y-53188D02*
X106968Y-52716D01*
X106496Y-60078D02*
X106496Y-53188D01*
X106092Y-60905D02*
X106102Y-60905D01*
X111023Y-53385D02*
X110748Y-53661D01*
G54D32*
X97785Y-64911D02*
X97539Y-64665D01*
X97785Y-64911D02*
X98297Y-64911D01*
G54D10*
X106092Y-60905D02*
X101771Y-65226D01*
G54D32*
X98720Y-64911D02*
X99035Y-65226D01*
X99035Y-65226D02*
X101771Y-65226D01*
X98297Y-64911D02*
X98720Y-64911D01*
G54D10*
X107204Y-53661D02*
X110748Y-53661D01*
X106889Y-53976D02*
X107204Y-53661D01*
X106889Y-60118D02*
X106889Y-53976D01*
X106102Y-60905D02*
X106889Y-60118D01*
X106299Y-52952D02*
X106299Y-53051D01*
X105629Y-60708D02*
X106299Y-60039D01*
X101535Y-64803D02*
X104448Y-61889D01*
X110511Y-52401D02*
X110354Y-52559D01*
X105629Y-60708D02*
X104448Y-61889D01*
G54D32*
X98799Y-64665D02*
X98937Y-64803D01*
X98937Y-64803D02*
X101535Y-64803D01*
X98799Y-64665D02*
X98326Y-64665D01*
G54D10*
X106692Y-52559D02*
X110354Y-52559D01*
X106299Y-52952D02*
X106692Y-52559D01*
X106299Y-60039D02*
X106299Y-52952D01*
X107677Y-54055D02*
X107362Y-54370D01*
X105910Y-61304D02*
X105939Y-61304D01*
X110511Y-53897D02*
X110354Y-54055D01*
X107677Y-54055D02*
X110354Y-54055D01*
X107086Y-54645D02*
X107677Y-54055D01*
X107086Y-60157D02*
X107086Y-54645D01*
X105939Y-61304D02*
X107086Y-60157D01*
G54D32*
X98326Y-65059D02*
X98720Y-65059D01*
X98996Y-65334D02*
X101879Y-65334D01*
X98720Y-65059D02*
X98996Y-65334D01*
G54D10*
X105915Y-61299D02*
X105910Y-61304D01*
X105910Y-61304D02*
X101879Y-65334D01*
X107283Y-54763D02*
X107283Y-55157D01*
X105935Y-61456D02*
X106023Y-61456D01*
X111023Y-53897D02*
X110708Y-54212D01*
G54D32*
X98080Y-65206D02*
X97933Y-65059D01*
G54D10*
X105935Y-61456D02*
X101948Y-65442D01*
G54D32*
X98700Y-65206D02*
X98937Y-65442D01*
X98937Y-65442D02*
X101948Y-65442D01*
X98080Y-65206D02*
X98700Y-65206D01*
G54D10*
X107834Y-54212D02*
X110708Y-54212D01*
X107283Y-54763D02*
X107834Y-54212D01*
X107283Y-60196D02*
X107283Y-54763D01*
X106023Y-61456D02*
X107283Y-60196D01*
X107874Y-55157D02*
X110748Y-55157D01*
X110748Y-55157D02*
X111023Y-54881D01*
X105364Y-62401D02*
X105472Y-62401D01*
X111023Y-54881D02*
X110748Y-55157D01*
X105364Y-62401D02*
X102106Y-65659D01*
G54D32*
X98631Y-65452D02*
X98838Y-65659D01*
X98838Y-65659D02*
X102106Y-65659D01*
X98631Y-65452D02*
X98326Y-65452D01*
G54D10*
X107677Y-55354D02*
X107874Y-55157D01*
X107677Y-60196D02*
X107677Y-55354D01*
X105472Y-62401D02*
X107677Y-60196D01*
X107480Y-57106D02*
X107480Y-57381D01*
X105684Y-61904D02*
X105772Y-61904D01*
X110511Y-54409D02*
X110275Y-54645D01*
X107755Y-54645D02*
X110275Y-54645D01*
X107480Y-54921D02*
X107755Y-54645D01*
X107480Y-60196D02*
X107480Y-57106D01*
X107480Y-57106D02*
X107480Y-54921D01*
X105772Y-61904D02*
X107480Y-60196D01*
G54D32*
X96496Y-65314D02*
X96505Y-65305D01*
X96505Y-65305D02*
X98651Y-65305D01*
X98651Y-65305D02*
X98897Y-65551D01*
X98897Y-65551D02*
X102037Y-65551D01*
X96496Y-65314D02*
X96358Y-65452D01*
G54D10*
X105698Y-61889D02*
X105684Y-61904D01*
X105684Y-61904D02*
X102037Y-65551D01*
X84921Y-61692D02*
X84921Y-60767D01*
X85137Y-61909D02*
X84921Y-61692D01*
X90492Y-61161D02*
X91240Y-61909D01*
X89035Y-59704D02*
X90492Y-61161D01*
X85984Y-59704D02*
X89035Y-59704D01*
X84921Y-60767D02*
X85984Y-59704D01*
X86299Y-61279D02*
X86299Y-61496D01*
X86299Y-61496D02*
X86437Y-61633D01*
X86299Y-61279D02*
X86299Y-60964D01*
X87559Y-60511D02*
X89586Y-62539D01*
X86751Y-60511D02*
X87559Y-60511D01*
X86299Y-60964D02*
X86751Y-60511D01*
G54D32*
X90452Y-62696D02*
X90314Y-62559D01*
X90314Y-62559D02*
X90295Y-62539D01*
X90295Y-62539D02*
X89586Y-62539D01*
X89586Y-62539D02*
X89596Y-62539D01*
X90305Y-63730D02*
X90698Y-63730D01*
X90698Y-63730D02*
X90846Y-63877D01*
G54D10*
X88075Y-62337D02*
X87647Y-61909D01*
X87647Y-61909D02*
X87027Y-61909D01*
G54D32*
X89704Y-63730D02*
X89468Y-63730D01*
G54D10*
X88075Y-62337D02*
X89468Y-63730D01*
G54D32*
X90305Y-63730D02*
X89704Y-63730D01*
X89704Y-63730D02*
X89625Y-63730D01*
G54D10*
X87736Y-60098D02*
X88346Y-60098D01*
X89891Y-61643D02*
X89891Y-62027D01*
X88346Y-60098D02*
X89891Y-61643D01*
X85511Y-61141D02*
X85511Y-60748D01*
G54D32*
X89921Y-62057D02*
X89891Y-62027D01*
X90994Y-62057D02*
X89921Y-62057D01*
X91013Y-62076D02*
X90994Y-62057D01*
X91013Y-62076D02*
X91240Y-62303D01*
G54D10*
X86161Y-60098D02*
X87736Y-60098D01*
X85511Y-60748D02*
X86161Y-60098D01*
G54D32*
X92421Y-64665D02*
X92194Y-64438D01*
X87194Y-60797D02*
X87027Y-60964D01*
X87460Y-60797D02*
X87194Y-60797D01*
X87519Y-60856D02*
X87460Y-60797D01*
X87519Y-60994D02*
X87519Y-60856D01*
X89389Y-62864D02*
X87519Y-60994D01*
X89675Y-62864D02*
X89389Y-62864D01*
X89803Y-62992D02*
X89675Y-62864D01*
X89803Y-63100D02*
X89803Y-62992D01*
X89940Y-63238D02*
X89803Y-63100D01*
X91751Y-63238D02*
X89940Y-63238D01*
X91879Y-63366D02*
X91751Y-63238D01*
X91879Y-64340D02*
X91879Y-63366D01*
X91958Y-64419D02*
X91879Y-64340D01*
X92175Y-64419D02*
X91958Y-64419D01*
X92185Y-64429D02*
X92175Y-64419D01*
X92194Y-64438D02*
X92185Y-64429D01*
G54D10*
X87500Y-60344D02*
X88100Y-60344D01*
X89586Y-61830D02*
X89586Y-62116D01*
X88100Y-60344D02*
X89586Y-61830D01*
X85846Y-61437D02*
X85846Y-60757D01*
X85511Y-61771D02*
X85846Y-61437D01*
G54D32*
X89921Y-62450D02*
X89881Y-62411D01*
G54D10*
X89586Y-62116D02*
X89881Y-62411D01*
G54D32*
X90610Y-62460D02*
X90846Y-62696D01*
X90610Y-62460D02*
X90600Y-62450D01*
X90600Y-62450D02*
X89921Y-62450D01*
G54D10*
X86259Y-60344D02*
X87500Y-60344D01*
X85846Y-60757D02*
X86259Y-60344D01*
X88100Y-62185D02*
X87637Y-61722D01*
X87637Y-61722D02*
X87155Y-61722D01*
X87155Y-61722D02*
X87027Y-61594D01*
G54D32*
X89694Y-63631D02*
X89547Y-63631D01*
G54D10*
X88100Y-62185D02*
X89547Y-63631D01*
G54D32*
X91387Y-63631D02*
X89694Y-63631D01*
X89694Y-63631D02*
X89586Y-63631D01*
X91387Y-63631D02*
X91633Y-63877D01*
G54D10*
X85314Y-61417D02*
X85314Y-60757D01*
X85295Y-61437D02*
X85314Y-61417D01*
X85137Y-61594D02*
X85295Y-61437D01*
X90098Y-61555D02*
X90452Y-61909D01*
X88513Y-59970D02*
X90098Y-61555D01*
X86102Y-59970D02*
X88513Y-59970D01*
X85314Y-60757D02*
X86102Y-59970D01*
G54D32*
X89675Y-62696D02*
X89527Y-62696D01*
G54D10*
X86456Y-61023D02*
X86840Y-60639D01*
X86840Y-60639D02*
X87470Y-60639D01*
X87470Y-60639D02*
X89527Y-62696D01*
X86456Y-61338D02*
X86712Y-61594D01*
X86456Y-61338D02*
X86456Y-61023D01*
G54D32*
X90059Y-62696D02*
X89675Y-62696D01*
X89675Y-62696D02*
X89586Y-62696D01*
G54D10*
X86712Y-61594D02*
X86515Y-61397D01*
X87637Y-60226D02*
X88238Y-60226D01*
X89744Y-61732D02*
X89744Y-62076D01*
X88238Y-60226D02*
X89744Y-61732D01*
X85688Y-61279D02*
X85688Y-60748D01*
X85511Y-61456D02*
X85688Y-61279D01*
G54D32*
X90688Y-62145D02*
X89812Y-62145D01*
X90708Y-62165D02*
X90688Y-62145D01*
X90708Y-62165D02*
X90846Y-62303D01*
G54D10*
X89744Y-62076D02*
X89812Y-62145D01*
X86210Y-60226D02*
X87637Y-60226D01*
X85688Y-60748D02*
X86210Y-60226D01*
X88149Y-62047D02*
X87657Y-61555D01*
X87657Y-61555D02*
X87303Y-61555D01*
X87303Y-61555D02*
X87027Y-61279D01*
G54D32*
X89586Y-63484D02*
X90059Y-63484D01*
G54D10*
X88149Y-62047D02*
X89586Y-63484D01*
X85137Y-61279D02*
X85137Y-60738D01*
X90314Y-61377D02*
X90846Y-61909D01*
X88769Y-59832D02*
X90314Y-61377D01*
X86043Y-59832D02*
X88769Y-59832D01*
X85137Y-60738D02*
X86043Y-59832D01*
G54D32*
X91633Y-64271D02*
X91781Y-64124D01*
X86870Y-61122D02*
X86712Y-61279D01*
X87401Y-61122D02*
X86870Y-61122D01*
X89616Y-63336D02*
X87401Y-61122D01*
X91712Y-63336D02*
X89616Y-63336D01*
X91781Y-63405D02*
X91712Y-63336D01*
X91781Y-64124D02*
X91781Y-63405D01*
G54D10*
X86702Y-61269D02*
X86712Y-61279D01*
G54D32*
X85295Y-63779D02*
X85295Y-63641D01*
X85295Y-63641D02*
X85137Y-63484D01*
X86131Y-64232D02*
X85895Y-64232D01*
X85295Y-64242D02*
X85295Y-63779D01*
X85383Y-64330D02*
X85295Y-64242D01*
X85797Y-64330D02*
X85383Y-64330D01*
X85895Y-64232D02*
X85797Y-64330D01*
X92027Y-65452D02*
X92194Y-65285D01*
X92194Y-65285D02*
X92194Y-64990D01*
X92194Y-64990D02*
X92116Y-64911D01*
X92116Y-64911D02*
X87785Y-64911D01*
X87785Y-64911D02*
X87106Y-64232D01*
X87106Y-64232D02*
X86131Y-64232D01*
X87027Y-63484D02*
X87027Y-63397D01*
X88547Y-63677D02*
X89535Y-64665D01*
X88547Y-63326D02*
X88547Y-63677D01*
X88346Y-63125D02*
X88547Y-63326D01*
X87299Y-63125D02*
X88346Y-63125D01*
X87027Y-63397D02*
X87299Y-63125D01*
G54D10*
X89535Y-64665D02*
X90059Y-64665D01*
G54D32*
X86811Y-63366D02*
X86881Y-63366D01*
X86811Y-63366D02*
X86309Y-63366D01*
X86309Y-63366D02*
X86200Y-63474D01*
X86200Y-63474D02*
X86200Y-63956D01*
X86200Y-63956D02*
X86092Y-64064D01*
X86092Y-64064D02*
X85541Y-64064D01*
X85541Y-64064D02*
X85452Y-64153D01*
X89553Y-64517D02*
X89763Y-64517D01*
X88649Y-63614D02*
X89553Y-64517D01*
X88649Y-63255D02*
X88649Y-63614D01*
X88421Y-63027D02*
X88649Y-63255D01*
X87220Y-63027D02*
X88421Y-63027D01*
X86881Y-63366D02*
X87220Y-63027D01*
X90068Y-64517D02*
X89763Y-64517D01*
X90994Y-64517D02*
X90068Y-64517D01*
X91240Y-64271D02*
X90994Y-64517D01*
G54D10*
X89015Y-65206D02*
X87687Y-65206D01*
X87687Y-65206D02*
X87401Y-64921D01*
X89015Y-65206D02*
X89812Y-65206D01*
G54D32*
X89812Y-65206D02*
X91879Y-65206D01*
X92027Y-65059D02*
X91879Y-65206D01*
X87549Y-62687D02*
X88230Y-62687D01*
X89826Y-64271D02*
X90059Y-64271D01*
X89244Y-63688D02*
X89826Y-64271D01*
X88893Y-63688D02*
X89244Y-63688D01*
X88759Y-63555D02*
X88893Y-63688D01*
X88759Y-63216D02*
X88759Y-63555D01*
X88230Y-62687D02*
X88759Y-63216D01*
G54D10*
X85511Y-63031D02*
X85856Y-62687D01*
X85856Y-62687D02*
X87549Y-62687D01*
G54D32*
X90059Y-64271D02*
X89665Y-64271D01*
G54D10*
X85511Y-63031D02*
X85816Y-62726D01*
X90049Y-64281D02*
X90059Y-64271D01*
G54D32*
X91240Y-65452D02*
X91092Y-65305D01*
X84980Y-63326D02*
X84822Y-63169D01*
X84980Y-64281D02*
X84980Y-63326D01*
X85423Y-64724D02*
X84980Y-64281D01*
X85679Y-64724D02*
X85423Y-64724D01*
X86131Y-65177D02*
X85679Y-64724D01*
X86525Y-65177D02*
X86131Y-65177D01*
X86653Y-65305D02*
X86525Y-65177D01*
X91092Y-65305D02*
X86653Y-65305D01*
G54D10*
X88976Y-64812D02*
X88366Y-64812D01*
X87401Y-63848D02*
X87401Y-63661D01*
X88366Y-64812D02*
X87401Y-63848D01*
X88976Y-64812D02*
X89340Y-64812D01*
X89340Y-64812D02*
X89803Y-64812D01*
G54D32*
X90305Y-64812D02*
X89803Y-64812D01*
X90305Y-64812D02*
X90452Y-64665D01*
X91240Y-63868D02*
X91240Y-63877D01*
X88917Y-68326D02*
X88917Y-68041D01*
X92027Y-67578D02*
X91830Y-67775D01*
X91830Y-67775D02*
X91830Y-67834D01*
X91830Y-67834D02*
X91702Y-67962D01*
X91702Y-67962D02*
X88996Y-67962D01*
X92027Y-67578D02*
X92027Y-67421D01*
X88917Y-68041D02*
X88996Y-67962D01*
X87706Y-69547D02*
X88169Y-69547D01*
X88917Y-68100D02*
X88917Y-68326D01*
X88917Y-68326D02*
X88917Y-68799D01*
X88917Y-68799D02*
X88316Y-69399D01*
X88169Y-69547D02*
X88316Y-69399D01*
X87047Y-69645D02*
X87145Y-69547D01*
X87145Y-69547D02*
X87706Y-69547D01*
X86732Y-70275D02*
X86525Y-70068D01*
X87106Y-69803D02*
X87263Y-69645D01*
X87263Y-69645D02*
X87893Y-69645D01*
X88228Y-69645D02*
X88415Y-69458D01*
X89015Y-68858D02*
X88415Y-69458D01*
X89015Y-68435D02*
X89015Y-68858D01*
X87893Y-69645D02*
X88228Y-69645D01*
X86614Y-69803D02*
X87106Y-69803D01*
X86525Y-69891D02*
X86614Y-69803D01*
X86525Y-70068D02*
X86525Y-69891D01*
X89015Y-68435D02*
X89015Y-68149D01*
X92017Y-67814D02*
X91771Y-68061D01*
X91771Y-68061D02*
X89104Y-68061D01*
X92017Y-67814D02*
X92027Y-67814D01*
X89015Y-68149D02*
X89104Y-68061D01*
X89015Y-68169D02*
X89015Y-68435D01*
X85157Y-70590D02*
X85620Y-70590D01*
X86230Y-69980D02*
X86230Y-69576D01*
X85620Y-70590D02*
X86230Y-69980D01*
X86230Y-69576D02*
X86476Y-69330D01*
X91811Y-67244D02*
X92027Y-67027D01*
X91811Y-67244D02*
X91791Y-67263D01*
X89350Y-67568D02*
X89143Y-67568D01*
X89143Y-67568D02*
X88720Y-67992D01*
X86476Y-69330D02*
X87450Y-69330D01*
X88070Y-69330D02*
X88218Y-69183D01*
X88720Y-68681D02*
X88218Y-69183D01*
X88720Y-67992D02*
X88720Y-68681D01*
X91732Y-67568D02*
X89350Y-67568D01*
X91781Y-67519D02*
X91732Y-67568D01*
X91781Y-67273D02*
X91781Y-67519D01*
X91791Y-67263D02*
X91781Y-67273D01*
X87450Y-69330D02*
X88070Y-69330D01*
X89124Y-68622D02*
X89124Y-68484D01*
X92253Y-67814D02*
X92066Y-68001D01*
X92066Y-68001D02*
X91998Y-68001D01*
X91998Y-68001D02*
X91830Y-68169D01*
X91830Y-68169D02*
X91830Y-68238D01*
X91830Y-68238D02*
X91712Y-68356D01*
X91712Y-68356D02*
X89251Y-68356D01*
X92253Y-67814D02*
X92421Y-67814D01*
X89124Y-68484D02*
X89251Y-68356D01*
X87047Y-69960D02*
X88346Y-69960D01*
X89124Y-69183D02*
X89124Y-68622D01*
X88346Y-69960D02*
X89124Y-69183D01*
X88297Y-69960D02*
X87047Y-69960D01*
X87913Y-70118D02*
X88366Y-70118D01*
X91781Y-68454D02*
X89379Y-68454D01*
X89379Y-68454D02*
X89232Y-68602D01*
X89232Y-68602D02*
X89232Y-69251D01*
X89232Y-69251D02*
X88415Y-70068D01*
X91781Y-68454D02*
X92027Y-68208D01*
X88366Y-70118D02*
X88415Y-70068D01*
X86732Y-69960D02*
X86889Y-70118D01*
X86889Y-70118D02*
X87913Y-70118D01*
X87913Y-70118D02*
X88297Y-70118D01*
X90452Y-68996D02*
X90452Y-68986D01*
X87047Y-70275D02*
X88375Y-70275D01*
X92608Y-68021D02*
X92322Y-68021D01*
X92322Y-68021D02*
X92234Y-68110D01*
X92234Y-68110D02*
X92234Y-68208D01*
X92234Y-68208D02*
X92047Y-68395D01*
X92047Y-68395D02*
X91988Y-68395D01*
X91988Y-68395D02*
X91830Y-68553D01*
X91830Y-68553D02*
X91830Y-68661D01*
X91830Y-68661D02*
X91742Y-68750D01*
X91742Y-68750D02*
X89399Y-68750D01*
X89399Y-68750D02*
X89340Y-68809D01*
X89340Y-68809D02*
X89340Y-69311D01*
X89340Y-69311D02*
X88395Y-70255D01*
X92608Y-68021D02*
X92814Y-67814D01*
X88375Y-70275D02*
X88395Y-70255D01*
X88297Y-70275D02*
X87047Y-70275D01*
X88690Y-67175D02*
X87962Y-67175D01*
X87244Y-67559D02*
X87047Y-67755D01*
X87578Y-67559D02*
X87244Y-67559D01*
X87962Y-67175D02*
X87578Y-67559D01*
X90994Y-67175D02*
X88690Y-67175D01*
X88690Y-67175D02*
X88572Y-67175D01*
X90994Y-67175D02*
X91240Y-67421D01*
X86732Y-67598D02*
X86681Y-67598D01*
X86527Y-67444D02*
X86145Y-67444D01*
X86681Y-67598D02*
X86527Y-67444D01*
X85531Y-67283D02*
X85984Y-67283D01*
X85984Y-67283D02*
X86145Y-67444D01*
X90059Y-67027D02*
X87923Y-67027D01*
X87923Y-67027D02*
X87509Y-67440D01*
X87509Y-67440D02*
X87027Y-67440D01*
X87027Y-67440D02*
X86870Y-67598D01*
X86870Y-67598D02*
X86732Y-67598D01*
X85452Y-67125D02*
X86486Y-67125D01*
X86486Y-67125D02*
X86643Y-67283D01*
X88316Y-66870D02*
X87854Y-66870D01*
X87854Y-66870D02*
X87598Y-67125D01*
X87598Y-67125D02*
X87194Y-67125D01*
X87194Y-67125D02*
X87037Y-67283D01*
X87037Y-67283D02*
X86643Y-67283D01*
X85452Y-67125D02*
X84842Y-67125D01*
X90452Y-67027D02*
X90295Y-66870D01*
X90295Y-66870D02*
X88316Y-66870D01*
X88316Y-66870D02*
X88080Y-66870D01*
X90305Y-66486D02*
X87962Y-66486D01*
X87962Y-66486D02*
X87706Y-66230D01*
X87652Y-66176D02*
X85162Y-66176D01*
X85162Y-66176D02*
X85157Y-66181D01*
X90305Y-66486D02*
X90452Y-66633D01*
X85157Y-66181D02*
X84842Y-66496D01*
X87706Y-66230D02*
X87652Y-66176D01*
X90059Y-66633D02*
X87637Y-66633D01*
X87637Y-66633D02*
X87509Y-66505D01*
X87037Y-66505D02*
X87509Y-66505D01*
X85383Y-66584D02*
X85157Y-66811D01*
X87037Y-66505D02*
X86889Y-66653D01*
X86889Y-66653D02*
X86033Y-66653D01*
X86033Y-66653D02*
X85964Y-66584D01*
X85964Y-66584D02*
X85383Y-66584D01*
X94606Y-56889D02*
X95177Y-56889D01*
X94625Y-56889D02*
X94606Y-56889D01*
X94606Y-56889D02*
X89527Y-56889D01*
X87568Y-50984D02*
X87746Y-50984D01*
X88877Y-56240D02*
X89527Y-56889D01*
X88877Y-52116D02*
X88877Y-56240D01*
X87746Y-50984D02*
X88877Y-52116D01*
X94389Y-57037D02*
X95324Y-57037D01*
X94458Y-57037D02*
X94389Y-57037D01*
X94389Y-57037D02*
X89537Y-57037D01*
X87726Y-51190D02*
X88789Y-52253D01*
X88789Y-52253D02*
X88789Y-56289D01*
X88789Y-56289D02*
X89537Y-57037D01*
X87726Y-51181D02*
X87726Y-51190D01*
X94271Y-58661D02*
X94114Y-58661D01*
X94104Y-58661D02*
X93976Y-58661D01*
X94114Y-58661D02*
X94104Y-58661D01*
X94271Y-58661D02*
X94655Y-59045D01*
X94655Y-59045D02*
X96584Y-59045D01*
X96584Y-59045D02*
X96968Y-58661D01*
X94271Y-58661D02*
X94488Y-58877D01*
X96968Y-58661D02*
X97933Y-58661D01*
X93976Y-58661D02*
X89596Y-58661D01*
X89596Y-58661D02*
X89493Y-58558D01*
X87726Y-53346D02*
X87726Y-56791D01*
X87726Y-56791D02*
X89493Y-58558D01*
X89493Y-58558D02*
X89527Y-58592D01*
X94055Y-58809D02*
X94261Y-58809D01*
X94261Y-58809D02*
X94596Y-59143D01*
X96643Y-59143D02*
X96978Y-58809D01*
X94596Y-59143D02*
X96643Y-59143D01*
X94261Y-58809D02*
X94429Y-58976D01*
X96978Y-58809D02*
X98080Y-58809D01*
X94114Y-58809D02*
X94104Y-58809D01*
X94104Y-58809D02*
X94055Y-58809D01*
X94055Y-58809D02*
X89566Y-58809D01*
X89566Y-58809D02*
X89453Y-58695D01*
X87568Y-53543D02*
X87568Y-56811D01*
X87568Y-56811D02*
X89453Y-58695D01*
X89453Y-58695D02*
X89498Y-58740D01*
X94212Y-57185D02*
X95570Y-57185D01*
X94232Y-57185D02*
X94212Y-57185D01*
X94212Y-57185D02*
X89547Y-57185D01*
X87746Y-51377D02*
X88700Y-52332D01*
X88700Y-52332D02*
X88700Y-56338D01*
X88700Y-56338D02*
X89547Y-57185D01*
X87568Y-51377D02*
X87746Y-51377D01*
X95718Y-57332D02*
X94114Y-57332D01*
X87726Y-51574D02*
X88612Y-52460D01*
X88612Y-56397D02*
X89547Y-57332D01*
X88612Y-52460D02*
X88612Y-56397D01*
X94114Y-57332D02*
X89547Y-57332D01*
X96062Y-57480D02*
X94114Y-57480D01*
X87568Y-51771D02*
X87755Y-51771D01*
X88523Y-56446D02*
X89557Y-57480D01*
X88523Y-52539D02*
X88523Y-56446D01*
X87755Y-51771D02*
X88523Y-52539D01*
X94114Y-57480D02*
X89557Y-57480D01*
X94074Y-57627D02*
X96210Y-57627D01*
X94114Y-57627D02*
X94074Y-57627D01*
X94074Y-57627D02*
X89566Y-57627D01*
X88366Y-52608D02*
X88435Y-52677D01*
X88435Y-52677D02*
X88435Y-56496D01*
X88435Y-56496D02*
X89566Y-57627D01*
X87726Y-51968D02*
X88366Y-52608D01*
X96751Y-58070D02*
X94114Y-58070D01*
X87726Y-52559D02*
X87726Y-52568D01*
X88159Y-56633D02*
X89596Y-58070D01*
X88159Y-53001D02*
X88159Y-56633D01*
X87726Y-52568D02*
X88159Y-53001D01*
X94114Y-58070D02*
X89596Y-58070D01*
X94074Y-58218D02*
X96899Y-58218D01*
X94114Y-58218D02*
X94074Y-58218D01*
X94074Y-58218D02*
X89596Y-58218D01*
X89596Y-58218D02*
X89493Y-58115D01*
X87568Y-52755D02*
X87765Y-52755D01*
X88070Y-56692D02*
X89493Y-58115D01*
X89493Y-58115D02*
X89537Y-58159D01*
X88070Y-53061D02*
X88070Y-56692D01*
X87765Y-52755D02*
X88070Y-53061D01*
X94045Y-58366D02*
X97293Y-58366D01*
X94114Y-58366D02*
X94045Y-58366D01*
X94045Y-58366D02*
X89606Y-58366D01*
X89606Y-58366D02*
X89488Y-58248D01*
X87726Y-52952D02*
X87982Y-53208D01*
X87982Y-56742D02*
X89488Y-58248D01*
X89488Y-58248D02*
X89547Y-58307D01*
X87982Y-53208D02*
X87982Y-56742D01*
X94074Y-58513D02*
X97539Y-58513D01*
X94114Y-58513D02*
X94074Y-58513D01*
X94074Y-58513D02*
X89606Y-58513D01*
X89606Y-58513D02*
X89498Y-58405D01*
X87568Y-53149D02*
X87755Y-53149D01*
X87755Y-53149D02*
X87874Y-53267D01*
X87874Y-56781D02*
X89498Y-58405D01*
X89498Y-58405D02*
X89537Y-58444D01*
X87874Y-53267D02*
X87874Y-56781D01*
G54D10*
X82263Y-58789D02*
X81919Y-58789D01*
X81919Y-58789D02*
X81909Y-58799D01*
X92086Y-59173D02*
X92984Y-59173D01*
X92984Y-59173D02*
X93358Y-59547D01*
X92086Y-59173D02*
X90688Y-59173D01*
X90688Y-59173D02*
X90492Y-59370D01*
X90492Y-59370D02*
X89537Y-59370D01*
X89537Y-59370D02*
X88956Y-58789D01*
X88956Y-58789D02*
X82263Y-58789D01*
X82263Y-58789D02*
X82047Y-58789D01*
X94783Y-59547D02*
X93358Y-59547D01*
G54D32*
X93750Y-69143D02*
X101013Y-69143D01*
X93750Y-69143D02*
X93602Y-68996D01*
X94094Y-72106D02*
X94822Y-72106D01*
X101082Y-72086D02*
X101102Y-72106D01*
X94842Y-72086D02*
X101082Y-72086D01*
X94822Y-72106D02*
X94842Y-72086D01*
X101417Y-72106D02*
X101102Y-72106D01*
X101417Y-72500D02*
X101251Y-72500D01*
X94671Y-72391D02*
X94094Y-72391D01*
X94881Y-72181D02*
X94671Y-72391D01*
X100933Y-72181D02*
X94881Y-72181D01*
X101251Y-72500D02*
X100933Y-72181D01*
X94094Y-72696D02*
X94492Y-72696D01*
X101061Y-72488D02*
X101269Y-72696D01*
X94700Y-72488D02*
X101061Y-72488D01*
X94492Y-72696D02*
X94700Y-72488D01*
X94724Y-72893D02*
X94901Y-72893D01*
X101043Y-72992D02*
X101141Y-72893D01*
X95000Y-72992D02*
X101043Y-72992D01*
X94901Y-72893D02*
X95000Y-72992D01*
X101141Y-72893D02*
X101417Y-72893D01*
X94891Y-73090D02*
X94566Y-73090D01*
X94645Y-73090D02*
X94891Y-73090D01*
X94891Y-73090D02*
X101269Y-73090D01*
X94251Y-73287D02*
X94610Y-73287D01*
X101110Y-73177D02*
X101220Y-73287D01*
X94720Y-73177D02*
X101110Y-73177D01*
X94610Y-73287D02*
X94720Y-73177D01*
X101220Y-73287D02*
X101417Y-73287D01*
X94409Y-73484D02*
X94547Y-73484D01*
X101045Y-73259D02*
X101269Y-73484D01*
X94771Y-73259D02*
X101045Y-73259D01*
X94547Y-73484D02*
X94771Y-73259D01*
G54D10*
X94055Y-75866D02*
X94389Y-75531D01*
X104960Y-75531D02*
X105000Y-75492D01*
X94389Y-75531D02*
X104960Y-75531D01*
X105885Y-75866D02*
X95354Y-75866D01*
X104507Y-76043D02*
X97401Y-76043D01*
X97401Y-76043D02*
X96594Y-76850D01*
X93188Y-75866D02*
X93720Y-75334D01*
X93740Y-75314D02*
X105708Y-75314D01*
X93720Y-75334D02*
X93740Y-75314D01*
X94921Y-75866D02*
X95098Y-75688D01*
X95098Y-75688D02*
X105531Y-75688D01*
G54D32*
X89212Y-47047D02*
X88641Y-47047D01*
X89921Y-47755D02*
X89212Y-47047D01*
X94242Y-47755D02*
X91594Y-47755D01*
X89921Y-47755D02*
X91594Y-47755D01*
G54D10*
X96161Y-50964D02*
X95649Y-50964D01*
X95649Y-50964D02*
X95482Y-51131D01*
X96141Y-50964D02*
X96161Y-50964D01*
X96161Y-50964D02*
X96240Y-50964D01*
X98415Y-51062D02*
X98513Y-50964D01*
X96338Y-51062D02*
X98415Y-51062D01*
X96240Y-50964D02*
X96338Y-51062D01*
X93976Y-51131D02*
X95482Y-51131D01*
X93818Y-51289D02*
X93976Y-51131D01*
X96033Y-50964D02*
X96141Y-50964D01*
X95777Y-51446D02*
X96072Y-51742D01*
X96072Y-51742D02*
X98287Y-51742D01*
X98287Y-51742D02*
X98336Y-51692D01*
X95777Y-51446D02*
X95501Y-51446D01*
X93976Y-51446D02*
X95501Y-51446D01*
X93818Y-51604D02*
X93976Y-51446D01*
X94822Y-51761D02*
X94291Y-51761D01*
X94291Y-51761D02*
X94133Y-51919D01*
X98090Y-51879D02*
X95688Y-51879D01*
X95688Y-51879D02*
X95570Y-51761D01*
X98690Y-51879D02*
X98090Y-51879D01*
X94822Y-51761D02*
X95570Y-51761D01*
X96155Y-53336D02*
X96515Y-53696D01*
X96515Y-53696D02*
X96515Y-53803D01*
X96515Y-53803D02*
X97440Y-54728D01*
X95551Y-53336D02*
X95984Y-53336D01*
X95393Y-53494D02*
X95551Y-53336D01*
X95984Y-53336D02*
X96155Y-53336D01*
X77007Y-59153D02*
X76673Y-59488D01*
X76673Y-59488D02*
X76161Y-59488D01*
X88789Y-59153D02*
X90974Y-61338D01*
X88789Y-59153D02*
X77007Y-59153D01*
X89468Y-59842D02*
X89478Y-59842D01*
X89478Y-59842D02*
X90974Y-61338D01*
X91838Y-61338D02*
X90974Y-61338D01*
X91838Y-61338D02*
X91952Y-61338D01*
X92204Y-62086D02*
X92421Y-62303D01*
X92204Y-61590D02*
X92204Y-62086D01*
X91952Y-61338D02*
X92204Y-61590D01*
X91850Y-61338D02*
X91838Y-61338D01*
X70590Y-58681D02*
X71279Y-58681D01*
X77952Y-58976D02*
X74507Y-58976D01*
X72913Y-58681D02*
X71279Y-58681D01*
X71279Y-58681D02*
X70944Y-58681D01*
X73051Y-58818D02*
X72913Y-58681D01*
X74350Y-58818D02*
X73051Y-58818D01*
X74507Y-58976D02*
X74350Y-58818D01*
X90482Y-59724D02*
X89685Y-59724D01*
X98248Y-59724D02*
X90482Y-59724D01*
X89685Y-59724D02*
X88937Y-58976D01*
X88937Y-58976D02*
X77952Y-58976D01*
X77952Y-58976D02*
X77519Y-58976D01*
G54D32*
X87775Y-65984D02*
X88779Y-65984D01*
X88779Y-65984D02*
X89183Y-66387D01*
X90846Y-66633D02*
X90600Y-66387D01*
X90600Y-66387D02*
X89183Y-66387D01*
X86515Y-66082D02*
X86358Y-65925D01*
X86742Y-66082D02*
X86515Y-66082D01*
X86840Y-65984D02*
X86742Y-66082D01*
X87775Y-65984D02*
X86840Y-65984D01*
X88110Y-65885D02*
X88858Y-65885D01*
X88858Y-65885D02*
X89064Y-66092D01*
X86574Y-65925D02*
X86692Y-65925D01*
X86732Y-65885D02*
X88110Y-65885D01*
X86692Y-65925D02*
X86732Y-65885D01*
X92175Y-66092D02*
X89064Y-66092D01*
X92185Y-66082D02*
X92175Y-66092D01*
X92185Y-66082D02*
X92421Y-65846D01*
X94084Y-57923D02*
X96358Y-57923D01*
X94114Y-57923D02*
X94084Y-57923D01*
X94084Y-57923D02*
X89586Y-57923D01*
X87765Y-52372D02*
X88248Y-52854D01*
X88248Y-52854D02*
X88248Y-56584D01*
X88248Y-56584D02*
X89586Y-57923D01*
X87568Y-52372D02*
X87765Y-52372D01*
X96505Y-57775D02*
X94114Y-57775D01*
X87568Y-52155D02*
X87687Y-52155D01*
X88336Y-56535D02*
X89576Y-57775D01*
X88336Y-52805D02*
X88336Y-56535D01*
X87687Y-52155D02*
X88336Y-52805D01*
X94114Y-57775D02*
X89576Y-57775D01*
G54D10*
X105118Y-50442D02*
X105118Y-50334D01*
X108809Y-50019D02*
X109143Y-49685D01*
X105433Y-50019D02*
X108809Y-50019D01*
X105118Y-50334D02*
X105433Y-50019D01*
X110521Y-49685D02*
X109143Y-49685D01*
X111023Y-49370D02*
X110708Y-49685D01*
X110708Y-49685D02*
X110521Y-49685D01*
X105118Y-56102D02*
X105118Y-55964D01*
X105118Y-55954D02*
X105118Y-50442D01*
X98700Y-56791D02*
X97342Y-56791D01*
X102185Y-51653D02*
X102185Y-51515D01*
X101948Y-51889D02*
X102185Y-51653D01*
X101948Y-53543D02*
X101948Y-51889D01*
X98700Y-56791D02*
X101948Y-53543D01*
G54D30*
X92027Y-68602D02*
X92224Y-68405D01*
X96161Y-68405D02*
X96358Y-68602D01*
X92224Y-68405D02*
X96161Y-68405D01*
G54D32*
X94773Y-50787D02*
X94606Y-50954D01*
X97696Y-50875D02*
X96368Y-50875D01*
X96279Y-50787D02*
X94773Y-50787D01*
X96368Y-50875D02*
X96279Y-50787D01*
G54D10*
X90413Y-50964D02*
X91092Y-50964D01*
X90413Y-50964D02*
X90236Y-51141D01*
X93976Y-51761D02*
X93346Y-51761D01*
X93346Y-51761D02*
X93031Y-51446D01*
X93031Y-51446D02*
X93031Y-51181D01*
X93031Y-51181D02*
X92814Y-50964D01*
X92814Y-50964D02*
X91092Y-50964D01*
X94133Y-51604D02*
X93976Y-51761D01*
X91092Y-50964D02*
X90866Y-50964D01*
G54D32*
X94751Y-49720D02*
X94789Y-49720D01*
X94789Y-49720D02*
X94822Y-49753D01*
X94901Y-49753D02*
X94822Y-49753D01*
X94763Y-49753D02*
X94901Y-49753D01*
X94901Y-49753D02*
X96318Y-49753D01*
X96220Y-56732D02*
X94192Y-56732D01*
X89625Y-56555D02*
X94015Y-56555D01*
X94192Y-56732D02*
X94015Y-56555D01*
X93976Y-49232D02*
X94586Y-49232D01*
X94586Y-49232D02*
X94763Y-49055D01*
X79645Y-49070D02*
X79653Y-49070D01*
X79653Y-49070D02*
X79814Y-49232D01*
X79814Y-49232D02*
X93976Y-49232D01*
X79645Y-49070D02*
X79629Y-49070D01*
X79649Y-49527D02*
X79649Y-49488D01*
X79649Y-49488D02*
X79816Y-49320D01*
X79649Y-49527D02*
X79629Y-49527D01*
X83986Y-49320D02*
X79816Y-49320D01*
X95383Y-49320D02*
X83986Y-49320D01*
X95383Y-49320D02*
X95551Y-49320D01*
X95383Y-49320D02*
X95531Y-49320D01*
G54D10*
X106200Y-50846D02*
X108188Y-50846D01*
X110787Y-50629D02*
X108405Y-50629D01*
X108188Y-50846D02*
X108405Y-50629D01*
X110787Y-50629D02*
X111023Y-50393D01*
X111023Y-50393D02*
X110787Y-50629D01*
X110039Y-58937D02*
X110039Y-57362D01*
X104665Y-64311D02*
X110039Y-58937D01*
X102519Y-66299D02*
X104507Y-64311D01*
X104507Y-64311D02*
X104665Y-64311D01*
X110039Y-57362D02*
X110511Y-56889D01*
X110511Y-56889D02*
X110374Y-57027D01*
X110374Y-57027D02*
X110334Y-57066D01*
G54D32*
X97106Y-66092D02*
X98927Y-66092D01*
X96761Y-65452D02*
X96948Y-65639D01*
X96948Y-65639D02*
X96948Y-65935D01*
X96948Y-65935D02*
X97057Y-66043D01*
X97057Y-66043D02*
X97106Y-66092D01*
X96751Y-65452D02*
X96761Y-65452D01*
X99133Y-66299D02*
X102519Y-66299D01*
X102519Y-66299D02*
X102529Y-66299D01*
X98927Y-66092D02*
X99133Y-66299D01*
G54D10*
X89074Y-72401D02*
X89074Y-72185D01*
X89185Y-72074D02*
X89255Y-72074D01*
X89074Y-72185D02*
X89185Y-72074D01*
G54D32*
X92350Y-72051D02*
X92409Y-71992D01*
X89818Y-72051D02*
X92350Y-72051D01*
X89279Y-72051D02*
X89255Y-72074D01*
X89818Y-72051D02*
X89279Y-72051D01*
G54D10*
X96346Y-71472D02*
X97192Y-71472D01*
X92582Y-71992D02*
X92913Y-71661D01*
X92913Y-71661D02*
X93255Y-71661D01*
X93255Y-71661D02*
X93444Y-71472D01*
X93444Y-71472D02*
X96346Y-71472D01*
X92409Y-71992D02*
X92523Y-71992D01*
X92523Y-71992D02*
X92582Y-71992D01*
X97192Y-71472D02*
X97240Y-71519D01*
G54D32*
X89255Y-72074D02*
X89255Y-72078D01*
X107303Y-64498D02*
X108061Y-64498D01*
X97145Y-68208D02*
X97391Y-68454D01*
X105836Y-65964D02*
X107224Y-64576D01*
X105836Y-66574D02*
X105836Y-65964D01*
X103956Y-68454D02*
X105836Y-66574D01*
X97391Y-68454D02*
X103956Y-68454D01*
X107224Y-64576D02*
X107303Y-64498D01*
X105098Y-65826D02*
X105098Y-65541D01*
X105098Y-65541D02*
X106171Y-64468D01*
X97273Y-67293D02*
X97293Y-67273D01*
X97293Y-67273D02*
X98838Y-67273D01*
X98838Y-67273D02*
X98897Y-67332D01*
X98897Y-67332D02*
X103828Y-67332D01*
X103828Y-67332D02*
X104173Y-66988D01*
X104173Y-66988D02*
X104812Y-66988D01*
X104812Y-66988D02*
X105098Y-66702D01*
X105098Y-66702D02*
X105098Y-65826D01*
X106171Y-64468D02*
X109242Y-61397D01*
X109242Y-61397D02*
X109842Y-61397D01*
X97145Y-67421D02*
X97273Y-67293D01*
X104399Y-69537D02*
X109251Y-64685D01*
X104399Y-69537D02*
X103582Y-69537D01*
X96210Y-69537D02*
X103582Y-69537D01*
X96210Y-69537D02*
X95964Y-69783D01*
X97667Y-66761D02*
X97539Y-66633D01*
X103070Y-67007D02*
X108297Y-61781D01*
X99045Y-67007D02*
X103070Y-67007D01*
X98818Y-66781D02*
X99045Y-67007D01*
X97687Y-66781D02*
X98818Y-66781D01*
X97667Y-66761D02*
X97687Y-66781D01*
X97145Y-66633D02*
X97381Y-66870D01*
X111200Y-59566D02*
X111023Y-59389D01*
X111200Y-59960D02*
X111200Y-59566D01*
X111072Y-60088D02*
X111200Y-59960D01*
X110226Y-60088D02*
X111072Y-60088D01*
X103208Y-67106D02*
X110226Y-60088D01*
X98996Y-67106D02*
X103208Y-67106D01*
X98769Y-66879D02*
X98996Y-67106D01*
X97391Y-66879D02*
X98769Y-66879D01*
X97381Y-66870D02*
X97391Y-66879D01*
X107903Y-64675D02*
X107352Y-64675D01*
X105944Y-66082D02*
X105944Y-66633D01*
X107352Y-64675D02*
X105944Y-66082D01*
X105944Y-66633D02*
X103828Y-68750D01*
X97145Y-68996D02*
X97391Y-68750D01*
X97391Y-68750D02*
X103828Y-68750D01*
X108243Y-64847D02*
X108415Y-64675D01*
X108051Y-64847D02*
X108243Y-64847D01*
X107736Y-64847D02*
X108051Y-64847D01*
X108051Y-64847D02*
X108203Y-64847D01*
X107957Y-64847D02*
X107736Y-64847D01*
X107736Y-64847D02*
X107357Y-64847D01*
X106062Y-66141D02*
X106062Y-66742D01*
X107357Y-64847D02*
X106062Y-66141D01*
X97539Y-68986D02*
X97677Y-68848D01*
X97539Y-68986D02*
X97539Y-68996D01*
X103956Y-68848D02*
X106062Y-66742D01*
X97677Y-68848D02*
X103956Y-68848D01*
X103710Y-68356D02*
X103887Y-68356D01*
X107273Y-64271D02*
X108061Y-64271D01*
X105728Y-65816D02*
X107273Y-64271D01*
X105728Y-66515D02*
X105728Y-65816D01*
X103887Y-68356D02*
X105728Y-66515D01*
X97687Y-68356D02*
X103710Y-68356D01*
X97687Y-68356D02*
X97539Y-68208D01*
X109109Y-60644D02*
X108764Y-60644D01*
X106673Y-62736D02*
X106673Y-63080D01*
X108764Y-60644D02*
X106673Y-62736D01*
X96751Y-65846D02*
X96751Y-65895D01*
X96751Y-65895D02*
X96998Y-66141D01*
X96998Y-66141D02*
X96998Y-66318D01*
X96998Y-66318D02*
X97066Y-66387D01*
X97066Y-66387D02*
X98690Y-66387D01*
X98690Y-66387D02*
X99104Y-66801D01*
X99104Y-66801D02*
X102952Y-66801D01*
X102952Y-66801D02*
X106673Y-63080D01*
X109862Y-59891D02*
X111023Y-59891D01*
X109109Y-60644D02*
X109862Y-59891D01*
G54D10*
X106102Y-51220D02*
X110708Y-51220D01*
X105157Y-60472D02*
X105708Y-59921D01*
G54D32*
X101205Y-64424D02*
X99099Y-64424D01*
X99099Y-64424D02*
X99094Y-64429D01*
G54D10*
X105157Y-60472D02*
X103740Y-61889D01*
X111023Y-50905D02*
X110708Y-51220D01*
X101205Y-64424D02*
X103740Y-61889D01*
X105944Y-51220D02*
X106102Y-51220D01*
X105708Y-51456D02*
X105944Y-51220D01*
X105708Y-59921D02*
X105708Y-51456D01*
X104744Y-63897D02*
X104881Y-63897D01*
G54D32*
X98080Y-65994D02*
X98986Y-65994D01*
X98986Y-65994D02*
X99192Y-66200D01*
X99192Y-66200D02*
X102440Y-66200D01*
X102440Y-66200D02*
X102460Y-66181D01*
G54D10*
X111003Y-56909D02*
X110748Y-56653D01*
X104744Y-63897D02*
X102460Y-66181D01*
G54D32*
X98080Y-65994D02*
X97933Y-65846D01*
G54D10*
X110354Y-56653D02*
X110748Y-56653D01*
X109842Y-57165D02*
X110354Y-56653D01*
X109842Y-58937D02*
X109842Y-57165D01*
X104881Y-63897D02*
X109842Y-58937D01*
G54D32*
X109645Y-63070D02*
X109645Y-63681D01*
X109645Y-63681D02*
X108956Y-64370D01*
X104330Y-68996D02*
X108956Y-64370D01*
X99251Y-68996D02*
X104330Y-68996D01*
G54D10*
X93503Y-52549D02*
X93110Y-52549D01*
X93110Y-52549D02*
X92952Y-52391D01*
X92411Y-52391D02*
X92145Y-52125D01*
X92952Y-52391D02*
X92411Y-52391D01*
X93818Y-52549D02*
X93661Y-52391D01*
X92214Y-51712D02*
X92214Y-51456D01*
X92421Y-51919D02*
X92214Y-51712D01*
X92647Y-51919D02*
X92421Y-51919D01*
X92805Y-52076D02*
X92647Y-51919D01*
X92952Y-52076D02*
X92805Y-52076D01*
X93031Y-52155D02*
X92952Y-52076D01*
X93031Y-52303D02*
X93031Y-52155D01*
X93120Y-52391D02*
X93031Y-52303D01*
X93661Y-52391D02*
X93120Y-52391D01*
X93818Y-52234D02*
X93661Y-52076D01*
X92372Y-51358D02*
X92214Y-51200D01*
X92372Y-51545D02*
X92372Y-51358D01*
X92431Y-51604D02*
X92372Y-51545D01*
X92637Y-51604D02*
X92431Y-51604D01*
X92795Y-51761D02*
X92637Y-51604D01*
X92972Y-51761D02*
X92795Y-51761D01*
X93031Y-51820D02*
X92972Y-51761D01*
X93031Y-51988D02*
X93031Y-51820D01*
X93120Y-52076D02*
X93031Y-51988D01*
X93661Y-52076D02*
X93120Y-52076D01*
G54D32*
X98513Y-52076D02*
X98551Y-52039D01*
X98307Y-52076D02*
X98513Y-52076D01*
X95551Y-52076D02*
X95393Y-52234D01*
X95551Y-52076D02*
X98307Y-52076D01*
X96240Y-70921D02*
X98015Y-70921D01*
X98015Y-70921D02*
X98322Y-70614D01*
X95905Y-70921D02*
X95948Y-70921D01*
X89188Y-71598D02*
X89346Y-71598D01*
X90023Y-70921D02*
X95905Y-70921D01*
X95905Y-70921D02*
X96240Y-70921D01*
X96240Y-70921D02*
X96397Y-70921D01*
X89346Y-71598D02*
X90023Y-70921D01*
G54D10*
X94783Y-70177D02*
X94783Y-70187D01*
X94783Y-70187D02*
X95009Y-70413D01*
X95009Y-70413D02*
X98421Y-70413D01*
X100019Y-70637D02*
X101724Y-70637D01*
X101724Y-70637D02*
X101948Y-70413D01*
X98645Y-70637D02*
X98421Y-70413D01*
X100019Y-70637D02*
X98645Y-70637D01*
X101968Y-70393D02*
X102057Y-70305D01*
X101948Y-70413D02*
X101968Y-70393D01*
X102057Y-70305D02*
X102480Y-70305D01*
X102480Y-70305D02*
X102657Y-70482D01*
G54D32*
X96505Y-67175D02*
X98897Y-67175D01*
X98897Y-67175D02*
X98946Y-67224D01*
X98946Y-67224D02*
X103316Y-67224D01*
X103316Y-67224D02*
X103553Y-66988D01*
X103553Y-66988D02*
X103868Y-66988D01*
X103868Y-66988D02*
X104222Y-66633D01*
X104222Y-66633D02*
X104773Y-66633D01*
X104773Y-66633D02*
X104940Y-66466D01*
X104940Y-66466D02*
X104940Y-65531D01*
X104940Y-65531D02*
X110059Y-60413D01*
X110059Y-60413D02*
X110295Y-60413D01*
X96505Y-67175D02*
X96358Y-67027D01*
G54D10*
X105078Y-63326D02*
X105216Y-63326D01*
X102362Y-66043D02*
X99311Y-66043D01*
X105078Y-63326D02*
X102362Y-66043D01*
X109685Y-56732D02*
X110511Y-55905D01*
X109685Y-58858D02*
X109685Y-56732D01*
X105216Y-63326D02*
X109685Y-58858D01*
X110354Y-56062D02*
X110334Y-56082D01*
X110511Y-55905D02*
X110354Y-56062D01*
X108435Y-53149D02*
X108238Y-53149D01*
X106417Y-60393D02*
X106692Y-60118D01*
X110275Y-53149D02*
X108435Y-53149D01*
X108435Y-53149D02*
X106929Y-53149D01*
X110511Y-52913D02*
X110275Y-53149D01*
X106692Y-53385D02*
X106929Y-53149D01*
X106692Y-60118D02*
X106692Y-53385D01*
X106417Y-60393D02*
X101742Y-65068D01*
X101742Y-65068D02*
X99311Y-65068D01*
X106417Y-60393D02*
X104921Y-61889D01*
X87366Y-40043D02*
X87362Y-40039D01*
X87366Y-42775D02*
X87366Y-40043D01*
X100665Y-45480D02*
X89110Y-45480D01*
X87366Y-43736D02*
X87366Y-42775D01*
X87366Y-42775D02*
X87366Y-42661D01*
X89110Y-45480D02*
X87366Y-43736D01*
X88515Y-40047D02*
X88523Y-40039D01*
X88515Y-40047D02*
X88515Y-42736D01*
X89755Y-45279D02*
X88515Y-44039D01*
X88515Y-44039D02*
X88515Y-42736D01*
X88515Y-42736D02*
X88515Y-42562D01*
X100244Y-45279D02*
X89755Y-45279D01*
X89527Y-40196D02*
X89527Y-43188D01*
X89527Y-43188D02*
X90578Y-44240D01*
X99196Y-44240D02*
X90578Y-44240D01*
G54D30*
X71279Y-48720D02*
X74586Y-48720D01*
X75078Y-40433D02*
X76240Y-39271D01*
X75078Y-48228D02*
X75078Y-40433D01*
X74586Y-48720D02*
X75078Y-48228D01*
X80255Y-39271D02*
X80984Y-38543D01*
X76240Y-39271D02*
X80255Y-39271D01*
G54D32*
X93572Y-74212D02*
X93129Y-74655D01*
X93129Y-74655D02*
X92834Y-74655D01*
X104635Y-74212D02*
X93572Y-74212D01*
G54D10*
X92834Y-81574D02*
X91338Y-81574D01*
X86929Y-80826D02*
X85708Y-82047D01*
X90590Y-80826D02*
X86929Y-80826D01*
X91338Y-81574D02*
X90590Y-80826D01*
X86181Y-81574D02*
X85708Y-82047D01*
X100708Y-81574D02*
X101200Y-81082D01*
X91692Y-81574D02*
X92834Y-81574D01*
X92834Y-81574D02*
X100708Y-81574D01*
X101889Y-81082D02*
X101200Y-81082D01*
G54D32*
X94143Y-67962D02*
X102500Y-67962D01*
X94143Y-67962D02*
X93996Y-67814D01*
X104271Y-74763D02*
X93356Y-74763D01*
G54D10*
X92086Y-81929D02*
X91102Y-81929D01*
X89606Y-81299D02*
X88858Y-82047D01*
X90472Y-81299D02*
X89606Y-81299D01*
X91102Y-81929D02*
X90472Y-81299D01*
X102244Y-81929D02*
X102401Y-81771D01*
X91377Y-81929D02*
X92086Y-81929D01*
X92086Y-81929D02*
X102244Y-81929D01*
G54D32*
X102696Y-71338D02*
X93277Y-71338D01*
X93129Y-71486D02*
X92913Y-71486D01*
X93277Y-71338D02*
X93129Y-71486D01*
X93789Y-75078D02*
X103877Y-75078D01*
G54D10*
X91771Y-81771D02*
X91259Y-81771D01*
X89055Y-81062D02*
X88070Y-82047D01*
X90551Y-81062D02*
X89055Y-81062D01*
X91259Y-81771D02*
X90551Y-81062D01*
X102893Y-69301D02*
X102879Y-69301D01*
G54D32*
X101437Y-69409D02*
X101328Y-69301D01*
X102771Y-69409D02*
X101437Y-69409D01*
X102879Y-69301D02*
X102771Y-69409D01*
G54D10*
X101988Y-81771D02*
X102500Y-81259D01*
X91299Y-81771D02*
X91771Y-81771D01*
X91771Y-81771D02*
X101988Y-81771D01*
X102893Y-81259D02*
X102500Y-81259D01*
G54D32*
X91486Y-69242D02*
X100797Y-69242D01*
X91486Y-69242D02*
X91240Y-68996D01*
X100856Y-69301D02*
X101328Y-69301D01*
X100797Y-69242D02*
X100856Y-69301D01*
X94035Y-74921D02*
X103484Y-74921D01*
X93848Y-68061D02*
X102303Y-68061D01*
X102303Y-68061D02*
X102372Y-68129D01*
X102372Y-68129D02*
X103287Y-68129D01*
X93848Y-68061D02*
X93602Y-67814D01*
X103838Y-67667D02*
X104114Y-67667D01*
X93454Y-67667D02*
X93208Y-67421D01*
X93454Y-67667D02*
X103838Y-67667D01*
X91003Y-69625D02*
X90994Y-69635D01*
X90994Y-69635D02*
X89822Y-69635D01*
X89822Y-69635D02*
X89635Y-69822D01*
X89635Y-69822D02*
X89074Y-69822D01*
X91240Y-69389D02*
X91003Y-69625D01*
G54D31*
X81220Y-60039D02*
X73385Y-60039D01*
G54D32*
X94814Y-73429D02*
X97196Y-73429D01*
X89832Y-71545D02*
X89832Y-71269D01*
X89832Y-71269D02*
X90090Y-71011D01*
X90090Y-71011D02*
X92066Y-71011D01*
X92066Y-71011D02*
X92354Y-71299D01*
X92354Y-71299D02*
X92354Y-71602D01*
G54D10*
X89783Y-70433D02*
X90826Y-70433D01*
X95787Y-70000D02*
X95964Y-70177D01*
X91141Y-70000D02*
X95787Y-70000D01*
X91023Y-70118D02*
X91141Y-70000D01*
X91023Y-70236D02*
X91023Y-70118D01*
X90826Y-70433D02*
X91023Y-70236D01*
M02*
