G04 (created by PCBNEW (2013-07-07 BZR 4022)-stable) date 10/02/2015 04:29:17*
%MOIN*%
G04 Gerber Fmt 3.4, Leading zero omitted, Abs format*
%FSLAX34Y34*%
G01*
G70*
G90*
G04 APERTURE LIST*
%ADD10C,0.00590551*%
%ADD11R,0.0392X0.0392*%
%ADD12R,0.015748X0.0265748*%
%ADD13R,0.00787402X0.0265748*%
%ADD14R,0.0314961X0.0669291*%
%ADD15R,0.0590551X0.0236*%
%ADD16R,0.0236X0.0590551*%
%ADD17C,0.015748*%
%ADD18C,0.011811*%
%ADD19R,0.0314X0.0314*%
%ADD20R,0.126X0.05*%
%ADD21R,0.0393701X0.0393701*%
%ADD22R,0.0866142X0.0413386*%
%ADD23R,0.0597X0.0597*%
%ADD24C,0.0597*%
%ADD25R,0.0748031X0.011811*%
%ADD26R,0.00984252X0.0472441*%
%ADD27R,0.0472441X0.00984252*%
%ADD28R,0.0610236X0.00984252*%
%ADD29R,0.00984252X0.0610236*%
%ADD30R,0.19685X0.19685*%
%ADD31O,0.00984252X0.0610236*%
%ADD32R,0.0195X0.0195*%
%ADD33R,0.0314X0.0275*%
%ADD34R,0.0175X0.0195*%
%ADD35R,0.0195X0.0175*%
%ADD36R,0.0393701X0.0610236*%
%ADD37R,0.0314961X0.0551181*%
%ADD38R,0.0570866X0.0393701*%
%ADD39R,0.0314961X0.0590551*%
%ADD40R,0.0590551X0.0590551*%
%ADD41R,0.0275591X0.0688976*%
%ADD42R,0.0511811X0.0590551*%
%ADD43R,0.0748031X0.0748031*%
%ADD44R,0.015748X0.0531496*%
%ADD45R,0.100394X0.0748031*%
%ADD46R,0.0787X0.0984*%
%ADD47R,0.05X0.0169291*%
%ADD48R,0.063X0.0118*%
%ADD49R,0.063X0.0276*%
%ADD50R,0.122X0.063*%
%ADD51C,0.0224409*%
%ADD52C,0.0354331*%
%ADD53R,0.0314961X0.00787402*%
%ADD54R,0.00787402X0.0314961*%
%ADD55O,0.0314961X0.00787402*%
%ADD56R,0.0314961X0.0492126*%
%ADD57R,0.0492126X0.0314961*%
%ADD58R,0.0866142X0.0669291*%
%ADD59R,0.0393701X0.163386*%
%ADD60R,0.05X0.126*%
%ADD61R,0.0492126X0.0299213*%
%ADD62R,0.0165354X0.023622*%
%ADD63O,0.0590551X0.110236*%
%ADD64O,0.11811X0.0590551*%
%ADD65C,0.11811*%
%ADD66R,0.0787402X0.0787402*%
%ADD67O,0.023622X0.00787402*%
%ADD68O,0.00787402X0.023622*%
%ADD69R,0.00787402X0.023622*%
G04 APERTURE END LIST*
G54D10*
G54D11*
X67322Y-86220D03*
X115748Y-86220D03*
X115748Y-31889D03*
G54D12*
X97125Y-37849D03*
X97125Y-37505D03*
G54D13*
X97322Y-37505D03*
X97519Y-37505D03*
X97322Y-37849D03*
X97519Y-37849D03*
X96929Y-37849D03*
X96732Y-37849D03*
X96732Y-37505D03*
X96929Y-37505D03*
G54D14*
X86574Y-80393D03*
X87913Y-80393D03*
X96584Y-71978D03*
X97923Y-71978D03*
X103090Y-36023D03*
X104429Y-36023D03*
G54D15*
X88228Y-47045D03*
X88228Y-47545D03*
X88228Y-48045D03*
X88228Y-48545D03*
X90354Y-48545D03*
X90354Y-48045D03*
X90354Y-47545D03*
X90354Y-47045D03*
G54D16*
X89332Y-43582D03*
X88832Y-43582D03*
X88332Y-43582D03*
X87832Y-43582D03*
X87832Y-45708D03*
X88332Y-45708D03*
X88832Y-45708D03*
X89332Y-45708D03*
G54D17*
X85314Y-62716D03*
X85000Y-62716D03*
X84685Y-62716D03*
X86574Y-62716D03*
X86889Y-62716D03*
X87204Y-62716D03*
X86889Y-62401D03*
X86574Y-62401D03*
X84685Y-62401D03*
X85000Y-62401D03*
X85314Y-62401D03*
X85314Y-61771D03*
X85000Y-61771D03*
X84685Y-61771D03*
X86574Y-61771D03*
X86889Y-61771D03*
X87204Y-62086D03*
X86889Y-62086D03*
X86574Y-62086D03*
X85000Y-62086D03*
X85314Y-62086D03*
X85314Y-60826D03*
X85000Y-60826D03*
X86574Y-60826D03*
X86889Y-60826D03*
X87204Y-60826D03*
X85314Y-61141D03*
X85000Y-61141D03*
X84685Y-61141D03*
X86574Y-61141D03*
X86889Y-61141D03*
X87204Y-61456D03*
X86889Y-61456D03*
X86574Y-61456D03*
X85000Y-61456D03*
X85314Y-61456D03*
X85314Y-64291D03*
X85000Y-64291D03*
X84685Y-64291D03*
X86574Y-64291D03*
X86889Y-64291D03*
X87204Y-64291D03*
X87204Y-63976D03*
X86889Y-63976D03*
X86574Y-63976D03*
X84685Y-63976D03*
X85000Y-63976D03*
X85314Y-63976D03*
X85314Y-63031D03*
X85000Y-63031D03*
X84685Y-63031D03*
X86574Y-63031D03*
X86889Y-63031D03*
X87204Y-63031D03*
X87204Y-63346D03*
X86889Y-63346D03*
X86574Y-63346D03*
X84685Y-63346D03*
X85000Y-63346D03*
X85314Y-63346D03*
X85314Y-64606D03*
X85000Y-64606D03*
X84685Y-64606D03*
X86574Y-64606D03*
X86889Y-64606D03*
X87204Y-64606D03*
X87204Y-63661D03*
X86889Y-63661D03*
X86574Y-63661D03*
X84685Y-63661D03*
X85000Y-63661D03*
X85314Y-63661D03*
X85314Y-64921D03*
X85000Y-64921D03*
X84685Y-64921D03*
X86574Y-64921D03*
X86889Y-64921D03*
X87204Y-64921D03*
X87204Y-65236D03*
X86889Y-65236D03*
X86574Y-65236D03*
X84685Y-65236D03*
X85000Y-65236D03*
X85314Y-65236D03*
X86574Y-68858D03*
X86889Y-68858D03*
X87204Y-68858D03*
X85314Y-68858D03*
X85000Y-68858D03*
X84685Y-68858D03*
X85000Y-69173D03*
X85314Y-69173D03*
X87204Y-69173D03*
X86889Y-69173D03*
X86574Y-69173D03*
X86574Y-69803D03*
X86889Y-69803D03*
X87204Y-69803D03*
X85314Y-69803D03*
X85000Y-69803D03*
X84685Y-69488D03*
X85000Y-69488D03*
X85314Y-69488D03*
X86889Y-69488D03*
X86574Y-69488D03*
X86574Y-70748D03*
X86889Y-70748D03*
X85314Y-70748D03*
X85000Y-70748D03*
X84685Y-70748D03*
X86574Y-70433D03*
X86889Y-70433D03*
X87204Y-70433D03*
X85314Y-70433D03*
X85000Y-70433D03*
X84685Y-70118D03*
X85000Y-70118D03*
X85314Y-70118D03*
X86889Y-70118D03*
X86574Y-70118D03*
X86574Y-67283D03*
X86889Y-67283D03*
X87204Y-67283D03*
X85314Y-67283D03*
X85000Y-67283D03*
X84685Y-67283D03*
X84685Y-67598D03*
X85000Y-67598D03*
X85314Y-67598D03*
X87204Y-67598D03*
X86889Y-67598D03*
X86574Y-67598D03*
X86574Y-68543D03*
X86889Y-68543D03*
X87204Y-68543D03*
X85314Y-68543D03*
X85000Y-68543D03*
X84685Y-68543D03*
X84685Y-68228D03*
X85000Y-68228D03*
X85314Y-68228D03*
X87204Y-68228D03*
X86889Y-68228D03*
X86574Y-68228D03*
X86574Y-66968D03*
X86889Y-66968D03*
X87204Y-66968D03*
X85314Y-66968D03*
X85000Y-66968D03*
X84685Y-66968D03*
X84685Y-67913D03*
X85000Y-67913D03*
X85314Y-67913D03*
X87204Y-67913D03*
X86889Y-67913D03*
X86574Y-67913D03*
X86574Y-66653D03*
X86889Y-66653D03*
X87204Y-66653D03*
X85314Y-66653D03*
X85000Y-66653D03*
X84685Y-66653D03*
X84685Y-66338D03*
X85000Y-66338D03*
X85314Y-66338D03*
X87204Y-66338D03*
X86889Y-66338D03*
X86574Y-66338D03*
G54D18*
X92716Y-52391D03*
X92716Y-52076D03*
X92716Y-51761D03*
X92716Y-51446D03*
X92716Y-53966D03*
X92716Y-53651D03*
X92716Y-53336D03*
X92716Y-53021D03*
X94291Y-53021D03*
X94291Y-53336D03*
X94291Y-53651D03*
X94291Y-53966D03*
X94291Y-51446D03*
X94291Y-51761D03*
X94291Y-52076D03*
X94291Y-52391D03*
X93976Y-51131D03*
X93976Y-52706D03*
X93976Y-54281D03*
X93976Y-52391D03*
X93976Y-52076D03*
X93976Y-51761D03*
X93976Y-51446D03*
X93976Y-53966D03*
X93976Y-53651D03*
X93976Y-53336D03*
X93976Y-53021D03*
X93661Y-53021D03*
X93661Y-53336D03*
X93661Y-53651D03*
X93661Y-53966D03*
X93661Y-51446D03*
X93661Y-51761D03*
X93661Y-52076D03*
X93661Y-52391D03*
X93661Y-54281D03*
X93661Y-52706D03*
X93661Y-51131D03*
X93346Y-51131D03*
X93346Y-52706D03*
X93346Y-54281D03*
X93346Y-52391D03*
X93346Y-52076D03*
X93346Y-51761D03*
X93346Y-51446D03*
X93346Y-53966D03*
X93346Y-53651D03*
X93346Y-53336D03*
X93346Y-53021D03*
X93031Y-53021D03*
X93031Y-53336D03*
X93031Y-53651D03*
X93031Y-53966D03*
X93031Y-51446D03*
X93031Y-51761D03*
X93031Y-52076D03*
X93031Y-52391D03*
X93031Y-54281D03*
X93031Y-52706D03*
X93031Y-51131D03*
X94606Y-51131D03*
X94606Y-52706D03*
X94606Y-54281D03*
X94606Y-52391D03*
X94606Y-52076D03*
X94606Y-51761D03*
X94606Y-51446D03*
X94606Y-53966D03*
X94606Y-53651D03*
X94606Y-53336D03*
X94606Y-53021D03*
X94921Y-53021D03*
X94921Y-53336D03*
X94921Y-53651D03*
X94921Y-53966D03*
X94921Y-51446D03*
X94921Y-51761D03*
X94921Y-52076D03*
X94921Y-52391D03*
X94921Y-54281D03*
X94921Y-52706D03*
X94921Y-51131D03*
X95236Y-51131D03*
X95236Y-52706D03*
X95236Y-54281D03*
X95236Y-52391D03*
X95236Y-52076D03*
X95236Y-51761D03*
X95236Y-51446D03*
X95236Y-53966D03*
X95236Y-53651D03*
X95236Y-53336D03*
X95236Y-53021D03*
X95551Y-53021D03*
X95551Y-53336D03*
X95551Y-53651D03*
X95551Y-53966D03*
X95551Y-51446D03*
X95551Y-51761D03*
X95551Y-52076D03*
X95551Y-52391D03*
X95551Y-54281D03*
X95551Y-52706D03*
X95551Y-51131D03*
X95866Y-51131D03*
X95866Y-52706D03*
X95866Y-54281D03*
X92716Y-51131D03*
X92716Y-52706D03*
X92716Y-54281D03*
X94291Y-54281D03*
X94291Y-52706D03*
X94291Y-51131D03*
X95866Y-52391D03*
X95866Y-52076D03*
X95866Y-51761D03*
X95866Y-51446D03*
X95866Y-53966D03*
X95866Y-53651D03*
X95866Y-53336D03*
X95866Y-53021D03*
G54D19*
X106165Y-35362D03*
X106165Y-35992D03*
X105346Y-35366D03*
X105346Y-35996D03*
X71281Y-50565D03*
X71281Y-49935D03*
X106988Y-35364D03*
X106988Y-35994D03*
X107086Y-72381D03*
X107086Y-73011D03*
X106377Y-72381D03*
X106377Y-73011D03*
G54D20*
X100433Y-63139D03*
X100433Y-64139D03*
X100433Y-65139D03*
X100433Y-66139D03*
X100433Y-67139D03*
X102402Y-63139D03*
X102402Y-64139D03*
X102402Y-65139D03*
X102402Y-66139D03*
X102402Y-67139D03*
G54D21*
X71062Y-57834D03*
X72244Y-57834D03*
G54D22*
X71653Y-57253D03*
X71653Y-58415D03*
G54D19*
X71377Y-59685D03*
X71377Y-60315D03*
G54D23*
X108083Y-35511D03*
G54D24*
X109083Y-35511D03*
G54D25*
X73188Y-66751D03*
X73188Y-66948D03*
X73188Y-67145D03*
X73188Y-67342D03*
X73188Y-67539D03*
X73188Y-67736D03*
X73188Y-67933D03*
X73188Y-68129D03*
X73188Y-68326D03*
X73188Y-68523D03*
X73188Y-66555D03*
X73188Y-66358D03*
X73188Y-66161D03*
X73188Y-65964D03*
X73188Y-65767D03*
X73188Y-65570D03*
X73188Y-65374D03*
X73188Y-65177D03*
X73188Y-64980D03*
G54D26*
X102303Y-74212D03*
X102893Y-74212D03*
X102696Y-74212D03*
X102500Y-74212D03*
G54D27*
X101771Y-73287D03*
X101771Y-73484D03*
X101771Y-73681D03*
X101771Y-71909D03*
X101771Y-72106D03*
X101771Y-72303D03*
X101771Y-72500D03*
X101771Y-72696D03*
X101771Y-72893D03*
X101771Y-73090D03*
G54D26*
X103090Y-74212D03*
X103287Y-74212D03*
X103484Y-74212D03*
X103681Y-74212D03*
X103877Y-74212D03*
X104074Y-74212D03*
X104271Y-74212D03*
X104468Y-74212D03*
G54D27*
X105000Y-72500D03*
X105000Y-72303D03*
X105000Y-72106D03*
X105000Y-71909D03*
X105000Y-71712D03*
X105000Y-71515D03*
X105000Y-73681D03*
X105000Y-73484D03*
X105000Y-73287D03*
X105000Y-73090D03*
X105000Y-72893D03*
X105000Y-72696D03*
X101771Y-71712D03*
X101771Y-71515D03*
G54D26*
X104468Y-70984D03*
X104271Y-70984D03*
X104074Y-70984D03*
X103877Y-70984D03*
X103681Y-70984D03*
X103484Y-70984D03*
X103287Y-70984D03*
X103090Y-70984D03*
X102893Y-70984D03*
X102696Y-70984D03*
X102500Y-70984D03*
X102303Y-70984D03*
G54D28*
X87145Y-50787D03*
X87145Y-50984D03*
G54D29*
X86417Y-54468D03*
X86220Y-54468D03*
G54D28*
X82736Y-53740D03*
X82736Y-53543D03*
G54D29*
X83464Y-50059D03*
X83661Y-50059D03*
G54D30*
X84941Y-52263D03*
G54D28*
X82736Y-51771D03*
X82736Y-51968D03*
X82736Y-52165D03*
X82736Y-52362D03*
X82736Y-52559D03*
X82736Y-52755D03*
X82736Y-52952D03*
X82736Y-53149D03*
X82736Y-53346D03*
X82736Y-50787D03*
X82736Y-50984D03*
X82736Y-51181D03*
X82736Y-51377D03*
X82736Y-51574D03*
G54D29*
X85433Y-54468D03*
X85629Y-54468D03*
X85826Y-54468D03*
X86023Y-54468D03*
X83464Y-54468D03*
X83661Y-54468D03*
X83858Y-54468D03*
X84055Y-54468D03*
X84251Y-54468D03*
X84448Y-54468D03*
X84645Y-54468D03*
X84842Y-54468D03*
X85039Y-54468D03*
X85236Y-54468D03*
G54D28*
X87145Y-52165D03*
X87145Y-51968D03*
X87145Y-51771D03*
X87145Y-51574D03*
X87145Y-51377D03*
X87145Y-51181D03*
X87145Y-53740D03*
X87145Y-53543D03*
X87145Y-53346D03*
X87145Y-53149D03*
X87145Y-52952D03*
X87145Y-52755D03*
X87145Y-52559D03*
X87145Y-52362D03*
G54D31*
X86417Y-50059D03*
G54D29*
X86220Y-50059D03*
X86023Y-50059D03*
X85826Y-50059D03*
X85629Y-50059D03*
X85433Y-50059D03*
X85236Y-50059D03*
X85039Y-50059D03*
X84842Y-50059D03*
X84645Y-50059D03*
X84448Y-50059D03*
X84251Y-50059D03*
X84055Y-50059D03*
X83839Y-50056D03*
G54D32*
X93346Y-50000D03*
X93700Y-50000D03*
X93346Y-50334D03*
X93700Y-50334D03*
X97145Y-54291D03*
X97145Y-54645D03*
X93819Y-55944D03*
X94173Y-55944D03*
X81771Y-38551D03*
X81771Y-38197D03*
X90354Y-46437D03*
X90708Y-46437D03*
X102145Y-35748D03*
X102499Y-35748D03*
X96909Y-52391D03*
X96555Y-52391D03*
X92726Y-55817D03*
X92726Y-56171D03*
X95117Y-55059D03*
X94763Y-55059D03*
X96151Y-55059D03*
X96151Y-55413D03*
X94291Y-50344D03*
X94645Y-50344D03*
X91830Y-52382D03*
X91830Y-52736D03*
X91830Y-53405D03*
X91830Y-53051D03*
X92726Y-55068D03*
X92372Y-55068D03*
X97696Y-54291D03*
X97696Y-54645D03*
X95689Y-50039D03*
X96043Y-50039D03*
X95689Y-50344D03*
X96043Y-50344D03*
X90019Y-45708D03*
X90373Y-45708D03*
X91102Y-53130D03*
X91102Y-53484D03*
X94074Y-55059D03*
X94428Y-55059D03*
X94291Y-50019D03*
X94645Y-50019D03*
X91614Y-54665D03*
X91968Y-54665D03*
X91830Y-52027D03*
X91830Y-51673D03*
X91968Y-53956D03*
X91968Y-54310D03*
X96909Y-52706D03*
X96555Y-52706D03*
X96033Y-71742D03*
X95679Y-71742D03*
X87972Y-67598D03*
X88326Y-67598D03*
X87972Y-66968D03*
X88326Y-66968D03*
X87972Y-68228D03*
X88326Y-68228D03*
G54D33*
X88484Y-80392D03*
X88484Y-79962D03*
X81283Y-38545D03*
X81283Y-38115D03*
G54D34*
X101700Y-37421D03*
X101330Y-37421D03*
X76389Y-70236D03*
X76759Y-70236D03*
X74318Y-64980D03*
X73948Y-64980D03*
X71901Y-60314D03*
X72271Y-60314D03*
X89263Y-39881D03*
X89633Y-39881D03*
X79854Y-49070D03*
X80224Y-49070D03*
G54D35*
X84090Y-48562D03*
X84090Y-48192D03*
G54D34*
X79858Y-49527D03*
X80228Y-49527D03*
X88708Y-42834D03*
X88338Y-42834D03*
X90391Y-44980D03*
X90021Y-44980D03*
X90391Y-43572D03*
X90021Y-43572D03*
X87078Y-48051D03*
X87448Y-48051D03*
G54D35*
X91220Y-47177D03*
X91220Y-47547D03*
X91594Y-47177D03*
X91594Y-47547D03*
X102539Y-75283D03*
X102539Y-74913D03*
G54D34*
X77625Y-69803D03*
X77255Y-69803D03*
X77625Y-68937D03*
X77255Y-68937D03*
G54D35*
X103129Y-75283D03*
X103129Y-74913D03*
X102854Y-75283D03*
X102854Y-74913D03*
G54D34*
X77625Y-70236D03*
X77255Y-70236D03*
X77625Y-69370D03*
X77255Y-69370D03*
G54D35*
X91220Y-48043D03*
X91220Y-48413D03*
G54D34*
X102137Y-35314D03*
X102507Y-35314D03*
X106803Y-36496D03*
X107173Y-36496D03*
X99358Y-37431D03*
X98988Y-37431D03*
X105795Y-36496D03*
X106165Y-36496D03*
X100523Y-37431D03*
X100893Y-37431D03*
X104976Y-36500D03*
X105346Y-36500D03*
G54D35*
X102263Y-75283D03*
X102263Y-74913D03*
X106377Y-73846D03*
X106377Y-73476D03*
X107086Y-73846D03*
X107086Y-73476D03*
G54D34*
X103082Y-35157D03*
X103452Y-35157D03*
X97059Y-57913D03*
X97429Y-57913D03*
X97330Y-57027D03*
X96960Y-57027D03*
G54D35*
X71281Y-48946D03*
X71281Y-49316D03*
G54D34*
X96031Y-72106D03*
X95661Y-72106D03*
G54D35*
X82795Y-66704D03*
X82795Y-67074D03*
G54D34*
X80751Y-66913D03*
X80381Y-66913D03*
G54D35*
X78838Y-67074D03*
X78838Y-66704D03*
X97196Y-72811D03*
X97196Y-73181D03*
X87846Y-71862D03*
X87846Y-71492D03*
X96322Y-72811D03*
X96322Y-73181D03*
X89767Y-53224D03*
X89767Y-52854D03*
X89401Y-53220D03*
X89401Y-52850D03*
X95389Y-74196D03*
X95389Y-73826D03*
G54D34*
X101118Y-60877D03*
X100748Y-60877D03*
X100763Y-60145D03*
X101133Y-60145D03*
G54D35*
X95389Y-72811D03*
X95389Y-73181D03*
X86417Y-71862D03*
X86417Y-71492D03*
X97196Y-74208D03*
X97196Y-73838D03*
X87370Y-71862D03*
X87370Y-71492D03*
X86889Y-71862D03*
X86889Y-71492D03*
X96326Y-74196D03*
X96326Y-73826D03*
G54D20*
X103021Y-68750D03*
X103021Y-69750D03*
X104990Y-68750D03*
X104990Y-69750D03*
G54D11*
X67322Y-31889D03*
G54D34*
X76389Y-68937D03*
X76759Y-68937D03*
X76389Y-69370D03*
X76759Y-69370D03*
X76389Y-69803D03*
X76759Y-69803D03*
G54D36*
X96594Y-78425D03*
G54D37*
X96732Y-79379D03*
G54D38*
X92155Y-79094D03*
G54D39*
X92027Y-79635D03*
G54D40*
X96594Y-82627D03*
G54D41*
X94763Y-82677D03*
X95629Y-82677D03*
X95196Y-82677D03*
X93897Y-82677D03*
X94330Y-82677D03*
X93464Y-82677D03*
X93031Y-82677D03*
X92598Y-82677D03*
G54D42*
X92125Y-82627D03*
G54D43*
X101338Y-35314D03*
X100236Y-35314D03*
X99291Y-35314D03*
X98188Y-35314D03*
X97185Y-35314D03*
G54D44*
X97637Y-36377D03*
X97381Y-36377D03*
X96614Y-36377D03*
X96870Y-36377D03*
X97125Y-36377D03*
X100275Y-36377D03*
X100019Y-36377D03*
X99251Y-36377D03*
X99507Y-36377D03*
X99763Y-36377D03*
G54D45*
X96131Y-35314D03*
G54D46*
X76062Y-49055D03*
X74448Y-49055D03*
G54D35*
X70649Y-51464D03*
X70649Y-51094D03*
G54D34*
X103807Y-45767D03*
X103437Y-45767D03*
G54D19*
X70649Y-49940D03*
X70649Y-50570D03*
X104940Y-45767D03*
X104310Y-45767D03*
G54D47*
X109712Y-72629D03*
X112492Y-72629D03*
X109712Y-72881D03*
X112492Y-72881D03*
X109712Y-73133D03*
X112492Y-73133D03*
X109712Y-73385D03*
X112492Y-73385D03*
X109712Y-73637D03*
X112492Y-73637D03*
X109712Y-73889D03*
X112492Y-73889D03*
X109712Y-74141D03*
X112492Y-74141D03*
X109712Y-74393D03*
X112492Y-74393D03*
X109712Y-74645D03*
X112492Y-74645D03*
X109712Y-74897D03*
X112492Y-74897D03*
X109712Y-75149D03*
X112492Y-75149D03*
X109712Y-75401D03*
X112492Y-75401D03*
X109712Y-75653D03*
X112492Y-75653D03*
X109712Y-75905D03*
X112492Y-75905D03*
X109712Y-76157D03*
X112492Y-76157D03*
X109712Y-76409D03*
X112492Y-76409D03*
X109712Y-76661D03*
X112492Y-76661D03*
X109712Y-76913D03*
X112492Y-76913D03*
X109712Y-77165D03*
X112492Y-77165D03*
G54D48*
X101697Y-53877D03*
X101697Y-53680D03*
X101697Y-53483D03*
X101697Y-53286D03*
X101697Y-53090D03*
G54D49*
X101697Y-52794D03*
G54D48*
X101697Y-52499D03*
X101697Y-52302D03*
X101697Y-52105D03*
X101697Y-51908D03*
X101697Y-51712D03*
X101697Y-51515D03*
X101697Y-51318D03*
X101697Y-51121D03*
X101697Y-50924D03*
X101697Y-50727D03*
G54D49*
X101697Y-50432D03*
G54D48*
X101697Y-50137D03*
X101697Y-49940D03*
X101697Y-49743D03*
X101697Y-49546D03*
X101697Y-49349D03*
X101697Y-49153D03*
X101697Y-48956D03*
X101697Y-48759D03*
X101697Y-48562D03*
X101697Y-48365D03*
G54D49*
X101697Y-48069D03*
G54D48*
X101697Y-47775D03*
X101697Y-47578D03*
X101697Y-47381D03*
X101697Y-47184D03*
X101697Y-46987D03*
X101697Y-46790D03*
X101697Y-46594D03*
X101697Y-46397D03*
X101697Y-46200D03*
X101697Y-46003D03*
G54D49*
X101697Y-45707D03*
G54D48*
X101697Y-45412D03*
X101697Y-45216D03*
X101697Y-45019D03*
X101697Y-44822D03*
X101697Y-44625D03*
X99295Y-44623D03*
X99295Y-44820D03*
X99295Y-45017D03*
X99295Y-45214D03*
X99295Y-45410D03*
G54D49*
X99295Y-45705D03*
G54D48*
X99295Y-46001D03*
X99295Y-46198D03*
X99295Y-46395D03*
X99295Y-46592D03*
X99295Y-46788D03*
X99295Y-46985D03*
X99295Y-47182D03*
X99295Y-47379D03*
X99295Y-47576D03*
X99295Y-47773D03*
G54D49*
X99295Y-48068D03*
G54D48*
X99295Y-48364D03*
X99295Y-48561D03*
X99295Y-48758D03*
X99295Y-48955D03*
X99295Y-49151D03*
X99295Y-49348D03*
X99295Y-49545D03*
X99295Y-49742D03*
X99295Y-49939D03*
X99295Y-50136D03*
G54D49*
X99295Y-50431D03*
G54D48*
X99295Y-50727D03*
X99295Y-50924D03*
X99295Y-51121D03*
X99295Y-51318D03*
X99295Y-51514D03*
X99295Y-51711D03*
X99295Y-51908D03*
X99295Y-52105D03*
X99295Y-52302D03*
X99295Y-52499D03*
G54D49*
X99295Y-52794D03*
G54D48*
X99295Y-53090D03*
X99295Y-53286D03*
X99295Y-53483D03*
X99295Y-53680D03*
X99295Y-53877D03*
G54D50*
X100492Y-43365D03*
X100492Y-55137D03*
G54D51*
X97736Y-61712D03*
X97736Y-64074D03*
X97736Y-63681D03*
X97736Y-63287D03*
X97736Y-62893D03*
X97736Y-62500D03*
X97736Y-62106D03*
X98129Y-61712D03*
X98129Y-62106D03*
X98129Y-62500D03*
X98129Y-62893D03*
X98129Y-63287D03*
X98129Y-63681D03*
X98129Y-64074D03*
X98129Y-64468D03*
X98129Y-64862D03*
X98129Y-65255D03*
X98129Y-65649D03*
X98129Y-66043D03*
X98129Y-66437D03*
X98129Y-66830D03*
X98129Y-67224D03*
X98129Y-67618D03*
X98129Y-68011D03*
X98129Y-68405D03*
X98129Y-68799D03*
X98129Y-69192D03*
X98129Y-69586D03*
X98129Y-69980D03*
X97736Y-64468D03*
X97736Y-64862D03*
X97736Y-65255D03*
X97736Y-65649D03*
X97736Y-66043D03*
X97736Y-66437D03*
X97736Y-66830D03*
X97736Y-67224D03*
X97736Y-67618D03*
X97736Y-68011D03*
X97736Y-68405D03*
X97736Y-68799D03*
X97736Y-69192D03*
X97736Y-69586D03*
X97736Y-69980D03*
X97342Y-61712D03*
X97342Y-62106D03*
X97342Y-62500D03*
X97342Y-62893D03*
X97342Y-63287D03*
X97342Y-63681D03*
X97342Y-64074D03*
X97342Y-64468D03*
X97342Y-64862D03*
X97342Y-65255D03*
X97342Y-65649D03*
X97342Y-66043D03*
X97342Y-66437D03*
X97342Y-66830D03*
X97342Y-67224D03*
X97342Y-67618D03*
X97342Y-68011D03*
X97342Y-68405D03*
X97342Y-68799D03*
X97342Y-69192D03*
X97342Y-69586D03*
X97342Y-69980D03*
X96948Y-61712D03*
X96948Y-62106D03*
X96948Y-62500D03*
X96948Y-62893D03*
X96948Y-63287D03*
X96948Y-63681D03*
X96948Y-64074D03*
X96948Y-64468D03*
X96948Y-64862D03*
X96948Y-65255D03*
X96948Y-65649D03*
X96948Y-66043D03*
X96948Y-66437D03*
X96948Y-66830D03*
X96948Y-67224D03*
X96948Y-67618D03*
X96948Y-68011D03*
X96948Y-68405D03*
X96948Y-68799D03*
X96948Y-69192D03*
X96948Y-69586D03*
X96948Y-69980D03*
X96555Y-61712D03*
X96555Y-62106D03*
X96555Y-62500D03*
X96555Y-62893D03*
X96555Y-63287D03*
X96555Y-63681D03*
X96555Y-64074D03*
X96555Y-64468D03*
X96555Y-64862D03*
X96555Y-65255D03*
X96555Y-65649D03*
X96555Y-66043D03*
X96555Y-66437D03*
X96555Y-66830D03*
X96555Y-67224D03*
X96555Y-67618D03*
X96555Y-68011D03*
X96555Y-68405D03*
X96555Y-68799D03*
X96555Y-69192D03*
X96555Y-69586D03*
X96555Y-69980D03*
X96161Y-61712D03*
X96161Y-62106D03*
X96161Y-62500D03*
X96161Y-62893D03*
X96161Y-63287D03*
X96161Y-63681D03*
X96161Y-64074D03*
X96161Y-64468D03*
X96161Y-64862D03*
X96161Y-65255D03*
X96161Y-65649D03*
X96161Y-66043D03*
X96161Y-66437D03*
X96161Y-66830D03*
X96161Y-67224D03*
X96161Y-67618D03*
X96161Y-68011D03*
X96161Y-68405D03*
X96161Y-68799D03*
X96161Y-69192D03*
X96161Y-69586D03*
X96161Y-69980D03*
X95767Y-61712D03*
X95767Y-62106D03*
X95767Y-62500D03*
X95767Y-62893D03*
X95767Y-63287D03*
X95767Y-63681D03*
X95767Y-64074D03*
X95767Y-64468D03*
X95767Y-64862D03*
X95767Y-65255D03*
X95767Y-65649D03*
X95767Y-66043D03*
X95767Y-66437D03*
X95767Y-66830D03*
X95767Y-67224D03*
X95767Y-67618D03*
X95767Y-68011D03*
X95767Y-68405D03*
X95767Y-68799D03*
X95767Y-69192D03*
X95767Y-69586D03*
X95767Y-69980D03*
X95374Y-61712D03*
X95374Y-62106D03*
X95374Y-62500D03*
X95374Y-62893D03*
X95374Y-63287D03*
X95374Y-63681D03*
X95374Y-64074D03*
X95374Y-64468D03*
X95374Y-64862D03*
X95374Y-65255D03*
X95374Y-65649D03*
X95374Y-66043D03*
X95374Y-66437D03*
X95374Y-66830D03*
X95374Y-67224D03*
X95374Y-67618D03*
X95374Y-68011D03*
X95374Y-68405D03*
X95374Y-68799D03*
X95374Y-69192D03*
X95374Y-69586D03*
X95374Y-69980D03*
X94980Y-61712D03*
X94980Y-62106D03*
X94980Y-62500D03*
X94980Y-62893D03*
X94980Y-63287D03*
X94980Y-63681D03*
X94980Y-64074D03*
X94980Y-64468D03*
X94980Y-64862D03*
X94980Y-65255D03*
X94980Y-65649D03*
X94980Y-66043D03*
X94980Y-66437D03*
X94980Y-66830D03*
X94980Y-67224D03*
X94980Y-67618D03*
X94980Y-68011D03*
X94980Y-68405D03*
X94980Y-68799D03*
X94980Y-69192D03*
X94980Y-69586D03*
X94980Y-69980D03*
X94586Y-61712D03*
X94586Y-62106D03*
X94586Y-62500D03*
X94586Y-62893D03*
X94586Y-63287D03*
X94586Y-63681D03*
X94586Y-64074D03*
X94586Y-64468D03*
X94586Y-64862D03*
X94586Y-65255D03*
X94586Y-65649D03*
X94586Y-66043D03*
X94586Y-66437D03*
X94586Y-66830D03*
X94586Y-67224D03*
X94586Y-67618D03*
X94586Y-68011D03*
X94586Y-68405D03*
X94586Y-68799D03*
X94586Y-69192D03*
X94586Y-69586D03*
X94586Y-69980D03*
X94192Y-61712D03*
X94192Y-62106D03*
X94192Y-62500D03*
X94192Y-62893D03*
X94192Y-63287D03*
X94192Y-63681D03*
X94192Y-64074D03*
X94192Y-64468D03*
X94192Y-64862D03*
X94192Y-65255D03*
X94192Y-65649D03*
X94192Y-66043D03*
X94192Y-66437D03*
X94192Y-66830D03*
X94192Y-67224D03*
X94192Y-67618D03*
X94192Y-68011D03*
X94192Y-68405D03*
X94192Y-68799D03*
X94192Y-69192D03*
X94192Y-69586D03*
X94192Y-69980D03*
X93799Y-61712D03*
X93799Y-62106D03*
X93799Y-62500D03*
X93799Y-62893D03*
X93799Y-63287D03*
X93799Y-63681D03*
X93799Y-64074D03*
X93799Y-64468D03*
X93799Y-64862D03*
X93799Y-65255D03*
X93799Y-65649D03*
X93799Y-66043D03*
X93799Y-66437D03*
X93799Y-66830D03*
X93799Y-67224D03*
X93799Y-67618D03*
X93799Y-68011D03*
X93799Y-68405D03*
X93799Y-68799D03*
X93799Y-69192D03*
X93799Y-69586D03*
X93799Y-69980D03*
X93405Y-61712D03*
X93405Y-62106D03*
X93405Y-62500D03*
X93405Y-62893D03*
X93405Y-63287D03*
X93405Y-63681D03*
X93405Y-64074D03*
X93405Y-64468D03*
X93405Y-64862D03*
X93405Y-65255D03*
X93405Y-65649D03*
X93405Y-66043D03*
X93405Y-66437D03*
X93405Y-66830D03*
X93405Y-67224D03*
X93405Y-67618D03*
X93405Y-68011D03*
X93405Y-68405D03*
X93405Y-68799D03*
X93405Y-69192D03*
X93405Y-69586D03*
X93405Y-69980D03*
X93011Y-61712D03*
X93011Y-62106D03*
X93011Y-62500D03*
X93011Y-62893D03*
X93011Y-63287D03*
X93011Y-63681D03*
X93011Y-64074D03*
X93011Y-64468D03*
X93011Y-64862D03*
X93011Y-65255D03*
X93011Y-65649D03*
X93011Y-66043D03*
X93011Y-66437D03*
X93011Y-66830D03*
X93011Y-67224D03*
X93011Y-67618D03*
X93011Y-68011D03*
X93011Y-68405D03*
X93011Y-68799D03*
X93011Y-69192D03*
X93011Y-69586D03*
X93011Y-69980D03*
X92618Y-61712D03*
X92618Y-62106D03*
X92618Y-62500D03*
X92618Y-62893D03*
X92618Y-63287D03*
X92618Y-63681D03*
X92618Y-64074D03*
X92618Y-64468D03*
X92618Y-64862D03*
X92618Y-65255D03*
X92618Y-65649D03*
X92618Y-66043D03*
X92618Y-66437D03*
X92618Y-66830D03*
X92618Y-67224D03*
X92618Y-67618D03*
X92618Y-68011D03*
X92618Y-68405D03*
X92618Y-68799D03*
X92618Y-69192D03*
X92618Y-69586D03*
X92618Y-69980D03*
X92224Y-61712D03*
X92224Y-62106D03*
X92224Y-62500D03*
X92224Y-62893D03*
X92224Y-63287D03*
X92224Y-63681D03*
X92224Y-64074D03*
X92224Y-64468D03*
X92224Y-64862D03*
X92224Y-65255D03*
X92224Y-65649D03*
X92224Y-66043D03*
X92224Y-66437D03*
X92224Y-66830D03*
X92224Y-67224D03*
X92224Y-67618D03*
X92224Y-68011D03*
X92224Y-68405D03*
X92224Y-68799D03*
X92224Y-69192D03*
X92224Y-69586D03*
X92224Y-69980D03*
X91830Y-61712D03*
X91830Y-62106D03*
X91830Y-62500D03*
X91830Y-62893D03*
X91830Y-63287D03*
X91830Y-63681D03*
X91830Y-64074D03*
X91830Y-64468D03*
X91830Y-64862D03*
X91830Y-65255D03*
X91830Y-65649D03*
X91830Y-66043D03*
X91830Y-66437D03*
X91830Y-66830D03*
X91830Y-67224D03*
X91830Y-67618D03*
X91830Y-68011D03*
X91830Y-68405D03*
X91830Y-68799D03*
X91830Y-69192D03*
X91830Y-69586D03*
X91830Y-69980D03*
X91437Y-61712D03*
X91437Y-62106D03*
X91437Y-62500D03*
X91437Y-62893D03*
X91437Y-63287D03*
X91437Y-63681D03*
X91437Y-64074D03*
X91437Y-64468D03*
X91437Y-64862D03*
X91437Y-65255D03*
X91437Y-65649D03*
X91437Y-66043D03*
X91437Y-66437D03*
X91437Y-66830D03*
X91437Y-67224D03*
X91437Y-67618D03*
X91437Y-68011D03*
X91437Y-68405D03*
X91437Y-68799D03*
X91437Y-69192D03*
X91437Y-69586D03*
X91437Y-69980D03*
X91043Y-61712D03*
X91043Y-62106D03*
X91043Y-62500D03*
X91043Y-62893D03*
X91043Y-63287D03*
X91043Y-63681D03*
X91043Y-64074D03*
X91043Y-64468D03*
X91043Y-64862D03*
X91043Y-65255D03*
X91043Y-65649D03*
X91043Y-66043D03*
X91043Y-66437D03*
X91043Y-66830D03*
X91043Y-67224D03*
X91043Y-67618D03*
X91043Y-68011D03*
X91043Y-68405D03*
X91043Y-68799D03*
X91043Y-69192D03*
X91043Y-69586D03*
X91043Y-69980D03*
X90649Y-61712D03*
X90649Y-62106D03*
X90649Y-62500D03*
X90649Y-62893D03*
X90649Y-63287D03*
X90649Y-63681D03*
X90649Y-64074D03*
X90649Y-64468D03*
X90649Y-64862D03*
X90649Y-65255D03*
X90649Y-65649D03*
X90649Y-66043D03*
X90649Y-66437D03*
X90649Y-66830D03*
X90649Y-67224D03*
X90649Y-67618D03*
X90649Y-68011D03*
X90649Y-68405D03*
X90649Y-68799D03*
X90649Y-69192D03*
X90649Y-69586D03*
X90649Y-69980D03*
X90255Y-61712D03*
X90255Y-62106D03*
X90255Y-62500D03*
X90255Y-62893D03*
X90255Y-63287D03*
X90255Y-63681D03*
X90255Y-64074D03*
X90255Y-64468D03*
X90255Y-64862D03*
X90255Y-65255D03*
X90255Y-65649D03*
X90255Y-66043D03*
X90255Y-66437D03*
X90255Y-66830D03*
X90255Y-67224D03*
X90255Y-67618D03*
X90255Y-68011D03*
X90255Y-68405D03*
X90255Y-68799D03*
X90255Y-69192D03*
X90255Y-69586D03*
X90255Y-69980D03*
X89862Y-61712D03*
X89862Y-62106D03*
X89862Y-62500D03*
X89862Y-62893D03*
X89862Y-63287D03*
X89862Y-63681D03*
X89862Y-64074D03*
X89862Y-64468D03*
X89862Y-64862D03*
X89862Y-65255D03*
X89862Y-65649D03*
X89862Y-66043D03*
X89862Y-66437D03*
X89862Y-66830D03*
X89862Y-67224D03*
X89862Y-67618D03*
X89862Y-68011D03*
X89862Y-68405D03*
X89862Y-68799D03*
X89862Y-69192D03*
X89862Y-69586D03*
X89862Y-69980D03*
G54D52*
X108750Y-62163D03*
X110750Y-62663D03*
X110750Y-62163D03*
X111250Y-62663D03*
X111250Y-62163D03*
X110750Y-59663D03*
X111250Y-59663D03*
X111250Y-59163D03*
X110750Y-59163D03*
X110750Y-58163D03*
X111250Y-58163D03*
X111250Y-58663D03*
X110750Y-58663D03*
X110750Y-60663D03*
X111250Y-60663D03*
X111250Y-60163D03*
X110750Y-60163D03*
X110750Y-61163D03*
X111250Y-61163D03*
X111250Y-61663D03*
X110750Y-61663D03*
X110750Y-53663D03*
X111250Y-53663D03*
X111250Y-53163D03*
X110750Y-53163D03*
X110750Y-52663D03*
X111250Y-52667D03*
X110750Y-51163D03*
X111250Y-51163D03*
X111250Y-50663D03*
X110750Y-50663D03*
X110750Y-51663D03*
X111250Y-51663D03*
X111250Y-52163D03*
X110750Y-52163D03*
X110750Y-55663D03*
X111250Y-55663D03*
X111250Y-55163D03*
X110750Y-55163D03*
X110750Y-54163D03*
X111250Y-54163D03*
X111250Y-54663D03*
X110750Y-54663D03*
X110750Y-56663D03*
X111250Y-56663D03*
X111250Y-56163D03*
X110750Y-56163D03*
X110750Y-57163D03*
X111250Y-57163D03*
X111250Y-57663D03*
X110750Y-57663D03*
X110750Y-48663D03*
X111250Y-48663D03*
X111250Y-48163D03*
X110750Y-48163D03*
X110750Y-47163D03*
X111250Y-47163D03*
X111250Y-47663D03*
X110750Y-47663D03*
X111250Y-49163D03*
X110750Y-49163D03*
X110750Y-49663D03*
X111250Y-49663D03*
X111250Y-50163D03*
X110750Y-50163D03*
X110750Y-45663D03*
X111250Y-45663D03*
X111250Y-45163D03*
X110750Y-45163D03*
X110750Y-44663D03*
X111250Y-44663D03*
X110750Y-43163D03*
X111250Y-43163D03*
X110750Y-43663D03*
X111250Y-43663D03*
X111250Y-44163D03*
X110750Y-44163D03*
X110750Y-46163D03*
X111250Y-46163D03*
X111250Y-46663D03*
X110750Y-46663D03*
X108750Y-46663D03*
X109250Y-46663D03*
X109250Y-46163D03*
X108750Y-46163D03*
X108750Y-44163D03*
X109250Y-44163D03*
X109250Y-43663D03*
X108750Y-43663D03*
X109250Y-43163D03*
X108750Y-43163D03*
X109250Y-44663D03*
X108750Y-44663D03*
X108750Y-45163D03*
X109250Y-45163D03*
X109250Y-45663D03*
X108750Y-45663D03*
X108750Y-50163D03*
X109250Y-50163D03*
X109250Y-49663D03*
X108750Y-49663D03*
X108750Y-49163D03*
X109250Y-49163D03*
X108750Y-47663D03*
X109250Y-47663D03*
X109250Y-47163D03*
X108750Y-47163D03*
X108750Y-48163D03*
X109250Y-48163D03*
X109250Y-48663D03*
X108750Y-48663D03*
X108750Y-57663D03*
X109250Y-57663D03*
X109250Y-57163D03*
X108750Y-57163D03*
X108750Y-56163D03*
X109250Y-56163D03*
X109250Y-56663D03*
X108750Y-56663D03*
X108750Y-54663D03*
X109250Y-54663D03*
X109250Y-54163D03*
X108750Y-54163D03*
X108750Y-55163D03*
X109250Y-55163D03*
X109250Y-55663D03*
X108750Y-55663D03*
X108750Y-52163D03*
X109250Y-52163D03*
X109250Y-51663D03*
X108750Y-51663D03*
X108750Y-50663D03*
X109250Y-50663D03*
X109250Y-51163D03*
X108750Y-51163D03*
X109250Y-52667D03*
X108750Y-52663D03*
X108750Y-53163D03*
X109250Y-53163D03*
X109250Y-53663D03*
X108750Y-53663D03*
X108750Y-61663D03*
X109250Y-61663D03*
X109250Y-61163D03*
X108750Y-61163D03*
X108750Y-60163D03*
X109250Y-60163D03*
X109250Y-60663D03*
X108750Y-60663D03*
X108750Y-58663D03*
X109250Y-58663D03*
X109250Y-58163D03*
X108750Y-58163D03*
X108750Y-59163D03*
X109250Y-59163D03*
X109250Y-59663D03*
X108750Y-59663D03*
X109250Y-62163D03*
X109250Y-62663D03*
X108750Y-62663D03*
G54D35*
X85909Y-49110D03*
X85909Y-48740D03*
X83602Y-48094D03*
X83602Y-48464D03*
G54D34*
X87007Y-49267D03*
X86637Y-49267D03*
G54D35*
X86220Y-49338D03*
X86220Y-48968D03*
G54D34*
X83397Y-48913D03*
X83027Y-48913D03*
G54D35*
X85618Y-48846D03*
X85618Y-48476D03*
X85216Y-48846D03*
X85216Y-48476D03*
G54D34*
X83846Y-55216D03*
X83476Y-55216D03*
X84224Y-55216D03*
X84594Y-55216D03*
X83393Y-49255D03*
X83023Y-49255D03*
G54D35*
X84787Y-48649D03*
X84787Y-48279D03*
X84429Y-48653D03*
X84429Y-48283D03*
G54D34*
X96960Y-57342D03*
X97330Y-57342D03*
G54D35*
X97066Y-58417D03*
X97066Y-58787D03*
G54D19*
X102795Y-60885D03*
X102165Y-60885D03*
X102795Y-60196D03*
X102165Y-60196D03*
G54D53*
X89740Y-51799D03*
X89740Y-51956D03*
G54D54*
X89622Y-51523D03*
X89464Y-51523D03*
X89307Y-51523D03*
G54D55*
X89188Y-51799D03*
G54D53*
X89188Y-51956D03*
G54D54*
X89307Y-52232D03*
X89464Y-52232D03*
X89622Y-52232D03*
G54D56*
X91047Y-54291D03*
X90338Y-54291D03*
G54D57*
X95196Y-49606D03*
X95196Y-48897D03*
G54D34*
X88858Y-71551D03*
X88488Y-71551D03*
X100748Y-61566D03*
X101118Y-61566D03*
G54D19*
X102795Y-61488D03*
X102165Y-61488D03*
X102188Y-36728D03*
X102188Y-37358D03*
G54D58*
X94228Y-36425D03*
X92929Y-35429D03*
G54D59*
X91513Y-35811D03*
X90513Y-35811D03*
X91513Y-38566D03*
X90513Y-38566D03*
X82513Y-38566D03*
X83513Y-38566D03*
X84513Y-38566D03*
X85513Y-38566D03*
X86513Y-38566D03*
X87513Y-38566D03*
X88513Y-38566D03*
X89513Y-38566D03*
X82513Y-35811D03*
X83513Y-35811D03*
X84513Y-35811D03*
X85513Y-35811D03*
X86513Y-35811D03*
X87513Y-35811D03*
X88513Y-35811D03*
X89513Y-35811D03*
G54D60*
X82824Y-68149D03*
X81824Y-68149D03*
X80824Y-68149D03*
X79824Y-68149D03*
X78824Y-68149D03*
X82824Y-70118D03*
X81824Y-70118D03*
X80824Y-70118D03*
X79824Y-70118D03*
X78824Y-70118D03*
G54D34*
X106232Y-47874D03*
X106602Y-47874D03*
X106232Y-48385D03*
X106602Y-48385D03*
G54D61*
X82329Y-71864D03*
X82329Y-72364D03*
X82329Y-72864D03*
X82329Y-73364D03*
X85008Y-71864D03*
X85008Y-72364D03*
X85008Y-72864D03*
X85008Y-73364D03*
G54D62*
X94744Y-59192D03*
X95000Y-59192D03*
X95255Y-59192D03*
X95255Y-58444D03*
X94744Y-58444D03*
X95000Y-58444D03*
G54D34*
X94598Y-59901D03*
X94968Y-59901D03*
X95641Y-58444D03*
X96011Y-58444D03*
G54D63*
X74803Y-38066D03*
X74803Y-36019D03*
X79488Y-36019D03*
G54D64*
X77145Y-37614D03*
G54D63*
X79488Y-38066D03*
G54D65*
X77145Y-40232D03*
G54D66*
X91643Y-73907D03*
X91643Y-72647D03*
X90383Y-72647D03*
G54D67*
X89498Y-74458D03*
X89498Y-74301D03*
G54D68*
X89832Y-71761D03*
X89994Y-71761D03*
G54D67*
X92529Y-72096D03*
X92529Y-72253D03*
G54D68*
X92194Y-74793D03*
X92037Y-74793D03*
G54D67*
X92529Y-73671D03*
X92529Y-73513D03*
X92529Y-73356D03*
X92529Y-73198D03*
X92529Y-73041D03*
X92529Y-72883D03*
X92529Y-72726D03*
X92529Y-72568D03*
X92529Y-72411D03*
X92529Y-74458D03*
X92529Y-74301D03*
X92529Y-74143D03*
X92529Y-73986D03*
X92529Y-73828D03*
G54D68*
X90620Y-71761D03*
X90462Y-71761D03*
X90305Y-71761D03*
X90147Y-71761D03*
X92194Y-71761D03*
X92037Y-71761D03*
X91879Y-71761D03*
X91722Y-71761D03*
X91564Y-71761D03*
X91407Y-71761D03*
X91250Y-71761D03*
X91092Y-71761D03*
X90935Y-71761D03*
X90777Y-71761D03*
G54D67*
X89498Y-73356D03*
X89498Y-73513D03*
X89498Y-73671D03*
X89498Y-73828D03*
X89498Y-73986D03*
X89498Y-74143D03*
X89498Y-72096D03*
X89498Y-72253D03*
X89498Y-72411D03*
X89498Y-72568D03*
X89498Y-72726D03*
X89498Y-72883D03*
X89498Y-73041D03*
X89498Y-73198D03*
G54D69*
X89832Y-74793D03*
G54D68*
X89990Y-74793D03*
X90147Y-74793D03*
X90305Y-74793D03*
X90462Y-74793D03*
X90620Y-74793D03*
X90777Y-74793D03*
X90935Y-74793D03*
X91092Y-74793D03*
X91250Y-74793D03*
X91407Y-74793D03*
X91564Y-74793D03*
X91722Y-74793D03*
X91879Y-74793D03*
G54D66*
X90383Y-73907D03*
M02*
