G04 (created by PCBNEW (2013-07-07 BZR 4022)-stable) date 10/02/2015 04:29:17*
%MOIN*%
G04 Gerber Fmt 3.4, Leading zero omitted, Abs format*
%FSLAX34Y34*%
G01*
G70*
G90*
G04 APERTURE LIST*
%ADD10C,0.00590551*%
%ADD11C,0.019685*%
%ADD12R,0.0392X0.0392*%
%ADD13R,0.015748X0.0265748*%
%ADD14R,0.00787402X0.0265748*%
%ADD15R,0.0314961X0.0669291*%
%ADD16R,0.0590551X0.0236*%
%ADD17R,0.0236X0.0590551*%
%ADD18C,0.015748*%
%ADD19C,0.011811*%
%ADD20R,0.0314X0.0314*%
%ADD21R,0.126X0.05*%
%ADD22R,0.0393701X0.0393701*%
%ADD23R,0.0866142X0.0413386*%
%ADD24R,0.0597X0.0597*%
%ADD25C,0.0597*%
%ADD26C,0.23622*%
%ADD27C,0.0787402*%
%ADD28R,0.0748031X0.011811*%
%ADD29R,0.00984252X0.0472441*%
%ADD30R,0.0472441X0.00984252*%
%ADD31C,0.0393701*%
%ADD32R,0.0610236X0.00984252*%
%ADD33R,0.00984252X0.0610236*%
%ADD34R,0.314961X0.314961*%
%ADD35R,0.19685X0.19685*%
%ADD36O,0.00984252X0.0610236*%
%ADD37R,0.0195X0.0195*%
%ADD38R,0.0314X0.0275*%
%ADD39R,0.0175X0.0195*%
%ADD40R,0.0195X0.0175*%
%ADD41C,0.216535*%
%ADD42C,0.0708661*%
%ADD43C,0.0590551*%
%ADD44C,0.0984252*%
%ADD45C,0.145669*%
%ADD46C,0.023622*%
%ADD47R,0.0393701X0.0610236*%
%ADD48R,0.0314961X0.0551181*%
%ADD49R,0.0570866X0.0393701*%
%ADD50R,0.0314961X0.0590551*%
%ADD51R,0.0590551X0.0590551*%
%ADD52R,0.0275591X0.0688976*%
%ADD53R,0.0511811X0.0590551*%
%ADD54R,0.0748031X0.0748031*%
%ADD55R,0.015748X0.0531496*%
%ADD56R,0.100394X0.0748031*%
%ADD57R,0.0787X0.0984*%
%ADD58R,0.05X0.0169291*%
%ADD59R,0.063X0.0118*%
%ADD60R,0.063X0.0276*%
%ADD61R,0.122X0.063*%
%ADD62C,0.0944882*%
%ADD63C,0.0551181*%
%ADD64C,0.19685*%
%ADD65C,0.0354331*%
%ADD66R,0.0314961X0.00787402*%
%ADD67R,0.00787402X0.0314961*%
%ADD68O,0.0314961X0.00787402*%
%ADD69R,0.0314961X0.0492126*%
%ADD70R,0.0492126X0.0314961*%
%ADD71R,0.0866142X0.0669291*%
%ADD72O,0.401575X0.0669291*%
%ADD73R,0.0393701X0.163386*%
%ADD74R,0.05X0.126*%
%ADD75R,0.0492126X0.0299213*%
%ADD76R,0.0165354X0.023622*%
%ADD77O,0.0590551X0.110236*%
%ADD78O,0.11811X0.0590551*%
%ADD79C,0.11811*%
%ADD80R,0.0787402X0.0787402*%
%ADD81O,0.023622X0.00787402*%
%ADD82O,0.00787402X0.023622*%
%ADD83R,0.255906X0.255906*%
%ADD84R,0.00787402X0.023622*%
%ADD85C,0.019685*%
%ADD86C,0.00787402*%
%ADD87C,0.011811*%
%ADD88C,0.0110236*%
%ADD89C,0.015748*%
%ADD90C,0.00984252*%
%ADD91C,0.0393701*%
%ADD92C,0.00393701*%
%ADD93C,0.0314961*%
%ADD94C,0.0787402*%
G04 APERTURE END LIST*
G54D10*
G54D11*
X71889Y-46692D03*
X71531Y-46232D03*
X71141Y-46692D03*
X71141Y-44566D03*
X71531Y-44106D03*
X71889Y-44566D03*
X71889Y-42480D03*
X71531Y-42019D03*
X71141Y-42480D03*
X71338Y-38818D03*
X71728Y-38358D03*
X72086Y-38818D03*
X73937Y-40000D03*
X73578Y-39539D03*
X73188Y-40000D03*
X73188Y-35669D03*
X73578Y-35208D03*
X73937Y-35669D03*
X73937Y-37007D03*
X73578Y-36547D03*
X73188Y-37007D03*
X73188Y-38346D03*
X73578Y-37885D03*
X73937Y-38346D03*
X104094Y-38602D03*
X104094Y-37874D03*
X104094Y-38248D03*
X103759Y-38248D03*
X103759Y-37874D03*
X103759Y-38602D03*
X103405Y-38602D03*
X103405Y-37874D03*
X103405Y-38248D03*
X103070Y-38248D03*
X103070Y-37874D03*
X103070Y-38602D03*
X105118Y-59055D03*
X105118Y-58208D03*
X105118Y-59921D03*
X107559Y-62185D03*
X88188Y-50925D03*
X88637Y-51200D03*
X93236Y-43653D03*
X92291Y-43653D03*
X94141Y-43653D03*
X94141Y-44716D03*
X94133Y-46673D03*
X94133Y-47303D03*
X92291Y-44716D03*
X84019Y-37181D03*
X85889Y-37185D03*
X79074Y-48307D03*
X78582Y-48307D03*
X78070Y-48307D03*
X77212Y-49850D03*
X77212Y-50598D03*
X77212Y-50244D03*
X76858Y-50244D03*
X76858Y-50598D03*
X76858Y-49850D03*
X76503Y-49850D03*
X76503Y-50598D03*
X76503Y-50244D03*
X75082Y-50236D03*
X75082Y-50590D03*
X75082Y-49842D03*
X74708Y-50236D03*
X74708Y-50590D03*
X74708Y-49842D03*
X75866Y-54866D03*
X76417Y-54866D03*
X76141Y-54866D03*
X76141Y-55141D03*
X76141Y-54590D03*
X76417Y-54590D03*
X76417Y-55141D03*
X75866Y-55141D03*
X71968Y-54688D03*
X71968Y-54314D03*
X71968Y-55062D03*
X72342Y-55062D03*
X72342Y-54314D03*
X72342Y-54688D03*
X75570Y-58307D03*
X75098Y-58307D03*
X77165Y-62637D03*
X106279Y-63129D03*
X105039Y-64330D03*
X79527Y-45216D03*
X80196Y-45216D03*
X79862Y-45216D03*
X79192Y-45511D03*
X79527Y-45511D03*
X78858Y-45511D03*
X78503Y-45511D03*
X77677Y-46456D03*
X78228Y-46456D03*
X78228Y-46791D03*
X77677Y-46791D03*
X84330Y-45570D03*
X78826Y-51507D03*
X79330Y-47696D03*
X78838Y-47696D03*
X78326Y-47696D03*
X77834Y-47696D03*
X76625Y-48897D03*
X77145Y-47933D03*
X77145Y-47381D03*
X77677Y-46122D03*
X78228Y-46122D03*
X76968Y-46791D03*
X79862Y-46673D03*
X86200Y-46437D03*
X86590Y-45976D03*
X86948Y-46437D03*
X85511Y-45964D03*
X84330Y-46082D03*
X80511Y-46358D03*
X80177Y-46358D03*
X80177Y-47480D03*
X80511Y-47480D03*
X74350Y-53287D03*
X74685Y-53011D03*
X74685Y-52736D03*
X74685Y-53287D03*
X75437Y-49842D03*
X75437Y-50590D03*
X75437Y-50236D03*
X98807Y-71535D03*
X104606Y-64507D03*
X105866Y-63523D03*
X105452Y-63897D03*
X107106Y-63976D03*
X104606Y-64783D03*
X106555Y-64527D03*
X105767Y-65354D03*
X106555Y-66259D03*
X103149Y-41929D03*
X103149Y-42322D03*
X103149Y-42716D03*
X103149Y-43503D03*
X103149Y-43110D03*
X103149Y-43897D03*
X103149Y-44291D03*
X102755Y-43897D03*
X102362Y-43897D03*
X102755Y-43110D03*
X102362Y-43110D03*
X102362Y-43503D03*
X102755Y-43503D03*
X102755Y-42716D03*
X102362Y-42716D03*
X102362Y-42322D03*
X102755Y-42322D03*
X102755Y-41929D03*
X102362Y-41929D03*
X103543Y-41929D03*
X103937Y-41929D03*
X103937Y-42322D03*
X103543Y-42322D03*
X103543Y-42716D03*
X103937Y-42716D03*
X103937Y-43503D03*
X103543Y-43503D03*
X103543Y-43110D03*
X103937Y-43110D03*
X103543Y-43897D03*
X103937Y-43897D03*
X103937Y-44291D03*
X103543Y-44291D03*
X107791Y-46889D03*
X101716Y-42334D03*
X106811Y-45925D03*
X106259Y-46570D03*
X93228Y-47303D03*
X93228Y-46673D03*
X93228Y-48051D03*
X92007Y-48051D03*
X100354Y-73759D03*
X101023Y-73759D03*
X97637Y-79586D03*
X97637Y-78129D03*
X97637Y-76830D03*
X95748Y-76830D03*
X95748Y-78129D03*
X93425Y-77618D03*
X92559Y-77618D03*
X92240Y-78448D03*
X92389Y-81149D03*
X96566Y-80759D03*
X95748Y-79586D03*
X96181Y-79114D03*
X74629Y-76291D03*
X75216Y-77602D03*
X75401Y-74960D03*
G54D12*
X67322Y-86220D03*
X115748Y-86220D03*
X115748Y-31889D03*
G54D11*
X87755Y-79665D03*
X87007Y-79665D03*
X86141Y-79665D03*
X82677Y-79665D03*
X83543Y-79665D03*
X85157Y-79665D03*
X84291Y-79665D03*
X79940Y-72677D03*
X79566Y-72677D03*
X78838Y-72677D03*
X79192Y-72677D03*
X109862Y-59429D03*
X110354Y-62401D03*
X110354Y-61633D03*
X109862Y-61870D03*
X109862Y-62401D03*
X108720Y-66259D03*
X107381Y-66259D03*
X104468Y-67500D03*
X103543Y-68129D03*
X102893Y-67933D03*
X99872Y-45964D03*
X81960Y-81755D03*
X81299Y-81830D03*
X83578Y-81799D03*
X82334Y-81755D03*
X102066Y-38602D03*
X102066Y-37874D03*
X102066Y-38248D03*
X102401Y-38248D03*
X102401Y-37874D03*
X102401Y-38602D03*
X102736Y-38602D03*
X102736Y-37874D03*
X102736Y-38248D03*
X104429Y-38248D03*
X104429Y-37874D03*
X104429Y-38602D03*
X103291Y-44980D03*
X106799Y-46555D03*
X83110Y-57618D03*
X82244Y-57618D03*
X82677Y-57145D03*
X103822Y-81342D03*
X93236Y-44716D03*
X86614Y-44429D03*
X86181Y-44901D03*
X87047Y-44901D03*
X85822Y-44440D03*
X86181Y-43759D03*
X86614Y-43287D03*
X87771Y-49980D03*
X85000Y-43287D03*
X84566Y-43759D03*
X85433Y-43759D03*
X85433Y-44901D03*
X85000Y-44429D03*
X86062Y-62027D03*
X86062Y-61043D03*
X86062Y-61594D03*
X82244Y-56555D03*
X83110Y-56555D03*
X83677Y-58188D03*
X83681Y-57141D03*
X82881Y-58212D03*
X88070Y-44901D03*
X92007Y-46673D03*
X91338Y-46673D03*
X87834Y-46437D03*
X89094Y-47578D03*
X87248Y-48700D03*
X88188Y-49704D03*
X87322Y-49704D03*
X96062Y-56948D03*
X99318Y-55787D03*
X101653Y-55413D03*
X102283Y-54685D03*
X99488Y-55413D03*
X100393Y-53444D03*
X100393Y-52696D03*
X100393Y-51870D03*
X100393Y-50452D03*
X100393Y-49153D03*
X100393Y-47893D03*
X100393Y-47263D03*
X100393Y-45964D03*
X100472Y-45098D03*
X106141Y-45925D03*
X105354Y-45925D03*
X99566Y-43169D03*
X99566Y-44114D03*
X101574Y-43129D03*
X101574Y-44074D03*
X111259Y-38090D03*
X110826Y-38562D03*
X111692Y-38562D03*
X112755Y-52775D03*
X112755Y-51003D03*
X112755Y-47893D03*
X112755Y-49665D03*
X112755Y-43444D03*
X112755Y-41673D03*
X112755Y-44783D03*
X112755Y-46555D03*
X112755Y-58996D03*
X112755Y-57224D03*
X112755Y-54114D03*
X112755Y-55885D03*
X112755Y-62106D03*
X112755Y-60334D03*
X112755Y-63444D03*
X112755Y-65216D03*
X112755Y-66555D03*
X110826Y-66909D03*
X109015Y-66909D03*
X109881Y-66909D03*
X112086Y-70846D03*
X111653Y-71318D03*
X112519Y-71318D03*
X111338Y-78090D03*
X110472Y-78090D03*
X110905Y-77618D03*
X112007Y-78641D03*
X111574Y-79114D03*
X112440Y-79114D03*
X110314Y-79114D03*
X109811Y-79460D03*
X109881Y-78641D03*
X109881Y-80374D03*
X109448Y-80846D03*
X110314Y-80846D03*
X79192Y-72342D03*
X78838Y-72342D03*
X75881Y-81791D03*
X75688Y-82531D03*
X77169Y-81933D03*
X74440Y-80720D03*
X72909Y-80791D03*
X74724Y-81830D03*
X72795Y-76988D03*
X72669Y-77452D03*
X73228Y-77460D03*
X71000Y-78023D03*
X70748Y-77460D03*
X71181Y-76988D03*
X71181Y-74980D03*
X70748Y-75452D03*
X71566Y-74507D03*
X73228Y-75452D03*
X72641Y-75456D03*
X72732Y-74559D03*
X72834Y-70964D03*
X72401Y-71437D03*
X73267Y-71437D03*
X71653Y-71437D03*
X70787Y-71437D03*
X71220Y-70964D03*
X71181Y-68326D03*
X70748Y-68799D03*
X71614Y-68799D03*
X80362Y-81791D03*
X78468Y-81858D03*
X79468Y-81811D03*
X75598Y-79181D03*
X75448Y-76149D03*
X76625Y-49468D03*
X75570Y-58602D03*
X75098Y-58602D03*
X79862Y-47224D03*
X79862Y-45511D03*
X79862Y-46102D03*
X76417Y-46791D03*
X75570Y-58011D03*
X75098Y-58011D03*
X92047Y-74429D03*
X91692Y-74429D03*
X90984Y-74429D03*
X91338Y-74429D03*
X90629Y-74429D03*
X90275Y-74429D03*
X89921Y-74429D03*
X89921Y-74114D03*
X90275Y-74114D03*
X90629Y-74114D03*
X91338Y-74114D03*
X90984Y-74114D03*
X91692Y-74114D03*
X92047Y-74114D03*
X92047Y-73759D03*
X91692Y-73759D03*
X90984Y-73759D03*
X91338Y-73759D03*
X90629Y-73759D03*
X90275Y-73759D03*
X89921Y-73759D03*
X89921Y-73051D03*
X90275Y-73051D03*
X90629Y-73051D03*
X91338Y-73051D03*
X90984Y-73051D03*
X91692Y-73051D03*
X92047Y-73051D03*
X92047Y-73405D03*
X91692Y-73405D03*
X90984Y-73405D03*
X91338Y-73405D03*
X90629Y-73405D03*
X90275Y-73405D03*
X89921Y-73405D03*
X89921Y-72578D03*
X90275Y-72578D03*
X90629Y-72578D03*
X91338Y-72578D03*
X90984Y-72578D03*
X91692Y-72578D03*
X92047Y-72578D03*
X92047Y-72224D03*
X91692Y-72224D03*
X90984Y-72224D03*
X91338Y-72224D03*
X90629Y-72224D03*
X90275Y-72224D03*
X89921Y-72224D03*
X77165Y-62362D03*
X77165Y-62086D03*
X77204Y-61417D03*
X76771Y-61417D03*
X76771Y-61712D03*
X77204Y-61712D03*
X77204Y-61122D03*
X76771Y-61122D03*
X71594Y-54688D03*
X71594Y-54314D03*
X71594Y-55062D03*
X76149Y-50244D03*
X75795Y-50244D03*
X75795Y-50598D03*
X76149Y-50598D03*
X75795Y-49850D03*
X76149Y-49850D03*
X75866Y-54590D03*
X108307Y-58976D03*
X108307Y-59291D03*
X104330Y-44291D03*
X104724Y-44291D03*
X105511Y-44291D03*
X105118Y-44291D03*
X105905Y-44291D03*
X106299Y-44291D03*
X106692Y-44291D03*
X107086Y-44291D03*
X107086Y-43897D03*
X106692Y-43897D03*
X106299Y-43897D03*
X105905Y-43897D03*
X105118Y-43897D03*
X105511Y-43897D03*
X104724Y-43897D03*
X104330Y-43897D03*
X107086Y-43110D03*
X106692Y-43110D03*
X106299Y-43110D03*
X105905Y-43110D03*
X105118Y-43110D03*
X105511Y-43110D03*
X104724Y-43110D03*
X104330Y-43110D03*
X104330Y-43503D03*
X104724Y-43503D03*
X105511Y-43503D03*
X105118Y-43503D03*
X105905Y-43503D03*
X106299Y-43503D03*
X106692Y-43503D03*
X107086Y-43503D03*
X107086Y-42716D03*
X106692Y-42716D03*
X106299Y-42716D03*
X105905Y-42716D03*
X105118Y-42716D03*
X105511Y-42716D03*
X104724Y-42716D03*
X104330Y-42716D03*
X104330Y-42322D03*
X104724Y-42322D03*
X105511Y-42322D03*
X105118Y-42322D03*
X105905Y-42322D03*
X106299Y-42322D03*
X106692Y-42322D03*
X107086Y-42322D03*
X107086Y-41929D03*
X106692Y-41929D03*
X106299Y-41929D03*
X105905Y-41929D03*
X105118Y-41929D03*
X105511Y-41929D03*
X104724Y-41929D03*
G54D13*
X97125Y-37849D03*
X97125Y-37505D03*
G54D14*
X97322Y-37505D03*
X97519Y-37505D03*
X97322Y-37849D03*
X97519Y-37849D03*
X96929Y-37849D03*
X96732Y-37849D03*
X96732Y-37505D03*
X96929Y-37505D03*
G54D15*
X86574Y-80393D03*
X87913Y-80393D03*
X96584Y-71978D03*
X97923Y-71978D03*
X103090Y-36023D03*
X104429Y-36023D03*
G54D16*
X88228Y-47045D03*
X88228Y-47545D03*
X88228Y-48045D03*
X88228Y-48545D03*
X90354Y-48545D03*
X90354Y-48045D03*
X90354Y-47545D03*
X90354Y-47045D03*
G54D17*
X89332Y-43582D03*
X88832Y-43582D03*
X88332Y-43582D03*
X87832Y-43582D03*
X87832Y-45708D03*
X88332Y-45708D03*
X88832Y-45708D03*
X89332Y-45708D03*
G54D18*
X85314Y-62716D03*
X85000Y-62716D03*
X84685Y-62716D03*
X86574Y-62716D03*
X86889Y-62716D03*
X87204Y-62716D03*
X86889Y-62401D03*
X86574Y-62401D03*
X84685Y-62401D03*
X85000Y-62401D03*
X85314Y-62401D03*
X85314Y-61771D03*
X85000Y-61771D03*
X84685Y-61771D03*
X86574Y-61771D03*
X86889Y-61771D03*
X87204Y-62086D03*
X86889Y-62086D03*
X86574Y-62086D03*
X85000Y-62086D03*
X85314Y-62086D03*
X85314Y-60826D03*
X85000Y-60826D03*
X86574Y-60826D03*
X86889Y-60826D03*
X87204Y-60826D03*
X85314Y-61141D03*
X85000Y-61141D03*
X84685Y-61141D03*
X86574Y-61141D03*
X86889Y-61141D03*
X87204Y-61456D03*
X86889Y-61456D03*
X86574Y-61456D03*
X85000Y-61456D03*
X85314Y-61456D03*
X85314Y-64291D03*
X85000Y-64291D03*
X84685Y-64291D03*
X86574Y-64291D03*
X86889Y-64291D03*
X87204Y-64291D03*
X87204Y-63976D03*
X86889Y-63976D03*
X86574Y-63976D03*
X84685Y-63976D03*
X85000Y-63976D03*
X85314Y-63976D03*
X85314Y-63031D03*
X85000Y-63031D03*
X84685Y-63031D03*
X86574Y-63031D03*
X86889Y-63031D03*
X87204Y-63031D03*
X87204Y-63346D03*
X86889Y-63346D03*
X86574Y-63346D03*
X84685Y-63346D03*
X85000Y-63346D03*
X85314Y-63346D03*
X85314Y-64606D03*
X85000Y-64606D03*
X84685Y-64606D03*
X86574Y-64606D03*
X86889Y-64606D03*
X87204Y-64606D03*
X87204Y-63661D03*
X86889Y-63661D03*
X86574Y-63661D03*
X84685Y-63661D03*
X85000Y-63661D03*
X85314Y-63661D03*
X85314Y-64921D03*
X85000Y-64921D03*
X84685Y-64921D03*
X86574Y-64921D03*
X86889Y-64921D03*
X87204Y-64921D03*
X87204Y-65236D03*
X86889Y-65236D03*
X86574Y-65236D03*
X84685Y-65236D03*
X85000Y-65236D03*
X85314Y-65236D03*
X86574Y-68858D03*
X86889Y-68858D03*
X87204Y-68858D03*
X85314Y-68858D03*
X85000Y-68858D03*
X84685Y-68858D03*
X85000Y-69173D03*
X85314Y-69173D03*
X87204Y-69173D03*
X86889Y-69173D03*
X86574Y-69173D03*
X86574Y-69803D03*
X86889Y-69803D03*
X87204Y-69803D03*
X85314Y-69803D03*
X85000Y-69803D03*
X84685Y-69488D03*
X85000Y-69488D03*
X85314Y-69488D03*
X86889Y-69488D03*
X86574Y-69488D03*
X86574Y-70748D03*
X86889Y-70748D03*
X85314Y-70748D03*
X85000Y-70748D03*
X84685Y-70748D03*
X86574Y-70433D03*
X86889Y-70433D03*
X87204Y-70433D03*
X85314Y-70433D03*
X85000Y-70433D03*
X84685Y-70118D03*
X85000Y-70118D03*
X85314Y-70118D03*
X86889Y-70118D03*
X86574Y-70118D03*
X86574Y-67283D03*
X86889Y-67283D03*
X87204Y-67283D03*
X85314Y-67283D03*
X85000Y-67283D03*
X84685Y-67283D03*
X84685Y-67598D03*
X85000Y-67598D03*
X85314Y-67598D03*
X87204Y-67598D03*
X86889Y-67598D03*
X86574Y-67598D03*
X86574Y-68543D03*
X86889Y-68543D03*
X87204Y-68543D03*
X85314Y-68543D03*
X85000Y-68543D03*
X84685Y-68543D03*
X84685Y-68228D03*
X85000Y-68228D03*
X85314Y-68228D03*
X87204Y-68228D03*
X86889Y-68228D03*
X86574Y-68228D03*
X86574Y-66968D03*
X86889Y-66968D03*
X87204Y-66968D03*
X85314Y-66968D03*
X85000Y-66968D03*
X84685Y-66968D03*
X84685Y-67913D03*
X85000Y-67913D03*
X85314Y-67913D03*
X87204Y-67913D03*
X86889Y-67913D03*
X86574Y-67913D03*
X86574Y-66653D03*
X86889Y-66653D03*
X87204Y-66653D03*
X85314Y-66653D03*
X85000Y-66653D03*
X84685Y-66653D03*
X84685Y-66338D03*
X85000Y-66338D03*
X85314Y-66338D03*
X87204Y-66338D03*
X86889Y-66338D03*
X86574Y-66338D03*
G54D19*
X92716Y-52391D03*
X92716Y-52076D03*
X92716Y-51761D03*
X92716Y-51446D03*
X92716Y-53966D03*
X92716Y-53651D03*
X92716Y-53336D03*
X92716Y-53021D03*
X94291Y-53021D03*
X94291Y-53336D03*
X94291Y-53651D03*
X94291Y-53966D03*
X94291Y-51446D03*
X94291Y-51761D03*
X94291Y-52076D03*
X94291Y-52391D03*
X93976Y-51131D03*
X93976Y-52706D03*
X93976Y-54281D03*
X93976Y-52391D03*
X93976Y-52076D03*
X93976Y-51761D03*
X93976Y-51446D03*
X93976Y-53966D03*
X93976Y-53651D03*
X93976Y-53336D03*
X93976Y-53021D03*
X93661Y-53021D03*
X93661Y-53336D03*
X93661Y-53651D03*
X93661Y-53966D03*
X93661Y-51446D03*
X93661Y-51761D03*
X93661Y-52076D03*
X93661Y-52391D03*
X93661Y-54281D03*
X93661Y-52706D03*
X93661Y-51131D03*
X93346Y-51131D03*
X93346Y-52706D03*
X93346Y-54281D03*
X93346Y-52391D03*
X93346Y-52076D03*
X93346Y-51761D03*
X93346Y-51446D03*
X93346Y-53966D03*
X93346Y-53651D03*
X93346Y-53336D03*
X93346Y-53021D03*
X93031Y-53021D03*
X93031Y-53336D03*
X93031Y-53651D03*
X93031Y-53966D03*
X93031Y-51446D03*
X93031Y-51761D03*
X93031Y-52076D03*
X93031Y-52391D03*
X93031Y-54281D03*
X93031Y-52706D03*
X93031Y-51131D03*
X94606Y-51131D03*
X94606Y-52706D03*
X94606Y-54281D03*
X94606Y-52391D03*
X94606Y-52076D03*
X94606Y-51761D03*
X94606Y-51446D03*
X94606Y-53966D03*
X94606Y-53651D03*
X94606Y-53336D03*
X94606Y-53021D03*
X94921Y-53021D03*
X94921Y-53336D03*
X94921Y-53651D03*
X94921Y-53966D03*
X94921Y-51446D03*
X94921Y-51761D03*
X94921Y-52076D03*
X94921Y-52391D03*
X94921Y-54281D03*
X94921Y-52706D03*
X94921Y-51131D03*
X95236Y-51131D03*
X95236Y-52706D03*
X95236Y-54281D03*
X95236Y-52391D03*
X95236Y-52076D03*
X95236Y-51761D03*
X95236Y-51446D03*
X95236Y-53966D03*
X95236Y-53651D03*
X95236Y-53336D03*
X95236Y-53021D03*
X95551Y-53021D03*
X95551Y-53336D03*
X95551Y-53651D03*
X95551Y-53966D03*
X95551Y-51446D03*
X95551Y-51761D03*
X95551Y-52076D03*
X95551Y-52391D03*
X95551Y-54281D03*
X95551Y-52706D03*
X95551Y-51131D03*
X95866Y-51131D03*
X95866Y-52706D03*
X95866Y-54281D03*
X92716Y-51131D03*
X92716Y-52706D03*
X92716Y-54281D03*
X94291Y-54281D03*
X94291Y-52706D03*
X94291Y-51131D03*
X95866Y-52391D03*
X95866Y-52076D03*
X95866Y-51761D03*
X95866Y-51446D03*
X95866Y-53966D03*
X95866Y-53651D03*
X95866Y-53336D03*
X95866Y-53021D03*
G54D20*
X106165Y-35362D03*
X106165Y-35992D03*
X105346Y-35366D03*
X105346Y-35996D03*
X71281Y-50565D03*
X71281Y-49935D03*
X106988Y-35364D03*
X106988Y-35994D03*
X107086Y-72381D03*
X107086Y-73011D03*
X106377Y-72381D03*
X106377Y-73011D03*
G54D21*
X100433Y-63139D03*
X100433Y-64139D03*
X100433Y-65139D03*
X100433Y-66139D03*
X100433Y-67139D03*
X102402Y-63139D03*
X102402Y-64139D03*
X102402Y-65139D03*
X102402Y-66139D03*
X102402Y-67139D03*
G54D22*
X71062Y-57834D03*
X72244Y-57834D03*
G54D23*
X71653Y-57253D03*
X71653Y-58415D03*
G54D20*
X71377Y-59685D03*
X71377Y-60315D03*
G54D24*
X108083Y-35511D03*
G54D25*
X109083Y-35511D03*
G54D26*
X111732Y-82283D03*
X111732Y-36141D03*
X71220Y-36141D03*
X71220Y-82283D03*
G54D11*
X104330Y-41929D03*
G54D27*
X70885Y-63562D03*
X72814Y-63799D03*
X72814Y-69507D03*
X70885Y-69744D03*
G54D28*
X73188Y-66751D03*
X73188Y-66948D03*
X73188Y-67145D03*
X73188Y-67342D03*
X73188Y-67539D03*
X73188Y-67736D03*
X73188Y-67933D03*
X73188Y-68129D03*
X73188Y-68326D03*
X73188Y-68523D03*
X73188Y-66555D03*
X73188Y-66358D03*
X73188Y-66161D03*
X73188Y-65964D03*
X73188Y-65767D03*
X73188Y-65570D03*
X73188Y-65374D03*
X73188Y-65177D03*
X73188Y-64980D03*
G54D11*
X78838Y-71948D03*
X78838Y-71476D03*
X79192Y-71476D03*
X79192Y-71948D03*
X79015Y-71712D03*
G54D29*
X102303Y-74212D03*
X102893Y-74212D03*
X102696Y-74212D03*
X102500Y-74212D03*
G54D30*
X101771Y-73287D03*
X101771Y-73484D03*
X101771Y-73681D03*
X101771Y-71909D03*
X101771Y-72106D03*
X101771Y-72303D03*
X101771Y-72500D03*
X101771Y-72696D03*
X101771Y-72893D03*
X101771Y-73090D03*
G54D29*
X103090Y-74212D03*
X103287Y-74212D03*
X103484Y-74212D03*
X103681Y-74212D03*
X103877Y-74212D03*
X104074Y-74212D03*
X104271Y-74212D03*
X104468Y-74212D03*
G54D30*
X105000Y-72500D03*
X105000Y-72303D03*
X105000Y-72106D03*
X105000Y-71909D03*
X105000Y-71712D03*
X105000Y-71515D03*
X105000Y-73681D03*
X105000Y-73484D03*
X105000Y-73287D03*
X105000Y-73090D03*
X105000Y-72893D03*
X105000Y-72696D03*
X101771Y-71712D03*
X101771Y-71515D03*
G54D29*
X104468Y-70984D03*
X104271Y-70984D03*
X104074Y-70984D03*
X103877Y-70984D03*
X103681Y-70984D03*
X103484Y-70984D03*
X103287Y-70984D03*
X103090Y-70984D03*
X102893Y-70984D03*
X102696Y-70984D03*
X102500Y-70984D03*
X102303Y-70984D03*
G54D31*
X95590Y-54881D03*
G54D11*
X83661Y-53543D03*
X83661Y-53031D03*
X83661Y-52007D03*
X83661Y-52519D03*
X83661Y-51496D03*
X83661Y-50984D03*
X84173Y-51496D03*
X84173Y-52519D03*
X84173Y-52007D03*
X84173Y-53031D03*
X84173Y-53543D03*
X84173Y-50984D03*
X84685Y-53543D03*
X84685Y-53031D03*
X84685Y-52007D03*
X84685Y-52519D03*
X84685Y-51496D03*
X84685Y-50984D03*
X85196Y-51496D03*
X85196Y-52519D03*
X85196Y-52007D03*
X85196Y-53031D03*
X85196Y-53543D03*
X85196Y-50984D03*
X85708Y-53543D03*
X85708Y-53031D03*
X85708Y-52007D03*
X85708Y-52519D03*
X85708Y-51496D03*
X85708Y-50984D03*
X86220Y-50984D03*
X86220Y-51496D03*
X86220Y-52007D03*
X86220Y-53543D03*
X86220Y-53031D03*
X86220Y-52519D03*
G54D32*
X87145Y-50787D03*
X87145Y-50984D03*
G54D33*
X86417Y-54468D03*
X86220Y-54468D03*
G54D32*
X82736Y-53740D03*
X82736Y-53543D03*
G54D33*
X83464Y-50059D03*
X83661Y-50059D03*
G54D34*
X84940Y-52263D03*
G54D35*
X84941Y-52263D03*
G54D32*
X82736Y-51771D03*
X82736Y-51968D03*
X82736Y-52165D03*
X82736Y-52362D03*
X82736Y-52559D03*
X82736Y-52755D03*
X82736Y-52952D03*
X82736Y-53149D03*
X82736Y-53346D03*
X82736Y-50787D03*
X82736Y-50984D03*
X82736Y-51181D03*
X82736Y-51377D03*
X82736Y-51574D03*
G54D33*
X85433Y-54468D03*
X85629Y-54468D03*
X85826Y-54468D03*
X86023Y-54468D03*
X83464Y-54468D03*
X83661Y-54468D03*
X83858Y-54468D03*
X84055Y-54468D03*
X84251Y-54468D03*
X84448Y-54468D03*
X84645Y-54468D03*
X84842Y-54468D03*
X85039Y-54468D03*
X85236Y-54468D03*
G54D32*
X87145Y-52165D03*
X87145Y-51968D03*
X87145Y-51771D03*
X87145Y-51574D03*
X87145Y-51377D03*
X87145Y-51181D03*
X87145Y-53740D03*
X87145Y-53543D03*
X87145Y-53346D03*
X87145Y-53149D03*
X87145Y-52952D03*
X87145Y-52755D03*
X87145Y-52559D03*
X87145Y-52362D03*
G54D36*
X86417Y-50059D03*
G54D33*
X86220Y-50059D03*
X86023Y-50059D03*
X85826Y-50059D03*
X85629Y-50059D03*
X85433Y-50059D03*
X85236Y-50059D03*
X85039Y-50059D03*
X84842Y-50059D03*
X84645Y-50059D03*
X84448Y-50059D03*
X84251Y-50059D03*
X84055Y-50059D03*
X83839Y-50056D03*
G54D37*
X93346Y-50000D03*
X93700Y-50000D03*
X93346Y-50334D03*
X93700Y-50334D03*
X97145Y-54291D03*
X97145Y-54645D03*
X93819Y-55944D03*
X94173Y-55944D03*
X81771Y-38551D03*
X81771Y-38197D03*
X90354Y-46437D03*
X90708Y-46437D03*
X102145Y-35748D03*
X102499Y-35748D03*
X96909Y-52391D03*
X96555Y-52391D03*
X92726Y-55817D03*
X92726Y-56171D03*
X95117Y-55059D03*
X94763Y-55059D03*
X96151Y-55059D03*
X96151Y-55413D03*
X94291Y-50344D03*
X94645Y-50344D03*
X91830Y-52382D03*
X91830Y-52736D03*
X91830Y-53405D03*
X91830Y-53051D03*
X92726Y-55068D03*
X92372Y-55068D03*
X97696Y-54291D03*
X97696Y-54645D03*
X95689Y-50039D03*
X96043Y-50039D03*
X95689Y-50344D03*
X96043Y-50344D03*
X90019Y-45708D03*
X90373Y-45708D03*
X91102Y-53130D03*
X91102Y-53484D03*
X94074Y-55059D03*
X94428Y-55059D03*
X94291Y-50019D03*
X94645Y-50019D03*
X91614Y-54665D03*
X91968Y-54665D03*
X91830Y-52027D03*
X91830Y-51673D03*
X91968Y-53956D03*
X91968Y-54310D03*
X96909Y-52706D03*
X96555Y-52706D03*
X96033Y-71742D03*
X95679Y-71742D03*
X87972Y-67598D03*
X88326Y-67598D03*
X87972Y-66968D03*
X88326Y-66968D03*
X87972Y-68228D03*
X88326Y-68228D03*
G54D38*
X88484Y-80392D03*
X88484Y-79962D03*
X81283Y-38545D03*
X81283Y-38115D03*
G54D39*
X101700Y-37421D03*
X101330Y-37421D03*
X76389Y-70236D03*
X76759Y-70236D03*
X74318Y-64980D03*
X73948Y-64980D03*
X71901Y-60314D03*
X72271Y-60314D03*
X89263Y-39881D03*
X89633Y-39881D03*
X79854Y-49070D03*
X80224Y-49070D03*
G54D40*
X84090Y-48562D03*
X84090Y-48192D03*
G54D39*
X79858Y-49527D03*
X80228Y-49527D03*
X88708Y-42834D03*
X88338Y-42834D03*
X90391Y-44980D03*
X90021Y-44980D03*
X90391Y-43572D03*
X90021Y-43572D03*
X87078Y-48051D03*
X87448Y-48051D03*
G54D40*
X91220Y-47177D03*
X91220Y-47547D03*
X91594Y-47177D03*
X91594Y-47547D03*
X102539Y-75283D03*
X102539Y-74913D03*
G54D39*
X77625Y-69803D03*
X77255Y-69803D03*
X77625Y-68937D03*
X77255Y-68937D03*
G54D40*
X103129Y-75283D03*
X103129Y-74913D03*
X102854Y-75283D03*
X102854Y-74913D03*
G54D39*
X77625Y-70236D03*
X77255Y-70236D03*
X77625Y-69370D03*
X77255Y-69370D03*
G54D40*
X91220Y-48043D03*
X91220Y-48413D03*
G54D39*
X102137Y-35314D03*
X102507Y-35314D03*
X106803Y-36496D03*
X107173Y-36496D03*
X99358Y-37431D03*
X98988Y-37431D03*
X105795Y-36496D03*
X106165Y-36496D03*
X100523Y-37431D03*
X100893Y-37431D03*
X104976Y-36500D03*
X105346Y-36500D03*
G54D40*
X102263Y-75283D03*
X102263Y-74913D03*
X106377Y-73846D03*
X106377Y-73476D03*
X107086Y-73846D03*
X107086Y-73476D03*
G54D39*
X103082Y-35157D03*
X103452Y-35157D03*
X97059Y-57913D03*
X97429Y-57913D03*
X97330Y-57027D03*
X96960Y-57027D03*
G54D40*
X71281Y-48946D03*
X71281Y-49316D03*
G54D39*
X96031Y-72106D03*
X95661Y-72106D03*
G54D40*
X82795Y-66704D03*
X82795Y-67074D03*
G54D39*
X80751Y-66913D03*
X80381Y-66913D03*
G54D40*
X78838Y-67074D03*
X78838Y-66704D03*
X97196Y-72811D03*
X97196Y-73181D03*
X87846Y-71862D03*
X87846Y-71492D03*
X96322Y-72811D03*
X96322Y-73181D03*
X89767Y-53224D03*
X89767Y-52854D03*
X89401Y-53220D03*
X89401Y-52850D03*
X95389Y-74196D03*
X95389Y-73826D03*
G54D39*
X101118Y-60877D03*
X100748Y-60877D03*
X100763Y-60145D03*
X101133Y-60145D03*
G54D40*
X95389Y-72811D03*
X95389Y-73181D03*
X86417Y-71862D03*
X86417Y-71492D03*
X97196Y-74208D03*
X97196Y-73838D03*
X87370Y-71862D03*
X87370Y-71492D03*
X86889Y-71862D03*
X86889Y-71492D03*
X96326Y-74196D03*
X96326Y-73826D03*
G54D41*
X100291Y-41531D03*
X85251Y-41531D03*
X100291Y-57279D03*
X85251Y-57279D03*
G54D21*
X103021Y-68750D03*
X103021Y-69750D03*
X104990Y-68750D03*
X104990Y-69750D03*
G54D42*
X71515Y-79417D03*
X70515Y-79417D03*
X72515Y-73496D03*
X71515Y-73496D03*
G54D43*
X77614Y-78854D03*
X77614Y-78055D03*
X77614Y-77255D03*
X77614Y-75657D03*
X77614Y-74858D03*
X77614Y-74059D03*
X76614Y-78454D03*
X76614Y-77655D03*
X76614Y-76856D03*
X76614Y-74458D03*
X76614Y-75257D03*
G54D44*
X74015Y-79921D03*
G54D45*
X74015Y-78356D03*
X74015Y-74557D03*
G54D44*
X74015Y-72992D03*
G54D43*
X76614Y-76057D03*
G54D42*
X70515Y-73496D03*
G54D46*
X72637Y-36850D03*
X112322Y-38543D03*
X109606Y-82598D03*
G54D12*
X67322Y-31889D03*
G54D39*
X76389Y-68937D03*
X76759Y-68937D03*
X76389Y-69370D03*
X76759Y-69370D03*
X76389Y-69803D03*
X76759Y-69803D03*
G54D47*
X96594Y-78425D03*
G54D48*
X96732Y-79379D03*
G54D49*
X92155Y-79094D03*
G54D50*
X92027Y-79635D03*
G54D51*
X96594Y-82627D03*
G54D52*
X94763Y-82677D03*
X95629Y-82677D03*
X95196Y-82677D03*
X93897Y-82677D03*
X94330Y-82677D03*
X93464Y-82677D03*
X93031Y-82677D03*
X92598Y-82677D03*
G54D53*
X92125Y-82627D03*
G54D54*
X101338Y-35314D03*
X100236Y-35314D03*
X99291Y-35314D03*
X98188Y-35314D03*
X97185Y-35314D03*
G54D55*
X97637Y-36377D03*
X97381Y-36377D03*
X96614Y-36377D03*
X96870Y-36377D03*
X97125Y-36377D03*
X100275Y-36377D03*
X100019Y-36377D03*
X99251Y-36377D03*
X99507Y-36377D03*
X99763Y-36377D03*
G54D56*
X96131Y-35314D03*
G54D57*
X76062Y-49055D03*
X74448Y-49055D03*
G54D40*
X70649Y-51464D03*
X70649Y-51094D03*
G54D39*
X103807Y-45767D03*
X103437Y-45767D03*
G54D20*
X70649Y-49940D03*
X70649Y-50570D03*
X104940Y-45767D03*
X104310Y-45767D03*
G54D58*
X109712Y-72629D03*
X112492Y-72629D03*
X109712Y-72881D03*
X112492Y-72881D03*
X109712Y-73133D03*
X112492Y-73133D03*
X109712Y-73385D03*
X112492Y-73385D03*
X109712Y-73637D03*
X112492Y-73637D03*
X109712Y-73889D03*
X112492Y-73889D03*
X109712Y-74141D03*
X112492Y-74141D03*
X109712Y-74393D03*
X112492Y-74393D03*
X109712Y-74645D03*
X112492Y-74645D03*
X109712Y-74897D03*
X112492Y-74897D03*
X109712Y-75149D03*
X112492Y-75149D03*
X109712Y-75401D03*
X112492Y-75401D03*
X109712Y-75653D03*
X112492Y-75653D03*
X109712Y-75905D03*
X112492Y-75905D03*
X109712Y-76157D03*
X112492Y-76157D03*
X109712Y-76409D03*
X112492Y-76409D03*
X109712Y-76661D03*
X112492Y-76661D03*
X109712Y-76913D03*
X112492Y-76913D03*
X109712Y-77165D03*
X112492Y-77165D03*
G54D31*
X111102Y-72881D03*
X111102Y-73881D03*
X111102Y-74881D03*
X111102Y-75881D03*
X111102Y-76881D03*
G54D59*
X101697Y-53877D03*
X101697Y-53680D03*
X101697Y-53483D03*
X101697Y-53286D03*
X101697Y-53090D03*
G54D60*
X101697Y-52794D03*
G54D59*
X101697Y-52499D03*
X101697Y-52302D03*
X101697Y-52105D03*
X101697Y-51908D03*
X101697Y-51712D03*
X101697Y-51515D03*
X101697Y-51318D03*
X101697Y-51121D03*
X101697Y-50924D03*
X101697Y-50727D03*
G54D60*
X101697Y-50432D03*
G54D59*
X101697Y-50137D03*
X101697Y-49940D03*
X101697Y-49743D03*
X101697Y-49546D03*
X101697Y-49349D03*
X101697Y-49153D03*
X101697Y-48956D03*
X101697Y-48759D03*
X101697Y-48562D03*
X101697Y-48365D03*
G54D60*
X101697Y-48069D03*
G54D59*
X101697Y-47775D03*
X101697Y-47578D03*
X101697Y-47381D03*
X101697Y-47184D03*
X101697Y-46987D03*
X101697Y-46790D03*
X101697Y-46594D03*
X101697Y-46397D03*
X101697Y-46200D03*
X101697Y-46003D03*
G54D60*
X101697Y-45707D03*
G54D59*
X101697Y-45412D03*
X101697Y-45216D03*
X101697Y-45019D03*
X101697Y-44822D03*
X101697Y-44625D03*
X99295Y-44623D03*
X99295Y-44820D03*
X99295Y-45017D03*
X99295Y-45214D03*
X99295Y-45410D03*
G54D60*
X99295Y-45705D03*
G54D59*
X99295Y-46001D03*
X99295Y-46198D03*
X99295Y-46395D03*
X99295Y-46592D03*
X99295Y-46788D03*
X99295Y-46985D03*
X99295Y-47182D03*
X99295Y-47379D03*
X99295Y-47576D03*
X99295Y-47773D03*
G54D60*
X99295Y-48068D03*
G54D59*
X99295Y-48364D03*
X99295Y-48561D03*
X99295Y-48758D03*
X99295Y-48955D03*
X99295Y-49151D03*
X99295Y-49348D03*
X99295Y-49545D03*
X99295Y-49742D03*
X99295Y-49939D03*
X99295Y-50136D03*
G54D60*
X99295Y-50431D03*
G54D59*
X99295Y-50727D03*
X99295Y-50924D03*
X99295Y-51121D03*
X99295Y-51318D03*
X99295Y-51514D03*
X99295Y-51711D03*
X99295Y-51908D03*
X99295Y-52105D03*
X99295Y-52302D03*
X99295Y-52499D03*
G54D60*
X99295Y-52794D03*
G54D59*
X99295Y-53090D03*
X99295Y-53286D03*
X99295Y-53483D03*
X99295Y-53680D03*
X99295Y-53877D03*
G54D61*
X100492Y-43365D03*
X100492Y-55137D03*
G54D62*
X106417Y-77755D03*
X104133Y-77755D03*
X106417Y-80511D03*
X104133Y-80511D03*
G54D63*
X105275Y-77952D03*
X105275Y-78740D03*
X105275Y-79527D03*
X105275Y-80314D03*
G54D62*
X101082Y-77755D03*
X98799Y-77755D03*
X101082Y-80511D03*
X98799Y-80511D03*
G54D63*
X99940Y-77952D03*
X99940Y-78740D03*
X99940Y-79527D03*
X99940Y-80314D03*
G54D46*
X97736Y-61712D03*
X97736Y-64074D03*
X97736Y-63681D03*
X97736Y-63287D03*
X97736Y-62893D03*
X97736Y-62500D03*
X97736Y-62106D03*
X98129Y-61712D03*
X98129Y-62106D03*
X98129Y-62500D03*
X98129Y-62893D03*
X98129Y-63287D03*
X98129Y-63681D03*
X98129Y-64074D03*
X98129Y-64468D03*
X98129Y-64862D03*
X98129Y-65255D03*
X98129Y-65649D03*
X98129Y-66043D03*
X98129Y-66437D03*
X98129Y-66830D03*
X98129Y-67224D03*
X98129Y-67618D03*
X98129Y-68011D03*
X98129Y-68405D03*
X98129Y-68799D03*
X98129Y-69192D03*
X98129Y-69586D03*
X98129Y-69980D03*
X97736Y-64468D03*
X97736Y-64862D03*
X97736Y-65255D03*
X97736Y-65649D03*
X97736Y-66043D03*
X97736Y-66437D03*
X97736Y-66830D03*
X97736Y-67224D03*
X97736Y-67618D03*
X97736Y-68011D03*
X97736Y-68405D03*
X97736Y-68799D03*
X97736Y-69192D03*
X97736Y-69586D03*
X97736Y-69980D03*
X97342Y-61712D03*
X97342Y-62106D03*
X97342Y-62500D03*
X97342Y-62893D03*
X97342Y-63287D03*
X97342Y-63681D03*
X97342Y-64074D03*
X97342Y-64468D03*
X97342Y-64862D03*
X97342Y-65255D03*
X97342Y-65649D03*
X97342Y-66043D03*
X97342Y-66437D03*
X97342Y-66830D03*
X97342Y-67224D03*
X97342Y-67618D03*
X97342Y-68011D03*
X97342Y-68405D03*
X97342Y-68799D03*
X97342Y-69192D03*
X97342Y-69586D03*
X97342Y-69980D03*
X96948Y-61712D03*
X96948Y-62106D03*
X96948Y-62500D03*
X96948Y-62893D03*
X96948Y-63287D03*
X96948Y-63681D03*
X96948Y-64074D03*
X96948Y-64468D03*
X96948Y-64862D03*
X96948Y-65255D03*
X96948Y-65649D03*
X96948Y-66043D03*
X96948Y-66437D03*
X96948Y-66830D03*
X96948Y-67224D03*
X96948Y-67618D03*
X96948Y-68011D03*
X96948Y-68405D03*
X96948Y-68799D03*
X96948Y-69192D03*
X96948Y-69586D03*
X96948Y-69980D03*
X96555Y-61712D03*
X96555Y-62106D03*
X96555Y-62500D03*
X96555Y-62893D03*
X96555Y-63287D03*
X96555Y-63681D03*
X96555Y-64074D03*
X96555Y-64468D03*
X96555Y-64862D03*
X96555Y-65255D03*
X96555Y-65649D03*
X96555Y-66043D03*
X96555Y-66437D03*
X96555Y-66830D03*
X96555Y-67224D03*
X96555Y-67618D03*
X96555Y-68011D03*
X96555Y-68405D03*
X96555Y-68799D03*
X96555Y-69192D03*
X96555Y-69586D03*
X96555Y-69980D03*
X96161Y-61712D03*
X96161Y-62106D03*
X96161Y-62500D03*
X96161Y-62893D03*
X96161Y-63287D03*
X96161Y-63681D03*
X96161Y-64074D03*
X96161Y-64468D03*
X96161Y-64862D03*
X96161Y-65255D03*
X96161Y-65649D03*
X96161Y-66043D03*
X96161Y-66437D03*
X96161Y-66830D03*
X96161Y-67224D03*
X96161Y-67618D03*
X96161Y-68011D03*
X96161Y-68405D03*
X96161Y-68799D03*
X96161Y-69192D03*
X96161Y-69586D03*
X96161Y-69980D03*
X95767Y-61712D03*
X95767Y-62106D03*
X95767Y-62500D03*
X95767Y-62893D03*
X95767Y-63287D03*
X95767Y-63681D03*
X95767Y-64074D03*
X95767Y-64468D03*
X95767Y-64862D03*
X95767Y-65255D03*
X95767Y-65649D03*
X95767Y-66043D03*
X95767Y-66437D03*
X95767Y-66830D03*
X95767Y-67224D03*
X95767Y-67618D03*
X95767Y-68011D03*
X95767Y-68405D03*
X95767Y-68799D03*
X95767Y-69192D03*
X95767Y-69586D03*
X95767Y-69980D03*
X95374Y-61712D03*
X95374Y-62106D03*
X95374Y-62500D03*
X95374Y-62893D03*
X95374Y-63287D03*
X95374Y-63681D03*
X95374Y-64074D03*
X95374Y-64468D03*
X95374Y-64862D03*
X95374Y-65255D03*
X95374Y-65649D03*
X95374Y-66043D03*
X95374Y-66437D03*
X95374Y-66830D03*
X95374Y-67224D03*
X95374Y-67618D03*
X95374Y-68011D03*
X95374Y-68405D03*
X95374Y-68799D03*
X95374Y-69192D03*
X95374Y-69586D03*
X95374Y-69980D03*
X94980Y-61712D03*
X94980Y-62106D03*
X94980Y-62500D03*
X94980Y-62893D03*
X94980Y-63287D03*
X94980Y-63681D03*
X94980Y-64074D03*
X94980Y-64468D03*
X94980Y-64862D03*
X94980Y-65255D03*
X94980Y-65649D03*
X94980Y-66043D03*
X94980Y-66437D03*
X94980Y-66830D03*
X94980Y-67224D03*
X94980Y-67618D03*
X94980Y-68011D03*
X94980Y-68405D03*
X94980Y-68799D03*
X94980Y-69192D03*
X94980Y-69586D03*
X94980Y-69980D03*
X94586Y-61712D03*
X94586Y-62106D03*
X94586Y-62500D03*
X94586Y-62893D03*
X94586Y-63287D03*
X94586Y-63681D03*
X94586Y-64074D03*
X94586Y-64468D03*
X94586Y-64862D03*
X94586Y-65255D03*
X94586Y-65649D03*
X94586Y-66043D03*
X94586Y-66437D03*
X94586Y-66830D03*
X94586Y-67224D03*
X94586Y-67618D03*
X94586Y-68011D03*
X94586Y-68405D03*
X94586Y-68799D03*
X94586Y-69192D03*
X94586Y-69586D03*
X94586Y-69980D03*
X94192Y-61712D03*
X94192Y-62106D03*
X94192Y-62500D03*
X94192Y-62893D03*
X94192Y-63287D03*
X94192Y-63681D03*
X94192Y-64074D03*
X94192Y-64468D03*
X94192Y-64862D03*
X94192Y-65255D03*
X94192Y-65649D03*
X94192Y-66043D03*
X94192Y-66437D03*
X94192Y-66830D03*
X94192Y-67224D03*
X94192Y-67618D03*
X94192Y-68011D03*
X94192Y-68405D03*
X94192Y-68799D03*
X94192Y-69192D03*
X94192Y-69586D03*
X94192Y-69980D03*
X93799Y-61712D03*
X93799Y-62106D03*
X93799Y-62500D03*
X93799Y-62893D03*
X93799Y-63287D03*
X93799Y-63681D03*
X93799Y-64074D03*
X93799Y-64468D03*
X93799Y-64862D03*
X93799Y-65255D03*
X93799Y-65649D03*
X93799Y-66043D03*
X93799Y-66437D03*
X93799Y-66830D03*
X93799Y-67224D03*
X93799Y-67618D03*
X93799Y-68011D03*
X93799Y-68405D03*
X93799Y-68799D03*
X93799Y-69192D03*
X93799Y-69586D03*
X93799Y-69980D03*
X93405Y-61712D03*
X93405Y-62106D03*
X93405Y-62500D03*
X93405Y-62893D03*
X93405Y-63287D03*
X93405Y-63681D03*
X93405Y-64074D03*
X93405Y-64468D03*
X93405Y-64862D03*
X93405Y-65255D03*
X93405Y-65649D03*
X93405Y-66043D03*
X93405Y-66437D03*
X93405Y-66830D03*
X93405Y-67224D03*
X93405Y-67618D03*
X93405Y-68011D03*
X93405Y-68405D03*
X93405Y-68799D03*
X93405Y-69192D03*
X93405Y-69586D03*
X93405Y-69980D03*
X93011Y-61712D03*
X93011Y-62106D03*
X93011Y-62500D03*
X93011Y-62893D03*
X93011Y-63287D03*
X93011Y-63681D03*
X93011Y-64074D03*
X93011Y-64468D03*
X93011Y-64862D03*
X93011Y-65255D03*
X93011Y-65649D03*
X93011Y-66043D03*
X93011Y-66437D03*
X93011Y-66830D03*
X93011Y-67224D03*
X93011Y-67618D03*
X93011Y-68011D03*
X93011Y-68405D03*
X93011Y-68799D03*
X93011Y-69192D03*
X93011Y-69586D03*
X93011Y-69980D03*
X92618Y-61712D03*
X92618Y-62106D03*
X92618Y-62500D03*
X92618Y-62893D03*
X92618Y-63287D03*
X92618Y-63681D03*
X92618Y-64074D03*
X92618Y-64468D03*
X92618Y-64862D03*
X92618Y-65255D03*
X92618Y-65649D03*
X92618Y-66043D03*
X92618Y-66437D03*
X92618Y-66830D03*
X92618Y-67224D03*
X92618Y-67618D03*
X92618Y-68011D03*
X92618Y-68405D03*
X92618Y-68799D03*
X92618Y-69192D03*
X92618Y-69586D03*
X92618Y-69980D03*
X92224Y-61712D03*
X92224Y-62106D03*
X92224Y-62500D03*
X92224Y-62893D03*
X92224Y-63287D03*
X92224Y-63681D03*
X92224Y-64074D03*
X92224Y-64468D03*
X92224Y-64862D03*
X92224Y-65255D03*
X92224Y-65649D03*
X92224Y-66043D03*
X92224Y-66437D03*
X92224Y-66830D03*
X92224Y-67224D03*
X92224Y-67618D03*
X92224Y-68011D03*
X92224Y-68405D03*
X92224Y-68799D03*
X92224Y-69192D03*
X92224Y-69586D03*
X92224Y-69980D03*
X91830Y-61712D03*
X91830Y-62106D03*
X91830Y-62500D03*
X91830Y-62893D03*
X91830Y-63287D03*
X91830Y-63681D03*
X91830Y-64074D03*
X91830Y-64468D03*
X91830Y-64862D03*
X91830Y-65255D03*
X91830Y-65649D03*
X91830Y-66043D03*
X91830Y-66437D03*
X91830Y-66830D03*
X91830Y-67224D03*
X91830Y-67618D03*
X91830Y-68011D03*
X91830Y-68405D03*
X91830Y-68799D03*
X91830Y-69192D03*
X91830Y-69586D03*
X91830Y-69980D03*
X91437Y-61712D03*
X91437Y-62106D03*
X91437Y-62500D03*
X91437Y-62893D03*
X91437Y-63287D03*
X91437Y-63681D03*
X91437Y-64074D03*
X91437Y-64468D03*
X91437Y-64862D03*
X91437Y-65255D03*
X91437Y-65649D03*
X91437Y-66043D03*
X91437Y-66437D03*
X91437Y-66830D03*
X91437Y-67224D03*
X91437Y-67618D03*
X91437Y-68011D03*
X91437Y-68405D03*
X91437Y-68799D03*
X91437Y-69192D03*
X91437Y-69586D03*
X91437Y-69980D03*
X91043Y-61712D03*
X91043Y-62106D03*
X91043Y-62500D03*
X91043Y-62893D03*
X91043Y-63287D03*
X91043Y-63681D03*
X91043Y-64074D03*
X91043Y-64468D03*
X91043Y-64862D03*
X91043Y-65255D03*
X91043Y-65649D03*
X91043Y-66043D03*
X91043Y-66437D03*
X91043Y-66830D03*
X91043Y-67224D03*
X91043Y-67618D03*
X91043Y-68011D03*
X91043Y-68405D03*
X91043Y-68799D03*
X91043Y-69192D03*
X91043Y-69586D03*
X91043Y-69980D03*
X90649Y-61712D03*
X90649Y-62106D03*
X90649Y-62500D03*
X90649Y-62893D03*
X90649Y-63287D03*
X90649Y-63681D03*
X90649Y-64074D03*
X90649Y-64468D03*
X90649Y-64862D03*
X90649Y-65255D03*
X90649Y-65649D03*
X90649Y-66043D03*
X90649Y-66437D03*
X90649Y-66830D03*
X90649Y-67224D03*
X90649Y-67618D03*
X90649Y-68011D03*
X90649Y-68405D03*
X90649Y-68799D03*
X90649Y-69192D03*
X90649Y-69586D03*
X90649Y-69980D03*
X90255Y-61712D03*
X90255Y-62106D03*
X90255Y-62500D03*
X90255Y-62893D03*
X90255Y-63287D03*
X90255Y-63681D03*
X90255Y-64074D03*
X90255Y-64468D03*
X90255Y-64862D03*
X90255Y-65255D03*
X90255Y-65649D03*
X90255Y-66043D03*
X90255Y-66437D03*
X90255Y-66830D03*
X90255Y-67224D03*
X90255Y-67618D03*
X90255Y-68011D03*
X90255Y-68405D03*
X90255Y-68799D03*
X90255Y-69192D03*
X90255Y-69586D03*
X90255Y-69980D03*
X89862Y-61712D03*
X89862Y-62106D03*
X89862Y-62500D03*
X89862Y-62893D03*
X89862Y-63287D03*
X89862Y-63681D03*
X89862Y-64074D03*
X89862Y-64468D03*
X89862Y-64862D03*
X89862Y-65255D03*
X89862Y-65649D03*
X89862Y-66043D03*
X89862Y-66437D03*
X89862Y-66830D03*
X89862Y-67224D03*
X89862Y-67618D03*
X89862Y-68011D03*
X89862Y-68405D03*
X89862Y-68799D03*
X89862Y-69192D03*
X89862Y-69586D03*
X89862Y-69980D03*
G54D18*
X98326Y-61909D03*
X98326Y-62303D03*
X98326Y-62696D03*
X98326Y-63090D03*
X98326Y-63484D03*
X98326Y-63877D03*
X98326Y-64271D03*
X98326Y-64665D03*
X98326Y-65059D03*
X98326Y-65452D03*
X98326Y-65846D03*
X98326Y-66240D03*
X98326Y-66633D03*
X98326Y-67027D03*
X98326Y-68996D03*
X98326Y-69389D03*
X98326Y-69783D03*
X98326Y-70177D03*
X97933Y-61909D03*
X97933Y-62303D03*
X97933Y-62696D03*
X97933Y-63090D03*
X97933Y-63484D03*
X97933Y-63877D03*
X97933Y-64271D03*
X97933Y-64665D03*
X97933Y-65059D03*
X97933Y-65452D03*
X97933Y-65846D03*
X97933Y-66240D03*
X97933Y-66633D03*
X97933Y-67027D03*
X97933Y-68996D03*
X97933Y-69389D03*
X97933Y-69783D03*
X97933Y-70177D03*
X97539Y-61909D03*
X97539Y-62303D03*
X97539Y-62696D03*
X97539Y-63090D03*
X97539Y-63484D03*
X97539Y-63877D03*
X97539Y-64271D03*
X97539Y-64665D03*
X97539Y-65059D03*
X97539Y-65452D03*
X97539Y-65846D03*
X97539Y-66240D03*
X97539Y-66633D03*
X97539Y-67027D03*
X97539Y-67421D03*
X97539Y-67814D03*
X97539Y-68208D03*
X97539Y-68602D03*
X97539Y-68996D03*
X97539Y-69389D03*
X97539Y-69783D03*
X97539Y-70177D03*
X97145Y-61909D03*
X97145Y-62303D03*
X97145Y-62696D03*
X97145Y-63090D03*
X97145Y-63484D03*
X97145Y-63877D03*
X97145Y-64271D03*
X97145Y-64665D03*
X97145Y-65059D03*
X97145Y-65452D03*
X97145Y-65846D03*
X97145Y-66240D03*
X97145Y-66633D03*
X97145Y-67027D03*
X97145Y-67421D03*
X97145Y-67814D03*
X97145Y-68208D03*
X97145Y-68602D03*
X97145Y-68996D03*
X97145Y-69389D03*
X97145Y-69783D03*
X97145Y-70177D03*
X96751Y-61909D03*
X96751Y-62303D03*
X96751Y-62696D03*
X96751Y-63090D03*
X96751Y-63484D03*
X96751Y-63877D03*
X96751Y-64271D03*
X96751Y-64665D03*
X96751Y-65059D03*
X96751Y-65452D03*
X96751Y-65846D03*
X96751Y-66240D03*
X96751Y-66633D03*
X96751Y-67027D03*
X96751Y-67421D03*
X96751Y-67814D03*
X96751Y-68208D03*
X96751Y-68602D03*
X96751Y-68996D03*
X96751Y-69389D03*
X96751Y-69783D03*
X96751Y-70177D03*
X96358Y-61909D03*
X96358Y-62303D03*
X96358Y-62696D03*
X96358Y-63090D03*
X96358Y-63484D03*
X96358Y-63877D03*
X96358Y-64271D03*
X96358Y-64665D03*
X96358Y-65059D03*
X96358Y-65452D03*
X96358Y-65846D03*
X96358Y-66240D03*
X96358Y-66633D03*
X96358Y-67027D03*
X96358Y-67421D03*
X96358Y-67814D03*
X96358Y-68208D03*
X96358Y-68602D03*
X96358Y-68996D03*
X96358Y-69389D03*
X96358Y-69783D03*
X96358Y-70177D03*
X95964Y-61909D03*
X95964Y-62303D03*
X95964Y-62696D03*
X95964Y-63090D03*
X95964Y-63484D03*
X95964Y-63877D03*
X95964Y-64271D03*
X95964Y-64665D03*
X95964Y-65059D03*
X95964Y-65452D03*
X95964Y-65846D03*
X95964Y-66240D03*
X95964Y-66633D03*
X95964Y-67027D03*
X95964Y-67421D03*
X95964Y-67814D03*
X95964Y-68208D03*
X95964Y-68602D03*
X95964Y-68996D03*
X95964Y-69389D03*
X95964Y-69783D03*
X95964Y-70177D03*
X95570Y-61909D03*
X95570Y-62303D03*
X95570Y-62696D03*
X95570Y-63090D03*
X95570Y-63484D03*
X95570Y-63877D03*
X95570Y-64271D03*
X95570Y-64665D03*
X95570Y-65059D03*
X95570Y-65452D03*
X95570Y-65846D03*
X95570Y-66240D03*
X95570Y-66633D03*
X95570Y-67027D03*
X95570Y-67421D03*
X95570Y-67814D03*
X95570Y-68208D03*
X95570Y-68602D03*
X95570Y-68996D03*
X95570Y-69389D03*
X95570Y-69783D03*
X95570Y-70177D03*
X95177Y-61909D03*
X95177Y-62303D03*
X95177Y-62696D03*
X95177Y-63090D03*
X95177Y-63484D03*
X95177Y-63877D03*
X95177Y-64271D03*
X95177Y-64665D03*
X95177Y-65059D03*
X95177Y-65452D03*
X95177Y-65846D03*
X95177Y-66240D03*
X95177Y-66633D03*
X95177Y-67421D03*
X95177Y-67814D03*
X95177Y-68208D03*
X95177Y-68602D03*
X95177Y-68996D03*
X95177Y-69389D03*
X95177Y-69783D03*
X95177Y-70177D03*
X94783Y-61909D03*
X94783Y-62303D03*
X94783Y-62696D03*
X94783Y-63090D03*
X94783Y-63484D03*
X94783Y-63877D03*
X94783Y-64271D03*
X94783Y-64665D03*
X94783Y-65059D03*
X94783Y-65452D03*
X94783Y-65846D03*
X94783Y-66240D03*
X94783Y-66633D03*
X94783Y-67027D03*
X94783Y-68208D03*
X94783Y-68602D03*
X94783Y-68996D03*
X94783Y-69389D03*
X94783Y-69783D03*
X94783Y-70177D03*
X94389Y-61909D03*
X94389Y-62303D03*
X94389Y-62696D03*
X94389Y-63090D03*
X94389Y-63484D03*
X94389Y-63877D03*
X94389Y-64271D03*
X94389Y-64665D03*
X94389Y-65059D03*
X94389Y-65452D03*
X94389Y-65846D03*
X94389Y-66240D03*
X94389Y-66633D03*
X94389Y-67027D03*
X94389Y-67421D03*
X94389Y-67814D03*
X94389Y-68208D03*
X94389Y-68602D03*
X94389Y-68996D03*
X94389Y-69389D03*
X94389Y-69783D03*
X94389Y-70177D03*
X93996Y-61909D03*
X93996Y-62303D03*
X93996Y-62696D03*
X93996Y-63090D03*
X93996Y-63484D03*
X93996Y-63877D03*
X93996Y-64271D03*
X93996Y-64665D03*
X93996Y-65059D03*
X93996Y-65452D03*
X93996Y-65846D03*
X93996Y-66240D03*
X93996Y-66633D03*
X93996Y-67027D03*
X93996Y-67814D03*
X93996Y-68208D03*
X93996Y-68602D03*
X93996Y-68996D03*
X93996Y-69389D03*
X93996Y-69783D03*
X93996Y-70177D03*
X93602Y-61909D03*
X93602Y-62303D03*
X93602Y-62696D03*
X93602Y-63090D03*
X93602Y-63484D03*
X93602Y-63877D03*
X93602Y-64271D03*
X93602Y-64665D03*
X93602Y-65059D03*
X93602Y-65452D03*
X93602Y-65846D03*
X93602Y-66240D03*
X93602Y-66633D03*
X93602Y-67027D03*
X93602Y-67421D03*
X93602Y-67814D03*
X93602Y-68208D03*
X93602Y-68602D03*
X93602Y-68996D03*
X93602Y-69389D03*
X93602Y-69783D03*
X93602Y-70177D03*
X93208Y-61909D03*
X93208Y-62303D03*
X93208Y-62696D03*
X93208Y-63090D03*
X93208Y-63484D03*
X93208Y-63877D03*
X93208Y-64271D03*
X93208Y-64665D03*
X93208Y-65059D03*
X93208Y-65452D03*
X93208Y-65846D03*
X93208Y-66240D03*
X93208Y-66633D03*
X93208Y-67027D03*
X93208Y-67421D03*
X93208Y-67814D03*
X93208Y-68208D03*
X93208Y-68602D03*
X93208Y-68996D03*
X93208Y-69389D03*
X93208Y-69783D03*
X93208Y-70177D03*
X92814Y-61909D03*
X92814Y-62303D03*
X92814Y-62696D03*
X92814Y-63090D03*
X92814Y-63484D03*
X92814Y-63877D03*
X92814Y-64271D03*
X92814Y-65059D03*
X92814Y-65452D03*
X92814Y-65846D03*
X92814Y-66240D03*
X92814Y-66633D03*
X92814Y-67027D03*
X92814Y-67421D03*
X92814Y-67814D03*
X92814Y-68208D03*
X92814Y-68602D03*
X92814Y-68996D03*
X92814Y-69389D03*
X92814Y-69783D03*
X92814Y-70177D03*
X92421Y-61909D03*
X92421Y-62303D03*
X92421Y-62696D03*
X92421Y-63090D03*
X92421Y-63484D03*
X92421Y-63877D03*
X92421Y-64271D03*
X92421Y-64665D03*
X92421Y-65059D03*
X92421Y-65452D03*
X92421Y-65846D03*
X92421Y-66240D03*
X92421Y-66633D03*
X92421Y-67027D03*
X92421Y-67421D03*
X92421Y-67814D03*
X92421Y-68208D03*
X92421Y-68602D03*
X92421Y-68996D03*
X92421Y-69389D03*
X92421Y-69783D03*
X92421Y-70177D03*
X92027Y-61909D03*
X92027Y-62303D03*
X92027Y-62696D03*
X92027Y-63090D03*
X92027Y-63484D03*
X92027Y-63877D03*
X92027Y-64271D03*
X92027Y-64665D03*
X92027Y-65059D03*
X92027Y-65452D03*
X92027Y-65846D03*
X92027Y-66240D03*
X92027Y-66633D03*
X92027Y-67027D03*
X92027Y-67421D03*
X92027Y-67814D03*
X92027Y-68208D03*
X92027Y-68602D03*
X92027Y-68996D03*
X92027Y-69389D03*
X92027Y-69783D03*
X92027Y-70177D03*
X91633Y-61909D03*
X91633Y-62303D03*
X91633Y-62696D03*
X91633Y-63090D03*
X91633Y-63484D03*
X91633Y-63877D03*
X91633Y-64271D03*
X91633Y-64665D03*
X91633Y-65059D03*
X91633Y-65452D03*
X91633Y-65846D03*
X91633Y-66240D03*
X91633Y-66633D03*
X91633Y-67027D03*
X91633Y-67421D03*
X91633Y-67814D03*
X91633Y-68208D03*
X91633Y-68602D03*
X91633Y-68996D03*
X91633Y-69389D03*
X91633Y-69783D03*
X91633Y-70177D03*
X91240Y-61909D03*
X91240Y-62303D03*
X91240Y-62696D03*
X91240Y-63090D03*
X91240Y-63484D03*
X91240Y-63877D03*
X91240Y-64271D03*
X91240Y-64665D03*
X91240Y-65059D03*
X91240Y-65452D03*
X91240Y-65846D03*
X91240Y-66240D03*
X91240Y-66633D03*
X91240Y-67027D03*
X91240Y-67421D03*
X91240Y-67814D03*
X91240Y-68208D03*
X91240Y-68602D03*
X91240Y-68996D03*
X91240Y-69389D03*
X91240Y-69783D03*
X91240Y-70177D03*
X90846Y-61909D03*
X90846Y-62303D03*
X90846Y-62696D03*
X90846Y-63090D03*
X90846Y-63484D03*
X90846Y-63877D03*
X90846Y-64271D03*
X90846Y-64665D03*
X90846Y-65059D03*
X90846Y-65452D03*
X90846Y-65846D03*
X90846Y-66240D03*
X90846Y-66633D03*
X90846Y-67027D03*
X90846Y-67421D03*
X90846Y-67814D03*
X90846Y-68208D03*
X90846Y-68602D03*
X90846Y-68996D03*
X90846Y-69389D03*
X90846Y-69783D03*
X90846Y-70177D03*
X90452Y-61909D03*
X90452Y-62303D03*
X90452Y-62696D03*
X90452Y-63090D03*
X90452Y-63484D03*
X90452Y-63877D03*
X90452Y-64271D03*
X90452Y-64665D03*
X90452Y-65059D03*
X90452Y-65452D03*
X90452Y-65846D03*
X90452Y-66240D03*
X90452Y-66633D03*
X90452Y-67027D03*
X90452Y-67421D03*
X90452Y-67814D03*
X90452Y-68208D03*
X90452Y-68602D03*
X90452Y-68996D03*
X90452Y-69389D03*
X90452Y-69783D03*
X90452Y-70177D03*
X90059Y-61909D03*
X90059Y-62303D03*
X90059Y-62696D03*
X90059Y-63090D03*
X90059Y-63484D03*
X90059Y-63877D03*
X90059Y-64271D03*
X90059Y-64665D03*
X90059Y-65059D03*
X90059Y-65452D03*
X90059Y-65846D03*
X90059Y-66240D03*
X90059Y-66633D03*
X90059Y-67027D03*
X90059Y-67421D03*
X90059Y-67814D03*
X90059Y-68208D03*
X90059Y-68602D03*
X90059Y-68996D03*
X90059Y-69389D03*
X90059Y-69783D03*
X90059Y-70177D03*
G54D64*
X110787Y-40633D03*
G54D65*
X108750Y-62163D03*
X110750Y-62663D03*
X110750Y-62163D03*
X111250Y-62663D03*
X111250Y-62163D03*
X110750Y-59663D03*
X111250Y-59663D03*
X111250Y-59163D03*
X110750Y-59163D03*
X110750Y-58163D03*
X111250Y-58163D03*
X111250Y-58663D03*
X110750Y-58663D03*
X110750Y-60663D03*
X111250Y-60663D03*
X111250Y-60163D03*
X110750Y-60163D03*
X110750Y-61163D03*
X111250Y-61163D03*
X111250Y-61663D03*
X110750Y-61663D03*
X110750Y-53663D03*
X111250Y-53663D03*
X111250Y-53163D03*
X110750Y-53163D03*
X110750Y-52663D03*
X111250Y-52667D03*
X110750Y-51163D03*
X111250Y-51163D03*
X111250Y-50663D03*
X110750Y-50663D03*
X110750Y-51663D03*
X111250Y-51663D03*
X111250Y-52163D03*
X110750Y-52163D03*
X110750Y-55663D03*
X111250Y-55663D03*
X111250Y-55163D03*
X110750Y-55163D03*
X110750Y-54163D03*
X111250Y-54163D03*
X111250Y-54663D03*
X110750Y-54663D03*
X110750Y-56663D03*
X111250Y-56663D03*
X111250Y-56163D03*
X110750Y-56163D03*
X110750Y-57163D03*
X111250Y-57163D03*
X111250Y-57663D03*
X110750Y-57663D03*
X110750Y-48663D03*
X111250Y-48663D03*
X111250Y-48163D03*
X110750Y-48163D03*
X110750Y-47163D03*
X111250Y-47163D03*
X111250Y-47663D03*
X110750Y-47663D03*
X111250Y-49163D03*
X110750Y-49163D03*
X110750Y-49663D03*
X111250Y-49663D03*
X111250Y-50163D03*
X110750Y-50163D03*
X110750Y-45663D03*
X111250Y-45663D03*
X111250Y-45163D03*
X110750Y-45163D03*
X110750Y-44663D03*
X111250Y-44663D03*
X110750Y-43163D03*
X111250Y-43163D03*
X110750Y-43663D03*
X111250Y-43663D03*
X111250Y-44163D03*
X110750Y-44163D03*
X110750Y-46163D03*
X111250Y-46163D03*
X111250Y-46663D03*
X110750Y-46663D03*
X108750Y-46663D03*
X109250Y-46663D03*
X109250Y-46163D03*
X108750Y-46163D03*
X108750Y-44163D03*
X109250Y-44163D03*
X109250Y-43663D03*
X108750Y-43663D03*
X109250Y-43163D03*
X108750Y-43163D03*
X109250Y-44663D03*
X108750Y-44663D03*
X108750Y-45163D03*
X109250Y-45163D03*
X109250Y-45663D03*
X108750Y-45663D03*
X108750Y-50163D03*
X109250Y-50163D03*
X109250Y-49663D03*
X108750Y-49663D03*
X108750Y-49163D03*
X109250Y-49163D03*
X108750Y-47663D03*
X109250Y-47663D03*
X109250Y-47163D03*
X108750Y-47163D03*
X108750Y-48163D03*
X109250Y-48163D03*
X109250Y-48663D03*
X108750Y-48663D03*
X108750Y-57663D03*
X109250Y-57663D03*
X109250Y-57163D03*
X108750Y-57163D03*
X108750Y-56163D03*
X109250Y-56163D03*
X109250Y-56663D03*
X108750Y-56663D03*
X108750Y-54663D03*
X109250Y-54663D03*
X109250Y-54163D03*
X108750Y-54163D03*
X108750Y-55163D03*
X109250Y-55163D03*
X109250Y-55663D03*
X108750Y-55663D03*
X108750Y-52163D03*
X109250Y-52163D03*
X109250Y-51663D03*
X108750Y-51663D03*
X108750Y-50663D03*
X109250Y-50663D03*
X109250Y-51163D03*
X108750Y-51163D03*
X109250Y-52667D03*
X108750Y-52663D03*
X108750Y-53163D03*
X109250Y-53163D03*
X109250Y-53663D03*
X108750Y-53663D03*
X108750Y-61663D03*
X109250Y-61663D03*
X109250Y-61163D03*
X108750Y-61163D03*
X108750Y-60163D03*
X109250Y-60163D03*
X109250Y-60663D03*
X108750Y-60663D03*
X108750Y-58663D03*
X109250Y-58663D03*
X109250Y-58163D03*
X108750Y-58163D03*
X108750Y-59163D03*
X109250Y-59163D03*
X109250Y-59663D03*
X108750Y-59663D03*
X109250Y-62163D03*
X109250Y-62663D03*
X108750Y-62663D03*
G54D64*
X110787Y-65192D03*
G54D18*
X80102Y-44000D03*
X79866Y-44000D03*
X79629Y-44236D03*
X79629Y-44000D03*
X79629Y-44472D03*
X79866Y-44472D03*
X80102Y-44472D03*
X80102Y-44236D03*
X79866Y-44236D03*
X79629Y-43055D03*
X79866Y-43055D03*
X80102Y-43055D03*
X79866Y-43527D03*
X80102Y-43527D03*
X80102Y-43763D03*
X79866Y-43763D03*
X79629Y-43763D03*
X79629Y-43291D03*
X79629Y-43527D03*
X79866Y-43291D03*
X80102Y-43291D03*
X80102Y-42346D03*
X79866Y-42346D03*
X79629Y-42582D03*
X79629Y-42346D03*
X79629Y-42818D03*
X79866Y-42818D03*
X80102Y-42818D03*
X80102Y-42582D03*
X79866Y-42582D03*
X79866Y-41874D03*
X80102Y-41874D03*
X80102Y-42110D03*
X79866Y-42110D03*
X79629Y-42110D03*
X79629Y-41637D03*
X79629Y-41874D03*
X79866Y-41637D03*
X80102Y-41637D03*
G54D40*
X85909Y-49110D03*
X85909Y-48740D03*
X83602Y-48094D03*
X83602Y-48464D03*
G54D39*
X87007Y-49267D03*
X86637Y-49267D03*
G54D40*
X86220Y-49338D03*
X86220Y-48968D03*
G54D39*
X83397Y-48913D03*
X83027Y-48913D03*
G54D40*
X85618Y-48846D03*
X85618Y-48476D03*
X85216Y-48846D03*
X85216Y-48476D03*
G54D39*
X83846Y-55216D03*
X83476Y-55216D03*
X84224Y-55216D03*
X84594Y-55216D03*
X83393Y-49255D03*
X83023Y-49255D03*
G54D40*
X84787Y-48649D03*
X84787Y-48279D03*
X84429Y-48653D03*
X84429Y-48283D03*
G54D39*
X96960Y-57342D03*
X97330Y-57342D03*
G54D40*
X97066Y-58417D03*
X97066Y-58787D03*
G54D20*
X102795Y-60885D03*
X102165Y-60885D03*
X102795Y-60196D03*
X102165Y-60196D03*
G54D66*
X89740Y-51799D03*
X89740Y-51956D03*
G54D67*
X89622Y-51523D03*
X89464Y-51523D03*
X89307Y-51523D03*
G54D68*
X89188Y-51799D03*
G54D66*
X89188Y-51956D03*
G54D67*
X89307Y-52232D03*
X89464Y-52232D03*
X89622Y-52232D03*
G54D69*
X91047Y-54291D03*
X90338Y-54291D03*
G54D70*
X95196Y-49606D03*
X95196Y-48897D03*
G54D39*
X88858Y-71551D03*
X88488Y-71551D03*
X100748Y-61566D03*
X101118Y-61566D03*
G54D20*
X102795Y-61488D03*
X102165Y-61488D03*
X102188Y-36728D03*
X102188Y-37358D03*
G54D71*
X94228Y-36425D03*
X92929Y-35429D03*
G54D44*
X73251Y-42539D03*
X73251Y-44409D03*
X73251Y-46279D03*
G54D72*
X72244Y-47874D03*
X72244Y-40944D03*
G54D73*
X91513Y-35811D03*
X90513Y-35811D03*
X91513Y-38566D03*
X90513Y-38566D03*
X82513Y-38566D03*
X83513Y-38566D03*
X84513Y-38566D03*
X85513Y-38566D03*
X86513Y-38566D03*
X87513Y-38566D03*
X88513Y-38566D03*
X89513Y-38566D03*
X82513Y-35811D03*
X83513Y-35811D03*
X84513Y-35811D03*
X85513Y-35811D03*
X86513Y-35811D03*
X87513Y-35811D03*
X88513Y-35811D03*
X89513Y-35811D03*
G54D74*
X82824Y-68149D03*
X81824Y-68149D03*
X80824Y-68149D03*
X79824Y-68149D03*
X78824Y-68149D03*
X82824Y-70118D03*
X81824Y-70118D03*
X80824Y-70118D03*
X79824Y-70118D03*
X78824Y-70118D03*
G54D31*
X98543Y-59527D03*
X89842Y-59842D03*
X88110Y-65314D03*
G54D39*
X106232Y-47874D03*
X106602Y-47874D03*
X106232Y-48385D03*
X106602Y-48385D03*
G54D75*
X82329Y-71864D03*
X82329Y-72364D03*
X82329Y-72864D03*
X82329Y-73364D03*
X85008Y-71864D03*
X85008Y-72364D03*
X85008Y-72864D03*
X85008Y-73364D03*
G54D76*
X94744Y-59192D03*
X95000Y-59192D03*
X95255Y-59192D03*
X95255Y-58444D03*
X94744Y-58444D03*
X95000Y-58444D03*
G54D39*
X94598Y-59901D03*
X94968Y-59901D03*
X95641Y-58444D03*
X96011Y-58444D03*
G54D77*
X74803Y-38066D03*
X74803Y-36019D03*
X79488Y-36019D03*
G54D78*
X77145Y-37614D03*
G54D77*
X79488Y-38066D03*
G54D79*
X77145Y-40232D03*
G54D80*
X91643Y-73907D03*
X91643Y-72647D03*
X90383Y-72647D03*
G54D81*
X89498Y-74458D03*
X89498Y-74301D03*
G54D82*
X89832Y-71761D03*
X89994Y-71761D03*
G54D81*
X92529Y-72096D03*
X92529Y-72253D03*
G54D82*
X92194Y-74793D03*
X92037Y-74793D03*
G54D83*
X91012Y-73277D03*
G54D81*
X92529Y-73671D03*
X92529Y-73513D03*
X92529Y-73356D03*
X92529Y-73198D03*
X92529Y-73041D03*
X92529Y-72883D03*
X92529Y-72726D03*
X92529Y-72568D03*
X92529Y-72411D03*
X92529Y-74458D03*
X92529Y-74301D03*
X92529Y-74143D03*
X92529Y-73986D03*
X92529Y-73828D03*
G54D82*
X90620Y-71761D03*
X90462Y-71761D03*
X90305Y-71761D03*
X90147Y-71761D03*
X92194Y-71761D03*
X92037Y-71761D03*
X91879Y-71761D03*
X91722Y-71761D03*
X91564Y-71761D03*
X91407Y-71761D03*
X91250Y-71761D03*
X91092Y-71761D03*
X90935Y-71761D03*
X90777Y-71761D03*
G54D81*
X89498Y-73356D03*
X89498Y-73513D03*
X89498Y-73671D03*
X89498Y-73828D03*
X89498Y-73986D03*
X89498Y-74143D03*
X89498Y-72096D03*
X89498Y-72253D03*
X89498Y-72411D03*
X89498Y-72568D03*
X89498Y-72726D03*
X89498Y-72883D03*
X89498Y-73041D03*
X89498Y-73198D03*
G54D84*
X89832Y-74793D03*
G54D82*
X89990Y-74793D03*
X90147Y-74793D03*
X90305Y-74793D03*
X90462Y-74793D03*
X90620Y-74793D03*
X90777Y-74793D03*
X90935Y-74793D03*
X91092Y-74793D03*
X91250Y-74793D03*
X91407Y-74793D03*
X91564Y-74793D03*
X91722Y-74793D03*
X91879Y-74793D03*
G54D80*
X90383Y-73907D03*
G54D63*
X85708Y-82047D03*
X86496Y-82047D03*
X89645Y-82047D03*
X88858Y-82047D03*
X88070Y-82047D03*
X87283Y-82047D03*
G54D18*
X99468Y-40137D03*
X94822Y-54557D03*
X89271Y-73051D03*
X87606Y-73062D03*
X95389Y-73602D03*
X92923Y-74143D03*
X96326Y-73629D03*
X92539Y-74645D03*
X82751Y-73385D03*
X90462Y-71545D03*
X83507Y-73649D03*
X90620Y-71377D03*
X84149Y-73633D03*
X90935Y-71377D03*
X84377Y-73212D03*
X91250Y-71377D03*
X91407Y-71545D03*
X91564Y-71377D03*
X91879Y-71377D03*
X92037Y-71545D03*
X92923Y-73828D03*
X92746Y-73671D03*
X92923Y-73513D03*
X92746Y-73356D03*
X92746Y-73041D03*
X93080Y-72883D03*
X92746Y-72726D03*
X92923Y-72568D03*
X102755Y-47185D03*
X111023Y-44409D03*
X110511Y-44881D03*
X102952Y-46751D03*
X99763Y-47185D03*
X102185Y-48759D03*
X105000Y-49133D03*
X111023Y-48897D03*
X99763Y-48759D03*
X104921Y-49763D03*
X110511Y-49370D03*
X103149Y-47381D03*
X102185Y-47381D03*
X111023Y-44881D03*
X110511Y-45393D03*
X103346Y-46968D03*
X99901Y-47381D03*
X103543Y-47775D03*
X102185Y-47775D03*
X111023Y-45905D03*
X99763Y-47775D03*
X103740Y-47578D03*
X110511Y-46889D03*
X103937Y-48366D03*
X102185Y-48366D03*
X111023Y-47401D03*
X104133Y-48188D03*
X99763Y-48366D03*
X110511Y-47874D03*
X104330Y-48562D03*
X102322Y-48562D03*
X111023Y-47874D03*
X104527Y-48956D03*
X99901Y-48562D03*
X110511Y-48385D03*
X102185Y-49547D03*
X106102Y-51653D03*
X110511Y-51377D03*
X99763Y-49547D03*
X105787Y-51062D03*
X110511Y-50905D03*
X102185Y-51122D03*
X108070Y-55629D03*
X110511Y-55393D03*
X108070Y-58267D03*
X99763Y-51122D03*
X111023Y-55393D03*
X102322Y-49744D03*
X106299Y-52125D03*
X111023Y-51889D03*
X106771Y-52913D03*
X99901Y-49744D03*
X111023Y-52401D03*
X102185Y-50137D03*
X107204Y-53661D03*
X111023Y-53385D03*
X106299Y-53051D03*
X110511Y-52401D03*
X99763Y-50137D03*
X107362Y-54370D03*
X102185Y-50728D03*
X110511Y-53897D03*
X107283Y-55157D03*
X99763Y-50728D03*
X111023Y-53897D03*
X102322Y-50925D03*
X107874Y-55157D03*
X111023Y-54881D03*
X107480Y-57381D03*
X99901Y-50925D03*
X110511Y-54409D03*
X85137Y-61909D03*
X86437Y-61633D03*
X87027Y-61909D03*
X85511Y-61141D03*
X87027Y-60964D03*
X85511Y-61771D03*
X87027Y-61594D03*
X85137Y-61594D03*
X86712Y-61594D03*
X85511Y-61456D03*
X87027Y-61279D03*
X85137Y-61279D03*
X86712Y-61279D03*
X85137Y-63484D03*
X87027Y-63484D03*
X85452Y-64153D03*
X86712Y-64429D03*
X87401Y-64291D03*
X84822Y-64429D03*
X87401Y-64921D03*
X84822Y-65059D03*
X85679Y-63523D03*
X85511Y-63031D03*
X88956Y-63464D03*
X86712Y-63169D03*
X87864Y-66151D03*
X87362Y-62874D03*
X84822Y-63169D03*
X87401Y-63661D03*
X89133Y-63877D03*
X84822Y-63799D03*
X85137Y-64744D03*
X85816Y-63700D03*
X88267Y-63952D03*
X87027Y-64744D03*
X87047Y-69645D03*
X85531Y-69803D03*
X85157Y-69645D03*
X86732Y-70275D03*
X85157Y-70590D03*
X86732Y-69645D03*
X86141Y-67921D03*
X85157Y-69960D03*
X87047Y-69960D03*
X85531Y-70118D03*
X86732Y-69960D03*
X85157Y-70275D03*
X87047Y-70275D03*
X85531Y-70433D03*
X87047Y-67755D03*
X85157Y-68070D03*
X86732Y-67125D03*
X85531Y-67283D03*
X84842Y-67125D03*
X87421Y-67283D03*
X84842Y-66496D03*
X87421Y-66653D03*
X86250Y-69330D03*
X85531Y-68543D03*
X84842Y-68385D03*
X87421Y-68543D03*
X84842Y-67755D03*
X87421Y-67814D03*
X87047Y-66811D03*
X85157Y-66811D03*
X95177Y-56889D03*
X87568Y-50984D03*
X95324Y-57037D03*
X87726Y-51181D03*
X97933Y-58661D03*
X87726Y-53346D03*
X98080Y-58809D03*
X87568Y-53543D03*
X95570Y-57185D03*
X87568Y-51377D03*
X87726Y-51574D03*
X95718Y-57332D03*
X96062Y-57480D03*
X87568Y-51771D03*
X96210Y-57627D03*
X87726Y-51968D03*
X96751Y-58070D03*
X87726Y-52559D03*
X96899Y-58218D03*
X87568Y-52755D03*
X97293Y-58366D03*
X87726Y-52952D03*
X97539Y-58513D03*
X87568Y-53149D03*
X83858Y-65649D03*
X95248Y-71637D03*
X86358Y-72364D03*
X95031Y-71787D03*
X87370Y-72228D03*
X95318Y-71940D03*
X87846Y-72287D03*
X96606Y-70704D03*
X91505Y-54055D03*
X91515Y-52952D03*
X94143Y-58956D03*
X91348Y-51909D03*
X91348Y-51683D03*
X90826Y-52687D03*
X91505Y-53572D03*
X91505Y-53346D03*
X91515Y-52470D03*
X91348Y-51427D03*
X91515Y-52726D03*
X94143Y-59173D03*
X91505Y-53828D03*
X91348Y-51200D03*
X91515Y-52244D03*
X95098Y-55492D03*
X95305Y-55492D03*
X92519Y-55492D03*
X91811Y-55492D03*
X92293Y-55492D03*
X92037Y-55492D03*
X93415Y-55492D03*
X93641Y-55492D03*
X95787Y-55492D03*
X94478Y-55492D03*
X94704Y-55492D03*
X95561Y-55492D03*
X93996Y-55492D03*
X94222Y-55492D03*
X92933Y-55492D03*
X93159Y-55492D03*
X82795Y-67322D03*
X82795Y-60954D03*
X78828Y-67322D03*
X80413Y-61909D03*
X81909Y-58799D03*
X81830Y-67322D03*
X94783Y-59547D03*
X81220Y-67322D03*
X81692Y-60787D03*
X102129Y-69228D03*
X102129Y-62779D03*
X77007Y-68937D03*
X77007Y-69370D03*
X77007Y-69803D03*
X77007Y-70236D03*
X109291Y-77165D03*
X109291Y-76909D03*
X109291Y-74645D03*
X109291Y-74389D03*
X109291Y-74143D03*
X109291Y-73887D03*
X109291Y-73641D03*
X109291Y-73385D03*
X109291Y-76663D03*
X109291Y-76407D03*
X109291Y-76161D03*
X109291Y-75905D03*
X109291Y-75649D03*
X109291Y-75403D03*
X109291Y-75147D03*
X109291Y-74891D03*
X112106Y-77165D03*
X112106Y-76909D03*
X112106Y-74645D03*
X112106Y-74389D03*
X112106Y-74143D03*
X112106Y-73887D03*
X112106Y-73631D03*
X112106Y-73385D03*
X112106Y-76663D03*
X112106Y-76407D03*
X112106Y-76161D03*
X112106Y-75905D03*
X112106Y-75649D03*
X112106Y-75403D03*
X112106Y-75147D03*
X112106Y-74901D03*
X101013Y-69143D03*
X101269Y-71909D03*
X101417Y-72106D03*
X94094Y-72106D03*
X94094Y-72391D03*
X101417Y-72500D03*
X94094Y-72696D03*
X101269Y-72696D03*
X94724Y-72893D03*
X101417Y-72893D03*
X94566Y-73090D03*
X101269Y-73090D03*
X94251Y-73287D03*
X101417Y-73287D03*
X101269Y-73484D03*
X94409Y-73484D03*
X72677Y-65767D03*
X73710Y-65570D03*
X104511Y-79535D03*
X103728Y-78740D03*
X94055Y-75866D03*
X105000Y-75492D03*
X105354Y-72893D03*
X95354Y-75866D03*
X105885Y-75866D03*
X105885Y-72303D03*
X104507Y-76043D03*
X104566Y-73543D03*
X96594Y-76850D03*
X93188Y-75866D03*
X105708Y-75314D03*
X105708Y-72500D03*
X94921Y-75866D03*
X105531Y-75688D03*
X105531Y-72696D03*
X95393Y-37350D03*
X95393Y-50954D03*
X94448Y-51289D03*
X88641Y-47047D03*
X91594Y-47755D03*
X94242Y-47755D03*
X89921Y-36968D03*
X92874Y-51289D03*
X90925Y-36968D03*
X93188Y-51919D03*
X91929Y-36968D03*
X93031Y-50954D03*
X92519Y-37736D03*
X93188Y-51289D03*
X93523Y-37736D03*
X93346Y-50954D03*
X94527Y-37736D03*
X93503Y-51604D03*
X104744Y-36496D03*
X98513Y-50964D03*
X93818Y-51289D03*
X105629Y-36496D03*
X98336Y-51692D03*
X93818Y-51604D03*
X106614Y-36338D03*
X94133Y-51919D03*
X98690Y-51879D03*
X99360Y-37647D03*
X97440Y-54728D03*
X95393Y-53494D03*
X86992Y-38740D03*
X94133Y-52549D03*
X84905Y-38409D03*
X94763Y-52864D03*
X88169Y-38248D03*
X95393Y-53809D03*
X85885Y-38244D03*
X94763Y-53179D03*
X83866Y-38015D03*
X95866Y-54498D03*
X111053Y-69242D03*
X107657Y-69232D03*
X76692Y-55787D03*
X76161Y-59488D03*
X89468Y-59842D03*
X78681Y-65787D03*
X76830Y-55452D03*
X87844Y-65738D03*
X70944Y-54389D03*
X70590Y-58681D03*
X98248Y-59724D03*
X77381Y-53622D03*
X72716Y-53622D03*
X101259Y-53484D03*
X84862Y-62263D03*
X84862Y-62578D03*
X87047Y-69015D03*
X87047Y-68700D03*
X86870Y-59360D03*
X91387Y-59360D03*
X86751Y-61948D03*
X86437Y-61948D03*
X92500Y-59527D03*
X87194Y-59527D03*
X87037Y-62253D03*
X86437Y-63523D03*
X85728Y-64507D03*
X85511Y-63661D03*
X84488Y-62401D03*
X84143Y-60570D03*
X93061Y-60570D03*
X86200Y-63011D03*
X86437Y-64783D03*
X85511Y-64921D03*
X85511Y-62086D03*
X84862Y-61948D03*
X84862Y-60374D03*
X92667Y-60374D03*
X85177Y-62263D03*
X85846Y-63366D03*
X86407Y-62234D03*
X85866Y-67598D03*
X85866Y-69330D03*
X85807Y-66417D03*
X85531Y-69488D03*
X85157Y-69015D03*
X85000Y-65925D03*
X85531Y-67913D03*
X86289Y-67283D03*
X87598Y-69173D03*
X87667Y-66427D03*
X85639Y-65925D03*
X86358Y-65925D03*
X86417Y-69645D03*
X86200Y-66368D03*
X87864Y-69173D03*
X88248Y-64374D03*
X86574Y-65925D03*
X86732Y-69015D03*
X85531Y-69173D03*
X85413Y-65925D03*
X73011Y-64625D03*
X73917Y-66003D03*
X79783Y-65816D03*
X86220Y-49635D03*
X79940Y-65383D03*
X85826Y-49635D03*
X74547Y-64980D03*
X96358Y-57923D03*
X87568Y-52372D03*
X87568Y-52155D03*
X96505Y-57775D03*
X81043Y-63031D03*
X84448Y-49517D03*
X84645Y-49635D03*
X80885Y-62106D03*
X80098Y-65580D03*
X85629Y-49517D03*
X97500Y-58208D03*
X111023Y-49370D03*
X105118Y-56102D03*
X99763Y-51515D03*
X97342Y-56791D03*
X111496Y-56417D03*
X102185Y-51515D03*
X107746Y-65137D03*
X108503Y-48385D03*
X108503Y-47874D03*
X107362Y-65698D03*
X94311Y-56486D03*
X89401Y-56161D03*
X91236Y-60165D03*
X98555Y-61129D03*
X89767Y-56240D03*
X91232Y-59937D03*
X94870Y-60425D03*
X95968Y-61555D03*
X95078Y-51917D03*
X91602Y-55480D03*
X81653Y-55472D03*
X74822Y-60275D03*
X81653Y-58799D03*
X94744Y-55905D03*
X94448Y-52234D03*
X98740Y-60137D03*
X99921Y-52244D03*
X94921Y-50954D03*
X95078Y-51604D03*
X99921Y-52608D03*
X99074Y-60137D03*
X97696Y-50875D03*
X94606Y-50954D03*
X95724Y-56984D03*
X94133Y-51289D03*
X81417Y-50285D03*
X81417Y-66811D03*
X90236Y-51141D03*
X91358Y-58984D03*
X95964Y-59360D03*
X94133Y-51604D03*
X94751Y-49720D03*
X94448Y-51604D03*
X96318Y-49753D03*
X95078Y-51289D03*
X98513Y-51515D03*
X98405Y-60137D03*
X98362Y-52220D03*
X97783Y-60185D03*
X94448Y-51919D03*
X93848Y-56722D03*
X94133Y-52234D03*
X88641Y-50433D03*
X88641Y-47539D03*
X95393Y-51289D03*
X75157Y-60275D03*
X96078Y-53062D03*
X89881Y-50925D03*
X89881Y-48543D03*
X94763Y-52234D03*
X75531Y-60275D03*
X96220Y-56732D03*
X89625Y-56555D03*
X89645Y-48041D03*
X89645Y-50767D03*
X94763Y-51919D03*
X91614Y-54291D03*
X94763Y-51604D03*
X94763Y-53809D03*
X95566Y-49614D03*
X95393Y-54124D03*
X96151Y-54488D03*
X98503Y-51259D03*
X99874Y-54547D03*
X93090Y-50334D03*
X90984Y-51200D03*
X96724Y-55059D03*
X85118Y-59763D03*
X93346Y-49763D03*
X85118Y-59566D03*
X85118Y-59960D03*
X94448Y-53484D03*
X95393Y-51604D03*
X93484Y-55944D03*
X76102Y-42637D03*
X75826Y-41968D03*
X76377Y-41968D03*
X94881Y-40039D03*
X92519Y-40039D03*
X91515Y-40039D03*
X90531Y-40039D03*
X91181Y-35807D03*
X91850Y-35807D03*
X90846Y-35807D03*
X90177Y-35807D03*
X89173Y-35807D03*
X89842Y-35807D03*
X88838Y-35807D03*
X88169Y-35807D03*
X87165Y-35807D03*
X87834Y-35807D03*
X86181Y-35807D03*
X86850Y-35807D03*
X85846Y-35807D03*
X85177Y-35807D03*
X84173Y-35807D03*
X84842Y-35807D03*
X83838Y-35807D03*
X83169Y-35807D03*
X94763Y-52549D03*
X96122Y-51564D03*
X89901Y-75570D03*
X106043Y-83326D03*
X107106Y-81673D03*
X98858Y-45019D03*
X97637Y-71811D03*
X82677Y-72362D03*
X82677Y-72618D03*
X92614Y-79094D03*
X92425Y-79633D03*
X93464Y-83169D03*
X93464Y-82165D03*
X71417Y-52874D03*
X88070Y-76692D03*
X87244Y-74763D03*
X101496Y-59862D03*
X101240Y-60570D03*
X103027Y-61964D03*
X102696Y-78976D03*
X102696Y-78228D03*
X96141Y-48435D03*
X95551Y-48897D03*
X96614Y-56574D03*
X92185Y-48700D03*
X91811Y-48976D03*
X93996Y-50334D03*
X90078Y-52795D03*
X90059Y-51437D03*
X89094Y-52224D03*
X87775Y-47283D03*
X92627Y-56397D03*
X96476Y-50374D03*
X97145Y-54862D03*
X82322Y-73661D03*
X83956Y-72618D03*
X83307Y-72618D03*
X70334Y-55866D03*
X84645Y-54893D03*
X74173Y-53818D03*
X71377Y-59015D03*
X71653Y-57637D03*
X72204Y-58425D03*
X71062Y-58425D03*
X71062Y-57519D03*
X71062Y-58149D03*
X71377Y-57834D03*
X73070Y-55944D03*
X75000Y-56043D03*
X77165Y-55570D03*
X77047Y-53838D03*
X76417Y-58700D03*
X74744Y-57539D03*
X75165Y-57094D03*
X73937Y-63523D03*
X76318Y-56614D03*
X75944Y-53877D03*
X74744Y-54350D03*
X73917Y-55964D03*
X71673Y-56515D03*
X73326Y-55767D03*
X72657Y-55433D03*
X73326Y-53799D03*
X72480Y-53622D03*
X72263Y-53622D03*
X71318Y-53740D03*
X71082Y-53405D03*
X71220Y-55354D03*
X70334Y-55275D03*
X70334Y-53838D03*
X72677Y-59429D03*
X71929Y-59429D03*
X72303Y-59862D03*
X72303Y-58996D03*
X73248Y-56515D03*
X73011Y-57834D03*
X76732Y-56929D03*
X73956Y-59763D03*
X73366Y-58208D03*
X73366Y-58523D03*
X77125Y-62992D03*
X77244Y-60314D03*
X75944Y-61929D03*
X76141Y-61722D03*
X73976Y-61929D03*
X75748Y-61929D03*
X75157Y-61929D03*
X74566Y-61929D03*
X75354Y-61929D03*
X75551Y-61929D03*
X74763Y-61929D03*
X74960Y-61929D03*
X74370Y-61929D03*
X74173Y-61929D03*
X79311Y-64704D03*
X106003Y-46909D03*
X105787Y-46909D03*
X105905Y-48464D03*
X106141Y-50334D03*
X95393Y-72342D03*
X101456Y-70196D03*
X101456Y-70452D03*
X100354Y-70196D03*
X100354Y-70452D03*
X91122Y-60767D03*
X90846Y-60767D03*
X91023Y-58996D03*
X88090Y-58070D03*
X87854Y-58070D03*
X88346Y-58070D03*
X88090Y-58562D03*
X87854Y-58562D03*
X88346Y-58562D03*
X94783Y-70688D03*
X80019Y-40255D03*
X82007Y-40000D03*
X77637Y-51200D03*
X79507Y-51200D03*
X70649Y-49625D03*
X71279Y-50866D03*
X76437Y-48405D03*
X82736Y-53917D03*
X101220Y-63779D03*
X76610Y-79602D03*
X77618Y-80015D03*
X76039Y-73850D03*
X78771Y-74062D03*
X98598Y-79535D03*
X98614Y-78740D03*
X106657Y-78755D03*
X106669Y-79515D03*
X104566Y-81350D03*
X105070Y-82031D03*
X100318Y-81314D03*
X97779Y-82507D03*
X97783Y-81228D03*
X77196Y-51598D03*
X75385Y-52645D03*
X75858Y-52633D03*
X76901Y-52090D03*
X75874Y-60275D03*
X99338Y-60614D03*
X102795Y-62157D03*
X92649Y-59354D03*
X88677Y-58311D03*
X106933Y-41566D03*
X106933Y-40287D03*
X81283Y-37846D03*
X81775Y-37929D03*
X102188Y-36141D03*
X96389Y-79389D03*
X96732Y-79881D03*
X96594Y-82165D03*
X97133Y-82622D03*
X91708Y-82618D03*
X92125Y-82169D03*
X92035Y-80204D03*
X89055Y-65807D03*
X86330Y-67598D03*
X93622Y-73484D03*
X88543Y-67598D03*
X88267Y-68858D03*
X90031Y-54228D03*
X97696Y-54862D03*
X97669Y-52586D03*
X96984Y-72811D03*
X96531Y-72846D03*
X91244Y-53405D03*
X92051Y-53106D03*
X96870Y-53244D03*
X95814Y-56015D03*
X87007Y-49051D03*
X85980Y-48468D03*
X83027Y-49500D03*
X84779Y-48055D03*
X84055Y-54893D03*
X84251Y-54893D03*
X84448Y-54893D03*
X84842Y-54889D03*
X85039Y-54893D03*
X85236Y-54893D03*
X85433Y-54893D03*
X85629Y-54893D03*
X85826Y-54897D03*
X86023Y-54893D03*
X86220Y-54893D03*
X103177Y-69322D03*
X104535Y-69196D03*
X104397Y-69322D03*
X103917Y-70177D03*
X105433Y-69212D03*
X104877Y-69318D03*
X88590Y-70720D03*
X84055Y-49517D03*
X98858Y-48070D03*
X105000Y-49429D03*
X106948Y-49429D03*
X102165Y-45039D03*
X104409Y-35551D03*
X102755Y-35314D03*
X99055Y-36377D03*
X99251Y-36811D03*
X99251Y-35944D03*
X97125Y-36811D03*
X97125Y-35944D03*
X95393Y-80866D03*
X76161Y-70236D03*
X76161Y-68937D03*
X91614Y-76062D03*
X107952Y-66259D03*
X111181Y-67480D03*
X109409Y-67480D03*
X111771Y-67854D03*
X111771Y-68602D03*
X109921Y-68602D03*
X109921Y-67854D03*
X108740Y-68838D03*
X109094Y-67677D03*
X110944Y-67677D03*
X109783Y-37598D03*
X102539Y-40275D03*
X102539Y-41358D03*
X102716Y-40078D03*
X100492Y-55570D03*
X99763Y-55137D03*
X101220Y-55137D03*
X70255Y-66476D03*
X70255Y-66003D03*
X71712Y-66614D03*
X72362Y-66614D03*
X70295Y-65196D03*
X70728Y-65748D03*
X70728Y-64645D03*
X99251Y-83169D03*
X82618Y-63622D03*
X72677Y-68326D03*
X72677Y-67736D03*
X72677Y-67145D03*
X72677Y-66555D03*
X100492Y-42933D03*
X99763Y-43366D03*
X101220Y-43366D03*
X82618Y-66535D03*
X80452Y-72519D03*
X81830Y-72519D03*
X81456Y-72814D03*
X80826Y-72814D03*
X99734Y-52795D03*
X98858Y-52795D03*
X105757Y-35364D03*
X91220Y-48641D03*
X77598Y-72696D03*
X77460Y-70570D03*
X78700Y-62598D03*
X92342Y-75374D03*
X78937Y-40098D03*
X77913Y-42460D03*
X81141Y-65216D03*
X82263Y-62283D03*
X82519Y-62559D03*
X99212Y-62194D03*
X99793Y-49251D03*
X109370Y-71929D03*
X103789Y-71929D03*
X87913Y-74015D03*
X87913Y-73641D03*
X88484Y-79704D03*
X86259Y-80393D03*
X92086Y-50009D03*
X95462Y-71742D03*
X110088Y-72883D03*
X109291Y-72883D03*
X102539Y-67519D03*
X107283Y-35364D03*
X106574Y-35364D03*
X94035Y-48051D03*
X103484Y-71338D03*
X103484Y-70629D03*
X103090Y-70629D03*
X103090Y-71338D03*
X99822Y-46653D03*
X99822Y-45708D03*
X89596Y-63041D03*
X84685Y-69911D03*
X85531Y-68858D03*
X87421Y-70433D03*
X85157Y-68700D03*
X85157Y-67755D03*
X85157Y-67440D03*
X85157Y-66496D03*
X79202Y-70118D03*
X78444Y-70118D03*
X82824Y-70875D03*
X83198Y-70118D03*
X86732Y-68700D03*
X86732Y-66496D03*
X84606Y-69202D03*
X86712Y-62854D03*
X86751Y-63523D03*
X86751Y-64783D03*
X85137Y-65059D03*
X85137Y-64153D03*
X85137Y-63799D03*
X85511Y-65413D03*
X85511Y-62716D03*
X86023Y-63779D03*
X87342Y-61318D03*
X83671Y-61771D03*
X83671Y-62716D03*
X83671Y-63346D03*
X83671Y-63976D03*
X83671Y-64606D03*
X83671Y-65236D03*
X86427Y-65413D03*
X86437Y-62854D03*
X84488Y-61141D03*
X88267Y-69803D03*
X83671Y-68858D03*
X83671Y-68228D03*
X83671Y-67598D03*
X83671Y-66968D03*
X83671Y-66338D03*
X84488Y-71102D03*
X85807Y-66751D03*
X101259Y-52795D03*
X102135Y-53287D03*
X101259Y-46555D03*
X101259Y-45059D03*
X101259Y-45708D03*
X102145Y-45708D03*
X101259Y-46003D03*
X101102Y-47381D03*
X102185Y-47992D03*
X101240Y-47992D03*
X101043Y-48956D03*
X102490Y-51496D03*
X101259Y-49940D03*
X101259Y-50433D03*
X102185Y-51909D03*
X98858Y-47578D03*
X99734Y-48070D03*
X99763Y-50433D03*
X98858Y-49940D03*
X99763Y-51742D03*
X98858Y-51712D03*
X98858Y-51318D03*
X108996Y-62913D03*
X109015Y-62401D03*
X109015Y-61909D03*
X108996Y-60915D03*
X108996Y-60413D03*
X109015Y-56889D03*
X108996Y-42913D03*
X108996Y-44409D03*
X109015Y-44881D03*
X109015Y-58385D03*
X109015Y-43897D03*
X108503Y-47401D03*
X108503Y-48897D03*
X108503Y-49409D03*
X109015Y-49409D03*
X108503Y-50905D03*
X109015Y-50905D03*
X108503Y-51377D03*
X109015Y-52401D03*
X108503Y-52913D03*
X108503Y-53385D03*
X109015Y-53897D03*
X108503Y-54881D03*
X108503Y-55393D03*
X109015Y-55393D03*
X108503Y-56889D03*
X108503Y-46889D03*
X110511Y-45905D03*
X110511Y-59389D03*
X110511Y-62903D03*
X111545Y-61663D03*
X110511Y-61397D03*
X110511Y-60895D03*
X111545Y-60167D03*
X111545Y-58661D03*
X110511Y-43385D03*
X111023Y-43897D03*
X110511Y-44409D03*
X111023Y-45393D03*
X111023Y-46889D03*
X110511Y-47401D03*
X111023Y-48385D03*
X110511Y-48897D03*
X111023Y-49881D03*
X110511Y-50393D03*
X111023Y-51377D03*
X110511Y-51889D03*
X111023Y-52913D03*
X110511Y-53385D03*
X111023Y-54409D03*
X110511Y-54881D03*
X110511Y-57913D03*
X111023Y-57401D03*
X111023Y-55905D03*
X110511Y-56377D03*
X90590Y-45708D03*
X87598Y-43582D03*
X87834Y-43159D03*
X97125Y-38090D03*
X97125Y-37263D03*
X90925Y-46437D03*
X88228Y-48789D03*
X87814Y-48543D03*
X96476Y-50708D03*
X98779Y-37431D03*
X96496Y-49389D03*
X102125Y-73681D03*
X104635Y-71299D03*
X104468Y-70620D03*
X102696Y-74566D03*
X102696Y-73858D03*
X101417Y-73681D03*
X105354Y-73287D03*
X104645Y-73287D03*
X100688Y-71614D03*
X100255Y-71614D03*
X102696Y-73641D03*
X102460Y-71919D03*
X104232Y-72982D03*
X72677Y-65374D03*
X82736Y-50511D03*
X82303Y-52559D03*
X83179Y-51377D03*
X87145Y-50511D03*
X83464Y-49635D03*
X86417Y-54901D03*
X83661Y-54901D03*
X82145Y-48031D03*
X82490Y-50511D03*
X82047Y-52559D03*
X82047Y-53740D03*
X86771Y-48976D03*
X107519Y-68031D03*
X108267Y-67795D03*
X107559Y-67795D03*
X93622Y-74409D03*
X96151Y-55639D03*
X95708Y-53494D03*
X95078Y-53179D03*
X94931Y-50344D03*
X94763Y-51289D03*
X96476Y-50039D03*
X92539Y-54281D03*
X92539Y-52706D03*
X92539Y-51761D03*
X96053Y-51131D03*
X94261Y-56190D03*
X93976Y-54458D03*
X92874Y-51919D03*
X92874Y-51604D03*
X92539Y-51446D03*
X92539Y-51131D03*
X80314Y-71909D03*
X77736Y-71712D03*
X102716Y-35748D03*
X102716Y-36082D03*
X102795Y-39842D03*
X102539Y-39271D03*
X76141Y-61978D03*
X79566Y-64094D03*
X80275Y-64094D03*
X80275Y-63602D03*
X80393Y-63110D03*
X80472Y-64704D03*
X79311Y-64350D03*
X101496Y-59429D03*
X100964Y-59429D03*
X101240Y-59429D03*
X102135Y-53681D03*
X83661Y-49517D03*
X98858Y-50433D03*
X94803Y-58700D03*
X94763Y-49055D03*
X75196Y-54665D03*
X79645Y-49070D03*
X95078Y-53494D03*
X94783Y-60098D03*
X95019Y-58877D03*
X75196Y-54429D03*
X79649Y-49527D03*
X95078Y-53809D03*
X95551Y-49320D03*
X95216Y-58700D03*
X96614Y-72661D03*
X89271Y-72736D03*
X106200Y-50846D03*
X102539Y-46535D03*
X111023Y-50393D03*
X101240Y-49153D03*
X101023Y-50984D03*
X110511Y-56889D03*
X89271Y-72253D03*
X89291Y-70610D03*
X89074Y-72401D03*
X97240Y-71519D03*
X88311Y-71547D03*
X88799Y-73248D03*
X88897Y-80393D03*
X97586Y-55397D03*
X109015Y-54409D03*
X101141Y-52106D03*
X97598Y-55679D03*
X101259Y-52303D03*
X108503Y-53897D03*
X101141Y-52500D03*
X108503Y-54409D03*
X97933Y-55885D03*
X96860Y-56574D03*
X109015Y-53385D03*
X101259Y-53090D03*
X108996Y-52913D03*
X108740Y-67893D03*
X108061Y-64498D03*
X108996Y-51919D03*
X109842Y-61397D03*
X109498Y-50413D03*
X109094Y-67401D03*
X109498Y-49911D03*
X98830Y-52106D03*
X103779Y-67145D03*
X99488Y-66633D03*
X112007Y-56161D03*
X112007Y-66633D03*
X101003Y-66633D03*
X99291Y-54055D03*
X104645Y-66456D03*
X98858Y-53287D03*
X100354Y-66633D03*
X98690Y-52500D03*
X99921Y-66633D03*
X103779Y-66830D03*
X111771Y-69645D03*
X109921Y-69645D03*
X98858Y-52303D03*
X99716Y-66633D03*
X104645Y-65925D03*
X110295Y-69645D03*
X112145Y-69645D03*
X104645Y-66141D03*
X98690Y-53090D03*
X100137Y-66633D03*
X99007Y-62287D03*
X109842Y-61161D03*
X109251Y-64685D03*
X109015Y-58897D03*
X111712Y-63395D03*
X110511Y-49881D03*
X111712Y-55157D03*
X101692Y-54064D03*
X108297Y-61781D03*
X108503Y-57913D03*
X111023Y-59389D03*
X107903Y-64675D03*
X108503Y-55905D03*
X108415Y-64675D03*
X100039Y-46397D03*
X108149Y-47401D03*
X109015Y-57913D03*
X109015Y-55905D03*
X108061Y-64271D03*
X111023Y-59891D03*
X99921Y-51968D03*
X106102Y-51220D03*
X111023Y-50905D03*
X99094Y-64429D03*
X102559Y-51909D03*
X111003Y-56909D03*
X100570Y-66633D03*
X98690Y-53484D03*
X100787Y-66633D03*
X98858Y-53681D03*
X109291Y-73129D03*
X112106Y-73129D03*
X101751Y-56496D03*
X99763Y-48996D03*
X98838Y-66279D03*
X99043Y-61062D03*
X108484Y-66830D03*
X104606Y-66830D03*
X108503Y-56377D03*
X109015Y-56377D03*
X112401Y-56653D03*
X104606Y-67145D03*
X112401Y-67145D03*
X99251Y-68996D03*
X109645Y-63070D03*
X109507Y-51417D03*
X109448Y-66456D03*
X105472Y-66456D03*
X109468Y-54881D03*
X110748Y-63720D03*
X110511Y-58897D03*
X105472Y-65905D03*
X112204Y-57677D03*
X105472Y-66141D03*
X112204Y-66456D03*
X111574Y-43169D03*
X109015Y-45905D03*
X108503Y-46417D03*
X111259Y-62992D03*
X93188Y-53179D03*
X93503Y-52864D03*
X93818Y-52864D03*
X94448Y-52864D03*
X92874Y-52549D03*
X93188Y-52864D03*
X93818Y-55059D03*
X93503Y-52549D03*
X92145Y-52125D03*
X93818Y-52549D03*
X92214Y-51456D03*
X92874Y-52234D03*
X93188Y-52234D03*
X91279Y-52244D03*
X93503Y-52234D03*
X93818Y-52234D03*
X92214Y-51200D03*
X92874Y-52864D03*
X93188Y-54124D03*
X93031Y-54458D03*
X92539Y-53966D03*
X92874Y-54124D03*
X93818Y-54124D03*
X94133Y-54124D03*
X94448Y-53809D03*
X92874Y-53809D03*
X93188Y-53809D03*
X93818Y-53809D03*
X94133Y-53809D03*
X94133Y-53494D03*
X92874Y-53494D03*
X93503Y-53494D03*
X93503Y-53179D03*
X93818Y-53494D03*
X94448Y-53179D03*
X95393Y-51919D03*
X95708Y-51289D03*
X94448Y-52549D03*
X94035Y-48858D03*
X97700Y-49122D03*
X95393Y-52549D03*
X92539Y-52076D03*
X92086Y-50787D03*
X95708Y-51604D03*
X97334Y-55102D03*
X95393Y-53179D03*
X90019Y-53149D03*
X92539Y-53346D03*
X93503Y-51919D03*
X93011Y-49507D03*
X93818Y-51919D03*
X93346Y-49507D03*
X98854Y-48980D03*
X95393Y-52864D03*
X98551Y-52039D03*
X103082Y-35472D03*
X95393Y-52234D03*
X103651Y-70482D03*
X103907Y-70482D03*
X104074Y-71338D03*
X94330Y-81259D03*
X85039Y-49635D03*
X85236Y-49517D03*
X85433Y-49635D03*
X72480Y-65177D03*
X82293Y-51181D03*
X109724Y-72401D03*
X83838Y-49635D03*
X84842Y-49517D03*
X86023Y-49517D03*
X89084Y-73877D03*
X89212Y-73681D03*
X89665Y-74803D03*
X89251Y-74251D03*
X92342Y-75019D03*
X89084Y-74094D03*
X90472Y-75039D03*
X91653Y-75098D03*
X89251Y-74488D03*
X72519Y-60314D03*
X72992Y-54586D03*
X75688Y-56555D03*
X76338Y-53877D03*
X96673Y-57027D03*
X75944Y-55787D03*
X97421Y-57657D03*
X72066Y-56535D03*
X70944Y-59015D03*
X99196Y-61751D03*
X76988Y-57952D03*
X73070Y-56299D03*
X74763Y-54035D03*
X70314Y-54448D03*
X95708Y-52864D03*
X95708Y-52224D03*
X96053Y-51338D03*
X95708Y-53179D03*
X73897Y-49055D03*
X98783Y-62019D03*
X96673Y-57342D03*
X98322Y-70614D03*
X89188Y-71598D03*
X97066Y-58976D03*
X102657Y-70482D03*
X102509Y-62647D03*
X111003Y-62401D03*
X111712Y-66909D03*
X110314Y-66909D03*
X110295Y-60413D03*
X100216Y-46200D03*
X110157Y-47401D03*
X102185Y-46456D03*
X99311Y-66043D03*
X110511Y-55905D03*
X102185Y-46200D03*
X108238Y-53149D03*
X110511Y-52913D03*
X99311Y-65068D03*
X105570Y-71909D03*
X105354Y-72106D03*
X87362Y-40039D03*
X102303Y-70482D03*
X100665Y-45480D03*
X88523Y-40039D03*
X100244Y-45279D03*
X101771Y-71131D03*
X89527Y-40196D03*
X99196Y-44240D03*
X101220Y-71622D03*
X78444Y-40236D03*
X103405Y-40826D03*
X103405Y-41043D03*
X103405Y-40610D03*
X89074Y-72893D03*
X88169Y-66299D03*
X83700Y-59566D03*
X83700Y-59960D03*
X83700Y-59763D03*
X75984Y-62992D03*
X75984Y-62677D03*
X75511Y-62992D03*
X75748Y-62992D03*
X75275Y-62992D03*
X74803Y-62992D03*
X75039Y-62992D03*
X74566Y-62992D03*
X74330Y-62992D03*
X74330Y-62677D03*
X74566Y-62677D03*
X75039Y-62677D03*
X74803Y-62677D03*
X75275Y-62677D03*
X75748Y-62677D03*
X75511Y-62677D03*
X88255Y-74511D03*
X91141Y-75885D03*
X91722Y-71545D03*
X90777Y-71545D03*
X92923Y-73198D03*
X92746Y-73986D03*
X77165Y-55216D03*
X93346Y-48681D03*
X93015Y-48681D03*
X90007Y-53976D03*
X87421Y-68858D03*
X85531Y-68228D03*
X87401Y-66338D03*
X85531Y-66968D03*
X84488Y-68858D03*
X84488Y-68228D03*
X84488Y-67598D03*
X84488Y-66968D03*
X84488Y-66338D03*
X84488Y-70748D03*
X87421Y-69803D03*
X86377Y-68228D03*
X86377Y-66968D03*
X87440Y-62253D03*
X87342Y-60964D03*
X86437Y-63208D03*
X87047Y-64448D03*
X86437Y-64468D03*
X84488Y-61771D03*
X84488Y-62716D03*
X85511Y-63346D03*
X84488Y-63346D03*
X84488Y-63976D03*
X85492Y-64507D03*
X84488Y-64606D03*
X84488Y-65236D03*
X87401Y-63326D03*
X87057Y-63818D03*
X87204Y-65472D03*
X87618Y-72795D03*
X81830Y-70885D03*
X86181Y-71496D03*
X83602Y-47854D03*
X89862Y-52224D03*
X90523Y-49696D03*
X98429Y-61444D03*
X95728Y-72342D03*
X97771Y-61358D03*
X97141Y-60342D03*
X95637Y-56200D03*
X89055Y-39881D03*
X71279Y-48720D03*
X90086Y-51799D03*
X77618Y-68700D03*
X76377Y-60511D03*
X76377Y-59763D03*
X107401Y-48622D03*
X80984Y-38543D03*
X103188Y-66299D03*
X80472Y-49523D03*
X89106Y-51566D03*
X86870Y-48051D03*
X86456Y-48744D03*
X83862Y-48188D03*
X83023Y-48736D03*
X91830Y-47185D03*
X90019Y-46082D03*
X90354Y-46082D03*
X90610Y-44980D03*
X88937Y-42834D03*
X90610Y-43562D03*
X84877Y-73972D03*
X87566Y-74035D03*
X95389Y-74488D03*
X96326Y-74503D03*
X97200Y-74503D03*
X92933Y-72354D03*
X91092Y-71545D03*
X90147Y-71545D03*
X92746Y-74301D03*
X102244Y-72470D03*
X103681Y-35157D03*
X110112Y-43163D03*
X110039Y-46476D03*
X110039Y-46712D03*
X110037Y-46927D03*
X109803Y-46476D03*
X109803Y-46712D03*
X109803Y-46929D03*
X106751Y-73848D03*
X103287Y-73858D03*
X104586Y-72982D03*
X104370Y-71348D03*
X83267Y-54468D03*
X86417Y-49517D03*
X84251Y-49635D03*
X82145Y-50984D03*
X82303Y-51968D03*
X82303Y-53149D03*
X70649Y-51673D03*
X75570Y-56259D03*
X73602Y-59153D03*
X73582Y-54389D03*
X71909Y-53405D03*
X70688Y-53838D03*
X70944Y-55945D03*
X76692Y-53366D03*
X89645Y-80472D03*
X102645Y-80303D03*
X105925Y-82850D03*
X107090Y-82952D03*
X70610Y-66988D03*
X76811Y-71555D03*
X107125Y-67598D03*
X99251Y-82814D03*
X109015Y-71456D03*
X102637Y-45039D03*
X102637Y-44724D03*
X111811Y-43759D03*
X103996Y-61043D03*
X99094Y-64035D03*
X92834Y-74655D03*
X104635Y-74212D03*
X102500Y-70629D03*
X102500Y-67962D03*
X101889Y-81082D03*
X104271Y-74763D03*
X93356Y-74763D03*
X102401Y-81771D03*
X92913Y-71486D03*
X102696Y-71338D03*
X93789Y-75078D03*
X103877Y-75078D03*
X102893Y-81259D03*
X102893Y-70482D03*
X102893Y-69301D03*
X103484Y-74921D03*
X94035Y-74921D03*
X103681Y-73858D03*
X103287Y-68129D03*
X104074Y-73858D03*
X104114Y-67667D03*
X84842Y-68700D03*
X87027Y-62854D03*
X83011Y-63228D03*
X83366Y-68543D03*
X78188Y-72362D03*
X88602Y-65610D03*
X88267Y-63720D03*
X91122Y-61122D03*
X81122Y-71476D03*
X89251Y-69980D03*
X88877Y-72578D03*
X89074Y-69822D03*
X89498Y-71161D03*
X91722Y-71161D03*
X92746Y-72096D03*
X81220Y-55708D03*
X81220Y-60039D03*
X73385Y-60039D03*
X71173Y-78724D03*
X97263Y-55816D03*
X94814Y-73429D03*
X97196Y-73429D03*
X89832Y-71545D03*
X92354Y-71602D03*
X88712Y-71102D03*
X90305Y-71377D03*
X89990Y-71377D03*
X89271Y-73385D03*
X89783Y-70433D03*
X92194Y-71377D03*
X92568Y-71344D03*
G54D85*
X100893Y-38712D02*
X99468Y-40137D01*
X100893Y-37431D02*
X100893Y-38712D01*
G54D86*
X94606Y-54340D02*
X94822Y-54557D01*
X94606Y-54340D02*
X94606Y-54281D01*
G54D87*
X100893Y-37431D02*
X101320Y-37431D01*
X101320Y-37431D02*
X101330Y-37421D01*
G54D10*
X87606Y-73062D02*
X89259Y-73062D01*
X89259Y-73062D02*
X89271Y-73051D01*
X89281Y-73041D02*
X89271Y-73051D01*
X89281Y-73041D02*
X89498Y-73041D01*
G54D86*
X95389Y-73181D02*
X95389Y-73602D01*
X95389Y-73602D02*
X95389Y-73826D01*
G54D10*
X92529Y-74143D02*
X92923Y-74143D01*
G54D86*
X96326Y-73629D02*
X96322Y-73629D01*
X96322Y-73181D02*
X96322Y-73629D01*
X96322Y-73629D02*
X96322Y-73822D01*
X96322Y-73822D02*
X96326Y-73826D01*
G54D10*
X92529Y-74635D02*
X92539Y-74645D01*
X92529Y-74635D02*
X92529Y-74458D01*
G54D87*
X78956Y-75334D02*
X77937Y-75334D01*
G54D88*
X78956Y-75334D02*
X80787Y-75334D01*
X90147Y-74793D02*
X90147Y-75127D01*
X89940Y-75334D02*
X90147Y-75127D01*
X80787Y-75334D02*
X89940Y-75334D01*
G54D87*
X77937Y-75334D02*
X77614Y-75657D01*
X78248Y-76318D02*
X76875Y-76318D01*
G54D88*
X78248Y-76318D02*
X89763Y-76318D01*
X89763Y-76318D02*
X90935Y-75147D01*
X90935Y-74793D02*
X90935Y-75147D01*
G54D87*
X76875Y-76318D02*
X76614Y-76057D01*
X78472Y-76830D02*
X77438Y-76830D01*
X77438Y-76830D02*
X76614Y-77655D01*
G54D88*
X91407Y-75895D02*
X91407Y-74793D01*
X89980Y-77322D02*
X91407Y-75895D01*
X80354Y-77322D02*
X89980Y-77322D01*
X79862Y-76830D02*
X80354Y-77322D01*
X78444Y-76830D02*
X78472Y-76830D01*
X78472Y-76830D02*
X79862Y-76830D01*
G54D87*
X79370Y-78307D02*
X77866Y-78307D01*
G54D88*
X79370Y-78307D02*
X90196Y-78307D01*
X90196Y-78307D02*
X92037Y-76466D01*
X92037Y-74793D02*
X92037Y-76466D01*
G54D87*
X77866Y-78307D02*
X77614Y-78055D01*
X78917Y-75137D02*
X77893Y-75137D01*
G54D88*
X89990Y-74793D02*
X89990Y-74990D01*
X89842Y-75137D02*
X89990Y-74990D01*
X80610Y-75137D02*
X89842Y-75137D01*
X78917Y-75137D02*
X80610Y-75137D01*
G54D87*
X77893Y-75137D02*
X77614Y-74858D01*
X78346Y-76122D02*
X77478Y-76122D01*
G54D88*
X90777Y-74793D02*
X90777Y-75029D01*
X89685Y-76122D02*
X90777Y-75029D01*
X78346Y-76122D02*
X89685Y-76122D01*
G54D87*
X77478Y-76122D02*
X76614Y-75257D01*
X78346Y-76633D02*
X76836Y-76633D01*
G54D88*
X91250Y-74793D02*
X91250Y-75521D01*
X89645Y-77125D02*
X91250Y-75521D01*
X80452Y-77125D02*
X89645Y-77125D01*
X79960Y-76633D02*
X80452Y-77125D01*
X78346Y-76633D02*
X79960Y-76633D01*
G54D87*
X76836Y-76633D02*
X76614Y-76856D01*
X79496Y-78110D02*
X78468Y-78110D01*
X78468Y-78110D02*
X77614Y-77255D01*
G54D88*
X79488Y-78110D02*
X79496Y-78110D01*
X79496Y-78110D02*
X90098Y-78110D01*
X90098Y-78110D02*
X91879Y-76328D01*
X91879Y-76328D02*
X91879Y-74793D01*
G54D10*
X90462Y-71761D02*
X90462Y-71545D01*
G54D86*
X90846Y-69783D02*
X90649Y-69586D01*
G54D10*
X90620Y-71377D02*
X90620Y-71761D01*
G54D86*
X90649Y-69980D02*
X90846Y-70177D01*
G54D10*
X90935Y-71377D02*
X90935Y-71761D01*
G54D86*
X91043Y-69586D02*
X91240Y-69783D01*
G54D10*
X91250Y-71377D02*
X91250Y-71761D01*
G54D86*
X91043Y-69980D02*
X91240Y-70177D01*
G54D10*
X91407Y-71545D02*
X91407Y-71761D01*
G54D86*
X91437Y-69586D02*
X91633Y-69783D01*
G54D10*
X91564Y-71377D02*
X91564Y-71761D01*
G54D86*
X91437Y-69980D02*
X91633Y-70177D01*
G54D10*
X91879Y-71377D02*
X91879Y-71761D01*
G54D86*
X91830Y-69586D02*
X92027Y-69783D01*
G54D10*
X92037Y-71545D02*
X92037Y-71761D01*
G54D86*
X91830Y-69980D02*
X92027Y-70177D01*
X93405Y-69980D02*
X93602Y-70177D01*
G54D10*
X92529Y-73828D02*
X92923Y-73828D01*
G54D86*
X93405Y-69586D02*
X93602Y-69783D01*
G54D10*
X92746Y-73671D02*
X92529Y-73671D01*
G54D86*
X93011Y-69586D02*
X93208Y-69783D01*
G54D10*
X92529Y-73513D02*
X92923Y-73513D01*
G54D86*
X93011Y-69980D02*
X93208Y-70177D01*
G54D10*
X92529Y-73356D02*
X92746Y-73356D01*
G54D86*
X92618Y-69192D02*
X92814Y-69389D01*
G54D10*
X92529Y-73041D02*
X92746Y-73041D01*
X93080Y-72883D02*
X92529Y-72883D01*
G54D86*
X92618Y-69586D02*
X92814Y-69783D01*
G54D10*
X92529Y-72726D02*
X92746Y-72726D01*
G54D86*
X92618Y-69980D02*
X92814Y-70177D01*
X92618Y-68799D02*
X92814Y-68996D01*
G54D10*
X92923Y-72568D02*
X92529Y-72568D01*
G54D86*
X97342Y-62500D02*
X97539Y-62696D01*
X102755Y-47184D02*
X102755Y-47185D01*
X102755Y-47184D02*
X101697Y-47184D01*
X111250Y-44183D02*
X111023Y-44409D01*
X111250Y-44183D02*
X111250Y-44163D01*
X97736Y-62500D02*
X97933Y-62696D01*
X110730Y-44663D02*
X110511Y-44881D01*
X110750Y-44663D02*
X110730Y-44663D01*
X99761Y-47182D02*
X99295Y-47182D01*
X99761Y-47182D02*
X99763Y-47185D01*
X97736Y-63681D02*
X97933Y-63877D01*
X102184Y-48759D02*
X102185Y-48759D01*
X101697Y-48759D02*
X102184Y-48759D01*
X111250Y-48671D02*
X111023Y-48897D01*
X111250Y-48663D02*
X111250Y-48671D01*
X99295Y-48758D02*
X99762Y-48758D01*
X99762Y-48758D02*
X99763Y-48759D01*
X98129Y-63681D02*
X98326Y-63877D01*
X110718Y-49163D02*
X110750Y-49163D01*
X110718Y-49163D02*
X110511Y-49370D01*
X98129Y-62500D02*
X98326Y-62696D01*
X103149Y-47381D02*
X103149Y-47381D01*
X102184Y-47381D02*
X102185Y-47381D01*
X102184Y-47381D02*
X101697Y-47381D01*
X111242Y-44663D02*
X111023Y-44881D01*
X111250Y-44663D02*
X111242Y-44663D01*
X97342Y-62893D02*
X97539Y-63090D01*
X110742Y-45163D02*
X110511Y-45393D01*
X110750Y-45163D02*
X110742Y-45163D01*
X99899Y-47379D02*
X99295Y-47379D01*
X99899Y-47379D02*
X99901Y-47381D01*
X97736Y-62893D02*
X97933Y-63090D01*
X101697Y-47775D02*
X102184Y-47775D01*
X102184Y-47775D02*
X102185Y-47775D01*
X111250Y-45679D02*
X111023Y-45905D01*
X111250Y-45663D02*
X111250Y-45679D01*
X98129Y-62893D02*
X98326Y-63090D01*
X99762Y-47773D02*
X99763Y-47775D01*
X99295Y-47773D02*
X99762Y-47773D01*
X110738Y-46663D02*
X110511Y-46889D01*
X110750Y-46663D02*
X110738Y-46663D01*
X101697Y-48365D02*
X102184Y-48365D01*
X102184Y-48365D02*
X102185Y-48366D01*
X96161Y-64074D02*
X96358Y-64271D01*
X111250Y-47175D02*
X111023Y-47401D01*
X111250Y-47163D02*
X111250Y-47175D01*
X99762Y-48364D02*
X99295Y-48364D01*
X99762Y-48364D02*
X99763Y-48366D01*
X96555Y-64074D02*
X96751Y-64271D01*
X110750Y-47663D02*
X110722Y-47663D01*
X110722Y-47663D02*
X110511Y-47874D01*
X102322Y-48562D02*
X101697Y-48562D01*
X102322Y-48562D02*
X102322Y-48562D01*
X111250Y-47663D02*
X111234Y-47663D01*
X111234Y-47663D02*
X111023Y-47874D01*
X98129Y-63287D02*
X98326Y-63484D01*
X99900Y-48561D02*
X99295Y-48561D01*
X99900Y-48561D02*
X99901Y-48562D01*
X97342Y-63681D02*
X97539Y-63877D01*
X110734Y-48163D02*
X110750Y-48163D01*
X110734Y-48163D02*
X110511Y-48385D01*
X97736Y-64074D02*
X97933Y-64271D01*
X102184Y-49546D02*
X102185Y-49547D01*
X101697Y-49546D02*
X102184Y-49546D01*
X110726Y-51163D02*
X110511Y-51377D01*
X110750Y-51163D02*
X110726Y-51163D01*
X98129Y-64074D02*
X98326Y-64271D01*
X99762Y-49545D02*
X99763Y-49547D01*
X99295Y-49545D02*
X99762Y-49545D01*
X110750Y-50667D02*
X110511Y-50905D01*
X110750Y-50667D02*
X110750Y-50663D01*
X102184Y-51121D02*
X102185Y-51122D01*
X102184Y-51121D02*
X101697Y-51121D01*
X110742Y-55163D02*
X110511Y-55393D01*
X110750Y-55163D02*
X110742Y-55163D01*
X97342Y-64074D02*
X97539Y-64271D01*
X99763Y-51121D02*
X99295Y-51121D01*
X99763Y-51121D02*
X99763Y-51122D01*
X96948Y-65255D02*
X97145Y-65452D01*
X111250Y-55163D02*
X111250Y-55167D01*
X111250Y-55167D02*
X111023Y-55393D01*
X96161Y-64468D02*
X96358Y-64665D01*
X102322Y-49743D02*
X102322Y-49744D01*
X101697Y-49743D02*
X102322Y-49743D01*
X111250Y-51663D02*
X111023Y-51889D01*
X99900Y-49742D02*
X99295Y-49742D01*
X99900Y-49742D02*
X99901Y-49744D01*
X97736Y-64468D02*
X97933Y-64665D01*
X111250Y-52175D02*
X111023Y-52401D01*
X111250Y-52163D02*
X111250Y-52175D01*
X97342Y-64468D02*
X97539Y-64665D01*
X102184Y-50137D02*
X102185Y-50137D01*
X101697Y-50137D02*
X102184Y-50137D01*
X111250Y-53163D02*
X111246Y-53163D01*
X111246Y-53163D02*
X111023Y-53385D01*
X99762Y-50136D02*
X99295Y-50136D01*
X99762Y-50136D02*
X99763Y-50137D01*
X98129Y-64468D02*
X98326Y-64665D01*
X110750Y-52163D02*
X110511Y-52401D01*
X102184Y-50727D02*
X101697Y-50727D01*
X102184Y-50727D02*
X102185Y-50728D01*
X98129Y-64862D02*
X98326Y-65059D01*
X110746Y-53663D02*
X110750Y-53663D01*
X110746Y-53663D02*
X110511Y-53897D01*
X99763Y-50727D02*
X99295Y-50727D01*
X99763Y-50727D02*
X99763Y-50728D01*
X97736Y-64862D02*
X97933Y-65059D01*
X111250Y-53663D02*
X111250Y-53671D01*
X111250Y-53671D02*
X111023Y-53897D01*
X98129Y-65255D02*
X98326Y-65452D01*
X102322Y-50924D02*
X102322Y-50925D01*
X101697Y-50924D02*
X102322Y-50924D01*
X111242Y-54663D02*
X111023Y-54881D01*
X111250Y-54663D02*
X111242Y-54663D01*
X99901Y-50924D02*
X99295Y-50924D01*
X99901Y-50924D02*
X99901Y-50925D01*
X96161Y-65255D02*
X96358Y-65452D01*
X110750Y-54171D02*
X110750Y-54163D01*
X110750Y-54171D02*
X110511Y-54409D01*
X85000Y-61771D02*
X85137Y-61909D01*
X91043Y-61712D02*
X91240Y-61909D01*
X86574Y-61771D02*
X86437Y-61633D01*
X90255Y-62500D02*
X90452Y-62696D01*
X86889Y-61771D02*
X87027Y-61909D01*
X90649Y-63681D02*
X90846Y-63877D01*
X85314Y-61141D02*
X85511Y-61141D01*
X91043Y-62106D02*
X91240Y-62303D01*
X87027Y-60964D02*
X86889Y-60826D01*
X92224Y-64468D02*
X92421Y-64665D01*
X85314Y-61771D02*
X85511Y-61771D01*
X90649Y-62500D02*
X90846Y-62696D01*
X87027Y-61594D02*
X86889Y-61456D01*
X91437Y-63681D02*
X91633Y-63877D01*
X85000Y-61456D02*
X85137Y-61594D01*
X90255Y-61712D02*
X90452Y-61909D01*
X89862Y-62500D02*
X90059Y-62696D01*
X86574Y-61456D02*
X86712Y-61594D01*
X85314Y-61456D02*
X85511Y-61456D01*
X90649Y-62106D02*
X90846Y-62303D01*
X89862Y-63287D02*
X90059Y-63484D01*
X86889Y-61141D02*
X87027Y-61279D01*
X85000Y-61141D02*
X85137Y-61279D01*
X90649Y-61712D02*
X90846Y-61909D01*
X86712Y-61279D02*
X86574Y-61141D01*
X91437Y-64074D02*
X91633Y-64271D01*
X85137Y-63484D02*
X85000Y-63346D01*
X91830Y-65255D02*
X92027Y-65452D01*
X89862Y-64468D02*
X90059Y-64665D01*
X86889Y-63346D02*
X87027Y-63484D01*
X85314Y-64291D02*
X85452Y-64153D01*
X91043Y-64074D02*
X91240Y-64271D01*
X86712Y-64429D02*
X86574Y-64291D01*
X91437Y-64468D02*
X91633Y-64665D01*
X87204Y-64291D02*
X87401Y-64291D01*
X91043Y-64468D02*
X91240Y-64665D01*
X84822Y-64429D02*
X84685Y-64291D01*
X90649Y-64074D02*
X90846Y-64271D01*
X91830Y-64862D02*
X92027Y-65059D01*
X87204Y-64921D02*
X87401Y-64921D01*
X84685Y-64921D02*
X84822Y-65059D01*
X90255Y-62893D02*
X90452Y-63090D01*
X90255Y-62893D02*
X90452Y-63090D01*
X89862Y-64074D02*
X90059Y-64271D01*
X85511Y-63031D02*
X85314Y-63031D01*
X86574Y-63031D02*
X86712Y-63169D01*
X90255Y-64862D02*
X90452Y-65059D01*
X87204Y-63031D02*
X87362Y-62874D01*
X91437Y-65649D02*
X91633Y-65846D01*
X84822Y-63169D02*
X84685Y-63031D01*
X91043Y-65255D02*
X91240Y-65452D01*
X90255Y-64468D02*
X90452Y-64665D01*
X87204Y-63661D02*
X87401Y-63661D01*
X84685Y-63661D02*
X84822Y-63799D01*
X90649Y-65255D02*
X90846Y-65452D01*
X85000Y-64606D02*
X85137Y-64744D01*
X91043Y-63681D02*
X91240Y-63877D01*
X86889Y-64606D02*
X87027Y-64744D01*
X90255Y-63287D02*
X90452Y-63484D01*
X86889Y-69803D02*
X87047Y-69645D01*
X91830Y-67224D02*
X92027Y-67421D01*
X85314Y-69803D02*
X85531Y-69803D01*
X90255Y-68011D02*
X90452Y-68208D01*
X85000Y-69803D02*
X85157Y-69645D01*
X89862Y-68011D02*
X90059Y-68208D01*
X86732Y-70275D02*
X86574Y-70433D01*
X91830Y-67618D02*
X92027Y-67814D01*
X85000Y-70748D02*
X85157Y-70590D01*
X91830Y-66830D02*
X92027Y-67027D01*
X86574Y-69803D02*
X86732Y-69645D01*
X92224Y-66830D02*
X92421Y-67027D01*
X85157Y-69960D02*
X85000Y-70118D01*
X90649Y-68011D02*
X90846Y-68208D01*
X92224Y-67618D02*
X92421Y-67814D01*
X87047Y-69960D02*
X86889Y-70118D01*
X89862Y-68799D02*
X90059Y-68996D01*
X85314Y-70118D02*
X85531Y-70118D01*
X91830Y-68011D02*
X92027Y-68208D01*
X86574Y-70118D02*
X86732Y-69960D01*
X90255Y-68799D02*
X90452Y-68996D01*
X85000Y-70433D02*
X85157Y-70275D01*
X92618Y-67618D02*
X92814Y-67814D01*
X87047Y-70275D02*
X86889Y-70433D01*
X90255Y-69192D02*
X90452Y-69389D01*
X85314Y-70433D02*
X85531Y-70433D01*
G54D10*
X87047Y-67755D02*
X87047Y-68070D01*
X87047Y-68070D02*
X86889Y-68228D01*
G54D86*
X91043Y-67224D02*
X91240Y-67421D01*
X85000Y-68228D02*
X85157Y-68070D01*
X91437Y-66830D02*
X91633Y-67027D01*
X86574Y-67283D02*
X86732Y-67125D01*
X90255Y-67224D02*
X90452Y-67421D01*
X85531Y-67283D02*
X85314Y-67283D01*
X89862Y-66830D02*
X90059Y-67027D01*
X84842Y-67125D02*
X84685Y-67283D01*
X90255Y-66830D02*
X90452Y-67027D01*
X87204Y-67283D02*
X87421Y-67283D01*
X89862Y-67224D02*
X90059Y-67421D01*
X84842Y-66496D02*
X84685Y-66653D01*
X90255Y-66437D02*
X90452Y-66633D01*
X87421Y-66653D02*
X87204Y-66653D01*
X91830Y-66043D02*
X92027Y-66240D01*
X86250Y-69330D02*
X86250Y-68868D01*
X86250Y-68868D02*
X86574Y-68543D01*
X89862Y-69192D02*
X90059Y-69389D01*
X85531Y-68543D02*
X85314Y-68543D01*
X89862Y-68405D02*
X90059Y-68602D01*
X84842Y-68385D02*
X84685Y-68543D01*
X92224Y-67224D02*
X92421Y-67421D01*
X87421Y-68543D02*
X87204Y-68543D01*
X91043Y-68011D02*
X91240Y-68208D01*
X84842Y-67755D02*
X84685Y-67913D01*
X89862Y-67618D02*
X90059Y-67814D01*
X87303Y-67814D02*
X87421Y-67814D01*
X87303Y-67814D02*
X87204Y-67913D01*
X91437Y-67224D02*
X91633Y-67421D01*
X87047Y-66811D02*
X86889Y-66968D01*
X91043Y-66437D02*
X91240Y-66633D01*
X85000Y-66968D02*
X85157Y-66811D01*
X89862Y-66437D02*
X90059Y-66633D01*
X94980Y-61712D02*
X95177Y-61909D01*
X87568Y-50984D02*
X87145Y-50984D01*
X94980Y-62106D02*
X95177Y-62303D01*
X87726Y-51181D02*
X87145Y-51181D01*
X87145Y-53346D02*
X87726Y-53346D01*
X97736Y-61712D02*
X97933Y-61909D01*
X97736Y-62106D02*
X97933Y-62303D01*
X87145Y-53543D02*
X87568Y-53543D01*
X95374Y-61712D02*
X95570Y-61909D01*
X87568Y-51377D02*
X87145Y-51377D01*
X95374Y-62106D02*
X95570Y-62303D01*
X87145Y-51574D02*
X87726Y-51574D01*
X87568Y-51771D02*
X87145Y-51771D01*
X95767Y-62500D02*
X95964Y-62696D01*
X87726Y-51968D02*
X87145Y-51968D01*
X95767Y-62893D02*
X95964Y-63090D01*
X96555Y-61712D02*
X96751Y-61909D01*
X87726Y-52559D02*
X87145Y-52559D01*
X96555Y-62500D02*
X96751Y-62696D01*
X87145Y-52755D02*
X87568Y-52755D01*
X96948Y-62106D02*
X97145Y-62303D01*
X87145Y-52952D02*
X87726Y-52952D01*
X97342Y-61712D02*
X97539Y-61909D01*
X87145Y-53149D02*
X87568Y-53149D01*
X83858Y-70354D02*
X83858Y-70826D01*
X84895Y-71864D02*
X85008Y-71864D01*
X83858Y-70826D02*
X84895Y-71864D01*
X83858Y-65649D02*
X83858Y-70354D01*
X85008Y-71864D02*
X86415Y-71864D01*
X86415Y-71864D02*
X86417Y-71862D01*
X94980Y-64468D02*
X95177Y-64665D01*
X86889Y-71862D02*
X86889Y-72070D01*
X86596Y-72364D02*
X86358Y-72364D01*
X86358Y-72364D02*
X85008Y-72364D01*
X94980Y-63681D02*
X95177Y-63877D01*
X86889Y-72070D02*
X86596Y-72364D01*
X87370Y-71862D02*
X87370Y-72228D01*
X87370Y-72228D02*
X86734Y-72864D01*
X86738Y-72864D02*
X86734Y-72864D01*
X86734Y-72864D02*
X85008Y-72864D01*
X94980Y-63287D02*
X95177Y-63484D01*
X87846Y-71862D02*
X87846Y-72287D01*
X87846Y-72287D02*
X87846Y-72291D01*
X86773Y-73364D02*
X85008Y-73364D01*
X87846Y-72291D02*
X86773Y-73364D01*
X95767Y-61712D02*
X95964Y-61909D01*
G54D89*
X96031Y-72106D02*
X96031Y-71743D01*
X96031Y-71743D02*
X96033Y-71742D01*
X96033Y-71742D02*
X96427Y-71742D01*
X96584Y-71899D02*
X96584Y-71978D01*
X96427Y-71742D02*
X96584Y-71899D01*
G54D86*
X96606Y-70704D02*
X96604Y-71958D01*
X96604Y-71958D02*
X96584Y-71978D01*
X96555Y-62893D02*
X96751Y-63090D01*
X94192Y-64074D02*
X94389Y-64271D01*
X93799Y-62893D02*
X93996Y-63090D01*
X93405Y-63681D02*
X93602Y-63877D01*
X93405Y-64074D02*
X93602Y-64271D01*
X93405Y-63287D02*
X93602Y-63484D01*
X93799Y-64468D02*
X93996Y-64665D01*
X93799Y-64074D02*
X93996Y-64271D01*
X93799Y-63287D02*
X93996Y-63484D01*
X93011Y-64074D02*
X93208Y-64271D01*
X93799Y-62500D02*
X93996Y-62696D01*
X94192Y-63681D02*
X94389Y-63877D01*
X93405Y-64468D02*
X93602Y-64665D01*
X93799Y-63681D02*
X93996Y-63877D01*
X93011Y-62500D02*
X93208Y-62696D01*
X93405Y-61712D02*
X93602Y-61909D01*
X91830Y-61712D02*
X92027Y-61909D01*
X91830Y-62106D02*
X92027Y-62303D01*
X91437Y-61712D02*
X91633Y-61909D01*
X91437Y-62106D02*
X91633Y-62303D01*
X92618Y-61712D02*
X92814Y-61909D01*
X92618Y-62106D02*
X92814Y-62303D01*
X93799Y-61712D02*
X93996Y-61909D01*
X93011Y-61712D02*
X93208Y-61909D01*
X93011Y-62106D02*
X93208Y-62303D01*
X93405Y-62106D02*
X93602Y-62303D01*
X93011Y-63287D02*
X93208Y-63484D01*
X93011Y-62893D02*
X93208Y-63090D01*
X92224Y-62500D02*
X92421Y-62696D01*
X92618Y-63287D02*
X92814Y-63484D01*
X82795Y-67074D02*
X82795Y-67322D01*
X82795Y-67322D02*
X82795Y-68120D01*
X82795Y-68120D02*
X82824Y-68149D01*
X94192Y-62106D02*
X94389Y-62303D01*
X94192Y-63287D02*
X94389Y-63484D01*
X78828Y-67322D02*
X78828Y-67084D01*
X78828Y-67084D02*
X78838Y-67074D01*
X78824Y-67326D02*
X78828Y-67322D01*
X78824Y-68149D02*
X78824Y-67326D01*
X81824Y-68149D02*
X81824Y-67328D01*
X81824Y-67328D02*
X81830Y-67322D01*
X94192Y-62893D02*
X94389Y-63090D01*
X80751Y-66913D02*
X80751Y-67133D01*
X80751Y-67133D02*
X80824Y-67206D01*
X81220Y-67322D02*
X80824Y-67322D01*
X80824Y-68149D02*
X80824Y-67322D01*
X80824Y-67322D02*
X80824Y-67206D01*
X94192Y-61712D02*
X94389Y-61909D01*
G54D10*
X98129Y-67224D02*
X98425Y-67224D01*
X98425Y-67224D02*
X98641Y-67007D01*
X100433Y-63139D02*
X98966Y-63139D01*
X98641Y-63464D02*
X98641Y-67007D01*
X98966Y-63139D02*
X98641Y-63464D01*
X98917Y-65334D02*
X98917Y-64960D01*
X100222Y-64350D02*
X100433Y-64139D01*
X99527Y-64350D02*
X100222Y-64350D01*
X99488Y-64389D02*
X99527Y-64350D01*
X98917Y-64960D02*
X99488Y-64389D01*
X98129Y-67618D02*
X98425Y-67618D01*
X98425Y-67618D02*
X99114Y-66929D01*
X99114Y-66259D02*
X99114Y-66929D01*
X98917Y-66062D02*
X99114Y-66259D01*
X98917Y-65334D02*
X98917Y-66062D01*
X98129Y-68405D02*
X99251Y-68405D01*
X101122Y-67775D02*
X101555Y-67342D01*
X99881Y-67775D02*
X101122Y-67775D01*
X99251Y-68405D02*
X99881Y-67775D01*
X100433Y-65139D02*
X100809Y-65139D01*
X101555Y-65885D02*
X101555Y-67342D01*
X100809Y-65139D02*
X101555Y-65885D01*
X97736Y-68011D02*
X97933Y-68208D01*
X101062Y-67637D02*
X101338Y-67362D01*
X99783Y-67637D02*
X101062Y-67637D01*
X99212Y-68208D02*
X99783Y-67637D01*
X97933Y-68208D02*
X99212Y-68208D01*
X100433Y-66139D02*
X100824Y-66139D01*
X101338Y-66653D02*
X101338Y-67362D01*
X100824Y-66139D02*
X101338Y-66653D01*
X98129Y-68011D02*
X99173Y-68011D01*
X100045Y-67139D02*
X100433Y-67139D01*
X99173Y-68011D02*
X100045Y-67139D01*
X97736Y-68405D02*
X97933Y-68602D01*
X101397Y-67736D02*
X103228Y-67736D01*
X101200Y-67933D02*
X101397Y-67736D01*
X99960Y-67933D02*
X101200Y-67933D01*
X99291Y-68602D02*
X99960Y-67933D01*
X97933Y-68602D02*
X99291Y-68602D01*
X102402Y-65139D02*
X102797Y-65139D01*
X103503Y-67460D02*
X103228Y-67736D01*
X103503Y-65846D02*
X103503Y-67460D01*
X102797Y-65139D02*
X103503Y-65846D01*
X99055Y-65314D02*
X99055Y-65059D01*
X99055Y-65059D02*
X99468Y-64645D01*
X97736Y-67618D02*
X97933Y-67814D01*
X98444Y-67814D02*
X99311Y-66948D01*
X97933Y-67814D02*
X98444Y-67814D01*
X102402Y-64139D02*
X102021Y-64139D01*
X101515Y-64645D02*
X99468Y-64645D01*
X102021Y-64139D02*
X101515Y-64645D01*
X99311Y-66279D02*
X99311Y-66948D01*
X99055Y-66023D02*
X99311Y-66279D01*
X99055Y-65314D02*
X99055Y-66023D01*
G54D86*
X102129Y-62779D02*
X102129Y-62867D01*
X102129Y-62867D02*
X102402Y-63139D01*
X97736Y-69192D02*
X97933Y-69389D01*
G54D87*
X76759Y-68937D02*
X77007Y-68937D01*
X77007Y-68937D02*
X77255Y-68937D01*
G54D86*
X93799Y-68011D02*
X93996Y-68208D01*
G54D87*
X76759Y-69370D02*
X77007Y-69370D01*
X77007Y-69370D02*
X77255Y-69370D01*
G54D86*
X94192Y-68405D02*
X94389Y-68602D01*
G54D87*
X76759Y-69803D02*
X77007Y-69803D01*
X77007Y-69803D02*
X77255Y-69803D01*
G54D86*
X94192Y-68011D02*
X94389Y-68208D01*
G54D87*
X76759Y-70236D02*
X77007Y-70236D01*
X77007Y-70236D02*
X77255Y-70236D01*
G54D86*
X94586Y-69192D02*
X94783Y-69389D01*
X109291Y-77165D02*
X109712Y-77165D01*
X94192Y-69980D02*
X94389Y-70177D01*
X109295Y-76913D02*
X109291Y-76909D01*
X109295Y-76913D02*
X109712Y-76913D01*
X94192Y-69586D02*
X94389Y-69783D01*
X109291Y-74645D02*
X109712Y-74645D01*
X96555Y-69586D02*
X96751Y-69783D01*
X109295Y-74393D02*
X109291Y-74389D01*
X109295Y-74393D02*
X109712Y-74393D01*
X96948Y-69980D02*
X97145Y-70177D01*
X109293Y-74141D02*
X109291Y-74143D01*
X109293Y-74141D02*
X109712Y-74141D01*
X96948Y-69586D02*
X97145Y-69783D01*
X109293Y-73889D02*
X109291Y-73887D01*
X109293Y-73889D02*
X109712Y-73889D01*
X97342Y-69980D02*
X97539Y-70177D01*
X109295Y-73637D02*
X109291Y-73641D01*
X109295Y-73637D02*
X109712Y-73637D01*
X97736Y-69980D02*
X97933Y-70177D01*
X109291Y-73385D02*
X109712Y-73385D01*
X97342Y-69586D02*
X97539Y-69783D01*
X109293Y-76661D02*
X109291Y-76663D01*
X109712Y-76661D02*
X109293Y-76661D01*
X94586Y-69586D02*
X94783Y-69783D01*
X109293Y-76409D02*
X109712Y-76409D01*
X109293Y-76409D02*
X109291Y-76407D01*
X94980Y-69980D02*
X95177Y-70177D01*
X109712Y-76157D02*
X109295Y-76157D01*
X109295Y-76157D02*
X109291Y-76161D01*
X94980Y-69586D02*
X95177Y-69783D01*
X109291Y-75905D02*
X109712Y-75905D01*
X95374Y-69980D02*
X95570Y-70177D01*
X109295Y-75653D02*
X109712Y-75653D01*
X109295Y-75653D02*
X109291Y-75649D01*
X95374Y-69586D02*
X95570Y-69783D01*
X109293Y-75401D02*
X109291Y-75403D01*
X109293Y-75401D02*
X109712Y-75401D01*
X96161Y-69980D02*
X96358Y-70177D01*
X109293Y-75149D02*
X109291Y-75147D01*
X109293Y-75149D02*
X109712Y-75149D01*
X96161Y-69586D02*
X96358Y-69783D01*
X109297Y-74897D02*
X109291Y-74891D01*
X109297Y-74897D02*
X109712Y-74897D01*
X96555Y-69980D02*
X96751Y-70177D01*
X112106Y-77165D02*
X112492Y-77165D01*
X95374Y-69192D02*
X95570Y-69389D01*
X112110Y-76913D02*
X112106Y-76909D01*
X112492Y-76913D02*
X112110Y-76913D01*
X96161Y-69192D02*
X96358Y-69389D01*
X112106Y-74645D02*
X112492Y-74645D01*
X94980Y-68405D02*
X95177Y-68602D01*
X112110Y-74393D02*
X112106Y-74389D01*
X112110Y-74393D02*
X112492Y-74393D01*
X95767Y-68011D02*
X95964Y-68208D01*
X112108Y-74141D02*
X112106Y-74143D01*
X112108Y-74141D02*
X112492Y-74141D01*
X96161Y-68011D02*
X96358Y-68208D01*
X112108Y-73889D02*
X112106Y-73887D01*
X112108Y-73889D02*
X112492Y-73889D01*
X94586Y-68011D02*
X94783Y-68208D01*
X112112Y-73637D02*
X112106Y-73631D01*
X112112Y-73637D02*
X112492Y-73637D01*
X94980Y-68011D02*
X95177Y-68208D01*
X112492Y-73385D02*
X112106Y-73385D01*
X95374Y-68011D02*
X95570Y-68208D01*
X112108Y-76661D02*
X112106Y-76663D01*
X112108Y-76661D02*
X112492Y-76661D01*
X96948Y-69192D02*
X97145Y-69389D01*
X112108Y-76409D02*
X112106Y-76407D01*
X112108Y-76409D02*
X112492Y-76409D01*
X97342Y-69192D02*
X97539Y-69389D01*
X112110Y-76157D02*
X112106Y-76161D01*
X112110Y-76157D02*
X112492Y-76157D01*
X94586Y-68799D02*
X94783Y-68996D01*
X112106Y-75905D02*
X112492Y-75905D01*
X95374Y-68799D02*
X95570Y-68996D01*
X112110Y-75653D02*
X112106Y-75649D01*
X112110Y-75653D02*
X112492Y-75653D01*
X96161Y-68799D02*
X96358Y-68996D01*
X112108Y-75401D02*
X112106Y-75403D01*
X112108Y-75401D02*
X112492Y-75401D01*
X95374Y-68405D02*
X95570Y-68602D01*
X112108Y-75149D02*
X112106Y-75147D01*
X112108Y-75149D02*
X112492Y-75149D01*
X95767Y-68405D02*
X95964Y-68602D01*
X112110Y-74897D02*
X112106Y-74901D01*
X112110Y-74897D02*
X112492Y-74897D01*
X94586Y-68405D02*
X94783Y-68602D01*
X101269Y-71909D02*
X101771Y-71909D01*
X93405Y-68799D02*
X93602Y-68996D01*
X93405Y-69192D02*
X93602Y-69389D01*
X101417Y-72106D02*
X101771Y-72106D01*
X93011Y-67618D02*
X93208Y-67814D01*
X101417Y-72500D02*
X101771Y-72500D01*
X93011Y-68011D02*
X93208Y-68208D01*
X101269Y-72696D02*
X101771Y-72696D01*
X93799Y-68799D02*
X93996Y-68996D01*
X101771Y-72893D02*
X101417Y-72893D01*
X101269Y-73090D02*
X101771Y-73090D01*
X93799Y-69192D02*
X93996Y-69389D01*
X101417Y-73287D02*
X101771Y-73287D01*
X93799Y-69586D02*
X93996Y-69783D01*
X101771Y-73484D02*
X101269Y-73484D01*
X93799Y-69980D02*
X93996Y-70177D01*
X73188Y-65767D02*
X72677Y-65767D01*
X73710Y-65570D02*
X73188Y-65570D01*
G54D88*
X74074Y-67244D02*
X74468Y-67244D01*
X74468Y-67244D02*
X78503Y-63208D01*
X80255Y-52362D02*
X82736Y-52362D01*
X78503Y-54114D02*
X80255Y-52362D01*
X78503Y-63208D02*
X78503Y-54114D01*
X73927Y-67244D02*
X74074Y-67244D01*
G54D86*
X80236Y-52362D02*
X82736Y-52362D01*
X78474Y-54124D02*
X80236Y-52362D01*
X78474Y-63238D02*
X78474Y-54124D01*
X74468Y-67244D02*
X78474Y-63238D01*
G54D88*
X73927Y-67244D02*
X73720Y-67244D01*
X73622Y-67342D02*
X73188Y-67342D01*
X73720Y-67244D02*
X73622Y-67342D01*
X74055Y-67047D02*
X74389Y-67047D01*
X80157Y-52165D02*
X82736Y-52165D01*
X78307Y-54015D02*
X80157Y-52165D01*
X78307Y-63129D02*
X78307Y-54015D01*
X74389Y-67047D02*
X78307Y-63129D01*
X73956Y-67047D02*
X74055Y-67047D01*
X73956Y-67047D02*
X73720Y-67047D01*
X73622Y-66948D02*
X73188Y-66948D01*
X73720Y-67047D02*
X73622Y-66948D01*
X73720Y-67834D02*
X74527Y-67834D01*
X80590Y-52952D02*
X82736Y-52952D01*
X79153Y-54389D02*
X80590Y-52952D01*
X79153Y-63208D02*
X79153Y-54389D01*
X74527Y-67834D02*
X79153Y-63208D01*
X73622Y-67933D02*
X73188Y-67933D01*
X73720Y-67834D02*
X73622Y-67933D01*
X74094Y-67637D02*
X74429Y-67637D01*
X80433Y-52755D02*
X82736Y-52755D01*
X78917Y-54271D02*
X80433Y-52755D01*
X78917Y-63149D02*
X78917Y-54271D01*
X74429Y-67637D02*
X78917Y-63149D01*
X73868Y-67637D02*
X74094Y-67637D01*
X73868Y-67637D02*
X73720Y-67637D01*
X73622Y-67539D02*
X73188Y-67539D01*
X73720Y-67637D02*
X73622Y-67539D01*
X74114Y-68425D02*
X74665Y-68425D01*
X80866Y-53543D02*
X82736Y-53543D01*
X79724Y-54685D02*
X80866Y-53543D01*
X79724Y-63366D02*
X79724Y-54685D01*
X74665Y-68425D02*
X79724Y-63366D01*
X74015Y-68425D02*
X74114Y-68425D01*
X74015Y-68425D02*
X73720Y-68425D01*
X73622Y-68523D02*
X73188Y-68523D01*
X73720Y-68425D02*
X73622Y-68523D01*
X74330Y-68228D02*
X74566Y-68228D01*
X80787Y-53346D02*
X82736Y-53346D01*
X79527Y-54606D02*
X80787Y-53346D01*
X79527Y-63267D02*
X79527Y-54606D01*
X74566Y-68228D02*
X79527Y-63267D01*
X73956Y-68228D02*
X74330Y-68228D01*
X73956Y-68228D02*
X73720Y-68228D01*
X73622Y-68129D02*
X73188Y-68129D01*
X73720Y-68228D02*
X73622Y-68129D01*
X73917Y-66653D02*
X74340Y-66653D01*
X80039Y-51771D02*
X82736Y-51771D01*
X77874Y-53937D02*
X80039Y-51771D01*
X77874Y-63120D02*
X77874Y-53937D01*
X74340Y-66653D02*
X77874Y-63120D01*
X73917Y-66653D02*
X73720Y-66653D01*
X73622Y-66751D02*
X73188Y-66751D01*
X73720Y-66653D02*
X73622Y-66751D01*
X74074Y-66456D02*
X74251Y-66456D01*
X79960Y-51574D02*
X82736Y-51574D01*
X77677Y-53858D02*
X79960Y-51574D01*
X77677Y-63031D02*
X77677Y-53858D01*
X74251Y-66456D02*
X77677Y-63031D01*
X73858Y-66456D02*
X74074Y-66456D01*
X73858Y-66456D02*
X73720Y-66456D01*
X73622Y-66358D02*
X73188Y-66358D01*
X73720Y-66456D02*
X73622Y-66358D01*
G54D90*
X102500Y-77322D02*
X102500Y-77940D01*
G54D88*
X102539Y-75334D02*
X102500Y-75374D01*
X102500Y-75374D02*
X102500Y-77322D01*
X102539Y-75283D02*
X102539Y-75334D01*
G54D90*
X100913Y-79527D02*
X99940Y-79527D01*
X102500Y-77940D02*
X100913Y-79527D01*
X104137Y-78791D02*
X104137Y-79161D01*
X103090Y-77244D02*
X103090Y-77744D01*
G54D88*
X103129Y-75283D02*
X103129Y-75334D01*
X103129Y-75334D02*
X103090Y-75374D01*
X103090Y-75374D02*
X103090Y-77244D01*
G54D90*
X103090Y-77744D02*
X104137Y-78791D01*
X104137Y-79161D02*
X104511Y-79535D01*
X102303Y-77236D02*
X102303Y-77767D01*
X101330Y-78740D02*
X99940Y-78740D01*
X102303Y-77767D02*
X101330Y-78740D01*
G54D88*
X102263Y-75283D02*
X102263Y-75334D01*
X102303Y-75374D02*
X102303Y-77236D01*
X102303Y-77236D02*
X102303Y-77244D01*
X102263Y-75334D02*
X102303Y-75374D01*
G54D90*
X102893Y-77322D02*
X102893Y-77905D01*
G54D88*
X102854Y-75334D02*
X102893Y-75374D01*
X102893Y-75374D02*
X102893Y-77322D01*
X102854Y-75283D02*
X102854Y-75334D01*
G54D90*
X102893Y-77905D02*
X103728Y-78740D01*
G54D86*
X105000Y-71712D02*
X105708Y-71712D01*
X105708Y-71712D02*
X106377Y-72381D01*
X105000Y-71515D02*
X106220Y-71515D01*
X106220Y-71515D02*
X107086Y-72381D01*
X93897Y-82677D02*
X93897Y-81732D01*
X105354Y-72893D02*
X105000Y-72893D01*
X93897Y-76023D02*
X94055Y-75866D01*
X93897Y-81732D02*
X93897Y-76023D01*
X95196Y-82677D02*
X95196Y-81732D01*
X105885Y-72303D02*
X105000Y-72303D01*
X95196Y-76023D02*
X95354Y-75866D01*
X95196Y-81732D02*
X95196Y-76023D01*
G54D89*
X96594Y-78425D02*
X96594Y-76850D01*
G54D86*
X105000Y-73484D02*
X104625Y-73484D01*
X104625Y-73484D02*
X104566Y-73543D01*
X93031Y-82677D02*
X93031Y-81732D01*
X105708Y-72500D02*
X105000Y-72500D01*
X93031Y-76023D02*
X93188Y-75866D01*
X93031Y-81732D02*
X93031Y-76023D01*
X94763Y-82677D02*
X94763Y-81732D01*
X105531Y-72696D02*
X105000Y-72696D01*
X94763Y-76023D02*
X94921Y-75866D01*
X94763Y-81732D02*
X94763Y-76023D01*
G54D88*
X99763Y-37929D02*
X99763Y-37946D01*
X99763Y-36614D02*
X99763Y-37929D01*
X99763Y-37946D02*
X99728Y-38098D01*
X99728Y-38098D02*
X99653Y-38212D01*
X99653Y-38212D02*
X99535Y-38326D01*
X99535Y-38326D02*
X99417Y-38397D01*
X99417Y-38397D02*
X99291Y-38417D01*
X99291Y-38417D02*
X99133Y-38429D01*
X99133Y-38429D02*
X98960Y-38429D01*
X98960Y-38429D02*
X98803Y-38437D01*
X98803Y-38437D02*
X98629Y-38452D01*
X98629Y-38452D02*
X98456Y-38492D01*
X98456Y-38492D02*
X98303Y-38559D01*
X98303Y-38559D02*
X98157Y-38673D01*
X98157Y-38673D02*
X98062Y-38811D01*
X98062Y-38811D02*
X97976Y-38984D01*
X97976Y-38984D02*
X97940Y-39165D01*
X97940Y-39165D02*
X97913Y-39791D01*
X96901Y-53708D02*
X97224Y-53708D01*
X95868Y-53651D02*
X95925Y-53708D01*
X95925Y-53708D02*
X96901Y-53708D01*
X95866Y-53651D02*
X95868Y-53651D01*
X97224Y-53708D02*
X97377Y-53669D01*
X97913Y-51692D02*
X97913Y-52661D01*
X97610Y-53515D02*
X97484Y-53610D01*
X97484Y-53610D02*
X97377Y-53669D01*
X97704Y-53397D02*
X97610Y-53515D01*
X97795Y-53259D02*
X97704Y-53397D01*
X97858Y-53106D02*
X97795Y-53259D01*
X97881Y-52968D02*
X97858Y-53106D01*
X97905Y-52807D02*
X97881Y-52968D01*
X97913Y-52661D02*
X97905Y-52807D01*
X97913Y-51692D02*
X97913Y-39791D01*
X97913Y-39791D02*
X97913Y-39773D01*
X98110Y-40035D02*
X98110Y-39606D01*
X95866Y-53966D02*
X95872Y-53966D01*
X95925Y-53913D02*
X96897Y-53913D01*
X95872Y-53966D02*
X95925Y-53913D01*
X98106Y-52870D02*
X98110Y-52775D01*
X98110Y-51791D02*
X98110Y-40035D01*
X98110Y-52775D02*
X98110Y-51791D01*
X97452Y-53854D02*
X97562Y-53799D01*
X97562Y-53799D02*
X97677Y-53712D01*
X97677Y-53712D02*
X97779Y-53618D01*
X97779Y-53618D02*
X97893Y-53496D01*
X97893Y-53496D02*
X97968Y-53381D01*
X97968Y-53381D02*
X98039Y-53200D01*
X98039Y-53200D02*
X98082Y-53035D01*
X98082Y-53035D02*
X98106Y-52870D01*
X97212Y-53913D02*
X97330Y-53897D01*
X97330Y-53897D02*
X97452Y-53854D01*
X96897Y-53913D02*
X97212Y-53913D01*
X100019Y-37952D02*
X100019Y-36614D01*
X100003Y-38122D02*
X100019Y-37952D01*
X98110Y-39606D02*
X98137Y-39279D01*
X98137Y-39279D02*
X98149Y-39114D01*
X98149Y-39114D02*
X98204Y-38956D01*
X98204Y-38956D02*
X98295Y-38818D01*
X98295Y-38818D02*
X98401Y-38740D01*
X98401Y-38740D02*
X98562Y-38665D01*
X98562Y-38665D02*
X98704Y-38641D01*
X98704Y-38641D02*
X98905Y-38622D01*
X98905Y-38622D02*
X99122Y-38622D01*
X99122Y-38622D02*
X99267Y-38625D01*
X99267Y-38625D02*
X99397Y-38610D01*
X99397Y-38610D02*
X99539Y-38578D01*
X99539Y-38578D02*
X99685Y-38511D01*
X99685Y-38511D02*
X99822Y-38409D01*
X99822Y-38409D02*
X99913Y-38307D01*
X99913Y-38307D02*
X100003Y-38122D01*
G54D90*
X94228Y-36425D02*
X95015Y-36425D01*
X95393Y-36803D02*
X95393Y-37350D01*
X95015Y-36425D02*
X95393Y-36803D01*
G54D86*
X95236Y-51112D02*
X95393Y-50954D01*
X95236Y-51131D02*
X95236Y-51112D01*
X94291Y-51446D02*
X94448Y-51289D01*
X88639Y-47045D02*
X88641Y-47047D01*
X88228Y-47045D02*
X88639Y-47045D01*
X91594Y-47755D02*
X91594Y-47547D01*
X93031Y-51446D02*
X92874Y-51289D01*
X93346Y-52076D02*
X93188Y-51919D01*
X93031Y-51131D02*
X93031Y-50954D01*
X93188Y-51289D02*
X93346Y-51446D01*
X93346Y-51131D02*
X93346Y-50954D01*
X93503Y-51604D02*
X93346Y-51761D01*
X104744Y-36496D02*
X104972Y-36496D01*
X93818Y-51289D02*
X93661Y-51446D01*
X105838Y-36496D02*
X105629Y-36496D01*
X93818Y-51604D02*
X93661Y-51761D01*
X106771Y-36496D02*
X106803Y-36496D01*
X106771Y-36496D02*
X106614Y-36338D01*
X94133Y-51919D02*
X94291Y-52076D01*
X89464Y-52232D02*
X89464Y-52543D01*
X89401Y-52606D02*
X89401Y-52850D01*
X89464Y-52543D02*
X89401Y-52606D01*
X89622Y-52232D02*
X89622Y-52496D01*
X89767Y-52641D02*
X89767Y-52854D01*
X89622Y-52496D02*
X89767Y-52641D01*
X99358Y-37431D02*
X99358Y-37645D01*
X99358Y-37645D02*
X99360Y-37647D01*
X95393Y-53494D02*
X95236Y-53651D01*
X99507Y-36614D02*
X99507Y-37281D01*
X99507Y-37281D02*
X99358Y-37431D01*
G54D88*
X95866Y-51761D02*
X95915Y-51811D01*
X96161Y-51811D02*
X96354Y-51795D01*
X96354Y-51795D02*
X96472Y-51767D01*
X96472Y-51767D02*
X96582Y-51708D01*
X96582Y-51708D02*
X96673Y-51622D01*
X96673Y-51622D02*
X96716Y-51496D01*
X96716Y-51496D02*
X96732Y-51370D01*
X96732Y-51370D02*
X96732Y-51240D01*
X95915Y-51811D02*
X96161Y-51811D01*
X96732Y-37849D02*
X96732Y-51240D01*
X96732Y-37505D02*
X96732Y-37849D01*
X96732Y-37505D02*
X96732Y-37332D01*
G54D86*
X96653Y-36653D02*
X96614Y-36614D01*
G54D88*
X96653Y-37253D02*
X96653Y-36653D01*
X96732Y-37332D02*
X96653Y-37253D01*
X95866Y-52076D02*
X95915Y-52027D01*
X96230Y-52027D02*
X96389Y-52019D01*
X96389Y-52019D02*
X96559Y-51972D01*
X96559Y-51972D02*
X96692Y-51901D01*
X96692Y-51901D02*
X96783Y-51834D01*
X96783Y-51834D02*
X96866Y-51736D01*
X96866Y-51736D02*
X96909Y-51614D01*
X96909Y-51614D02*
X96925Y-51460D01*
X96925Y-51460D02*
X96929Y-51328D01*
X95915Y-52027D02*
X96230Y-52027D01*
X96929Y-37849D02*
X96929Y-51328D01*
X96929Y-37505D02*
X96929Y-37849D01*
X96870Y-36614D02*
X96870Y-37273D01*
X96929Y-37332D02*
X96929Y-37505D01*
X96870Y-37273D02*
X96929Y-37332D01*
X97322Y-52173D02*
X97314Y-52279D01*
X97322Y-51318D02*
X97322Y-52173D01*
X96989Y-52472D02*
X96909Y-52391D01*
X97066Y-52472D02*
X96989Y-52472D01*
X97314Y-52279D02*
X97287Y-52354D01*
X97287Y-52354D02*
X97232Y-52417D01*
X97232Y-52417D02*
X97141Y-52464D01*
X97141Y-52464D02*
X97066Y-52472D01*
X97322Y-37849D02*
X97322Y-39035D01*
X97322Y-39035D02*
X97322Y-50974D01*
X97322Y-37505D02*
X97322Y-37849D01*
X97381Y-36614D02*
X97381Y-37273D01*
X97322Y-37332D02*
X97322Y-37505D01*
X97381Y-37273D02*
X97322Y-37332D01*
X97322Y-50974D02*
X97322Y-51318D01*
X97322Y-50974D02*
X97322Y-51318D01*
X97444Y-52488D02*
X97362Y-52574D01*
X97362Y-52574D02*
X97291Y-52614D01*
X97291Y-52614D02*
X97185Y-52625D01*
X97519Y-52216D02*
X97519Y-51885D01*
X97519Y-51401D02*
X97519Y-51885D01*
X97444Y-52488D02*
X97480Y-52409D01*
X97480Y-52409D02*
X97507Y-52314D01*
X97507Y-52314D02*
X97519Y-52216D01*
X97185Y-52625D02*
X96989Y-52625D01*
X96989Y-52625D02*
X96909Y-52706D01*
X96909Y-52706D02*
X96989Y-52625D01*
X97519Y-37849D02*
X97519Y-39035D01*
X97519Y-39035D02*
X97519Y-51401D01*
X97519Y-37505D02*
X97519Y-37849D01*
X97519Y-37505D02*
X97519Y-37332D01*
G54D86*
X97598Y-36653D02*
X97637Y-36614D01*
G54D88*
X97598Y-37253D02*
X97598Y-36653D01*
X97519Y-37332D02*
X97598Y-37253D01*
X97519Y-51401D02*
X97519Y-51348D01*
X97519Y-51417D02*
X97519Y-51348D01*
G54D86*
X86992Y-38740D02*
X86687Y-38740D01*
G54D10*
X86687Y-38740D02*
X86513Y-38566D01*
G54D86*
X86992Y-38740D02*
X87340Y-38740D01*
G54D10*
X87340Y-38740D02*
X87513Y-38566D01*
G54D86*
X94133Y-52549D02*
X94291Y-52706D01*
X84905Y-38409D02*
X84671Y-38409D01*
G54D10*
X84671Y-38409D02*
X84513Y-38566D01*
X84529Y-38582D02*
X84513Y-38566D01*
G54D86*
X94606Y-53021D02*
X94763Y-52864D01*
X88513Y-38435D02*
X88326Y-38248D01*
X88326Y-38248D02*
X88169Y-38248D01*
X88513Y-38435D02*
X88513Y-38566D01*
X88513Y-38450D02*
X88513Y-38566D01*
X95236Y-53966D02*
X95393Y-53809D01*
X85885Y-38244D02*
X85712Y-38244D01*
X85513Y-38442D02*
X85513Y-38566D01*
X85712Y-38244D02*
X85513Y-38442D01*
X94763Y-53179D02*
X94606Y-53336D01*
X83866Y-38015D02*
X83724Y-38015D01*
X83513Y-38226D02*
X83513Y-38566D01*
X83724Y-38015D02*
X83513Y-38226D01*
X95767Y-54498D02*
X95866Y-54498D01*
X95551Y-54281D02*
X95767Y-54498D01*
G54D91*
X109083Y-35511D02*
X109083Y-36142D01*
X109083Y-36142D02*
X108129Y-37095D01*
X108750Y-44663D02*
X108129Y-44663D01*
X108129Y-44663D02*
X108129Y-44645D01*
X108750Y-45663D02*
X108399Y-45663D01*
X108129Y-37095D02*
X108622Y-36602D01*
X108129Y-45393D02*
X108129Y-44645D01*
X108129Y-44645D02*
X108129Y-37095D01*
X108399Y-45663D02*
X108129Y-45393D01*
G54D86*
X96161Y-66437D02*
X96358Y-66633D01*
X97736Y-68799D02*
X97933Y-68996D01*
X89842Y-59842D02*
X89468Y-59842D01*
G54D92*
X92421Y-62303D02*
X92224Y-62106D01*
G54D86*
X88110Y-65314D02*
X87844Y-65580D01*
X87844Y-65580D02*
X87844Y-65738D01*
X90255Y-66043D02*
X90452Y-66240D01*
X98248Y-59724D02*
X98346Y-59724D01*
X98346Y-59724D02*
X98543Y-59527D01*
X98129Y-66043D02*
X98326Y-66240D01*
X101260Y-53483D02*
X101697Y-53483D01*
X101260Y-53483D02*
X101259Y-53484D01*
X84862Y-62263D02*
X85000Y-62401D01*
X91830Y-64468D02*
X92027Y-64665D01*
X84862Y-62578D02*
X85000Y-62716D01*
X91830Y-64074D02*
X92027Y-64271D01*
X86889Y-69173D02*
X87047Y-69015D01*
X92618Y-67224D02*
X92814Y-67421D01*
X86889Y-68858D02*
X87047Y-68700D01*
X92618Y-66830D02*
X92814Y-67027D01*
X91437Y-62893D02*
X91633Y-63090D01*
X86889Y-62086D02*
X86751Y-61948D01*
X91437Y-62500D02*
X91633Y-62696D01*
X86574Y-62086D02*
X86437Y-61948D01*
X92618Y-64074D02*
X92814Y-64271D01*
X86889Y-62401D02*
X87037Y-62253D01*
X86574Y-63661D02*
X86437Y-63523D01*
X90255Y-64074D02*
X90452Y-64271D01*
X89862Y-64862D02*
X90059Y-65059D01*
X85314Y-63661D02*
X85511Y-63661D01*
X84685Y-62401D02*
X84488Y-62401D01*
X93011Y-63681D02*
X93208Y-63877D01*
X91437Y-63287D02*
X91633Y-63484D01*
X86574Y-64921D02*
X86437Y-64783D01*
X85511Y-64921D02*
X85314Y-64921D01*
X91437Y-65255D02*
X91633Y-65452D01*
X85511Y-62086D02*
X85314Y-62086D01*
X92224Y-62893D02*
X92421Y-63090D01*
X92618Y-63681D02*
X92814Y-63877D01*
X85000Y-62086D02*
X84862Y-61948D01*
X85314Y-62401D02*
X85177Y-62263D01*
X92224Y-63287D02*
X92421Y-63484D01*
X86574Y-62401D02*
X86407Y-62234D01*
X92224Y-64074D02*
X92421Y-64271D01*
G54D10*
X85157Y-69330D02*
X85000Y-69488D01*
X85866Y-69330D02*
X85157Y-69330D01*
G54D86*
X91830Y-66437D02*
X92027Y-66633D01*
X85314Y-69488D02*
X85531Y-69488D01*
X92224Y-66437D02*
X92421Y-66633D01*
X85157Y-69015D02*
X85000Y-69173D01*
X89862Y-65255D02*
X90059Y-65452D01*
X85531Y-67913D02*
X85314Y-67913D01*
X90255Y-67618D02*
X90452Y-67814D01*
G54D92*
X86055Y-67523D02*
X86055Y-67700D01*
X85913Y-67917D02*
X86078Y-68082D01*
X85913Y-67842D02*
X85913Y-67917D01*
X86055Y-67700D02*
X85913Y-67842D01*
X86574Y-67913D02*
X86574Y-67952D01*
X86444Y-68082D02*
X86078Y-68082D01*
X86574Y-67952D02*
X86444Y-68082D01*
G54D10*
X86289Y-67283D02*
X86289Y-67289D01*
G54D92*
X86289Y-67289D02*
X86055Y-67523D01*
G54D86*
X91437Y-66437D02*
X91633Y-66633D01*
X87598Y-69173D02*
X87204Y-69173D01*
X87204Y-69173D02*
X87421Y-69173D01*
X92224Y-66043D02*
X92421Y-66240D01*
G54D10*
X85639Y-65925D02*
X85639Y-66328D01*
X85639Y-66328D02*
X85314Y-66653D01*
G54D86*
X90255Y-65255D02*
X90452Y-65452D01*
G54D10*
X86387Y-66466D02*
X86358Y-66437D01*
X86358Y-66437D02*
X86358Y-65925D01*
X86387Y-66466D02*
X86574Y-66653D01*
G54D86*
X90649Y-66437D02*
X90846Y-66633D01*
X86417Y-69645D02*
X86574Y-69488D01*
X92224Y-65255D02*
X92421Y-65452D01*
X86968Y-69409D02*
X86889Y-69488D01*
X87627Y-69409D02*
X87864Y-69173D01*
X86968Y-69409D02*
X87627Y-69409D01*
X90649Y-64468D02*
X90846Y-64665D01*
X86574Y-69173D02*
X86732Y-69015D01*
X92224Y-65649D02*
X92421Y-65846D01*
X85314Y-69173D02*
X85531Y-69173D01*
X92224Y-64862D02*
X92421Y-65059D01*
X98129Y-66437D02*
X98326Y-66633D01*
X98129Y-66830D02*
X98326Y-67027D01*
X95374Y-64468D02*
X95570Y-64665D01*
X86220Y-50059D02*
X86220Y-49635D01*
X94586Y-64468D02*
X94783Y-64665D01*
X85826Y-50059D02*
X85826Y-49635D01*
X74547Y-64980D02*
X74318Y-64980D01*
X95374Y-64074D02*
X95570Y-64271D01*
X96161Y-61712D02*
X96358Y-61909D01*
X87559Y-52362D02*
X87145Y-52362D01*
X87559Y-52362D02*
X87568Y-52372D01*
X96161Y-62106D02*
X96358Y-62303D01*
X87559Y-52165D02*
X87568Y-52155D01*
X87145Y-52165D02*
X87559Y-52165D01*
X83602Y-48464D02*
X83602Y-48877D01*
X84214Y-49283D02*
X84448Y-49517D01*
X84007Y-49283D02*
X84214Y-49283D01*
X83602Y-48877D02*
X84007Y-49283D01*
X84448Y-50059D02*
X84448Y-49517D01*
X95767Y-63287D02*
X95964Y-63484D01*
X84090Y-48562D02*
X84090Y-48897D01*
X84645Y-49452D02*
X84645Y-49635D01*
X84090Y-48897D02*
X84645Y-49452D01*
X94980Y-62500D02*
X95177Y-62696D01*
X84645Y-50059D02*
X84645Y-49635D01*
X94192Y-64468D02*
X94389Y-64665D01*
X85629Y-50059D02*
X85629Y-49517D01*
X97440Y-58149D02*
X97500Y-58208D01*
X97066Y-58149D02*
X97440Y-58149D01*
X97066Y-58417D02*
X97066Y-58149D01*
X97066Y-58149D02*
X97066Y-57921D01*
X97066Y-57921D02*
X97059Y-57913D01*
X111230Y-49163D02*
X111023Y-49370D01*
X111250Y-49163D02*
X111230Y-49163D01*
X99295Y-51514D02*
X99763Y-51514D01*
X99763Y-51514D02*
X99763Y-51515D01*
X97330Y-57342D02*
X97330Y-57027D01*
X97330Y-56803D02*
X97342Y-56791D01*
X97330Y-56803D02*
X97330Y-57027D01*
X111496Y-56417D02*
X111250Y-56663D01*
X102184Y-51515D02*
X101697Y-51515D01*
X102184Y-51515D02*
X102185Y-51515D01*
G54D87*
X106885Y-48385D02*
X106618Y-48385D01*
X106618Y-48385D02*
X106614Y-48389D01*
X108503Y-48385D02*
X106885Y-48385D01*
G54D86*
X106885Y-48385D02*
X106877Y-48385D01*
X95767Y-65255D02*
X95964Y-65452D01*
G54D87*
X108726Y-48163D02*
X108503Y-48385D01*
X108750Y-48163D02*
X108726Y-48163D01*
X106929Y-47874D02*
X106602Y-47874D01*
X108503Y-47874D02*
X106929Y-47874D01*
X106929Y-47874D02*
X106725Y-47874D01*
X108714Y-47663D02*
X108503Y-47874D01*
X108750Y-47663D02*
X108714Y-47663D01*
G54D86*
X95767Y-65649D02*
X95964Y-65846D01*
X93799Y-68405D02*
X93996Y-68602D01*
G54D10*
X89401Y-53220D02*
X89401Y-55783D01*
X89401Y-56161D02*
X89401Y-55783D01*
X94586Y-61547D02*
X94586Y-61712D01*
X93204Y-60165D02*
X91858Y-60165D01*
X94586Y-61547D02*
X93204Y-60165D01*
X91236Y-60165D02*
X91858Y-60165D01*
G54D86*
X94586Y-61712D02*
X94783Y-61909D01*
G54D10*
X98188Y-61129D02*
X98555Y-61129D01*
X89767Y-53224D02*
X89767Y-55803D01*
X89767Y-56240D02*
X89767Y-55803D01*
X98188Y-61129D02*
X94377Y-61129D01*
X93185Y-59937D02*
X91862Y-59937D01*
X94377Y-61129D02*
X93185Y-59937D01*
X91232Y-59937D02*
X91862Y-59937D01*
G54D86*
X94586Y-62106D02*
X94783Y-62303D01*
X94586Y-63287D02*
X94783Y-63484D01*
X94586Y-63681D02*
X94783Y-63877D01*
X96161Y-68405D02*
X96358Y-68602D01*
X95767Y-63681D02*
X95964Y-63877D01*
X91830Y-68405D02*
X92027Y-68602D01*
X92224Y-63681D02*
X92421Y-63877D01*
X95236Y-52076D02*
X95236Y-52074D01*
X95236Y-52074D02*
X95078Y-51917D01*
X94606Y-52391D02*
X94448Y-52234D01*
X94921Y-51131D02*
X94921Y-50954D01*
X94921Y-51761D02*
X95078Y-51604D01*
X94606Y-50954D02*
X94606Y-51131D01*
X97342Y-62106D02*
X97539Y-62303D01*
X93976Y-51446D02*
X94133Y-51289D01*
X95374Y-66830D02*
X95570Y-67027D01*
X95374Y-67224D02*
X95570Y-67421D01*
X93976Y-51761D02*
X94133Y-51604D01*
X94291Y-51761D02*
X94448Y-51604D01*
X95767Y-66437D02*
X95964Y-66633D01*
X94921Y-51446D02*
X95078Y-51289D01*
X94448Y-51919D02*
X94606Y-52076D01*
X93799Y-62106D02*
X93996Y-62303D01*
X94291Y-52391D02*
X94133Y-52234D01*
X94980Y-62893D02*
X95177Y-63090D01*
X88228Y-47545D02*
X87545Y-47545D01*
X87401Y-47401D02*
X87401Y-47066D01*
X87545Y-47545D02*
X87401Y-47401D01*
X95767Y-67224D02*
X95964Y-67421D01*
X88635Y-47545D02*
X88641Y-47539D01*
X88228Y-47545D02*
X88635Y-47545D01*
X95236Y-51446D02*
X95393Y-51289D01*
X88832Y-43582D02*
X88832Y-44159D01*
X87401Y-44842D02*
X87401Y-47066D01*
X87755Y-44488D02*
X87401Y-44842D01*
X88503Y-44488D02*
X87755Y-44488D01*
X88832Y-44159D02*
X88503Y-44488D01*
X87702Y-47545D02*
X88228Y-47545D01*
X87401Y-47066D02*
X87401Y-47244D01*
X89464Y-51523D02*
X89464Y-48960D01*
X89464Y-48960D02*
X89881Y-48543D01*
G54D92*
X89881Y-48543D02*
X89883Y-48545D01*
G54D86*
X95767Y-67618D02*
X95964Y-67814D01*
X94921Y-52391D02*
X94763Y-52234D01*
X87832Y-45708D02*
X87832Y-45903D01*
X89883Y-48545D02*
X90354Y-48545D01*
X89448Y-48110D02*
X89883Y-48545D01*
X89448Y-47519D02*
X89448Y-48110D01*
X87832Y-45903D02*
X89448Y-47519D01*
X89645Y-50767D02*
X89645Y-51031D01*
X89622Y-51055D02*
X89622Y-51523D01*
X89645Y-51031D02*
X89622Y-51055D01*
X91220Y-48043D02*
X90356Y-48043D01*
X90356Y-48043D02*
X90354Y-48045D01*
X96161Y-65649D02*
X96358Y-65846D01*
X94763Y-51919D02*
X94921Y-52076D01*
X89645Y-48041D02*
X90350Y-48041D01*
X90350Y-48041D02*
X90354Y-48045D01*
X89645Y-47706D02*
X89645Y-48041D01*
X88332Y-45708D02*
X88332Y-45931D01*
X89645Y-47244D02*
X89645Y-47706D01*
X89645Y-47706D02*
X89645Y-47795D01*
X88332Y-45931D02*
X89645Y-47244D01*
G54D85*
X91303Y-54547D02*
X91303Y-55673D01*
X91303Y-55673D02*
X92322Y-56692D01*
X91614Y-54665D02*
X91047Y-54665D01*
X91047Y-54665D02*
X91047Y-54685D01*
G54D91*
X91047Y-54291D02*
X91047Y-54685D01*
X91047Y-54685D02*
X91047Y-55653D01*
X91047Y-55653D02*
X92204Y-56811D01*
X92204Y-56811D02*
X93228Y-56811D01*
X93228Y-56811D02*
X93819Y-56220D01*
X93819Y-56220D02*
X93819Y-55944D01*
G54D85*
X92322Y-56692D02*
X93208Y-56692D01*
X93208Y-56692D02*
X93819Y-56082D01*
X93819Y-56082D02*
X93819Y-55944D01*
X91614Y-54547D02*
X91303Y-54547D01*
X91303Y-54547D02*
X91047Y-54291D01*
X91047Y-54291D02*
X91047Y-54125D01*
G54D87*
X93661Y-54281D02*
X93661Y-54576D01*
X92716Y-53651D02*
X92273Y-53651D01*
G54D85*
X91614Y-54665D02*
X91614Y-54665D01*
G54D86*
X93819Y-55944D02*
X93819Y-55314D01*
X93819Y-55314D02*
X94074Y-55059D01*
G54D87*
X93661Y-54576D02*
X94074Y-54990D01*
X94074Y-54990D02*
X94074Y-55059D01*
X91968Y-53956D02*
X91889Y-53956D01*
X91889Y-53956D02*
X91614Y-54232D01*
X91614Y-54232D02*
X91614Y-54291D01*
X91614Y-54291D02*
X91614Y-54409D01*
X91614Y-54409D02*
X91614Y-54547D01*
X91614Y-54547D02*
X91614Y-54665D01*
X92273Y-53651D02*
X91968Y-53956D01*
G54D86*
X94606Y-51761D02*
X94763Y-51604D01*
G54D85*
X94291Y-50019D02*
X94291Y-49606D01*
X95039Y-49448D02*
X95196Y-49606D01*
X94448Y-49448D02*
X95039Y-49448D01*
X94291Y-49606D02*
X94448Y-49448D01*
X94291Y-50344D02*
X94291Y-50019D01*
G54D89*
X95566Y-49614D02*
X95165Y-49614D01*
X95165Y-49614D02*
X95157Y-49606D01*
G54D86*
X94606Y-53966D02*
X94763Y-53809D01*
G54D87*
X95689Y-50039D02*
X95689Y-49736D01*
X95689Y-49736D02*
X95566Y-49614D01*
G54D86*
X95393Y-54124D02*
X95236Y-54281D01*
G54D87*
X95689Y-50993D02*
X95551Y-51131D01*
X94291Y-50344D02*
X94291Y-51131D01*
X94291Y-51131D02*
X94291Y-51131D01*
X96151Y-54488D02*
X96149Y-54488D01*
G54D89*
X95689Y-50039D02*
X95689Y-50344D01*
G54D87*
X95689Y-50344D02*
X95689Y-50993D01*
G54D85*
X93346Y-50334D02*
X93090Y-50334D01*
X90984Y-52076D02*
X90984Y-51200D01*
X96417Y-54696D02*
X96417Y-55058D01*
X96417Y-55058D02*
X96417Y-55059D01*
X96417Y-54696D02*
X96417Y-54891D01*
X96724Y-55059D02*
X96417Y-55059D01*
X96417Y-55059D02*
X96151Y-55059D01*
X96417Y-55059D02*
X96417Y-55059D01*
G54D89*
X93346Y-49763D02*
X93346Y-49763D01*
X93346Y-49763D02*
X93346Y-50000D01*
G54D85*
X93336Y-50344D02*
X93346Y-50334D01*
G54D89*
X93346Y-50334D02*
X93346Y-50000D01*
X93661Y-51131D02*
X93661Y-50846D01*
X93661Y-50846D02*
X93346Y-50531D01*
X93346Y-50531D02*
X93346Y-50334D01*
G54D86*
X94606Y-53641D02*
X94448Y-53484D01*
X94606Y-53651D02*
X94606Y-53641D01*
X95393Y-51604D02*
X95236Y-51761D01*
X95551Y-53966D02*
X95708Y-54124D01*
G54D87*
X94291Y-54281D02*
X94291Y-54389D01*
X93346Y-54281D02*
X93346Y-54448D01*
X92716Y-53021D02*
X92411Y-53021D01*
G54D86*
X95708Y-54124D02*
X96013Y-54124D01*
G54D87*
X94291Y-54389D02*
X94665Y-54763D01*
X92411Y-53021D02*
X92027Y-53405D01*
G54D86*
X96013Y-54124D02*
X96181Y-54291D01*
G54D87*
X94665Y-54763D02*
X94891Y-54763D01*
G54D89*
X96181Y-54291D02*
X96417Y-54291D01*
G54D85*
X96417Y-54291D02*
X96417Y-54696D01*
X95117Y-55059D02*
X95117Y-55147D01*
X96151Y-55059D02*
X96151Y-55059D01*
X96033Y-55059D02*
X96151Y-55059D01*
X95117Y-55147D02*
X95226Y-55255D01*
X95226Y-55255D02*
X95836Y-55255D01*
X95836Y-55255D02*
X96033Y-55059D01*
G54D89*
X93356Y-55817D02*
X93484Y-55944D01*
X92726Y-55817D02*
X93356Y-55817D01*
X97145Y-54291D02*
X97696Y-54291D01*
G54D85*
X96417Y-54291D02*
X97145Y-54291D01*
G54D89*
X96151Y-55059D02*
X96249Y-55059D01*
G54D87*
X95117Y-54989D02*
X95117Y-55059D01*
X94891Y-54763D02*
X95117Y-54989D01*
X92726Y-55068D02*
X92726Y-55816D01*
X92726Y-55816D02*
X92726Y-55817D01*
X93346Y-54448D02*
X92726Y-55068D01*
G54D86*
X90984Y-52076D02*
X91781Y-52076D01*
X91781Y-52076D02*
X91830Y-52027D01*
G54D85*
X90984Y-52234D02*
X90984Y-52076D01*
X91102Y-53130D02*
X91102Y-52539D01*
X90984Y-52421D02*
X90984Y-52234D01*
X90984Y-52234D02*
X90984Y-52057D01*
X91102Y-52539D02*
X90984Y-52421D01*
G54D87*
X91830Y-53405D02*
X91830Y-53405D01*
X91121Y-53149D02*
X91102Y-53130D01*
X91574Y-53149D02*
X91121Y-53149D01*
X91830Y-53405D02*
X91574Y-53149D01*
X92027Y-53405D02*
X91830Y-53405D01*
G54D89*
X91830Y-52027D02*
X91830Y-52382D01*
G54D87*
X92716Y-52391D02*
X91840Y-52391D01*
X91840Y-52391D02*
X91830Y-52382D01*
G54D86*
X89498Y-74458D02*
X89891Y-74458D01*
X89891Y-74458D02*
X89921Y-74429D01*
G54D89*
X91185Y-35811D02*
X91181Y-35807D01*
X91525Y-35811D02*
X91185Y-35811D01*
X91846Y-35811D02*
X91850Y-35807D01*
X91525Y-35811D02*
X91846Y-35811D01*
X90521Y-35811D02*
X90842Y-35811D01*
X90842Y-35811D02*
X90846Y-35807D01*
X90521Y-35811D02*
X90181Y-35811D01*
X90181Y-35811D02*
X90177Y-35807D01*
X89177Y-35811D02*
X89173Y-35807D01*
X89517Y-35811D02*
X89177Y-35811D01*
X89838Y-35811D02*
X89842Y-35807D01*
X89517Y-35811D02*
X89838Y-35811D01*
X88513Y-35811D02*
X88834Y-35811D01*
X88834Y-35811D02*
X88838Y-35807D01*
X88513Y-35811D02*
X88173Y-35811D01*
X88173Y-35811D02*
X88169Y-35807D01*
X87169Y-35811D02*
X87165Y-35807D01*
X87509Y-35811D02*
X87169Y-35811D01*
X87830Y-35811D02*
X87834Y-35807D01*
X87509Y-35811D02*
X87830Y-35811D01*
X86185Y-35811D02*
X86181Y-35807D01*
X86525Y-35811D02*
X86185Y-35811D01*
X86846Y-35811D02*
X86850Y-35807D01*
X86525Y-35811D02*
X86846Y-35811D01*
X85521Y-35811D02*
X85842Y-35811D01*
X85842Y-35811D02*
X85846Y-35807D01*
X85521Y-35811D02*
X85181Y-35811D01*
X85181Y-35811D02*
X85177Y-35807D01*
X84177Y-35811D02*
X84173Y-35807D01*
X84517Y-35811D02*
X84177Y-35811D01*
X84838Y-35811D02*
X84842Y-35807D01*
X84517Y-35811D02*
X84838Y-35811D01*
X83513Y-35811D02*
X83834Y-35811D01*
X83834Y-35811D02*
X83838Y-35807D01*
X83513Y-35811D02*
X83173Y-35811D01*
X83173Y-35811D02*
X83169Y-35807D01*
G54D87*
X99295Y-45017D02*
X98859Y-45017D01*
X98859Y-45017D02*
X98858Y-45019D01*
G54D89*
X97923Y-71978D02*
X97755Y-71811D01*
X97755Y-71811D02*
X97637Y-71811D01*
X82675Y-72364D02*
X82329Y-72364D01*
X82675Y-72364D02*
X82677Y-72362D01*
G54D93*
X92322Y-79635D02*
X92322Y-79261D01*
X92322Y-79261D02*
X92155Y-79094D01*
X92155Y-79094D02*
X92614Y-79094D01*
X92423Y-79635D02*
X92425Y-79633D01*
X92423Y-79635D02*
X92322Y-79635D01*
G54D89*
X93464Y-82677D02*
X93464Y-83169D01*
X93464Y-82677D02*
X93464Y-82165D01*
G54D93*
X92027Y-79635D02*
X92027Y-79222D01*
X92027Y-79222D02*
X92155Y-79094D01*
G54D85*
X76625Y-48897D02*
X76220Y-48897D01*
X76220Y-48897D02*
X76062Y-49055D01*
G54D89*
X103027Y-61964D02*
X102795Y-61964D01*
X95196Y-48897D02*
X95551Y-48897D01*
X93976Y-51131D02*
X93976Y-50354D01*
X93976Y-50354D02*
X93996Y-50334D01*
X93700Y-50334D02*
X93996Y-50334D01*
X93700Y-50000D02*
X93700Y-50334D01*
G54D86*
X89307Y-52232D02*
X89307Y-52001D01*
X89261Y-51956D02*
X89188Y-51956D01*
X89307Y-52001D02*
X89261Y-51956D01*
X89307Y-52232D02*
X89102Y-52232D01*
X89102Y-52232D02*
X89094Y-52224D01*
G54D89*
X92726Y-56171D02*
X92627Y-56269D01*
X92627Y-56269D02*
X92627Y-56397D01*
X92726Y-56171D02*
X92726Y-56171D01*
X97145Y-54645D02*
X97145Y-54862D01*
X82329Y-72364D02*
X82329Y-71864D01*
X82329Y-72864D02*
X82329Y-72364D01*
X82329Y-73364D02*
X82329Y-72864D01*
X82329Y-73364D02*
X82329Y-73654D01*
X82329Y-73654D02*
X82322Y-73661D01*
G54D86*
X84645Y-54893D02*
X84645Y-55165D01*
X84645Y-54468D02*
X84645Y-54893D01*
X84645Y-55165D02*
X84594Y-55216D01*
G54D89*
X71377Y-59015D02*
X71377Y-58622D01*
X71377Y-59685D02*
X71377Y-59015D01*
X71584Y-58415D02*
X71653Y-58415D01*
X71377Y-58622D02*
X71584Y-58415D01*
X71653Y-57253D02*
X71653Y-57637D01*
X71653Y-58415D02*
X72194Y-58415D01*
X72194Y-58415D02*
X72204Y-58425D01*
X71653Y-58415D02*
X71072Y-58415D01*
X71072Y-58415D02*
X71062Y-58425D01*
X71062Y-57834D02*
X71062Y-57519D01*
X71062Y-57834D02*
X71062Y-58149D01*
X71062Y-57834D02*
X71377Y-57834D01*
X95389Y-72811D02*
X95389Y-72346D01*
X95389Y-72346D02*
X95393Y-72342D01*
X70649Y-49940D02*
X70649Y-49625D01*
X71281Y-50565D02*
X71281Y-50864D01*
X71281Y-50864D02*
X71279Y-50866D01*
G54D86*
X82736Y-53740D02*
X82736Y-53917D01*
G54D93*
X97779Y-82507D02*
X97779Y-82511D01*
G54D87*
X102795Y-61488D02*
X102795Y-61732D01*
G54D89*
X102795Y-61488D02*
X102795Y-61964D01*
X102795Y-61964D02*
X102795Y-62157D01*
G54D87*
X102795Y-62157D02*
X102795Y-62157D01*
G54D89*
X102795Y-60885D02*
X102795Y-61488D01*
X102795Y-60196D02*
X102795Y-60885D01*
X81283Y-38115D02*
X81283Y-37846D01*
X81771Y-38197D02*
X81771Y-37933D01*
X81771Y-37933D02*
X81775Y-37929D01*
X102188Y-36728D02*
X102188Y-36141D01*
G54D93*
X96732Y-79379D02*
X96399Y-79379D01*
X96399Y-79379D02*
X96389Y-79389D01*
X96732Y-79379D02*
X96732Y-79881D01*
X96594Y-82627D02*
X96594Y-82165D01*
X96594Y-82627D02*
X97127Y-82627D01*
X97127Y-82627D02*
X97133Y-82622D01*
X92125Y-82627D02*
X91718Y-82627D01*
X91718Y-82627D02*
X91708Y-82618D01*
X92125Y-82627D02*
X92125Y-82169D01*
X92027Y-79635D02*
X92027Y-80196D01*
X92027Y-80196D02*
X92035Y-80204D01*
X92027Y-79635D02*
X92322Y-79635D01*
G54D86*
X86330Y-67598D02*
X86574Y-67598D01*
G54D89*
X88326Y-67598D02*
X88543Y-67598D01*
G54D85*
X88326Y-68228D02*
X88326Y-68799D01*
X88326Y-68799D02*
X88267Y-68858D01*
X88326Y-66968D02*
X88326Y-67598D01*
X90338Y-54291D02*
X90094Y-54291D01*
X90094Y-54291D02*
X90031Y-54228D01*
G54D89*
X97696Y-54645D02*
X97696Y-54862D01*
G54D90*
X97196Y-72811D02*
X96984Y-72811D01*
X96984Y-72811D02*
X96984Y-72811D01*
X96322Y-72811D02*
X96496Y-72811D01*
X96496Y-72811D02*
X96531Y-72846D01*
X91102Y-53484D02*
X91165Y-53484D01*
X91165Y-53484D02*
X91244Y-53405D01*
X91830Y-53051D02*
X91996Y-53051D01*
X91996Y-53051D02*
X92051Y-53106D01*
G54D87*
X87007Y-49267D02*
X87007Y-49051D01*
X87007Y-49051D02*
X87007Y-49051D01*
G54D85*
X83023Y-49255D02*
X83023Y-49496D01*
X83023Y-49496D02*
X83027Y-49500D01*
X84787Y-48279D02*
X84787Y-48062D01*
X84787Y-48062D02*
X84779Y-48055D01*
G54D86*
X84055Y-54468D02*
X84055Y-54893D01*
X84251Y-54468D02*
X84251Y-54893D01*
X84448Y-54468D02*
X84448Y-54893D01*
X84842Y-54468D02*
X84842Y-54889D01*
X85039Y-54468D02*
X85039Y-54893D01*
X85236Y-54468D02*
X85236Y-54893D01*
X85433Y-54468D02*
X85433Y-54893D01*
X85629Y-54468D02*
X85629Y-54893D01*
X85826Y-54468D02*
X85826Y-54897D01*
X86023Y-54468D02*
X86023Y-54893D01*
X86220Y-54468D02*
X86220Y-54893D01*
X103177Y-69322D02*
X103228Y-69322D01*
X105433Y-69212D02*
X105429Y-69212D01*
X89862Y-65649D02*
X90059Y-65846D01*
X90255Y-65649D02*
X90452Y-65846D01*
X84055Y-50059D02*
X84055Y-49517D01*
X92224Y-61712D02*
X92421Y-61909D01*
X89862Y-66043D02*
X90059Y-66240D01*
G54D87*
X105354Y-45925D02*
X105098Y-45925D01*
X105098Y-45925D02*
X104940Y-45767D01*
G54D89*
X98860Y-48068D02*
X98858Y-48070D01*
X99295Y-48068D02*
X98860Y-48068D01*
G54D87*
X101697Y-45019D02*
X102145Y-45019D01*
X102145Y-45019D02*
X102165Y-45039D01*
G54D89*
X104409Y-35551D02*
X104409Y-36003D01*
X104409Y-36003D02*
X104429Y-36023D01*
X102499Y-35748D02*
X102499Y-35322D01*
X102499Y-35322D02*
X102507Y-35314D01*
X102507Y-35314D02*
X102755Y-35314D01*
X99251Y-36377D02*
X99055Y-36377D01*
X99251Y-36377D02*
X99251Y-36811D01*
X99251Y-36377D02*
X99251Y-35944D01*
X97125Y-36377D02*
X97125Y-35944D01*
X76389Y-70236D02*
X76161Y-70236D01*
X76389Y-68937D02*
X76161Y-68937D01*
G54D85*
X76389Y-70236D02*
X76389Y-69803D01*
X76389Y-69803D02*
X76389Y-69370D01*
X76389Y-69370D02*
X76389Y-68937D01*
G54D87*
X94192Y-62500D02*
X94389Y-62696D01*
G54D89*
X100492Y-55137D02*
X100492Y-55570D01*
X100492Y-55137D02*
X99763Y-55137D01*
X99763Y-55137D02*
X99763Y-55137D01*
X100492Y-55137D02*
X101220Y-55137D01*
X101220Y-55137D02*
X101220Y-55137D01*
G54D87*
X72677Y-68326D02*
X73188Y-68326D01*
X72677Y-67736D02*
X73188Y-67736D01*
X72677Y-67145D02*
X73188Y-67145D01*
X72677Y-66555D02*
X73188Y-66555D01*
G54D89*
X100492Y-43365D02*
X100492Y-42933D01*
X100492Y-43365D02*
X99763Y-43365D01*
X99763Y-43365D02*
X99763Y-43366D01*
X100492Y-43365D02*
X101220Y-43365D01*
X101220Y-43365D02*
X101220Y-43366D01*
X82795Y-66704D02*
X82787Y-66704D01*
X82787Y-66704D02*
X82618Y-66535D01*
G54D87*
X99295Y-52794D02*
X99733Y-52794D01*
X99733Y-52794D02*
X99734Y-52795D01*
X99295Y-52794D02*
X98858Y-52794D01*
X98858Y-52794D02*
X98858Y-52795D01*
G54D89*
X91220Y-48413D02*
X91220Y-48641D01*
X88484Y-79962D02*
X88484Y-79704D01*
X86574Y-80393D02*
X86259Y-80393D01*
X95679Y-71742D02*
X95462Y-71742D01*
X97923Y-71978D02*
X97923Y-72047D01*
X109712Y-72881D02*
X110086Y-72881D01*
X110086Y-72881D02*
X110088Y-72883D01*
X109712Y-72881D02*
X109293Y-72881D01*
X109293Y-72881D02*
X109291Y-72883D01*
X102539Y-67519D02*
X102539Y-67277D01*
X102539Y-67277D02*
X102402Y-67139D01*
X106988Y-35364D02*
X107283Y-35364D01*
X107283Y-35364D02*
X107283Y-35364D01*
X106988Y-35364D02*
X106574Y-35364D01*
X106574Y-35364D02*
X106574Y-35364D01*
X106574Y-35364D02*
X106161Y-35364D01*
X106574Y-35364D02*
X106574Y-35364D01*
X106161Y-35364D02*
X105757Y-35364D01*
X105757Y-35364D02*
X105757Y-35364D01*
X105757Y-35364D02*
X105354Y-35364D01*
X105757Y-35364D02*
X105757Y-35364D01*
G54D86*
X103484Y-70984D02*
X103484Y-71338D01*
X103484Y-70984D02*
X103484Y-70629D01*
X103090Y-70984D02*
X103090Y-70629D01*
X103090Y-70984D02*
X103090Y-71338D01*
G54D88*
X91092Y-74537D02*
X90984Y-74429D01*
G54D85*
X102893Y-67933D02*
X102893Y-68622D01*
X108307Y-58976D02*
X108750Y-58976D01*
G54D87*
X99762Y-46592D02*
X99822Y-46653D01*
G54D89*
X84685Y-70118D02*
X84685Y-69911D01*
G54D87*
X85314Y-68858D02*
X85531Y-68858D01*
G54D86*
X87204Y-70433D02*
X87421Y-70433D01*
X85314Y-68858D02*
X85157Y-68700D01*
X85314Y-67598D02*
X85157Y-67755D01*
X85157Y-67440D02*
X85314Y-67598D01*
X85314Y-66338D02*
X85157Y-66496D01*
G54D89*
X79202Y-70118D02*
X79202Y-70118D01*
X78824Y-70118D02*
X79202Y-70118D01*
X78824Y-70118D02*
X78445Y-70118D01*
X78445Y-70118D02*
X78444Y-70118D01*
X82824Y-70118D02*
X82824Y-70875D01*
X82824Y-70118D02*
X83198Y-70118D01*
X83198Y-70118D02*
X83198Y-70118D01*
G54D86*
X86574Y-68858D02*
X86732Y-68700D01*
X86732Y-68700D02*
X86889Y-68543D01*
X86889Y-67913D02*
X86574Y-67598D01*
X86574Y-67598D02*
X86732Y-67440D01*
X86732Y-67440D02*
X86889Y-67283D01*
X86889Y-66653D02*
X86732Y-66496D01*
X86732Y-66496D02*
X86574Y-66338D01*
X85000Y-68543D02*
X85314Y-68858D01*
X85157Y-67755D02*
X85000Y-67913D01*
X85000Y-67283D02*
X85157Y-67440D01*
X85157Y-66496D02*
X85000Y-66653D01*
X86712Y-62854D02*
X86751Y-62893D01*
X85334Y-65236D02*
X85511Y-65413D01*
X85314Y-65236D02*
X85334Y-65236D01*
X86751Y-62893D02*
X86889Y-63031D01*
X86889Y-63661D02*
X86751Y-63523D01*
X86889Y-64921D02*
X86751Y-64783D01*
X85000Y-64921D02*
X85137Y-65059D01*
X85000Y-64291D02*
X85137Y-64153D01*
X85314Y-63976D02*
X85137Y-63799D01*
X85137Y-63799D02*
X85000Y-63661D01*
X85000Y-63031D02*
X85314Y-62716D01*
X85314Y-62716D02*
X85511Y-62716D01*
G54D87*
X86220Y-63976D02*
X86023Y-63779D01*
X86574Y-63976D02*
X86220Y-63976D01*
G54D86*
X87204Y-61456D02*
X87342Y-61318D01*
X86574Y-65265D02*
X86427Y-65413D01*
X86574Y-65236D02*
X86574Y-65265D01*
X86574Y-62716D02*
X86437Y-62854D01*
X86574Y-62716D02*
X86712Y-62854D01*
X86889Y-64291D02*
X86574Y-63976D01*
X84685Y-61141D02*
X84488Y-61141D01*
G54D87*
X101697Y-52794D02*
X101260Y-52794D01*
X101260Y-52794D02*
X101259Y-52795D01*
G54D86*
X101697Y-53286D02*
X102135Y-53286D01*
X102135Y-53286D02*
X102135Y-53287D01*
X101697Y-46594D02*
X101299Y-46594D01*
X101299Y-46594D02*
X101259Y-46555D01*
G54D87*
X101697Y-45019D02*
X101298Y-45019D01*
X101298Y-45019D02*
X101259Y-45059D01*
G54D89*
X101697Y-45707D02*
X101260Y-45707D01*
X101260Y-45707D02*
X101259Y-45708D01*
X101697Y-45707D02*
X102144Y-45707D01*
X102144Y-45707D02*
X102145Y-45708D01*
X101697Y-46003D02*
X101259Y-46003D01*
X101259Y-46003D02*
X101259Y-46003D01*
G54D87*
X101697Y-47578D02*
X101299Y-47578D01*
X101299Y-47578D02*
X101102Y-47381D01*
X101697Y-48069D02*
X102107Y-48069D01*
X102107Y-48069D02*
X102185Y-47992D01*
X101697Y-48069D02*
X101318Y-48069D01*
X101318Y-48069D02*
X101240Y-47992D01*
X101697Y-48956D02*
X101043Y-48956D01*
X101043Y-48956D02*
X101043Y-48956D01*
X101697Y-51318D02*
X102313Y-51318D01*
X102313Y-51318D02*
X102490Y-51496D01*
X101697Y-49940D02*
X101259Y-49940D01*
X101259Y-49940D02*
X101259Y-49940D01*
X101697Y-50432D02*
X101259Y-50432D01*
X101259Y-50432D02*
X101259Y-50433D01*
G54D86*
X101697Y-51908D02*
X102184Y-51908D01*
X102184Y-51908D02*
X102185Y-51909D01*
G54D87*
X99295Y-46001D02*
X99295Y-45705D01*
G54D89*
X99822Y-45708D02*
X99297Y-45708D01*
X99297Y-45708D02*
X99295Y-45705D01*
G54D87*
X99295Y-46592D02*
X99762Y-46592D01*
G54D90*
X99295Y-47576D02*
X98860Y-47576D01*
X98860Y-47576D02*
X98858Y-47578D01*
G54D89*
X99295Y-48068D02*
X99732Y-48068D01*
G54D86*
X99732Y-48068D02*
X99734Y-48070D01*
G54D89*
X99295Y-50431D02*
X98859Y-50431D01*
X98859Y-50431D02*
X98858Y-50433D01*
X99295Y-50431D02*
X99762Y-50431D01*
X99762Y-50431D02*
X99763Y-50433D01*
G54D87*
X99295Y-49939D02*
X98859Y-49939D01*
X98859Y-49939D02*
X98858Y-49940D01*
X99295Y-51711D02*
X99625Y-51711D01*
X99655Y-51742D02*
X99763Y-51742D01*
X99625Y-51711D02*
X99655Y-51742D01*
X99295Y-51711D02*
X98858Y-51711D01*
G54D86*
X98858Y-51711D02*
X98858Y-51712D01*
X99295Y-51318D02*
X98858Y-51318D01*
X98858Y-51318D02*
X98858Y-51318D01*
G54D89*
X108750Y-62663D02*
X108750Y-62667D01*
X108750Y-62667D02*
X108996Y-62913D01*
X109250Y-62163D02*
X109250Y-62167D01*
X109250Y-62167D02*
X109015Y-62401D01*
X109250Y-61663D02*
X109250Y-61675D01*
X109250Y-61675D02*
X109015Y-61909D01*
X108750Y-61163D02*
X108750Y-61161D01*
X108750Y-61161D02*
X108996Y-60915D01*
X108996Y-60413D02*
X108996Y-60417D01*
X109246Y-60163D02*
X108996Y-60413D01*
X109250Y-60163D02*
X109246Y-60163D01*
X108996Y-60417D02*
X108750Y-60663D01*
X109250Y-59663D02*
X109250Y-60163D01*
G54D85*
X108750Y-58663D02*
X108750Y-58976D01*
G54D89*
X108750Y-58976D02*
X108750Y-59163D01*
X108750Y-57163D02*
X108750Y-57155D01*
X109242Y-56663D02*
X109015Y-56889D01*
G54D86*
X109242Y-56663D02*
X109250Y-56663D01*
G54D89*
X108750Y-57155D02*
X109015Y-56889D01*
X108750Y-43163D02*
X108750Y-43159D01*
X108750Y-43159D02*
X108996Y-42913D01*
X108750Y-44163D02*
X108996Y-44409D01*
X108750Y-45163D02*
X108750Y-45147D01*
X108750Y-45147D02*
X109015Y-44881D01*
X109234Y-44663D02*
X109015Y-44881D01*
G54D86*
X109234Y-44663D02*
X109250Y-44663D01*
X109250Y-58163D02*
X109238Y-58163D01*
G54D89*
X109238Y-58163D02*
X109015Y-58385D01*
X109250Y-43663D02*
X109015Y-43897D01*
G54D86*
X108750Y-47163D02*
X108742Y-47163D01*
G54D89*
X108742Y-47163D02*
X108503Y-47401D01*
G54D86*
X108750Y-48663D02*
X108738Y-48663D01*
G54D89*
X108738Y-48663D02*
X108503Y-48897D01*
X108750Y-49163D02*
X108503Y-49409D01*
G54D86*
X109250Y-49163D02*
X109250Y-49175D01*
G54D89*
X109250Y-49175D02*
X109015Y-49409D01*
G54D86*
X108750Y-50663D02*
X108746Y-50663D01*
G54D89*
X108746Y-50663D02*
X108503Y-50905D01*
G54D86*
X109250Y-50663D02*
X109250Y-50671D01*
G54D89*
X109250Y-50671D02*
X109015Y-50905D01*
G54D86*
X108750Y-51163D02*
X108718Y-51163D01*
G54D89*
X108718Y-51163D02*
X108503Y-51377D01*
G54D86*
X109250Y-52163D02*
X109250Y-52167D01*
G54D89*
X109250Y-52167D02*
X109015Y-52401D01*
G54D86*
X108750Y-52663D02*
X108750Y-52667D01*
G54D89*
X108750Y-52667D02*
X108503Y-52913D01*
G54D86*
X108750Y-53163D02*
X108726Y-53163D01*
G54D89*
X108726Y-53163D02*
X108503Y-53385D01*
X109250Y-53663D02*
X109015Y-53897D01*
G54D86*
X108750Y-54663D02*
X108722Y-54663D01*
G54D89*
X108722Y-54663D02*
X108503Y-54881D01*
G54D86*
X108750Y-55163D02*
X108734Y-55163D01*
G54D89*
X108734Y-55163D02*
X108503Y-55393D01*
G54D86*
X109250Y-55163D02*
X109246Y-55163D01*
G54D89*
X109246Y-55163D02*
X109015Y-55393D01*
G54D86*
X108750Y-56663D02*
X108730Y-56663D01*
G54D89*
X108730Y-56663D02*
X108503Y-56889D01*
X108730Y-46663D02*
X108503Y-46889D01*
G54D86*
X108730Y-46663D02*
X108750Y-46663D01*
G54D89*
X110750Y-45667D02*
X110511Y-45905D01*
G54D86*
X110750Y-45667D02*
X110750Y-45663D01*
X110750Y-59163D02*
X110738Y-59163D01*
G54D89*
X110738Y-59163D02*
X110511Y-59389D01*
G54D86*
X110750Y-62663D02*
X110750Y-62665D01*
G54D89*
X110750Y-62665D02*
X110511Y-62903D01*
X111250Y-61663D02*
X111545Y-61663D01*
G54D86*
X110750Y-61163D02*
X110746Y-61163D01*
G54D89*
X110746Y-61163D02*
X110511Y-61397D01*
G54D86*
X110750Y-60663D02*
X110744Y-60663D01*
G54D89*
X110744Y-60663D02*
X110511Y-60895D01*
X111250Y-60163D02*
X111541Y-60163D01*
G54D86*
X111541Y-60163D02*
X111545Y-60167D01*
G54D89*
X111250Y-58663D02*
X111543Y-58663D01*
G54D86*
X111543Y-58663D02*
X111545Y-58661D01*
X110750Y-43163D02*
X110734Y-43163D01*
G54D89*
X110734Y-43163D02*
X110511Y-43385D01*
G54D86*
X111250Y-43663D02*
X111250Y-43671D01*
G54D89*
X111250Y-43671D02*
X111023Y-43897D01*
G54D86*
X110750Y-44163D02*
X110750Y-44171D01*
G54D89*
X110750Y-44171D02*
X110511Y-44409D01*
G54D86*
X111250Y-45163D02*
X111250Y-45167D01*
G54D89*
X111250Y-45167D02*
X111023Y-45393D01*
G54D86*
X111250Y-46663D02*
X111023Y-46889D01*
G54D89*
X110750Y-47163D02*
X110511Y-47401D01*
G54D86*
X111250Y-48163D02*
X111246Y-48163D01*
G54D89*
X111246Y-48163D02*
X111023Y-48385D01*
G54D86*
X110750Y-48663D02*
X110746Y-48663D01*
G54D89*
X110746Y-48663D02*
X110511Y-48897D01*
G54D86*
X111250Y-49663D02*
X111242Y-49663D01*
G54D89*
X111242Y-49663D02*
X111023Y-49881D01*
G54D86*
X110750Y-50163D02*
X110742Y-50163D01*
G54D89*
X110742Y-50163D02*
X110511Y-50393D01*
G54D86*
X111250Y-51163D02*
X111238Y-51163D01*
G54D89*
X111238Y-51163D02*
X111023Y-51377D01*
G54D86*
X110750Y-51663D02*
X110738Y-51663D01*
G54D89*
X110738Y-51663D02*
X110511Y-51889D01*
G54D86*
X111250Y-52667D02*
X111250Y-52687D01*
G54D89*
X111250Y-52687D02*
X111023Y-52913D01*
G54D86*
X110750Y-53163D02*
X110734Y-53163D01*
G54D89*
X110734Y-53163D02*
X110511Y-53385D01*
G54D86*
X111250Y-54163D02*
X111250Y-54183D01*
G54D89*
X111250Y-54183D02*
X111023Y-54409D01*
G54D86*
X110750Y-54663D02*
X110730Y-54663D01*
G54D89*
X110730Y-54663D02*
X110511Y-54881D01*
G54D86*
X110750Y-57663D02*
X110750Y-57675D01*
G54D89*
X110750Y-57675D02*
X110511Y-57913D01*
G54D86*
X111250Y-57163D02*
X111250Y-57175D01*
G54D89*
X111250Y-57175D02*
X111023Y-57401D01*
G54D86*
X111250Y-55663D02*
X111250Y-55679D01*
G54D89*
X111250Y-55679D02*
X111023Y-55905D01*
G54D86*
X110750Y-56163D02*
X110726Y-56163D01*
G54D89*
X110726Y-56163D02*
X110511Y-56377D01*
X90373Y-45708D02*
X90590Y-45708D01*
X87832Y-43582D02*
X87598Y-43582D01*
X87832Y-43582D02*
X87832Y-43161D01*
X87832Y-43161D02*
X87834Y-43159D01*
X97125Y-37849D02*
X97125Y-38090D01*
X97125Y-37505D02*
X97125Y-37849D01*
X97125Y-37263D02*
X97125Y-37047D01*
X97125Y-36614D02*
X97125Y-36811D01*
X97125Y-36811D02*
X97125Y-37047D01*
X97125Y-37263D02*
X97125Y-37505D01*
X97125Y-36614D02*
X97125Y-36161D01*
X90708Y-46437D02*
X90925Y-46437D01*
X88228Y-48545D02*
X88228Y-48789D01*
X88228Y-48545D02*
X87816Y-48545D01*
X87816Y-48545D02*
X87814Y-48543D01*
X98988Y-37431D02*
X98779Y-37431D01*
G54D86*
X101771Y-73681D02*
X102125Y-73681D01*
X104468Y-71131D02*
X104635Y-71299D01*
X104468Y-71131D02*
X104468Y-70984D01*
X104468Y-70984D02*
X104468Y-70620D01*
X102696Y-74212D02*
X102696Y-74566D01*
X102696Y-74212D02*
X102696Y-73858D01*
X101771Y-73681D02*
X101417Y-73681D01*
X105000Y-73287D02*
X105354Y-73287D01*
X105000Y-73287D02*
X104645Y-73287D01*
G54D87*
X72677Y-65374D02*
X73188Y-65374D01*
G54D86*
X82736Y-50787D02*
X82736Y-50511D01*
X82736Y-52559D02*
X82303Y-52559D01*
X83179Y-51377D02*
X82736Y-51377D01*
X87145Y-50787D02*
X87145Y-50511D01*
X83464Y-50059D02*
X83464Y-49635D01*
X86417Y-54468D02*
X86417Y-54901D01*
X83661Y-54468D02*
X83661Y-54901D01*
G54D85*
X102893Y-68622D02*
X103021Y-68750D01*
X103021Y-69750D02*
X103021Y-69655D01*
X103228Y-68956D02*
X103021Y-68750D01*
X103228Y-69448D02*
X103228Y-69322D01*
X103228Y-69322D02*
X103228Y-68956D01*
X103021Y-69655D02*
X103228Y-69448D01*
G54D88*
X91092Y-74793D02*
X91092Y-74537D01*
G54D87*
X94980Y-64862D02*
X95177Y-65059D01*
X93799Y-66043D02*
X93996Y-66240D01*
X94192Y-66043D02*
X94389Y-66240D01*
X94192Y-65649D02*
X94389Y-65846D01*
X93799Y-65649D02*
X93996Y-65846D01*
X93799Y-65255D02*
X93996Y-65452D01*
X94192Y-65255D02*
X94389Y-65452D01*
X94586Y-65255D02*
X94783Y-65452D01*
X94586Y-65649D02*
X94783Y-65846D01*
X94586Y-66043D02*
X94783Y-66240D01*
X94192Y-66437D02*
X94389Y-66633D01*
X93799Y-66437D02*
X93996Y-66633D01*
X93405Y-66437D02*
X93602Y-66633D01*
X93405Y-66043D02*
X93602Y-66240D01*
X93405Y-65649D02*
X93602Y-65846D01*
X93405Y-65255D02*
X93602Y-65452D01*
X94586Y-67618D02*
X94389Y-67421D01*
X93405Y-67224D02*
X93602Y-67421D01*
X94980Y-67224D02*
X95177Y-67421D01*
X94192Y-67224D02*
X94389Y-67421D01*
X94586Y-66437D02*
X94783Y-66633D01*
X95374Y-66043D02*
X95570Y-66240D01*
X95374Y-66437D02*
X95570Y-66633D01*
X92618Y-66437D02*
X92814Y-66633D01*
X93011Y-64468D02*
X93208Y-64665D01*
X92618Y-64862D02*
X92814Y-65059D01*
X97342Y-66830D02*
X97539Y-67027D01*
G54D86*
X98129Y-69980D02*
X98326Y-70177D01*
X96555Y-69192D02*
X96751Y-69389D01*
X97342Y-67618D02*
X97539Y-67814D01*
X96161Y-66043D02*
X96358Y-66240D01*
X97342Y-66043D02*
X97539Y-66240D01*
X98129Y-61712D02*
X98326Y-61909D01*
X92618Y-65649D02*
X92814Y-65846D01*
X97342Y-65649D02*
X97539Y-65846D01*
X97342Y-64862D02*
X97539Y-65059D01*
X97342Y-63287D02*
X97539Y-63484D01*
G54D89*
X90649Y-64862D02*
X90846Y-65059D01*
G54D87*
X93405Y-62500D02*
X93602Y-62696D01*
X94586Y-62500D02*
X94783Y-62696D01*
G54D86*
X95767Y-69192D02*
X95964Y-69389D01*
X94980Y-68799D02*
X95177Y-68996D01*
X97342Y-68405D02*
X97539Y-68602D01*
X96555Y-68405D02*
X96751Y-68602D01*
X96161Y-63287D02*
X96358Y-63484D01*
X96161Y-62500D02*
X96358Y-62696D01*
X95374Y-62500D02*
X95570Y-62696D01*
X95767Y-62106D02*
X95964Y-62303D01*
X92618Y-62500D02*
X92814Y-62696D01*
X94192Y-69192D02*
X94389Y-69389D01*
X93011Y-68799D02*
X93208Y-68996D01*
X92224Y-69192D02*
X92421Y-69389D01*
X91437Y-69192D02*
X91633Y-69389D01*
X89862Y-69980D02*
X90059Y-70177D01*
X90255Y-69980D02*
X90452Y-70177D01*
X91830Y-62500D02*
X92027Y-62696D01*
X91830Y-63287D02*
X92027Y-63484D01*
X89862Y-61712D02*
X90059Y-61909D01*
X90649Y-66043D02*
X90846Y-66240D01*
X90649Y-69192D02*
X90846Y-69389D01*
X91437Y-68405D02*
X91633Y-68602D01*
X90649Y-68405D02*
X90846Y-68602D01*
X90649Y-67618D02*
X90846Y-67814D01*
X90649Y-67224D02*
X90846Y-67421D01*
X90649Y-65649D02*
X90846Y-65846D01*
X89862Y-63681D02*
X90059Y-63877D01*
X90649Y-63287D02*
X90846Y-63484D01*
X91043Y-62500D02*
X91240Y-62696D01*
X90255Y-62106D02*
X90452Y-62303D01*
X96948Y-64468D02*
X97145Y-64665D01*
X96948Y-62500D02*
X97145Y-62696D01*
G54D89*
X96043Y-50039D02*
X96476Y-50039D01*
X96043Y-50039D02*
X96043Y-50344D01*
X96151Y-55639D02*
X96151Y-55413D01*
X92372Y-55068D02*
X92372Y-54281D01*
X92539Y-54281D02*
X92372Y-54281D01*
G54D87*
X91830Y-53051D02*
X91830Y-52736D01*
G54D89*
X91830Y-51673D02*
X92450Y-51673D01*
X92450Y-51673D02*
X92539Y-51761D01*
G54D87*
X92539Y-52706D02*
X91860Y-52706D01*
X91860Y-52706D02*
X91830Y-52736D01*
G54D89*
X94645Y-50019D02*
X94645Y-50344D01*
X94645Y-50344D02*
X94931Y-50344D01*
X94428Y-55059D02*
X94763Y-55059D01*
X94428Y-54960D02*
X94428Y-55059D01*
X94173Y-55944D02*
X94173Y-55944D01*
X94261Y-56033D02*
X94261Y-56190D01*
X94173Y-55944D02*
X94261Y-56033D01*
X92372Y-54281D02*
X91997Y-54281D01*
X91997Y-54281D02*
X91968Y-54310D01*
X91968Y-54665D02*
X91968Y-54311D01*
X91968Y-54311D02*
X91968Y-54310D01*
X93976Y-54458D02*
X93976Y-54507D01*
X93976Y-54507D02*
X94428Y-54960D01*
G54D86*
X94606Y-51446D02*
X94763Y-51289D01*
X94921Y-53336D02*
X95078Y-53179D01*
X95866Y-51131D02*
X96053Y-51131D01*
X93976Y-54281D02*
X93976Y-54458D01*
X92716Y-54281D02*
X92539Y-54281D01*
X92539Y-51761D02*
X92716Y-51761D01*
X92716Y-52706D02*
X92539Y-52706D01*
X95551Y-53336D02*
X95708Y-53494D01*
X95708Y-53494D02*
X95551Y-53651D01*
X95866Y-53336D02*
X95708Y-53494D01*
G54D10*
X95551Y-53021D02*
X95551Y-53336D01*
G54D86*
X93031Y-52076D02*
X92874Y-51919D01*
X93031Y-51761D02*
X92874Y-51604D01*
X92716Y-51446D02*
X92539Y-51446D01*
X92716Y-51131D02*
X92539Y-51131D01*
X101697Y-53680D02*
X102135Y-53680D01*
X102135Y-53680D02*
X102135Y-53681D01*
X83661Y-50059D02*
X83661Y-49517D01*
X94803Y-58503D02*
X94744Y-58444D01*
X94803Y-58700D02*
X94803Y-58503D01*
X79854Y-49070D02*
X79645Y-49070D01*
X94921Y-53651D02*
X95078Y-53494D01*
X94744Y-59192D02*
X94744Y-59212D01*
X94606Y-59921D02*
X94783Y-60098D01*
X94606Y-59350D02*
X94606Y-59921D01*
X94744Y-59212D02*
X94606Y-59350D01*
X94586Y-64074D02*
X94783Y-64271D01*
X95255Y-59114D02*
X95019Y-58877D01*
X95255Y-59114D02*
X95255Y-59192D01*
X79858Y-49527D02*
X79649Y-49527D01*
X95078Y-53809D02*
X94921Y-53966D01*
G54D89*
X95255Y-58444D02*
X95641Y-58444D01*
G54D86*
X95255Y-58661D02*
X95216Y-58700D01*
X95255Y-58661D02*
X95255Y-58444D01*
X94980Y-64074D02*
X95177Y-64271D01*
G54D10*
X89281Y-72726D02*
X89271Y-72736D01*
X89281Y-72726D02*
X89498Y-72726D01*
G54D86*
X96555Y-62106D02*
X96751Y-62303D01*
X97736Y-65255D02*
X97933Y-65452D01*
X102283Y-46790D02*
X102539Y-46535D01*
X102283Y-46790D02*
X101697Y-46790D01*
X111250Y-50167D02*
X111023Y-50393D01*
X111250Y-50163D02*
X111250Y-50167D01*
X101240Y-49153D02*
X101240Y-49153D01*
X101697Y-49153D02*
X101240Y-49153D01*
X96555Y-65255D02*
X96751Y-65452D01*
X110738Y-56663D02*
X110511Y-56889D01*
X110750Y-56663D02*
X110738Y-56663D01*
G54D10*
X89498Y-72253D02*
X89271Y-72253D01*
G54D86*
X95767Y-66830D02*
X95964Y-67027D01*
G54D10*
X89084Y-72411D02*
X89074Y-72401D01*
X89498Y-72411D02*
X89084Y-72411D01*
G54D86*
X96555Y-66437D02*
X96751Y-66633D01*
G54D10*
X89498Y-73198D02*
X89399Y-73198D01*
X88838Y-73208D02*
X88799Y-73248D01*
X89389Y-73208D02*
X88838Y-73208D01*
X89399Y-73198D02*
X89389Y-73208D01*
G54D86*
X88314Y-71551D02*
X88311Y-71547D01*
X88488Y-71551D02*
X88314Y-71551D01*
G54D87*
X88896Y-80392D02*
X88484Y-80392D01*
X88896Y-80392D02*
X88897Y-80393D01*
X88484Y-80392D02*
X87914Y-80392D01*
G54D86*
X87914Y-80392D02*
X87913Y-80393D01*
X96555Y-66830D02*
X96751Y-67027D01*
X109250Y-54175D02*
X109015Y-54409D01*
X109250Y-54163D02*
X109250Y-54175D01*
X101142Y-52105D02*
X101697Y-52105D01*
X101142Y-52105D02*
X101141Y-52106D01*
X96555Y-67224D02*
X96751Y-67421D01*
X101260Y-52302D02*
X101697Y-52302D01*
X101260Y-52302D02*
X101259Y-52303D01*
X108738Y-53663D02*
X108503Y-53897D01*
X108750Y-53663D02*
X108738Y-53663D01*
X96555Y-67618D02*
X96751Y-67814D01*
X101141Y-52499D02*
X101697Y-52499D01*
X101141Y-52499D02*
X101141Y-52500D01*
X108750Y-54163D02*
X108503Y-54409D01*
X96161Y-67224D02*
X96358Y-67421D01*
X109238Y-53163D02*
X109015Y-53385D01*
X109250Y-53163D02*
X109238Y-53163D01*
X101260Y-53090D02*
X101259Y-53090D01*
X101260Y-53090D02*
X101697Y-53090D01*
X109242Y-52667D02*
X108996Y-52913D01*
X109250Y-52667D02*
X109242Y-52667D01*
X96161Y-67618D02*
X96358Y-67814D01*
X109250Y-51665D02*
X109250Y-51663D01*
X109250Y-51665D02*
X108996Y-51919D01*
X96948Y-68011D02*
X97145Y-68208D01*
X109250Y-50165D02*
X109498Y-50413D01*
X109250Y-50165D02*
X109250Y-50163D01*
X96948Y-67224D02*
X97145Y-67421D01*
X109498Y-49911D02*
X109250Y-49663D01*
X97342Y-67224D02*
X97539Y-67421D01*
X99295Y-52105D02*
X98831Y-52105D01*
X98831Y-52105D02*
X98830Y-52106D01*
X96555Y-66043D02*
X96751Y-66240D01*
X111250Y-56163D02*
X112005Y-56163D01*
X112005Y-56163D02*
X112007Y-56161D01*
X99295Y-54051D02*
X99295Y-53877D01*
X99295Y-54051D02*
X99291Y-54055D01*
X95767Y-64074D02*
X95964Y-64271D01*
X98129Y-68799D02*
X98326Y-68996D01*
X98858Y-53286D02*
X98858Y-53287D01*
X98858Y-53286D02*
X99295Y-53286D01*
X96161Y-64862D02*
X96358Y-65059D01*
X98690Y-52499D02*
X98690Y-52500D01*
X98690Y-52499D02*
X99295Y-52499D01*
X95374Y-65255D02*
X95570Y-65452D01*
X98858Y-52302D02*
X98858Y-52303D01*
G54D92*
X95374Y-65649D02*
X95570Y-65846D01*
G54D86*
X98858Y-52302D02*
X99295Y-52302D01*
X98691Y-53090D02*
X98690Y-53090D01*
X98691Y-53090D02*
X99295Y-53090D01*
X95767Y-64862D02*
X95964Y-65059D01*
G54D10*
X109842Y-61161D02*
X109842Y-59755D01*
X109842Y-59755D02*
X109250Y-59163D01*
G54D86*
X97736Y-66043D02*
X97933Y-66240D01*
X109250Y-58663D02*
X109015Y-58897D01*
X95767Y-69586D02*
X95964Y-69783D01*
X97342Y-65255D02*
X97539Y-65452D01*
X110730Y-49663D02*
X110511Y-49881D01*
X110750Y-49663D02*
X110730Y-49663D01*
X101697Y-54060D02*
X101697Y-53877D01*
X101697Y-54060D02*
X101692Y-54064D01*
X108750Y-57667D02*
X108503Y-57913D01*
X108750Y-57663D02*
X108750Y-57667D01*
X97342Y-66437D02*
X97539Y-66633D01*
X111023Y-59389D02*
X111250Y-59163D01*
X96948Y-66437D02*
X97145Y-66633D01*
X108746Y-55663D02*
X108503Y-55905D01*
X108750Y-55663D02*
X108746Y-55663D01*
X96948Y-68799D02*
X97145Y-68996D01*
X99295Y-46395D02*
X100037Y-46395D01*
X100037Y-46395D02*
X100039Y-46397D01*
X109250Y-57679D02*
X109015Y-57913D01*
X109250Y-57663D02*
X109250Y-57679D01*
X97342Y-68799D02*
X97539Y-68996D01*
X109250Y-55663D02*
X109250Y-55671D01*
X109250Y-55671D02*
X109015Y-55905D01*
X97342Y-68011D02*
X97539Y-68208D01*
X111250Y-59665D02*
X111023Y-59891D01*
X111250Y-59665D02*
X111250Y-59663D01*
X96555Y-65649D02*
X96751Y-65846D01*
X99605Y-51908D02*
X99665Y-51968D01*
X99665Y-51968D02*
X99921Y-51968D01*
X99605Y-51908D02*
X99295Y-51908D01*
X98129Y-65649D02*
X98326Y-65846D01*
X111250Y-50679D02*
X111250Y-50663D01*
X111250Y-50679D02*
X111023Y-50905D01*
X102362Y-51712D02*
X102559Y-51909D01*
X102362Y-51712D02*
X101697Y-51712D01*
X97736Y-65649D02*
X97933Y-65846D01*
X110750Y-57163D02*
X111003Y-56909D01*
X98691Y-53483D02*
X99295Y-53483D01*
X98691Y-53483D02*
X98690Y-53484D01*
X96555Y-64862D02*
X96751Y-65059D01*
X98858Y-53680D02*
X99295Y-53680D01*
X95767Y-64468D02*
X95964Y-64665D01*
X98858Y-53680D02*
X98858Y-53681D01*
X109295Y-73133D02*
X109291Y-73129D01*
X109295Y-73133D02*
X109712Y-73133D01*
X97736Y-69586D02*
X97933Y-69783D01*
X112110Y-73133D02*
X112106Y-73129D01*
X112110Y-73133D02*
X112492Y-73133D01*
X95374Y-67618D02*
X95570Y-67814D01*
X99723Y-48955D02*
X99763Y-48996D01*
X99295Y-48955D02*
X99723Y-48955D01*
G54D10*
X98779Y-66338D02*
X98838Y-66279D01*
X97933Y-67421D02*
X97736Y-67224D01*
X98425Y-67421D02*
X98779Y-67066D01*
X97933Y-67421D02*
X98425Y-67421D01*
X98779Y-67066D02*
X98779Y-66338D01*
G54D86*
X99295Y-48955D02*
X99295Y-49151D01*
G54D10*
X99043Y-61062D02*
X99043Y-60661D01*
X99043Y-60661D02*
X99094Y-60610D01*
X100763Y-60145D02*
X99559Y-60145D01*
X99507Y-60196D02*
X99094Y-60610D01*
X99559Y-60145D02*
X99507Y-60196D01*
G54D86*
X95374Y-63287D02*
X95570Y-63484D01*
X108718Y-56163D02*
X108750Y-56163D01*
X108718Y-56163D02*
X108503Y-56377D01*
X109230Y-56163D02*
X109015Y-56377D01*
X109250Y-56163D02*
X109230Y-56163D01*
X109253Y-51163D02*
X109507Y-51417D01*
X109253Y-51163D02*
X109250Y-51163D01*
X109468Y-54881D02*
X109250Y-54663D01*
X110750Y-58663D02*
X110746Y-58663D01*
X110746Y-58663D02*
X110511Y-58897D01*
X112204Y-57677D02*
X111263Y-57677D01*
X111263Y-57677D02*
X111250Y-57663D01*
G54D85*
X110750Y-43663D02*
X111250Y-43163D01*
G54D89*
X111568Y-43163D02*
X111574Y-43169D01*
X111250Y-43163D02*
X111568Y-43163D01*
G54D86*
X109250Y-45671D02*
X109015Y-45905D01*
X109250Y-45663D02*
X109250Y-45671D01*
X108750Y-46171D02*
X108503Y-46417D01*
X108750Y-46163D02*
X108750Y-46171D01*
G54D89*
X111250Y-62982D02*
X111259Y-62992D01*
X111250Y-62982D02*
X111250Y-62663D01*
G54D86*
X90021Y-44980D02*
X89360Y-44980D01*
X88832Y-45507D02*
X88832Y-45708D01*
X89360Y-44980D02*
X88832Y-45507D01*
X88338Y-42834D02*
X88338Y-43576D01*
X88338Y-43576D02*
X88332Y-43582D01*
G54D89*
X89633Y-39881D02*
X89633Y-38686D01*
X89633Y-38686D02*
X89513Y-38566D01*
G54D88*
X96171Y-52470D02*
X96476Y-52470D01*
X95866Y-52391D02*
X95925Y-52450D01*
X95925Y-52450D02*
X95944Y-52470D01*
X95944Y-52470D02*
X96171Y-52470D01*
X96476Y-52470D02*
X96555Y-52391D01*
G54D86*
X93346Y-53021D02*
X93188Y-53179D01*
X93661Y-53021D02*
X93503Y-52864D01*
X93976Y-53021D02*
X93818Y-52864D01*
X94448Y-52864D02*
X94291Y-53021D01*
X93031Y-52706D02*
X92874Y-52549D01*
X93346Y-52706D02*
X93188Y-52864D01*
X93661Y-52706D02*
X93503Y-52549D01*
G54D10*
X93976Y-52706D02*
X93818Y-52549D01*
G54D86*
X93031Y-52391D02*
X92874Y-52234D01*
X93346Y-52391D02*
X93188Y-52234D01*
X93661Y-52391D02*
X93503Y-52234D01*
X93976Y-52391D02*
X93818Y-52234D01*
X92874Y-52864D02*
X93031Y-53021D01*
X93346Y-53966D02*
X93188Y-54124D01*
X93031Y-54281D02*
X93031Y-54458D01*
X92539Y-53966D02*
X92716Y-53966D01*
X92874Y-54124D02*
X93031Y-53966D01*
X93661Y-53966D02*
X93818Y-54124D01*
X94133Y-54124D02*
X93976Y-53966D01*
X94448Y-53809D02*
X94291Y-53966D01*
X92874Y-53809D02*
X93031Y-53651D01*
X93346Y-53651D02*
X93188Y-53809D01*
X93818Y-53809D02*
X93661Y-53651D01*
X94133Y-53809D02*
X93976Y-53651D01*
X94133Y-53494D02*
X94291Y-53651D01*
X93031Y-53336D02*
X92874Y-53494D01*
X93346Y-53336D02*
X93503Y-53494D01*
X93661Y-53336D02*
X93503Y-53179D01*
X93976Y-53336D02*
X93818Y-53494D01*
X94448Y-53179D02*
X94291Y-53336D01*
X95551Y-52076D02*
X95393Y-51919D01*
X95551Y-51446D02*
X95708Y-51289D01*
X94448Y-52549D02*
X94606Y-52706D01*
X95236Y-52706D02*
X95393Y-52549D01*
G54D88*
X95925Y-52647D02*
X96496Y-52647D01*
X95866Y-52706D02*
X95925Y-52647D01*
X96496Y-52647D02*
X96555Y-52706D01*
G54D86*
X92716Y-52076D02*
X92539Y-52076D01*
X107173Y-36496D02*
X107173Y-36179D01*
X107173Y-36179D02*
X106988Y-35994D01*
X106161Y-36488D02*
X106161Y-35994D01*
X105354Y-36488D02*
X105354Y-35994D01*
G54D91*
X100236Y-35314D02*
X101338Y-35314D01*
X99291Y-35314D02*
X100236Y-35314D01*
X98188Y-35314D02*
X99291Y-35314D01*
X97185Y-35314D02*
X98188Y-35314D01*
X96131Y-35314D02*
X97185Y-35314D01*
G54D89*
X102137Y-35314D02*
X101338Y-35314D01*
X102145Y-35748D02*
X102145Y-35322D01*
X102145Y-35322D02*
X102137Y-35314D01*
G54D86*
X91220Y-47547D02*
X90356Y-47547D01*
X90356Y-47547D02*
X90354Y-47545D01*
X87448Y-48051D02*
X88222Y-48051D01*
X88222Y-48051D02*
X88228Y-48045D01*
X95708Y-51604D02*
X95551Y-51761D01*
X95236Y-53336D02*
X95393Y-53179D01*
X94921Y-54281D02*
X94921Y-54291D01*
X95511Y-54881D02*
X95590Y-54881D01*
X94921Y-54291D02*
X95511Y-54881D01*
G54D89*
X100275Y-36614D02*
X100275Y-37192D01*
X100275Y-37192D02*
X100523Y-37440D01*
X102188Y-37358D02*
X102062Y-37358D01*
X102000Y-37421D02*
X101700Y-37421D01*
X102062Y-37358D02*
X102000Y-37421D01*
G54D86*
X92716Y-53336D02*
X92549Y-53336D01*
X92549Y-53336D02*
X92539Y-53346D01*
X93503Y-51919D02*
X93661Y-52076D01*
X93976Y-52076D02*
X93818Y-51919D01*
X95236Y-53021D02*
X95393Y-52864D01*
G54D90*
X92929Y-35429D02*
X92929Y-40141D01*
X90021Y-43049D02*
X91968Y-41102D01*
X90021Y-43049D02*
X90021Y-43572D01*
X92929Y-40141D02*
X91968Y-41102D01*
X90019Y-43574D02*
X89340Y-43574D01*
G54D86*
X89340Y-43574D02*
X89332Y-43582D01*
G54D87*
X103082Y-35472D02*
X103082Y-36015D01*
G54D86*
X103082Y-36015D02*
X103090Y-36023D01*
G54D87*
X103082Y-35157D02*
X103082Y-35472D01*
X103082Y-36015D02*
X103090Y-36023D01*
G54D86*
X95236Y-52391D02*
X95393Y-52234D01*
G54D88*
X102893Y-74212D02*
X102893Y-74874D01*
G54D86*
X102893Y-74874D02*
X102854Y-74913D01*
G54D88*
X102303Y-74212D02*
X102303Y-74874D01*
G54D86*
X102303Y-74874D02*
X102263Y-74913D01*
G54D87*
X106377Y-73476D02*
X106377Y-73011D01*
G54D88*
X102500Y-74212D02*
X102500Y-74874D01*
G54D86*
X102500Y-74874D02*
X102539Y-74913D01*
X103681Y-70511D02*
X103651Y-70482D01*
X103681Y-70984D02*
X103681Y-70511D01*
G54D87*
X107086Y-73476D02*
X107086Y-73011D01*
G54D88*
X103090Y-74212D02*
X103090Y-74874D01*
G54D86*
X103090Y-74874D02*
X103129Y-74913D01*
X103877Y-70511D02*
X103907Y-70482D01*
X103877Y-70984D02*
X103877Y-70511D01*
X104074Y-70984D02*
X104074Y-71338D01*
G54D93*
X94330Y-82677D02*
X94330Y-81259D01*
G54D86*
X73188Y-64980D02*
X73948Y-64980D01*
X85216Y-48846D02*
X85216Y-49157D01*
X85039Y-49635D02*
X85039Y-50059D01*
X85039Y-49334D02*
X85039Y-49635D01*
X85216Y-49157D02*
X85039Y-49334D01*
X85618Y-48846D02*
X85618Y-49098D01*
X85236Y-49480D02*
X85236Y-49517D01*
X85618Y-49098D02*
X85236Y-49480D01*
X85236Y-49517D02*
X85236Y-50059D01*
X85259Y-49494D02*
X85236Y-49517D01*
X85909Y-49110D02*
X85799Y-49110D01*
X85433Y-49476D02*
X85433Y-49635D01*
X85433Y-49635D02*
X85433Y-50059D01*
X85799Y-49110D02*
X85433Y-49476D01*
G54D10*
X101133Y-60145D02*
X102114Y-60145D01*
X102114Y-60145D02*
X102165Y-60196D01*
G54D87*
X73188Y-65177D02*
X72480Y-65177D01*
G54D86*
X82293Y-51181D02*
X82736Y-51181D01*
G54D89*
X109712Y-72413D02*
X109724Y-72401D01*
X109712Y-72413D02*
X109712Y-72629D01*
G54D86*
X83397Y-48913D02*
X83397Y-49251D01*
X83397Y-49251D02*
X83393Y-49255D01*
X83838Y-49635D02*
X83838Y-49362D01*
X83839Y-49636D02*
X83838Y-49635D01*
X83839Y-50056D02*
X83839Y-49636D01*
X83732Y-49255D02*
X83393Y-49255D01*
X83838Y-49362D02*
X83732Y-49255D01*
X84787Y-48649D02*
X84787Y-49462D01*
X84842Y-49517D02*
X84842Y-50059D01*
X84787Y-49462D02*
X84842Y-49517D01*
X84429Y-48653D02*
X84783Y-48653D01*
X84783Y-48653D02*
X84787Y-48649D01*
X83858Y-54468D02*
X83858Y-55204D01*
X83858Y-55204D02*
X83846Y-55216D01*
X83846Y-55216D02*
X84224Y-55216D01*
G54D87*
X86637Y-49267D02*
X86291Y-49267D01*
X86291Y-49267D02*
X86220Y-49338D01*
X86220Y-49338D02*
X86202Y-49338D01*
X86202Y-49338D02*
X86023Y-49517D01*
G54D86*
X86023Y-49517D02*
X86023Y-50059D01*
G54D10*
X89084Y-73877D02*
X89251Y-73877D01*
X89301Y-73828D02*
X89498Y-73828D01*
X89251Y-73877D02*
X89301Y-73828D01*
X89498Y-73671D02*
X89222Y-73671D01*
X89222Y-73671D02*
X89212Y-73681D01*
X89498Y-74143D02*
X89360Y-74143D01*
X89360Y-74143D02*
X89251Y-74251D01*
G54D86*
X89675Y-74793D02*
X89665Y-74803D01*
X89832Y-74793D02*
X89675Y-74793D01*
G54D10*
X89281Y-74222D02*
X89251Y-74251D01*
G54D86*
X92194Y-74793D02*
X92194Y-74872D01*
X92194Y-74872D02*
X92342Y-75019D01*
G54D10*
X89084Y-74094D02*
X89114Y-74094D01*
X89222Y-73986D02*
X89498Y-73986D01*
X89114Y-74094D02*
X89222Y-73986D01*
G54D86*
X90462Y-75029D02*
X90472Y-75039D01*
X90462Y-74793D02*
X90462Y-75029D01*
X90305Y-74793D02*
X90462Y-74793D01*
X91722Y-74793D02*
X91722Y-75029D01*
X91722Y-75029D02*
X91653Y-75098D01*
X91564Y-74793D02*
X91722Y-74793D01*
G54D10*
X89498Y-74301D02*
X89419Y-74301D01*
X89251Y-74468D02*
X89251Y-74488D01*
X89419Y-74301D02*
X89251Y-74468D01*
G54D87*
X72519Y-60314D02*
X72271Y-60314D01*
X71377Y-60315D02*
X71901Y-60315D01*
X71901Y-60315D02*
X71901Y-60314D01*
G54D10*
X96960Y-57027D02*
X96673Y-57027D01*
G54D86*
X97429Y-57665D02*
X97429Y-57913D01*
X97429Y-57665D02*
X97421Y-57657D01*
G54D10*
X99196Y-61751D02*
X99196Y-61681D01*
X100000Y-60877D02*
X100748Y-60877D01*
X99196Y-61681D02*
X100000Y-60877D01*
G54D86*
X95374Y-63681D02*
X95570Y-63877D01*
X73070Y-56299D02*
X73070Y-57007D01*
X73070Y-57007D02*
X72244Y-57834D01*
X95551Y-52706D02*
X95708Y-52864D01*
G54D10*
X102165Y-60885D02*
X101125Y-60885D01*
X101125Y-60885D02*
X101118Y-60877D01*
G54D86*
X95551Y-52381D02*
X95708Y-52224D01*
X95551Y-52381D02*
X95551Y-52391D01*
X95866Y-51446D02*
X95944Y-51446D01*
X95944Y-51446D02*
X96053Y-51338D01*
X95708Y-53179D02*
X95866Y-53021D01*
G54D87*
X103807Y-45767D02*
X104310Y-45767D01*
G54D89*
X70649Y-50570D02*
X70649Y-51094D01*
G54D94*
X77145Y-40232D02*
X76224Y-40232D01*
X73917Y-42539D02*
X73251Y-42539D01*
X76224Y-40232D02*
X73917Y-42539D01*
G54D85*
X74448Y-49055D02*
X73897Y-49055D01*
G54D87*
X71281Y-49935D02*
X71281Y-49316D01*
G54D10*
X99728Y-61566D02*
X99275Y-62019D01*
X99275Y-62019D02*
X98783Y-62019D01*
X100748Y-61566D02*
X99728Y-61566D01*
G54D86*
X96555Y-63287D02*
X96751Y-63484D01*
G54D10*
X102165Y-61488D02*
X101196Y-61488D01*
X101196Y-61488D02*
X101118Y-61566D01*
G54D86*
X96673Y-57342D02*
X96960Y-57342D01*
X96555Y-63681D02*
X96751Y-63877D01*
X98326Y-69389D02*
X98129Y-69192D01*
X89141Y-71551D02*
X89188Y-71598D01*
X88858Y-71551D02*
X89141Y-71551D01*
X97066Y-58787D02*
X97066Y-58976D01*
X96948Y-64074D02*
X97145Y-64271D01*
X111242Y-62163D02*
X111003Y-62401D01*
X111242Y-62163D02*
X111250Y-62163D01*
X94586Y-69980D02*
X94783Y-70177D01*
X102362Y-45216D02*
X102378Y-45216D01*
X105192Y-54248D02*
X107578Y-56633D01*
X105192Y-48031D02*
X105192Y-54248D01*
X102378Y-45216D02*
X105192Y-48031D01*
G54D92*
X109250Y-57163D02*
X109244Y-57163D01*
X109244Y-57163D02*
X108996Y-57411D01*
X108996Y-57411D02*
X108356Y-57411D01*
G54D86*
X107578Y-56633D02*
X108346Y-57401D01*
G54D92*
X108356Y-57411D02*
X108346Y-57401D01*
G54D86*
X102362Y-45216D02*
X102362Y-45216D01*
X102362Y-45216D02*
X101697Y-45216D01*
X104990Y-69750D02*
X108399Y-69750D01*
X111240Y-66909D02*
X111712Y-66909D01*
X108399Y-69750D02*
X111240Y-66909D01*
X110019Y-57933D02*
X110098Y-58011D01*
X110098Y-58011D02*
X110098Y-62893D01*
X110098Y-62893D02*
X110629Y-63425D01*
X110629Y-63425D02*
X111161Y-63425D01*
X111161Y-63425D02*
X112145Y-64409D01*
X112145Y-64409D02*
X112145Y-66023D01*
X112145Y-66023D02*
X111712Y-66456D01*
X111712Y-66456D02*
X111712Y-66909D01*
X110019Y-57933D02*
X109250Y-57163D01*
X102332Y-45412D02*
X102342Y-45412D01*
X101697Y-45412D02*
X102332Y-45412D01*
X104748Y-54137D02*
X107076Y-56466D01*
X104748Y-47818D02*
X104748Y-54137D01*
X102342Y-45412D02*
X104748Y-47818D01*
X108248Y-58149D02*
X108503Y-58405D01*
X108248Y-57637D02*
X108248Y-58149D01*
X107076Y-56466D02*
X108248Y-57637D01*
X108887Y-65482D02*
X108887Y-64655D01*
X108887Y-64655D02*
X108425Y-64192D01*
X104990Y-68750D02*
X108474Y-68750D01*
X108474Y-68750D02*
X110314Y-66909D01*
X108750Y-58163D02*
X108746Y-58163D01*
X107893Y-63661D02*
X108425Y-64192D01*
X107893Y-59015D02*
X107893Y-63661D01*
X108746Y-58163D02*
X108503Y-58405D01*
X108503Y-58405D02*
X107893Y-59015D01*
X108887Y-65482D02*
X110314Y-66909D01*
X108425Y-64192D02*
X108543Y-64311D01*
X101697Y-46987D02*
X101003Y-46987D01*
X101003Y-46987D02*
X100216Y-46200D01*
X96161Y-66830D02*
X96358Y-67027D01*
X100214Y-46198D02*
X100216Y-46200D01*
X102126Y-46397D02*
X102185Y-46456D01*
X101697Y-46397D02*
X102126Y-46397D01*
X96948Y-63681D02*
X97145Y-63877D01*
X110750Y-55667D02*
X110750Y-55663D01*
X110750Y-55667D02*
X110511Y-55905D01*
X102184Y-46200D02*
X102185Y-46200D01*
X102184Y-46200D02*
X101697Y-46200D01*
X97736Y-63287D02*
X97933Y-63484D01*
X110750Y-52675D02*
X110750Y-52663D01*
X110750Y-52675D02*
X110511Y-52913D01*
X105570Y-71909D02*
X105000Y-71909D01*
X97736Y-66437D02*
X97933Y-66633D01*
X105354Y-72106D02*
X105000Y-72106D01*
X97736Y-66830D02*
X97933Y-67027D01*
X102303Y-70984D02*
X102303Y-70482D01*
X101771Y-71131D02*
X101771Y-71515D01*
G54D10*
X101771Y-71712D02*
X101311Y-71712D01*
X101311Y-71712D02*
X101220Y-71622D01*
X89419Y-72883D02*
X89409Y-72893D01*
X89409Y-72893D02*
X89074Y-72893D01*
X89498Y-72883D02*
X89419Y-72883D01*
G54D87*
X94586Y-64862D02*
X94783Y-65059D01*
G54D10*
X91722Y-71761D02*
X91722Y-71545D01*
X90777Y-71761D02*
X90777Y-71545D01*
X92529Y-73198D02*
X92923Y-73198D01*
X92746Y-73986D02*
X92529Y-73986D01*
G54D87*
X91437Y-68011D02*
X91633Y-68208D01*
G54D86*
X96555Y-68011D02*
X96751Y-68208D01*
X96161Y-63681D02*
X96358Y-63877D01*
X91830Y-63681D02*
X92027Y-63877D01*
G54D89*
X93011Y-66830D02*
X93208Y-67027D01*
G54D87*
X92618Y-64468D02*
X93011Y-64862D01*
X94192Y-67618D02*
X94389Y-67814D01*
X94980Y-67618D02*
X95177Y-67814D01*
X94586Y-67224D02*
X94389Y-67027D01*
X93799Y-67224D02*
X93996Y-67027D01*
X94980Y-66830D02*
X95177Y-66633D01*
X95374Y-64862D02*
X95570Y-65059D01*
X94192Y-64862D02*
X94389Y-65059D01*
X93799Y-64862D02*
X93996Y-65059D01*
X93405Y-64862D02*
X93602Y-65059D01*
X94980Y-65255D02*
X95177Y-65452D01*
X94980Y-65649D02*
X95177Y-65846D01*
X94980Y-66043D02*
X95177Y-66240D01*
X94980Y-66437D02*
X95177Y-66633D01*
X94586Y-66830D02*
X94783Y-67027D01*
X94192Y-66830D02*
X94389Y-67027D01*
X93799Y-66830D02*
X93996Y-67027D01*
X93405Y-66830D02*
X93602Y-67027D01*
X92618Y-65255D02*
X92814Y-65452D01*
X93011Y-66437D02*
X93208Y-66633D01*
X92618Y-66043D02*
X92814Y-66240D01*
X93011Y-66043D02*
X93208Y-66240D01*
X93011Y-65649D02*
X93208Y-65846D01*
X93011Y-65255D02*
X93208Y-65452D01*
X93011Y-64862D02*
X93208Y-65059D01*
G54D86*
X95767Y-66043D02*
X95964Y-66240D01*
G54D85*
X91624Y-49320D02*
X92375Y-49320D01*
X92375Y-49320D02*
X93015Y-48681D01*
X90342Y-53641D02*
X90007Y-53976D01*
X90342Y-52763D02*
X90342Y-53641D01*
X90657Y-52448D02*
X90342Y-52763D01*
X90657Y-50287D02*
X90657Y-52448D01*
X91624Y-49320D02*
X90657Y-50287D01*
X93346Y-48681D02*
X93015Y-48681D01*
G54D87*
X90649Y-66830D02*
X90846Y-67027D01*
X89862Y-69586D02*
X90059Y-69783D01*
X91240Y-65059D02*
X91043Y-64862D01*
X91043Y-63287D02*
X91240Y-63484D01*
X91043Y-62893D02*
X91240Y-63090D01*
G54D86*
X93405Y-62893D02*
X93602Y-63090D01*
X92618Y-62893D02*
X92814Y-63090D01*
X91043Y-68405D02*
X91240Y-68602D01*
X91830Y-62893D02*
X92027Y-63090D01*
G54D87*
X89862Y-62106D02*
X90059Y-62303D01*
G54D86*
X91043Y-65649D02*
X91240Y-65846D01*
X91043Y-66043D02*
X91240Y-66240D01*
X91043Y-67618D02*
X91240Y-67814D01*
X90255Y-63681D02*
X90452Y-63877D01*
G54D93*
X87854Y-68228D02*
X87854Y-68602D01*
G54D91*
X87854Y-67598D02*
X87854Y-68228D01*
X87854Y-66968D02*
X87854Y-67598D01*
G54D93*
X87598Y-68858D02*
X87421Y-68858D01*
X87854Y-68602D02*
X87598Y-68858D01*
G54D87*
X85314Y-68228D02*
X85531Y-68228D01*
G54D89*
X87972Y-68228D02*
X87204Y-68228D01*
X87204Y-67598D02*
X87972Y-67598D01*
X87204Y-66968D02*
X87854Y-66968D01*
G54D87*
X87204Y-66338D02*
X87401Y-66338D01*
X85314Y-66968D02*
X85531Y-66968D01*
X84488Y-68858D02*
X84685Y-68858D01*
X84488Y-68228D02*
X84685Y-68228D01*
X84488Y-67598D02*
X84685Y-67598D01*
X84488Y-66968D02*
X84685Y-66968D01*
X84488Y-66338D02*
X84685Y-66338D01*
X84685Y-70748D02*
X84488Y-70748D01*
X87421Y-69803D02*
X87204Y-69803D01*
X87421Y-68858D02*
X87204Y-68858D01*
X86574Y-68228D02*
X86377Y-68228D01*
X86574Y-66968D02*
X86377Y-66968D01*
X87204Y-62490D02*
X87440Y-62253D01*
G54D86*
X87381Y-63346D02*
X87401Y-63326D01*
X85413Y-64507D02*
X85492Y-64507D01*
G54D87*
X87204Y-62716D02*
X87204Y-62490D01*
G54D86*
X87381Y-63346D02*
X87204Y-63346D01*
X87204Y-60826D02*
X87342Y-60964D01*
X86437Y-63208D02*
X86574Y-63346D01*
X87204Y-64606D02*
X87047Y-64448D01*
X87204Y-63966D02*
X87057Y-63818D01*
X87204Y-63966D02*
X87204Y-63976D01*
X86574Y-64606D02*
X86437Y-64468D01*
X87204Y-65472D02*
X87204Y-65236D01*
X84488Y-61771D02*
X84685Y-61771D01*
X84488Y-62716D02*
X84685Y-62716D01*
X85314Y-63346D02*
X85511Y-63346D01*
X84488Y-63346D02*
X84685Y-63346D01*
X84488Y-63976D02*
X84685Y-63976D01*
X85314Y-64606D02*
X85413Y-64507D01*
X84488Y-64606D02*
X84685Y-64606D01*
X84488Y-65236D02*
X84685Y-65236D01*
X87204Y-62716D02*
X87165Y-62716D01*
G54D89*
X87854Y-66968D02*
X87972Y-66968D01*
X95000Y-58444D02*
X95000Y-58248D01*
X96011Y-58334D02*
X96011Y-58444D01*
X95826Y-58149D02*
X96011Y-58334D01*
X95098Y-58149D02*
X95826Y-58149D01*
X95000Y-58248D02*
X95098Y-58149D01*
X96011Y-58444D02*
X96023Y-58444D01*
X96200Y-58622D02*
X96200Y-59901D01*
X96023Y-58444D02*
X96200Y-58622D01*
X95000Y-59192D02*
X95000Y-59870D01*
X95000Y-59870D02*
X94968Y-59901D01*
X94968Y-59901D02*
X95649Y-59901D01*
X95649Y-59901D02*
X96200Y-59901D01*
X96200Y-59901D02*
X96700Y-59901D01*
X96700Y-59901D02*
X97141Y-60342D01*
X81824Y-70879D02*
X81830Y-70885D01*
X81824Y-70118D02*
X81824Y-70879D01*
X86185Y-71492D02*
X86181Y-71496D01*
X86185Y-71492D02*
X86417Y-71492D01*
X86417Y-71492D02*
X86889Y-71492D01*
X86889Y-71492D02*
X87370Y-71492D01*
X87370Y-71492D02*
X87846Y-71492D01*
X83602Y-48094D02*
X83602Y-47854D01*
G54D86*
X89830Y-51956D02*
X89862Y-51988D01*
X89740Y-51956D02*
X89830Y-51956D01*
X89862Y-51988D02*
X89862Y-52224D01*
G54D85*
X80381Y-66913D02*
X80381Y-69047D01*
X80381Y-69047D02*
X80535Y-69200D01*
X80381Y-66913D02*
X79259Y-66913D01*
X79051Y-66704D02*
X78838Y-66704D01*
X79259Y-66913D02*
X79051Y-66704D01*
X98429Y-61444D02*
X97972Y-61444D01*
X97972Y-61444D02*
X97858Y-61444D01*
X97858Y-61444D02*
X97771Y-61358D01*
G54D87*
X95661Y-72275D02*
X95728Y-72342D01*
X98429Y-61444D02*
X98645Y-61444D01*
X98645Y-61444D02*
X98811Y-61279D01*
X98811Y-61279D02*
X98811Y-60870D01*
X98811Y-60870D02*
X97889Y-59948D01*
X97889Y-59948D02*
X97889Y-59539D01*
X97889Y-59539D02*
X98460Y-58968D01*
X97389Y-56200D02*
X95637Y-56200D01*
X98460Y-57271D02*
X97389Y-56200D01*
X98460Y-58968D02*
X98460Y-57271D01*
G54D85*
X81824Y-69395D02*
X81824Y-70118D01*
X80535Y-69200D02*
X81629Y-69200D01*
X81629Y-69200D02*
X81824Y-69395D01*
G54D87*
X95661Y-72275D02*
X95661Y-72106D01*
X94586Y-62893D02*
X94783Y-63090D01*
G54D86*
X96161Y-62893D02*
X96358Y-63090D01*
X95374Y-62893D02*
X95570Y-63090D01*
X96948Y-62893D02*
X97145Y-63090D01*
G54D89*
X89263Y-39881D02*
X89055Y-39881D01*
G54D87*
X71281Y-48946D02*
X71281Y-48722D01*
X71281Y-48722D02*
X71279Y-48720D01*
G54D90*
X90086Y-51799D02*
X89740Y-51799D01*
G54D89*
X77625Y-68708D02*
X77618Y-68700D01*
X77625Y-68708D02*
X77625Y-68937D01*
X77625Y-69370D02*
X77625Y-68937D01*
X77625Y-69803D02*
X77625Y-69370D01*
X77625Y-70236D02*
X77625Y-69803D01*
G54D86*
X83464Y-54468D02*
X83464Y-55204D01*
X83464Y-55204D02*
X83476Y-55216D01*
G54D87*
X106232Y-48574D02*
X106279Y-48622D01*
X106279Y-48622D02*
X107401Y-48622D01*
X106232Y-48385D02*
X106232Y-48574D01*
X106232Y-47874D02*
X106232Y-48385D01*
G54D89*
X81283Y-38545D02*
X80986Y-38545D01*
X80986Y-38545D02*
X80984Y-38543D01*
G54D91*
X82513Y-38566D02*
X82513Y-35811D01*
G54D85*
X81771Y-38551D02*
X82497Y-38551D01*
X82497Y-38551D02*
X82513Y-38566D01*
X81771Y-38551D02*
X81288Y-38551D01*
X81288Y-38551D02*
X81283Y-38545D01*
G54D89*
X102402Y-66139D02*
X102561Y-66299D01*
X103188Y-66299D02*
X102561Y-66299D01*
G54D87*
X80468Y-49527D02*
X80472Y-49523D01*
G54D90*
X89106Y-51566D02*
X89263Y-51566D01*
G54D89*
X86310Y-48740D02*
X86452Y-48740D01*
X86452Y-48740D02*
X86456Y-48744D01*
G54D87*
X86220Y-48830D02*
X86310Y-48740D01*
G54D85*
X83027Y-48740D02*
X83023Y-48736D01*
G54D89*
X91822Y-47177D02*
X91830Y-47185D01*
G54D85*
X90019Y-46082D02*
X90019Y-46082D01*
X90354Y-46082D02*
X90354Y-46082D01*
G54D89*
X90600Y-43572D02*
X90610Y-43562D01*
G54D90*
X86814Y-74035D02*
X86531Y-73751D01*
X86531Y-73751D02*
X85098Y-73751D01*
X85098Y-73751D02*
X84877Y-73972D01*
X87566Y-74035D02*
X86814Y-74035D01*
X95389Y-74196D02*
X95389Y-74488D01*
X96326Y-74196D02*
X96326Y-74503D01*
X97196Y-74208D02*
X97196Y-74500D01*
X97196Y-74500D02*
X97200Y-74503D01*
G54D89*
X88708Y-42834D02*
X88818Y-42834D01*
X88818Y-42834D02*
X88937Y-42834D01*
X90600Y-43572D02*
X90391Y-43572D01*
X90610Y-44980D02*
X90391Y-44980D01*
X91594Y-47177D02*
X91822Y-47177D01*
G54D85*
X90019Y-46082D02*
X90019Y-45708D01*
X90354Y-46437D02*
X90354Y-46082D01*
G54D86*
X89188Y-51799D02*
X89188Y-51779D01*
X89263Y-51566D02*
X89307Y-51523D01*
G54D90*
X89307Y-51523D02*
X89307Y-51681D01*
X89307Y-51681D02*
X89188Y-51799D01*
G54D87*
X86220Y-48968D02*
X86220Y-48830D01*
G54D89*
X85909Y-48740D02*
X86310Y-48740D01*
X85618Y-48476D02*
X85669Y-48476D01*
X85909Y-48716D02*
X85909Y-48740D01*
X85669Y-48476D02*
X85909Y-48716D01*
G54D87*
X85618Y-48476D02*
X85645Y-48476D01*
G54D85*
X85216Y-48476D02*
X85216Y-47893D01*
X84744Y-47716D02*
X84267Y-48192D01*
X85039Y-47716D02*
X84744Y-47716D01*
X85216Y-47893D02*
X85039Y-47716D01*
X83862Y-48188D02*
X84086Y-48188D01*
X84086Y-48188D02*
X84090Y-48192D01*
X83027Y-48913D02*
X83027Y-48740D01*
X85216Y-48476D02*
X85618Y-48476D01*
X84090Y-48192D02*
X84267Y-48192D01*
X84267Y-48192D02*
X84338Y-48192D01*
X84338Y-48192D02*
X84429Y-48283D01*
G54D87*
X80224Y-49070D02*
X80224Y-49523D01*
X80224Y-49523D02*
X80228Y-49527D01*
X80228Y-49527D02*
X80468Y-49527D01*
G54D92*
X92875Y-72411D02*
X92933Y-72354D01*
G54D10*
X92746Y-72411D02*
X92529Y-72411D01*
G54D92*
X92746Y-72411D02*
X92875Y-72411D01*
G54D86*
X102076Y-72303D02*
X102244Y-72470D01*
X103681Y-35157D02*
X103452Y-35157D01*
G54D89*
X87078Y-48051D02*
X86870Y-48051D01*
G54D91*
X110039Y-46240D02*
X110039Y-46476D01*
X110039Y-46476D02*
X110039Y-46692D01*
X110039Y-46476D02*
X110039Y-46712D01*
X110039Y-46712D02*
X110039Y-46929D01*
X109724Y-43163D02*
X110112Y-43163D01*
X110118Y-46846D02*
X110037Y-46927D01*
X110037Y-46927D02*
X109801Y-47163D01*
X110118Y-43169D02*
X110118Y-46846D01*
X110112Y-43163D02*
X110118Y-43169D01*
X109803Y-46929D02*
X109803Y-47165D01*
X109803Y-46712D02*
X109803Y-46929D01*
X109803Y-46476D02*
X109803Y-46712D01*
G54D85*
X109803Y-47165D02*
X109801Y-47163D01*
G54D91*
X109250Y-43163D02*
X109724Y-43163D01*
X109724Y-43163D02*
X109797Y-43163D01*
G54D85*
X109797Y-43163D02*
X109803Y-43169D01*
G54D91*
X109803Y-43169D02*
X109803Y-44163D01*
X109250Y-44163D02*
X109803Y-44163D01*
X109803Y-44163D02*
X109803Y-45163D01*
X109250Y-45163D02*
X109803Y-45163D01*
X109803Y-45163D02*
X109803Y-46161D01*
G54D85*
X109803Y-46163D02*
X109803Y-46161D01*
G54D91*
X109801Y-47163D02*
X109250Y-47163D01*
X109803Y-46161D02*
X109803Y-46476D01*
G54D85*
X108750Y-43663D02*
X109250Y-43163D01*
X90019Y-45708D02*
X90019Y-45708D01*
X90019Y-45708D02*
X89332Y-45708D01*
G54D89*
X90354Y-47045D02*
X91088Y-47045D01*
G54D85*
X90354Y-46437D02*
X90354Y-47045D01*
X90354Y-47045D02*
X90354Y-47045D01*
G54D89*
X91088Y-47045D02*
X91220Y-47177D01*
X91594Y-47177D02*
X91220Y-47177D01*
X106751Y-73848D02*
X106379Y-73848D01*
X106379Y-73848D02*
X106377Y-73846D01*
X107086Y-73846D02*
X106753Y-73846D01*
X106753Y-73846D02*
X106751Y-73848D01*
G54D86*
X101771Y-72303D02*
X102076Y-72303D01*
X103287Y-74212D02*
X103287Y-73858D01*
X105000Y-73090D02*
X104694Y-73090D01*
X104271Y-71250D02*
X104271Y-70984D01*
X104694Y-73090D02*
X104586Y-72982D01*
X104271Y-71250D02*
X104370Y-71348D01*
X86417Y-50059D02*
X86417Y-49517D01*
X82736Y-50984D02*
X82145Y-50984D01*
X82736Y-51968D02*
X82303Y-51968D01*
X82736Y-53149D02*
X82303Y-53149D01*
X83267Y-54468D02*
X83464Y-54468D01*
X84251Y-50059D02*
X84251Y-49635D01*
G54D10*
X90147Y-71761D02*
X90147Y-71545D01*
X91092Y-71761D02*
X91092Y-71545D01*
X92529Y-74301D02*
X92746Y-74301D01*
G54D87*
X96948Y-66830D02*
X97145Y-67027D01*
G54D86*
X98129Y-69586D02*
X98326Y-69783D01*
X96555Y-68799D02*
X96751Y-68996D01*
X95767Y-68799D02*
X95964Y-68996D01*
X96948Y-68405D02*
X97145Y-68602D01*
X96948Y-67618D02*
X97145Y-67814D01*
X96948Y-66043D02*
X97145Y-66240D01*
X94980Y-69192D02*
X95177Y-69389D01*
X94192Y-68799D02*
X94389Y-68996D01*
X93011Y-68405D02*
X93208Y-68602D01*
X92224Y-68799D02*
X92421Y-68996D01*
X91437Y-68799D02*
X91633Y-68996D01*
X90649Y-68799D02*
X90846Y-68996D01*
G54D89*
X70649Y-51464D02*
X70649Y-51673D01*
X70944Y-55945D02*
X70944Y-55944D01*
G54D93*
X99940Y-44685D02*
X99940Y-45157D01*
X99940Y-45157D02*
X99783Y-45314D01*
X99783Y-45314D02*
X99133Y-45314D01*
G54D87*
X99295Y-45314D02*
X99783Y-45314D01*
X99862Y-45236D02*
X99862Y-44685D01*
X99783Y-45314D02*
X99862Y-45236D01*
G54D91*
X102086Y-44685D02*
X99940Y-44685D01*
X99940Y-44685D02*
X99862Y-44685D01*
X99862Y-44685D02*
X99133Y-44685D01*
G54D87*
X99295Y-45410D02*
X99403Y-45410D01*
X99403Y-45410D02*
X99496Y-45318D01*
X99295Y-45214D02*
X99295Y-45314D01*
X99295Y-45314D02*
X99295Y-45410D01*
X99496Y-45318D02*
X99399Y-45318D01*
X99399Y-45318D02*
X99295Y-45214D01*
X103437Y-45767D02*
X103366Y-45767D01*
G54D91*
X102637Y-45039D02*
X102637Y-44724D01*
G54D87*
X103366Y-45767D02*
X102637Y-45039D01*
G54D91*
X102047Y-44685D02*
X102086Y-44685D01*
X102086Y-44685D02*
X102598Y-44685D01*
X102598Y-44685D02*
X102637Y-44724D01*
X102283Y-44685D02*
X102047Y-44685D01*
G54D87*
X101697Y-44625D02*
X102224Y-44625D01*
X101695Y-44623D02*
X101697Y-44625D01*
X101697Y-44822D02*
X101697Y-44625D01*
X99295Y-44623D02*
X101695Y-44623D01*
X99295Y-44820D02*
X99295Y-44623D01*
G54D86*
X96948Y-63287D02*
X97145Y-63484D01*
X96948Y-64862D02*
X97145Y-65059D01*
X96948Y-65649D02*
X97145Y-65846D01*
X98129Y-62106D02*
X98326Y-62303D01*
X96555Y-64468D02*
X96751Y-64665D01*
X104635Y-74212D02*
X104468Y-74212D01*
X92224Y-69980D02*
X92421Y-70177D01*
X102500Y-70984D02*
X102500Y-70629D01*
X93799Y-67618D02*
X93996Y-67814D01*
X104271Y-74763D02*
X104271Y-74212D01*
X93011Y-69192D02*
X93208Y-69389D01*
X102696Y-71338D02*
X102696Y-70984D01*
X92618Y-68011D02*
X92814Y-68208D01*
X103877Y-75078D02*
X103877Y-74212D01*
X93405Y-68405D02*
X93602Y-68602D01*
X102893Y-70984D02*
X102893Y-70482D01*
X91043Y-68799D02*
X91240Y-68996D01*
X103484Y-74921D02*
X103484Y-74212D01*
X93405Y-68011D02*
X93602Y-68208D01*
X103681Y-74212D02*
X103681Y-73858D01*
X93405Y-67618D02*
X93602Y-67814D01*
X104074Y-73858D02*
X104074Y-74212D01*
X93011Y-67224D02*
X93208Y-67421D01*
X84842Y-68700D02*
X85000Y-68858D01*
X86889Y-62716D02*
X87027Y-62854D01*
G54D87*
X90649Y-62893D02*
X90846Y-63090D01*
X91437Y-64862D02*
X91633Y-65059D01*
G54D86*
X91830Y-65649D02*
X92027Y-65846D01*
X89862Y-62893D02*
X90059Y-63090D01*
G54D87*
X91043Y-66830D02*
X91240Y-67027D01*
X90255Y-68405D02*
X90452Y-68602D01*
G54D86*
X91437Y-66043D02*
X91633Y-66240D01*
X91437Y-67618D02*
X91633Y-67814D01*
G54D10*
X88887Y-72568D02*
X88877Y-72578D01*
X89498Y-72568D02*
X88887Y-72568D01*
G54D86*
X91043Y-69192D02*
X91240Y-69389D01*
G54D10*
X89498Y-72096D02*
X89498Y-71161D01*
G54D86*
X91830Y-69192D02*
X92027Y-69389D01*
X92618Y-68405D02*
X92814Y-68602D01*
G54D10*
X92746Y-72096D02*
X92529Y-72096D01*
G54D86*
X96948Y-61712D02*
X97145Y-61909D01*
G54D92*
X97196Y-73385D02*
X97196Y-73429D01*
G54D10*
X89832Y-71761D02*
X89832Y-71545D01*
G54D90*
X97196Y-73181D02*
X97196Y-73385D01*
X97196Y-73385D02*
X97196Y-73838D01*
G54D86*
X92224Y-69586D02*
X92421Y-69783D01*
G54D10*
X90305Y-71761D02*
X90305Y-71377D01*
G54D86*
X90255Y-69586D02*
X90452Y-69783D01*
G54D10*
X89994Y-71381D02*
X89994Y-71761D01*
X89994Y-71381D02*
X89990Y-71377D01*
G54D86*
X91830Y-68799D02*
X92027Y-68996D01*
G54D10*
X89301Y-73356D02*
X89271Y-73385D01*
X89301Y-73356D02*
X89498Y-73356D01*
G54D86*
X95767Y-69980D02*
X95964Y-70177D01*
X92224Y-68405D02*
X92421Y-68602D01*
G54D10*
X92194Y-71377D02*
X92194Y-71761D01*
G54D92*
X92568Y-71344D02*
X92568Y-71391D01*
X92921Y-72141D02*
X92809Y-72253D01*
X92921Y-71744D02*
X92921Y-72141D01*
X92568Y-71391D02*
X92921Y-71744D01*
X92568Y-71344D02*
X92570Y-71346D01*
G54D10*
X92809Y-72253D02*
X92529Y-72253D01*
G54D86*
X92224Y-68011D02*
X92421Y-68208D01*
G54D10*
G36*
X109566Y-41676D02*
X108307Y-42936D01*
X108307Y-45826D01*
X107480Y-45826D01*
X107480Y-36906D01*
X108661Y-35724D01*
X108661Y-35196D01*
X109566Y-35196D01*
X109566Y-41676D01*
X109566Y-41676D01*
G37*
G54D86*
X109566Y-41676D02*
X108307Y-42936D01*
X108307Y-45826D01*
X107480Y-45826D01*
X107480Y-36906D01*
X108661Y-35724D01*
X108661Y-35196D01*
X109566Y-35196D01*
X109566Y-41676D01*
M02*
