G04 (created by PCBNEW (2013-07-07 BZR 4022)-stable) date 10/02/2015 04:29:17*
%MOIN*%
G04 Gerber Fmt 3.4, Leading zero omitted, Abs format*
%FSLAX34Y34*%
G01*
G70*
G90*
G04 APERTURE LIST*
%ADD10C,0.00590551*%
%ADD11R,0.0273X0.0273*%
%ADD12R,0.0392X0.0392*%
%ADD13R,0.0472X0.0295*%
%ADD14R,0.0295X0.0472*%
%ADD15R,0.0433071X0.0275591*%
%ADD16R,0.0570866X0.0393701*%
%ADD17R,0.0393701X0.0570866*%
%ADD18R,0.0299213X0.0181102*%
%ADD19R,0.0181102X0.0299213*%
%ADD20R,0.0925197X0.0925197*%
%ADD21R,0.055074X0.066974*%
%ADD22R,0.0433071X0.0551181*%
%ADD23R,0.0590551X0.0472441*%
%ADD24R,0.0118X0.0374*%
%ADD25R,0.0374X0.0118*%
%ADD26R,0.0886X0.0886*%
%ADD27R,0.063637X0.063637*%
%ADD28C,0.063637*%
%ADD29R,0.0137795X0.011811*%
%ADD30R,0.011811X0.0137795*%
%ADD31R,0.0276X0.0866*%
%ADD32R,0.0866X0.0276*%
%ADD33C,0.23622*%
%ADD34R,0.06X0.08*%
%ADD35R,0.08X0.06*%
%ADD36R,0.0771654X0.0948819*%
%ADD37R,0.0417323X0.0811024*%
%ADD38O,0.0299213X0.0181102*%
%ADD39O,0.0181102X0.0299213*%
%ADD40C,0.0850394*%
%ADD41R,0.0472441X0.0275591*%
%ADD42R,0.019685X0.015748*%
%ADD43C,0.023622*%
%ADD44R,0.0669291X0.015748*%
%ADD45O,0.0669291X0.015748*%
%ADD46R,0.065748X0.0779528*%
%ADD47R,0.0236X0.0472*%
%ADD48R,0.0353X0.0392*%
%ADD49R,0.0392X0.0353*%
%ADD50R,0.0273X0.0253*%
%ADD51R,0.0253X0.0273*%
%ADD52O,0.0273X0.0155*%
%ADD53R,0.0273X0.0155*%
%ADD54O,0.0155X0.0273*%
%ADD55R,0.0155X0.0273*%
%ADD56R,0.0275591X0.0393701*%
%ADD57R,0.0393701X0.0275591*%
%ADD58C,0.216535*%
%ADD59R,0.0787X0.0984*%
%ADD60R,0.0354X0.0551*%
%ADD61R,0.0236X0.0866*%
%ADD62R,0.1339X0.1008*%
%ADD63R,0.2039X0.0563*%
%ADD64R,0.0114X0.0283*%
%ADD65C,0.0708661*%
%ADD66C,0.0590551*%
%ADD67C,0.0984252*%
%ADD68C,0.145669*%
%ADD69C,0.0314961*%
%ADD70R,0.042126X0.120079*%
%ADD71R,0.419685X0.329921*%
%ADD72R,0.0551X0.0354*%
%ADD73R,0.059037X0.039337*%
%ADD74R,0.0165354X0.023622*%
%ADD75C,0.0433071*%
%ADD76C,0.0826772*%
%ADD77C,0.0496063*%
%ADD78C,0.0535433*%
%ADD79C,0.0944882*%
%ADD80C,0.0551181*%
%ADD81C,0.200787*%
%ADD82C,0.053937*%
%ADD83O,0.0259843X0.0122047*%
%ADD84O,0.0122047X0.0259843*%
%ADD85R,0.0437008X0.0496063*%
%ADD86R,0.0259843X0.0122047*%
%ADD87C,0.0354331*%
%ADD88R,0.0433071X0.0338583*%
%ADD89R,0.0338583X0.0433071*%
%ADD90R,0.039337X0.059037*%
%ADD91O,0.401575X0.0669291*%
%ADD92R,0.00984252X0.023622*%
%ADD93R,0.023622X0.00984252*%
%ADD94R,0.102362X0.102362*%
%ADD95C,0.0787402*%
%ADD96O,0.0590551X0.110236*%
%ADD97O,0.11811X0.0590551*%
%ADD98C,0.11811*%
%ADD99R,0.0511811X0.125984*%
%ADD100O,0.0393701X0.110236*%
%ADD101C,0.00787402*%
%ADD102C,0.01*%
G04 APERTURE END LIST*
G54D10*
G54D11*
X77086Y-57539D03*
X77440Y-57539D03*
G54D12*
X67322Y-86220D03*
X115748Y-86220D03*
X115748Y-31889D03*
G54D13*
X89409Y-75792D03*
X89409Y-75192D03*
G54D14*
X81412Y-51377D03*
X82012Y-51377D03*
G54D15*
X94330Y-80354D03*
X94330Y-79724D03*
G54D16*
X75511Y-62362D03*
X75511Y-61653D03*
X74803Y-62362D03*
X74803Y-61653D03*
X74094Y-62362D03*
X74094Y-61653D03*
X78582Y-61574D03*
X78582Y-62283D03*
G54D17*
X94330Y-80866D03*
X95039Y-80866D03*
G54D18*
X75944Y-55157D03*
X75944Y-54763D03*
X75944Y-54566D03*
X75944Y-54960D03*
X76338Y-54763D03*
X76338Y-55157D03*
X76338Y-54566D03*
G54D19*
X75748Y-55541D03*
X75944Y-55541D03*
X76338Y-55541D03*
X76141Y-55541D03*
X76535Y-55541D03*
X76535Y-54183D03*
X76141Y-54183D03*
X76338Y-54183D03*
X75944Y-54183D03*
X75748Y-54183D03*
G54D18*
X76820Y-55255D03*
X76820Y-55059D03*
X76820Y-54665D03*
X76820Y-54862D03*
X76820Y-54468D03*
X75462Y-54468D03*
X75462Y-54862D03*
X75462Y-54665D03*
X75462Y-55059D03*
G54D20*
X76141Y-54862D03*
G54D18*
X75462Y-55255D03*
X76338Y-54960D03*
G54D21*
X72303Y-59425D03*
X72303Y-57425D03*
X70571Y-57425D03*
X70571Y-59425D03*
G54D22*
X71437Y-57224D03*
X71437Y-59625D03*
G54D23*
X97106Y-48523D03*
X97106Y-49389D03*
X98602Y-49389D03*
X98602Y-48523D03*
G54D24*
X75716Y-57539D03*
X75520Y-57539D03*
X75323Y-57539D03*
X75126Y-57539D03*
X74929Y-57539D03*
G54D25*
X74567Y-57901D03*
X74567Y-58098D03*
X74567Y-58295D03*
X74567Y-58492D03*
X74567Y-58688D03*
G54D24*
X74929Y-59055D03*
X75126Y-59055D03*
X75323Y-59055D03*
X75520Y-59055D03*
X75716Y-59055D03*
G54D25*
X76083Y-58692D03*
X76083Y-58496D03*
X76083Y-58299D03*
X76083Y-58102D03*
X76083Y-57905D03*
G54D26*
X75326Y-58299D03*
G54D27*
X108083Y-35511D03*
G54D28*
X109083Y-35511D03*
G54D29*
X91830Y-67903D03*
X91830Y-68120D03*
G54D30*
X90541Y-68405D03*
X90757Y-68405D03*
G54D29*
X91830Y-66328D03*
X91830Y-66545D03*
G54D30*
X91151Y-67224D03*
X90935Y-67224D03*
G54D29*
X90649Y-63179D03*
X90649Y-63395D03*
G54D30*
X89812Y-63257D03*
X89596Y-63257D03*
X91722Y-65255D03*
X91938Y-65255D03*
X92116Y-65649D03*
X92332Y-65649D03*
G54D29*
X95374Y-69301D03*
X95374Y-69084D03*
X94586Y-69084D03*
X94586Y-69301D03*
G54D30*
X90364Y-63681D03*
X90147Y-63681D03*
X91151Y-66043D03*
X90935Y-66043D03*
G54D29*
X92224Y-63001D03*
X92224Y-62785D03*
X89862Y-62214D03*
X89862Y-61998D03*
X90649Y-67116D03*
X90649Y-67332D03*
X93405Y-63001D03*
X93405Y-62785D03*
X96948Y-68907D03*
X96948Y-68690D03*
X93011Y-63001D03*
X93011Y-62785D03*
G54D30*
X91131Y-62893D03*
X91348Y-62893D03*
G54D29*
X95374Y-63001D03*
X95374Y-62785D03*
X96948Y-63001D03*
X96948Y-62785D03*
X96555Y-63001D03*
X96555Y-62785D03*
X94980Y-63001D03*
X94980Y-62785D03*
X93011Y-68690D03*
X93011Y-68907D03*
G54D30*
X97234Y-67618D03*
X97450Y-67618D03*
X97234Y-66830D03*
X97450Y-66830D03*
X97234Y-66437D03*
X97450Y-66437D03*
G54D29*
X98533Y-69872D03*
X98533Y-70088D03*
G54D30*
X91151Y-65255D03*
X90935Y-65255D03*
X91151Y-63287D03*
X90935Y-63287D03*
G54D29*
X92224Y-69084D03*
X92224Y-69301D03*
X90649Y-69084D03*
X90649Y-69301D03*
X91437Y-68907D03*
X91437Y-68690D03*
G54D30*
X97234Y-68405D03*
X97450Y-68405D03*
X91151Y-68809D03*
X90935Y-68809D03*
G54D29*
X91043Y-67726D03*
X91043Y-67509D03*
X91437Y-66328D03*
X91437Y-66545D03*
X89862Y-69872D03*
X89862Y-70088D03*
X96161Y-69084D03*
X96161Y-69301D03*
X96948Y-64773D03*
X96948Y-64557D03*
X97342Y-65738D03*
X97342Y-65954D03*
X97342Y-64970D03*
X97342Y-64753D03*
G54D30*
X97261Y-63669D03*
X97478Y-63669D03*
G54D29*
X98543Y-62214D03*
X98543Y-61998D03*
X91830Y-63789D03*
X91830Y-63572D03*
X96555Y-68297D03*
X96555Y-68513D03*
X96555Y-63789D03*
X96555Y-63572D03*
G54D30*
X91722Y-68405D03*
X91938Y-68405D03*
X96053Y-63681D03*
X96269Y-63681D03*
G54D29*
X92224Y-63789D03*
X92224Y-63572D03*
G54D30*
X91938Y-68799D03*
X91722Y-68799D03*
X96446Y-68799D03*
X96663Y-68799D03*
G54D31*
X79330Y-50275D03*
X78830Y-50275D03*
X78330Y-50275D03*
X77830Y-50275D03*
X77830Y-48306D03*
X78330Y-48306D03*
X78830Y-48306D03*
X79330Y-48306D03*
G54D32*
X81850Y-63346D03*
X81850Y-63846D03*
X81850Y-64346D03*
X81850Y-64846D03*
X79881Y-64846D03*
X79881Y-64346D03*
X79881Y-63846D03*
X79881Y-63346D03*
X90066Y-57811D03*
X90066Y-58311D03*
X90066Y-58811D03*
X90066Y-59311D03*
X88097Y-59311D03*
X88097Y-58811D03*
X88097Y-58311D03*
X88097Y-57811D03*
G54D31*
X101742Y-61978D03*
X101242Y-61978D03*
X100742Y-61978D03*
X100242Y-61978D03*
X100242Y-60009D03*
X100742Y-60009D03*
X101242Y-60009D03*
X101742Y-60009D03*
G54D33*
X111732Y-82283D03*
X111732Y-36141D03*
X71220Y-36141D03*
X71220Y-82283D03*
G54D16*
X106574Y-48720D03*
X106574Y-49429D03*
G54D34*
X80334Y-45826D03*
X81634Y-45826D03*
X80334Y-46929D03*
X81634Y-46929D03*
G54D35*
X76692Y-46319D03*
X76692Y-45019D03*
X77952Y-45650D03*
X77952Y-44350D03*
G54D36*
X76988Y-61407D03*
G54D37*
X77165Y-62362D03*
G54D38*
X77874Y-62490D03*
X77874Y-62746D03*
X77874Y-61978D03*
X77874Y-62234D03*
X77874Y-61722D03*
X77874Y-61466D03*
X76377Y-60954D03*
X76377Y-61210D03*
X76377Y-61722D03*
X76377Y-61466D03*
X76377Y-62490D03*
X76377Y-62746D03*
G54D39*
X77509Y-60708D03*
X77253Y-60708D03*
X76742Y-62992D03*
X76998Y-62992D03*
G54D38*
X77874Y-60954D03*
X77874Y-61210D03*
X76377Y-62234D03*
X76377Y-61978D03*
G54D39*
X77253Y-62992D03*
G54D19*
X77509Y-62992D03*
G54D39*
X76998Y-60708D03*
X76742Y-60708D03*
G54D11*
X75334Y-61141D03*
X75688Y-61141D03*
G54D17*
X79842Y-70551D03*
X79133Y-70551D03*
G54D16*
X81456Y-71811D03*
X81456Y-72519D03*
X80826Y-71811D03*
X80826Y-72519D03*
G54D29*
X91043Y-65757D03*
X91043Y-65541D03*
G54D30*
X91437Y-66043D03*
X91653Y-66043D03*
G54D29*
X90255Y-65364D03*
X90255Y-65147D03*
X89812Y-64576D03*
X89812Y-64360D03*
G54D30*
X89753Y-64862D03*
X89970Y-64862D03*
G54D29*
X91830Y-65757D03*
X91830Y-65541D03*
G54D30*
X90226Y-64862D03*
X90442Y-64862D03*
X90561Y-62500D03*
X90344Y-62500D03*
G54D29*
X91830Y-64360D03*
X91830Y-64576D03*
G54D30*
X91387Y-64862D03*
X91171Y-64862D03*
G54D29*
X90649Y-64576D03*
X90649Y-64360D03*
G54D30*
X91643Y-64862D03*
X91860Y-64862D03*
X90147Y-62893D03*
X90364Y-62893D03*
X89625Y-65147D03*
X89842Y-65147D03*
G54D29*
X91437Y-65757D03*
X91437Y-65541D03*
X90255Y-64576D03*
X90255Y-64360D03*
X91437Y-63179D03*
X91437Y-63395D03*
X91240Y-61515D03*
X91240Y-61732D03*
X90255Y-63179D03*
X90255Y-63395D03*
G54D30*
X90629Y-62893D03*
X90846Y-62893D03*
G54D29*
X91437Y-64104D03*
X91437Y-63887D03*
X90452Y-61515D03*
X90452Y-61732D03*
G54D30*
X89645Y-62696D03*
X89862Y-62696D03*
G54D29*
X91043Y-62519D03*
X91043Y-62303D03*
X89812Y-63789D03*
X89812Y-63572D03*
X90846Y-61515D03*
X90846Y-61732D03*
X91043Y-64566D03*
X91043Y-64350D03*
X92647Y-64576D03*
X92647Y-64360D03*
X93405Y-63572D03*
X93405Y-63789D03*
X93011Y-63572D03*
X93011Y-63789D03*
X92224Y-64576D03*
X92224Y-64360D03*
X92618Y-63277D03*
X92618Y-63061D03*
X92618Y-63789D03*
X92618Y-63572D03*
X91830Y-62480D03*
X91830Y-62696D03*
X91830Y-63316D03*
X91830Y-63100D03*
G54D30*
X92116Y-64862D03*
X92332Y-64862D03*
G54D29*
X91437Y-62519D03*
X91437Y-62303D03*
X90649Y-64074D03*
X90649Y-63858D03*
X91437Y-64576D03*
X91437Y-64360D03*
X90649Y-65757D03*
X90649Y-65541D03*
X91043Y-64094D03*
X91043Y-63877D03*
X91830Y-67332D03*
X91830Y-67116D03*
X92224Y-67342D03*
X92224Y-67125D03*
X91043Y-67982D03*
X91043Y-68198D03*
X92618Y-68120D03*
X92618Y-67903D03*
G54D30*
X89596Y-68996D03*
X89812Y-68996D03*
X92411Y-68405D03*
X92194Y-68405D03*
G54D29*
X90255Y-69192D03*
X90255Y-68976D03*
G54D30*
X93080Y-68011D03*
X92864Y-68011D03*
X90147Y-69586D03*
X90364Y-69586D03*
X89596Y-68208D03*
X89812Y-68208D03*
G54D29*
X92224Y-68120D03*
X92224Y-67903D03*
G54D30*
X91515Y-67618D03*
X91299Y-67618D03*
X92332Y-66437D03*
X92116Y-66437D03*
X92637Y-66830D03*
X92421Y-66830D03*
G54D29*
X92618Y-66072D03*
X92618Y-65856D03*
X92618Y-65236D03*
X92618Y-65452D03*
G54D30*
X92805Y-64862D03*
X92588Y-64862D03*
X90698Y-64862D03*
X90915Y-64862D03*
G54D29*
X92618Y-66545D03*
X92618Y-66328D03*
G54D30*
X89625Y-65452D03*
X89842Y-65452D03*
G54D29*
X90649Y-67933D03*
X90649Y-68149D03*
X91437Y-67332D03*
X91437Y-67116D03*
G54D30*
X89596Y-69389D03*
X89812Y-69389D03*
X89596Y-68602D03*
X89812Y-68602D03*
G54D29*
X92618Y-67116D03*
X92618Y-67332D03*
X91437Y-67903D03*
X91437Y-68120D03*
G54D30*
X89596Y-67814D03*
X89812Y-67814D03*
X91988Y-67618D03*
X91771Y-67618D03*
G54D29*
X91043Y-66830D03*
X91043Y-66614D03*
G54D30*
X89596Y-66633D03*
X89812Y-66633D03*
X90147Y-67618D03*
X90364Y-67618D03*
G54D29*
X90255Y-67244D03*
X90255Y-67027D03*
G54D30*
X89596Y-67421D03*
X89812Y-67421D03*
X90147Y-66437D03*
X90364Y-66437D03*
X92332Y-66043D03*
X92116Y-66043D03*
X91328Y-66830D03*
X91545Y-66830D03*
G54D29*
X90649Y-66742D03*
X90649Y-66525D03*
X90255Y-68090D03*
X90255Y-67874D03*
G54D30*
X89596Y-67027D03*
X89812Y-67027D03*
G54D29*
X90649Y-65088D03*
X90649Y-65305D03*
G54D30*
X92460Y-67618D03*
X92244Y-67618D03*
G54D40*
X70885Y-63562D03*
X72814Y-63799D03*
X72814Y-69507D03*
X70885Y-69744D03*
G54D41*
X75000Y-64980D03*
X75000Y-63523D03*
G54D42*
X89645Y-81348D03*
X89645Y-80777D03*
G54D43*
X78838Y-71948D03*
X78838Y-71476D03*
X79192Y-71476D03*
X79192Y-71948D03*
G54D44*
X78188Y-71318D03*
X78188Y-71515D03*
G54D45*
X79842Y-71318D03*
G54D44*
X79842Y-71515D03*
X79842Y-71712D03*
X79842Y-71909D03*
X79842Y-72106D03*
X78188Y-72106D03*
X78188Y-71909D03*
X78188Y-71712D03*
G54D46*
X79015Y-71712D03*
G54D43*
X79015Y-71712D03*
G54D47*
X102696Y-79606D03*
X102321Y-78606D03*
X103071Y-78606D03*
X102321Y-79606D03*
X102696Y-78606D03*
X103071Y-79606D03*
G54D11*
X95767Y-66456D03*
X95767Y-66810D03*
X89281Y-66633D03*
X89281Y-66279D03*
X89517Y-69803D03*
X89517Y-70157D03*
X91348Y-61121D03*
X91348Y-60767D03*
X89281Y-65452D03*
X89281Y-65806D03*
X89468Y-64074D03*
X89468Y-63720D03*
X89291Y-62697D03*
X89291Y-63051D03*
X78188Y-72696D03*
X77834Y-72696D03*
X75874Y-59700D03*
X75874Y-60054D03*
X75523Y-56905D03*
X75169Y-56905D03*
X76732Y-58306D03*
X76732Y-57952D03*
X76732Y-57539D03*
X76732Y-57185D03*
X75925Y-56909D03*
X75925Y-56555D03*
X82716Y-40354D03*
X82716Y-40000D03*
X94153Y-67559D03*
X93799Y-67559D03*
X94940Y-67795D03*
X94940Y-67441D03*
X94625Y-67795D03*
X94625Y-67441D03*
X94586Y-65078D03*
X94586Y-65432D03*
X94192Y-65078D03*
X94192Y-65432D03*
X93799Y-65078D03*
X93799Y-65432D03*
X95157Y-65649D03*
X94803Y-65649D03*
X95157Y-66043D03*
X94803Y-66043D03*
X95236Y-66427D03*
X94882Y-66427D03*
X94586Y-67007D03*
X94586Y-66653D03*
X93799Y-67007D03*
X93799Y-66653D03*
X94192Y-67007D03*
X94192Y-66653D03*
X93061Y-66437D03*
X93415Y-66437D03*
X93061Y-66830D03*
X93415Y-66830D03*
X93415Y-67244D03*
X93415Y-67598D03*
X93061Y-65246D03*
X93415Y-65246D03*
X93061Y-66043D03*
X93415Y-66043D03*
X93061Y-65649D03*
X93415Y-65649D03*
X94133Y-53208D03*
X94133Y-52854D03*
X95236Y-50590D03*
X94882Y-50590D03*
X88503Y-74015D03*
X88149Y-74015D03*
X90078Y-71811D03*
X89724Y-71811D03*
X92460Y-72401D03*
X92460Y-72755D03*
X93267Y-74133D03*
X93621Y-74133D03*
X89566Y-72952D03*
X89566Y-73306D03*
X93267Y-73188D03*
X93621Y-73188D03*
X92559Y-75019D03*
X92559Y-75373D03*
X89566Y-74232D03*
X89566Y-73878D03*
X91673Y-75452D03*
X91673Y-75806D03*
X89901Y-74803D03*
X89901Y-75157D03*
X90570Y-75314D03*
X90216Y-75314D03*
X91771Y-71811D03*
X92125Y-71811D03*
X92460Y-74310D03*
X92460Y-73956D03*
X90787Y-71811D03*
X90433Y-71811D03*
X91102Y-71811D03*
X91456Y-71811D03*
X82047Y-51968D03*
X82047Y-52322D03*
X76693Y-53622D03*
X77047Y-53622D03*
X73248Y-57106D03*
X73248Y-56752D03*
X73936Y-57460D03*
X73582Y-57460D03*
X73956Y-59153D03*
X73956Y-59507D03*
X78554Y-74066D03*
X78200Y-74066D03*
X76263Y-73854D03*
X76617Y-73854D03*
X76610Y-79385D03*
X76610Y-79031D03*
X77622Y-79759D03*
X77622Y-79405D03*
X87027Y-62637D03*
X86673Y-62637D03*
X77460Y-71161D03*
X77460Y-70807D03*
X99566Y-49251D03*
X99212Y-49251D03*
X86830Y-65610D03*
X86830Y-65964D03*
X96141Y-48661D03*
X96495Y-48661D03*
X84261Y-61771D03*
X83907Y-61771D03*
X95708Y-54123D03*
X95708Y-53769D03*
X96338Y-52893D03*
X96338Y-53247D03*
X84842Y-68927D03*
X84842Y-69281D03*
X78503Y-41968D03*
X78149Y-41968D03*
X104015Y-71574D03*
X104015Y-71928D03*
X102460Y-72480D03*
X102460Y-72126D03*
X103287Y-73641D03*
X102933Y-73641D03*
X104586Y-72755D03*
X104232Y-72755D03*
X73952Y-58515D03*
X73598Y-58515D03*
X70688Y-56102D03*
X70334Y-56102D03*
X104370Y-71574D03*
X104724Y-71574D03*
X78503Y-41515D03*
X78149Y-41515D03*
X72480Y-55944D03*
X72834Y-55944D03*
X71673Y-55945D03*
X71673Y-56299D03*
X70688Y-55039D03*
X70334Y-55039D03*
X70688Y-54074D03*
X70334Y-54074D03*
X71673Y-53405D03*
X71319Y-53405D03*
X73326Y-54389D03*
X73326Y-54035D03*
X73326Y-55177D03*
X73326Y-55531D03*
X73936Y-57814D03*
X73582Y-57814D03*
X84251Y-49192D03*
X83897Y-49192D03*
X86417Y-49192D03*
X86771Y-49192D03*
X87480Y-74763D03*
X87834Y-74763D03*
X87834Y-76692D03*
X87480Y-76692D03*
X82135Y-50757D03*
X82489Y-50757D03*
X82441Y-51377D03*
X82795Y-51377D03*
X85980Y-49035D03*
X85980Y-48681D03*
X82992Y-54271D03*
X82992Y-53917D03*
X105433Y-69405D03*
X105433Y-69759D03*
X106039Y-79519D03*
X106393Y-79519D03*
X106035Y-78755D03*
X106389Y-78755D03*
X99236Y-78740D03*
X98882Y-78740D03*
X99239Y-79531D03*
X98885Y-79531D03*
X109724Y-72165D03*
X109370Y-72165D03*
X103409Y-69460D03*
X103409Y-69106D03*
X82047Y-53149D03*
X82047Y-53503D03*
X95236Y-50118D03*
X94882Y-50118D03*
X96623Y-51112D03*
X96269Y-51112D03*
X96102Y-53622D03*
X96456Y-53622D03*
X95984Y-52125D03*
X95984Y-51771D03*
X95078Y-52234D03*
X95078Y-52588D03*
X96151Y-55059D03*
X96151Y-55413D03*
X96673Y-52893D03*
X96673Y-53247D03*
X94330Y-50944D03*
X93976Y-50944D03*
X75570Y-56043D03*
X75216Y-56043D03*
X76318Y-56043D03*
X76318Y-56397D03*
X77381Y-55216D03*
X77381Y-55570D03*
X94330Y-50610D03*
X93976Y-50610D03*
X84261Y-63346D03*
X83907Y-63346D03*
X84261Y-63976D03*
X83907Y-63976D03*
X85787Y-64803D03*
X85787Y-65157D03*
X86968Y-64192D03*
X86614Y-64192D03*
X86210Y-64369D03*
X86210Y-64015D03*
X84261Y-64606D03*
X83907Y-64606D03*
X84261Y-65236D03*
X83907Y-65236D03*
X85433Y-66751D03*
X85433Y-66397D03*
X85246Y-63208D03*
X85246Y-62854D03*
X86437Y-68445D03*
X86437Y-68799D03*
X84261Y-66968D03*
X83907Y-66968D03*
X84261Y-70748D03*
X84261Y-71102D03*
X84261Y-66338D03*
X83907Y-66338D03*
X84261Y-67598D03*
X83907Y-67598D03*
X84261Y-62716D03*
X83907Y-62716D03*
X84261Y-68228D03*
X83907Y-68228D03*
X86840Y-63818D03*
X86486Y-63818D03*
X86200Y-63267D03*
X86200Y-63621D03*
X87559Y-62007D03*
X87559Y-61653D03*
X77460Y-60118D03*
X77814Y-60118D03*
X87697Y-69803D03*
X88051Y-69803D03*
X78503Y-42460D03*
X78149Y-42460D03*
X79665Y-40472D03*
X80019Y-40472D03*
X81043Y-40354D03*
X81043Y-40000D03*
X87697Y-68858D03*
X88051Y-68858D03*
X86377Y-66751D03*
X86023Y-66751D03*
X87184Y-66299D03*
X86830Y-66299D03*
X87559Y-60964D03*
X87559Y-61318D03*
X84261Y-68858D03*
X83907Y-68858D03*
G54D48*
X78325Y-51200D03*
X77895Y-51200D03*
G54D49*
X82755Y-64447D03*
X82755Y-64017D03*
G54D48*
X81832Y-62559D03*
X82262Y-62559D03*
G54D49*
X102559Y-61209D03*
X102559Y-60779D03*
X99586Y-61297D03*
X99586Y-60867D03*
X91023Y-58288D03*
X91023Y-58718D03*
G54D48*
X89053Y-60039D03*
X88623Y-60039D03*
G54D49*
X82145Y-48718D03*
X82145Y-48288D03*
G54D48*
X78820Y-51200D03*
X79250Y-51200D03*
G54D49*
X100255Y-72301D03*
X100255Y-71871D03*
X100688Y-72301D03*
X100688Y-71871D03*
G54D50*
X88858Y-81366D03*
X88858Y-80996D03*
X88070Y-81366D03*
X88070Y-80996D03*
G54D51*
X78397Y-61102D03*
X78767Y-61102D03*
X78818Y-40480D03*
X78448Y-40480D03*
G54D50*
X79153Y-40110D03*
X79153Y-40480D03*
G54D51*
X104559Y-48720D03*
X104929Y-48720D03*
X104283Y-49429D03*
X104653Y-49429D03*
X82393Y-65452D03*
X82763Y-65452D03*
X81503Y-65452D03*
X81133Y-65452D03*
X82767Y-64921D03*
X83137Y-64921D03*
G54D50*
X78326Y-51586D03*
X78326Y-51956D03*
G54D51*
X77251Y-49468D03*
X76881Y-49468D03*
G54D50*
X77244Y-49181D03*
X77244Y-48811D03*
G54D51*
X88570Y-73248D03*
X88200Y-73248D03*
G54D50*
X73366Y-66799D03*
X73366Y-66429D03*
X72992Y-66799D03*
X72992Y-66429D03*
X75523Y-60059D03*
X75523Y-59689D03*
X75161Y-60062D03*
X75161Y-59692D03*
X74826Y-60062D03*
X74826Y-59692D03*
G54D51*
X73594Y-58818D03*
X73964Y-58818D03*
X88200Y-72421D03*
X88570Y-72421D03*
X88200Y-72795D03*
X88570Y-72795D03*
G54D50*
X94035Y-48259D03*
X94035Y-48629D03*
X94527Y-56287D03*
X94527Y-55917D03*
X91043Y-52315D03*
X91043Y-52685D03*
X93848Y-56114D03*
X93848Y-56484D03*
G54D51*
X97535Y-55102D03*
X97905Y-55102D03*
X95917Y-50708D03*
X96287Y-50708D03*
G54D50*
X93346Y-49299D03*
X93346Y-48929D03*
X93011Y-49299D03*
X93011Y-48929D03*
X90003Y-53381D03*
X90003Y-53751D03*
X92086Y-50578D03*
X92086Y-50208D03*
G54D51*
X96287Y-50039D03*
X95917Y-50039D03*
X96287Y-50374D03*
X95917Y-50374D03*
G54D50*
X109724Y-71448D03*
X109724Y-71818D03*
X97736Y-60716D03*
X97736Y-60346D03*
X98070Y-60346D03*
X98070Y-60716D03*
X97401Y-60346D03*
X97401Y-60716D03*
G54D51*
X95263Y-56279D03*
X94893Y-56279D03*
G54D50*
X99074Y-60716D03*
X99074Y-60346D03*
X98405Y-60716D03*
X98405Y-60346D03*
X98740Y-60716D03*
X98740Y-60346D03*
G54D51*
X73582Y-58208D03*
X73952Y-58208D03*
G54D50*
X89232Y-60425D03*
X89232Y-60795D03*
G54D51*
X99181Y-61456D03*
X98811Y-61456D03*
G54D50*
X96594Y-76153D03*
X96594Y-76523D03*
X99586Y-62114D03*
X99586Y-61744D03*
G54D51*
X90519Y-60039D03*
X90149Y-60039D03*
X99584Y-62421D03*
X99214Y-62421D03*
G54D50*
X90846Y-60031D03*
X90846Y-60401D03*
G54D51*
X77078Y-71909D03*
X77448Y-71909D03*
X77078Y-71555D03*
X77448Y-71555D03*
X104874Y-65826D03*
X105244Y-65826D03*
X104874Y-66141D03*
X105244Y-66141D03*
X104007Y-67145D03*
X104377Y-67145D03*
X104007Y-66830D03*
X104377Y-66830D03*
X99023Y-68996D03*
X98653Y-68996D03*
X109598Y-45905D03*
X109968Y-45905D03*
G54D50*
X109271Y-46267D03*
X109271Y-45897D03*
X108740Y-46566D03*
X108740Y-46936D03*
G54D51*
X108866Y-46200D03*
X108496Y-46200D03*
G54D50*
X111811Y-43161D03*
X111811Y-43531D03*
G54D51*
X104874Y-66456D03*
X105244Y-66456D03*
X78767Y-60748D03*
X78397Y-60748D03*
X78141Y-41141D03*
X78511Y-41141D03*
G54D50*
X81751Y-40362D03*
X81751Y-39992D03*
X82362Y-40362D03*
X82362Y-39992D03*
G54D51*
X82724Y-39665D03*
X82354Y-39665D03*
X80283Y-39960D03*
X79913Y-39960D03*
G54D50*
X77795Y-41527D03*
X77795Y-41897D03*
X81397Y-39992D03*
X81397Y-40362D03*
G54D51*
X75326Y-60787D03*
X75696Y-60787D03*
X76704Y-60118D03*
X77074Y-60118D03*
X101838Y-62874D03*
X101468Y-62874D03*
X70877Y-78716D03*
X70507Y-78716D03*
X88141Y-73641D03*
X88511Y-73641D03*
X89082Y-71283D03*
X88712Y-71283D03*
G54D50*
X88712Y-70559D03*
X88712Y-70929D03*
X93090Y-74637D03*
X93090Y-75007D03*
X91141Y-75307D03*
X91141Y-75677D03*
G54D51*
X71519Y-72783D03*
X71889Y-72783D03*
X87866Y-73251D03*
X87496Y-73251D03*
G54D50*
X84598Y-73968D03*
X84598Y-73598D03*
X83944Y-73972D03*
X83944Y-73602D03*
X83944Y-72842D03*
X83944Y-73212D03*
X83295Y-73968D03*
X83295Y-73598D03*
X83299Y-72842D03*
X83299Y-73212D03*
X82677Y-73968D03*
X82677Y-73598D03*
X82677Y-72846D03*
X82677Y-73216D03*
X84602Y-72842D03*
X84602Y-73212D03*
G54D51*
X77094Y-59251D03*
X76724Y-59251D03*
G54D50*
X77381Y-54480D03*
X77381Y-54850D03*
G54D51*
X70933Y-56535D03*
X70563Y-56535D03*
G54D50*
X73248Y-57452D03*
X73248Y-57822D03*
X88503Y-74692D03*
X88503Y-74322D03*
G54D51*
X73944Y-57106D03*
X73574Y-57106D03*
G54D52*
X91751Y-52303D03*
X91751Y-52500D03*
X91751Y-52893D03*
X92145Y-52893D03*
G54D53*
X92145Y-52303D03*
G54D52*
X91751Y-52696D03*
X92145Y-52696D03*
X92145Y-52500D03*
X91584Y-51260D03*
X91584Y-51457D03*
X91584Y-51850D03*
X91978Y-51850D03*
G54D53*
X91978Y-51260D03*
G54D52*
X91584Y-51653D03*
X91978Y-51653D03*
X91978Y-51457D03*
G54D54*
X95138Y-55256D03*
X95335Y-55256D03*
X95728Y-55256D03*
X95728Y-54862D03*
G54D55*
X95138Y-54862D03*
G54D54*
X95531Y-55256D03*
X95531Y-54862D03*
X95335Y-54862D03*
X94055Y-55256D03*
X94252Y-55256D03*
X94645Y-55256D03*
X94645Y-54862D03*
G54D55*
X94055Y-54862D03*
G54D54*
X94448Y-55256D03*
X94448Y-54862D03*
X94252Y-54862D03*
X92992Y-55256D03*
X93189Y-55256D03*
X93582Y-55256D03*
X93582Y-54862D03*
G54D55*
X92992Y-54862D03*
G54D54*
X93385Y-55256D03*
X93385Y-54862D03*
X93189Y-54862D03*
X91870Y-55256D03*
X92067Y-55256D03*
X92460Y-55256D03*
X92460Y-54862D03*
G54D55*
X91870Y-54862D03*
G54D54*
X92263Y-55256D03*
X92263Y-54862D03*
X92067Y-54862D03*
G54D52*
X91741Y-53405D03*
X91741Y-53602D03*
X91741Y-53995D03*
X92135Y-53995D03*
G54D53*
X92135Y-53405D03*
G54D52*
X91741Y-53798D03*
X92135Y-53798D03*
X92135Y-53602D03*
G54D11*
X85787Y-68228D03*
X85787Y-68582D03*
G54D56*
X100688Y-81850D03*
X100314Y-81850D03*
X99940Y-81850D03*
X100688Y-82795D03*
X99940Y-82795D03*
X107480Y-82007D03*
X107106Y-82007D03*
X106732Y-82007D03*
X107480Y-82952D03*
X106732Y-82952D03*
G54D57*
X72027Y-66988D03*
X72027Y-66614D03*
X72027Y-66240D03*
X71082Y-66988D03*
X71082Y-66240D03*
G54D34*
X99087Y-81850D03*
X97787Y-81850D03*
X105858Y-82027D03*
X104558Y-82027D03*
G54D11*
X99488Y-82815D03*
X99488Y-83169D03*
X70610Y-66240D03*
X70256Y-66240D03*
X106275Y-82964D03*
X106275Y-83318D03*
G54D34*
X72027Y-65196D03*
X70727Y-65196D03*
G54D58*
X100291Y-41531D03*
X85251Y-41531D03*
X100291Y-57279D03*
X85251Y-57279D03*
G54D59*
X106933Y-40913D03*
X105319Y-40913D03*
G54D60*
X106162Y-35944D03*
X105412Y-35944D03*
G54D50*
X103287Y-36444D03*
X103287Y-36074D03*
G54D51*
X103295Y-40078D03*
X102925Y-40078D03*
X104397Y-35118D03*
X104027Y-35118D03*
X103791Y-35551D03*
X104161Y-35551D03*
G54D61*
X104291Y-39271D03*
X103791Y-39271D03*
X103291Y-39271D03*
X102791Y-39271D03*
X102791Y-37204D03*
X103291Y-37204D03*
X103791Y-37204D03*
X104291Y-37204D03*
G54D62*
X103541Y-38238D03*
G54D34*
X103838Y-40826D03*
X102538Y-40826D03*
G54D11*
X102952Y-36436D03*
X102952Y-36082D03*
X102263Y-37185D03*
X102263Y-37539D03*
X104291Y-36161D03*
X104645Y-36161D03*
X103287Y-35748D03*
X102933Y-35748D03*
G54D63*
X106496Y-37608D03*
X106496Y-39242D03*
G54D60*
X108719Y-37598D03*
X109469Y-37598D03*
G54D47*
X111771Y-69240D03*
X111396Y-68240D03*
X112146Y-68240D03*
X111396Y-69240D03*
X111771Y-68240D03*
X112146Y-69240D03*
G54D11*
X112086Y-67480D03*
X112086Y-67126D03*
G54D64*
X108169Y-68257D03*
X107913Y-68257D03*
X107657Y-68257D03*
X107657Y-67324D03*
X107913Y-67324D03*
X108169Y-67324D03*
G54D13*
X107913Y-67790D03*
G54D11*
X108169Y-66751D03*
X108169Y-66397D03*
X108740Y-68248D03*
X108740Y-68602D03*
X110944Y-68247D03*
X110944Y-67893D03*
X111771Y-67480D03*
X111417Y-67480D03*
G54D47*
X109921Y-69240D03*
X109546Y-68240D03*
X110296Y-68240D03*
X109546Y-69240D03*
X109921Y-68240D03*
X110296Y-69240D03*
G54D11*
X110314Y-67480D03*
X110314Y-67126D03*
X109999Y-67480D03*
X109645Y-67480D03*
X109094Y-68247D03*
X109094Y-67893D03*
G54D65*
X71515Y-79417D03*
X70515Y-79417D03*
X72515Y-73496D03*
X71515Y-73496D03*
G54D66*
X77614Y-78854D03*
X77614Y-78055D03*
X77614Y-77255D03*
X77614Y-75657D03*
X77614Y-74858D03*
X77614Y-74059D03*
X76614Y-78454D03*
X76614Y-77655D03*
X76614Y-76856D03*
X76614Y-74458D03*
X76614Y-75257D03*
G54D67*
X74015Y-79921D03*
G54D68*
X74015Y-78356D03*
X74015Y-74557D03*
G54D67*
X74015Y-72992D03*
G54D66*
X76614Y-76057D03*
G54D65*
X70515Y-73496D03*
G54D69*
X72637Y-36850D03*
X112322Y-38543D03*
X109606Y-82598D03*
G54D12*
X67322Y-31889D03*
G54D50*
X110748Y-62389D03*
X110748Y-62019D03*
G54D51*
X88393Y-47283D03*
X88023Y-47283D03*
G54D70*
X104566Y-47716D03*
X105236Y-47716D03*
X107244Y-47716D03*
X106574Y-47716D03*
X105905Y-47716D03*
G54D71*
X105905Y-43659D03*
G54D61*
X74862Y-49177D03*
X75362Y-49177D03*
X75862Y-49177D03*
X76362Y-49177D03*
X76362Y-51244D03*
X75862Y-51244D03*
X75362Y-51244D03*
X74862Y-51244D03*
G54D62*
X75612Y-50210D03*
G54D34*
X75373Y-47637D03*
X76673Y-47637D03*
G54D60*
X72461Y-52874D03*
X71711Y-52874D03*
G54D49*
X74232Y-50431D03*
X74232Y-50001D03*
G54D11*
X75858Y-52090D03*
X75858Y-52444D03*
X76267Y-52082D03*
X76267Y-52436D03*
X75850Y-48401D03*
X76204Y-48401D03*
X76992Y-51244D03*
X76992Y-51598D03*
X75389Y-52090D03*
X75389Y-52444D03*
X76677Y-52444D03*
X76677Y-52090D03*
X74547Y-52078D03*
X74901Y-52078D03*
G54D72*
X74114Y-51654D03*
X74114Y-50904D03*
G54D60*
X74351Y-52874D03*
X73601Y-52874D03*
G54D73*
X102716Y-45333D03*
X102716Y-46083D03*
G54D35*
X105590Y-49035D03*
X105590Y-50335D03*
G54D50*
X111299Y-62295D03*
X111299Y-62665D03*
G54D51*
X102059Y-56496D03*
X102429Y-56496D03*
G54D50*
X74133Y-66035D03*
X74133Y-66405D03*
G54D51*
X73220Y-64803D03*
X73590Y-64803D03*
G54D74*
X73700Y-66003D03*
X73444Y-66003D03*
X73188Y-66003D03*
X73188Y-65255D03*
X73700Y-65255D03*
X73444Y-65255D03*
G54D11*
X95098Y-55846D03*
X95452Y-55846D03*
G54D50*
X72066Y-55937D03*
X72066Y-56307D03*
G54D51*
X72842Y-56299D03*
X72472Y-56299D03*
G54D75*
X111102Y-72881D03*
X111102Y-73881D03*
X111102Y-74881D03*
X111102Y-75881D03*
X111102Y-76881D03*
G54D76*
X111102Y-70381D03*
G54D77*
X100492Y-44054D03*
G54D78*
X100492Y-54448D03*
G54D79*
X106417Y-77755D03*
X104133Y-77755D03*
X106417Y-80511D03*
X104133Y-80511D03*
G54D80*
X105275Y-77952D03*
X105275Y-78740D03*
X105275Y-79527D03*
X105275Y-80314D03*
G54D79*
X101082Y-77755D03*
X98799Y-77755D03*
X101082Y-80511D03*
X98799Y-80511D03*
G54D80*
X99940Y-77952D03*
X99940Y-78740D03*
X99940Y-79527D03*
X99940Y-80314D03*
G54D81*
X110787Y-40633D03*
G54D82*
X108799Y-63614D03*
X110000Y-42212D03*
G54D81*
X110787Y-65192D03*
G54D83*
X79015Y-42066D03*
X79015Y-42263D03*
X79015Y-42460D03*
X79015Y-42657D03*
X83267Y-44429D03*
X83267Y-44625D03*
X83267Y-44232D03*
X83267Y-44035D03*
G54D84*
X80846Y-41023D03*
X81043Y-41023D03*
X81437Y-41023D03*
X81240Y-41023D03*
X80255Y-44881D03*
X80059Y-44881D03*
X79665Y-44881D03*
X79862Y-44881D03*
G54D85*
X79870Y-44173D03*
X79870Y-43448D03*
X79870Y-42000D03*
G54D84*
X80649Y-41023D03*
X80452Y-41023D03*
G54D83*
X79015Y-42854D03*
X79015Y-43051D03*
G54D84*
X80452Y-44881D03*
X80649Y-44881D03*
X82421Y-44881D03*
X82224Y-44881D03*
X82027Y-44881D03*
X81830Y-44881D03*
X81633Y-44881D03*
X81437Y-44881D03*
X81240Y-44881D03*
X81043Y-44881D03*
X80846Y-44881D03*
X79468Y-44881D03*
X79271Y-44881D03*
X83011Y-44881D03*
X82814Y-44881D03*
X82618Y-44881D03*
G54D83*
X79015Y-43838D03*
X79015Y-43641D03*
X79015Y-43444D03*
X79015Y-43248D03*
X79015Y-41870D03*
X79015Y-41673D03*
X79015Y-41476D03*
X79015Y-41279D03*
X79015Y-44625D03*
X79015Y-44429D03*
X79015Y-44232D03*
X79015Y-44035D03*
G54D84*
X79271Y-41023D03*
X79468Y-41023D03*
X79665Y-41023D03*
X79862Y-41023D03*
X80059Y-41023D03*
X80255Y-41023D03*
X81633Y-41023D03*
X81830Y-41023D03*
X82027Y-41023D03*
X82224Y-41023D03*
X82421Y-41023D03*
X82618Y-41023D03*
X82814Y-41023D03*
X83011Y-41023D03*
G54D86*
X83267Y-41279D03*
G54D83*
X83267Y-41476D03*
X83267Y-41673D03*
X83267Y-41870D03*
X83267Y-42066D03*
X83267Y-42263D03*
X83267Y-42460D03*
X83267Y-42657D03*
X83267Y-42854D03*
X83267Y-43051D03*
X83267Y-43248D03*
X83267Y-43444D03*
X83267Y-43641D03*
X83267Y-43838D03*
G54D85*
X79870Y-42724D03*
G54D87*
X113149Y-57559D03*
X113149Y-58503D03*
X113149Y-58031D03*
X113149Y-78188D03*
X113149Y-78661D03*
X113149Y-79133D03*
X113149Y-77716D03*
X113149Y-38858D03*
X113149Y-40275D03*
X113149Y-39803D03*
X113149Y-39330D03*
X69842Y-58070D03*
X69842Y-58543D03*
X69842Y-57598D03*
X69842Y-77165D03*
X69842Y-78582D03*
X69842Y-78110D03*
X69842Y-77637D03*
X69842Y-39251D03*
X69842Y-39724D03*
X69842Y-40196D03*
X69842Y-38779D03*
X76299Y-83700D03*
X91299Y-83700D03*
X90826Y-83700D03*
X90354Y-83700D03*
X108228Y-83700D03*
X107755Y-83700D03*
X107283Y-83700D03*
X75354Y-83700D03*
X75826Y-83700D03*
X102047Y-34724D03*
X102519Y-34724D03*
X102992Y-34724D03*
X84763Y-34724D03*
X84291Y-34724D03*
X83818Y-34724D03*
G54D51*
X70696Y-54685D03*
X70326Y-54685D03*
X74751Y-53818D03*
X74381Y-53818D03*
G54D17*
X93740Y-59318D03*
X93031Y-59318D03*
G54D16*
X87047Y-67417D03*
X87047Y-68125D03*
G54D17*
X89232Y-61535D03*
X89940Y-61535D03*
X95767Y-70688D03*
X95059Y-70688D03*
X91023Y-70590D03*
X90314Y-70590D03*
G54D16*
X97972Y-67362D03*
X97972Y-68070D03*
X100826Y-64330D03*
X100826Y-63622D03*
G54D88*
X74744Y-54830D03*
X73917Y-54830D03*
X73917Y-55484D03*
X74744Y-55484D03*
G54D35*
X88035Y-66944D03*
X88035Y-68244D03*
G54D34*
X99487Y-70334D03*
X100787Y-70334D03*
G54D35*
X88346Y-61968D03*
X88346Y-60668D03*
G54D34*
X95362Y-60173D03*
X94062Y-60173D03*
G54D88*
X104877Y-69106D03*
X104051Y-69106D03*
X104051Y-69759D03*
X104877Y-69759D03*
G54D89*
X87311Y-75314D03*
X87311Y-76141D03*
X87964Y-76141D03*
X87964Y-75314D03*
G54D11*
X74153Y-55964D03*
X74507Y-55964D03*
X74507Y-54350D03*
X74153Y-54350D03*
G54D90*
X97979Y-54452D03*
X98729Y-54452D03*
X98065Y-50850D03*
X98815Y-50850D03*
X96766Y-51673D03*
X97516Y-51673D03*
X97617Y-53011D03*
X98367Y-53011D03*
G54D17*
X93208Y-56023D03*
X92500Y-56023D03*
G54D16*
X92185Y-49685D03*
X92185Y-48976D03*
G54D17*
X96220Y-56102D03*
X96929Y-56102D03*
X96358Y-54086D03*
X97066Y-54086D03*
G54D16*
X97145Y-51043D03*
X97145Y-50334D03*
G54D17*
X96468Y-52338D03*
X97177Y-52338D03*
G54D90*
X84034Y-59763D03*
X84784Y-59763D03*
G54D73*
X90826Y-53896D03*
X90826Y-54646D03*
G54D90*
X90884Y-49696D03*
X91634Y-49696D03*
G54D73*
X94763Y-57461D03*
X94763Y-56711D03*
G54D51*
X96696Y-60350D03*
X96326Y-60350D03*
G54D67*
X73251Y-42539D03*
X73251Y-44409D03*
X73251Y-46279D03*
G54D91*
X72244Y-47874D03*
X72244Y-40944D03*
G54D63*
X72086Y-51564D03*
X72086Y-49930D03*
G54D32*
X102047Y-65275D03*
X102047Y-64775D03*
X102047Y-64275D03*
X102047Y-63775D03*
X104016Y-63775D03*
X104016Y-64275D03*
X104016Y-64775D03*
X104016Y-65275D03*
G54D51*
X100204Y-64330D03*
X99834Y-64330D03*
X101468Y-63267D03*
X101838Y-63267D03*
G54D48*
X102934Y-65905D03*
X103364Y-65905D03*
G54D34*
X82558Y-45826D03*
X83858Y-45826D03*
G54D50*
X80629Y-39992D03*
X80629Y-40362D03*
G54D35*
X79488Y-61042D03*
X79488Y-62342D03*
G54D92*
X71476Y-55433D03*
X71673Y-55433D03*
X71870Y-55433D03*
X72066Y-55433D03*
X72263Y-55433D03*
X72460Y-55433D03*
X72460Y-53937D03*
X72263Y-53937D03*
X72066Y-53937D03*
X71870Y-53937D03*
X71673Y-53937D03*
X71476Y-53937D03*
G54D93*
X71220Y-55177D03*
X71220Y-54980D03*
X71220Y-54783D03*
X71220Y-54586D03*
X71220Y-54389D03*
X71220Y-54192D03*
X72716Y-55177D03*
X72716Y-54980D03*
X72716Y-54783D03*
X72716Y-54586D03*
X72716Y-54389D03*
X72716Y-54192D03*
G54D94*
X71968Y-54685D03*
G54D11*
X90078Y-52224D03*
X90078Y-52578D03*
X90314Y-51791D03*
X90314Y-51437D03*
G54D74*
X95255Y-59192D03*
G54D95*
X77145Y-35645D03*
G54D96*
X74803Y-38066D03*
X74803Y-36019D03*
X79488Y-36019D03*
G54D97*
X77145Y-37614D03*
G54D96*
X79488Y-38066D03*
G54D98*
X77145Y-40232D03*
G54D16*
X97106Y-52893D03*
X97106Y-53602D03*
G54D99*
X87523Y-36968D03*
X88523Y-36968D03*
X89523Y-36968D03*
X90523Y-36968D03*
X91523Y-36968D03*
X92523Y-36968D03*
X93523Y-36968D03*
X94523Y-36968D03*
X87523Y-39251D03*
X88523Y-39251D03*
X89523Y-39251D03*
X90523Y-39251D03*
X91523Y-39251D03*
X92523Y-39251D03*
X93523Y-39251D03*
X94523Y-39251D03*
G54D100*
X76102Y-43937D03*
X76102Y-41968D03*
G54D80*
X85708Y-82047D03*
X86496Y-82047D03*
X89645Y-82047D03*
X88858Y-82047D03*
X88070Y-82047D03*
X87283Y-82047D03*
G54D10*
G36*
X104665Y-38700D02*
X101338Y-38700D01*
X101338Y-37775D01*
X104665Y-37775D01*
X104665Y-38700D01*
X104665Y-38700D01*
G37*
G54D101*
X104665Y-38700D02*
X101338Y-38700D01*
X101338Y-37775D01*
X104665Y-37775D01*
X104665Y-38700D01*
G54D10*
G36*
X107559Y-44409D02*
X102204Y-44409D01*
X102204Y-41771D01*
X107559Y-41771D01*
X107559Y-44409D01*
X107559Y-44409D01*
G37*
G54D101*
X107559Y-44409D02*
X102204Y-44409D01*
X102204Y-41771D01*
X107559Y-41771D01*
X107559Y-44409D01*
G54D10*
G36*
X79291Y-73090D02*
X78740Y-73090D01*
X78740Y-71003D01*
X79291Y-71003D01*
X79291Y-73090D01*
X79291Y-73090D01*
G37*
G54D101*
X79291Y-73090D02*
X78740Y-73090D01*
X78740Y-71003D01*
X79291Y-71003D01*
X79291Y-73090D01*
G54D10*
G36*
X77367Y-50631D02*
X74652Y-50631D01*
X74652Y-49786D01*
X77367Y-49786D01*
X77367Y-50631D01*
X77367Y-50631D01*
G37*
G54D102*
X77367Y-50631D02*
X74652Y-50631D01*
X74652Y-49786D01*
X77367Y-49786D01*
X77367Y-50631D01*
M02*
