G04 (created by PCBNEW (2013-07-07 BZR 4022)-stable) date 10/02/2015 04:29:17*
%MOIN*%
G04 Gerber Fmt 3.4, Leading zero omitted, Abs format*
%FSLAX34Y34*%
G01*
G70*
G90*
G04 APERTURE LIST*
%ADD10C,0.00590551*%
%ADD11C,0.00393701*%
G04 APERTURE END LIST*
G54D10*
G54D11*
X102992Y-33543D02*
X114330Y-33543D01*
X102047Y-33543D02*
X84763Y-33543D01*
X117125Y-30511D02*
X65944Y-30511D01*
X117125Y-87598D02*
X117125Y-30511D01*
X65944Y-87598D02*
X117125Y-87598D01*
X65944Y-30511D02*
X65944Y-87598D01*
X84763Y-34724D02*
X83818Y-34724D01*
X84763Y-33543D02*
X84763Y-34724D01*
X102047Y-34724D02*
X102047Y-33543D01*
X102992Y-34724D02*
X102047Y-34724D01*
X102992Y-33543D02*
X102992Y-34724D01*
X114330Y-38858D02*
X114330Y-33543D01*
X113149Y-38858D02*
X114330Y-38858D01*
X113149Y-40275D02*
X113149Y-38858D01*
X114330Y-40275D02*
X113149Y-40275D01*
X114330Y-57559D02*
X114330Y-40275D01*
X113149Y-57559D02*
X114330Y-57559D01*
X113149Y-58503D02*
X113149Y-57559D01*
X114330Y-58503D02*
X113149Y-58503D01*
X114330Y-77716D02*
X114330Y-58503D01*
X113149Y-77716D02*
X114330Y-77716D01*
X113149Y-79133D02*
X113149Y-77716D01*
X114330Y-79133D02*
X113149Y-79133D01*
X114330Y-84881D02*
X114330Y-79133D01*
X108228Y-84881D02*
X114330Y-84881D01*
X108228Y-83700D02*
X108228Y-84881D01*
X107283Y-83700D02*
X108228Y-83700D01*
X107283Y-84881D02*
X107283Y-83700D01*
X91299Y-84881D02*
X107283Y-84881D01*
X91299Y-83700D02*
X91299Y-84881D01*
X90354Y-83700D02*
X91299Y-83700D01*
X90354Y-84881D02*
X90354Y-83700D01*
X76299Y-84881D02*
X90354Y-84881D01*
X76299Y-83700D02*
X76299Y-84881D01*
X75354Y-83700D02*
X76299Y-83700D01*
X75354Y-84881D02*
X75354Y-83700D01*
X68661Y-84881D02*
X75354Y-84881D01*
X68661Y-78582D02*
X68661Y-84881D01*
X69842Y-78582D02*
X68661Y-78582D01*
X69842Y-77165D02*
X69842Y-78582D01*
X68661Y-77165D02*
X69842Y-77165D01*
X68661Y-58543D02*
X68661Y-77165D01*
X69842Y-58543D02*
X68661Y-58543D01*
X69842Y-57598D02*
X69842Y-58543D01*
X68661Y-57598D02*
X69842Y-57598D01*
X68661Y-40196D02*
X68661Y-57598D01*
X69842Y-40196D02*
X68661Y-40196D01*
X69842Y-38779D02*
X69842Y-40196D01*
X68661Y-38779D02*
X69842Y-38779D01*
X68661Y-33543D02*
X68661Y-38779D01*
X83818Y-33543D02*
X68661Y-33543D01*
X83818Y-34724D02*
X83818Y-33543D01*
X69842Y-83700D02*
X69842Y-80157D01*
X113149Y-83700D02*
X69842Y-83700D01*
X113149Y-80118D02*
X113149Y-83700D01*
X69842Y-34724D02*
X69842Y-80157D01*
X113149Y-34724D02*
X69842Y-34724D01*
X113149Y-39370D02*
X113149Y-34724D01*
X113149Y-72047D02*
X113149Y-39370D01*
X113149Y-80157D02*
X113149Y-72047D01*
M02*
